<?xml version="1.0" standalone="no"?>
<!DOCTYPE svg PUBLIC "-//W3C//DTD SVG 1.1//EN" "http://www.w3.org/Graphics/SVG/1.1/DTD/svg11.dtd" >
<svg xmlns="http://www.w3.org/2000/svg" xmlns:xlink="http://www.w3.org/1999/xlink" version="1.1">
<metadata>
Created by FontForge 20170731 at Sat Dec 18 21:17:01 2021
 By Aleksey,,,
Copyright (c) 2018 by Connary Fagen. All rights reserved.
</metadata>
<defs>
<font id="VentiCF-ExtraBoldItalic" horiz-adv-x="1095" >
  <font-face 
    font-family="Venti CF Extra Bold"
    font-weight="800"
    font-style="italic"
    font-stretch="normal"
    units-per-em="2048"
    panose-1="0 0 9 0 0 0 0 0 0 0"
    ascent="1638"
    descent="-410"
    x-height="885"
    cap-height="1354"
    bbox="-516.941 -730.095 2317.4 1951"
    underline-thickness="86"
    underline-position="-259"
    slope="-15"
    unicode-range="U+0020-FB01"
  />
<missing-glyph horiz-adv-x="867" 
d="M712 1388v-1735h-551v1735h551zM578 1272h-286v-57h112v-64h-114v-58h288v58h-115v64h115v57zM463 1048h-173v-180h288v59h-115v121zM404 989v-62h-57v62h57zM578 821h-288v-57h114v-65h-114v-57h173v122h115v57zM578 717h-57v-115h-231v-59h288v174zM578 505h-174v-97
h59v40h58v-82h-174v139h-57v-196h288v196zM578 205h-288v-196h288v196zM521 148v-82h-174v82h174zM578 -31h-288v-58h121l-121 -81v-57h288v57h-177l121 81h56v58z" />
    <glyph glyph-name="fi" unicode="fi" horiz-adv-x="1161" 
d="M1144 885q16 0 23.5 -9.5t2.5 -23.5l-221 -826q-5 -26 -33 -26h-222q-16 0 -23 9.5t-3 23.5l160 599h-316l-161 -606q-8 -26 -35 -26h-222q-16 0 -23 9.5t-2 23.5l160 599h-90q-35 0 -24 33l50 194q8 26 35 26h97l48 184q44 160 158 244t254 84q146 0 237 -87
q38 -38 14 -64l-100 -116q-23 -29 -47 -9q-34 24 -77 24q-57 0 -105.5 -36t-67.5 -104l-31 -120h564z" />
    <glyph glyph-name="f_f" unicode="ff" horiz-adv-x="1346" 
d="M1592 1310q40 -36 15 -64l-101 -116q-24 -27 -46 -9q-38 24 -77 24q-57 0 -105.5 -36t-67.5 -104l-32 -120h171q16 0 22.5 -9.5t1.5 -23.5l-50 -196q-7 -24 -35 -24h-177l-162 -606q-8 -26 -34 -26h-222q-16 0 -23 9.5t-2 23.5l160 599h-318l-161 -602q-7 -30 -38 -30
h-219q-32 0 -24 33l159 599h-88q-32 0 -24 33l50 194q8 26 36 26h94l38 142q48 180 181 279.5t307 99.5q171 0 264 -106q115 97 270 97q150 0 237 -87zM896 885l48 184q6 20 7 23q-40 62 -123 62q-35 0 -67 -9.5t-64.5 -30.5t-59.5 -62.5t-42 -98.5l-17 -68h318z" />
    <glyph glyph-name="f_f_i" unicode="ffi" horiz-adv-x="1773" 
d="M1743 885q16 0 23 -9.5t3 -23.5l-221 -826q-5 -26 -33 -26h-222q-16 0 -23 9.5t-3 23.5l160 599h-316l-162 -606q-8 -26 -34 -26h-222q-16 0 -23 9.5t-2 23.5l160 599h-318l-161 -602q-7 -30 -38 -30h-219q-32 0 -24 33l159 599h-88q-32 0 -24 33l50 194q8 26 36 26h94
l38 142q48 180 181 279.5t307 99.5q171 0 264 -106q115 97 270 97q150 0 237 -87q40 -36 15 -64l-101 -116q-24 -27 -46 -9q-38 24 -77 24q-57 0 -105.5 -36t-67.5 -104l-32 -120h565zM896 885l48 184q6 20 7 23q-40 62 -123 62q-35 0 -67 -9.5t-64.5 -30.5t-59.5 -62.5
t-42 -98.5l-17 -68h318z" />
    <glyph glyph-name="f_j.liga" unicode="fj" horiz-adv-x="1159" 
d="M1144 885q16 0 23 -9.5t3 -23.5l-226 -840q-45 -169 -118.5 -261t-214.5 -148q-21 -7 -35.5 0.5t-18.5 25.5l-55 217q-12 41 24 53q119 42 144 139l158 594h-316l-161 -606q-8 -26 -35 -26h-222q-16 0 -23 9.5t-2 23.5l160 599h-90q-35 0 -24 33l50 194q8 26 35 26h97
l48 184q44 160 158 244t254 84q146 0 237 -87q38 -38 14 -64l-100 -116q-23 -29 -47 -9q-34 24 -77 24q-57 0 -105.5 -36t-67.5 -104l-31 -120h564z" />
    <glyph glyph-name=".notdef" horiz-adv-x="867" 
d="M712 1388v-1735h-551v1735h551zM578 1272h-286v-57h112v-64h-114v-58h288v58h-115v64h115v57zM463 1048h-173v-180h288v59h-115v121zM404 989v-62h-57v62h57zM578 821h-288v-57h114v-65h-114v-57h173v122h115v57zM578 717h-57v-115h-231v-59h288v174zM578 505h-174v-97
h59v40h58v-82h-174v139h-57v-196h288v196zM578 205h-288v-196h288v196zM521 148v-82h-174v82h174zM578 -31h-288v-58h121l-121 -81v-57h288v57h-177l121 81h56v58z" />
    <glyph glyph-name=".null" horiz-adv-x="0" 
 />
    <glyph glyph-name="nonmarkingreturn" horiz-adv-x="682" 
 />
    <glyph glyph-name="space" unicode=" " horiz-adv-x="416" 
 />
    <glyph glyph-name="exclam" unicode="!" horiz-adv-x="508" 
d="M613 1354q14 0 21 -10t3 -23l-7 -28l-253 -712q-4 -13 -14.5 -22t-22.5 -9h-135q-13 0 -19.5 8.5t-4.5 22.5l130 712l8 28q6 33 44 33h250zM182 -14q-67 0 -114 48.5t-47 116.5q0 67 47 113.5t114 46.5t115 -47t48 -113q0 -68 -48 -116.5t-115 -48.5z" />
    <glyph glyph-name="quotedbl" unicode="&#x22;" horiz-adv-x="753" 
d="M213 871q-19 0 -29 11.5t-5 33.5l106 396q6 25 18.5 33.5t36.5 8.5h181q49 0 27 -59l-142 -384q-16 -40 -54 -40h-139zM594 871q-19 0 -29 12t-4 33l105 396q6 25 18.5 33.5t37.5 8.5h179q50 0 28 -59l-143 -384q-16 -40 -54 -40h-138z" />
    <glyph glyph-name="numbersign" unicode="#" horiz-adv-x="1145" 
d="M1215 1041q13 0 19.5 -8.5t2.5 -22.5l-52 -191q-4 -12 -14 -20.5t-22 -8.5h-156l-94 -226h123q29 0 21 -29l-50 -191q-4 -12 -15 -22t-23 -10h-160l-116 -281q-13 -31 -39 -31h-175q-14 0 -21.5 9t-2.5 22l116 281h-146l-116 -281q-13 -31 -36 -31h-177q-15 0 -22.5 9
t-2.5 22l117 281h-117q-13 0 -19.5 9t-2.5 21l50 191q4 14 15.5 22.5t24.5 8.5h153l93 226h-121q-12 0 -19.5 8.5t-3.5 20.5l51 191q4 13 15.5 22t24.5 9h158l118 283q13 30 38 30h177q13 0 20.5 -9t0.5 -21l-117 -283h146l116 283q17 30 40 30h177q13 0 20 -9.5t1 -20.5
l-116 -283h118zM661 564l94 226h-146l-94 -226h146z" />
    <glyph glyph-name="dollar" unicode="$" horiz-adv-x="840" 
d="M547 913q-49 0 -83 -16t-34 -47q0 -24 21.5 -38t69.5 -28q135 -33 200 -90t65 -151q0 -89 -54.5 -157t-143 -102t-196.5 -34h-1l-98 -217q-9 -21 -21.5 -28t-35.5 -2l-115 21q-44 7 -24 51l96 211q-60 23 -125 70q-25 15 -6 40l98 123q13 20 38 9q118 -59 212 -59
q49 0 86 18t37 49q0 24 -23 39.5t-88 33.5q-112 31 -170.5 88.5t-58.5 149.5q0 128 105.5 207t265.5 81l101 222q11 21 23 27.5t36 2.5l113 -21q46 -7 26 -50l-98 -217q56 -25 99 -58q25 -15 6 -40l-101 -126q-16 -19 -40 -9q-86 47 -182 47z" />
    <glyph glyph-name="percent" unicode="%" horiz-adv-x="1291" 
d="M456 876q-99 0 -159.5 61t-60.5 155q0 123 93 214t211 91q99 0 159.5 -60.5t60.5 -154.5q0 -120 -92.5 -213t-211.5 -93zM-38 0l1241 1388h265l-1242 -1388h-264zM472 1052q48 0 82 33t34 76q0 28 -19.5 44.5t-47.5 16.5q-48 0 -80.5 -33t-32.5 -76q0 -29 18 -45t46 -16z
M885 -9q-98 0 -159 61t-61 156q0 122 94 213t211 91q98 0 159.5 -60.5t61.5 -154.5q0 -119 -93 -212.5t-213 -93.5zM903 167q48 0 81 33.5t33 75.5q0 29 -19 45t-47 16q-48 0 -81 -33t-33 -75q0 -30 19 -46t47 -16z" />
    <glyph glyph-name="ampersand" unicode="&#x26;" horiz-adv-x="1338" 
d="M1166 219q25 -5 18 -37l-45 -163q-2 -12 -5.5 -15.5t-10.5 -3.5q-59 0 -107.5 11.5t-85.5 34.5t-62.5 47t-53.5 58q-189 -151 -396 -151q-169 0 -269 85.5t-100 228.5q0 62 21 116t52.5 94.5t86.5 82.5t103.5 70.5t123.5 68.5l138 75q48 25 80.5 43t77.5 47.5t72 55
t47 58t20 63.5q0 41 -29 63t-75 22q-70 0 -121 -46t-51 -117q0 -33 19 -76q6 -14 -64 -54q-32 -18 -123 -63q-36 56 -52 95.5t-16 95.5q0 105 60.5 194t161.5 139.5t219 50.5q144 0 229 -75.5t85 -197.5q0 -66 -25 -125.5t-73 -110.5t-104.5 -92.5t-132.5 -84.5l-21 -12
l120 -196q216 182 255 333q9 25 28 25h168q26 0 26 -42q-3 -60 -38.5 -131.5t-91.5 -140t-111 -125.5t-114 -108q59 -64 166 -90zM444 241q120 0 224 87l-147 226l-12 -7q-50 -26 -78 -43t-60 -42.5t-46 -53t-14 -59.5q0 -52 36.5 -80t96.5 -28z" />
    <glyph glyph-name="quotesingle" unicode="'" horiz-adv-x="373" 
d="M213 871q-19 0 -29 11.5t-5 33.5l106 396q6 25 18.5 33.5t36.5 8.5h181q49 0 27 -59l-142 -384q-16 -40 -54 -40h-139z" />
    <glyph glyph-name="parenleft" unicode="(" horiz-adv-x="763" 
d="M489 -212q-200 0 -298.5 139t-98.5 392q0 141 29.5 291.5t83.5 293t134.5 270.5t176.5 224t216 152.5t247 56.5q27 0 19 -26l-59 -222q-8 -33 -40 -33q-81 0 -161.5 -66.5t-143 -174t-111.5 -236.5t-75 -259.5t-26 -237.5q0 -276 180 -276q20 0 24.5 -8.5t0.5 -25.5
l-61 -228q-8 -26 -37 -26z" />
    <glyph glyph-name="parenright" unicode=")" horiz-adv-x="763" 
d="M413 1607q200 0 299 -139t99 -392q0 -141 -30 -291.5t-83.5 -293t-134.5 -270.5t-176.5 -224t-215.5 -152.5t-247 -56.5q-26 0 -21 26l59 222q6 18 14 25.5t27 7.5q101 0 199 102t166 251.5t109.5 318t41.5 302.5q0 276 -181 276q-34 0 -22 35l61 227q5 26 36 26z" />
    <glyph glyph-name="asterisk" unicode="*" horiz-adv-x="796" 
d="M901 1187q12 -28 -21 -42l-175 -79l132 -80q24 -13 0 -42l-89 -99q-24 -26 -45 -8l-99 90l-30 -153q-4 -31 -39 -31h-117q-31 0 -21 31l53 155l-150 -92q-26 -21 -38 8l-35 99q-9 29 21 42l174 80l-130 79q-25 14 1 42l87 99q25 27 43 9l101 -92l30 154q4 31 38 31h116
q36 0 23 -31l-54 -154l149 92q14 10 25.5 7t16.5 -16z" />
    <glyph glyph-name="plus" unicode="+" horiz-adv-x="1044" 
d="M1014 779q35 0 24 -33l-52 -196q-4 -24 -33 -24h-280l-76 -283q-8 -26 -35 -26h-192q-16 0 -23.5 9.5t-2.5 23.5l73 276h-273q-34 0 -26 33l52 196q8 24 33 24h281l77 283q5 26 33 26h194q16 0 23 -9.5t3 -23.5l-73 -276h273z" />
    <glyph glyph-name="comma" unicode="," horiz-adv-x="520" 
d="M49 -260q-19 -8 -25 -4.5t-14 18.5l-19 31q-9 18 14 34q123 83 169 172q-8 -5 -32 -5q-51 0 -92 43t-41 103q0 74 56.5 127t130.5 53q65 0 108 -43t43 -116q0 -108 -89.5 -225.5t-208.5 -187.5z" />
    <glyph glyph-name="hyphen" unicode="-" horiz-adv-x="834" 
d="M722 349q0 -13 -9 -22t-22 -9h-550q-13 0 -22.5 8.5t-9.5 20.5v172q0 14 9 22.5t23 8.5h550q13 0 22 -7.5t9 -21.5v-172z" />
    <glyph glyph-name="period" unicode="." horiz-adv-x="508" 
d="M175 -14q-67 0 -114 48.5t-47 116.5q0 67 47 113.5t114 46.5t115 -47t48 -113q0 -68 -48 -116.5t-115 -48.5z" />
    <glyph glyph-name="slash" unicode="/" horiz-adv-x="789" 
d="M736 1388h232q15 0 22.5 -9.5t0.5 -21.5l-760 -1324q-8 -12 -12 -17.5t-11.5 -10.5t-16.5 -5h-234q-13 0 -21 10.5t-2 22.5l762 1324q16 31 40 31z" />
    <glyph glyph-name="zero" unicode="0" horiz-adv-x="1232" 
d="M512 -21q-199 0 -301.5 125t-102.5 340q0 131 35 264.5t102 251t155.5 209t203.5 144.5t239 53q198 0 301.5 -127t103.5 -342q0 -131 -35 -263.5t-101.5 -249.5t-155 -208t-204.5 -144t-240 -53zM547 241q71 0 137 41.5t115.5 110t87 153t57 175t19.5 171.5
q0 212 -149 212q-89 0 -169.5 -63t-134 -159.5t-85 -210t-31.5 -216.5q0 -214 153 -214z" />
    <glyph glyph-name="one" unicode="1" horiz-adv-x="649" 
d="M769 1354q16 0 23 -9.5t3 -23.5l-347 -1295q-8 -26 -35 -26h-222q-16 0 -22.5 9.5t-1.5 23.5l251 932q-103 -35 -165 -35q-29 0 -43 13.5t-9 35.5l37 149q6 36 31 38q80 14 129.5 50.5t108.5 118.5q12 19 41 19h221z" />
    <glyph glyph-name="two" unicode="2" horiz-adv-x="1069" 
d="M23 0q-16 0 -23 9.5t-3 23.5l12 59l611 581q44 41 63 59.5t55 57t52.5 63.5t30.5 59t14 65q0 51 -32 84.5t-97 33.5q-135 0 -286 -175q-22 -27 -42 0l-126 146q-16 22 1 41q243 259 505 259q166 0 266.5 -87t100.5 -236q0 -212 -209 -413l-404 -375h401q16 0 22.5 -9.5
t1.5 -23.5l-52 -196q-5 -26 -33 -26h-829z" />
    <glyph glyph-name="three" unicode="3" horiz-adv-x="1077" 
d="M1135 1354q31 0 26 -33l-50 -198q-3 -17 -21 -33l-347 -279q134 -20 199.5 -100.5t65.5 -201.5q0 -139 -81 -261t-214.5 -193.5t-283.5 -71.5q-137 0 -246 64t-155 175q-9 13 -8.5 28t16.5 26l160 120q9 6 16.5 7t15 -4.5t13 -11.5t14.5 -17q30 -52 84.5 -85t122.5 -33
q108 0 186.5 73t78.5 166q0 52 -28.5 85t-84.5 33q-50 0 -105 -22q-27 -8 -40 22l-65 155q-13 30 7 47l360 289h-412q-35 0 -24 33l52 195q5 26 33 26h715z" />
    <glyph glyph-name="four" unicode="4" horiz-adv-x="1133" 
d="M1036 481q16 0 23.5 -10t2.5 -25l-52 -194q-5 -26 -33 -26h-88l-52 -200q-8 -26 -35 -26h-191q-16 0 -23.5 9.5t-2.5 23.5l50 193h-595q-15 0 -21.5 9t-2.5 24l53 204q4 28 37 49q192 121 357 346t247 470q4 26 31 26h217q16 0 23 -9.5t3 -25.5q-77 -256 -234 -481.5
t-353 -367.5l304 6l30 109q8 25 29 29l208 46q17 2 24.5 -6t3.5 -26l-40 -149z" />
    <glyph glyph-name="five" unicode="5" horiz-adv-x="1076" 
d="M684 890q154 0 238.5 -94t84.5 -248q0 -111 -45.5 -215.5t-121.5 -181t-180 -122.5t-216 -46q-261 0 -399 237q-17 25 7 42l172 146q26 19 43 -9q80 -130 214 -130q101 0 165 66t64 154q0 53 -33 87.5t-92 34.5q-77 0 -149 -68l-233 75q-26 10 -22 38l180 672q5 26 33 26
h731q16 0 22.5 -9.5t1.5 -23.5l-52 -196q-5 -26 -33 -26h-486l-71 -256q79 47 177 47z" />
    <glyph glyph-name="six" unicode="6" horiz-adv-x="1084" 
d="M488 -17q-180 0 -286.5 117.5t-106.5 331.5q0 112 31 224t87.5 214t141 191t187 154t230.5 102t266 37q36 0 28 -35l-56 -198q-7 -24 -26 -24q-102 0 -195.5 -31.5t-160.5 -83t-113.5 -110.5t-68.5 -119q46 40 112.5 63.5t132.5 23.5q154 0 242.5 -88t88.5 -245
q0 -140 -72.5 -261t-195.5 -192t-266 -71zM514 243q88 0 156 64.5t68 147.5q0 58 -37.5 95.5t-98.5 37.5q-89 0 -157 -63.5t-68 -146.5q0 -60 37 -97.5t100 -37.5z" />
    <glyph glyph-name="seven" unicode="7" horiz-adv-x="1015" 
d="M1180 1258q-2 -7 -22 -40l-832 -1199q-12 -19 -34 -19h-231q-18 0 -23 10t5 26l748 1063h-527q-16 0 -22.5 9.5t-1.5 23.5l52 196q5 26 33 26h838q17 0 26 -12t5 -30z" />
    <glyph glyph-name="eight" unicode="8" horiz-adv-x="1044" 
d="M397 -17q-174 0 -270.5 78.5t-96.5 209.5q0 141 100 257.5t240 169.5l-2 3q-52 31 -87.5 88t-35.5 138q0 117 72.5 219t191.5 161t253 59q150 0 240 -74t90 -199q0 -119 -83 -224.5t-209 -165.5l-7 -5q177 -75 177 -255q0 -128 -78 -234.5t-209.5 -166t-285.5 -59.5z
M625 852q75 0 132 52.5t57 119.5q0 45 -30.5 73t-84.5 28q-76 0 -133 -51.5t-57 -118.5q0 -46 31.5 -74.5t84.5 -28.5zM456 229q87 0 151.5 55t64.5 134q0 49 -35.5 80t-96.5 31q-86 0 -150.5 -57t-64.5 -132q0 -52 35.5 -81.5t95.5 -29.5z" />
    <glyph glyph-name="nine" unicode="9" horiz-adv-x="1084" 
d="M722 1366q180 0 285.5 -118t105.5 -332q0 -134 -43 -267.5t-126 -250.5t-195.5 -207.5t-262 -143t-314.5 -52.5q-36 0 -28 35l56 197q4 25 24 25q103 0 197 31.5t161 82.5t113.5 110t68.5 119q-47 -40 -113.5 -63t-131.5 -23q-155 0 -244 88t-89 245q0 141 72.5 261.5
t196 191.5t267.5 71zM696 1106q-88 0 -156 -64.5t-68 -147.5q0 -58 37 -96t98 -38q89 0 157.5 63.5t68.5 146.5q0 59 -38 97.5t-99 38.5z" />
    <glyph glyph-name="colon" unicode=":" horiz-adv-x="510" 
d="M333 573q-67 0 -114 48t-47 115t47 114t114 47t115 -47t48 -114t-48 -115t-115 -48zM177 -14q-67 0 -114 48.5t-47 116.5q0 67 47 113.5t114 46.5t115 -47t48 -113q0 -68 -48 -116.5t-115 -48.5z" />
    <glyph glyph-name="semicolon" unicode=";" horiz-adv-x="520" 
d="M333 573q-67 0 -114 48t-47 115t47 114t114 47t115 -47t48 -114t-48 -115t-115 -48zM50 -260q-20 -8 -25 -5t-13 19l-19 31q-11 19 14 34q117 79 168 172q-12 -5 -31 -5q-51 0 -92.5 43t-41.5 103q0 74 56.5 127t129.5 53q65 0 109 -43t44 -116q0 -108 -90 -225.5
t-209 -187.5z" />
    <glyph glyph-name="less" unicode="&#x3c;" horiz-adv-x="997" 
d="M165 725l-44 -149q-2 -7 2 -14.5t11 -9.5l682 -326q31 -13 40 17l50 180q4 10 1 20.5t-10 12.5l-421 177l515 186q8 2 16 11.5t10 19.5l56 198q5 17 -5 21.5t-27 -3.5l-854 -316q-19 -6 -22 -25z" />
    <glyph glyph-name="equal" unicode="=" horiz-adv-x="1044" 
d="M198 729q-34 0 -26 33l52 196q8 24 33 24h810q16 0 23 -9t2 -24l-52 -196q-4 -24 -33 -24h-809zM90 323q-34 0 -26 33l52 196q8 24 33 24h811q35 0 24 -33l-52 -196q-4 -24 -33 -24h-809z" />
    <glyph glyph-name="greater" unicode="&#x3e;" horiz-adv-x="999" 
d="M944 566l42 149q5 18 -12 24l-682 327q-30 16 -40 -18l-51 -180q-4 -10 -1 -19.5t10 -11.5l422 -179l-514 -184q-9 -2 -17.5 -11.5t-10.5 -19.5l-54 -200q-6 -17 3 -21t27 4l854 317q20 6 24 23z" />
    <glyph glyph-name="question" unicode="?" horiz-adv-x="836" 
d="M236 1159q-12 21 9 39q95 88 209 134t225 46q138 0 216.5 -67.5t78.5 -184.5q0 -103 -60 -187t-171 -168q-99 -77 -134 -113t-47 -82l-24 -95q-4 -13 -15.5 -23t-24.5 -10h-191q-14 0 -20 9t-2 24l34 132q18 68 61.5 118.5t112.5 99.5q4 3 23.5 16t25.5 17.5t23.5 17
t24 18.5t20.5 18.5t20.5 20.5t16 20.5t13 22.5t7 22.5t3.5 24.5q0 41 -29.5 65.5t-76.5 24.5q-89 0 -198 -100q-23 -20 -38 3zM340 -14q-67 0 -114 48.5t-47 116.5q0 67 47 113.5t114 46.5t115 -47t48 -113q0 -68 -48 -116.5t-115 -48.5z" />
    <glyph glyph-name="at" unicode="@" horiz-adv-x="1844" 
d="M639 -345q-141 10 -252 64t-180.5 140.5t-106 196t-36.5 234.5q0 139 42 276t116.5 255t179 219t225.5 173t261.5 112.5t281.5 40.5q127 0 233.5 -32.5t183 -90t129.5 -137.5t79 -174.5t26 -199.5q0 -126 -36 -247t-99 -216t-156.5 -153.5t-200.5 -58.5q-46 0 -81.5 10
t-60 31t-36 34t-28.5 38q-157 -113 -326 -113q-114 0 -184 54t-70 170q0 48 14 87.5t36 69.5t63 56.5t80.5 44.5t104 37.5t118.5 32.5t138 31q29 75 -76 75q-83 0 -230 -49q-18 -5 -31.5 2.5t-13.5 24.5l-3 126q0 30 41 44q154 59 280 59q154 0 228.5 -79t36.5 -225
l-59 -217q-7 -27 -9 -47t1 -38t16 -27.5t36 -9.5q71 0 129.5 79t87.5 184t29 201q0 167 -104 264t-307 97q-162 0 -314 -65.5t-263.5 -173.5t-178.5 -254t-67 -300q0 -168 93 -285.5t261 -146.5q41 -9 33 -40l-34 -151q-6 -20 -13.5 -27t-26.5 -6zM824 266q96 0 193 71
l52 102q-157 -29 -194 -40q-102 -33 -103 -88q0 -25 11 -35t41 -10z" />
    <glyph glyph-name="A" unicode="A" horiz-adv-x="1449" 
d="M1300 35q5 -35 -26 -35h-219q-26 0 -31 30l-26 138h-639l-106 -147q-18 -21 -38 -21h-265q-18 0 -24.5 11t5.5 27l939 1297q14 19 38 19h118q26 0 31 -28zM526 403h427l-90 473z" />
    <glyph glyph-name="B" unicode="B" horiz-adv-x="1225" 
d="M984 715q149 -97 149 -269q0 -123 -73.5 -226.5t-192.5 -161.5t-254 -58h-571q-36 0 -28 35l345 1291q8 28 37 28h515q148 0 232 -77.5t84 -203.5q0 -113 -65 -207t-178 -151zM699 798q95 0 163 56t68 139q0 99 -125 99h-217l-79 -294h190zM595 262q102 0 172.5 53.5
t70.5 140.5q0 113 -133 113h-257l-84 -307h231z" />
    <glyph glyph-name="C" unicode="C" horiz-adv-x="1378" 
d="M687 -12q-262 0 -415.5 145.5t-153.5 387.5q0 163 72 318.5t191 271t281.5 185.5t333.5 70q160 0 280.5 -64.5t177.5 -168.5q10 -18 10.5 -27.5t-15.5 -22.5l-182 -116q-29 -17 -61 15q-97 101 -241 101q-102 0 -203 -42.5t-177.5 -111.5t-124 -164t-47.5 -194
q0 -133 81 -216.5t228 -83.5q94 0 182 34t143 82q37 32 64 0l128 -163q21 -28 -12 -52q-248 -184 -540 -184z" />
    <glyph glyph-name="D" unicode="D" horiz-adv-x="1452" 
d="M42 0q-36 0 -28 35l345 1291q8 28 37 28h484q276 0 421 -144t145 -389q0 -167 -67 -319t-182.5 -262t-277.5 -175t-343 -65h-534zM366 262h262q148 0 269.5 75t188 196t66.5 260q0 144 -78 221.5t-239 77.5h-248z" />
    <glyph glyph-name="E" unicode="E" horiz-adv-x="1084" 
d="M1225 1354q36 0 28 -35l-55 -201q-5 -26 -35 -26h-575l-74 -276h423q16 0 23.5 -9.5t2.5 -23.5l-54 -202q-7 -26 -34 -26h-431l-80 -293h592q16 0 23.5 -10t2.5 -25l-57 -201q-7 -26 -35 -26h-850q-16 0 -23 9.5t-3 25.5l345 1293q8 26 37 26h829z" />
    <glyph glyph-name="F" unicode="F" horiz-adv-x="1062" 
d="M1225 1354q36 0 28 -35l-55 -201q-5 -26 -35 -26h-575l-74 -276h423q16 0 23.5 -9.5t2.5 -23.5l-54 -202q-7 -26 -34 -26h-431l-140 -529q-8 -26 -37 -26h-227q-31 0 -26 35l345 1293q8 26 37 26h829z" />
    <glyph glyph-name="G" unicode="G" horiz-adv-x="1416" 
d="M1454 1133q10 -18 10.5 -27.5t-15.5 -22.5l-182 -116q-29 -17 -61 15q-97 101 -241 101q-102 0 -203 -42.5t-177.5 -111.5t-124 -164t-47.5 -194q0 -133 81 -216.5t230 -83.5q87 0 173.5 30.5t154.5 80.5l40 146h-254q-16 0 -23.5 9.5t-2.5 23.5l52 192q5 26 35 26h476
q34 0 26 -34l-144 -535q-256 -222 -578 -222q-256 0 -408.5 146t-152.5 387q0 163 72 318.5t191 271t281.5 185.5t333.5 70q160 0 280.5 -64.5t177.5 -168.5z" />
    <glyph glyph-name="H" unicode="H" horiz-adv-x="1430" 
d="M1515 1354q16 0 23 -9.5t3 -25.5l-345 -1293q-8 -26 -37 -26h-227q-16 0 -23 9.5t-3 25.5l139 520h-601l-140 -529q-8 -26 -37 -26h-227q-16 0 -23 9.5t-3 25.5l345 1293q8 26 37 26h227q16 0 23.5 -10t2.5 -25l-134 -503h599l137 512q8 26 37 26h227z" />
    <glyph glyph-name="I" unicode="I" horiz-adv-x="538" 
d="M40 0q-16 0 -23 9.5t-3 25.5l345 1293q8 26 37 26h227q16 0 23.5 -10t2.5 -25l-345 -1293q-8 -26 -37 -26h-227z" />
    <glyph glyph-name="J" unicode="J" horiz-adv-x="586" 
d="M672 1354q16 0 23.5 -10t2.5 -25l-405 -1506q-44 -163 -143 -266.5t-235 -147.5q-47 -14 -56 25l-57 224q-4 14 1.5 26t22.5 12q74 6 122.5 53t67.5 115l394 1474q5 26 34 26h228z" />
    <glyph glyph-name="K" unicode="K" horiz-adv-x="1334" 
d="M1463 1354q21 0 26 -12.5t-12 -25.5l-752 -637l443 -643q12 -14 5.5 -25t-24.5 -11h-273q-24 0 -36 19l-385 569l-151 -562q-8 -26 -37 -26h-227q-16 0 -23 9.5t-3 25.5l345 1293q8 26 37 26h227q16 0 23.5 -10t2.5 -25l-142 -536l632 555q16 16 38 16h286z" />
    <glyph glyph-name="L" unicode="L" horiz-adv-x="1053" 
d="M889 262q16 0 23.5 -10t2.5 -25l-52 -201q-8 -26 -37 -26h-784q-16 0 -23 9.5t-3 25.5l343 1293q8 26 37 26h227q16 0 23.5 -10t2.5 -25l-283 -1057h523z" />
    <glyph glyph-name="M" unicode="M" horiz-adv-x="1815" 
d="M40 0q-16 0 -23 9.5t-3 25.5l345 1293q8 26 37 26h213q27 0 35 -25l265 -836l726 843q15 18 38 18h227q16 0 23.5 -9.5t3.5 -25.5l-348 -1293q-5 -26 -34 -26h-228q-16 0 -23.5 10t-2.5 25l210 767l-640 -759q-24 -27 -42 -27h-21q-18 0 -26 27l-258 757l-210 -774
q-8 -26 -37 -26h-227z" />
    <glyph glyph-name="N" unicode="N" horiz-adv-x="1456" 
d="M40 0q-16 0 -23 9.5t-3 25.5l345 1293q8 26 37 26h222q28 0 38 -23l387 -868l234 865q8 26 37 26h227q16 0 23 -9.5t3 -25.5l-347 -1293q-5 -26 -35 -26h-218q-27 0 -35 24l-394 866l-234 -864q-8 -26 -37 -26h-227z" />
    <glyph glyph-name="O" unicode="O" horiz-adv-x="1542" 
d="M672 -12q-255 0 -405.5 148t-150.5 385q0 162 73 317.5t193 271t282 186t332 70.5q255 0 405.5 -149t150.5 -386q0 -162 -73 -317t-193 -270t-282 -185.5t-332 -70.5zM725 271q103 0 201 43t169.5 113.5t114.5 163.5t43 188q0 139 -83 221.5t-229 82.5q-136 0 -258 -73
t-194 -191t-72 -246q0 -139 82 -220.5t226 -81.5z" />
    <glyph glyph-name="P" unicode="P" horiz-adv-x="1246" 
d="M935 1354q184 0 283 -106t99 -273q0 -117 -48.5 -224.5t-130 -186t-195 -125.5t-237.5 -47h-305l-97 -366q-8 -26 -37 -26h-227q-16 0 -23 9.5t-3 25.5l345 1293q8 26 37 26h539zM752 654q114 0 197.5 83.5t83.5 192.5q0 73 -38 117.5t-120 44.5h-287l-116 -438h280z" />
    <glyph glyph-name="Q" unicode="Q" horiz-adv-x="1553" 
d="M1264 226l218 -242q31 -34 -5 -62l-144 -118q-34 -27 -64 9l-236 258q-171 -83 -361 -83q-255 0 -405.5 148t-150.5 385q0 162 73 317.5t193 271t282 186t332 70.5q255 0 405.5 -149t150.5 -386q0 -169 -77 -327.5t-211 -277.5zM417 573q0 -139 82 -220.5t226 -81.5
q103 0 201 43t169.5 113.5t114.5 163.5t43 188q0 139 -83 221.5t-229 82.5q-136 0 -258 -73t-194 -191t-72 -246z" />
    <glyph glyph-name="R" unicode="R" horiz-adv-x="1284" 
d="M1317 975q0 -175 -102 -320.5t-267 -213.5l147 -406q5 -16 -1.5 -25.5t-22.5 -9.5h-233q-25 0 -34 24l-129 368h-274l-97 -366q-8 -26 -37 -26h-227q-16 0 -23 9.5t-3 25.5l345 1293q8 26 37 26h539q184 0 283 -106t99 -273zM752 654q114 0 197.5 83.5t83.5 192.5
q0 73 -38 117.5t-120 44.5h-287l-116 -438h280z" />
    <glyph glyph-name="S" unicode="S" horiz-adv-x="1089" 
d="M26 255l137 137q5 5 10 8t10.5 2.5t9 -0.5t10.5 -4t8.5 -5t9.5 -7l8 -6q24 -23 39 -35t49.5 -35.5t76 -35.5t87.5 -12q98 0 167 51.5t69 123.5q0 68 -103 115q-77 38 -125.5 64.5t-102 64t-83.5 73.5t-49.5 84t-19.5 103q0 115 72 213t195.5 155t267.5 57
q69 0 130.5 -15.5t97.5 -32t73.5 -47.5t46.5 -40.5t28 -32.5q12 -15 16.5 -22.5t3.5 -19.5t-13 -24l-142 -134q-27 -27 -69 9q-94 85 -214 85q-90 0 -145.5 -41.5t-55.5 -104.5q0 -38 29 -68.5t98 -61.5q42 -20 65.5 -32t61.5 -33t60.5 -37.5t52 -40t47 -47.5t34 -53.5
t24 -63.5t7.5 -72q0 -124 -75 -227.5t-200 -162.5t-270 -59q-73 0 -140.5 17t-111.5 39t-83.5 53t-58 50.5t-33.5 39.5q-33 40 -7 68z" />
    <glyph glyph-name="T" unicode="T" horiz-adv-x="1079" 
d="M1236 1354q16 0 23 -9.5t3 -25.5l-54 -201q-8 -26 -36 -26h-313l-285 -1066q-8 -26 -36 -26h-227q-16 0 -23 9.5t-3 25.5l283 1057h-306q-34 0 -26 34l54 202q7 26 36 26h910z" />
    <glyph glyph-name="U" unicode="U" horiz-adv-x="1341" 
d="M1435 1354q17 0 24 -9.5t2 -25.5l-224 -831q-59 -219 -235.5 -359.5t-428.5 -140.5q-92 0 -168.5 19.5t-130 55t-90.5 84.5t-53.5 108t-15.5 125.5t20 136.5l216 811q8 26 36 26h227q16 0 23.5 -10t2.5 -25l-210 -781q-34 -129 12.5 -201.5t170.5 -72.5q136 0 228.5 84.5
t128.5 219.5l203 760q5 26 35 26h227z" />
    <glyph glyph-name="V" unicode="V" horiz-adv-x="1449" 
d="M550 0q-28 0 -33 28l-243 1291q-5 35 28 35h217q28 0 33 -30l160 -847l609 856q17 21 38 21h267q18 0 23.5 -11t-5.5 -27l-939 -1297q-12 -19 -37 -19h-118z" />
    <glyph glyph-name="W" unicode="W" horiz-adv-x="2115" 
d="M373 0q-28 0 -31 30l-68 1291q-3 33 31 33h235q31 0 31 -31l26 -846l545 856q12 21 36 21h228q30 0 33 -30l81 -847l485 856q11 21 36 21h250q18 0 24 -11.5t-3 -25.5l-752 -1296q-14 -21 -36 -21h-182q-32 0 -32 30l-100 951l-620 -960q-12 -21 -36 -21h-181z" />
    <glyph glyph-name="X" unicode="X" horiz-adv-x="1294" 
d="M1456 1354q20 0 26 -12t-8 -26l-601 -637l269 -644q7 -16 0 -25.5t-24 -9.5h-269q-27 0 -37 24l-170 410l-392 -417q-14 -17 -38 -17h-248q-20 0 -25 12t9 26l597 632l-267 649q-5 16 1 25.5t23 9.5h264q25 0 36 -25l174 -416l399 423q15 18 38 18h243z" />
    <glyph glyph-name="Y" unicode="Y" horiz-adv-x="1310" 
d="M1487 1354q19 0 24 -12t-8 -26l-680 -776l-136 -514q-8 -26 -36 -26h-228q-16 0 -23 9.5t-3 25.5l136 508l-257 776q-4 16 3 25.5t23 9.5h245q30 0 34 -26l165 -505l445 513q15 18 38 18h258z" />
    <glyph glyph-name="Z" unicode="Z" horiz-adv-x="1114" 
d="M-35 0q-16 0 -23.5 9.5t-3.5 25.5l5 22q4 21 17 37l864 998h-550q-34 0 -26 34l54 202q7 26 36 26h936q36 0 28 -35l-4 -23q-3 -17 -19 -36l-864 -998h550q17 0 24 -9.5t2 -25.5l-52 -201q-8 -26 -36 -26h-938z" />
    <glyph glyph-name="bracketleft" unicode="[" horiz-adv-x="692" 
d="M835 1336h-222l-370 -1381h222q27 0 19 -26l-62 -236q-8 -28 -35 -28h-498q-26 0 -21 28l512 1907q5 26 35 26h498q27 0 19 -26l-62 -236q-7 -28 -35 -28z" />
    <glyph glyph-name="backslash" unicode="\" horiz-adv-x="794" 
d="M576 1388q26 0 26 -31l35 -1324q0 -15 -9 -24t-24 -9h-245q-31 0 -31 33l-35 1324q0 31 30 31h253z" />
    <glyph glyph-name="bracketright" unicode="]" horiz-adv-x="692" 
d="M-33 -45h222l368 1381h-220q-25 0 -21 28l64 236q5 26 35 26h498q26 0 21 -26l-512 -1907q-5 -28 -35 -28h-498q-26 0 -21 28l64 236q8 26 35 26z" />
    <glyph glyph-name="asciicircum" unicode="^" horiz-adv-x="1102" 
d="M856 1354q27 0 34 -26l188 -635q4 -14 -3 -23.5t-23 -9.5h-203q-27 0 -35 26l-102 333l-285 -342q-15 -17 -36 -17h-216q-19 0 -24 10t7 26l535 640q13 18 34 18h129z" />
    <glyph glyph-name="underscore" unicode="_" horiz-adv-x="1044" 
d="M784 -201q0 -13 -9 -22.5t-22 -9.5h-760q-13 0 -22 8.5t-9 21.5v172q0 13 8.5 22t22.5 9h760q13 0 22 -8.5t9 -22.5v-170z" />
    <glyph glyph-name="grave" unicode="`" horiz-adv-x="701" 
d="M309 1178l371 -170q31 -14 44 9l76 125q6 12 2.5 22t-11.5 14l-343 233q-12 8 -25.5 8t-19.5 -11l-104 -183q-10 -17 -6.5 -30t16.5 -17z" />
    <glyph glyph-name="a" unicode="a" horiz-adv-x="1100" 
d="M1095 885q16 0 23 -9.5t3 -23.5l-220 -826q-8 -26 -35 -26h-220q-16 0 -23.5 9.5t-2.5 23.5l17 64q-131 -111 -281 -111q-141 0 -227.5 92t-86.5 248q0 106 41.5 210t110 183.5t164 128.5t197.5 49q181 0 256 -142l27 104q8 26 35 26h222zM309 375q0 -70 40.5 -109.5
t115.5 -39.5q112 0 191.5 86t79.5 195q0 69 -41 110t-112 41q-115 0 -194.5 -86.5t-79.5 -196.5z" />
    <glyph glyph-name="b" unicode="b" horiz-adv-x="1136" 
d="M778 897q142 0 228.5 -92.5t86.5 -250.5q0 -141 -68 -272t-186 -213.5t-252 -82.5q-172 0 -264 129l-24 -89q-5 -26 -33 -26h-223q-16 0 -23 9.5t-3 23.5l290 1086q8 32 13.5 64.5t7 51t2.5 40.5t1 25q0 54 46 54h140q60 0 88 -39t11 -105l-109 -410q132 97 271 97z
M554 226q115 0 194.5 84t79.5 190q0 74 -39 116t-114 42q-92 0 -163 -57.5t-97 -142.5l-5 -21q-7 -24 -7 -55q0 -74 39 -115t112 -41z" />
    <glyph glyph-name="c" unicode="c" horiz-adv-x="918" 
d="M437 -14q-174 0 -283 99.5t-109 265.5q0 143 80.5 270t211 201.5t272.5 74.5q102 0 180 -38.5t117 -101.5q16 -28 12 -38q-4 -9 -14 -16l-140 -97q-30 -20 -56 0q-54 54 -134 54q-112 0 -193.5 -82.5t-81.5 -183.5q0 -77 48.5 -122.5t128.5 -45.5q82 0 168 57
q44 27 59 -7l66 -137q9 -16 6.5 -26.5t-20.5 -22.5q-145 -104 -318 -104z" />
    <glyph glyph-name="d" unicode="d" horiz-adv-x="1126" 
d="M1119 1354q58 0 86.5 -39.5t11.5 -104.5l-316 -1184q-8 -26 -35 -26h-220q-16 0 -23.5 9.5t-2.5 23.5l17 64q-131 -111 -281 -111q-141 0 -227.5 92t-86.5 248q0 106 41.5 210t110 183.5t164 128.5t197.5 49q181 0 257 -144l97 366q8 32 13.5 64.5t7 50.5t3 41t1.5 25
q0 54 43 54h142zM309 380q0 -72 41.5 -113t118.5 -41q111 0 188 84t77 192q0 72 -42 114t-114 42q-112 0 -190.5 -85t-78.5 -193z" />
    <glyph glyph-name="e" unicode="e" horiz-adv-x="992" 
d="M602 897q176 0 269.5 -102t84.5 -253q-2 -96 -56 -150t-159 -54h-429q30 -128 181 -128q103 0 194 54q43 17 61 -21l45 -92q15 -29 -15 -52q-141 -113 -341 -113q-179 0 -285.5 95.5t-106.5 263.5q0 142 73.5 269t203 205t280.5 78zM568 666q-71 0 -131.5 -37.5
t-94.5 -100.5h366q-2 63 -37 100.5t-103 37.5z" />
    <glyph glyph-name="f" unicode="f" horiz-adv-x="748" 
d="M994 1310q38 -38 14 -64l-100 -116q-23 -29 -47 -9q-34 24 -77 24q-57 0 -105.5 -36t-67.5 -104l-31 -120h170q16 0 23 -9.5t3 -23.5l-52 -196q-8 -24 -35 -24h-177l-161 -606q-8 -26 -35 -26h-222q-16 0 -23 9.5t-2 23.5l160 599h-90q-35 0 -24 33l50 194q8 26 35 26h97
l48 184q44 160 158 244t254 84q146 0 237 -87z" />
    <glyph glyph-name="g" unicode="g" horiz-adv-x="1100" 
d="M1097 885q16 0 22.5 -9.5t1.5 -23.5l-225 -840q-28 -106 -83.5 -185.5t-128 -125.5t-152 -68t-166.5 -22q-235 0 -375 108q-22 14 -8 40l93 135q14 19 37 11q110 -61 243 -61q101 0 171 52.5t98 155.5l12 45q-131 -111 -281 -111q-141 0 -227.5 92t-86.5 248
q0 106 41.5 210t110 183.5t164 128.5t197.5 49q181 0 257 -144l28 106q8 26 35 26h222zM309 380q0 -72 41.5 -113t118.5 -41q111 0 188 84t77 192q0 72 -42 114t-114 42q-112 0 -190.5 -85t-78.5 -193z" />
    <glyph glyph-name="h" unicode="h" horiz-adv-x="1126" 
d="M786 896q144 0 217 -95t30 -253l-87 -326q-12 -50 -15.5 -84t-2 -58t1.5 -30q-1 -30 -20 -41t-56 -11h-137q-49 0 -71 38t-9 85l104 391q17 66 -12.5 101.5t-88.5 35.5q-65 0 -122.5 -35t-85.5 -86l-133 -502q-5 -26 -33 -26h-223q-16 0 -23 9.5t-3 23.5l290 1086
q8 32 13.5 64.5t7 51t2.5 40.5t1 25q0 54 46 54h140q60 0 88 -39t11 -105l-114 -429q135 115 284 115z" />
    <glyph glyph-name="i" unicode="i" horiz-adv-x="498" 
d="M467 1100q-61 0 -102.5 41t-41.5 103q0 60 41.5 101.5t102.5 41.5q59 0 100.5 -41.5t41.5 -101.5q0 -61 -41.5 -102.5t-100.5 -41.5zM19 0q-16 0 -23.5 9.5t-2.5 23.5l220 826q5 26 33 26h223q16 0 23 -9.5t3 -23.5l-221 -826q-8 -26 -34 -26h-221z" />
    <glyph glyph-name="j" unicode="j" horiz-adv-x="494" 
d="M463 1100q-61 0 -102.5 41t-41.5 103q0 60 41.5 101.5t102.5 41.5q59 0 101 -41.5t42 -101.5q0 -61 -42 -102.5t-101 -41.5zM-57 -397q-19 -7 -34 0.5t-20 25.5l-56 217q-10 41 26 53q118 42 143 139l220 821q5 26 33 26h222q31 0 26 -33l-225 -840q-45 -169 -119 -261
t-216 -148z" />
    <glyph glyph-name="k" unicode="k" horiz-adv-x="1086" 
d="M1093 885q21 0 25.5 -11.5t-11.5 -24.5l-474 -389l297 -424q9 -14 4 -24t-23 -10l-264 -2q-22 0 -36 19l-226 330l-86 -323q-5 -26 -33 -26h-223q-16 0 -23 9.5t-3 23.5l290 1086q8 32 13.5 64.5t7 51t2.5 40.5t1 25q0 54 46 54h140q60 0 88 -39t11 -105l-168 -625
l345 286q14 14 37 14h263z" />
    <glyph glyph-name="l" unicode="l" horiz-adv-x="524" 
d="M43 0q-16 0 -23 9.5t-3 23.5l290 1086q8 32 13.5 64.5t7 51t2.5 40.5t1 25q0 54 46 54h140q60 0 88 -39t11 -105l-317 -1184q-5 -26 -33 -26h-223z" />
    <glyph glyph-name="m" unicode="m" horiz-adv-x="1660" 
d="M1331 897q144 0 212 -94t26 -253l-87 -326q-13 -49 -16.5 -83.5t-1.5 -58t1 -30.5q0 -30 -19.5 -41t-57.5 -11h-137q-49 0 -70.5 37.5t-8.5 83.5l105 393q17 67 -8.5 101t-84.5 34q-60 0 -114 -32t-84 -81l-83 -312q-12 -49 -15.5 -83.5t-1.5 -57.5t1 -31q-1 -30 -20 -41
t-56 -11h-138q-49 0 -70.5 37.5t-8.5 83.5l104 393q17 67 -8 101t-84 34q-60 0 -113 -31t-83 -78l-138 -514q-8 -26 -34 -26h-221q-16 0 -23.5 9.5t-2.5 23.5l219 826q8 26 35 26h222q16 0 23 -9.5t3 -23.5l-17 -66q131 111 277 111q95 0 159.5 -43t83.5 -122
q159 165 335 165z" />
    <glyph glyph-name="n" unicode="n" 
d="M757 897q144 0 216.5 -94.5t29.5 -252.5l-87 -326q-13 -49 -16.5 -83.5t-1.5 -58t1 -30.5q0 -30 -19 -41t-56 -11h-137q-49 0 -71 37.5t-9 83.5l105 393q17 66 -13 100.5t-90 34.5q-61 0 -115.5 -31t-83.5 -78l-138 -514q-8 -26 -34 -26h-221q-16 0 -23.5 9.5t-2.5 23.5
l219 826q8 26 35 26h222q16 0 23 -9.5t3 -23.5l-17 -66q133 111 281 111z" />
    <glyph glyph-name="o" unicode="o" horiz-adv-x="1050" 
d="M430 -14q-174 0 -279.5 97t-105.5 261q0 109 46.5 210.5t124 176.5t184 120.5t220.5 45.5q174 0 279.5 -96.5t105.5 -260.5q0 -110 -46.5 -212.5t-124 -177t-183.5 -119.5t-221 -45zM465 226q113 0 195.5 85t82.5 191q0 71 -41.5 113.5t-114.5 42.5q-113 0 -195.5 -84
t-82.5 -192q0 -72 41 -114t115 -42z" />
    <glyph glyph-name="p" unicode="p" horiz-adv-x="1119" 
d="M760 897q141 0 228.5 -93t87.5 -250q0 -141 -68 -272t-186.5 -213.5t-252.5 -82.5q-81 0 -150.5 32t-116.5 90l-115 -429q-8 -26 -34 -26h-222q-16 0 -23 9.5t-3 23.5l258 965q8 32 13.5 64t7 51t2.5 40.5t1 24.5q0 54 46 54h140q47 0 74.5 -23.5t31.5 -66.5
q137 102 281 102zM536 226q115 0 195 84t80 190q0 74 -39.5 116t-115.5 42q-113 0 -192 -85.5t-79 -190.5q0 -74 39 -115t112 -41z" />
    <glyph glyph-name="q" unicode="q" horiz-adv-x="1119" 
d="M1097 885q16 0 22.5 -9.5t1.5 -23.5l-257 -965q-8 -32 -13.5 -64t-7 -51t-2.5 -40.5t-1 -24.5q0 -54 -45 -54h-141q-69 0 -93.5 35t-5.5 109l80 300q-127 -111 -279 -111q-141 0 -227.5 92t-86.5 248q0 106 41.5 210t110 183.5t164 128.5t197.5 49q181 0 257 -144l28 106
q8 26 35 26h222zM309 380q0 -72 41.5 -113t118.5 -41q111 0 188 84t77 192q0 72 -42 114t-114 42q-112 0 -190.5 -85t-78.5 -193z" />
    <glyph glyph-name="r" unicode="r" horiz-adv-x="822" 
d="M870 840q17 -13 23 -32t-6 -34l-144 -160q-6 -6 -12 -7t-9 -0.5t-10.5 6t-8.5 5.5q-48 35 -109 35q-60 0 -108 -30t-75 -80l-139 -517q-8 -26 -34 -26h-221q-16 0 -23.5 9.5t-2.5 23.5l219 826q8 26 35 26h222q16 0 23 -9.5t3 -23.5l-16 -61q115 106 238 106
q91 0 155 -57z" />
    <glyph glyph-name="s" unicode="s" horiz-adv-x="826" 
d="M448 536q139 -35 205.5 -93.5t66.5 -156.5q0 -137 -117.5 -218.5t-288.5 -81.5q-181 0 -333 108q-23 17 -5 41l99 129q14 19 40 8q117 -62 216 -62q51 0 90 19.5t39 51.5q0 24 -24.5 41t-91.5 34q-115 33 -175.5 92t-60.5 153q0 134 112.5 215t282.5 81t297 -95
q25 -18 7 -42l-104 -130q-16 -23 -42 -9q-89 47 -187 47q-52 0 -87 -16t-35 -48q0 -25 22.5 -39.5t73.5 -28.5z" />
    <glyph glyph-name="t" unicode="t" horiz-adv-x="754" 
d="M384 -14q-151 0 -221 92.5t-28 249.5l82 304h-96q-16 0 -23.5 8.5t-2.5 22.5l20 73q4 19 20 31q114 82 196 162.5t191 214.5q13 17 37 17h54q16 0 23 -9.5t3 -23.5l-66 -243h168q16 0 23.5 -9.5t2.5 -23.5l-52 -196q-5 -24 -33 -24h-123q-16 0 -56 10l-86 -314
q-26 -94 50 -94q35 0 73 19q13 8 23.5 4.5t14.5 -17.5l50 -148q9 -30 -27 -47q-104 -59 -217 -59z" />
    <glyph glyph-name="u" unicode="u" 
d="M1080 885q16 0 23 -9.5t3 -23.5l-221 -826q-8 -26 -35 -26h-220q-16 0 -23.5 9.5t-2.5 23.5l17 68q-133 -113 -283 -113q-144 0 -216 94.5t-30 252.5l87 326q13 50 17 83.5t2 58t-2 30.5q0 30 19 41t57 11h138q49 0 70.5 -37.5t8.5 -83.5l-105 -393q-16 -66 14 -100.5
t90 -34.5t115 31.5t84 79.5l137 512q5 26 33 26h223z" />
    <glyph glyph-name="v" unicode="v" horiz-adv-x="1004" 
d="M293 0q-29 0 -33 28l-111 826q-3 31 28 31h203q31 0 31 -28l63 -501h8l320 508q10 21 36 21h217q18 0 23.5 -11t-4.5 -25l-552 -830q-12 -19 -36 -19h-193z" />
    <glyph glyph-name="w" unicode="w" horiz-adv-x="1490" 
d="M226 0q-27 0 -30 28l-48 826q0 31 31 31h196q29 0 29 -29l11 -500h8l297 508q14 21 37 21h196q26 0 29 -28l25 -501h8l285 508q9 21 36 21h205q17 0 23 -10t-2 -26l-489 -828q-13 -21 -37 -21h-198q-26 0 -29 28l-30 526l-317 -535q-12 -19 -35 -19h-201z" />
    <glyph glyph-name="x" unicode="x" horiz-adv-x="992" 
d="M1027 885q18 0 23 -11t-9 -25l-390 -405l170 -409q5 -16 -1 -25.5t-23 -9.5h-238q-28 0 -35 26l-74 212l-197 -221q-13 -17 -38 -17h-250q-18 0 -23 11t8 25l399 410l-168 404q-5 16 1 25.5t23 9.5h232q28 0 35 -26l73 -208l194 217q14 17 39 17h249z" />
    <glyph glyph-name="y" unicode="y" horiz-adv-x="1003" 
d="M68 -347q-18 0 -23.5 11t2.5 25l215 342l-113 823q-3 31 28 31h205q28 0 31 -28l61 -501h8l318 508q10 21 37 21h218q18 0 23 -11t-4 -25l-767 -1177q-12 -19 -38 -19h-201z" />
    <glyph glyph-name="z" unicode="z" horiz-adv-x="862" 
d="M167 632q-16 0 -23 9t-2 24l51 194q8 26 34 26h663q16 0 23 -9.5t3 -23.5l-8 -41l-511 -558h308q16 0 23.5 -9t2.5 -24l-52 -194q-5 -26 -33 -26h-674q-16 0 -23 9.5t-3 23.5l9 42l514 557h-302z" />
    <glyph glyph-name="braceleft" unicode="{" horiz-adv-x="819" 
d="M502 -352q-48 0 -92 6.5t-88 22t-79.5 40t-63 62.5t-41 86.5t-11 115.5t23.5 147l61 226q18 66 -11 100.5t-85 36.5q-33 3 -26 31l52 190q2 14 14 22.5t28 8.5q55 2 104 37.5t66 99.5l59 226q29 110 82 196t114.5 138.5t135.5 86t141 46.5t136 13q14 0 22 -8t3 -23
l-54 -201q-6 -19 -12.5 -27t-25.5 -13q-117 -17 -173.5 -77.5t-88.5 -182.5l-54 -204q-13 -51 -41.5 -93.5t-61 -68t-61.5 -40t-53 -18.5l-7 -24q50 -12 87 -68.5t12 -153.5l-56 -203q-21 -78 -21 -132.5t34.5 -87t109.5 -41.5q17 -4 20.5 -12.5t-2.5 -25.5l-54 -203
q-10 -31 -43 -31z" />
    <glyph glyph-name="bar" unicode="|" horiz-adv-x="640" 
d="M413 1335q5 26 33 26h233q16 0 23 -9.5t3 -23.5l-537 -1996q-8 -26 -34 -26h-231q-16 0 -23 9.5t-3 23.5z" />
    <glyph glyph-name="braceright" unicode="}" horiz-adv-x="819" 
d="M410 1586q48 0 92 -6.5t88.5 -22t80 -40t63 -62.5t41 -86.5t11 -115.5t-23.5 -147l-61 -226q-18 -66 10.5 -100.5t83.5 -36.5q16 0 23 -8.5t3 -22.5l-50 -190q-7 -28 -42 -31q-55 -2 -104 -37.5t-66 -99.5l-61 -226q-29 -110 -81.5 -196t-113.5 -138.5t-135 -86
t-141 -46.5t-136 -13q-33 0 -26 31l55 203q4 18 11.5 26t26.5 12q117 19 173 78.5t89 182.5l54 203q13 51 41 93.5t61 68t62 40.5t53 20l7 24q-21 4 -42 18t-41 41t-24.5 66.5t8.5 94.5l56 204q21 79 20.5 133.5t-35.5 86t-110 40.5q-16 4 -19.5 13t1.5 27l56 201
q4 15 16 23t26 8z" />
    <glyph glyph-name="asciitilde" unicode="~" horiz-adv-x="1027" 
d="M863 633q29 24 40 -8l46 -118q10 -22 -8 -40q-136 -136 -283 -136q-45 0 -78 12t-52.5 28.5t-37.5 33.5t-44 29t-62 12q-87 0 -190 -85q-26 -25 -41 9l-47 114q-8 24 10 42q69 64 135 100.5t148 36.5q44 0 77 -12t52 -29t37 -34t44.5 -29t62.5 -12q92 0 191 86z" />
    <glyph glyph-name="exclamdown" unicode="&#xa1;" horiz-adv-x="508" 
d="M326 899q67 0 114.5 -48.5t47.5 -116.5q0 -67 -47.5 -113.5t-114.5 -46.5t-115 47t-48 113q0 68 48 116.5t115 48.5zM-104 -469q-12 0 -19 10t-5 23l8 28l252 712q4 13 14 22t22 9h136q29 0 24 -31l-130 -712l-7 -28q-10 -33 -45 -33h-250z" />
    <glyph glyph-name="cent" unicode="&#xa2;" horiz-adv-x="918" 
d="M906 757q16 -28 12 -38q-4 -9 -14 -16l-140 -97q-30 -20 -56 0q-22 22 -43 33l-212 -412q4 -1 23 -1q82 0 168 57q44 27 59 -7l66 -137q9 -16 6.5 -26.5t-20.5 -22.5q-145 -104 -318 -104q-53 0 -102 11l-69 -134q-12 -24 -32 -17l-66 27q-23 8 -12 32l68 131
q-84 45 -131.5 126.5t-47.5 188.5q0 143 80.5 270t211 201.5t272.5 74.5q31 0 56 -3l41 81q13 25 32 16l66 -26q12 -6 14.5 -11t-2.5 -20l-37 -71q83 -39 127 -106zM299 394q0 -76 46 -122l198 386q-102 -12 -173 -91.5t-71 -172.5z" />
    <glyph glyph-name="sterling" unicode="&#xa3;" horiz-adv-x="1029" 
d="M1156 1194q17 -23 -5 -42l-167 -125q-22 -14 -43 4q-71 71 -162 71q-103 0 -166 -72t-63 -176q0 -44 12 -104h314q16 0 23 -9.5t2 -23.5l-44 -163q-5 -26 -33 -26h-267q-19 -80 -58 -155.5t-82 -117.5h420q16 0 23 -9.5t3 -23.5l-52 -196q-8 -26 -35 -26h-750
q-14 0 -22 8.5t-6 22.5l7 44q100 97 173.5 214.5t102.5 238.5h-127q-16 0 -22.5 9.5t-1.5 23.5l44 164q5 25 33 25h83q-12 113 -12 142q0 144 69.5 256t185 171t255.5 59q127 0 212.5 -49t155.5 -135z" />
    <glyph glyph-name="currency" unicode="&#xa4;" horiz-adv-x="897" 
d="M901 1191q10 -34 10 -77q0 -117 -78 -211l76 -94l-60 -54l-73 92q-97 -78 -212 -78q-130 0 -201 94l-129 -108l-50 54l146 123q-12 31 -12 76q0 117 79 212l-76 94l59 54l75 -92q97 78 211 78q132 0 200 -96l130 110l49 -54zM573 840q104 0 184.5 83t80.5 181
q0 77 -50.5 128t-129.5 51q-106 0 -186.5 -81.5t-80.5 -182.5q0 -75 51.5 -127t130.5 -52z" />
    <glyph glyph-name="yen" unicode="&#xa5;" horiz-adv-x="1310" 
d="M1487 1354q19 0 24 -12t-8 -26l-670 -766h203q16 0 22.5 -9.5t1.5 -23.5l-31 -107q-10 -26 -35 -26h-213l-33 -125h208q17 0 24 -9.5t2 -23.5l-31 -108q-10 -26 -35 -26h-211l-18 -66q-8 -26 -36 -26h-228q-16 0 -23 9.5t-3 25.5l16 57h-210q-34 0 -26 33l30 109
q8 25 33 25h216l33 125h-208q-34 0 -26 33l30 107q8 26 33 26h211l-253 769q-4 16 3 25.5t23 9.5h245q30 0 34 -26l165 -505l445 513q15 18 38 18h258z" />
    <glyph glyph-name="brokenbar" unicode="&#xa6;" horiz-adv-x="642" 
d="M233 531q-34 0 -26 33l206 771q5 26 35 26h231q16 0 23 -9.5t3 -23.5l-207 -773q-8 -24 -35 -24h-230zM358 163q34 0 26 -33l-216 -798q-8 -26 -34 -26h-231q-16 0 -23 9.5t-3 23.5l215 800q8 24 35 24h231z" />
    <glyph glyph-name="section" unicode="&#xa7;" horiz-adv-x="1091" 
d="M1147 1198q11 -15 15 -22t3.5 -19.5t-11.5 -24.5l-142 -134q-28 -28 -71 9q-91 85 -212 85q-92 0 -147.5 -41.5t-55.5 -104.5q0 -38 29.5 -68.5t98.5 -61.5q48 -23 74.5 -36.5t69.5 -38.5t68 -44.5t55.5 -49.5t46.5 -59.5t27.5 -68.5t11.5 -82q0 -89 -40.5 -168
t-112.5 -137q31 -65 31 -137q0 -124 -74.5 -228t-199.5 -163t-269 -59q-74 0 -141.5 17t-112 39.5t-84.5 53t-58 50t-33 38.5q-32 43 -7 70l137 137q8 8 17 10.5t19 -2.5t14.5 -8t14.5 -12l12 -12q13 -11 17 -14.5t18 -15t21.5 -16.5t23.5 -15t27.5 -15t29 -12t33 -10.5
t34.5 -6t39 -2.5q98 0 166 52t68 124q0 67 -102 114q-55 27 -91 46t-79.5 45.5t-71.5 48.5t-57 51t-45 58t-26 64.5t-10 75.5q0 86 42 163.5t117 135.5q-40 65 -40 144q0 115 72.5 213t196.5 155t268 57q69 0 131 -15.5t98 -32.5t73 -47t46.5 -40.5t27.5 -32.5zM616 552
q-16 8 -58 30t-63 34q-89 -35 -89 -113q0 -38 29 -68.5t98 -61.5q62 -30 106 -54q78 46 78 118q0 68 -101 115z" />
    <glyph glyph-name="dieresis" unicode="&#xa8;" horiz-adv-x="892" 
d="M434 1111q-53 0 -91 39t-38 93q0 53 37.5 89.5t91.5 36.5q55 0 93.5 -36.5t38.5 -89.5q0 -54 -39 -93t-93 -39zM883 1111q-53 0 -91.5 39.5t-38.5 92.5q0 54 38 90t92 36q53 0 92 -37t39 -89q0 -53 -39.5 -92.5t-91.5 -39.5z" />
    <glyph glyph-name="copyright" unicode="&#xa9;" horiz-adv-x="1542" 
d="M672 -12q-255 0 -405.5 148t-150.5 385q0 162 73 317.5t193 271t282 186t332 70.5q255 0 405.5 -149t150.5 -386q0 -162 -73 -317t-193 -270t-282 -185.5t-332 -70.5zM701 175q128 0 248.5 53.5t208.5 141t141 203t53 234.5q0 169 -104 270t-283 101q-126 0 -246 -53.5
t-207 -140.5t-140 -202.5t-53 -233.5q0 -171 102 -272t280 -101zM748 293q-131 0 -212 75t-81 206q0 120 70 232t179.5 180t222.5 68q92 0 160.5 -43.5t99.5 -102.5l-163 -96q-46 66 -123 66q-95 0 -172.5 -80t-77.5 -175q0 -60 35 -101t97 -41q44 0 94 21t83 57l94 -142
q-50 -54 -133 -89t-173 -35z" />
    <glyph glyph-name="ordfeminine" unicode="&#xaa;" horiz-adv-x="1100" 
d="M1095 885q16 0 23 -9.5t3 -23.5l-220 -826q-8 -26 -35 -26h-220q-16 0 -23.5 9.5t-2.5 23.5l17 64q-131 -111 -281 -111q-141 0 -227.5 92t-86.5 248q0 106 41.5 210t110 183.5t164 128.5t197.5 49q181 0 256 -142l27 104q8 26 35 26h222zM309 375q0 -70 40.5 -109.5
t115.5 -39.5q112 0 191.5 86t79.5 195q0 69 -41 110t-112 41q-115 0 -194.5 -86.5t-79.5 -196.5z" />
    <glyph glyph-name="guillemotleft" unicode="&#xab;" horiz-adv-x="1164" 
d="M76 375l146 -339q8 -17 24 -17h188q47 0 42 56l-70 321l2 5l245 318q18 26 15 42.5t-26 16.5h-177q-25 0 -43 -23l-332 -332q-24 -24 -14 -48zM571 375l144 -339q9 -17 26 -17h186q24 0 34.5 16t6.5 40l-69 321l2 5l246 318q11 17 14 30.5t-3 21t-21 7.5h-179
q-20 0 -43 -23l-332 -332q-23 -23 -12 -48z" />
    <glyph glyph-name="logicalnot" unicode="&#xac;" horiz-adv-x="1055" 
d="M725 215q-16 0 -23 9.5t-3 23.5l80 294h-631q-16 0 -23 8.5t-2 23.5l42 158q8 25 33 25h821q16 0 22.5 -9.5t1.5 -23.5l-128 -483q-8 -26 -35 -26h-155z" />
    <glyph glyph-name="uni00AD" unicode="&#xad;" horiz-adv-x="834" 
d="M722 349q0 -13 -9 -22t-22 -9h-550q-13 0 -22.5 8.5t-9.5 20.5v172q0 14 9 22.5t23 8.5h550q13 0 22 -7.5t9 -21.5v-172z" />
    <glyph glyph-name="registered" unicode="&#xae;" horiz-adv-x="1079" 
d="M776 1371q176 0 282.5 -104.5t106.5 -270.5q0 -120 -51 -233t-135.5 -196t-201 -133t-241.5 -50q-169 0 -278.5 106.5t-109.5 271.5q0 159 86.5 300t232 225t309.5 84zM562 515q120 0 228.5 66t173.5 172.5t65 221.5q0 121 -75 193.5t-202 72.5q-120 0 -228.5 -65.5
t-173.5 -171.5t-65 -221q0 -121 74.5 -194.5t202.5 -73.5zM757 1093q48 0 77.5 -30.5t29.5 -76.5q0 -49 -31.5 -93t-80.5 -67l41 -151q4 -12 -7 -12h-99q-9 0 -12 10l-36 138h-54l-37 -138q-3 -10 -12 -10h-92q-13 0 -10 10l111 405q3 15 16 15h196zM635 998l-26 -97h63
q28 0 45 19.5t17 42.5q0 35 -40 35h-59z" />
    <glyph glyph-name="macron" unicode="&#xaf;" horiz-adv-x="803" 
d="M319 1309q4 13 15 22t25 9h566q13 0 20 -8.5t3 -22.5l-45 -170q-4 -13 -15 -22.5t-24 -9.5h-567q-13 0 -21 9t-4 21z" />
    <glyph glyph-name="degree" unicode="&#xb0;" horiz-adv-x="695" 
d="M467 876q-93 0 -148 55t-55 142q0 124 104 224t234 100q92 0 147 -54t55 -140q0 -128 -103 -227.5t-234 -99.5zM512 1052q42 0 75.5 32.5t33.5 74.5q0 27 -18.5 45t-47.5 18q-42 0 -75.5 -33t-33.5 -75q0 -27 18 -44.5t48 -17.5z" />
    <glyph glyph-name="plusminus" unicode="&#xb1;" horiz-adv-x="1044" 
d="M1081 1031q16 0 23 -9.5t2 -23.5l-52 -196q-5 -26 -32 -26h-281l-76 -283q-7 -24 -35 -24h-193q-34 0 -26 33l73 274h-272q-16 0 -23 9.5t-3 23.5l52 196q8 26 33 26h281l76 283q8 24 35 24h193q34 0 26 -33l-73 -274h272zM850 234q16 0 23 -8t3 -21l-52 -182
q-5 -23 -31 -23h-793q-14 0 -21 8.5t-3 21.5l50 182q8 22 33 22h791z" />
    <glyph glyph-name="uni00B2" unicode="&#xb2;" horiz-adv-x="1069" 
d="M23 0q-16 0 -23 9.5t-3 23.5l12 59l611 581q44 41 63 59.5t55 57t52.5 63.5t30.5 59t14 65q0 51 -32 84.5t-97 33.5q-135 0 -286 -175q-22 -27 -42 0l-126 146q-16 22 1 41q243 259 505 259q166 0 266.5 -87t100.5 -236q0 -212 -209 -413l-404 -375h401q16 0 22.5 -9.5
t1.5 -23.5l-52 -196q-5 -26 -33 -26h-829z" />
    <glyph glyph-name="uni00B3" unicode="&#xb3;" horiz-adv-x="1077" 
d="M1135 1354q31 0 26 -33l-50 -198q-3 -17 -21 -33l-347 -279q134 -20 199.5 -100.5t65.5 -201.5q0 -139 -81 -261t-214.5 -193.5t-283.5 -71.5q-137 0 -246 64t-155 175q-9 13 -8.5 28t16.5 26l160 120q9 6 16.5 7t15 -4.5t13 -11.5t14.5 -17q30 -52 84.5 -85t122.5 -33
q108 0 186.5 73t78.5 166q0 52 -28.5 85t-84.5 33q-50 0 -105 -22q-27 -8 -40 22l-65 155q-13 30 7 47l360 289h-412q-35 0 -24 33l52 195q5 26 33 26h715z" />
    <glyph glyph-name="acute" unicode="&#xb4;" horiz-adv-x="675" 
d="M774 1178q13 4 16.5 17t-6.5 30l-104 183q-6 11 -20 11t-27 -8l-341 -233q-8 -4 -11.5 -14t2.5 -22l76 -125q13 -23 44 -9z" />
    <glyph glyph-name="paragraph" unicode="&#xb6;" horiz-adv-x="1523" 
d="M1656 1354q16 0 23 -9.5t3 -23.5l-63 -231q-8 -26 -34 -26h-111l-276 -1038q-8 -26 -35 -26h-231q-16 0 -23.5 9.5t-2.5 23.5l274 1031h-95l-276 -1038q-8 -26 -35 -26h-231q-16 0 -23.5 9.5t-2.5 23.5l116 432h-95q-159 0 -251.5 99t-92.5 250q0 140 77.5 265.5t206 200
t270.5 74.5h908zM710 752l83 312h-74q-93 0 -157 -61t-64 -137q0 -49 30 -81.5t93 -32.5h89z" />
    <glyph glyph-name="periodcentered" unicode="&#xb7;" horiz-adv-x="510" 
d="M260 302q-67 0 -114 48t-47 115t47 114.5t114 47.5t115 -47.5t48 -114.5t-48 -115t-115 -48z" />
    <glyph glyph-name="cedilla" unicode="&#xb8;" horiz-adv-x="593" 
d="M167 -115q63 -13 100 -59t37 -112q0 -110 -95 -194t-209 -84q-104 0 -151 78q-8 17 9 31l85 66q15 9 27 0q33 -29 68 -29q45 0 77.5 30.5t32.5 69.5q0 27 -17 45t-49 18q-34 0 -80 -35q-17 -12 -26 0l-58 61q-10 10 0 24l164 205h175z" />
    <glyph glyph-name="uni00B9" unicode="&#xb9;" horiz-adv-x="649" 
d="M769 1354q16 0 23 -9.5t3 -23.5l-347 -1295q-8 -26 -35 -26h-222q-16 0 -22.5 9.5t-1.5 23.5l251 932q-103 -35 -165 -35q-29 0 -43 13.5t-9 35.5l37 149q6 36 31 38q80 14 129.5 50.5t108.5 118.5q12 19 41 19h221z" />
    <glyph glyph-name="ordmasculine" unicode="&#xba;" horiz-adv-x="1050" 
d="M430 -14q-174 0 -279.5 97t-105.5 261q0 109 46.5 210.5t124 176.5t184 120.5t220.5 45.5q174 0 279.5 -96.5t105.5 -260.5q0 -110 -46.5 -212.5t-124 -177t-183.5 -119.5t-221 -45zM465 226q113 0 195.5 85t82.5 191q0 71 -41.5 113.5t-114.5 42.5q-113 0 -195.5 -84
t-82.5 -192q0 -72 41 -114t115 -42z" />
    <glyph glyph-name="guillemotright" unicode="&#xbb;" horiz-adv-x="1166" 
d="M573 422l-146 338q-9 18 -24 18h-188q-46 0 -41 -56l69 -321l-2 -5l-244 -318q-12 -17 -15 -30.5t3.5 -21t21.5 -7.5h177q25 0 43 23l332 331q25 25 14 49zM1066 422l-144 338q-9 18 -26 18h-188q-23 0 -33.5 -16t-6.5 -40l70 -321l-2 -5l-247 -318q-11 -17 -14 -30.5
t3.5 -21t21.5 -7.5h179q20 0 43 23l332 331q23 23 12 49z" />
    <glyph glyph-name="onequarter" unicode="&#xbc;" horiz-adv-x="1242" 
d="M1045 1388q19 0 25.5 -10t-1.5 -26l-701 -1329q-10 -23 -35 -23h-73q-18 0 -24.5 10t2.5 26l699 1330q12 22 37 22h71zM305 1163q-10 0 -15.5 3.5t-3.5 11.5l16 65q3 18 21 24q79 27 147 99q22 22 39 22h72q9 0 13.5 -5.5t2.5 -13.5l-153 -569q-5 -21 -26 -21h-85
q-19 0 -15 21l102 384zM1088 259q17 0 12 -16l-22 -87q-5 -14 -21 -14h-42l-34 -128q-3 -14 -18 -14h-87q-16 0 -12 14l35 128h-222q-16 0 -12 19l24 98q108 67 186 159.5t102 188.5q5 16 19 16h90q5 0 8 -5.5t1 -10.5q-24 -112 -88 -194t-172 -154h95l5 22q5 16 20 16l86 7
q7 1 11 -4t2 -12l-9 -29h43z" />
    <glyph glyph-name="onehalf" unicode="&#xbd;" horiz-adv-x="1294" 
d="M937 1366q12 22 37 22h71q19 0 25.5 -10t-1.5 -26l-701 -1329q-10 -23 -35 -23h-73q-18 0 -24.5 10t2.5 26zM581 1388q9 0 13.5 -5.5t2.5 -13.5l-153 -569q-5 -21 -26 -21h-85q-19 0 -15 21l102 384l-115 -21q-10 0 -15.5 3.5t-3.5 11.5l16 65q3 18 21 24q79 27 147 99
q22 22 39 22h72zM696 0q-15 0 -12 17l3 21l287 261q34 31 48 45t33 43.5t19 53.5q0 30 -21 49t-55 19q-59 0 -137 -70q-14 -13 -23 0l-41 61q-10 10 1 21q106 109 236 109q75 0 120 -40t45 -106q0 -50 -24.5 -101.5t-63.5 -87.5l-182 -170h177q17 0 12 -16l-26 -92
q-5 -17 -19 -17h-377z" />
    <glyph glyph-name="threequarters" unicode="&#xbe;" horiz-adv-x="1232" 
d="M637 998q0 -97 -83.5 -168.5t-189.5 -71.5q-122 0 -177 106q-6 11 6 21l69 57q15 10 23 -1q20 -34 44.5 -54.5t62.5 -20.5q49 0 88 33.5t39 79.5q0 40 -30.5 55t-92.5 -8l-40 67q-4 11 7 21l180 158h-208q-7 0 -11.5 5t-2.5 11l23 85q4 15 19 15h349q17 0 12 -15l-23 -82
q-1 -5 -4 -8.5t-8.5 -9l-8.5 -8.5l-163 -137q57 -1 88.5 -38t31.5 -92zM1078 1388q18 0 24.5 -10t-2.5 -26l-699 -1329q-13 -23 -37 -23h-71q-19 0 -25.5 10t1.5 26l699 1330q12 22 37 22h73zM1097 259q15 0 10 -16l-22 -87q-5 -14 -19 -14h-44l-34 -128q-3 -14 -18 -14h-87
q-16 0 -12 14l35 128h-222q-16 0 -12 19l24 98q108 67 186 159.5t104 188.5q3 16 17 16h90q14 0 9 -16q-24 -112 -88 -194t-172 -154h95l5 22q5 16 20 16l88 7q5 2 8.5 -3.5t1.5 -12.5l-8 -29h45z" />
    <glyph glyph-name="questiondown" unicode="&#xbf;" horiz-adv-x="817" 
d="M479 897q67 0 114 -48.5t47 -116.5q0 -67 -47 -113t-114 -46t-116 46.5t-49 112.5q0 67 49 116t116 49zM581 -276q12 -21 -8 -38q-95 -89 -209 -135t-225 -46q-138 0 -216.5 67.5t-78.5 184.5q0 103 60 187.5t171 168.5q99 77 133.5 112.5t46.5 81.5l24 96q4 13 15.5 23
t24.5 10h191q14 0 20.5 -9t4.5 -24l-35 -132q-18 -69 -61.5 -120t-113.5 -99q-4 -3 -23.5 -16t-25.5 -17.5t-23.5 -17t-24 -18.5t-20.5 -18.5t-20.5 -20.5t-16 -20.5t-13 -22.5t-7 -22.5t-3.5 -24.5q0 -41 29 -65.5t76 -24.5q52 0 98.5 26t99.5 75q23 20 40 -4z" />
    <glyph glyph-name="Agrave" unicode="&#xc0;" horiz-adv-x="1449" 
d="M788 1682q-13 4 -16.5 17t6.5 30l104 182q6 11 19.5 11t25.5 -8l343 -232q8 -4 11.5 -14.5t-2.5 -22.5l-76 -125q-12 -22 -44 -8zM1300 35q5 -35 -26 -35h-219q-26 0 -31 30l-26 138h-639l-106 -147q-18 -21 -38 -21h-265q-18 0 -24.5 11t5.5 27l939 1297q14 19 38 19
h118q26 0 31 -28zM526 403h427l-90 473z" />
    <glyph glyph-name="Aacute" unicode="&#xc1;" horiz-adv-x="1449" 
d="M1331 1729q10 -17 6.5 -30t-16.5 -17l-372 -170q-31 -13 -43 8l-76 125q-6 12 -3 22.5t11 14.5l342 232q13 8 27 8t20 -11zM1057 1326l243 -1291q5 -35 -26 -35h-219q-26 0 -31 30l-26 138h-639l-106 -147q-18 -21 -38 -21h-265q-18 0 -24.5 11t5.5 27l939 1297
q14 19 38 19h118q26 0 31 -28zM526 403h427l-90 473z" />
    <glyph glyph-name="Acircumflex" unicode="&#xc2;" horiz-adv-x="1449" 
d="M1411 1743q20 -15 16 -37l-35 -128q-7 -24 -23.5 -32t-35.5 2l-264 144l-342 -144q-23 -10 -36.5 -2t-6.5 32l36 133q3 18 30 32l357 184q29 15 49 0zM1057 1326l243 -1291q5 -35 -26 -35h-219q-26 0 -31 30l-26 138h-639l-106 -147q-18 -21 -38 -21h-265q-18 0 -24.5 11
t5.5 27l939 1297q14 19 38 19h118q26 0 31 -28zM526 403h427l-90 473z" />
    <glyph glyph-name="Atilde" unicode="&#xc3;" horiz-adv-x="1449" 
d="M1458 1736q17 -21 -2 -44q-2 -2 -16.5 -21t-24.5 -30.5t-32 -30.5t-42.5 -30.5t-51.5 -20.5t-64 -9q-42 0 -82.5 15t-67 33.5t-64.5 33.5t-77 15q-33 0 -63 -12t-44 -23t-34 -29q-20 -20 -38 2l-80 93q-16 19 2 44q1 1 16 20.5t25 30.5t32 30t42.5 30t51.5 20t65 9
q48 0 91 -15t69.5 -32.5t61 -32.5t68.5 -15q77 0 141 64q21 18 38 -2zM1057 1326l243 -1291q5 -35 -26 -35h-219q-26 0 -31 30l-26 138h-639l-106 -147q-18 -21 -38 -21h-265q-18 0 -24.5 11t5.5 27l939 1297q14 19 38 19h118q26 0 31 -28zM526 403h427l-90 473z" />
    <glyph glyph-name="Adieresis" unicode="&#xc4;" horiz-adv-x="1449" 
d="M840 1614q-53 0 -90.5 39t-37.5 93q0 53 37.5 90t90.5 37q55 0 93.5 -37t38.5 -90q0 -54 -39 -93t-93 -39zM1290 1873q52 0 91 -37t39 -90t-39 -92.5t-91 -39.5q-53 0 -92 39.5t-39 92.5q0 54 38.5 90.5t92.5 36.5zM1057 1326l243 -1291q5 -35 -26 -35h-219q-26 0 -31 30
l-26 138h-639l-106 -147q-18 -21 -38 -21h-265q-18 0 -24.5 11t5.5 27l939 1297q14 19 38 19h118q26 0 31 -28zM526 403h427l-90 473z" />
    <glyph glyph-name="Aring" unicode="&#xc5;" horiz-adv-x="1449" 
d="M1001 1487q-71 0 -113.5 42.5t-42.5 110.5q0 99 79.5 174.5t179.5 75.5q70 0 113 -42.5t43 -110.5q0 -101 -80.5 -175.5t-178.5 -74.5zM1071 1762q-35 0 -64.5 -27t-29.5 -65q0 -23 17 -37.5t42 -14.5q35 0 63.5 26.5t28.5 63.5q0 24 -16.5 39t-40.5 15zM1300 35
q5 -35 -26 -35h-219q-26 0 -31 30l-26 138h-639l-106 -147q-18 -21 -38 -21h-265q-18 0 -24.5 11t5.5 27l939 1297q14 19 38 19h118q26 0 31 -28zM526 403h427l-90 473z" />
    <glyph glyph-name="AE" unicode="&#xc6;" horiz-adv-x="1857" 
d="M1999 1354q16 0 23 -9.5t3 -25.5l-55 -201q-5 -26 -35 -26h-574l-75 -276h424q17 0 24 -9.5t2 -23.5l-54 -202q-4 -26 -35 -26h-430l-80 -293h592q16 0 23.5 -10t2.5 -25l-58 -201q-4 -26 -34 -26h-851q-16 0 -23 9.5t-3 25.5l37 137h-400l-131 -155q-14 -17 -39 -17
h-303q-20 0 -25 11t9 25l1151 1302q19 16 34 16h880zM630 413h259l116 439z" />
    <glyph glyph-name="Ccedilla" unicode="&#xc7;" horiz-adv-x="1378" 
d="M1454 1133q10 -18 10.5 -27.5t-15.5 -22.5l-182 -116q-29 -17 -61 15q-97 101 -241 101q-102 0 -203 -42.5t-177.5 -111.5t-124 -164t-47.5 -194q0 -133 81 -216.5t228 -83.5q94 0 182 34t143 82q37 32 64 0l128 -163q21 -28 -12 -52q-219 -163 -479 -182l-83 -105
q63 -13 100 -59t37 -112q0 -110 -95 -194t-209 -84q-104 0 -151 78q-8 17 9 31l85 66q15 9 28 0q33 -29 67 -29q45 0 77.5 30.5t32.5 69.5q0 27 -17 45t-49 18q-34 0 -80 -35q-17 -12 -26 0l-57 61q-10 10 0 24l159 200q-214 32 -336 172t-122 354q0 163 72 318.5t191 271
t281.5 185.5t333.5 70q160 0 280.5 -64.5t177.5 -168.5z" />
    <glyph glyph-name="Egrave" unicode="&#xc8;" horiz-adv-x="1084" 
d="M677 1647q-13 4 -17 16.5t6 30.5l105 182q6 11 20.5 11.5t24.5 -7.5l343 -233q8 -4 11.5 -14t-2.5 -22l-76 -125q-13 -23 -44 -9zM1225 1354q36 0 28 -35l-55 -201q-5 -26 -35 -26h-575l-74 -276h423q16 0 23.5 -9.5t2.5 -23.5l-54 -202q-7 -26 -34 -26h-431l-80 -293
h592q16 0 23.5 -10t2.5 -25l-57 -201q-7 -26 -35 -26h-850q-16 0 -23 9.5t-3 25.5l345 1293q8 26 37 26h829z" />
    <glyph glyph-name="Eacute" unicode="&#xc9;" horiz-adv-x="1084" 
d="M793 1486l-76 125q-6 12 -3 22t11 14l342 233q12 8 26.5 7.5t20.5 -11.5l104 -182q10 -17 6.5 -30t-16.5 -17l-371 -170q-31 -14 -44 9zM1225 1354q36 0 28 -35l-55 -201q-5 -26 -35 -26h-575l-74 -276h423q16 0 23.5 -9.5t2.5 -23.5l-54 -202q-7 -26 -34 -26h-431
l-80 -293h592q16 0 23.5 -10t2.5 -25l-57 -201q-7 -26 -35 -26h-850q-16 0 -23 9.5t-3 25.5l345 1293q8 26 37 26h829z" />
    <glyph glyph-name="Ecircumflex" unicode="&#xca;" horiz-adv-x="1084" 
d="M1298 1708q20 -15 16 -37l-35 -128q-7 -24 -23.5 -32t-35.5 2l-264 144l-342 -144q-23 -10 -36.5 -2t-6.5 32l36 134q2 17 30 31l357 184q29 15 49 0zM1225 1354q36 0 28 -35l-55 -201q-5 -26 -35 -26h-575l-74 -276h423q16 0 23.5 -9.5t2.5 -23.5l-54 -202
q-7 -26 -34 -26h-431l-80 -293h592q16 0 23.5 -10t2.5 -25l-57 -201q-7 -26 -35 -26h-850q-16 0 -23 9.5t-3 25.5l345 1293q8 26 37 26h829z" />
    <glyph glyph-name="Edieresis" unicode="&#xcb;" horiz-adv-x="1084" 
d="M729 1579q-53 0 -90.5 39t-37.5 93q0 53 37.5 90t90.5 37q55 0 93.5 -37t38.5 -90q0 -54 -39 -93t-93 -39zM1178 1838q52 0 91.5 -37t39.5 -90t-39.5 -92.5t-91.5 -39.5q-53 0 -91.5 39.5t-38.5 92.5q0 54 38 90.5t92 36.5zM1225 1354q36 0 28 -35l-55 -201
q-5 -26 -35 -26h-575l-74 -276h423q16 0 23.5 -9.5t2.5 -23.5l-54 -202q-7 -26 -34 -26h-431l-80 -293h592q16 0 23.5 -10t2.5 -25l-57 -201q-7 -26 -35 -26h-850q-16 0 -23 9.5t-3 25.5l345 1293q8 26 37 26h829z" />
    <glyph glyph-name="Igrave" unicode="&#xcc;" horiz-adv-x="538" 
d="M330 1647l371 -170q31 -14 44 9l76 125q6 12 2.5 22t-11.5 14l-343 233q-10 8 -25 7.5t-21 -11.5l-104 -182q-10 -18 -6 -30.5t17 -16.5zM40 0q-16 0 -23 9.5t-3 25.5l345 1293q8 26 37 26h227q16 0 23.5 -10t2.5 -25l-345 -1293q-8 -26 -37 -26h-227z" />
    <glyph glyph-name="Iacute" unicode="&#xcd;" horiz-adv-x="538" 
d="M819 1656q13 6 16.5 18t-5.5 30l-105 181q-8 12 -20.5 11.5t-24.5 -8.5l-343 -231q-21 -14 -7 -36l74 -125q13 -22 44 -10zM40 0q-16 0 -23 9.5t-3 25.5l345 1293q8 26 37 26h227q16 0 23.5 -10t2.5 -25l-345 -1293q-8 -26 -37 -26h-227z" />
    <glyph glyph-name="Icircumflex" unicode="&#xce;" horiz-adv-x="538" 
d="M611 1902l-356 -185q-27 -14 -31 -32l-35 -132q-6 -24 7 -31.5t37 2.5l341 142l263 -142q45 -19 59 28l36 130q4 23 -16 35l-256 185q-17 15 -49 0zM40 0q-16 0 -23 9.5t-3 25.5l345 1293q8 26 37 26h227q16 0 23.5 -10t2.5 -25l-345 -1293q-8 -26 -37 -26h-227z" />
    <glyph glyph-name="Idieresis" unicode="&#xcf;" horiz-adv-x="538" 
d="M349 1590q-53 0 -91 39t-38 91q0 53 38 90.5t91 37.5q55 0 93.5 -37.5t38.5 -90.5q0 -52 -39 -91t-93 -39zM798 1590q-53 0 -91.5 39t-38.5 91q0 54 38 91t92 37q52 0 91.5 -37.5t39.5 -90.5q0 -52 -39.5 -91t-91.5 -39zM40 0q-16 0 -23 9.5t-3 25.5l345 1293q8 26 37 26
h227q16 0 23.5 -10t2.5 -25l-345 -1293q-8 -26 -37 -26h-227z" />
    <glyph glyph-name="Eth" unicode="&#xd0;" horiz-adv-x="1411" 
d="M838 1354q276 0 421 -144t145 -389q0 -167 -67 -318.5t-181.5 -262t-276.5 -175.5t-343 -65h-536q-16 0 -23.5 10t-2.5 25l135 505h-116q-16 0 -23 9.5t-3 23.5l54 205q5 24 35 24h123l140 524q8 28 37 28h482zM588 262q147 0 268.5 74.5t189 196.5t67.5 260
q0 144 -79.5 221.5t-240.5 77.5h-246l-78 -290h123q16 0 23 -9.5t3 -23.5l-54 -203q-8 -26 -35 -26h-130l-74 -278h263z" />
    <glyph glyph-name="Ntilde" unicode="&#xd1;" horiz-adv-x="1456" 
d="M1227 1515q-42 0 -82.5 15t-67.5 33.5t-65 33.5t-77 15q-33 0 -62.5 -12t-43.5 -22.5t-34 -29.5q-20 -20 -38 2l-80 94q-15 19 2 43q1 2 16 20.5t25 30t31.5 31t42.5 30.5t52 20t65 9q48 0 91 -15t69.5 -33t61 -33t68.5 -15q77 0 141 64q22 19 38 -1l80 -94
q17 -21 -2 -44q-2 -2 -16.5 -21t-24.5 -30.5t-32 -30.5t-42.5 -30.5t-51.5 -20.5t-64 -9zM40 0q-16 0 -23 9.5t-3 25.5l345 1293q8 26 37 26h222q28 0 38 -23l387 -868l234 865q8 26 37 26h227q16 0 23 -9.5t3 -25.5l-347 -1293q-5 -26 -35 -26h-218q-27 0 -35 24l-394 866
l-234 -864q-8 -26 -37 -26h-227z" />
    <glyph glyph-name="Ograve" unicode="&#xd2;" horiz-adv-x="1542" 
d="M833 1647l373 -170q29 -14 42 9l76 125q6 12 3.5 22t-10.5 14l-343 233q-12 8 -26.5 7.5t-20.5 -11.5l-104 -182q-10 -17 -6.5 -30t16.5 -17zM672 -12q-255 0 -405.5 148t-150.5 385q0 162 73 317.5t193 271t282 186t332 70.5q255 0 405.5 -149t150.5 -386
q0 -162 -73 -317t-193 -270t-282 -185.5t-332 -70.5zM725 271q103 0 201 43t169.5 113.5t114.5 163.5t43 188q0 139 -83 221.5t-229 82.5q-136 0 -258 -73t-194 -191t-72 -246q0 -139 82 -220.5t226 -81.5z" />
    <glyph glyph-name="Oacute" unicode="&#xd3;" horiz-adv-x="1542" 
d="M1366 1647q13 4 16.5 17t-6.5 30l-104 182q-6 11 -20.5 11.5t-26.5 -7.5l-342 -233q-8 -4 -11 -14t3 -22l76 -125q13 -22 43 -9zM672 -12q-255 0 -405.5 148t-150.5 385q0 162 73 317.5t193 271t282 186t332 70.5q255 0 405.5 -149t150.5 -386q0 -162 -73 -317t-193 -270
t-282 -185.5t-332 -70.5zM725 271q103 0 201 43t169.5 113.5t114.5 163.5t43 188q0 139 -83 221.5t-229 82.5q-136 0 -258 -73t-194 -191t-72 -246q0 -139 82 -220.5t226 -81.5z" />
    <glyph glyph-name="Ocircumflex" unicode="&#xd4;" horiz-adv-x="1542" 
d="M1151 1892l-356 -184q-28 -14 -30 -31l-36 -134q-7 -24 6.5 -32t36.5 2l342 144l264 -144q19 -10 35.5 -2t23.5 32l35 128q4 22 -16 37l-255 184q-19 15 -50 0zM672 -12q-255 0 -405.5 148t-150.5 385q0 162 73 317.5t193 271t282 186t332 70.5q255 0 405.5 -149
t150.5 -386q0 -162 -73 -317t-193 -270t-282 -185.5t-332 -70.5zM725 271q103 0 201 43t169.5 113.5t114.5 163.5t43 188q0 139 -83 221.5t-229 82.5q-136 0 -258 -73t-194 -191t-72 -246q0 -139 82 -220.5t226 -81.5z" />
    <glyph glyph-name="Otilde" unicode="&#xd5;" horiz-adv-x="1542" 
d="M1270 1515q-42 0 -82 15t-66.5 33.5t-65 33.5t-77.5 15q-33 0 -63 -12t-44 -23t-34 -29q-18 -21 -38 2l-80 94q-14 17 2 43q1 1 16 20.5t25 30.5t32 30.5t43 30.5t52 20t65 9q48 0 91 -15t69 -33t60.5 -33t68.5 -15t63.5 11.5t44.5 22.5t35 30q20 20 38 -1l80 -94
q16 -20 -2 -44q-2 -2 -20.5 -25.5t-34 -39t-42.5 -35.5t-61.5 -31t-74.5 -11zM672 -12q-255 0 -405.5 148t-150.5 385q0 162 73 317.5t193 271t282 186t332 70.5q255 0 405.5 -149t150.5 -386q0 -162 -73 -317t-193 -270t-282 -185.5t-332 -70.5zM725 271q103 0 201 43
t169.5 113.5t114.5 163.5t43 188q0 139 -83 221.5t-229 82.5q-136 0 -258 -73t-194 -191t-72 -246q0 -139 82 -220.5t226 -81.5z" />
    <glyph glyph-name="Odieresis" unicode="&#xd6;" horiz-adv-x="1542" 
d="M887 1579q-53 0 -91.5 39.5t-38.5 92.5t38 90t92 37t92 -37t38 -90t-38.5 -92.5t-91.5 -39.5zM1335 1579q-53 0 -91 39t-38 93t37.5 90.5t91.5 36.5t93 -37t39 -90t-39.5 -92.5t-92.5 -39.5zM672 -12q-255 0 -405.5 148t-150.5 385q0 162 73 317.5t193 271t282 186
t332 70.5q255 0 405.5 -149t150.5 -386q0 -162 -73 -317t-193 -270t-282 -185.5t-332 -70.5zM725 271q103 0 201 43t169.5 113.5t114.5 163.5t43 188q0 139 -83 221.5t-229 82.5q-136 0 -258 -73t-194 -191t-72 -246q0 -139 82 -220.5t226 -81.5z" />
    <glyph glyph-name="multiply" unicode="&#xd7;" horiz-adv-x="997" 
d="M1033 949q19 -22 -6 -41l-300 -240l163 -220q15 -24 -3 -42l-156 -132q-24 -18 -42 5l-167 224l-288 -229q-23 -20 -41 5l-101 129q-17 23 5 42l292 232l-165 221q-17 24 3 41l158 130q23 20 42 -5l167 -224l295 236q26 19 43 -5z" />
    <glyph glyph-name="Oslash" unicode="&#xd8;" horiz-adv-x="1542" 
d="M1446 1168q106 -138 106 -337q0 -162 -73 -317t-193 -270t-282 -185.5t-332 -70.5q-146 0 -257 50l-77 -83q-9 -11 -21.5 -11t-21.5 11l-149 142q-22 22 0 44l61 67q-91 131 -91 313q0 162 73 317.5t193 271t282 186t332 70.5q127 0 233 -40l102 113q9 9 21.5 9.5
t23.5 -9.5l148 -143q10 -9 10 -21.5t-10 -21.5zM417 573q0 -57 17 -117l569 624q-31 3 -62 3q-136 0 -258 -73t-194 -191t-72 -246zM725 271q103 0 201 43t169.5 113.5t114.5 163.5t43 188q0 80 -29 144l-589 -642q40 -10 90 -10z" />
    <glyph glyph-name="Ugrave" unicode="&#xd9;" horiz-adv-x="1341" 
d="M732 1647l372 -170q30 -13 43 9l75 125q7 12 4 22t-11 14l-344 233q-10 8 -24.5 7.5t-20.5 -11.5l-104 -182q-10 -17 -6.5 -30t16.5 -17zM1435 1354q17 0 24 -9.5t2 -25.5l-224 -831q-59 -219 -235.5 -359.5t-428.5 -140.5q-92 0 -168.5 19.5t-130 55t-90.5 84.5
t-53.5 108t-15.5 125.5t20 136.5l216 811q8 26 36 26h227q16 0 23.5 -10t2.5 -25l-210 -781q-34 -129 12.5 -201.5t170.5 -72.5q136 0 228.5 84.5t128.5 219.5l203 760q5 26 35 26h227z" />
    <glyph glyph-name="Uacute" unicode="&#xda;" horiz-adv-x="1341" 
d="M1264 1647q13 4 16.5 17t-4.5 30l-104 182q-15 24 -47 4l-344 -233q-8 -4 -10.5 -13.5t3.5 -22.5l75 -125q13 -22 43 -9zM1435 1354q17 0 24 -9.5t2 -25.5l-224 -831q-59 -219 -235.5 -359.5t-428.5 -140.5q-92 0 -168.5 19.5t-130 55t-90.5 84.5t-53.5 108t-15.5 125.5
t20 136.5l216 811q8 26 36 26h227q16 0 23.5 -10t2.5 -25l-210 -781q-34 -129 12.5 -201.5t170.5 -72.5q136 0 228.5 84.5t128.5 219.5l203 760q5 26 35 26h227z" />
    <glyph glyph-name="Ucircumflex" unicode="&#xdb;" horiz-adv-x="1341" 
d="M1050 1892l-356 -184q-27 -14 -31 -31l-36 -134q-7 -24 7.5 -32t37.5 2l340 144l264 -144q19 -10 35.5 -2t23.5 32l34 128q6 22 -14 37l-256 184q-19 14 -49 0zM1435 1354q17 0 24 -9.5t2 -25.5l-224 -831q-59 -219 -235.5 -359.5t-428.5 -140.5q-92 0 -168.5 19.5
t-130 55t-90.5 84.5t-53.5 108t-15.5 125.5t20 136.5l216 811q8 26 36 26h227q16 0 23.5 -10t2.5 -25l-210 -781q-34 -129 12.5 -201.5t170.5 -72.5q136 0 228.5 84.5t128.5 219.5l203 760q5 26 35 26h227z" />
    <glyph glyph-name="Udieresis" unicode="&#xdc;" horiz-adv-x="1341" 
d="M784 1579q-53 0 -90.5 39t-37.5 93q0 53 37.5 90t90.5 37q55 0 93.5 -37t38.5 -90q0 -54 -39 -93t-93 -39zM1234 1579q-53 0 -91.5 39.5t-38.5 92.5q0 54 38 90.5t92 36.5q52 0 91 -37t39 -90t-39 -92.5t-91 -39.5zM1435 1354q17 0 24 -9.5t2 -25.5l-224 -831
q-59 -219 -235.5 -359.5t-428.5 -140.5q-92 0 -168.5 19.5t-130 55t-90.5 84.5t-53.5 108t-15.5 125.5t20 136.5l216 811q8 26 36 26h227q16 0 23.5 -10t2.5 -25l-210 -781q-34 -129 12.5 -201.5t170.5 -72.5q136 0 228.5 84.5t128.5 219.5l203 760q5 26 35 26h227z" />
    <glyph glyph-name="Yacute" unicode="&#xdd;" horiz-adv-x="1310" 
d="M830 1486l-75 125q-6 13 -3.5 22.5t10.5 13.5l344 233q31 20 46 -4l105 -182q8 -18 4 -30.5t-15 -16.5l-373 -170q-30 -13 -43 9zM1487 1354q19 0 24 -12t-8 -26l-680 -776l-136 -514q-8 -26 -36 -26h-228q-16 0 -23 9.5t-3 25.5l136 508l-257 776q-4 16 3 25.5t23 9.5
h245q30 0 34 -26l165 -505l445 513q15 18 38 18h258z" />
    <glyph glyph-name="Thorn" unicode="&#xde;" horiz-adv-x="1190" 
d="M838 1161q178 0 275 -102t97 -271q0 -118 -47.5 -227t-127.5 -189.5t-192.5 -129t-236.5 -48.5h-257l-45 -168q-8 -26 -37 -26h-227q-16 0 -23 9.5t-3 25.5l345 1293q8 26 37 26h227q16 0 23.5 -10t2.5 -25l-42 -158h231zM649 476q115 0 198 74.5t83 185.5
q0 67 -35.5 105.5t-110.5 38.5h-253l-108 -404h226z" />
    <glyph glyph-name="germandbls" unicode="&#xdf;" horiz-adv-x="1161" 
d="M920 693q147 -52 147 -240q0 -190 -140 -321.5t-347 -131.5h-98q-18 0 -27.5 12t-4.5 30l43 163q6 19 12 26t19 7h23q111 0 184.5 59.5t73.5 155.5q0 121 -140 121h-40q-35 0 -24 32l45 165q4 24 26 24h24q88 0 152.5 60t64.5 139q0 60 -42.5 89.5t-117.5 29.5
q-99 0 -165.5 -55.5t-91.5 -151.5l-237 -876q-7 -30 -42 -30h-215q-16 0 -22.5 10t-2.5 26l243 896q59 218 205 326t361 108q184 0 288 -77t104 -223q0 -116 -66 -214.5t-189 -148.5z" />
    <glyph glyph-name="agrave" unicode="&#xe0;" horiz-adv-x="1100" 
d="M486 1178q-13 4 -16.5 17t6.5 30l104 183q6 11 20 11t27 -8l343 -233q8 -4 10.5 -14t-3.5 -22l-76 -125q-13 -23 -44 -9zM1095 885q16 0 23 -9.5t3 -23.5l-220 -826q-8 -26 -35 -26h-220q-16 0 -23.5 9.5t-2.5 23.5l17 64q-131 -111 -281 -111q-141 0 -227.5 92
t-86.5 248q0 106 41.5 210t110 183.5t164 128.5t197.5 49q181 0 256 -142l27 104q8 26 35 26h222zM309 375q0 -70 40.5 -109.5t115.5 -39.5q112 0 191.5 86t79.5 195q0 69 -41 110t-112 41q-115 0 -194.5 -86.5t-79.5 -196.5z" />
    <glyph glyph-name="aacute" unicode="&#xe1;" horiz-adv-x="1100" 
d="M604 1017l-76 125q-6 12 -3.5 22t10.5 14l343 233q13 8 27 8t20 -11l104 -183q10 -17 6.5 -30t-16.5 -17l-373 -170q-29 -14 -42 9zM1095 885q16 0 23 -9.5t3 -23.5l-220 -826q-8 -26 -35 -26h-220q-16 0 -23.5 9.5t-2.5 23.5l17 64q-131 -111 -281 -111
q-141 0 -227.5 92t-86.5 248q0 106 41.5 210t110 183.5t164 128.5t197.5 49q181 0 256 -142l27 104q8 26 35 26h222zM309 375q0 -70 40.5 -109.5t115.5 -39.5q112 0 191.5 86t79.5 195q0 69 -41 110t-112 41q-115 0 -194.5 -86.5t-79.5 -196.5z" />
    <glyph glyph-name="acircumflex" unicode="&#xe2;" horiz-adv-x="1100" 
d="M1109 1239q20 -15 16 -36l-37 -129q-13 -49 -59 -29l-262 144l-342 -144q-23 -10 -36.5 -2.5t-6.5 31.5l35 134q4 17 31 31l356 184q31 15 48 0zM1095 885q16 0 23 -9.5t3 -23.5l-220 -826q-8 -26 -35 -26h-220q-16 0 -23.5 9.5t-2.5 23.5l17 64q-131 -111 -281 -111
q-141 0 -227.5 92t-86.5 248q0 106 41.5 210t110 183.5t164 128.5t197.5 49q181 0 256 -142l27 104q8 26 35 26h222zM309 375q0 -70 40.5 -109.5t115.5 -39.5q112 0 191.5 86t79.5 195q0 69 -41 110t-112 41q-115 0 -194.5 -86.5t-79.5 -196.5z" />
    <glyph glyph-name="atilde" unicode="&#xe3;" horiz-adv-x="1100" 
d="M1156 1232q17 -20 -2 -43q-2 -2 -16 -20.5t-24.5 -30.5t-32 -31t-42 -30.5t-51.5 -20.5t-65 -9q-42 0 -82.5 15t-67 33.5t-64.5 33.5t-77 15q-33 0 -63 -12t-44 -23t-34 -29q-20 -20 -38 1l-80 94q-15 19 2 43q1 2 16 20.5t25 30t31.5 31t42.5 30.5t52 20t65 9
q48 0 91 -15t69.5 -32.5t61 -32.5t68.5 -15t63.5 11.5t44.5 22.5t35 30q19 19 36 -2zM1095 885q16 0 23 -9.5t3 -23.5l-220 -826q-8 -26 -35 -26h-220q-16 0 -23.5 9.5t-2.5 23.5l17 64q-131 -111 -281 -111q-141 0 -227.5 92t-86.5 248q0 106 41.5 210t110 183.5t164 128.5
t197.5 49q181 0 256 -142l27 104q8 26 35 26h222zM309 375q0 -70 40.5 -109.5t115.5 -39.5q112 0 191.5 86t79.5 195q0 69 -41 110t-112 41q-115 0 -194.5 -86.5t-79.5 -196.5z" />
    <glyph glyph-name="adieresis" unicode="&#xe4;" horiz-adv-x="1100" 
d="M540 1111q-54 0 -92 39t-38 93q0 53 37.5 89.5t92.5 36.5q54 0 92 -36.5t38 -89.5t-38.5 -92.5t-91.5 -39.5zM988 1111q-53 0 -91 39t-38 93t37.5 90t91.5 36t92.5 -36.5t38.5 -89.5t-39 -92.5t-92 -39.5zM1095 885q16 0 23 -9.5t3 -23.5l-220 -826q-8 -26 -35 -26h-220
q-16 0 -23.5 9.5t-2.5 23.5l17 64q-131 -111 -281 -111q-141 0 -227.5 92t-86.5 248q0 106 41.5 210t110 183.5t164 128.5t197.5 49q181 0 256 -142l27 104q8 26 35 26h222zM309 375q0 -70 40.5 -109.5t115.5 -39.5q112 0 191.5 86t79.5 195q0 69 -41 110t-112 41
q-115 0 -194.5 -86.5t-79.5 -196.5z" />
    <glyph glyph-name="aring" unicode="&#xe5;" horiz-adv-x="1100" 
d="M699 984q-71 0 -114 43t-43 110q0 100 79.5 175t180.5 75q70 0 113 -42.5t43 -110.5q0 -101 -80.5 -175.5t-178.5 -74.5zM769 1258q-35 0 -64.5 -27t-29.5 -65q0 -23 16 -37.5t41 -14.5q36 0 65 27t29 64q0 24 -16.5 38.5t-40.5 14.5zM1095 885q16 0 23 -9.5t3 -23.5
l-220 -826q-8 -26 -35 -26h-220q-16 0 -23.5 9.5t-2.5 23.5l17 64q-131 -111 -281 -111q-141 0 -227.5 92t-86.5 248q0 106 41.5 210t110 183.5t164 128.5t197.5 49q181 0 256 -142l27 104q8 26 35 26h222zM309 375q0 -70 40.5 -109.5t115.5 -39.5q112 0 191.5 86t79.5 195
q0 69 -41 110t-112 41q-115 0 -194.5 -86.5t-79.5 -196.5z" />
    <glyph glyph-name="ae" unicode="&#xe6;" horiz-adv-x="1529" 
d="M1137 897q176 0 269.5 -102t84.5 -253q0 -96 -54.5 -150t-159.5 -54h-430q30 -128 180 -128q104 0 195 54q44 17 62 -21l44 -92q17 -29 -16 -52q-138 -113 -338 -113q-115 0 -204 41.5t-137 118.5q-82 -81 -200 -120.5t-213 -39.5q-223 0 -223 198q0 92 47 161t134 111.5
t193.5 67t242.5 35.5q16 63 -12.5 86t-94.5 23q-114 0 -238 -62q-18 -8 -29 -3.5t-13 18.5l-15 132q-3 34 34 51q192 93 375 93q170 0 219 -90q134 90 297 90zM1104 666q-73 0 -133 -37.5t-95 -100.5h367q0 63 -35.5 100.5t-103.5 37.5zM352 191q52 0 116 29t115 77
q-3 24 -3 48q0 31 1 37q-67 -4 -115.5 -11t-95.5 -21t-71.5 -39.5t-24.5 -62.5q0 -57 78 -57z" />
    <glyph glyph-name="ccedilla" unicode="&#xe7;" horiz-adv-x="918" 
d="M906 757q16 -28 12 -38q-4 -9 -14 -16l-140 -97q-30 -20 -56 0q-54 54 -134 54q-112 0 -193.5 -82.5t-81.5 -183.5q0 -77 48.5 -122.5t128.5 -45.5q82 0 168 57q44 27 59 -7l66 -137q9 -16 6.5 -26.5t-20.5 -22.5q-107 -79 -245 -99l-83 -106q63 -13 100 -59t37 -112
q0 -110 -95 -194t-209 -84q-104 0 -151 78q-8 17 9 31l85 66q15 9 28 0q33 -29 68 -29q45 0 77 30.5t32 69.5q0 27 -17 45t-49 18q-34 0 -80 -35q-17 -12 -26 0l-57 61q-10 10 0 24l159 200q-134 28 -213.5 121.5t-79.5 234.5q0 143 80.5 270t211 201.5t272.5 74.5
q102 0 180 -38.5t117 -101.5z" />
    <glyph glyph-name="egrave" unicode="&#xe8;" horiz-adv-x="992" 
d="M436 1178q-13 4 -17 16.5t6 30.5l104 183q6 11 19.5 11t25.5 -8l344 -233q8 -4 11 -14t-4 -22l-75 -125q-13 -22 -43 -9zM602 897q176 0 269.5 -102t84.5 -253q-2 -96 -56 -150t-159 -54h-429q30 -128 181 -128q103 0 194 54q43 17 61 -21l45 -92q15 -29 -15 -52
q-141 -113 -341 -113q-179 0 -285.5 95.5t-106.5 263.5q0 142 73.5 269t203 205t280.5 78zM568 666q-71 0 -131.5 -37.5t-94.5 -100.5h366q-2 63 -37 100.5t-103 37.5z" />
    <glyph glyph-name="eacute" unicode="&#xe9;" horiz-adv-x="992" 
d="M979 1225q8 -18 4 -30.5t-15 -16.5l-373 -170q-30 -13 -43 9l-75 125q-6 13 -3.5 22.5t10.5 13.5l344 233q32 20 47 -3zM602 897q176 0 269.5 -102t84.5 -253q-2 -96 -56 -150t-159 -54h-429q30 -128 181 -128q103 0 194 54q43 17 61 -21l45 -92q15 -29 -15 -52
q-141 -113 -341 -113q-179 0 -285.5 95.5t-106.5 263.5q0 142 73.5 269t203 205t280.5 78zM568 666q-71 0 -131.5 -37.5t-94.5 -100.5h366q-2 63 -37 100.5t-103 37.5z" />
    <glyph glyph-name="ecircumflex" unicode="&#xea;" horiz-adv-x="992" 
d="M1059 1239q20 -15 14 -36l-35 -129q-7 -24 -23.5 -31.5t-35.5 2.5l-264 144l-340 -144q-24 -10 -37.5 -2.5t-7.5 31.5l36 134q4 17 31 31l356 184q30 14 49 0zM602 897q176 0 269.5 -102t84.5 -253q-2 -96 -56 -150t-159 -54h-429q30 -128 181 -128q103 0 194 54
q43 17 61 -21l45 -92q15 -29 -15 -52q-141 -113 -341 -113q-179 0 -285.5 95.5t-106.5 263.5q0 142 73.5 269t203 205t280.5 78zM568 666q-71 0 -131.5 -37.5t-94.5 -100.5h366q-2 63 -37 100.5t-103 37.5z" />
    <glyph glyph-name="edieresis" unicode="&#xeb;" horiz-adv-x="992" 
d="M488 1111q-53 0 -91 39t-38 93q0 53 37.5 89.5t91.5 36.5q55 0 93.5 -36.5t38.5 -89.5q0 -54 -39 -93t-93 -39zM937 1369q52 0 91 -36.5t39 -89.5t-39 -92.5t-91 -39.5q-53 0 -91.5 39.5t-38.5 92.5q0 54 38 90t92 36zM602 897q176 0 269.5 -102t84.5 -253
q-2 -96 -56 -150t-159 -54h-429q30 -128 181 -128q103 0 194 54q43 17 61 -21l45 -92q15 -29 -15 -52q-141 -113 -341 -113q-179 0 -285.5 95.5t-106.5 263.5q0 142 73.5 269t203 205t280.5 78zM568 666q-71 0 -131.5 -37.5t-94.5 -100.5h366q-2 63 -37 100.5t-103 37.5z
" />
    <glyph glyph-name="igrave" unicode="&#xec;" horiz-adv-x="496" 
d="M184 1178l371 -170q31 -14 44 9l76 125q6 12 3.5 22t-10.5 14l-343 233q-13 8 -27 8t-20 -11l-104 -183q-10 -17 -6.5 -30t16.5 -17zM24 0q-16 0 -23.5 9.5t-2.5 23.5l219 826q8 26 35 26h222q16 0 23 -9.5t3 -23.5l-221 -826q-8 -26 -34 -26h-221z" />
    <glyph glyph-name="iacute" unicode="&#xed;" horiz-adv-x="496" 
d="M717 1178q13 4 16.5 17t-6.5 30l-104 183q-6 11 -20 11t-27 -8l-343 -233q-8 -4 -10.5 -14t3.5 -22l76 -125q13 -23 42 -9zM24 0q-16 0 -23.5 9.5t-2.5 23.5l219 826q8 26 35 26h222q16 0 23 -9.5t3 -23.5l-221 -826q-8 -26 -34 -26h-221z" />
    <glyph glyph-name="icircumflex" unicode="&#xee;" horiz-adv-x="496" 
d="M502 1423l-356 -184q-27 -14 -31 -31l-35 -134q-7 -24 6.5 -31.5t36.5 2.5l342 144l262 -144q46 -20 59 29l37 129q4 21 -16 36l-257 184q-17 15 -48 0zM24 0q-16 0 -23.5 9.5t-2.5 23.5l219 826q8 26 35 26h222q16 0 23 -9.5t3 -23.5l-221 -826q-8 -26 -34 -26h-221z
" />
    <glyph glyph-name="idieresis" unicode="&#xef;" horiz-adv-x="496" 
d="M238 1111q-54 0 -92 39t-38 93q0 53 37.5 89.5t92.5 36.5q54 0 92 -36.5t38 -89.5t-38.5 -92.5t-91.5 -39.5zM686 1111q-53 0 -91 39t-38 93t37.5 90t91.5 36t92.5 -36.5t38.5 -89.5t-39 -92.5t-92 -39.5zM24 0q-16 0 -23.5 9.5t-2.5 23.5l219 826q8 26 35 26h222
q16 0 23 -9.5t3 -23.5l-221 -826q-8 -26 -34 -26h-221z" />
    <glyph glyph-name="eth" unicode="&#xf0;" horiz-adv-x="1124" 
d="M1317 1132q8 -30 -22 -39l-117 -29l-277 -1038q-8 -26 -35 -26h-220q-16 0 -23.5 9.5t-2.5 23.5l17 64q-131 -111 -281 -111q-141 0 -227.5 92t-86.5 248q0 106 41.5 210t110 183.5t164 128.5t197.5 49q181 0 257 -144l63 238l-82 -21q-29 -8 -38 23l-19 66q-10 31 24 36
l153 38q7 29 11.5 59t6 47.5t2.5 37t1 23.5q0 54 43 54h142q58 0 86.5 -39.5t11.5 -103.5l43 11q30 5 36 -23zM309 380q0 -72 41.5 -113t118.5 -41q111 0 188 84t77 192q0 72 -42 114t-114 42q-112 0 -190.5 -85t-78.5 -193z" />
    <glyph glyph-name="ntilde" unicode="&#xf1;" 
d="M1140 1232q17 -21 -1 -43q-2 -2 -16.5 -21t-24.5 -30.5t-32 -30.5t-42.5 -30.5t-51.5 -20.5t-64 -9q-42 0 -82.5 15t-67.5 33.5t-65 33.5t-77 15q-33 0 -62.5 -12t-43.5 -22.5t-34 -29.5q-21 -21 -39 1l-79 94q-16 19 1 43q1 2 16 21t25 30t32 30.5t43 30.5t52 20t65 9
q48 0 91 -15t69.5 -32.5t61 -32.5t68.5 -15t63 11.5t43.5 22.5t33.5 30q20 20 38 -2zM757 897q144 0 216.5 -94.5t29.5 -252.5l-87 -326q-13 -49 -16.5 -83.5t-1.5 -58t1 -30.5q0 -30 -19 -41t-56 -11h-137q-49 0 -71 37.5t-9 83.5l105 393q17 66 -13 100.5t-90 34.5
q-61 0 -115.5 -31t-83.5 -78l-138 -514q-8 -26 -34 -26h-221q-16 0 -23.5 9.5t-2.5 23.5l219 826q8 26 35 26h222q16 0 23 -9.5t3 -23.5l-17 -66q133 111 281 111z" />
    <glyph glyph-name="ograve" unicode="&#xf2;" horiz-adv-x="1050" 
d="M453 1152l373 -170q30 -13 44 9l74 125q6 12 3.5 22t-10.5 14l-343 233q-32 20 -47 -3l-104 -183q-8 -18 -4.5 -30.5t14.5 -16.5zM430 -14q-174 0 -279.5 97t-105.5 261q0 109 46.5 210.5t124 176.5t184 120.5t220.5 45.5q174 0 279.5 -96.5t105.5 -260.5
q0 -110 -46.5 -212.5t-124 -177t-183.5 -119.5t-221 -45zM465 226q113 0 195.5 85t82.5 191q0 71 -41.5 113.5t-114.5 42.5q-113 0 -195.5 -84t-82.5 -192q0 -72 41 -114t115 -42z" />
    <glyph glyph-name="oacute" unicode="&#xf3;" horiz-adv-x="1050" 
d="M986 1152q13 4 16.5 17t-6.5 30l-104 183q-6 11 -19.5 11t-25.5 -8l-344 -233q-8 -4 -11 -14t3 -22l76 -125q13 -22 43 -9zM430 -14q-174 0 -279.5 97t-105.5 261q0 109 46.5 210.5t124 176.5t184 120.5t220.5 45.5q174 0 279.5 -96.5t105.5 -260.5q0 -110 -46.5 -212.5
t-124 -177t-183.5 -119.5t-221 -45zM465 226q113 0 195.5 85t82.5 191q0 71 -41.5 113.5t-114.5 42.5q-113 0 -195.5 -84t-82.5 -192q0 -72 41 -114t115 -42z" />
    <glyph glyph-name="ocircumflex" unicode="&#xf4;" horiz-adv-x="1050" 
d="M772 1397l-355 -184q-28 -12 -32 -31l-36 -134q-6 -24 7 -31.5t36 2.5l342 144l264 -144q19 -10 35.5 -2.5t23.5 31.5l35 129q6 22 -16 36l-255 184q-20 15 -49 0zM430 -14q-174 0 -279.5 97t-105.5 261q0 109 46.5 210.5t124 176.5t184 120.5t220.5 45.5
q174 0 279.5 -96.5t105.5 -260.5q0 -110 -46.5 -212.5t-124 -177t-183.5 -119.5t-221 -45zM465 226q113 0 195.5 85t82.5 191q0 71 -41.5 113.5t-114.5 42.5q-113 0 -195.5 -84t-82.5 -192q0 -72 41 -114t115 -42z" />
    <glyph glyph-name="otilde" unicode="&#xf5;" horiz-adv-x="1050" 
d="M892 1021q-43 0 -83.5 15t-67 33.5t-65 33.5t-77.5 15q-70 0 -139 -64q-21 -21 -40 1l-80 94q-14 17 2 43q2 2 20.5 25.5t34 38.5t42 35.5t61 31t74.5 10.5q48 0 91.5 -15t69.5 -33t61.5 -33t69.5 -15q33 0 62.5 12t43.5 22.5t35 30.5q20 20 38 -2l80 -94q16 -19 -2 -43
q-2 -2 -16.5 -21t-24.5 -30.5t-32 -30.5t-42.5 -30.5t-51.5 -20.5t-64 -9zM430 -14q-174 0 -279.5 97t-105.5 261q0 109 46.5 210.5t124 176.5t184 120.5t220.5 45.5q174 0 279.5 -96.5t105.5 -260.5q0 -110 -46.5 -212.5t-124 -177t-183.5 -119.5t-221 -45zM465 226
q113 0 195.5 85t82.5 191q0 71 -41.5 113.5t-114.5 42.5q-113 0 -195.5 -84t-82.5 -192q0 -72 41 -114t115 -42z" />
    <glyph glyph-name="odieresis" unicode="&#xf6;" horiz-adv-x="1050" 
d="M507 1085q-53 0 -91.5 39.5t-38.5 92.5t38 89.5t92 36.5t92 -36.5t38 -89.5t-38.5 -92.5t-91.5 -39.5zM956 1085q-54 0 -92 39t-38 93t37.5 90t92.5 36q52 0 91 -36.5t39 -89.5t-39 -92.5t-91 -39.5zM430 -14q-174 0 -279.5 97t-105.5 261q0 109 46.5 210.5t124 176.5
t184 120.5t220.5 45.5q174 0 279.5 -96.5t105.5 -260.5q0 -110 -46.5 -212.5t-124 -177t-183.5 -119.5t-221 -45zM465 226q113 0 195.5 85t82.5 191q0 71 -41.5 113.5t-114.5 42.5q-113 0 -195.5 -84t-82.5 -192q0 -72 41 -114t115 -42z" />
    <glyph glyph-name="divide" unicode="&#xf7;" horiz-adv-x="1044" 
d="M682 920q-56 0 -98 41.5t-42 97.5q0 57 42 98.5t98 41.5t97.5 -41.5t41.5 -98.5q0 -56 -41.5 -97.5t-97.5 -41.5zM144 526q-34 0 -26 33l52 196q8 24 33 24h811q35 0 24 -33l-52 -196q-4 -24 -33 -24h-809zM481 106q-56 0 -98.5 41.5t-42.5 97.5q0 57 42 98.5t99 41.5
q56 0 96.5 -41.5t40.5 -98.5q0 -56 -40.5 -97.5t-96.5 -41.5z" />
    <glyph glyph-name="oslash" unicode="&#xf8;" horiz-adv-x="1050" 
d="M939 755q66 -87 66 -215q0 -110 -46.5 -212.5t-124 -177t-183.5 -119.5t-221 -45q-101 0 -190 38l-79 -81q-13 -13 -27 0l-78 80q-14 13 0 27l64 66q-75 90 -75 228q0 109 46.5 210.5t124 176.5t184 120.5t220.5 45.5q115 0 203 -43l48 50q15 17 30 0l78 -78
q15 -14 0 -29zM309 382q0 -26 9 -57l314 328q-23 5 -45 5q-113 0 -195.5 -84t-82.5 -192zM465 226q113 0 195.5 85t82.5 191q0 20 -5 43l-304 -318q5 -1 31 -1z" />
    <glyph glyph-name="ugrave" unicode="&#xf9;" 
d="M443 1178q-11 4 -15 16.5t4 30.5l104 183q6 11 20 11t27 -8l344 -233q8 -4 10.5 -14t-3.5 -22l-75 -125q-14 -23 -43 -9zM1080 885q16 0 23 -9.5t3 -23.5l-221 -826q-8 -26 -35 -26h-220q-16 0 -23.5 9.5t-2.5 23.5l17 68q-133 -113 -283 -113q-144 0 -216 94.5
t-30 252.5l87 326q13 50 17 83.5t2 58t-2 30.5q0 30 19 41t57 11h138q49 0 70.5 -37.5t8.5 -83.5l-105 -393q-16 -66 14 -100.5t90 -34.5t115 31.5t84 79.5l137 512q5 26 33 26h223z" />
    <glyph glyph-name="uacute" unicode="&#xfa;" 
d="M561 1017l-77 125q-6 12 -2.5 22t11.5 14l344 233q12 8 25.5 8t19.5 -11l104 -183q10 -18 6 -30.5t-17 -16.5l-371 -170q-30 -13 -43 9zM1080 885q16 0 23 -9.5t3 -23.5l-221 -826q-8 -26 -35 -26h-220q-16 0 -23.5 9.5t-2.5 23.5l17 68q-133 -113 -283 -113
q-144 0 -216 94.5t-30 252.5l87 326q13 50 17 83.5t2 58t-2 30.5q0 30 19 41t57 11h138q49 0 70.5 -37.5t8.5 -83.5l-105 -393q-16 -66 14 -100.5t90 -34.5t115 31.5t84 79.5l137 512q5 26 33 26h223z" />
    <glyph glyph-name="ucircumflex" unicode="&#xfb;" 
d="M382 1045q-23 -10 -36.5 -2.5t-7.5 31.5l37 134q4 19 31 31l356 184q29 15 49 0l255 -184q19 -14 15 -36l-34 -129q-7 -24 -23.5 -31.5t-35.5 2.5l-264 144zM1080 885q16 0 23 -9.5t3 -23.5l-221 -826q-8 -26 -35 -26h-220q-16 0 -23.5 9.5t-2.5 23.5l17 68
q-133 -113 -283 -113q-144 0 -216 94.5t-30 252.5l87 326q13 50 17 83.5t2 58t-2 30.5q0 30 19 41t57 11h138q49 0 70.5 -37.5t8.5 -83.5l-105 -393q-16 -66 14 -100.5t90 -34.5t115 31.5t84 79.5l137 512q5 26 33 26h223z" />
    <glyph glyph-name="udieresis" unicode="&#xfc;" 
d="M496 1111q-53 0 -91.5 39.5t-38.5 92.5t38 89.5t92 36.5t92.5 -36.5t38.5 -89.5t-39 -92.5t-92 -39.5zM944 1111q-53 0 -90.5 39t-37.5 93t37 90t91 36t93 -36.5t39 -89.5t-39.5 -92.5t-92.5 -39.5zM1080 885q16 0 23 -9.5t3 -23.5l-221 -826q-8 -26 -35 -26h-220
q-16 0 -23.5 9.5t-2.5 23.5l17 68q-133 -113 -283 -113q-144 0 -216 94.5t-30 252.5l87 326q13 50 17 83.5t2 58t-2 30.5q0 30 19 41t57 11h138q49 0 70.5 -37.5t8.5 -83.5l-105 -393q-16 -66 14 -100.5t90 -34.5t115 31.5t84 79.5l137 512q5 26 33 26h223z" />
    <glyph glyph-name="yacute" unicode="&#xfd;" horiz-adv-x="1003" 
d="M970 1178q13 4 17 16.5t-6 30.5l-105 183q-13 23 -46 3l-342 -233q-8 -4 -11.5 -14t2.5 -22l76 -125q13 -23 44 -9zM68 -347q-18 0 -23.5 11t2.5 25l215 342l-113 823q-3 31 28 31h205q28 0 31 -28l61 -501h8l318 508q10 21 37 21h218q18 0 23 -11t-4 -25l-767 -1177
q-12 -19 -38 -19h-201z" />
    <glyph glyph-name="thorn" unicode="&#xfe;" horiz-adv-x="1138" 
d="M779 897q142 0 229 -93t87 -250q0 -141 -68 -272t-186.5 -213.5t-252.5 -82.5q-167 0 -267 122l-114 -429q-8 -26 -35 -26h-222q-15 0 -22 9t-3 24l384 1433q8 32 13 64t6 51.5t2 40.5t1 25q0 54 46 54h140q62 0 89 -40t10 -104l-109 -408q132 95 272 95zM555 226
q115 0 195 84t80 190q0 74 -39 116t-114 42q-114 0 -193.5 -85t-79.5 -191q0 -74 39 -115t112 -41z" />
    <glyph glyph-name="ydieresis" unicode="&#xff;" horiz-adv-x="1003" 
d="M491 1111q-53 0 -91.5 39.5t-38.5 92.5t38 89.5t92 36.5t92 -36.5t38 -89.5t-38.5 -92.5t-91.5 -39.5zM939 1111q-53 0 -90.5 39t-37.5 93t37 90t91 36t93 -36.5t39 -89.5t-39.5 -92.5t-92.5 -39.5zM68 -347q-18 0 -23.5 11t2.5 25l215 342l-113 823q-3 31 28 31h205
q28 0 31 -28l61 -501h8l318 508q10 21 37 21h218q18 0 23 -11t-4 -25l-767 -1177q-12 -19 -38 -19h-201z" />
    <glyph glyph-name="Amacron" unicode="&#x100;" horiz-adv-x="1449" 
d="M1376 1843q13 0 20 -8.5t3 -22.5l-45 -170q-4 -13 -14.5 -22t-23.5 -9h-568q-13 0 -20.5 8.5t-3.5 20.5l47 172q4 13 15 22t25 9h565zM1057 1326l243 -1291q5 -35 -26 -35h-219q-26 0 -31 30l-26 138h-639l-106 -147q-18 -21 -38 -21h-265q-18 0 -24.5 11t5.5 27
l939 1297q14 19 38 19h118q26 0 31 -28zM526 403h427l-90 473z" />
    <glyph glyph-name="amacron" unicode="&#x101;" horiz-adv-x="1100" 
d="M446 1107q-13 0 -19.5 8.5t-4.5 21.5l47 172q4 13 15 22t25 9h565q13 0 20 -8.5t3 -22.5l-45 -170q-4 -13 -15 -22.5t-23 -9.5h-568zM1095 885q16 0 23 -9.5t3 -23.5l-220 -826q-8 -26 -35 -26h-220q-16 0 -23.5 9.5t-2.5 23.5l17 64q-131 -111 -281 -111
q-141 0 -227.5 92t-86.5 248q0 106 41.5 210t110 183.5t164 128.5t197.5 49q181 0 256 -142l27 104q8 26 35 26h222zM309 375q0 -70 40.5 -109.5t115.5 -39.5q112 0 191.5 86t79.5 195q0 69 -41 110t-112 41q-115 0 -194.5 -86.5t-79.5 -196.5z" />
    <glyph glyph-name="Abreve" unicode="&#x102;" horiz-adv-x="1449" 
d="M1397 1857q36 0 19 -43q-46 -136 -150 -212t-237 -76q-143 0 -223.5 82.5t-52.5 205.5q12 43 40 43h122q9 0 13.5 -5.5t6 -11t2.5 -19.5q-5 -49 25 -79.5t90 -30.5t105.5 30t67.5 80q21 36 44 36h128zM1057 1326l243 -1291q5 -35 -26 -35h-219q-26 0 -31 30l-26 138h-639
l-106 -147q-18 -21 -38 -21h-265q-18 0 -24.5 11t5.5 27l939 1297q14 19 38 19h118q26 0 31 -28zM526 403h427l-90 473z" />
    <glyph glyph-name="abreve" unicode="&#x103;" horiz-adv-x="1100" 
d="M727 1022q-143 0 -223.5 82.5t-52.5 205.5q12 44 40 44h122q9 0 14 -5.5t6 -11.5t2 -20q-5 -49 25 -79t90 -30q61 0 106 29.5t67 79.5q21 37 44 37h128q36 0 19 -44q-46 -136 -150 -212t-237 -76zM1095 885q16 0 23 -9.5t3 -23.5l-220 -826q-8 -26 -35 -26h-220
q-16 0 -23.5 9.5t-2.5 23.5l17 64q-131 -111 -281 -111q-141 0 -227.5 92t-86.5 248q0 106 41.5 210t110 183.5t164 128.5t197.5 49q181 0 256 -142l27 104q8 26 35 26h222zM309 375q0 -70 40.5 -109.5t115.5 -39.5q112 0 191.5 86t79.5 195q0 69 -41 110t-112 41
q-115 0 -194.5 -86.5t-79.5 -196.5z" />
    <glyph glyph-name="Aogonek" unicode="&#x104;" horiz-adv-x="1449" 
d="M1300 35q5 -35 -26 -35h-96q-115 -5 -200.5 -62t-85.5 -136q0 -69 85 -69q46 0 108 26q20 7 31.5 -0.5t6.5 -24.5l-28 -102q-3 -21 -31 -36q-96 -58 -207 -58q-86 0 -137.5 39.5t-51.5 111.5q0 71 53.5 140t133.5 117.5t171 74.5q0 1 -1 4t-1 5l-26 138h-639l-106 -147
q-18 -21 -38 -21h-265q-18 0 -24.5 11t5.5 27l939 1297q14 19 38 19h118q26 0 31 -28zM526 403h427l-90 473z" />
    <glyph glyph-name="aogonek" unicode="&#x105;" horiz-adv-x="1100" 
d="M1095 885q16 0 23 -9.5t3 -23.5l-220 -826q-8 -26 -35 -26h-99q-115 -5 -200.5 -61.5t-85.5 -136.5q0 -69 85 -69q45 0 107 26q20 7 32 -0.5t7 -24.5l-28 -102q-6 -23 -31 -36q-96 -58 -207 -58q-87 0 -139 40t-52 111q0 106 110 199t253 133q0 9 2 12l17 64
q-131 -111 -281 -111q-141 0 -227.5 92t-86.5 248q0 106 41.5 210t110 183.5t164 128.5t197.5 49q181 0 256 -142l27 104q8 26 35 26h222zM309 375q0 -70 40.5 -109.5t115.5 -39.5q112 0 191.5 86t79.5 195q0 69 -41 110t-112 41q-115 0 -194.5 -86.5t-79.5 -196.5z" />
    <glyph glyph-name="Cacute" unicode="&#x106;" horiz-adv-x="1378" 
d="M1352 1647q13 4 16.5 17t-6.5 30l-104 182q-6 11 -20.5 11.5t-26.5 -7.5l-341 -233q-8 -4 -11.5 -14t2.5 -22l76 -125q13 -23 44 -9zM687 -12q-262 0 -415.5 145.5t-153.5 387.5q0 163 72 318.5t191 271t281.5 185.5t333.5 70q160 0 280.5 -64.5t177.5 -168.5
q10 -18 10.5 -27.5t-15.5 -22.5l-182 -116q-29 -17 -61 15q-97 101 -241 101q-102 0 -203 -42.5t-177.5 -111.5t-124 -164t-47.5 -194q0 -133 81 -216.5t228 -83.5q94 0 182 34t143 82q37 32 64 0l128 -163q21 -28 -12 -52q-248 -184 -540 -184z" />
    <glyph glyph-name="cacute" unicode="&#x107;" horiz-adv-x="918" 
d="M963 1178q13 4 17 16.5t-6 30.5l-103 183q-7 11 -21 11t-26 -8l-343 -233q-8 -4 -11 -14t4 -22l74 -125q13 -23 44 -9zM437 -14q-174 0 -283 99.5t-109 265.5q0 143 80.5 270t211 201.5t272.5 74.5q102 0 180 -38.5t117 -101.5q16 -28 12 -38q-4 -9 -14 -16l-140 -97
q-30 -20 -56 0q-54 54 -134 54q-112 0 -193.5 -82.5t-81.5 -183.5q0 -77 48.5 -122.5t128.5 -45.5q82 0 168 57q44 27 59 -7l66 -137q9 -16 6.5 -26.5t-20.5 -22.5q-145 -104 -318 -104z" />
    <glyph glyph-name="Cdotaccent" unicode="&#x10a;" horiz-adv-x="1378" 
d="M1097 1550q-60 0 -103 43t-43 103q0 58 43 100t103 42q59 0 100.5 -42t41.5 -100q0 -60 -42 -103t-100 -43zM687 -12q-262 0 -415.5 145.5t-153.5 387.5q0 163 72 318.5t191 271t281.5 185.5t333.5 70q160 0 280.5 -64.5t177.5 -168.5q10 -18 10.5 -27.5t-15.5 -22.5
l-182 -116q-29 -17 -61 15q-97 101 -241 101q-102 0 -203 -42.5t-177.5 -111.5t-124 -164t-47.5 -194q0 -133 81 -216.5t228 -83.5q94 0 182 34t143 82q37 32 64 0l128 -163q21 -28 -12 -52q-248 -184 -540 -184z" />
    <glyph glyph-name="cdotaccent" unicode="&#x10b;" horiz-adv-x="916" 
d="M708 1081q-60 0 -102 43t-42 103q0 59 42 100.5t102 41.5t102 -41.5t42 -100.5q0 -60 -42 -103t-102 -43zM437 -14q-174 0 -283 99.5t-109 265.5q0 143 80.5 270t211 201.5t272.5 74.5q102 0 180 -38.5t117 -101.5q16 -28 12 -38q-4 -9 -14 -16l-140 -97q-30 -20 -56 0
q-54 54 -134 54q-112 0 -193.5 -82.5t-81.5 -183.5q0 -77 48.5 -122.5t128.5 -45.5q82 0 168 57q44 27 59 -7l66 -137q9 -16 6.5 -26.5t-20.5 -22.5q-145 -104 -318 -104z" />
    <glyph glyph-name="Ccaron" unicode="&#x10c;" horiz-adv-x="1378" 
d="M1069 1515l358 184q26 13 29 31l37 134q6 24 -7.5 32t-36.5 -2l-342 -145l-264 145q-19 10 -35.5 2t-23.5 -32l-34 -128q-4 -23 15 -37l256 -184q20 -15 48 0zM687 -12q-262 0 -415.5 145.5t-153.5 387.5q0 163 72 318.5t191 271t281.5 185.5t333.5 70q160 0 280.5 -64.5
t177.5 -168.5q10 -18 10.5 -27.5t-15.5 -22.5l-182 -116q-29 -17 -61 15q-97 101 -241 101q-102 0 -203 -42.5t-177.5 -111.5t-124 -164t-47.5 -194q0 -133 81 -216.5t228 -83.5q94 0 182 34t143 82q37 32 64 0l128 -163q21 -28 -12 -52q-248 -184 -540 -184z" />
    <glyph glyph-name="ccaron" unicode="&#x10d;" horiz-adv-x="918" 
d="M682 1047l356 184q27 12 31 31l37 133q6 24 -7.5 32t-36.5 -2l-342 -144l-264 144q-19 10 -35.5 2t-23.5 -32l-34 -128q-6 -20 15 -36l255 -184q20 -15 49 0zM437 -14q-174 0 -283 99.5t-109 265.5q0 143 80.5 270t211 201.5t272.5 74.5q102 0 180 -38.5t117 -101.5
q16 -28 12 -38q-4 -9 -14 -16l-140 -97q-30 -20 -56 0q-54 54 -134 54q-112 0 -193.5 -82.5t-81.5 -183.5q0 -77 48.5 -122.5t128.5 -45.5q82 0 168 57q44 27 59 -7l66 -137q9 -16 6.5 -26.5t-20.5 -22.5q-145 -104 -318 -104z" />
    <glyph glyph-name="Dcaron" unicode="&#x10e;" horiz-adv-x="1452" 
d="M991 1480l358 184q26 13 29 32l37 133q6 24 -7.5 32t-36.5 -2l-342 -144l-264 144q-19 10 -35.5 2t-23.5 -32l-34 -128q-4 -23 15 -37l255 -184q20 -15 49 0zM42 0q-36 0 -28 35l345 1291q8 28 37 28h484q276 0 421 -144t145 -389q0 -167 -67 -319t-182.5 -262
t-277.5 -175t-343 -65h-534zM366 262h262q148 0 269.5 75t188 196t66.5 260q0 144 -78 221.5t-239 77.5h-248z" />
    <glyph glyph-name="dcaron" unicode="&#x10f;" horiz-adv-x="1293" 
d="M1460 1394q64 0 107.5 -43t43.5 -117q0 -108 -90 -225.5t-209 -187.5q-19 -8 -24.5 -4.5t-13.5 18.5l-19 31q-10 18 14 35q122 82 168 172q-10 -6 -31 -6q-51 0 -92.5 43t-41.5 103q0 74 57 127.5t131 53.5zM1119 1354q58 0 86.5 -39.5t11.5 -104.5l-316 -1184
q-8 -26 -35 -26h-220q-16 0 -23.5 9.5t-2.5 23.5l17 64q-131 -111 -281 -111q-141 0 -227.5 92t-86.5 248q0 106 41.5 210t110 183.5t164 128.5t197.5 49q181 0 257 -144l97 366q8 32 13.5 64.5t7 50.5t3 41t1.5 25q0 54 43 54h142zM309 380q0 -72 41.5 -113t118.5 -41
q111 0 188 84t77 192q0 72 -42 114t-114 42q-112 0 -190.5 -85t-78.5 -193z" />
    <glyph glyph-name="Dcroat" unicode="&#x110;" horiz-adv-x="1411" 
d="M838 1354q276 0 421 -144t145 -389q0 -167 -67 -318.5t-181.5 -262t-276.5 -175.5t-343 -65h-536q-16 0 -23.5 10t-2.5 25l135 505h-116q-16 0 -23 9.5t-3 23.5l54 205q5 24 35 24h123l140 524q8 28 37 28h482zM588 262q147 0 268.5 74.5t189 196.5t67.5 260
q0 144 -79.5 221.5t-240.5 77.5h-246l-78 -290h123q16 0 23 -9.5t3 -23.5l-54 -203q-8 -26 -35 -26h-130l-74 -278h263z" />
    <glyph glyph-name="dcroat" unicode="&#x111;" horiz-adv-x="1100" 
d="M1277 1180q13 0 22.5 -8.5t9.5 -22.5v-128q0 -13 -9.5 -22.5t-22.5 -9.5h-119l-257 -963q-8 -26 -35 -26h-220q-16 0 -23.5 9.5t-2.5 23.5l17 64q-131 -111 -281 -111q-141 0 -227.5 92t-86.5 248q0 106 41.5 210t110 183.5t164 128.5t197.5 49q181 0 257 -144l63 236
h-176q-13 0 -22 9.5t-9 22.5v128q0 13 8.5 22t22.5 9h224q4 26 6.5 51t3 44.5t1.5 24.5q0 54 43 54h142q58 0 86.5 -39.5t11.5 -104.5l-9 -30h69zM309 380q0 -72 41.5 -113t118.5 -41q111 0 188 84t77 192q0 72 -42 114t-114 42q-112 0 -190.5 -85t-78.5 -193z" />
    <glyph glyph-name="Emacron" unicode="&#x112;" horiz-adv-x="1084" 
d="M1264 1808q13 0 19.5 -8.5t2.5 -22.5l-45 -170q-4 -13 -14.5 -22t-23.5 -9h-568q-13 0 -20.5 8.5t-3.5 20.5l47 172q4 13 15 22t25 9h566zM1225 1354q36 0 28 -35l-55 -201q-5 -26 -35 -26h-575l-74 -276h423q16 0 23.5 -9.5t2.5 -23.5l-54 -202q-7 -26 -34 -26h-431
l-80 -293h592q16 0 23.5 -10t2.5 -25l-57 -201q-7 -26 -35 -26h-850q-16 0 -23 9.5t-3 25.5l345 1293q8 26 37 26h829z" />
    <glyph glyph-name="emacron" unicode="&#x113;" horiz-adv-x="992" 
d="M1024 1340q13 0 20 -8.5t3 -22.5l-46 -170q-4 -13 -15 -22.5t-23 -9.5h-567q-13 0 -21 9t-4 21l47 172q2 13 13.5 22t24.5 9h568zM602 897q176 0 269.5 -102t84.5 -253q-2 -96 -56 -150t-159 -54h-429q30 -128 181 -128q103 0 194 54q43 17 61 -21l45 -92q15 -29 -15 -52
q-141 -113 -341 -113q-179 0 -285.5 95.5t-106.5 263.5q0 142 73.5 269t203 205t280.5 78zM568 666q-71 0 -131.5 -37.5t-94.5 -100.5h366q-2 63 -37 100.5t-103 37.5z" />
    <glyph glyph-name="Edotaccent" unicode="&#x116;" horiz-adv-x="1084" 
d="M953 1550q-60 0 -103 43t-43 103q0 58 43 100t103 42q59 0 100.5 -42t41.5 -100q0 -60 -42 -103t-100 -43zM1225 1354q36 0 28 -35l-55 -201q-5 -26 -35 -26h-575l-74 -276h423q16 0 23.5 -9.5t2.5 -23.5l-54 -202q-7 -26 -34 -26h-431l-80 -293h592q16 0 23.5 -10
t2.5 -25l-57 -201q-7 -26 -35 -26h-850q-16 0 -23 9.5t-3 25.5l345 1293q8 26 37 26h829z" />
    <glyph glyph-name="edotaccent" unicode="&#x117;" horiz-adv-x="992" 
d="M712 1081q-60 0 -102 43t-42 103q0 59 42 100.5t102 41.5t102 -41.5t42 -100.5q0 -60 -42 -103t-102 -43zM602 897q176 0 269.5 -102t84.5 -253q-2 -96 -56 -150t-159 -54h-429q30 -128 181 -128q103 0 194 54q43 17 61 -21l45 -92q15 -29 -15 -52q-141 -113 -341 -113
q-179 0 -285.5 95.5t-106.5 263.5q0 142 73.5 269t203 205t280.5 78zM568 666q-71 0 -131.5 -37.5t-94.5 -100.5h366q-2 63 -37 100.5t-103 37.5z" />
    <glyph glyph-name="Eogonek" unicode="&#x118;" horiz-adv-x="1084" 
d="M1225 1354q36 0 28 -35l-55 -201q-5 -26 -35 -26h-575l-74 -276h423q16 0 23.5 -9.5t2.5 -23.5l-54 -202q-7 -26 -34 -26h-431l-80 -293h592q16 0 23.5 -10t2.5 -25l-57 -201q-7 -26 -35 -26h-3q-115 -5 -200.5 -62t-85.5 -136q0 -69 85 -69q45 0 107 26q20 7 31.5 -0.5
t6.5 -24.5l-27 -102q-3 -21 -32 -36q-96 -58 -206 -58q-86 0 -137.5 39.5t-51.5 111.5q0 94 86 178t212 133h-635q-16 0 -23 9.5t-3 25.5l345 1293q8 26 37 26h829z" />
    <glyph glyph-name="eogonek" unicode="&#x119;" horiz-adv-x="1046" 
d="M602 897q176 0 269.5 -102t84.5 -253q-2 -96 -56 -150t-159 -54h-429q30 -128 181 -128q103 0 194 54q43 17 61 -21l45 -92q15 -29 -15 -52q-54 -42 -106 -64l67 -2q-108 -54 -162.5 -99.5t-54.5 -103.5q0 -45 28.5 -71t79.5 -26q40 0 99 24q18 8 31.5 1t13.5 -24v-102
q0 -23 -22 -36q-81 -58 -190 -58q-103 0 -169.5 54t-66.5 141q0 73 50 139.5t136 118.5q-40 -5 -75 -5q-179 0 -285.5 95.5t-106.5 263.5q0 142 73.5 269t203 205t280.5 78zM568 666q-71 0 -131.5 -37.5t-94.5 -100.5h366q-2 63 -37 100.5t-103 37.5z" />
    <glyph glyph-name="Ecaron" unicode="&#x11a;" horiz-adv-x="1084" 
d="M1307 1894q23 10 36.5 2t6.5 -32l-36 -134q-2 -17 -30 -31l-357 -184q-29 -15 -49 0l-255 184q-20 15 -16 37l35 128q7 24 23.5 32t35.5 -2l264 -145zM1225 1354q36 0 28 -35l-55 -201q-5 -26 -35 -26h-575l-74 -276h423q16 0 23.5 -9.5t2.5 -23.5l-54 -202
q-7 -26 -34 -26h-431l-80 -293h592q16 0 23.5 -10t2.5 -25l-57 -201q-7 -26 -35 -26h-850q-16 0 -23 9.5t-3 25.5l345 1293q8 26 37 26h829z" />
    <glyph glyph-name="ecaron" unicode="&#x11b;" horiz-adv-x="992" 
d="M1066 1425q23 10 36.5 2t6.5 -32l-36 -133q-4 -18 -30 -31l-357 -184q-29 -15 -49 0l-255 184q-20 15 -16 36l35 128q7 24 23.5 32t35.5 -2l264 -144zM602 897q176 0 269.5 -102t84.5 -253q-2 -96 -56 -150t-159 -54h-429q30 -128 181 -128q103 0 194 54q43 17 61 -21
l45 -92q15 -29 -15 -52q-141 -113 -341 -113q-179 0 -285.5 95.5t-106.5 263.5q0 142 73.5 269t203 205t280.5 78zM568 666q-71 0 -131.5 -37.5t-94.5 -100.5h366q-2 63 -37 100.5t-103 37.5z" />
    <glyph glyph-name="Gbreve" unicode="&#x11e;" horiz-adv-x="1416" 
d="M1043 1468q-143 0 -223.5 82.5t-52.5 205.5q12 44 40 44h122q9 0 14 -5.5t6 -11.5t2 -20q-5 -49 25 -79t90 -30q61 0 106 29.5t67 79.5q21 37 44 37h128q36 0 19 -44q-46 -136 -150 -212t-237 -76zM1454 1133q10 -18 10.5 -27.5t-15.5 -22.5l-182 -116q-29 -17 -61 15
q-97 101 -241 101q-102 0 -203 -42.5t-177.5 -111.5t-124 -164t-47.5 -194q0 -133 81 -216.5t230 -83.5q87 0 173.5 30.5t154.5 80.5l40 146h-254q-16 0 -23.5 9.5t-2.5 23.5l52 192q5 26 35 26h476q34 0 26 -34l-144 -535q-256 -222 -578 -222q-256 0 -408.5 146
t-152.5 387q0 163 72 318.5t191 271t281.5 185.5t333.5 70q160 0 280.5 -64.5t177.5 -168.5z" />
    <glyph glyph-name="gbreve" unicode="&#x11f;" horiz-adv-x="1001" 
d="M684 1008q-143 0 -223.5 83t-50.5 204q8 45 40 45h121q21 0 21 -37q-4 -49 26 -79t90 -30t105.5 29.5t68.5 79.5q21 37 43 37h129q33 0 19 -45q-46 -135 -151 -211t-238 -76zM1097 885q16 0 22.5 -9.5t1.5 -23.5l-225 -840q-28 -106 -83.5 -185.5t-128 -125.5t-152 -68
t-166.5 -22q-235 0 -375 108q-22 14 -8 40l93 135q14 19 37 11q110 -61 243 -61q101 0 171 52.5t98 155.5l12 45q-131 -111 -281 -111q-141 0 -227.5 92t-86.5 248q0 106 41.5 210t110 183.5t164 128.5t197.5 49q181 0 257 -144l28 106q8 26 35 26h222zM309 380
q0 -72 41.5 -113t118.5 -41q111 0 188 84t77 192q0 72 -42 114t-114 42q-112 0 -190.5 -85t-78.5 -193z" />
    <glyph glyph-name="Gdotaccent" unicode="&#x120;" horiz-adv-x="1416" 
d="M1080 1527q-60 0 -103 43t-43 103q0 58 43 100t103 42q58 0 100 -41.5t42 -100.5q0 -60 -42 -103t-100 -43zM1454 1133q10 -18 10.5 -27.5t-15.5 -22.5l-182 -116q-29 -17 -61 15q-97 101 -241 101q-102 0 -203 -42.5t-177.5 -111.5t-124 -164t-47.5 -194
q0 -133 81 -216.5t230 -83.5q87 0 173.5 30.5t154.5 80.5l40 146h-254q-16 0 -23.5 9.5t-2.5 23.5l52 192q5 26 35 26h476q34 0 26 -34l-144 -535q-256 -222 -578 -222q-256 0 -408.5 146t-152.5 387q0 163 72 318.5t191 271t281.5 185.5t333.5 70q160 0 280.5 -64.5
t177.5 -168.5z" />
    <glyph glyph-name="gdotaccent" unicode="&#x121;" horiz-adv-x="1001" 
d="M720 1067q-60 0 -102 43t-42 103q0 59 42 100.5t102 41.5t102 -41.5t42 -100.5q0 -60 -42 -103t-102 -43zM1097 885q16 0 22.5 -9.5t1.5 -23.5l-225 -840q-28 -106 -83.5 -185.5t-128 -125.5t-152 -68t-166.5 -22q-235 0 -375 108q-22 14 -8 40l93 135q14 19 37 11
q110 -61 243 -61q101 0 171 52.5t98 155.5l12 45q-131 -111 -281 -111q-141 0 -227.5 92t-86.5 248q0 106 41.5 210t110 183.5t164 128.5t197.5 49q181 0 257 -144l28 106q8 26 35 26h222zM309 380q0 -72 41.5 -113t118.5 -41q111 0 188 84t77 192q0 72 -42 114t-114 42
q-112 0 -190.5 -85t-78.5 -193z" />
    <glyph glyph-name="uni0122" unicode="&#x122;" horiz-adv-x="1416" 
d="M1454 1133q10 -18 10.5 -27.5t-15.5 -22.5l-182 -116q-29 -17 -61 15q-97 101 -241 101q-102 0 -203 -42.5t-177.5 -111.5t-124 -164t-47.5 -194q0 -133 81 -216.5t230 -83.5q87 0 173.5 30.5t154.5 80.5l40 146h-254q-16 0 -23.5 9.5t-2.5 23.5l52 192q5 26 35 26h476
q34 0 26 -34l-144 -535q-256 -222 -578 -222q-256 0 -408.5 146t-152.5 387q0 163 72 318.5t191 271t281.5 185.5t333.5 70q160 0 280.5 -64.5t177.5 -168.5zM609 -153q65 0 108 -42.5t43 -115.5q0 -108 -90 -226.5t-208 -186.5q-19 -8 -25 -5t-14 17l-19 33q-10 18 14 35
q123 83 169 170q-8 -3 -30 -3q-52 0 -93 42.5t-41 103.5q0 74 56 126t130 52z" />
    <glyph glyph-name="uni0123" unicode="&#x123;" horiz-adv-x="1001" 
d="M573 996q-65 0 -108 43t-43 117q0 108 89.5 225.5t208.5 187.5q19 8 24.5 4.5t13.5 -18.5l20 -31q12 -22 -14 -35q-123 -83 -169 -172q10 6 32 6q51 0 92 -43t41 -103q0 -75 -56.5 -128t-130.5 -53zM1097 885q16 0 22.5 -9.5t1.5 -23.5l-225 -840q-28 -106 -83.5 -185.5
t-128 -125.5t-152 -68t-166.5 -22q-235 0 -375 108q-22 14 -8 40l93 135q14 19 37 11q110 -61 243 -61q101 0 171 52.5t98 155.5l12 45q-131 -111 -281 -111q-141 0 -227.5 92t-86.5 248q0 106 41.5 210t110 183.5t164 128.5t197.5 49q181 0 257 -144l28 106q8 26 35 26h222
zM309 380q0 -72 41.5 -113t118.5 -41q111 0 188 84t77 192q0 72 -42 114t-114 42q-112 0 -190.5 -85t-78.5 -193z" />
    <glyph glyph-name="Hbar" unicode="&#x126;" horiz-adv-x="1430" 
d="M1515 1354q16 0 23 -9.5t3 -25.5l-345 -1293q-8 -26 -37 -26h-227q-16 0 -23 9.5t-3 25.5l139 520h-601l-140 -529q-8 -26 -37 -26h-227q-16 0 -23 9.5t-3 25.5l345 1293q8 26 37 26h227q16 0 23.5 -10t2.5 -25l-43 -161h600l45 170q8 26 37 26h227zM515 816h599l30 107
h-601z" />
    <glyph glyph-name="hbar" unicode="&#x127;" horiz-adv-x="1110" 
d="M772 896q143 0 215.5 -95t31.5 -253l-87 -326q-13 -49 -16.5 -83.5t-1.5 -58t1 -30.5q0 -30 -19 -41t-56 -11h-139q-49 0 -70.5 38t-7.5 85l104 391q17 66 -12 101.5t-88 35.5q-65 0 -124.5 -36.5t-84.5 -88.5l-133 -498q-8 -26 -35 -26h-220q-16 0 -23.5 9.5t-3.5 23.5
l257 963h-66q-13 0 -23 9t-10 21v142q0 14 9.5 23.5t23.5 9.5h117q4 29 5.5 62.5t1.5 36.5q0 54 43 54h142q59 0 87.5 -39.5t10.5 -104.5l-2 -9h85q13 0 21 -8.5t8 -22.5v-143q0 -13 -8 -22t-21 -9h-141l-57 -215q135 115 286 115z" />
    <glyph glyph-name="Imacron" unicode="&#x12a;" horiz-adv-x="538" 
d="M312 1777q4 13 15 22t25 9h566q13 0 20 -8.5t3 -22.5l-45 -170q-4 -13 -15 -22t-24 -9h-567q-13 0 -20.5 8.5t-3.5 20.5zM40 0q-16 0 -23 9.5t-3 25.5l345 1293q8 26 37 26h227q16 0 23.5 -10t2.5 -25l-345 -1293q-8 -26 -37 -26h-227z" />
    <glyph glyph-name="imacron" unicode="&#x12b;" horiz-adv-x="496" 
d="M167 1309q4 13 15 22t25 9h565q13 0 20 -8.5t3 -22.5l-45 -170q-4 -13 -15 -22.5t-23 -9.5h-568q-13 0 -19.5 8.5t-4.5 21.5zM24 0q-16 0 -23.5 9.5t-2.5 23.5l219 826q8 26 35 26h222q16 0 23 -9.5t3 -23.5l-221 -826q-8 -26 -34 -26h-221z" />
    <glyph glyph-name="Iogonek" unicode="&#x12e;" horiz-adv-x="538" 
d="M623 1354q16 0 23.5 -10t2.5 -25l-345 -1293q-8 -26 -37 -26h-15q-115 -5 -201 -62t-86 -136q0 -69 85 -69q46 0 108 26q20 7 31.5 -0.5t6.5 -24.5l-28 -102q-3 -21 -31 -36q-96 -58 -206 -58q-86 0 -138 40t-52 111q0 94 86.5 178t212.5 133q-16 0 -23 9.5t-3 25.5
l345 1293q8 26 37 26h227z" />
    <glyph glyph-name="iogonek" unicode="&#x12f;" horiz-adv-x="496" 
d="M462 1369q59 0 101.5 -42t42.5 -100q0 -60 -42.5 -103t-101.5 -43q-60 0 -103 43t-43 103q0 58 43 100t103 42zM474 885q16 0 23 -9.5t3 -23.5l-221 -826q-8 -26 -34 -26q-115 -5 -201 -62t-86 -136q0 -69 87 -69q44 0 108 26q20 7 30.5 -0.5t5.5 -24.5l-28 -102
q-3 -21 -31 -36q-96 -58 -205 -58q-88 0 -139.5 39.5t-51.5 111.5q0 94 86.5 178t212.5 133h-9q-16 0 -23.5 9.5t-2.5 23.5l219 826q8 26 35 26h222z" />
    <glyph glyph-name="Idotaccent" unicode="&#x130;" horiz-adv-x="538" 
d="M571 1560q-60 0 -103 42t-43 102q0 59 43 101.5t103 42.5q59 0 101.5 -43t42.5 -101q0 -60 -42.5 -102t-101.5 -42zM40 0q-16 0 -23 9.5t-3 25.5l345 1293q8 26 37 26h227q16 0 23.5 -10t2.5 -25l-345 -1293q-8 -26 -37 -26h-227z" />
    <glyph glyph-name="dotlessi" unicode="&#x131;" horiz-adv-x="496" 
d="M24 0q-16 0 -23.5 9.5t-2.5 23.5l219 826q8 26 35 26h222q16 0 23 -9.5t3 -23.5l-221 -826q-8 -26 -34 -26h-221z" />
    <glyph glyph-name="IJ" unicode="&#x132;" horiz-adv-x="1103" 
d="M40 0q-16 0 -23 9.5t-3 25.5l345 1293q8 26 37 26h227q16 0 23.5 -10t2.5 -25l-345 -1293q-8 -26 -37 -26h-227zM1211 1354q16 0 23 -9.5t3 -25.5l-404 -1506q-44 -163 -143.5 -266.5t-236.5 -147.5q-45 -14 -54 25l-59 224q-3 15 3.5 26.5t22.5 11.5q73 6 121.5 53
t66.5 115l394 1474q8 26 36 26h227z" />
    <glyph glyph-name="ij" unicode="&#x133;" horiz-adv-x="992" 
d="M467 1100q-61 0 -102.5 41t-41.5 103q0 60 41.5 101.5t102.5 41.5q59 0 100.5 -41.5t41.5 -101.5q0 -61 -41.5 -102.5t-100.5 -41.5zM962 1100q-62 0 -103.5 41.5t-41.5 102.5q0 60 42 101.5t103 41.5q59 0 100.5 -41.5t41.5 -101.5q0 -61 -41.5 -102.5t-100.5 -41.5z
M19 0q-16 0 -23.5 9.5t-2.5 23.5l220 826q5 26 33 26h223q16 0 23 -9.5t3 -23.5l-221 -826q-8 -26 -34 -26h-221zM441 -397q-19 -7 -34 0.5t-20 25.5l-56 217q-10 41 27 53q117 42 142 139l220 821q5 26 33 26h222q31 0 26 -33l-225 -840q-45 -169 -119 -261t-216 -148z" />
    <glyph glyph-name="uni0136" unicode="&#x136;" horiz-adv-x="1334" 
d="M1463 1354q21 0 26 -12.5t-12 -25.5l-752 -637l443 -643q12 -14 5.5 -25t-24.5 -11h-273q-24 0 -36 19l-385 569l-151 -562q-8 -26 -37 -26h-227q-16 0 -23 9.5t-3 25.5l345 1293q8 26 37 26h227q16 0 23.5 -10t2.5 -25l-142 -536l632 555q16 16 38 16h286zM482 -153
q65 0 108 -42.5t43 -115.5q0 -108 -90 -226.5t-208 -186.5q-19 -8 -24.5 -5t-13.5 17l-19 33q-10 18 14 35q121 82 168 170q-8 -3 -30 -3q-52 0 -92.5 42.5t-40.5 103.5q0 74 55.5 126t129.5 52z" />
    <glyph glyph-name="uni0137" unicode="&#x137;" horiz-adv-x="1086" 
d="M1093 885q21 0 25.5 -11.5t-11.5 -24.5l-474 -389l297 -424q9 -14 4 -24t-23 -10l-264 -2q-22 0 -36 19l-226 330l-86 -323q-5 -26 -33 -26h-223q-16 0 -23 9.5t-3 23.5l290 1086q8 32 13.5 64.5t7 51t2.5 40.5t1 25q0 54 46 54h140q60 0 88 -39t11 -105l-168 -625
l345 286q14 14 37 14h263zM446 -153q65 0 109 -42.5t44 -115.5q0 -108 -90.5 -226.5t-208.5 -186.5q-19 -8 -24.5 -5.5t-13.5 17.5l-19 33q-12 20 14 35q116 79 168 170q-10 -3 -31 -3q-51 0 -92.5 43t-41.5 103q0 74 56.5 126t129.5 52z" />
    <glyph glyph-name="Lacute" unicode="&#x139;" horiz-adv-x="1053" 
d="M863 1647q13 4 16.5 17t-6.5 30l-104 182q-6 11 -20.5 11.5t-26.5 -7.5l-342 -233q-8 -4 -11.5 -14t2.5 -22l77 -125q13 -22 43 -9zM889 262q16 0 23.5 -10t2.5 -25l-52 -201q-8 -26 -37 -26h-784q-16 0 -23 9.5t-3 25.5l343 1293q8 26 37 26h227q16 0 23.5 -10t2.5 -25
l-283 -1057h523z" />
    <glyph glyph-name="lacute" unicode="&#x13a;" horiz-adv-x="524" 
d="M868 1647q11 4 14.5 16.5t-4.5 30.5l-104 182q-6 11 -20.5 11.5t-26.5 -7.5l-343 -233q-8 -4 -10.5 -14t3.5 -22l74 -125q14 -23 44 -9zM43 0q-16 0 -23 9.5t-3 23.5l290 1086q8 32 13.5 64.5t7 51t2.5 40.5t1 25q0 54 46 54h140q60 0 88 -39t11 -105l-317 -1184
q-5 -26 -33 -26h-223z" />
    <glyph glyph-name="uni013B" unicode="&#x13b;" horiz-adv-x="1053" 
d="M889 262q16 0 23.5 -10t2.5 -25l-52 -201q-8 -26 -37 -26h-784q-16 0 -23 9.5t-3 25.5l343 1293q8 26 37 26h227q16 0 23.5 -10t2.5 -25l-283 -1057h523zM231 -724q-19 -8 -24.5 -5t-13.5 17l-19 33q-10 19 13 35q123 83 169 170q-8 -3 -30 -3q-52 0 -92.5 42.5
t-40.5 103.5q0 74 55.5 126t129.5 52q65 0 108 -42.5t43 -115.5q0 -108 -90 -226.5t-208 -186.5z" />
    <glyph glyph-name="uni013C" unicode="&#x13c;" horiz-adv-x="524" 
d="M43 0q-16 0 -23 9.5t-3 23.5l290 1086q8 32 13.5 64.5t7 51t2.5 40.5t1 25q0 54 46 54h140q60 0 88 -39t11 -105l-317 -1184q-5 -26 -33 -26h-223zM-45 -724q-19 -8 -24.5 -5t-13.5 17l-19 33q-10 19 13 35q123 83 169 170q-8 -3 -30 -3q-52 0 -92.5 42.5t-40.5 103.5
q0 74 55.5 126t129.5 52q65 0 108 -42.5t43 -115.5q0 -108 -90 -226.5t-208 -186.5z" />
    <glyph glyph-name="Lcaron" unicode="&#x13d;" horiz-adv-x="1053" 
d="M750 797q-20 -6 -25.5 -3.5t-14.5 17.5l-19 32q-10 18 14 35q118 75 170 170q-7 -3 -32 -3q-53 0 -93 41.5t-40 102.5q0 75 56 127.5t130 52.5q65 0 108 -42.5t43 -115.5q0 -108 -89.5 -226.5t-207.5 -187.5zM889 262q16 0 23.5 -10t2.5 -25l-52 -201q-8 -26 -37 -26
h-784q-16 0 -23 9.5t-3 25.5l343 1293q8 26 37 26h227q16 0 23.5 -10t2.5 -25l-283 -1057h523z" />
    <glyph glyph-name="lcaron" unicode="&#x13e;" horiz-adv-x="758" 
d="M717 798q-20 -6 -25.5 -3.5t-14.5 17.5l-17 33q-12 19 12 35q118 75 170 170q-7 -3 -31 -3q-52 0 -93 42t-41 102q0 75 56 127.5t130 52.5q65 0 108.5 -42.5t43.5 -115.5q0 -108 -90 -227t-208 -188zM43 0q-16 0 -23 9.5t-3 23.5l290 1086q8 32 13.5 64.5t7 51t2.5 40.5
t1 25q0 54 46 54h140q60 0 88 -39t11 -105l-317 -1184q-5 -26 -33 -26h-223z" />
    <glyph glyph-name="Ldot" unicode="&#x13f;" horiz-adv-x="1053" 
d="M889 262q16 0 23.5 -10t2.5 -25l-52 -201q-8 -26 -37 -26h-784q-16 0 -23 9.5t-3 25.5l343 1293q8 26 37 26h227q16 0 23.5 -10t2.5 -25l-283 -1057h523zM817 515q-73 0 -125.5 53.5t-52.5 127.5q0 73 52.5 125t125.5 52t127 -52.5t54 -124.5q0 -74 -54 -127.5
t-127 -53.5z" />
    <glyph glyph-name="ldot" unicode="&#x140;" horiz-adv-x="683" 
d="M43 0q-16 0 -23 9.5t-3 23.5l290 1086q8 32 13.5 64.5t7 51t2.5 40.5t1 25q0 54 46 54h140q60 0 88 -39t11 -105l-317 -1184q-5 -26 -33 -26h-223zM666 517q-73 0 -125 53t-52 126t52 124t125 51t126 -51.5t53 -123.5q0 -73 -53 -126t-126 -53z" />
    <glyph glyph-name="Lslash" unicode="&#x141;" horiz-adv-x="1083" 
d="M918 262q17 0 24 -9.5t2 -25.5l-52 -201q-8 -26 -36 -26h-785q-16 0 -23 9.5t-3 25.5l111 415l-33 -16q-12 -5 -24 -1t-17 15l-96 212q-11 28 17 43l252 116l136 509q5 26 34 26h228q16 0 23.5 -10t2.5 -25l-92 -347l66 31q29 9 40 -15l91 -212q12 -28 -13 -42l-283 -132
l-92 -340h522z" />
    <glyph glyph-name="lslash" unicode="&#x142;" horiz-adv-x="562" 
d="M660 837q11 -18 6.5 -33.5t-20.5 -24.5l-144 -80l-181 -673q-8 -26 -35 -26h-222q-15 0 -22 9.5t-2 23.5l130 486l-49 -26q-34 -20 -59 17l-26 42q-23 35 20 57l161 89l113 421q22 84 22 181q3 54 45 54h143q58 0 86 -39.5t11 -104.5l-89 -330l28 16q37 16 57 -16z" />
    <glyph glyph-name="Nacute" unicode="&#x143;" horiz-adv-x="1456" 
d="M1321 1647q13 4 16.5 17t-6.5 30l-104 182q-6 11 -20.5 11.5t-26.5 -7.5l-342 -233q-8 -4 -11 -14t3 -22l76 -125q13 -22 43 -9zM40 0q-16 0 -23 9.5t-3 25.5l345 1293q8 26 37 26h222q28 0 38 -23l387 -868l234 865q8 26 37 26h227q16 0 23 -9.5t3 -25.5l-347 -1293
q-5 -26 -35 -26h-218q-27 0 -35 24l-394 866l-234 -864q-8 -26 -37 -26h-227z" />
    <glyph glyph-name="nacute" unicode="&#x144;" 
d="M587 1017l-75 125q-6 12 -3.5 22t10.5 14l344 233q32 20 46 -3l105 -183q8 -18 4 -30.5t-15 -16.5l-373 -170q-29 -13 -43 9zM757 897q144 0 216.5 -94.5t29.5 -252.5l-87 -326q-13 -49 -16.5 -83.5t-1.5 -58t1 -30.5q0 -30 -19 -41t-56 -11h-137q-49 0 -71 37.5t-9 83.5
l105 393q17 66 -13 100.5t-90 34.5q-61 0 -115.5 -31t-83.5 -78l-138 -514q-8 -26 -34 -26h-221q-16 0 -23.5 9.5t-2.5 23.5l219 826q8 26 35 26h222q16 0 23 -9.5t3 -23.5l-17 -66q133 111 281 111z" />
    <glyph glyph-name="uni0145" unicode="&#x145;" horiz-adv-x="1456" 
d="M40 0q-16 0 -23 9.5t-3 25.5l345 1293q8 26 37 26h222q28 0 38 -23l387 -868l234 865q8 26 37 26h227q16 0 23 -9.5t3 -25.5l-347 -1293q-5 -26 -35 -26h-218q-27 0 -35 24l-394 866l-234 -864q-8 -26 -37 -26h-227zM403 -724q-19 -8 -25 -5t-14 17l-19 33q-10 18 14 35
q123 83 169 170q-7 -3 -30 -3q-52 0 -93 42.5t-41 103.5q0 74 56 126t130 52q65 0 108 -42.5t43 -115.5q0 -108 -90 -226.5t-208 -186.5z" />
    <glyph glyph-name="uni0146" unicode="&#x146;" 
d="M757 897q144 0 216.5 -94.5t29.5 -252.5l-87 -326q-13 -49 -16.5 -83.5t-1.5 -58t1 -30.5q0 -30 -19 -41t-56 -11h-137q-49 0 -71 37.5t-9 83.5l105 393q17 66 -13 100.5t-90 34.5q-61 0 -115.5 -31t-83.5 -78l-138 -514q-8 -26 -34 -26h-221q-16 0 -23.5 9.5t-2.5 23.5
l219 826q8 26 35 26h222q16 0 23 -9.5t3 -23.5l-17 -66q133 111 281 111zM364 -153q65 0 109 -42.5t44 -115.5q0 -108 -90 -226.5t-208 -186.5q-19 -8 -24.5 -5.5t-13.5 17.5l-20 33q-12 20 14 35q118 80 169 170q-11 -3 -32 -3q-52 0 -92.5 42.5t-40.5 103.5q0 74 56 126
t129 52z" />
    <glyph glyph-name="Ncaron" unicode="&#x147;" horiz-adv-x="1456" 
d="M1040 1515l357 184q28 14 30 31l36 134q7 24 -6.5 32t-36.5 -2l-342 -145l-264 145q-19 10 -35.5 2t-23.5 -32l-35 -128q-4 -22 16 -37l255 -184q20 -15 49 0zM40 0q-16 0 -23 9.5t-3 25.5l345 1293q8 26 37 26h222q28 0 38 -23l387 -868l234 865q8 26 37 26h227
q16 0 23 -9.5t3 -25.5l-347 -1293q-5 -26 -35 -26h-218q-27 0 -35 24l-394 866l-234 -864q-8 -26 -37 -26h-227z" />
    <glyph glyph-name="ncaron" unicode="&#x148;" 
d="M1100 1425q23 10 36.5 2t7.5 -32l-37 -133q-3 -18 -29 -31l-356 -184q-31 -15 -50 0l-255 184q-20 15 -16 36l35 128q7 24 23.5 32t35.5 -2l263 -144zM757 897q144 0 216.5 -94.5t29.5 -252.5l-87 -326q-13 -49 -16.5 -83.5t-1.5 -58t1 -30.5q0 -30 -19 -41t-56 -11h-137
q-49 0 -71 37.5t-9 83.5l105 393q17 66 -13 100.5t-90 34.5q-61 0 -115.5 -31t-83.5 -78l-138 -514q-8 -26 -34 -26h-221q-16 0 -23.5 9.5t-2.5 23.5l219 826q8 26 35 26h222q16 0 23 -9.5t3 -23.5l-17 -66q133 111 281 111z" />
    <glyph glyph-name="Eng" unicode="&#x14a;" horiz-adv-x="1456" 
d="M1541 1354q16 0 23 -9.5t3 -25.5l-347 -1293q-3 -12 -10 -19l-52 -194q-44 -163 -143.5 -266.5t-235.5 -147.5q-46 -14 -55 25l-58 224q-4 14 2 26t23 12q74 6 122 52.5t67 115.5l49 179l-391 857l-234 -864q-8 -26 -37 -26h-227q-16 0 -23 9.5t-3 25.5l345 1293
q8 26 37 26h222q28 0 38 -23l387 -868l231 865q5 26 35 26h232z" />
    <glyph glyph-name="eng" unicode="&#x14b;" horiz-adv-x="1074" 
d="M757 897q144 0 216.5 -94.5t29.5 -252.5l-168 -632q-45 -170 -118.5 -262t-214.5 -147q-21 -7 -35.5 0.5t-18.5 25.5l-57 219q-10 40 26 52q119 42 144 140l151 568q17 66 -13 100.5t-90 34.5q-61 0 -115.5 -31t-83.5 -78l-138 -514q-8 -26 -34 -26h-221q-16 0 -23.5 9.5
t-2.5 23.5l219 826q8 26 35 26h222q16 0 23 -9.5t3 -23.5l-17 -66q133 111 281 111z" />
    <glyph glyph-name="Omacron" unicode="&#x14c;" horiz-adv-x="1542" 
d="M816 1777q4 13 15 22t25 9h565q13 0 20 -8.5t5 -22.5l-47 -170q-4 -13 -14.5 -22t-23.5 -9h-566q-13 0 -20.5 8.5t-3.5 20.5zM672 -12q-255 0 -405.5 148t-150.5 385q0 162 73 317.5t193 271t282 186t332 70.5q255 0 405.5 -149t150.5 -386q0 -162 -73 -317t-193 -270
t-282 -185.5t-332 -70.5zM725 271q103 0 201 43t169.5 113.5t114.5 163.5t43 188q0 139 -83 221.5t-229 82.5q-136 0 -258 -73t-194 -191t-72 -246q0 -139 82 -220.5t226 -81.5z" />
    <glyph glyph-name="omacron" unicode="&#x14d;" horiz-adv-x="1050" 
d="M436 1283q4 13 15 22t25 9h567q13 0 20 -8.5t3 -22.5l-47 -170q-2 -13 -13.5 -22.5t-24.5 -9.5h-566q-13 0 -20.5 8.5t-3.5 21.5zM430 -14q-174 0 -279.5 97t-105.5 261q0 109 46.5 210.5t124 176.5t184 120.5t220.5 45.5q174 0 279.5 -96.5t105.5 -260.5
q0 -110 -46.5 -212.5t-124 -177t-183.5 -119.5t-221 -45zM465 226q113 0 195.5 85t82.5 191q0 71 -41.5 113.5t-114.5 42.5q-113 0 -195.5 -84t-82.5 -192q0 -72 41 -114t115 -42z" />
    <glyph glyph-name="Ohungarumlaut" unicode="&#x150;" horiz-adv-x="1542" 
d="M762 1552q-13 0 -20.5 9t-3.5 22l104 337q4 13 14.5 22t23.5 9h205q14 0 21 -9t1 -22l-145 -339q-16 -29 -39 -29h-161zM1163 1552q-13 0 -20.5 9t-3.5 22l104 337q4 13 14.5 22t23.5 9h205q14 0 21 -9t1 -22l-146 -339q-16 -29 -38 -29h-161zM672 -12q-255 0 -405.5 148
t-150.5 385q0 162 73 317.5t193 271t282 186t332 70.5q255 0 405.5 -149t150.5 -386q0 -162 -73 -317t-193 -270t-282 -185.5t-332 -70.5zM725 271q103 0 201 43t169.5 113.5t114.5 163.5t43 188q0 139 -83 221.5t-229 82.5q-136 0 -258 -73t-194 -191t-72 -246
q0 -139 82 -220.5t226 -81.5z" />
    <glyph glyph-name="ohungarumlaut" unicode="&#x151;" horiz-adv-x="1050" 
d="M382 1057q-13 0 -19.5 9t-4.5 22l104 337q4 13 15 22t23 9h205q15 0 22 -8.5t2 -22.5l-148 -339q-16 -29 -38 -29h-161zM783 1057q-13 0 -20 9t-5 22l105 337q4 13 15 22t23 9h205q15 0 22 -8.5t2 -22.5l-148 -339q-16 -29 -38 -29h-161zM430 -14q-174 0 -279.5 97
t-105.5 261q0 109 46.5 210.5t124 176.5t184 120.5t220.5 45.5q174 0 279.5 -96.5t105.5 -260.5q0 -110 -46.5 -212.5t-124 -177t-183.5 -119.5t-221 -45zM465 226q113 0 195.5 85t82.5 191q0 71 -41.5 113.5t-114.5 42.5q-113 0 -195.5 -84t-82.5 -192q0 -72 41 -114
t115 -42z" />
    <glyph glyph-name="OE" unicode="&#x152;" horiz-adv-x="2141" 
d="M2282 1354q17 0 24 -9.5t2 -25.5l-53 -201q-8 -26 -35 -26h-575l-74 -276h423q16 0 23 -9.5t3 -23.5l-54 -202q-7 -26 -36 -26h-429l-80 -293h592q16 0 23 -9.5t3 -25.5l-57 -201q-7 -26 -36 -26h-849q-16 0 -23.5 10t-2.5 25l17 64q-204 -111 -416 -111
q-255 0 -405.5 148t-150.5 385q0 162 73 317.5t193 271t282 186t332 70.5q244 0 394 -137l26 99q8 26 37 26h829zM417 573q0 -139 82 -220.5t226 -81.5q103 0 201 43t169.5 113.5t114.5 163.5t43 188q0 139 -83 221.5t-229 82.5q-136 0 -258 -73t-194 -191t-72 -246z" />
    <glyph glyph-name="oe" unicode="&#x153;" horiz-adv-x="1676" 
d="M1286 897q174 0 268.5 -102t85.5 -253q-2 -96 -56 -150t-159 -54h-431q30 -128 183 -128q101 0 192 54q45 17 63 -21l43 -92q17 -29 -14 -52q-141 -113 -340 -113q-216 0 -321 134q-163 -134 -370 -134q-174 0 -279.5 97t-105.5 261q0 109 46.5 210.5t124 176.5
t184 120.5t220.5 45.5q206 0 312 -132q153 132 354 132zM1251 666q-73 0 -132.5 -37.5t-94.5 -100.5h368q-2 63 -37.5 100.5t-103.5 37.5zM465 226q113 0 195.5 85t82.5 191q0 71 -41.5 113.5t-114.5 42.5q-113 0 -195.5 -84t-82.5 -192q0 -72 41 -114t115 -42z" />
    <glyph glyph-name="Racute" unicode="&#x154;" horiz-adv-x="1284" 
d="M830 1486l-77 125q-6 12 -3.5 22t10.5 14l344 233q12 8 26.5 7.5t20.5 -11.5l104 -182q10 -18 6 -30.5t-17 -16.5l-371 -170q-30 -13 -43 9zM1317 975q0 -175 -102 -320.5t-267 -213.5l147 -406q5 -16 -1.5 -25.5t-22.5 -9.5h-233q-25 0 -34 24l-129 368h-274l-97 -366
q-8 -26 -37 -26h-227q-16 0 -23 9.5t-3 25.5l345 1293q8 26 37 26h539q184 0 283 -106t99 -273zM752 654q114 0 197.5 83.5t83.5 192.5q0 73 -38 117.5t-120 44.5h-287l-116 -438h280z" />
    <glyph glyph-name="racute" unicode="&#x155;" horiz-adv-x="822" 
d="M939 1225q8 -17 4.5 -30t-16.5 -17l-372 -170q-30 -13 -43 9l-75 125q-7 12 -4 22t11 14l344 233q32 20 47 -3zM870 840q17 -13 23 -32t-6 -34l-144 -160q-6 -6 -12 -7t-9 -0.5t-10.5 6t-8.5 5.5q-48 35 -109 35q-60 0 -108 -30t-75 -80l-139 -517q-8 -26 -34 -26h-221
q-16 0 -23.5 9.5t-2.5 23.5l219 826q8 26 35 26h222q16 0 23 -9.5t3 -23.5l-16 -61q115 106 238 106q91 0 155 -57z" />
    <glyph glyph-name="uni0156" unicode="&#x156;" horiz-adv-x="1284" 
d="M1317 975q0 -175 -102 -320.5t-267 -213.5l147 -406q5 -16 -1.5 -25.5t-22.5 -9.5h-233q-25 0 -34 24l-129 368h-274l-97 -366q-8 -26 -37 -26h-227q-16 0 -23 9.5t-3 25.5l345 1293q8 26 37 26h539q184 0 283 -106t99 -273zM752 654q114 0 197.5 83.5t83.5 192.5
q0 73 -38 117.5t-120 44.5h-287l-116 -438h280zM479 -153q65 0 108 -42.5t43 -115.5q0 -108 -89.5 -226.5t-207.5 -186.5q-20 -8 -25.5 -5.5t-14.5 17.5l-19 33q-10 18 14 35q118 78 170 170q-10 -3 -31 -3q-52 0 -93 42.5t-41 103.5q0 74 56 126t130 52z" />
    <glyph glyph-name="uni0157" unicode="&#x157;" horiz-adv-x="822" 
d="M870 840q17 -13 23 -32t-6 -34l-144 -160q-6 -6 -12 -7t-9 -0.5t-10.5 6t-8.5 5.5q-48 35 -109 35q-60 0 -108 -30t-75 -80l-139 -517q-8 -26 -34 -26h-221q-16 0 -23.5 9.5t-2.5 23.5l219 826q8 26 35 26h222q16 0 23 -9.5t3 -23.5l-16 -61q115 106 238 106
q91 0 155 -57zM69 -153q65 0 108 -42.5t43 -115.5q0 -108 -89 -227t-207 -186q-20 -8 -25.5 -5.5t-14.5 17.5l-19 33q-10 18 14 35q118 78 170 170q-11 -3 -32 -3q-52 0 -92.5 42.5t-40.5 103.5q0 74 55.5 126t129.5 52z" />
    <glyph glyph-name="Rcaron" unicode="&#x158;" horiz-adv-x="1284" 
d="M1342 1894q24 10 37 2t6 -32l-35 -134q-4 -17 -31 -31l-356 -184q-29 -14 -48 0l-257 184q-20 15 -14 37l35 128q7 24 23.5 32t35.5 -2l262 -145zM935 1354q184 0 283 -106t99 -273q0 -175 -102 -320.5t-267 -213.5l147 -406q5 -16 -1.5 -25.5t-22.5 -9.5h-233
q-25 0 -34 24l-129 368h-274l-97 -366q-8 -26 -37 -26h-227q-16 0 -23 9.5t-3 25.5l345 1293q8 26 37 26h539zM752 654q114 0 197.5 83.5t83.5 192.5q0 73 -38 117.5t-120 44.5h-287l-116 -438h280z" />
    <glyph glyph-name="rcaron" unicode="&#x159;" horiz-adv-x="822" 
d="M1026 1425q23 10 36.5 2t6.5 -32l-36 -133q-4 -19 -32 -31l-355 -184q-29 -15 -49 0l-255 184q-22 16 -16 36l35 128q7 24 23.5 32t35.5 -2l264 -144zM870 840q17 -13 23 -32t-6 -34l-144 -160q-6 -6 -12 -7t-9 -0.5t-10.5 6t-8.5 5.5q-48 35 -109 35q-60 0 -108 -30
t-75 -80l-139 -517q-8 -26 -34 -26h-221q-16 0 -23.5 9.5t-2.5 23.5l219 826q8 26 35 26h222q16 0 23 -9.5t3 -23.5l-16 -61q115 106 238 106q91 0 155 -57z" />
    <glyph glyph-name="Sacute" unicode="&#x15a;" horiz-adv-x="1089" 
d="M1128 1621q13 6 17 18.5t-6 30.5l-105 180q-6 12 -20 12t-26 -8l-344 -231q-19 -15 -7 -37l76 -125q13 -22 44 -10zM26 255l137 137q5 5 10 8t10.5 2.5t9 -0.5t10.5 -4t8.5 -5t9.5 -7l8 -6q24 -23 39 -35t49.5 -35.5t76 -35.5t87.5 -12q98 0 167 51.5t69 123.5
q0 68 -103 115q-77 38 -125.5 64.5t-102 64t-83.5 73.5t-49.5 84t-19.5 103q0 115 72 213t195.5 155t267.5 57q69 0 130.5 -15.5t97.5 -32t73.5 -47.5t46.5 -40.5t28 -32.5q12 -15 16.5 -22.5t3.5 -19.5t-13 -24l-142 -134q-27 -27 -69 9q-94 85 -214 85q-90 0 -145.5 -41.5
t-55.5 -104.5q0 -38 29 -68.5t98 -61.5q42 -20 65.5 -32t61.5 -33t60.5 -37.5t52 -40t47 -47.5t34 -53.5t24 -63.5t7.5 -72q0 -124 -75 -227.5t-200 -162.5t-270 -59q-73 0 -140.5 17t-111.5 39t-83.5 53t-58 50.5t-33.5 39.5q-33 40 -7 68z" />
    <glyph glyph-name="sacute" unicode="&#x15b;" horiz-adv-x="826" 
d="M875 1178q13 4 16.5 17t-6.5 30l-104 183q-6 11 -20 11t-27 -8l-343 -233q-8 -4 -10.5 -14t3.5 -22l76 -125q13 -22 43 -9zM448 536q139 -35 205.5 -93.5t66.5 -156.5q0 -137 -117.5 -218.5t-288.5 -81.5q-181 0 -333 108q-23 17 -5 41l99 129q14 19 40 8
q117 -62 216 -62q51 0 90 19.5t39 51.5q0 24 -24.5 41t-91.5 34q-115 33 -175.5 92t-60.5 153q0 134 112.5 215t282.5 81t297 -95q25 -18 7 -42l-104 -130q-16 -23 -42 -9q-89 47 -187 47q-52 0 -87 -16t-35 -48q0 -25 22.5 -39.5t73.5 -28.5z" />
    <glyph glyph-name="Scedilla" unicode="&#x15e;" horiz-adv-x="1089" 
d="M1145 1198q12 -15 16.5 -22.5t3.5 -19.5t-13 -24l-142 -134q-27 -27 -69 9q-94 85 -214 85q-90 0 -145.5 -41.5t-55.5 -104.5q0 -38 29 -68.5t98 -61.5q42 -20 65.5 -32t61.5 -33t60.5 -37.5t52 -40t47 -47.5t34 -53.5t24 -63.5t7.5 -72q0 -172 -137 -297.5t-337 -148.5
l-81 -106q62 -13 98.5 -58.5t36.5 -112.5q0 -110 -94.5 -194t-207.5 -84q-106 0 -153 78q-9 17 11 31l85 66q14 10 27 0q29 -29 68 -29q45 0 77 30.5t32 69.5q0 26 -17.5 44.5t-48.5 18.5q-35 0 -81 -35q-4 -4 -12 -5t-12 5l-59 61q-8 11 1 24l160 202q-68 11 -127 36
t-99.5 57t-62.5 53.5t-39 43.5q-33 40 -7 68l137 137q5 5 10 8t10.5 2.5t9 -0.5t10.5 -4t8.5 -5t9.5 -7l8 -6q24 -23 39 -35t49.5 -35.5t76 -35.5t87.5 -12q98 0 167 51.5t69 123.5q0 68 -103 115q-77 38 -125.5 64.5t-102 64t-83.5 73.5t-49.5 84t-19.5 103q0 115 72 213
t195.5 155t267.5 57q69 0 130.5 -15.5t97.5 -32t73.5 -47.5t46.5 -40.5t28 -32.5z" />
    <glyph glyph-name="scedilla" unicode="&#x15f;" horiz-adv-x="826" 
d="M474 668q-52 0 -87 -16t-35 -48q0 -25 22.5 -39.5t73.5 -28.5q139 -35 205.5 -93.5t66.5 -156.5q0 -119 -90.5 -197t-232.5 -98l-81 -106q62 -13 99.5 -58.5t37.5 -112.5q0 -110 -95 -194t-209 -84q-54 0 -93 22t-58 56q-8 17 9 31l85 66q15 9 28 0q33 -29 67 -29
q45 0 77.5 30.5t32.5 69.5q0 27 -17 45t-49 18q-35 0 -82 -35q-4 -4 -11 -5t-13 5l-57 61q-10 10 0 24l158 198q-135 20 -245 101q-23 17 -5 41l99 129q14 19 40 8q117 -62 216 -62q51 0 90 19.5t39 51.5q0 24 -24.5 41t-91.5 34q-115 33 -175.5 92t-60.5 153
q0 134 112.5 215t282.5 81t297 -95q25 -18 7 -42l-104 -130q-16 -23 -42 -9q-89 47 -187 47z" />
    <glyph glyph-name="Scaron" unicode="&#x160;" horiz-adv-x="1089" 
d="M847 1489l356 186q27 14 31 31l36 134q6 22 -7.5 29.5t-37.5 -0.5l-340 -144l-264 142q-19 10 -35.5 3t-23.5 -30l-34 -130q-7 -23 14 -35l256 -186q19 -14 49 0zM26 255l137 137q5 5 10 8t10.5 2.5t9 -0.5t10.5 -4t8.5 -5t9.5 -7l8 -6q24 -23 39 -35t49.5 -35.5
t76 -35.5t87.5 -12q98 0 167 51.5t69 123.5q0 68 -103 115q-77 38 -125.5 64.5t-102 64t-83.5 73.5t-49.5 84t-19.5 103q0 115 72 213t195.5 155t267.5 57q69 0 130.5 -15.5t97.5 -32t73.5 -47.5t46.5 -40.5t28 -32.5q12 -15 16.5 -22.5t3.5 -19.5t-13 -24l-142 -134
q-27 -27 -69 9q-94 85 -214 85q-90 0 -145.5 -41.5t-55.5 -104.5q0 -38 29 -68.5t98 -61.5q42 -20 65.5 -32t61.5 -33t60.5 -37.5t52 -40t47 -47.5t34 -53.5t24 -63.5t7.5 -72q0 -124 -75 -227.5t-200 -162.5t-270 -59q-73 0 -140.5 17t-111.5 39t-83.5 53t-58 50.5
t-33.5 39.5q-33 40 -7 68z" />
    <glyph glyph-name="scaron" unicode="&#x161;" horiz-adv-x="826" 
d="M594 1047l355 184q28 14 32 31l34 133q7 24 -6 32t-37 -2l-342 -144l-262 144q-19 10 -35.5 2t-23.5 -32l-35 -128q-6 -21 14 -36l257 -184q19 -14 49 0zM448 536q139 -35 205.5 -93.5t66.5 -156.5q0 -137 -117.5 -218.5t-288.5 -81.5q-181 0 -333 108q-23 17 -5 41
l99 129q14 19 40 8q117 -62 216 -62q51 0 90 19.5t39 51.5q0 24 -24.5 41t-91.5 34q-115 33 -175.5 92t-60.5 153q0 134 112.5 215t282.5 81t297 -95q25 -18 7 -42l-104 -130q-16 -23 -42 -9q-89 47 -187 47q-52 0 -87 -16t-35 -48q0 -25 22.5 -39.5t73.5 -28.5z" />
    <glyph glyph-name="uni0162" unicode="&#x162;" horiz-adv-x="1079" 
d="M1236 1354q16 0 23 -9.5t3 -25.5l-54 -201q-8 -26 -36 -26h-313l-285 -1066q-8 -26 -36 -26h-23l-86 -113q62 -13 98.5 -59t36.5 -113q0 -111 -94 -194t-208 -83q-108 0 -153 78q-8 16 9 29l85 68q15 9 28 0q30 -30 68 -30q45 0 77 30.5t32 68.5q0 28 -16.5 45.5
t-47.5 17.5q-36 0 -82 -35q-18 -8 -26 2l-57 61q-9 9 2 24l159 203h-29q-16 0 -23 9.5t-3 25.5l283 1057h-306q-34 0 -26 34l54 202q7 26 36 26h910z" />
    <glyph glyph-name="uni0163" unicode="&#x163;" horiz-adv-x="754" 
d="M741 885q16 0 23.5 -9.5t2.5 -23.5l-52 -196q-5 -24 -33 -24h-123q-16 0 -56 10l-86 -314q-26 -94 50 -94q35 0 73 19q13 8 23.5 4.5t14.5 -17.5l50 -148q9 -30 -27 -47q-82 -47 -179 -57l-82 -103q63 -13 100 -59t37 -112q0 -110 -94.5 -194t-208.5 -84q-104 0 -151 78
q-9 17 8 31l85 66q15 9 28 0q33 -29 68 -29q45 0 77 30.5t32 69.5q0 27 -17 45t-49 18q-34 0 -80 -35q-17 -12 -26 0l-57 61q-10 10 0 24l163 205h26q-100 29 -140.5 115.5t-5.5 212.5l82 304h-96q-16 0 -23.5 8.5t-2.5 22.5l20 73q4 19 20 31q114 82 196 162.5t191 214.5
q13 17 37 17h54q16 0 23 -9.5t3 -23.5l-66 -243h168z" />
    <glyph glyph-name="Tcaron" unicode="&#x164;" horiz-adv-x="1079" 
d="M1231 1894q24 10 37 2t6 -32l-35 -134q-4 -17 -31 -31l-356 -184q-29 -14 -48 0l-257 184q-20 15 -14 37l35 128q7 24 23.5 32t35.5 -2l262 -145zM1236 1354q16 0 23 -9.5t3 -25.5l-54 -201q-8 -26 -36 -26h-313l-285 -1066q-8 -26 -36 -26h-227q-16 0 -23 9.5t-3 25.5
l283 1057h-306q-34 0 -26 34l54 202q7 26 36 26h910z" />
    <glyph glyph-name="tcaron" unicode="&#x165;" horiz-adv-x="951" 
d="M849 798q-19 -7 -25 -4t-15 18l-18 31q-13 22 13 35q119 78 170 172q-12 -5 -32 -5q-52 0 -92.5 42.5t-40.5 103.5q0 75 55.5 127.5t129.5 52.5q65 0 109 -42.5t44 -115.5q0 -108 -90 -227t-208 -188zM384 -14q-151 0 -221 92.5t-28 249.5l82 304h-96q-16 0 -23.5 8.5
t-2.5 22.5l20 73q4 19 20 31q114 82 196 162.5t191 214.5q13 17 37 17h54q16 0 23 -9.5t3 -23.5l-66 -243h168q16 0 23.5 -9.5t2.5 -23.5l-52 -196q-5 -24 -33 -24h-123q-16 0 -56 10l-86 -314q-26 -94 50 -94q35 0 73 19q13 8 23.5 4.5t14.5 -17.5l50 -148q9 -30 -27 -47
q-104 -59 -217 -59z" />
    <glyph glyph-name="Tbar" unicode="&#x166;" horiz-adv-x="1081" 
d="M1236 1354q16 0 23 -9.5t3 -25.5l-54 -201q-8 -26 -36 -26h-313l-55 -207h307q16 0 23.5 -10t2.5 -25l-54 -201q-8 -26 -36 -26h-313l-160 -597q-8 -26 -36 -26h-227q-16 0 -23 9.5t-3 25.5l158 588h-306q-16 0 -23 9.5t-3 25.5l54 201q7 26 36 26h311l56 207h-306
q-34 0 -26 34l54 202q7 26 36 26h910z" />
    <glyph glyph-name="tbar" unicode="&#x167;" horiz-adv-x="754" 
d="M741 885q16 0 23.5 -9.5t2.5 -23.5l-52 -196q-5 -24 -33 -24h-123q-16 0 -56 10l-27 -102h184q25 0 20 -25l-22 -81q-8 -23 -35 -23h-184l-22 -83q-26 -94 50 -94q35 0 73 19q13 8 23.5 4.5t14.5 -17.5l50 -148q9 -30 -27 -47q-104 -59 -217 -59q-151 0 -221 92.5
t-28 249.5l23 83h-97q-26 0 -21 21l22 83q2 10 11.5 17.5t21.5 7.5h98l24 92h-96q-16 0 -23.5 8.5t-2.5 22.5l20 73q4 19 20 31q114 82 196 162.5t191 214.5q13 17 37 17h54q16 0 23 -9.5t3 -23.5l-66 -243h168z" />
    <glyph glyph-name="Utilde" unicode="&#x168;" horiz-adv-x="1341" 
d="M1170 1515q-43 0 -83.5 15t-67 33.5t-64.5 33.5t-77 15q-33 0 -62.5 -12t-43.5 -22.5t-34 -29.5q-19 -19 -40 2l-78 94q-16 19 1 43q1 2 16 21t25 30t32 30.5t43 30.5t52 20t65 9q48 0 90.5 -15t69 -33t61.5 -33t69 -15t63 11.5t43.5 22.5t33.5 30q9 9 20 8.5t19 -9.5
l79 -94q7 -9 6.5 -22t-7.5 -22q-2 -2 -16.5 -21t-24.5 -30.5t-32 -30.5t-42.5 -30.5t-51.5 -20.5t-64 -9zM1435 1354q17 0 24 -9.5t2 -25.5l-224 -831q-59 -219 -235.5 -359.5t-428.5 -140.5q-92 0 -168.5 19.5t-130 55t-90.5 84.5t-53.5 108t-15.5 125.5t20 136.5l216 811
q8 26 36 26h227q16 0 23.5 -10t2.5 -25l-210 -781q-34 -129 12.5 -201.5t170.5 -72.5q136 0 228.5 84.5t128.5 219.5l203 760q5 26 35 26h227z" />
    <glyph glyph-name="utilde" unicode="&#x169;" 
d="M1114 1232q16 -20 -1 -43q-1 -2 -16 -21t-25 -30.5t-32 -30.5t-43 -30.5t-52 -20.5t-65 -9q-42 0 -82.5 15t-67 33.5t-65 33.5t-77.5 15q-74 0 -138 -64q-21 -21 -40 1l-80 94q-15 18 1 43q1 1 16 20.5t25 30.5t32 30.5t43 30.5t52 20t65 9q48 0 91.5 -15t69.5 -32.5
t61.5 -32.5t69.5 -15q33 0 62 11.5t43 22.5t35 30q20 20 38 -2zM1080 885q16 0 23 -9.5t3 -23.5l-221 -826q-8 -26 -35 -26h-220q-16 0 -23.5 9.5t-2.5 23.5l17 68q-133 -113 -283 -113q-144 0 -216 94.5t-30 252.5l87 326q13 50 17 83.5t2 58t-2 30.5q0 30 19 41t57 11h138
q49 0 70.5 -37.5t8.5 -83.5l-105 -393q-16 -66 14 -100.5t90 -34.5t115 31.5t84 79.5l137 512q5 26 33 26h223z" />
    <glyph glyph-name="Umacron" unicode="&#x16a;" horiz-adv-x="1341" 
d="M715 1777q2 13 13.5 22t24.5 9h568q13 0 19.5 -8.5t2.5 -22.5l-45 -170q-4 -13 -15 -22t-25 -9h-565q-13 0 -21 8.5t-4 20.5zM1435 1354q17 0 24 -9.5t2 -25.5l-224 -831q-59 -219 -235.5 -359.5t-428.5 -140.5q-92 0 -168.5 19.5t-130 55t-90.5 84.5t-53.5 108
t-15.5 125.5t20 136.5l216 811q8 26 36 26h227q16 0 23.5 -10t2.5 -25l-210 -781q-34 -129 12.5 -201.5t170.5 -72.5q136 0 228.5 84.5t128.5 219.5l203 760q5 26 35 26h227z" />
    <glyph glyph-name="umacron" unicode="&#x16b;" 
d="M404 1107q-13 0 -20.5 8.5t-3.5 21.5l45 172q4 13 15 22t25 9h566q14 0 21 -8.5t3 -22.5l-47 -170q-2 -13 -13.5 -22.5t-24.5 -9.5h-566zM1080 885q16 0 23 -9.5t3 -23.5l-221 -826q-8 -26 -35 -26h-220q-16 0 -23.5 9.5t-2.5 23.5l17 68q-133 -113 -283 -113
q-144 0 -216 94.5t-30 252.5l87 326q13 50 17 83.5t2 58t-2 30.5q0 30 19 41t57 11h138q49 0 70.5 -37.5t8.5 -83.5l-105 -393q-16 -66 14 -100.5t90 -34.5t115 31.5t84 79.5l137 512q5 26 33 26h223z" />
    <glyph glyph-name="Ubreve" unicode="&#x16c;" horiz-adv-x="1341" 
d="M972 1491q-143 0 -223.5 82.5t-50.5 205.5q8 43 40 43h121q21 0 21 -36q-4 -49 26 -79t90 -30t105.5 29.5t68.5 79.5q21 36 43 36h129q34 0 19 -43q-46 -136 -151 -212t-238 -76zM1435 1354q17 0 24 -9.5t2 -25.5l-224 -831q-59 -219 -235.5 -359.5t-428.5 -140.5
q-92 0 -168.5 19.5t-130 55t-90.5 84.5t-53.5 108t-15.5 125.5t20 136.5l216 811q8 26 36 26h227q16 0 23.5 -10t2.5 -25l-210 -781q-34 -129 12.5 -201.5t170.5 -72.5q136 0 228.5 84.5t128.5 219.5l203 760q5 26 35 26h227z" />
    <glyph glyph-name="ubreve" unicode="&#x16d;" 
d="M684 1022q-143 0 -223.5 82.5t-52.5 205.5q12 44 42 44h119q23 0 23 -37q-5 -49 25 -79t89 -30q61 0 107 29.5t69 79.5q21 37 41 37h131q34 0 19 -44q-46 -136 -151 -212t-238 -76zM1080 885q16 0 23 -9.5t3 -23.5l-221 -826q-8 -26 -35 -26h-220q-16 0 -23.5 9.5
t-2.5 23.5l17 68q-133 -113 -283 -113q-144 0 -216 94.5t-30 252.5l87 326q13 50 17 83.5t2 58t-2 30.5q0 30 19 41t57 11h138q49 0 70.5 -37.5t8.5 -83.5l-105 -393q-16 -66 14 -100.5t90 -34.5t115 31.5t84 79.5l137 512q5 26 33 26h223z" />
    <glyph glyph-name="Uring" unicode="&#x16e;" horiz-adv-x="1341" 
d="M944 1453q-71 0 -113.5 42.5t-42.5 109.5q0 99 79.5 174.5t179.5 75.5q70 0 113 -42t43 -110q0 -101 -79.5 -175.5t-179.5 -74.5zM979 1583q36 0 64 26.5t28 63.5q0 24 -16 39t-41 15q-34 0 -64 -27.5t-30 -64.5q0 -23 17 -37.5t42 -14.5zM1435 1354q17 0 24 -9.5
t2 -25.5l-224 -831q-59 -219 -235.5 -359.5t-428.5 -140.5q-92 0 -168.5 19.5t-130 55t-90.5 84.5t-53.5 108t-15.5 125.5t20 136.5l216 811q8 26 36 26h227q16 0 23.5 -10t2.5 -25l-210 -781q-34 -129 12.5 -201.5t170.5 -72.5q136 0 228.5 84.5t128.5 219.5l203 760
q5 26 35 26h227z" />
    <glyph glyph-name="uring" unicode="&#x16f;" 
d="M656 984q-70 0 -113 43t-43 110q0 99 79 174.5t179 75.5q70 0 113.5 -42.5t43.5 -110.5q0 -101 -79.5 -175.5t-179.5 -74.5zM725 1258q-35 0 -64 -27t-29 -65q0 -23 17 -37.5t42 -14.5q36 0 64 27t28 64q0 24 -16.5 38.5t-41.5 14.5zM1080 885q16 0 23 -9.5t3 -23.5
l-221 -826q-8 -26 -35 -26h-220q-16 0 -23.5 9.5t-2.5 23.5l17 68q-133 -113 -283 -113q-144 0 -216 94.5t-30 252.5l87 326q13 50 17 83.5t2 58t-2 30.5q0 30 19 41t57 11h138q49 0 70.5 -37.5t8.5 -83.5l-105 -393q-16 -66 14 -100.5t90 -34.5t115 31.5t84 79.5l137 512
q5 26 33 26h223z" />
    <glyph glyph-name="Uhungarumlaut" unicode="&#x170;" horiz-adv-x="1341" 
d="M660 1552q-12 0 -19.5 9.5t-3.5 21.5l104 337q2 13 13.5 22t24.5 9h203q15 0 22.5 -8.5t2.5 -22.5l-148 -339q-13 -29 -38 -29h-161zM1060 1552q-12 0 -19 9t-3 22l104 337q4 13 14.5 22t23.5 9h203q15 0 22.5 -8.5t2.5 -22.5l-148 -339q-13 -29 -38 -29h-162zM1435 1354
q17 0 24 -9.5t2 -25.5l-224 -831q-59 -219 -235.5 -359.5t-428.5 -140.5q-92 0 -168.5 19.5t-130 55t-90.5 84.5t-53.5 108t-15.5 125.5t20 136.5l216 811q8 26 36 26h227q16 0 23.5 -10t2.5 -25l-210 -781q-34 -129 12.5 -201.5t170.5 -72.5q136 0 228.5 84.5t128.5 219.5
l203 760q5 26 35 26h227z" />
    <glyph glyph-name="uhungarumlaut" unicode="&#x171;" 
d="M371 1083q-13 0 -20.5 9t-3.5 22l104 337q4 13 14.5 22t23.5 9h205q14 0 22 -8.5t3 -22.5l-148 -338q-17 -30 -38 -30h-162zM1095 1482q14 0 21.5 -8.5t2.5 -22.5l-147 -338q-17 -30 -38 -30h-162q-13 0 -20.5 9t-3.5 22l104 337q4 13 15 22t23 9h205zM1080 885
q16 0 23 -9.5t3 -23.5l-221 -826q-8 -26 -35 -26h-220q-16 0 -23.5 9.5t-2.5 23.5l17 68q-133 -113 -283 -113q-144 0 -216 94.5t-30 252.5l87 326q13 50 17 83.5t2 58t-2 30.5q0 30 19 41t57 11h138q49 0 70.5 -37.5t8.5 -83.5l-105 -393q-16 -66 14 -100.5t90 -34.5
t115 31.5t84 79.5l137 512q5 26 33 26h223z" />
    <glyph glyph-name="Uogonek" unicode="&#x172;" horiz-adv-x="1341" 
d="M1435 1354q17 0 24 -9.5t2 -25.5l-224 -831q-59 -219 -235.5 -359.5t-428.5 -140.5h-9q-115 -5 -200.5 -61.5t-85.5 -136.5q0 -69 85 -69q43 0 107 26q20 7 31.5 -0.5t7.5 -24.5l-28 -102q-6 -24 -31 -37q-97 -57 -207 -57q-88 0 -139.5 39.5t-51.5 111.5
q0 105 106.5 197.5t247.5 132.5q-92 23 -157 73t-96 117.5t-37.5 150t19.5 169.5l216 811q8 26 36 26h227q16 0 23.5 -10t2.5 -25l-210 -781q-34 -129 12.5 -201.5t170.5 -72.5q136 0 228.5 84.5t128.5 219.5l203 760q5 26 35 26h227z" />
    <glyph glyph-name="uogonek" unicode="&#x173;" 
d="M1080 885q16 0 23 -9.5t3 -23.5l-221 -826q-8 -26 -35 -26h-98q-115 -5 -201 -61.5t-86 -136.5q0 -69 85 -69q44 0 108 26q20 7 31 -0.5t7 -24.5l-28 -102q-6 -23 -31 -36q-99 -58 -207 -58q-86 0 -138 40t-52 111q0 106 109.5 199t252.5 133q0 9 2 12l17 68
q-133 -113 -283 -113q-144 0 -216 94.5t-30 252.5l87 326q13 50 17 83.5t2 58t-2 30.5q0 30 19 41t57 11h138q49 0 70.5 -37.5t8.5 -83.5l-105 -393q-16 -66 14 -100.5t90 -34.5t115 31.5t84 79.5l137 512q5 26 33 26h223z" />
    <glyph glyph-name="Wcircumflex" unicode="&#x174;" horiz-adv-x="2115" 
d="M1434 1892l-356 -184q-28 -14 -30 -31l-36 -134q-7 -24 6.5 -32t36.5 2l342 144l264 -144q19 -10 35.5 -2t23.5 32l35 128q4 22 -16 37l-255 184q-19 15 -50 0zM373 0q-28 0 -31 30l-68 1291q-3 33 31 33h235q31 0 31 -31l26 -846l545 856q12 21 36 21h228q30 0 33 -30
l81 -847l485 856q11 21 36 21h250q18 0 24 -11.5t-3 -25.5l-752 -1296q-14 -21 -36 -21h-182q-32 0 -32 30l-100 951l-620 -960q-12 -21 -36 -21h-181z" />
    <glyph glyph-name="wcircumflex" unicode="&#x175;" horiz-adv-x="1490" 
d="M998 1423l-356 -184q-27 -14 -31 -31l-37 -134q-6 -24 8 -31.5t38 2.5l340 144l264 -144q19 -10 35.5 -2.5t23.5 31.5l34 129q6 21 -14 36l-256 184q-19 14 -49 0zM226 0q-27 0 -30 28l-48 826q0 31 31 31h196q29 0 29 -29l11 -500h8l297 508q14 21 37 21h196
q26 0 29 -28l25 -501h8l285 508q9 21 36 21h205q17 0 23 -10t-2 -26l-489 -828q-13 -21 -37 -21h-198q-26 0 -29 28l-30 526l-317 -535q-12 -19 -35 -19h-201z" />
    <glyph glyph-name="Ycircumflex" unicode="&#x176;" horiz-adv-x="1310" 
d="M653 1513q-24 -10 -38 -2t-8 32l37 134q4 17 31 31l356 184q30 14 49 0l256 -184q20 -15 14 -37l-34 -128q-7 -24 -23.5 -32t-35.5 2l-264 144zM1487 1354q19 0 24 -12t-8 -26l-680 -776l-136 -514q-8 -26 -36 -26h-228q-16 0 -23 9.5t-3 25.5l136 508l-257 776
q-4 16 3 25.5t23 9.5h245q30 0 34 -26l165 -505l445 513q15 18 38 18h258z" />
    <glyph glyph-name="ycircumflex" unicode="&#x177;" horiz-adv-x="1003" 
d="M757 1423l-358 -184q-26 -13 -29 -31l-37 -134q-6 -24 7.5 -31.5t36.5 2.5l342 144l263 -144q19 -10 35.5 -2.5t23.5 31.5l35 129q4 21 -16 36l-255 184q-20 15 -48 0zM68 -347q-18 0 -23.5 11t2.5 25l215 342l-113 823q-3 31 28 31h205q28 0 31 -28l61 -501h8l318 508
q10 21 37 21h218q18 0 23 -11t-4 -25l-767 -1177q-12 -19 -38 -19h-201z" />
    <glyph glyph-name="Ydieresis" unicode="&#x178;" horiz-adv-x="1310" 
d="M765 1579q-53 0 -90.5 39t-37.5 93q0 53 37.5 90t90.5 37q55 0 93.5 -37t38.5 -90q0 -54 -39 -93t-93 -39zM1215 1579q-53 0 -91.5 39.5t-38.5 92.5q0 54 38 90.5t92 36.5q52 0 91 -37t39 -90t-39 -92.5t-91 -39.5zM1487 1354q19 0 24 -12t-8 -26l-680 -776l-136 -514
q-8 -26 -36 -26h-228q-16 0 -23 9.5t-3 25.5l136 508l-257 776q-4 16 3 25.5t23 9.5h245q30 0 34 -26l165 -505l445 513q15 18 38 18h258z" />
    <glyph glyph-name="Zacute" unicode="&#x179;" horiz-adv-x="1114" 
d="M1156 1647q13 4 16.5 17t-6.5 30l-104 182q-6 11 -20.5 11.5t-24.5 -7.5l-344 -233q-8 -4 -11 -14t3 -22l76 -125q13 -22 43 -9zM-35 0q-16 0 -23.5 9.5t-3.5 25.5l5 22q4 21 17 37l864 998h-550q-34 0 -26 34l54 202q7 26 36 26h936q36 0 28 -35l-4 -23q-3 -17 -19 -36
l-864 -998h550q17 0 24 -9.5t2 -25.5l-52 -201q-8 -26 -36 -26h-938z" />
    <glyph glyph-name="zacute" unicode="&#x17a;" horiz-adv-x="862" 
d="M899 1178q13 4 16.5 17t-6.5 30l-104 183q-6 11 -19.5 11t-25.5 -8l-343 -233q-8 -4 -11 -14t4 -22l74 -125q13 -23 44 -9zM167 632q-16 0 -23 9t-2 24l51 194q8 26 34 26h663q16 0 23 -9.5t3 -23.5l-8 -41l-511 -558h308q16 0 23.5 -9t2.5 -24l-52 -194q-5 -26 -33 -26
h-674q-16 0 -23 9.5t-3 23.5l9 42l514 557h-302z" />
    <glyph glyph-name="Zdotaccent" unicode="&#x17b;" horiz-adv-x="1114" 
d="M901 1550q-60 0 -102 43t-42 103q0 59 42 100.5t102 41.5t102 -41.5t42 -100.5q0 -60 -42 -103t-102 -43zM-35 0q-16 0 -23.5 9.5t-3.5 25.5l5 22q4 21 17 37l864 998h-550q-34 0 -26 34l54 202q7 26 36 26h936q36 0 28 -35l-4 -23q-3 -17 -19 -36l-864 -998h550
q17 0 24 -9.5t2 -25.5l-52 -201q-8 -26 -36 -26h-938z" />
    <glyph glyph-name="zdotaccent" unicode="&#x17c;" horiz-adv-x="862" 
d="M644 1081q-60 0 -102 43t-42 103q0 59 42 100.5t102 41.5t102 -41.5t42 -100.5q0 -60 -42 -103t-102 -43zM167 632q-16 0 -23 9t-2 24l51 194q8 26 34 26h663q16 0 23 -9.5t3 -23.5l-8 -41l-511 -558h308q16 0 23.5 -9t2.5 -24l-52 -194q-5 -26 -33 -26h-674
q-16 0 -23 9.5t-3 23.5l9 42l514 557h-302z" />
    <glyph glyph-name="Zcaron" unicode="&#x17d;" horiz-adv-x="1114" 
d="M875 1515l356 184q27 12 31 31l36 134q7 24 -7.5 32t-37.5 -2l-340 -145l-264 145q-19 10 -35.5 2t-23.5 -32l-35 -128q-6 -22 14 -37l257 -184q20 -15 49 0zM-35 0q-16 0 -23.5 9.5t-3.5 25.5l5 22q4 21 17 37l864 998h-550q-34 0 -26 34l54 202q7 26 36 26h936
q36 0 28 -35l-4 -23q-3 -17 -19 -36l-864 -998h550q17 0 24 -9.5t2 -25.5l-52 -201q-8 -26 -36 -26h-938z" />
    <glyph glyph-name="zcaron" unicode="&#x17e;" horiz-adv-x="862" 
d="M618 1047l356 184q27 12 31 31l36 133q7 24 -7.5 32t-37.5 -2l-340 -144l-264 144q-19 10 -35.5 2t-23.5 -32l-34 -128q-7 -22 15 -36l255 -184q20 -15 49 0zM167 632q-16 0 -23 9t-2 24l51 194q8 26 34 26h663q16 0 23 -9.5t3 -23.5l-8 -41l-511 -558h308q16 0 23.5 -9
t2.5 -24l-52 -194q-5 -26 -33 -26h-674q-16 0 -23 9.5t-3 23.5l9 42l514 557h-302z" />
    <glyph glyph-name="florin" unicode="&#x192;" horiz-adv-x="754" 
d="M1001 1310q38 -38 14 -64l-100 -116q-25 -27 -47 -9q-38 24 -77 24q-57 0 -105.5 -36t-67.5 -104l-31 -120h170q16 0 23 -9.5t3 -23.5l-52 -196q-7 -24 -35 -24h-177l-174 -651q-44 -160 -157.5 -244t-253.5 -84q-147 0 -238 87q-38 38 -14 64l101 116q23 29 47 9
q34 -24 76 -24q57 0 106.5 36t67.5 104l156 587h-90q-34 0 -26 33l52 194q8 26 35 26h97l48 184q42 160 157 244t255 84q146 0 237 -87z" />
    <glyph glyph-name="uni01CD" unicode="&#x1cd;" horiz-adv-x="1449" 
d="M1418 1928q23 10 36 2.5t7 -31.5l-36 -134q-2 -17 -30 -31l-357 -184q-29 -15 -49 0l-255 184q-19 14 -15 36l34 129q7 24 23.5 31.5t35.5 -2.5l264 -144zM1057 1326l243 -1291q5 -35 -26 -35h-219q-26 0 -31 30l-26 138h-639l-106 -147q-18 -21 -38 -21h-265
q-18 0 -24.5 11t5.5 27l939 1297q14 19 38 19h118q26 0 31 -28zM526 403h427l-90 473z" />
    <glyph glyph-name="uni01CE" unicode="&#x1ce;" horiz-adv-x="1072" 
d="M1116 1425q23 10 36.5 2t6.5 -32l-34 -133q-4 -17 -32 -31l-355 -184q-32 -15 -49 0l-257 184q-19 14 -15 36l36 128q13 49 59 30l262 -144zM1095 885q16 0 23 -9.5t3 -23.5l-220 -826q-8 -26 -35 -26h-220q-16 0 -23.5 9.5t-2.5 23.5l17 64q-131 -111 -281 -111
q-141 0 -227.5 92t-86.5 248q0 106 41.5 210t110 183.5t164 128.5t197.5 49q181 0 256 -142l27 104q8 26 35 26h222zM309 375q0 -70 40.5 -109.5t115.5 -39.5q112 0 191.5 86t79.5 195q0 69 -41 110t-112 41q-115 0 -194.5 -86.5t-79.5 -196.5z" />
    <glyph glyph-name="uni01CF" unicode="&#x1cf;" horiz-adv-x="538" 
d="M550 1522l356 184q26 13 29 31l37 134q6 24 -7 31.5t-36 -2.5l-342 -144l-262 144q-46 20 -61 -29l-35 -128q-4 -22 16 -37l257 -184q17 -15 48 0zM40 0q-16 0 -23 9.5t-3 25.5l345 1293q8 26 37 26h227q16 0 23.5 -10t2.5 -25l-345 -1293q-8 -26 -37 -26h-227z" />
    <glyph glyph-name="uni01D0" unicode="&#x1d0;" horiz-adv-x="496" 
d="M436 1047l355 184q28 14 32 31l34 133q7 24 -6.5 32t-36.5 -2l-342 -144l-262 144q-46 19 -59 -30l-36 -128q-4 -22 15 -36l257 -184q17 -15 49 0zM24 0q-16 0 -23.5 9.5t-2.5 23.5l219 826q8 26 35 26h222q16 0 23 -9.5t3 -23.5l-221 -826q-8 -26 -34 -26h-221z" />
    <glyph glyph-name="uni01D1" unicode="&#x1d1;" horiz-adv-x="1542" 
d="M1064 1515l356 184q27 14 31 31l35 134q7 24 -6.5 32t-37.5 -2l-342 -145l-262 145q-19 10 -35.5 2t-23.5 -32l-34 -128q-7 -22 13 -37l257 -184q19 -14 49 0zM672 -12q-255 0 -405.5 148t-150.5 385q0 162 73 317.5t193 271t282 186t332 70.5q255 0 405.5 -149
t150.5 -386q0 -162 -73 -317t-193 -270t-282 -185.5t-332 -70.5zM725 271q103 0 201 43t169.5 113.5t114.5 163.5t43 188q0 139 -83 221.5t-229 82.5q-136 0 -258 -73t-194 -191t-72 -246q0 -139 82 -220.5t226 -81.5z" />
    <glyph glyph-name="uni01D2" unicode="&#x1d2;" horiz-adv-x="1050" 
d="M705 1021l355 184q28 12 32 31l36 133q7 24 -7.5 32t-37.5 -2l-340 -144l-264 144q-19 10 -35.5 2t-23.5 -32l-35 -128q-6 -21 14 -36l257 -184q20 -15 49 0zM430 -14q-174 0 -279.5 97t-105.5 261q0 109 46.5 210.5t124 176.5t184 120.5t220.5 45.5q174 0 279.5 -96.5
t105.5 -260.5q0 -110 -46.5 -212.5t-124 -177t-183.5 -119.5t-221 -45zM465 226q113 0 195.5 85t82.5 191q0 71 -41.5 113.5t-114.5 42.5q-113 0 -195.5 -84t-82.5 -192q0 -72 41 -114t115 -42z" />
    <glyph glyph-name="uni01D3" unicode="&#x1d3;" horiz-adv-x="1341" 
d="M982 1515l356 184q27 12 31 31l37 134q6 24 -7.5 32t-36.5 -2l-341 -145l-264 145q-19 10 -35.5 2t-23.5 -32l-35 -128q-4 -22 16 -37l255 -184q20 -15 48 0zM1435 1354q17 0 24 -9.5t2 -25.5l-224 -831q-59 -219 -235.5 -359.5t-428.5 -140.5q-92 0 -168.5 19.5t-130 55
t-90.5 84.5t-53.5 108t-15.5 125.5t20 136.5l216 811q8 26 36 26h227q16 0 23.5 -10t2.5 -25l-210 -781q-34 -129 12.5 -201.5t170.5 -72.5q136 0 228.5 84.5t128.5 219.5l203 760q5 26 35 26h227z" />
    <glyph glyph-name="uni01D4" unicode="&#x1d4;" 
d="M1073 1425q23 10 37.5 2t7.5 -32l-37 -133q-4 -17 -31 -31l-356 -184q-29 -14 -48 0l-257 184q-20 15 -14 36l35 128q7 24 23.5 32t35.5 -2l263 -144zM1080 885q16 0 23 -9.5t3 -23.5l-221 -826q-8 -26 -35 -26h-220q-16 0 -23.5 9.5t-2.5 23.5l17 68
q-133 -113 -283 -113q-144 0 -216 94.5t-30 252.5l87 326q13 50 17 83.5t2 58t-2 30.5q0 30 19 41t57 11h138q49 0 70.5 -37.5t8.5 -83.5l-105 -393q-16 -66 14 -100.5t90 -34.5t115 31.5t84 79.5l137 512q5 26 33 26h223z" />
    <glyph glyph-name="Gcaron" unicode="&#x1e6;" horiz-adv-x="1416" 
d="M1432 1871q23 10 36.5 2t6.5 -32l-36 -133q-2 -17 -30 -31l-357 -184q-29 -15 -49 0l-255 184q-20 15 -16 36l35 128q7 24 23.5 32t35.5 -2l264 -144zM996 1366q160 0 280.5 -64.5t177.5 -168.5q10 -18 10.5 -27.5t-15.5 -22.5l-182 -116q-29 -17 -61 15
q-97 101 -241 101q-102 0 -203 -42.5t-177.5 -111.5t-124 -164t-47.5 -194q0 -133 81 -216.5t230 -83.5q87 0 173.5 30.5t154.5 80.5l40 146h-254q-16 0 -23.5 9.5t-2.5 23.5l52 192q5 26 35 26h476q34 0 26 -34l-144 -535q-256 -222 -578 -222q-256 0 -408.5 146
t-152.5 387q0 163 72 318.5t191 271t281.5 185.5t333.5 70z" />
    <glyph glyph-name="gcaron" unicode="&#x1e7;" horiz-adv-x="1001" 
d="M391 1217q-20 15 -16 34l35 131q7 23 23.5 30.5t35.5 -1.5l263 -144l342 144q23 10 37 2t7 -31l-37 -134q-4 -19 -31 -31l-356 -184q-28 -17 -48 0zM1097 885q16 0 22.5 -9.5t1.5 -23.5l-225 -840q-28 -106 -83.5 -185.5t-128 -125.5t-152 -68t-166.5 -22
q-235 0 -375 108q-22 14 -8 40l93 135q14 19 37 11q110 -61 243 -61q101 0 171 52.5t98 155.5l12 45q-131 -111 -281 -111q-141 0 -227.5 92t-86.5 248q0 106 41.5 210t110 183.5t164 128.5t197.5 49q181 0 257 -144l28 106q8 26 35 26h222zM309 380q0 -72 41.5 -113
t118.5 -41q111 0 188 84t77 192q0 72 -42 114t-114 42q-112 0 -190.5 -85t-78.5 -193z" />
    <glyph glyph-name="uni0218" unicode="&#x218;" horiz-adv-x="1089" 
d="M26 255l137 137q5 5 10 8t10.5 2.5t9 -0.5t10.5 -4t8.5 -5t9.5 -7l8 -6q24 -23 39 -35t49.5 -35.5t76 -35.5t87.5 -12q98 0 167 51.5t69 123.5q0 68 -103 115q-77 38 -125.5 64.5t-102 64t-83.5 73.5t-49.5 84t-19.5 103q0 115 72 213t195.5 155t267.5 57
q69 0 130.5 -15.5t97.5 -32t73.5 -47.5t46.5 -40.5t28 -32.5q12 -15 16.5 -22.5t3.5 -19.5t-13 -24l-142 -134q-27 -27 -69 9q-94 85 -214 85q-90 0 -145.5 -41.5t-55.5 -104.5q0 -38 29 -68.5t98 -61.5q42 -20 65.5 -32t61.5 -33t60.5 -37.5t52 -40t47 -47.5t34 -53.5
t24 -63.5t7.5 -72q0 -124 -75 -227.5t-200 -162.5t-270 -59q-73 0 -140.5 17t-111.5 39t-83.5 53t-58 50.5t-33.5 39.5q-33 40 -7 68zM224 -724q-19 -8 -24.5 -5t-13.5 17l-19 33q-10 18 14 35q120 81 170 170q-11 -3 -32 -3q-52 0 -92.5 42.5t-40.5 103.5q0 74 55.5 126
t129.5 52q65 0 108 -42.5t43 -115.5q0 -108 -90 -226.5t-208 -186.5z" />
    <glyph glyph-name="uni0219" unicode="&#x219;" horiz-adv-x="826" 
d="M448 536q139 -35 205.5 -93.5t66.5 -156.5q0 -137 -117.5 -218.5t-288.5 -81.5q-181 0 -333 108q-23 17 -5 41l99 129q14 19 40 8q117 -62 216 -62q51 0 90 19.5t39 51.5q0 24 -24.5 41t-91.5 34q-115 33 -175.5 92t-60.5 153q0 134 112.5 215t282.5 81t297 -95
q25 -18 7 -42l-104 -130q-16 -23 -42 -9q-89 47 -187 47q-52 0 -87 -16t-35 -48q0 -25 22.5 -39.5t73.5 -28.5zM92 -724q-20 -8 -25.5 -5.5t-14.5 17.5l-17 33q-11 19 12 35q118 78 170 170q-11 -3 -31 -3q-52 0 -93 42.5t-41 103.5q0 74 56 126t130 52q65 0 109 -42.5
t44 -115.5q0 -108 -90.5 -226.5t-208.5 -186.5z" />
    <glyph glyph-name="uni021A" unicode="&#x21a;" horiz-adv-x="1079" 
d="M1236 1354q16 0 23 -9.5t3 -25.5l-54 -201q-8 -26 -36 -26h-313l-285 -1066q-8 -26 -36 -26h-227q-16 0 -23 9.5t-3 25.5l283 1057h-306q-34 0 -26 34l54 202q7 26 36 26h910zM351 -151q65 0 108 -42.5t43 -115.5q0 -108 -90.5 -226.5t-208.5 -188.5q-19 -7 -24.5 -3.5
t-13.5 17.5l-19 33q-10 18 14 35q121 79 168 170q-10 -4 -31 -4q-51 0 -92.5 42.5t-41.5 102.5q0 75 57 127.5t131 52.5z" />
    <glyph glyph-name="uni021B" unicode="&#x21b;" horiz-adv-x="754" 
d="M384 -14q-151 0 -221 92.5t-28 249.5l82 304h-96q-16 0 -23.5 8.5t-2.5 22.5l20 73q4 19 20 31q114 82 196 162.5t191 214.5q13 17 37 17h54q16 0 23 -9.5t3 -23.5l-66 -243h168q16 0 23.5 -9.5t2.5 -23.5l-52 -196q-5 -24 -33 -24h-123q-16 0 -56 10l-86 -314
q-26 -94 50 -94q35 0 73 19q13 8 23.5 4.5t14.5 -17.5l50 -148q9 -30 -27 -47q-104 -59 -217 -59zM116 -724q-19 -8 -24.5 -5.5t-13.5 17.5l-19 33q-12 20 14 35q116 79 168 170q-10 -3 -31 -3q-51 0 -92.5 43t-41.5 103q0 74 56.5 126t129.5 52q65 0 109 -42.5t44 -115.5
q0 -108 -90.5 -226.5t-208.5 -186.5z" />
    <glyph glyph-name="uni0229" unicode="&#x229;" horiz-adv-x="992" 
d="M602 897q176 0 269.5 -102t84.5 -253q-2 -96 -56 -150t-159 -54h-429q30 -128 181 -128q103 0 194 54q43 17 61 -21l45 -92q15 -29 -15 -52q-104 -82 -249 -106l-83 -108q62 -13 99.5 -58.5t37.5 -112.5q0 -110 -95 -194t-209 -84q-105 0 -152 78q-6 20 10 31l85 66
q14 10 28 0q29 -29 68 -29q45 0 77 30.5t32 69.5q0 27 -17 45t-49 18q-36 0 -82 -35q-5 -4 -11.5 -5t-12.5 5l-59 61q-8 10 2 24l156 196q-144 23 -226.5 115.5t-82.5 238.5q0 142 73.5 269t203 205t280.5 78zM568 666q-71 0 -131.5 -37.5t-94.5 -100.5h366q-2 63 -37 100.5
t-103 37.5z" />
    <glyph glyph-name="uni0237" unicode="&#x237;" horiz-adv-x="492" 
d="M-57 -397q-19 -7 -34 0.5t-20 25.5l-56 217q-10 41 26 53q118 42 143 139l220 821q5 26 33 26h222q31 0 26 -33l-225 -840q-45 -169 -119 -261t-216 -148z" />
    <glyph glyph-name="circumflex" unicode="&#x2c6;" horiz-adv-x="881" 
d="M680 1423l-357 -184q-28 -14 -30 -31l-36 -134q-6 -24 7 -31.5t36 2.5l342 144l264 -144q19 -10 35.5 -2.5t23.5 31.5l35 129q4 21 -16 36l-255 184q-20 15 -49 0z" />
    <glyph glyph-name="caron" unicode="&#x2c7;" horiz-adv-x="881" 
d="M627 1047l357 184q28 14 30 31l36 133q7 24 -6.5 32t-36.5 -2l-342 -144l-264 144q-19 10 -35.5 2t-23.5 -32l-35 -128q-4 -21 16 -36l255 -184q20 -15 49 0z" />
    <glyph glyph-name="breve" unicode="&#x2d8;" horiz-adv-x="838" 
d="M595 1022q-143 0 -223.5 82.5t-52.5 205.5q12 44 40 44h122q9 0 14 -5.5t6 -11.5t2 -20q-5 -49 25 -79t90 -30q61 0 106 29.5t67 79.5q21 37 44 37h128q36 0 19 -44q-46 -136 -150 -212t-237 -76z" />
    <glyph glyph-name="dotaccent" unicode="&#x2d9;" horiz-adv-x="472" 
d="M448 1081q-60 0 -103 43t-43 103q0 58 43 100t103 42q58 0 100 -41.5t42 -100.5q0 -60 -42 -103t-100 -43z" />
    <glyph glyph-name="ring" unicode="&#x2da;" horiz-adv-x="577" 
d="M437 984q-71 0 -113.5 43t-42.5 110q0 99 79.5 174.5t179.5 75.5q70 0 113 -42.5t43 -110.5q0 -101 -80.5 -175.5t-178.5 -74.5zM472 1114q35 0 63.5 27t28.5 64q0 24 -16.5 38.5t-40.5 14.5q-35 0 -64.5 -27t-29.5 -65q0 -23 17 -37.5t42 -14.5z" />
    <glyph glyph-name="ogonek" unicode="&#x2db;" horiz-adv-x="623" 
d="M82 -462q-86 0 -138 40t-52 111q0 73 56.5 143.5t140 119t177.5 72.5l137 -24q-115 -5 -201 -62t-86 -136q0 -69 85 -69q46 0 108 26q20 7 31.5 -0.5t6.5 -24.5l-28 -102q-3 -21 -31 -36q-96 -58 -206 -58z" />
    <glyph glyph-name="tilde" unicode="&#x2dc;" horiz-adv-x="966" 
d="M847 1047q-42 0 -82.5 15t-67.5 33.5t-65 33.5t-77 15q-33 0 -62.5 -12t-43.5 -22.5t-34 -29.5q-20 -20 -38 1l-80 94q-15 19 2 43q1 2 16 20.5t25 30t31.5 31t42.5 30.5t52 20t65 9q48 0 91 -15t69.5 -32.5t61 -32.5t68.5 -15q77 0 141 64q21 18 38 -2l80 -94
q17 -20 -2 -43q-2 -2 -16.5 -21t-24.5 -30.5t-32 -30.5t-42.5 -30.5t-51.5 -20.5t-64 -9z" />
    <glyph glyph-name="hungarumlaut" unicode="&#x2dd;" horiz-adv-x="853" 
d="M290 1083q-12 0 -19 9t-5 22l105 337q2 13 13.5 22t23.5 9h205q15 0 22 -8.5t2 -22.5l-148 -338q-13 -30 -38 -30h-161zM691 1083q-12 0 -19.5 9.5t-3.5 21.5l104 337q2 13 13.5 22t23.5 9h205q15 0 22 -8.5t2 -22.5l-148 -338q-13 -30 -38 -30h-161z" />
    <glyph glyph-name="uni0326" unicode="&#x326;" horiz-adv-x="0" 
d="M-456 -724q-19 -8 -25 -5t-14 17l-19 33q-10 18 14 35q123 83 169 170q-7 -3 -30 -3q-52 0 -93 42.5t-41 103.5q0 74 56 126t130 52q65 0 108 -42.5t43 -115.5q0 -108 -90 -226.5t-208 -186.5z" />
    <glyph glyph-name="uni0394" unicode="&#x394;" horiz-adv-x="1454" 
d="M1300 33q8 -14 2 -23.5t-23 -9.5h-1329q-16 0 -22 10.5t1 24.5l652 1347q7 15 26 15h16q20 0 24 -15zM328 271h573l-285 618z" />
    <glyph glyph-name="uni03A9" unicode="&#x3a9;" horiz-adv-x="1501" 
d="M42 262v-229q0 -14 9 -23.5t22 -9.5h571q31 0 31 33v175q0 11 -1.5 19t-3 12.5t-7 10t-7.5 7t-11 7t-12 7.5q-139 77 -217 186.5t-78 235.5q0 177 112 295.5t302 118.5q187 0 298 -118.5t111 -295.5q0 -126 -78 -235.5t-217 -186.5q-15 -9 -18.5 -11t-11 -9.5t-9 -17
t-1.5 -25.5v-175q0 -14 7.5 -23.5t20.5 -9.5h576q12 0 21 9.5t9 23.5v229q0 12 -9 21.5t-21 9.5h-198q34 17 72 53.5t76 88.5t62.5 125t24.5 150q0 194 -95.5 355t-259.5 252.5t-360 91.5q-197 0 -361.5 -91.5t-260 -252t-95.5 -355.5q0 -77 23.5 -150t59.5 -125t74 -88.5
t72 -53.5h-191q-13 0 -22 -9.5t-9 -21.5z" />
    <glyph glyph-name="uni03BC" unicode="&#x3bc;" horiz-adv-x="1136" 
d="M970 885q13 0 21.5 -9.5t8.5 -23.5v-472q0 -178 -96 -290.5t-269 -112.5q-115 -3 -227 77v-370q0 -13 -10 -22t-23 -9h-229q-14 0 -22.5 9t-8.5 22v1168q0 15 9 24t24 9h229q13 0 22 -9.5t9 -23.5v-488q55 -73 127 -87t122.5 31t50.5 128v416q0 14 8.5 23.5t22.5 9.5h231
z" />
    <glyph glyph-name="pi" unicode="&#x3c0;" horiz-adv-x="1258" 
d="M1140 887q13 0 22.5 -9t9.5 -22v-212q0 -33 -32 -33h-109v-281q0 -100 90 -149q30 -14 16 -39l-113 -210q-13 -24 -42 -12q-122 57 -182 149t-62 245v297h-219v-578q0 -14 -8.5 -23.5t-22.5 -9.5h-228q-14 0 -23.5 9.5t-9.5 23.5v578h-109q-13 0 -22 8.5t-9 22.5v212
q0 13 9 23t22 10h1022z" />
    <glyph glyph-name="uni0401" unicode="&#x401;" horiz-adv-x="1084" 
d="M729 1579q-53 0 -91.5 39.5t-38.5 92.5t38 90t92 37t92 -37t38 -90t-38.5 -92.5t-91.5 -39.5zM1177 1838q54 0 93 -37t39 -90t-39.5 -92.5t-92.5 -39.5t-91 39t-38 93t37.5 90.5t91.5 36.5zM1225 1354q36 0 28 -35l-55 -201q-5 -26 -35 -26h-575l-74 -276h423
q16 0 23.5 -9.5t2.5 -23.5l-54 -202q-7 -26 -34 -26h-431l-80 -293h592q16 0 23.5 -10t2.5 -25l-57 -201q-7 -26 -35 -26h-850q-16 0 -23 9.5t-3 25.5l345 1293q8 26 37 26h829z" />
    <glyph glyph-name="uni0403" unicode="&#x403;" horiz-adv-x="1102" 
d="M746 1486l-74 125q-6 12 -3.5 22t10.5 14l343 233q32 20 47 -4l104 -182q8 -18 4.5 -30.5t-14.5 -16.5l-373 -170q-30 -13 -44 9zM1225 1354q13 0 20 -9.5t3 -23.5l-59 -221q-8 -26 -45 -20q-86 12 -150 12h-406l-284 -1066q-8 -26 -37 -26h-227q-16 0 -23 9.5t-3 25.5
l345 1293q8 26 37 26h829z" />
    <glyph glyph-name="uni0404" unicode="&#x404;" horiz-adv-x="1378" 
d="M1454 1133q10 -18 10.5 -27.5t-15.5 -22.5l-182 -116q-29 -17 -61 15q-97 101 -241 101q-143 0 -274.5 -76.5t-206.5 -199.5h441q31 0 23 -31l-52 -200q-4 -13 -15.5 -21t-24.5 -8h-443q8 -123 88.5 -199.5t220.5 -76.5q94 0 182 34t143 82q37 32 64 0l128 -163
q21 -28 -12 -52q-248 -184 -540 -184q-262 0 -415.5 145.5t-153.5 387.5q0 163 72 318.5t191 271t281.5 185.5t333.5 70q160 0 280.5 -64.5t177.5 -168.5z" />
    <glyph glyph-name="uni0406" unicode="&#x406;" horiz-adv-x="538" 
d="M40 0q-16 0 -23 9.5t-3 25.5l345 1293q8 26 37 26h227q16 0 23.5 -10t2.5 -25l-345 -1293q-8 -26 -37 -26h-227z" />
    <glyph glyph-name="uni0407" unicode="&#x407;" horiz-adv-x="538" 
d="M382 1579q-53 0 -91 39t-38 93q0 53 38 90t91 37q55 0 93.5 -37t38.5 -90q0 -54 -39 -93t-93 -39zM831 1579q-53 0 -91.5 39.5t-38.5 92.5q0 54 38 90.5t92 36.5q52 0 91.5 -37t39.5 -90t-39.5 -92.5t-91.5 -39.5zM40 0q-16 0 -23 9.5t-3 25.5l345 1293q8 26 37 26h227
q16 0 23.5 -10t2.5 -25l-345 -1293q-8 -26 -37 -26h-227z" />
    <glyph glyph-name="uni0408" unicode="&#x408;" horiz-adv-x="586" 
d="M672 1354q16 0 23.5 -10t2.5 -25l-405 -1506q-44 -163 -143 -266.5t-235 -147.5q-47 -14 -56 25l-57 224q-4 14 1.5 26t22.5 12q74 6 122.5 53t67.5 115l394 1474q5 26 34 26h228z" />
    <glyph glyph-name="uni040C" unicode="&#x40c;" horiz-adv-x="1334" 
d="M587 1486l-75 125q-6 12 -3.5 22t10.5 14l344 233q32 20 46 -4l105 -182q8 -18 4 -30.5t-15 -16.5l-373 -170q-29 -14 -43 9zM1463 1354q21 0 26 -12.5t-12 -25.5l-752 -637l443 -643q12 -14 5.5 -25t-24.5 -11h-273q-24 0 -36 19l-385 569l-151 -562q-8 -26 -37 -26
h-227q-16 0 -23 9.5t-3 25.5l345 1293q8 26 37 26h227q16 0 23.5 -10t2.5 -25l-142 -536l632 555q16 16 38 16h286z" />
    <glyph glyph-name="uni040D" unicode="&#x40d;" horiz-adv-x="1586" 
d="M821 1633l373 -170q29 -12 42 11l76 124q12 22 -7 37l-343 231q-12 8 -26.5 8t-20.5 -12l-104 -180q-10 -18 -6.5 -30.5t16.5 -18.5zM399 1354h229q13 0 19 -9.5t2 -21.5l-222 -832l826 833q27 30 63 30h230q12 0 17.5 -8.5t3.5 -21.5l-347 -1293q-2 -13 -14 -22t-26 -9
h-229q-13 0 -19 9.5t-2 21.5l229 859l-833 -860q-27 -30 -62 -30h-231q-12 0 -17.5 8.5t-3.5 21.5l347 1293q2 13 14 22t26 9z" />
    <glyph glyph-name="uni040E" unicode="&#x40e;" horiz-adv-x="1338" 
d="M968 1491q-143 0 -223.5 82.5t-50.5 205.5q8 43 40 43h122q20 0 20 -36q-4 -49 26.5 -79t90.5 -30t105 29.5t68 79.5q21 36 44 36h128q34 0 19 -43q-46 -136 -151 -212t-238 -76zM1515 1354q25 0 26 -14t-15 -31l-1120 -1286q-19 -23 -36 -23h-240q-23 0 -28.5 18
t11.5 39l418 485l-255 767q-6 19 3 32t32 13h231q36 0 43 -31l172 -523l449 521q30 33 66 33h243z" />
    <glyph glyph-name="uni0410" unicode="&#x410;" horiz-adv-x="1449" 
d="M1300 35q5 -35 -26 -35h-219q-26 0 -31 30l-26 138h-639l-106 -147q-18 -21 -38 -21h-265q-18 0 -24.5 11t5.5 27l939 1297q14 19 38 19h118q26 0 31 -28zM526 403h427l-90 473z" />
    <glyph glyph-name="uni0411" unicode="&#x411;" horiz-adv-x="1206" 
d="M1225 1354q13 0 20 -9.5t3 -23.5l-59 -221q-8 -26 -45 -20q-86 12 -150 12h-406l-67 -252h262q158 0 251.5 -93.5t93.5 -239.5q0 -136 -75.5 -253.5t-200.5 -185.5t-267 -68h-545q-16 0 -23 9.5t-3 25.5l345 1293q8 26 37 26h829zM691 578h-240l-85 -316l226 2
q99 0 166.5 61t67.5 144q0 48 -33 78.5t-102 30.5z" />
    <glyph glyph-name="uni0412" unicode="&#x412;" horiz-adv-x="1225" 
d="M984 715q149 -97 149 -269q0 -123 -73.5 -226.5t-192.5 -161.5t-254 -58h-571q-36 0 -28 35l345 1291q8 28 37 28h515q148 0 232 -77.5t84 -203.5q0 -113 -65 -207t-178 -151zM699 798q95 0 163 56t68 139q0 99 -125 99h-217l-79 -294h190zM595 262q102 0 172.5 53.5
t70.5 140.5q0 113 -133 113h-257l-84 -307h231z" />
    <glyph glyph-name="uni0413" unicode="&#x413;" horiz-adv-x="1093" 
d="M1225 1354q13 0 20 -9.5t3 -23.5l-59 -221q-8 -26 -45 -20q-86 12 -150 12h-406l-284 -1066q-8 -26 -37 -26h-227q-16 0 -23 9.5t-3 25.5l345 1293q8 26 37 26h829z" />
    <glyph glyph-name="uni0414" unicode="&#x414;" horiz-adv-x="1475" 
d="M1500 1354q35 0 24 -35l-276 -1029h85q29 0 24 -31l-114 -422h-290l45 163h-757l-45 -163h-290l115 422q2 14 13.5 22.5t26.5 8.5h80q207 350 390 1027q11 37 45 37h924zM443 290h515l208 774h-414q-128 -474 -309 -774z" />
    <glyph glyph-name="uni0415" unicode="&#x415;" horiz-adv-x="1084" 
d="M1225 1354q36 0 28 -35l-55 -201q-5 -26 -35 -26h-575l-74 -276h423q16 0 23.5 -9.5t2.5 -23.5l-54 -202q-7 -26 -34 -26h-431l-80 -293h592q16 0 23.5 -10t2.5 -25l-57 -201q-7 -26 -35 -26h-850q-16 0 -23 9.5t-3 25.5l345 1293q8 26 37 26h829z" />
    <glyph glyph-name="uni0416" unicode="&#x416;" horiz-adv-x="2107" 
d="M2235 1354q21 0 26 -12.5t-12 -25.5l-753 -637l444 -643q10 -14 4.5 -25t-23.5 -11h-272q-25 0 -37 19l-387 571l-151 -564q-5 -26 -34 -26h-228q-16 0 -23.5 10t-2.5 25l146 548l-679 -560q-25 -23 -55 -23h-228q-31 0 -35.5 23t18.5 43l755 616l-383 611q-16 27 -5 44
t39 17h242q18 0 27 -5.5t19 -24.5l341 -538l144 542q8 26 36 26h227q16 0 23 -9.5t3 -25.5l-144 -536l634 555q13 16 38 16h286z" />
    <glyph glyph-name="uni0417" unicode="&#x417;" horiz-adv-x="1159" 
d="M915 693q165 -79 165 -233q0 -83 -36.5 -158t-99.5 -131.5t-144.5 -98t-174.5 -63t-186 -21.5q-312 0 -420 227q-13 24 14 44l194 145q28 19 44 -3q61 -127 231 -127q112 0 193 53.5t81 137.5q0 106 -241 109l64 237q128 2 206 42t78 122q0 51 -43 77t-113 26t-140.5 -32
t-128.5 -91q-29 -23 -45 -4l-120 144q-10 14 -7 22t18 22q114 112 252 169.5t279 57.5q169 0 274.5 -79t105.5 -211q0 -125 -82 -224.5t-218 -158.5z" />
    <glyph glyph-name="uni0418" unicode="&#x418;" horiz-adv-x="1454" 
d="M399 1354h229q13 0 19 -9.5t2 -21.5l-222 -832l826 833q27 30 63 30h230q12 0 17.5 -8.5t3.5 -21.5l-347 -1293q-2 -13 -14 -22t-26 -9h-229q-13 0 -19 9.5t-2 21.5l229 859l-833 -860q-27 -30 -62 -30h-231q-12 0 -17.5 8.5t-3.5 21.5l347 1293q2 13 14 22t26 9z" />
    <glyph glyph-name="uni0419" unicode="&#x419;" horiz-adv-x="1454" 
d="M1029 1491q-143 0 -223.5 82.5t-52.5 205.5q12 43 40 43h122q9 0 13.5 -5.5t6 -11t2.5 -19.5q-5 -49 25 -79t90 -30q61 0 106 29.5t67 79.5q21 36 44 36h128q36 0 19 -43q-46 -136 -150 -212t-237 -76zM399 1354h229q13 0 19 -9.5t2 -21.5l-222 -832l826 833q27 30 63 30
h230q12 0 17.5 -8.5t3.5 -21.5l-347 -1293q-2 -13 -14 -22t-26 -9h-229q-13 0 -19 9.5t-2 21.5l229 859l-833 -860q-27 -30 -62 -30h-231q-12 0 -17.5 8.5t-3.5 21.5l347 1293q2 13 14 22t26 9z" />
    <glyph glyph-name="uni041A" unicode="&#x41a;" horiz-adv-x="1334" 
d="M1463 1354q21 0 26 -12.5t-12 -25.5l-752 -637l443 -643q12 -14 5.5 -25t-24.5 -11h-273q-24 0 -36 19l-385 569l-151 -562q-8 -26 -37 -26h-227q-16 0 -23 9.5t-3 25.5l345 1293q8 26 37 26h227q16 0 23.5 -10t2.5 -25l-142 -536l632 555q16 16 38 16h286z" />
    <glyph glyph-name="uni041B" unicode="&#x41b;" horiz-adv-x="1393" 
d="M1480 1354q36 0 25 -35l-346 -1289q-5 -30 -36 -30h-231q-27 0 -22 30l284 1062h-517l-193 -719q-22 -86 -62.5 -153.5t-87 -110t-101.5 -70t-106 -38.5t-101 -11q-40 0 -67 9t-21 31l45 163q9 43 48 43q128 0 167 139l252 944q11 35 45 35h1025z" />
    <glyph glyph-name="uni041C" unicode="&#x41c;" horiz-adv-x="1815" 
d="M40 0q-16 0 -23 9.5t-3 25.5l345 1293q8 26 37 26h213q27 0 35 -25l265 -836l726 843q15 18 38 18h227q16 0 23.5 -9.5t3.5 -25.5l-348 -1293q-5 -26 -34 -26h-228q-16 0 -23.5 10t-2.5 25l210 767l-640 -759q-24 -27 -42 -27h-21q-18 0 -26 27l-258 757l-210 -774
q-8 -26 -37 -26h-227z" />
    <glyph glyph-name="uni041D" unicode="&#x41d;" horiz-adv-x="1430" 
d="M1515 1354q16 0 23 -9.5t3 -25.5l-345 -1293q-8 -26 -37 -26h-227q-16 0 -23 9.5t-3 25.5l139 520h-601l-140 -529q-8 -26 -37 -26h-227q-16 0 -23 9.5t-3 25.5l345 1293q8 26 37 26h227q16 0 23.5 -10t2.5 -25l-134 -503h599l137 512q8 26 37 26h227z" />
    <glyph glyph-name="uni041E" unicode="&#x41e;" horiz-adv-x="1542" 
d="M672 -12q-255 0 -405.5 148t-150.5 385q0 162 73 317.5t193 271t282 186t332 70.5q255 0 405.5 -149t150.5 -386q0 -162 -73 -317t-193 -270t-282 -185.5t-332 -70.5zM725 271q103 0 201 43t169.5 113.5t114.5 163.5t43 188q0 139 -83 221.5t-229 82.5q-136 0 -258 -73
t-194 -191t-72 -246q0 -139 82 -220.5t226 -81.5z" />
    <glyph glyph-name="uni041F" unicode="&#x41f;" horiz-adv-x="1417" 
d="M1508 1354q13 0 19 -9t2 -22l-344 -1292q-4 -12 -15 -21.5t-23 -9.5h-229q-14 0 -21 9t-3 22l276 1033h-590l-276 -1033q-4 -12 -15 -21.5t-23 -9.5h-230q-29 0 -24 31l347 1292q2 13 14 22t26 9h1109z" />
    <glyph glyph-name="uni0420" unicode="&#x420;" horiz-adv-x="1246" 
d="M935 1354q184 0 283 -106t99 -273q0 -117 -48.5 -224.5t-130 -186t-195 -125.5t-237.5 -47h-305l-97 -366q-8 -26 -37 -26h-227q-16 0 -23 9.5t-3 25.5l345 1293q8 26 37 26h539zM752 654q114 0 197.5 83.5t83.5 192.5q0 73 -38 117.5t-120 44.5h-287l-116 -438h280z" />
    <glyph glyph-name="uni0421" unicode="&#x421;" horiz-adv-x="1378" 
d="M687 -12q-262 0 -415.5 145.5t-153.5 387.5q0 163 72 318.5t191 271t281.5 185.5t333.5 70q160 0 280.5 -64.5t177.5 -168.5q10 -18 10.5 -27.5t-15.5 -22.5l-182 -116q-29 -17 -61 15q-97 101 -241 101q-102 0 -203 -42.5t-177.5 -111.5t-124 -164t-47.5 -194
q0 -133 81 -216.5t228 -83.5q94 0 182 34t143 82q37 32 64 0l128 -163q21 -28 -12 -52q-248 -184 -540 -184z" />
    <glyph glyph-name="uni0422" unicode="&#x422;" horiz-adv-x="1079" 
d="M1236 1354q16 0 23 -9.5t3 -25.5l-54 -201q-8 -26 -36 -26h-313l-285 -1066q-8 -26 -36 -26h-227q-16 0 -23 9.5t-3 25.5l283 1057h-306q-34 0 -26 34l54 202q7 26 36 26h910z" />
    <glyph glyph-name="uni0423" unicode="&#x423;" horiz-adv-x="1338" 
d="M1515 1354q25 0 26 -14t-15 -31l-1120 -1286q-19 -23 -36 -23h-240q-23 0 -28.5 18t11.5 39l418 485l-255 767q-6 19 3 32t32 13h231q36 0 43 -31l172 -523l449 521q30 33 66 33h243z" />
    <glyph glyph-name="uni0424" unicode="&#x424;" horiz-adv-x="1622" 
d="M1187 1198q107 0 191 -33t135.5 -90t78 -129.5t26.5 -154.5q0 -132 -60 -250.5t-158 -201t-227 -131t-264 -48.5h-19l-36 -134q-8 -26 -37 -26h-227q-16 0 -23 9.5t-3 25.5l33 125h-2q-209 0 -319.5 111t-110.5 286q0 176 101.5 325t264.5 232.5t344 83.5h1l35 130
q5 26 35 26h227q16 0 23.5 -10t2.5 -25l-33 -121h21zM962 392q100 0 190 53t143.5 137.5t53.5 175.5q0 92 -58 149.5t-173 57.5h-12l-155 -573h11zM437 609q0 -94 56.5 -154.5t166.5 -62.5l154 573q-100 -1 -187.5 -51.5t-138.5 -132t-51 -172.5z" />
    <glyph glyph-name="uni0425" unicode="&#x425;" horiz-adv-x="1294" 
d="M1456 1354q20 0 26 -12t-8 -26l-601 -637l269 -644q7 -16 0 -25.5t-24 -9.5h-269q-27 0 -37 24l-170 410l-392 -417q-14 -17 -38 -17h-248q-20 0 -25 12t9 26l597 632l-267 649q-5 16 1 25.5t23 9.5h264q25 0 36 -25l174 -416l399 423q15 18 38 18h243z" />
    <glyph glyph-name="uni0426" unicode="&#x426;" horiz-adv-x="1421" 
d="M1430 1354q17 0 24 -9.5t2 -25.5l-274 -1029h17q56 0 78 -30t6 -86l-49 -183q-10 -43 -14 -99q0 -16 -9 -28t-22 -12h-207q-35 0 -49 19.5t-6 53.5l19 75h-906q-16 0 -23 9.5t-3 25.5l345 1293q8 26 37 26h227q16 0 23.5 -10t2.5 -25l-274 -1029h514l279 1038q5 26 35 26
h227z" />
    <glyph glyph-name="uni0427" unicode="&#x427;" horiz-adv-x="1263" 
d="M1376 1354q16 0 23.5 -10t2.5 -25l-345 -1293q-8 -26 -36 -26h-228q-16 0 -23 9.5t-3 25.5l129 480q-171 -88 -325 -88q-211 0 -322 104.5t-68 265.5l111 416q10 31 15 103q0 38 33 38h203q36 0 50.5 -21.5t5.5 -56.5l-103 -382q-24 -88 31.5 -144t182.5 -56
q69 0 139.5 27t122.5 79l142 528q5 26 35 26h227z" />
    <glyph glyph-name="uni0428" unicode="&#x428;" horiz-adv-x="1943" 
d="M2029 1354q16 0 23 -9.5t3 -25.5l-347 -1293q-5 -26 -35 -26h-1633q-16 0 -23 9.5t-3 25.5l345 1293q8 26 37 26h227q16 0 23.5 -10t2.5 -25l-274 -1029h409l278 1038q8 26 37 26h227q16 0 23 -9.5t3 -25.5l-274 -1029h409l278 1038q8 26 37 26h227z" />
    <glyph glyph-name="uni0429" unicode="&#x429;" horiz-adv-x="2011" 
d="M2029 1354q16 0 23 -9.5t3 -25.5l-276 -1029h10q56 0 78 -30t6 -86l-49 -183q-10 -43 -14 -99q0 -16 -9 -28t-22 -12h-207q-35 0 -48.5 19.5t-4.5 53.5l17 75h-1496q-16 0 -23 9.5t-3 25.5l345 1293q8 26 37 26h227q16 0 23.5 -10t2.5 -25l-274 -1029h409l278 1038
q8 26 37 26h227q16 0 23 -9.5t3 -25.5l-274 -1029h409l278 1038q8 26 37 26h227z" />
    <glyph glyph-name="uni042A" unicode="&#x42a;" horiz-adv-x="1343" 
d="M901 962q183 0 282.5 -106.5t99.5 -272.5q0 -116 -49 -224t-130.5 -186.5t-195 -125.5t-236.5 -47h-561q-36 0 -28 35l276 1029h-178q-15 0 -20 7.5t-3 23.5l61 228q4 31 40 31h434q16 0 23.5 -10t2.5 -25l-96 -357h278zM717 262q114 0 197.5 83.5t83.5 192.5
q0 72 -39 116.5t-119 44.5h-286l-118 -437h281z" />
    <glyph glyph-name="uni042B" unicode="&#x42b;" horiz-adv-x="1806" 
d="M831 962q183 0 282.5 -106.5t99.5 -272.5q0 -156 -82 -290t-223.5 -213.5t-306.5 -79.5h-561q-16 0 -23 9.5t-3 25.5l345 1293q8 26 37 26h227q16 0 23.5 -10t2.5 -25l-95 -357h277zM1890 1354q36 0 28 -35l-347 -1293q-5 -26 -35 -26h-227q-16 0 -23.5 10t-2.5 25
l345 1293q8 26 35 26h227zM647 262q114 0 198 83.5t84 192.5q0 73 -39 117t-121 44h-285l-118 -437h281z" />
    <glyph glyph-name="uni042C" unicode="&#x42c;" horiz-adv-x="1273" 
d="M831 962q183 0 282.5 -106.5t99.5 -272.5q0 -156 -82 -290t-223.5 -213.5t-306.5 -79.5h-561q-16 0 -23 9.5t-3 25.5l345 1293q8 26 37 26h227q16 0 23.5 -10t2.5 -25l-95 -357h277zM647 262q114 0 198 83.5t84 192.5q0 73 -39 117t-121 44h-285l-118 -437h281z" />
    <glyph glyph-name="uni042D" unicode="&#x42d;" horiz-adv-x="1372" 
d="M843 1366q251 0 397.5 -144t146.5 -387q0 -171 -74 -328t-196 -270.5t-287 -181t-341 -67.5q-159 0 -280.5 56t-189.5 154q-18 25 12 45l205 148q29 20 43 -2q92 -120 261 -120q142 0 268.5 78t199.5 200h-430q-31 0 -23 31l52 200q4 13 15.5 21t24.5 8h433
q-7 124 -90.5 199t-222.5 75q-165 0 -330 -128q-27 -19 -43 0l-132 158q-17 20 10 43q268 212 571 212z" />
    <glyph glyph-name="uni042E" unicode="&#x42e;" horiz-adv-x="2068" 
d="M1520 1366q255 0 405.5 -149t150.5 -386q0 -162 -73 -317t-193 -270t-282 -185.5t-332 -70.5q-254 0 -404 148t-150 385q0 29 2 43h-196l-144 -538q-8 -26 -37 -26h-227q-16 0 -23 9.5t-3 25.5l345 1293q8 26 37 26h227q16 0 23.5 -10t2.5 -25l-132 -495h191
q103 235 328 388.5t484 153.5zM1251 271q103 0 200.5 43t168.5 113.5t114 163.5t43 188q0 139 -83 221.5t-227 82.5q-137 0 -259.5 -73t-194.5 -191t-72 -246q0 -139 82.5 -220.5t227.5 -81.5z" />
    <glyph glyph-name="uni042F" unicode="&#x42f;" horiz-adv-x="1280" 
d="M1364 1354q17 0 24 -9.5t2 -25.5l-345 -1293q-5 -26 -35 -26h-227q-17 0 -24 9.5t-2 25.5l95 357h-271l-321 -362q-27 -30 -64 -30h-210q-24 0 -30 14.5t9 30.5l368 411q-78 51 -117 137.5t-39 192.5q0 158 80 287.5t224 205t324 75.5h559zM644 654h278l118 438h-292
q-115 0 -193.5 -82t-78.5 -191q0 -75 41.5 -120t126.5 -45z" />
    <glyph glyph-name="uni0430" unicode="&#x430;" horiz-adv-x="1100" 
d="M1095 885q16 0 23 -9.5t3 -23.5l-220 -826q-8 -26 -35 -26h-220q-16 0 -23.5 9.5t-2.5 23.5l17 64q-131 -111 -281 -111q-141 0 -227.5 92t-86.5 248q0 106 41.5 210t110 183.5t164 128.5t197.5 49q181 0 256 -142l27 104q8 26 35 26h222zM309 375q0 -70 40.5 -109.5
t115.5 -39.5q112 0 191.5 86t79.5 195q0 69 -41 110t-112 41q-115 0 -194.5 -86.5t-79.5 -196.5z" />
    <glyph glyph-name="uni0431" unicode="&#x431;" horiz-adv-x="1089" 
d="M1119 1366q16 4 26.5 -1t6.5 -20l-53 -203q-5 -15 -18 -25.5t-27 -10.5h-129q-285 0 -437 -236q77 27 172 27q174 0 279.5 -96.5t105.5 -260.5q0 -110 -46.5 -212.5t-124 -177t-183.5 -119.5t-221 -45q-165 0 -269 88t-114 238q-2 10 -2 30v2v3q1 194 67 377t179 322.5
t274.5 223.5t342.5 84h67q47 0 104 12zM783 502q0 71 -41.5 113.5t-114.5 42.5q-113 0 -196.5 -84.5t-83.5 -191.5q0 -71 41.5 -113.5t114.5 -42.5q113 0 196.5 85t83.5 191z" />
    <glyph glyph-name="uni0432" unicode="&#x432;" horiz-adv-x="1011" 
d="M757 470q78 -24 116 -65t38 -108q0 -88 -57.5 -156.5t-151 -104.5t-204.5 -36h-493q-11 0 -16 7t-3 17l224 839q6 22 30 22h487q128 0 195 -47.5t67 -131.5q0 -87 -65.5 -151.5t-166.5 -84.5zM550 533q66 0 107.5 32.5t41.5 81.5q0 61 -104 61h-163l-47 -175h165z
M458 177q78 0 125 33t47 85q0 33 -31 52t-90 19h-169l-50 -189h168z" />
    <glyph glyph-name="uni0433" unicode="&#x433;" horiz-adv-x="909" 
d="M918 885q13 0 20 -9.5t3 -23.5l-58 -213q-4 -12 -17 -17.5t-28 -3.5q-72 12 -97 12h-281l-165 -599q-2 -12 -13.5 -21.5t-24.5 -9.5h-221q-29 0 -24 31l221 823q9 31 39 31h646z" />
    <glyph glyph-name="uni0434" unicode="&#x434;" horiz-adv-x="1258" 
d="M1159 885q34 0 26 -35l-158 -595h80q14 0 20.5 -9t4.5 -24l-91 -337q-11 -31 -41 -31h-224q-29 0 -18 31l30 115h-554l-31 -115q-8 -31 -36 -31h-224q-13 0 -20 8.5t-3 22.5l90 337q4 14 16 23.5t26 9.5h101q138 200 238 590l1 7q7 33 42 33h725zM439 255h306l98 375
h-232q-60 -216 -172 -375z" />
    <glyph glyph-name="uni0435" unicode="&#x435;" horiz-adv-x="992" 
d="M602 897q176 0 269.5 -102t84.5 -253q-2 -96 -56 -150t-159 -54h-429q30 -128 181 -128q103 0 194 54q43 17 61 -21l45 -92q15 -29 -15 -52q-141 -113 -341 -113q-179 0 -285.5 95.5t-106.5 263.5q0 142 73.5 269t203 205t280.5 78zM568 666q-71 0 -131.5 -37.5
t-94.5 -100.5h366q-2 63 -37 100.5t-103 37.5z" />
    <glyph glyph-name="uni0436" unicode="&#x436;" horiz-adv-x="1650" 
d="M1654 885q21 0 24.5 -16t-17.5 -32l-488 -393l314 -388q15 -20 5 -38t-34 -18h-247q-16 0 -27 14l-247 338l-87 -319q-2 -13 -13 -23t-25 -10h-213q-14 0 -20.5 9t-4.5 24l86 318l-419 -337q-19 -14 -36 -14h-247q-23 0 -25.5 20t18.5 36l525 397l-280 382q-11 16 1 33
t34 17h243q21 0 28 -12l211 -328l54 201q10 34 14 101q4 38 31 38h236q13 0 20 -9t5 -22l-84 -307l377 319q19 19 45 19h243z" />
    <glyph glyph-name="uni0437" unicode="&#x437;" horiz-adv-x="873" 
d="M644 450q109 -43 109 -155q0 -91 -65.5 -163t-165.5 -109t-210 -37q-112 0 -194 40t-121 111q-11 16 8 31l132 113q19 17 35 -2q24 -37 73 -56.5t106 -19.5q66 0 113.5 28t47.5 68q0 32 -31 49.5t-108 19.5l44 161q166 5 166 85q0 29 -28 47t-74 18q-52 0 -107.5 -23
t-95.5 -55q-28 -18 -42 6l-66 106q-12 17 4 33q162 151 369 151q135 0 217 -63.5t82 -160.5q0 -78 -53 -136t-145 -87z" />
    <glyph glyph-name="uni0438" unicode="&#x438;" horiz-adv-x="1098" 
d="M1088 885q9 0 14.5 -6.5t3.5 -15.5l-224 -839q-2 -10 -11.5 -17t-20.5 -7h-225q-10 0 -15.5 7.5t-3.5 16.5l116 439l-536 -440q-28 -23 -45 -23h-131q-21 0 -17 23l226 840q5 22 27 22h231q10 0 15 -6.5t3 -15.5l-125 -464l538 458q33 28 43 28h137z" />
    <glyph glyph-name="uni0439" unicode="&#x439;" horiz-adv-x="1098" 
d="M712 1022q-144 0 -225 83t-51 204q9 45 40 45h121q19 0 23 -37q-5 -49 24.5 -79t89.5 -30t105.5 29.5t68.5 79.5q21 37 43 37h129q36 0 19 -45q-46 -135 -150.5 -211t-236.5 -76zM1088 885q9 0 14.5 -6.5t3.5 -15.5l-224 -839q-2 -10 -11.5 -17t-20.5 -7h-225
q-10 0 -15.5 7.5t-3.5 16.5l116 439l-536 -440q-28 -23 -45 -23h-131q-21 0 -17 23l226 840q5 22 27 22h231q10 0 15 -6.5t3 -15.5l-125 -464l538 458q33 28 43 28h137z" />
    <glyph glyph-name="uni043A" unicode="&#x43a;" horiz-adv-x="1056" 
d="M1060 885q21 0 24.5 -16t-15.5 -32l-489 -393l314 -388q15 -20 5 -38t-35 -18h-246q-17 0 -28 14l-246 337l-85 -318q-4 -13 -15.5 -23t-23.5 -10h-213q-14 0 -21 9.5t-3 23.5l191 713q8 30 13 101q4 38 33 38h235q13 0 19.5 -9t4.5 -22l-83 -307l376 319q19 19 45 19
h243z" />
    <glyph glyph-name="uni043B" unicode="&#x43b;" horiz-adv-x="1051" 
d="M1038 885q34 0 26 -35l-221 -820q-8 -30 -38 -30h-222q-30 0 -22 30l159 602h-253l-71 -269q-99 -370 -462 -370q-45 0 -35 43l44 160q10 39 52 44q89 7 121 126l129 484q8 35 43 35h750z" />
    <glyph glyph-name="uni043C" unicode="&#x43c;" horiz-adv-x="1391" 
d="M1382 885q20 0 15 -24l-224 -837q-6 -24 -28 -24h-237q-9 0 -14.5 7t-3.5 17l118 441l-383 -439q-17 -21 -33 -21h-24q-12 0 -21 21l-153 437l-118 -439q-2 -9 -11 -16.5t-19 -7.5h-236q-20 0 -17 24l224 837q5 24 29 24h245q17 0 24 -21l169 -449l399 453q20 17 33 17
h266z" />
    <glyph glyph-name="uni043D" unicode="&#x43d;" horiz-adv-x="1110" 
d="M1097 885q11 0 17 -6t4 -15l-226 -840q-5 -24 -29 -24h-235q-11 0 -16 7t-3 17l77 281h-334l-76 -281q-1 -10 -10 -17t-18 -7h-236q-22 0 -19 24l226 840q5 21 27 21h236q9 0 15.5 -6t4.5 -15l-80 -296h333l80 296q5 21 28 21h234z" />
    <glyph glyph-name="uni043E" unicode="&#x43e;" horiz-adv-x="1050" 
d="M430 -14q-174 0 -279.5 97t-105.5 261q0 109 46.5 210.5t124 176.5t184 120.5t220.5 45.5q174 0 279.5 -96.5t105.5 -260.5q0 -110 -46.5 -212.5t-124 -177t-183.5 -119.5t-221 -45zM465 226q113 0 195.5 85t82.5 191q0 71 -41.5 113.5t-114.5 42.5q-113 0 -195.5 -84
t-82.5 -192q0 -72 41 -114t115 -42z" />
    <glyph glyph-name="uni043F" unicode="&#x43f;" horiz-adv-x="1060" 
d="M843 31q-4 -12 -15 -21.5t-23 -9.5h-222q-14 0 -21 9t-3 22l160 599h-282l-158 -599q-4 -12 -15 -21.5t-23 -9.5h-222q-29 0 -24 31l220 823q4 13 15 22t25 9h785q13 0 19.5 -9t2.5 -22z" />
    <glyph glyph-name="uni0440" unicode="&#x440;" horiz-adv-x="1128" 
d="M760 897q141 0 228.5 -93t87.5 -250q0 -141 -68 -272t-186.5 -213.5t-252.5 -82.5q-81 0 -150.5 32t-116.5 90l-115 -429q-8 -26 -34 -26h-222q-16 0 -23 9.5t-3 23.5l258 965q8 32 13.5 64t7 51t2.5 40.5t1 24.5q0 54 46 54h140q47 0 74.5 -23.5t31.5 -66.5
q137 102 281 102zM536 226q115 0 195 84t80 190q0 74 -39.5 116t-115.5 42q-113 0 -192 -85.5t-79 -190.5q0 -74 39 -115t112 -41z" />
    <glyph glyph-name="uni0441" unicode="&#x441;" horiz-adv-x="918" 
d="M437 -14q-174 0 -283 99.5t-109 265.5q0 143 80.5 270t211 201.5t272.5 74.5q102 0 180 -38.5t117 -101.5q16 -28 12 -38q-4 -9 -14 -16l-140 -97q-30 -20 -56 0q-54 54 -134 54q-112 0 -193.5 -82.5t-81.5 -183.5q0 -77 48.5 -122.5t128.5 -45.5q82 0 168 57
q44 27 59 -7l66 -137q9 -16 6.5 -26.5t-20.5 -22.5q-145 -104 -318 -104z" />
    <glyph glyph-name="uni0442" unicode="&#x442;" horiz-adv-x="919" 
d="M960 885q22 0 17 -22l-55 -210q-2 -8 -11 -15.5t-19 -7.5h-241l-162 -606q-2 -9 -11 -16.5t-18 -7.5h-234q-24 0 -19 24l161 606h-240q-10 0 -15.5 7t-3.5 16l56 208q2 10 11 17t20 7h764z" />
    <glyph glyph-name="uni0443" unicode="&#x443;" horiz-adv-x="1003" 
d="M68 -347q-18 0 -23.5 11t2.5 25l215 342l-113 823q-3 31 28 31h205q28 0 31 -28l61 -501h8l318 508q10 21 37 21h218q18 0 23 -11t-4 -25l-767 -1177q-12 -19 -38 -19h-201z" />
    <glyph glyph-name="uni0444" unicode="&#x444;" horiz-adv-x="1739" 
d="M1380 897q142 0 229 -93t87 -250q0 -141 -68 -272t-186.5 -213.5t-252.5 -82.5q-81 0 -150.5 31.5t-115.5 88.5l-114 -427q-8 -26 -35 -26h-222q-16 0 -23.5 9.5t-2.5 23.5l111 411q-131 -111 -281 -111q-141 0 -227.5 92t-86.5 248q0 106 41.5 210t110 183.5t164 128.5
t197.5 49q181 0 257 -144l97 366q8 32 13.5 64.5t7 50.5t3 41t1.5 25q0 54 43 54h142q58 0 86.5 -39.5t11.5 -104.5l-110 -406q134 93 273 93zM309 380q0 -72 41.5 -113t118.5 -41q111 0 188 84t77 192q0 72 -42 114t-114 42q-112 0 -190.5 -85t-78.5 -193zM1156 226
q115 0 194.5 84t79.5 190q0 74 -39 116t-114 42q-114 0 -193 -85t-79 -191q0 -74 39 -115t112 -41z" />
    <glyph glyph-name="uni0445" unicode="&#x445;" horiz-adv-x="992" 
d="M1027 885q18 0 23 -11t-9 -25l-390 -405l170 -409q5 -16 -1 -25.5t-23 -9.5h-238q-28 0 -35 26l-74 212l-197 -221q-13 -17 -38 -17h-250q-18 0 -23 11t8 25l399 410l-168 404q-5 16 1 25.5t23 9.5h232q28 0 35 -26l73 -208l194 217q14 17 39 17h249z" />
    <glyph glyph-name="uni0446" unicode="&#x446;" horiz-adv-x="1168" 
d="M1059 885q14 0 21 -9t3 -22l-160 -599h12q57 0 79.5 -30t6.5 -86l-40 -148q-7 -30 -14 -99q-2 -16 -11 -28t-21 -12h-197q-34 0 -49.5 20t-6.5 53l21 75h-667q-13 0 -19.5 9t-4.5 22l222 823q2 12 13 21.5t24 9.5h222q13 0 19.5 -9t4.5 -22l-161 -599h284l160 599
q4 12 15 21.5t23 9.5h221z" />
    <glyph glyph-name="uni0447" unicode="&#x447;" horiz-adv-x="1077" 
d="M1071 885q14 0 20 -9t2 -24l-220 -822q-4 -13 -14 -21.5t-22 -8.5h-224q-31 0 -23 30l76 282q-133 -128 -302 -128q-142 0 -210.5 87t-25.5 246l56 207q16 63 21 121q0 19 8 29.5t21 10.5h202q34 0 47.5 -21.5t5.5 -56.5l-60 -226q-20 -70 6.5 -110.5t92.5 -40.5
q98 0 201 117l82 305q4 13 15 23t23 10h222z" />
    <glyph glyph-name="uni0448" unicode="&#x448;" horiz-adv-x="1633" 
d="M1597 885q14 0 21 -9t3 -22l-220 -823q-9 -31 -39 -31h-1326q-29 0 -24 31l222 823q2 12 13 21.5t24 9.5h222q13 0 19.5 -9t4.5 -22l-161 -599h271l159 599q2 12 13.5 21.5t24.5 9.5h221q29 0 24 -31l-161 -599h270l160 599q10 31 38 31h221z" />
    <glyph glyph-name="uni0449" unicode="&#x449;" horiz-adv-x="1706" 
d="M1597 885q14 0 21 -9t3 -22l-160 -599h13q57 0 79 -30t6 -86l-40 -148q-7 -30 -14 -99q-2 -16 -10.5 -28t-20.5 -12h-198q-34 0 -49.5 20t-6.5 53l21 75h-1205q-29 0 -24 31l222 823q2 12 13 21.5t24 9.5h222q13 0 19.5 -9t4.5 -22l-161 -599h271l159 599q2 12 13.5 21.5
t24.5 9.5h221q29 0 24 -31l-161 -599h270l160 599q10 31 38 31h221z" />
    <glyph glyph-name="uni044A" unicode="&#x44a;" horiz-adv-x="1114" 
d="M708 722q156 0 233.5 -74t77.5 -209q0 -193 -140.5 -316t-364.5 -123h-453q-14 0 -21.5 9t-3.5 22l160 599h-114q-13 0 -20 9t-3 22l52 195q2 12 13.5 20.5t24.5 8.5h366q13 0 21 -9.5t4 -21.5l-35 -132h203zM554 248q78 0 127.5 39.5t49.5 97.5q0 42 -29.5 65.5
t-87.5 23.5h-177l-60 -226h177z" />
    <glyph glyph-name="uni044B" unicode="&#x44b;" horiz-adv-x="1527" 
d="M684 722q156 0 233 -74t77 -209q0 -193 -140.5 -316t-364.5 -123h-453q-29 0 -24 31l221 823q4 13 14.5 22t23.5 9h220q13 0 20.5 -9t3.5 -22l-34 -132h203zM1487 885q16 0 23 -9.5t3 -23.5l-220 -826q-8 -26 -35 -26h-220q-16 0 -23.5 9.5t-2.5 23.5l219 826q8 26 34 26
h222zM529 248q78 0 127.5 39.5t49.5 97.5q0 89 -116 89h-177l-61 -226h177z" />
    <glyph glyph-name="uni044C" unicode="&#x44c;" horiz-adv-x="1091" 
d="M684 722q156 0 233 -74t77 -209q0 -193 -140.5 -316t-364.5 -123h-453q-29 0 -24 31l221 823q4 13 14.5 22t23.5 9h220q13 0 20.5 -9t3.5 -22l-34 -132h203zM529 248q78 0 127.5 39.5t49.5 97.5q0 89 -116 89h-177l-61 -226h177z" />
    <glyph glyph-name="uni044D" unicode="&#x44d;" horiz-adv-x="937" 
d="M512 897q164 0 267 -97.5t103 -264.5q0 -148 -80.5 -275t-215 -200.5t-286.5 -73.5q-195 0 -298 132q-20 24 3 47l129 120q25 25 55 0q62 -59 144 -59q74 0 138 37t102 98h-257q-13 0 -19.5 9.5t-4.5 23.5l26 97q4 13 15.5 21.5t24.5 8.5h253q-7 64 -49.5 98.5
t-113.5 34.5q-87 0 -170 -59q-43 -25 -59 6l-61 126q-14 25 14 45q159 125 340 125z" />
    <glyph glyph-name="uni044E" unicode="&#x44e;" horiz-adv-x="1558" 
d="M1111 897q174 0 279.5 -96.5t105.5 -260.5q0 -147 -78 -275t-210.5 -203.5t-285.5 -75.5q-162 0 -266 84.5t-118 229.5h-168l-73 -276q-8 -26 -35 -26h-220q-16 0 -23.5 9.5t-2.5 23.5l218 826q8 26 35 26h222q16 0 23 -9.5t3 -23.5l-78 -295h144q68 150 212.5 246
t315.5 96zM956 226q113 0 195.5 85t82.5 191q0 71 -41.5 113.5t-114.5 42.5q-113 0 -195.5 -84t-82.5 -192q0 -72 41 -114t115 -42z" />
    <glyph glyph-name="uni044F" unicode="&#x44f;" horiz-adv-x="1039" 
d="M1027 885q13 0 20 -9t5 -22l-222 -823q-2 -13 -13.5 -22t-25.5 -9h-220q-13 0 -19.5 9t-4.5 22l36 132h-133l-148 -146q-17 -17 -38 -17h-252q-11 0 -13.5 8t6.5 16l186 179q-123 70 -123 243q0 193 141 316t365 123h453zM472 411h177l61 226h-175q-78 0 -127.5 -39.5
t-49.5 -97.5q0 -42 28.5 -65.5t85.5 -23.5z" />
    <glyph glyph-name="uni0451" unicode="&#x451;" horiz-adv-x="992" 
d="M488 1111q-53 0 -91 39t-38 93q0 53 37.5 89.5t91.5 36.5q55 0 93.5 -36.5t38.5 -89.5q0 -54 -39 -93t-93 -39zM937 1369q52 0 91 -36.5t39 -89.5t-39 -92.5t-91 -39.5q-53 0 -91.5 39.5t-38.5 92.5q0 54 38 90t92 36zM602 897q176 0 269.5 -102t84.5 -253
q-2 -96 -56 -150t-159 -54h-429q30 -128 181 -128q103 0 194 54q43 17 61 -21l45 -92q15 -29 -15 -52q-141 -113 -341 -113q-179 0 -285.5 95.5t-106.5 263.5q0 142 73.5 269t203 205t280.5 78zM568 666q-71 0 -131.5 -37.5t-94.5 -100.5h366q-2 63 -37 100.5t-103 37.5z
" />
    <glyph glyph-name="uni0453" unicode="&#x453;" horiz-adv-x="911" 
d="M951 1225q8 -17 4.5 -30t-16.5 -17l-371 -170q-31 -14 -44 9l-74 125q-7 13 -4.5 22.5t10.5 13.5l344 233q32 20 47 -3zM918 885q13 0 20 -9.5t3 -23.5l-58 -213q-4 -12 -17 -17.5t-28 -3.5q-72 12 -97 12h-281l-165 -599q-2 -12 -13.5 -21.5t-24.5 -9.5h-221
q-29 0 -24 31l221 823q9 31 39 31h646z" />
    <glyph glyph-name="uni0454" unicode="&#x454;" horiz-adv-x="944" 
d="M923 757q1 -1 4.5 -7.5t4 -7.5t3 -6.5t2.5 -7v-6t-2 -7t-5 -6t-8 -6.5l-141 -97q-30 -20 -56 0q-54 54 -133 54q-74 0 -137.5 -39t-102.5 -100h273q13 0 19.5 -9t2.5 -23l-26 -97q-2 -13 -13.5 -22t-24.5 -9h-265q10 -63 57 -99t118 -36q82 0 168 57q44 27 59 -7l66 -137
q9 -16 6.5 -26.5t-20.5 -22.5q-145 -104 -317 -104q-174 0 -283.5 99.5t-109.5 265.5q0 143 81 270t211.5 201.5t272.5 74.5q102 0 179.5 -38.5t116.5 -101.5z" />
    <glyph glyph-name="uni0456" unicode="&#x456;" horiz-adv-x="498" 
d="M467 1100q-61 0 -102.5 41t-41.5 103q0 60 41.5 101.5t102.5 41.5q59 0 100.5 -41.5t41.5 -101.5q0 -61 -41.5 -102.5t-100.5 -41.5zM19 0q-16 0 -23.5 9.5t-2.5 23.5l220 826q5 26 33 26h223q16 0 23 -9.5t3 -23.5l-221 -826q-8 -26 -34 -26h-221z" />
    <glyph glyph-name="uni0457" unicode="&#x457;" horiz-adv-x="746" 
d="M328 1111q-53 0 -91.5 39.5t-38.5 92.5t38 89.5t92 36.5t92 -36.5t38 -89.5t-38.5 -92.5t-91.5 -39.5zM776 1111q-53 0 -91 39t-38 93t37.5 90t91.5 36t93 -36.5t39 -89.5t-39.5 -92.5t-92.5 -39.5zM125 0q-16 0 -22.5 9.5t-1.5 23.5l218 826q8 26 35 26h222
q16 0 23 -9.5t2 -23.5l-219 -826q-8 -26 -35 -26h-222z" />
    <glyph glyph-name="uni0458" unicode="&#x458;" horiz-adv-x="494" 
d="M463 1100q-61 0 -102.5 41t-41.5 103q0 60 41.5 101.5t102.5 41.5q59 0 101 -41.5t42 -101.5q0 -61 -42 -102.5t-101 -41.5zM-57 -397q-19 -7 -34 0.5t-20 25.5l-56 217q-10 41 26 53q118 42 143 139l220 821q5 26 33 26h222q31 0 26 -33l-225 -840q-45 -169 -119 -261
t-216 -148z" />
    <glyph glyph-name="uni045C" unicode="&#x45c;" horiz-adv-x="1079" 
d="M536 991l-74 125q-6 13 -3.5 22.5t10.5 13.5l343 233q32 20 47 -3l104 -183q8 -18 4.5 -30.5t-14.5 -16.5l-373 -170q-31 -14 -44 9zM1060 885q21 0 24.5 -16t-15.5 -32l-489 -393l314 -388q15 -20 5 -38t-35 -18h-246q-17 0 -28 14l-246 337l-85 -318q-4 -13 -15.5 -23
t-23.5 -10h-213q-14 0 -21 9.5t-3 23.5l191 713q8 30 13 101q4 38 33 38h235q13 0 19.5 -9t4.5 -22l-83 -307l376 319q19 19 45 19h243z" />
    <glyph glyph-name="uni045D" unicode="&#x45d;" horiz-adv-x="1098" 
d="M470 1177l372 -170q31 -12 43 10l77 125q12 21 -9 36l-344 231q-12 9 -24.5 9.5t-20.5 -10.5l-104 -183q-10 -18 -6.5 -30t16.5 -18zM1088 885q9 0 14.5 -6.5t3.5 -15.5l-224 -839q-2 -10 -11.5 -17t-20.5 -7h-225q-10 0 -15.5 7.5t-3.5 16.5l116 439l-536 -440
q-28 -23 -45 -23h-131q-21 0 -17 23l226 840q5 22 27 22h231q10 0 15 -6.5t3 -15.5l-125 -464l538 458q33 28 43 28h137z" />
    <glyph glyph-name="uni045E" unicode="&#x45e;" horiz-adv-x="1003" 
d="M625 1022q-143 0 -223.5 82.5t-50.5 205.5q8 44 40 44h121q19 0 23 -37q-5 -49 24.5 -79t89.5 -30t105.5 29.5t68.5 79.5q21 37 43 37h128q35 0 20 -44q-46 -136 -151 -212t-238 -76zM68 -347q-18 0 -23.5 11t2.5 25l215 342l-113 823q-3 31 28 31h205q28 0 31 -28
l61 -501h8l318 508q10 21 37 21h218q18 0 23 -11t-4 -25l-767 -1177q-12 -19 -38 -19h-201z" />
    <glyph glyph-name="uni0490" unicode="&#x490;" horiz-adv-x="1147" 
d="M1317 1501q16 0 21.5 -16.5t-5.5 -38.5q-26 -58 -35 -99l-48 -181q-18 -74 -122 -74h-540l-284 -1066q-8 -26 -37 -26h-227q-16 0 -23 9.5t-3 25.5l345 1293q8 26 37 26h614l23 87q9 35 25.5 47.5t50.5 12.5h208z" />
    <glyph glyph-name="uni0491" unicode="&#x491;" horiz-adv-x="952" 
d="M1003 1033q16 0 21 -12t-3 -28q-3 -6 -10.5 -21.5t-11.5 -24t-9 -23.5t-9 -30l-39 -148q-32 -116 -149 -116h-338l-160 -599q-2 -12 -13.5 -21.5t-24.5 -9.5h-221q-29 0 -24 31l221 823q9 31 39 31h419l19 75q19 73 94 73h199z" />
    <glyph glyph-name="uni04C0" unicode="&#x4c0;" horiz-adv-x="538" 
d="M40 0q-16 0 -23 9.5t-3 25.5l345 1293q8 26 37 26h227q16 0 23.5 -10t2.5 -25l-345 -1293q-8 -26 -37 -26h-227z" />
    <glyph glyph-name="uni04E2" unicode="&#x4e2;" horiz-adv-x="1586" 
d="M804 1763q9 33 39 33h566q13 0 20 -8.5t5 -22.5l-47 -170q-4 -14 -14.5 -23.5t-23.5 -9.5h-566q-14 0 -21.5 9t-3.5 22zM399 1354h229q13 0 19 -9.5t2 -21.5l-222 -832l826 833q27 30 63 30h230q12 0 17.5 -8.5t3.5 -21.5l-347 -1293q-2 -13 -14 -22t-26 -9h-229
q-13 0 -19 9.5t-2 21.5l229 859l-833 -860q-27 -30 -62 -30h-231q-12 0 -17.5 8.5t-3.5 21.5l347 1293q2 13 14 22t26 9z" />
    <glyph glyph-name="uni04E3" unicode="&#x4e3;" horiz-adv-x="1098" 
d="M476 1309q9 31 39 31h566q13 0 20 -8.5t3 -22.5l-45 -170q-4 -13 -15 -22.5t-23 -9.5h-568q-13 0 -20.5 8.5t-3.5 21.5zM1088 885q9 0 14.5 -6.5t3.5 -15.5l-224 -839q-2 -10 -11.5 -17t-20.5 -7h-225q-10 0 -15.5 7.5t-3.5 16.5l116 439l-536 -440q-28 -23 -45 -23h-131
q-21 0 -17 23l226 840q5 22 27 22h231q10 0 15 -6.5t3 -15.5l-125 -464l538 458q33 28 43 28h137z" />
    <glyph glyph-name="uni04EC" unicode="&#x4ec;" horiz-adv-x="1372" 
d="M729 1579q-53 0 -90.5 39t-37.5 93q0 53 37.5 90t90.5 37q55 0 93.5 -37t38.5 -90q0 -54 -39 -93t-93 -39zM1178 1579q-53 0 -91.5 39.5t-38.5 92.5q0 54 38 90.5t92 36.5q52 0 91.5 -37t39.5 -90t-39.5 -92.5t-91.5 -39.5zM843 1366q251 0 397.5 -144t146.5 -387
q0 -171 -74 -328t-196 -270.5t-287 -181t-341 -67.5q-159 0 -280.5 56t-189.5 154q-18 25 12 45l205 148q29 20 43 -2q92 -120 261 -120q142 0 268.5 78t199.5 200h-430q-31 0 -23 31l52 200q4 13 15.5 21t24.5 8h433q-7 124 -90.5 199t-222.5 75q-165 0 -330 -128
q-27 -19 -43 0l-132 158q-17 20 10 43q268 212 571 212z" />
    <glyph glyph-name="uni04ED" unicode="&#x4ed;" horiz-adv-x="937" 
d="M456 1111q-53 0 -90.5 39t-37.5 93q0 53 37.5 89.5t90.5 36.5q55 0 93.5 -36.5t38.5 -89.5q0 -54 -39 -93t-93 -39zM906 1369q52 0 91 -36.5t39 -89.5t-39 -92.5t-91 -39.5q-53 0 -91.5 39.5t-38.5 92.5q0 54 38 90t92 36zM512 897q164 0 267 -97.5t103 -264.5
q0 -148 -80.5 -275t-215 -200.5t-286.5 -73.5q-195 0 -298 132q-20 24 3 47l129 120q25 25 55 0q62 -59 144 -59q74 0 138 37t102 98h-257q-13 0 -19.5 9.5t-4.5 23.5l26 97q4 13 15.5 21.5t24.5 8.5h253q-7 64 -49.5 98.5t-113.5 34.5q-87 0 -170 -59q-43 -25 -59 6
l-61 126q-14 25 14 45q159 125 340 125z" />
    <glyph glyph-name="uni04EE" unicode="&#x4ee;" horiz-adv-x="1338" 
d="M689 1576q-13 0 -20.5 8.5t-3.5 20.5l47 172q2 13 13.5 22t24.5 9h567q13 0 20 -8.5t3 -22.5l-45 -170q-4 -13 -15 -22t-25 -9h-566zM1515 1354q25 0 26 -14t-15 -31l-1120 -1286q-19 -23 -36 -23h-240q-23 0 -28.5 18t11.5 39l418 485l-255 767q-6 19 3 32t32 13h231
q36 0 43 -31l172 -523l449 521q30 33 66 33h243z" />
    <glyph glyph-name="uni04EF" unicode="&#x4ef;" horiz-adv-x="1003" 
d="M384 1309q9 31 39 31h566q13 0 20 -8.5t3 -22.5l-45 -170q-4 -13 -15 -22.5t-23 -9.5h-568q-13 0 -20.5 8.5t-3.5 21.5zM68 -347q-18 0 -23.5 11t2.5 25l215 342l-113 823q-3 31 28 31h205q28 0 31 -28l61 -501h8l318 508q10 21 37 21h218q18 0 23 -11t-4 -25l-767 -1177
q-12 -19 -38 -19h-201z" />
    <glyph glyph-name="uni1E3E" unicode="&#x1e3e;" horiz-adv-x="1815" 
d="M1494 1647q13 4 17 16.5t-6 30.5l-104 182q-6 11 -20.5 11.5t-26.5 -7.5l-342 -233q-8 -4 -11.5 -14t2.5 -22l77 -125q13 -22 43 -9zM40 0q-16 0 -23 9.5t-3 25.5l345 1293q8 26 37 26h213q27 0 35 -25l265 -836l726 843q15 18 38 18h227q16 0 23.5 -9.5t3.5 -25.5
l-348 -1293q-5 -26 -34 -26h-228q-16 0 -23.5 10t-2.5 25l210 767l-640 -759q-24 -27 -42 -27h-21q-18 0 -26 27l-258 757l-210 -774q-8 -26 -37 -26h-227z" />
    <glyph glyph-name="uni1E3F" unicode="&#x1e3f;" horiz-adv-x="1660" 
d="M830 1008l-77 125q-6 12 -2.5 22.5t11.5 14.5l342 232q13 8 27 8t20 -11l104 -182q10 -18 6 -30.5t-17 -16.5l-371 -170q-31 -13 -43 8zM1331 897q144 0 212 -94t26 -253l-87 -326q-13 -49 -16.5 -83.5t-1.5 -58t1 -30.5q0 -30 -19.5 -41t-57.5 -11h-137
q-49 0 -70.5 37.5t-8.5 83.5l105 393q17 67 -8.5 101t-84.5 34q-60 0 -114 -32t-84 -81l-83 -312q-12 -49 -15.5 -83.5t-1.5 -57.5t1 -31q-1 -30 -20 -41t-56 -11h-138q-49 0 -70.5 37.5t-8.5 83.5l104 393q17 67 -8 101t-84 34q-60 0 -113 -31t-83 -78l-138 -514
q-8 -26 -34 -26h-221q-16 0 -23.5 9.5t-2.5 23.5l219 826q8 26 35 26h222q16 0 23 -9.5t3 -23.5l-17 -66q131 111 277 111q95 0 159.5 -43t83.5 -122q159 165 335 165z" />
    <glyph glyph-name="Wgrave" unicode="&#x1e80;" horiz-adv-x="2115" 
d="M1116 1647l373 -170q30 -14 44 9l74 125q6 12 3.5 22t-10.5 14l-343 233q-12 8 -26.5 7.5t-20.5 -11.5l-104 -182q-9 -18 -5.5 -30.5t15.5 -16.5zM373 0q-28 0 -31 30l-68 1291q-3 33 31 33h235q31 0 31 -31l26 -846l545 856q12 21 36 21h228q30 0 33 -30l81 -847
l485 856q11 21 36 21h250q18 0 24 -11.5t-3 -25.5l-752 -1296q-14 -21 -36 -21h-182q-32 0 -32 30l-100 951l-620 -960q-12 -21 -36 -21h-181z" />
    <glyph glyph-name="wgrave" unicode="&#x1e81;" horiz-adv-x="1490" 
d="M680 1178l372 -170q30 -13 43 9l75 125q7 12 4 22t-11 14l-344 233q-12 8 -25.5 8t-19.5 -11l-104 -183q-10 -17 -6.5 -30t16.5 -17zM226 0q-27 0 -30 28l-48 826q0 31 31 31h196q29 0 29 -29l11 -500h8l297 508q14 21 37 21h196q26 0 29 -28l25 -501h8l285 508
q9 21 36 21h205q17 0 23 -10t-2 -26l-489 -828q-13 -21 -37 -21h-198q-26 0 -29 28l-30 526l-317 -535q-12 -19 -35 -19h-201z" />
    <glyph glyph-name="Wacute" unicode="&#x1e82;" horiz-adv-x="2115" 
d="M1649 1647q13 4 16.5 17t-6.5 30l-104 182q-6 11 -20.5 11.5t-26.5 -7.5l-342 -233q-8 -4 -11 -14t3 -22l76 -125q13 -22 43 -9zM373 0q-28 0 -31 30l-68 1291q-3 33 31 33h235q31 0 31 -31l26 -846l545 856q12 21 36 21h228q30 0 33 -30l81 -847l485 856q11 21 36 21
h250q18 0 24 -11.5t-3 -25.5l-752 -1296q-14 -21 -36 -21h-182q-32 0 -32 30l-100 951l-620 -960q-12 -21 -36 -21h-181z" />
    <glyph glyph-name="wacute" unicode="&#x1e83;" horiz-adv-x="1490" 
d="M1211 1178q13 4 17 17t-4 30l-105 183q-14 23 -46 3l-344 -233q-8 -4 -11 -14t4 -22l75 -125q13 -22 43 -9zM226 0q-27 0 -30 28l-48 826q0 31 31 31h196q29 0 29 -29l11 -500h8l297 508q14 21 37 21h196q26 0 29 -28l25 -501h8l285 508q9 21 36 21h205q17 0 23 -10
t-2 -26l-489 -828q-13 -21 -37 -21h-198q-26 0 -29 28l-30 526l-317 -535q-12 -19 -35 -19h-201z" />
    <glyph glyph-name="Wdieresis" unicode="&#x1e84;" horiz-adv-x="2115" 
d="M1170 1579q-53 0 -91.5 39.5t-38.5 92.5t38 90t92 37t92 -37t38 -90t-38.5 -92.5t-91.5 -39.5zM1618 1579q-53 0 -91 39t-38 93t37.5 90.5t91.5 36.5t92.5 -37t38.5 -90t-39 -92.5t-92 -39.5zM373 0q-28 0 -31 30l-68 1291q-3 33 31 33h235q31 0 31 -31l26 -846l545 856
q12 21 36 21h228q30 0 33 -30l81 -847l485 856q11 21 36 21h250q18 0 24 -11.5t-3 -25.5l-752 -1296q-14 -21 -36 -21h-182q-32 0 -32 30l-100 951l-620 -960q-12 -21 -36 -21h-181z" />
    <glyph glyph-name="wdieresis" unicode="&#x1e85;" horiz-adv-x="1490" 
d="M732 1111q-53 0 -90.5 39t-37.5 93q0 53 37.5 89.5t90.5 36.5q55 0 93.5 -36.5t38.5 -89.5q0 -54 -39 -93t-93 -39zM1182 1111q-53 0 -91.5 39.5t-38.5 92.5q0 54 38 90t92 36q52 0 91 -36.5t39 -89.5t-39 -92.5t-91 -39.5zM226 0q-27 0 -30 28l-48 826q0 31 31 31h196
q29 0 29 -29l11 -500h8l297 508q14 21 37 21h196q26 0 29 -28l25 -501h8l285 508q9 21 36 21h205q17 0 23 -10t-2 -26l-489 -828q-13 -21 -37 -21h-198q-26 0 -29 28l-30 526l-317 -535q-12 -19 -35 -19h-201z" />
    <glyph glyph-name="Ygrave" unicode="&#x1ef2;" horiz-adv-x="1310" 
d="M713 1647q-13 4 -16.5 17t6.5 30l104 182q6 11 20.5 11.5t24.5 -7.5l344 -233q8 -4 11 -14t-4 -22l-75 -125q-13 -22 -43 -9zM1487 1354q19 0 24 -12t-8 -26l-680 -776l-136 -514q-8 -26 -36 -26h-228q-16 0 -23 9.5t-3 25.5l136 508l-257 776q-4 16 3 25.5t23 9.5h245
q30 0 34 -26l165 -505l445 513q15 18 38 18h258z" />
    <glyph glyph-name="ygrave" unicode="&#x1ef3;" horiz-adv-x="1003" 
d="M437 1178l374 -170q29 -14 43 9l75 125q6 12 3.5 22t-10.5 14l-344 233q-13 8 -27 8t-20 -11l-104 -183q-9 -18 -5.5 -30.5t15.5 -16.5zM68 -347q-18 0 -23.5 11t2.5 25l215 342l-113 823q-3 31 28 31h205q28 0 31 -28l61 -501h8l318 508q10 21 37 21h218q18 0 23 -11
t-4 -25l-767 -1177q-12 -19 -38 -19h-201z" />
    <glyph glyph-name="endash" unicode="&#x2013;" horiz-adv-x="1159" 
d="M1045 347q0 -13 -9 -23t-22 -10h-875q-13 0 -22 9t-9 22v170q0 14 8.5 23.5t22.5 9.5h875q13 0 22 -8.5t9 -22.5v-170z" />
    <glyph glyph-name="emdash" unicode="&#x2014;" horiz-adv-x="1610" 
d="M1496 347q0 -13 -9 -23t-22 -10h-1326q-13 0 -22 9t-9 22v170q0 14 8.5 23.5t22.5 9.5h1326q13 0 22 -8.5t9 -22.5v-170z" />
    <glyph glyph-name="quoteleft" unicode="&#x2018;" horiz-adv-x="517" 
d="M529 1368q19 8 25 4.5t14 -18.5l19 -31q10 -18 -14 -35q-123 -83 -169 -170q8 3 30 3q52 0 93 -42.5t41 -103.5q0 -75 -56 -127.5t-130 -52.5q-64 0 -107.5 43.5t-43.5 116.5q0 108 89.5 225.5t208.5 187.5z" />
    <glyph glyph-name="quoteright" unicode="&#x2019;" horiz-adv-x="517" 
d="M331 793q-19 -6 -24.5 -3.5t-13.5 17.5l-19 33q-12 20 14 35q116 76 168 170q-9 -4 -31 -4q-52 0 -92.5 42t-40.5 102q0 75 56 128t129 53q65 0 109 -42.5t44 -115.5q0 -108 -90.5 -226.5t-208.5 -188.5z" />
    <glyph glyph-name="quotesinglbase" unicode="&#x201a;" horiz-adv-x="517" 
d="M49 -260q-19 -8 -25 -4.5t-14 18.5l-19 31q-9 18 14 34q123 83 169 172q-8 -5 -32 -5q-51 0 -92 43t-41 103q0 74 56.5 127t130.5 53q65 0 108 -43t43 -116q0 -108 -89.5 -225.5t-208.5 -187.5z" />
    <glyph glyph-name="quotedblleft" unicode="&#x201c;" horiz-adv-x="944" 
d="M529 1368q19 8 25 4.5t14 -18.5l19 -31q12 -22 -14 -35q-123 -83 -169 -172q8 5 30 5q52 0 93 -42.5t41 -103.5q0 -75 -56 -127.5t-130 -52.5q-64 0 -107.5 43.5t-43.5 116.5q0 108 89.5 225.5t208.5 187.5zM956 1368q19 8 24.5 4.5t13.5 -18.5l20 -31q12 -22 -14 -35
q-123 -83 -169 -172q8 5 32 5q51 0 92 -43t41 -103q0 -74 -56.5 -127t-130.5 -53q-65 0 -108 43.5t-43 116.5q0 108 89.5 225.5t208.5 187.5z" />
    <glyph glyph-name="quotedblright" unicode="&#x201d;" horiz-adv-x="944" 
d="M331 793q-19 -6 -24.5 -3.5t-13.5 17.5l-19 33q-12 20 14 35q116 76 168 170q-9 -4 -31 -4q-52 0 -92.5 42t-40.5 102q0 75 56 128t129 53q65 0 109 -42.5t44 -115.5q0 -108 -90.5 -226.5t-208.5 -188.5zM758 793q-19 -7 -24.5 -3.5t-13.5 17.5l-19 33q-10 18 14 35
q121 79 168 170q-7 -4 -31 -4q-51 0 -92 42t-41 102q0 75 56.5 128t130.5 53q65 0 108 -42.5t43 -115.5q0 -108 -90.5 -226.5t-208.5 -188.5z" />
    <glyph glyph-name="quotedblbase" unicode="&#x201e;" horiz-adv-x="944" 
d="M49 -260q-19 -8 -25 -4.5t-14 18.5l-19 31q-9 18 14 34q123 83 169 172q-8 -5 -32 -5q-51 0 -92 43t-41 103q0 74 56.5 127t130.5 53q65 0 108 -43t43 -116q0 -108 -89.5 -225.5t-208.5 -187.5zM476 -260q-19 -8 -25 -4.5t-14 18.5l-19 31q-9 18 14 34q120 81 170 172
q-12 -5 -31 -5q-52 0 -93 42.5t-41 103.5q0 75 56 127.5t130 52.5q65 0 108 -43t43 -116q0 -108 -89.5 -225.5t-208.5 -187.5z" />
    <glyph glyph-name="dagger" unicode="&#x2020;" horiz-adv-x="834" 
d="M833 885q16 0 22.5 -9.5t1.5 -23.5l-59 -224q-4 -24 -33 -24h-175l-271 -925q-4 -26 -33 -26h-165q-31 0 -26 33l233 918h-163q-16 0 -22.5 9.5t-1.5 23.5l59 222q5 26 33 26h166l120 477q5 26 31 26h234q16 0 23.5 -10t3.5 -24l-138 -469h160z" />
    <glyph glyph-name="daggerdbl" unicode="&#x2021;" horiz-adv-x="834" 
d="M850 956q16 0 23 -9.5t3 -23.5l-52 -196q-8 -24 -34 -24h-172l-47 -161h168q16 0 23 -9.5t3 -23.5l-52 -197q-8 -24 -34 -24h-183l-178 -609q-4 -26 -32 -26h-166q-33 0 -25 33l151 602h-166q-34 0 -26 33l52 194q8 27 35 27h170l40 161h-160q-16 0 -23 9.5t-3 23.5
l52 194q8 26 35 26h163l102 406q5 26 33 26h233q15 0 22.5 -9.5t3.5 -24.5l-116 -398h157z" />
    <glyph glyph-name="bullet" unicode="&#x2022;" horiz-adv-x="669" 
d="M342 215q-99 0 -171 71t-72 169q0 97 72 168t171 71q96 0 166 -71t70 -168q0 -98 -70 -169t-166 -71z" />
    <glyph glyph-name="ellipsis" unicode="&#x2026;" horiz-adv-x="1378" 
d="M175 -14q-67 0 -114 48.5t-47 116.5q0 67 47 113.5t114 46.5t115 -47t48 -113q0 -68 -48 -116.5t-115 -48.5zM609 -14q-67 0 -114 48.5t-47 116.5q0 67 47 113.5t114 46.5t116 -47t49 -113q0 -67 -49 -116t-116 -49zM1043 -14q-66 0 -113 48.5t-47 116.5q0 67 46.5 113.5
t113.5 46.5q68 0 116.5 -47t48.5 -113q0 -67 -49 -116t-116 -49z" />
    <glyph glyph-name="perthousand" unicode="&#x2030;" horiz-adv-x="1895" 
d="M456 876q-99 0 -159.5 61t-60.5 155q0 123 93 214t211 91q99 0 159.5 -60.5t60.5 -154.5q0 -120 -92.5 -213t-211.5 -93zM-38 0l1241 1388h265l-1242 -1388h-264zM472 1052q48 0 82 33t34 76q0 28 -19.5 44.5t-47.5 16.5q-48 0 -80.5 -33t-32.5 -76q0 -29 18 -45t46 -16z
M885 -9q-98 0 -159 61t-61 156q0 122 94 213t211 91q98 0 159.5 -60.5t61.5 -154.5q0 -119 -93 -212.5t-213 -93.5zM1489 -9q-98 0 -158.5 61t-60.5 156q0 122 93.5 213t210.5 91q100 0 160.5 -60t60.5 -155q0 -119 -93 -212.5t-213 -93.5zM903 167q48 0 81 33.5t33 75.5
q0 29 -19 45t-47 16q-48 0 -81 -33t-33 -75q0 -30 19 -46t47 -16zM1506 167q48 0 82.5 33.5t34.5 75.5q0 29 -19.5 45t-48.5 16q-48 0 -81 -33t-33 -75q0 -30 18.5 -46t46.5 -16z" />
    <glyph glyph-name="guilsinglleft" unicode="&#x2039;" horiz-adv-x="671" 
d="M76 375l146 -339q8 -17 24 -17h188q47 0 42 56l-70 321l2 5l245 318q18 26 15 42.5t-26 16.5h-177q-25 0 -43 -23l-332 -332q-24 -24 -14 -48z" />
    <glyph glyph-name="guilsinglright" unicode="&#x203a;" horiz-adv-x="671" 
d="M573 422l-146 338q-9 18 -24 18h-188q-46 0 -41 -56l69 -321l-2 -5l-244 -318q-12 -17 -15 -30.5t3.5 -21t21.5 -7.5h177q25 0 43 23l332 331q25 25 14 49z" />
    <glyph glyph-name="fraction" unicode="&#x2044;" horiz-adv-x="381" 
d="M722 1366q19 22 42 22h73q18 0 22 -10t-9 -26l-1057 -1329q-20 -23 -39 -23h-73q-18 0 -22.5 10t8.5 26z" />
    <glyph glyph-name="Euro" unicode="&#x20ac;" horiz-adv-x="1395" 
d="M1472 1133q10 -18 10.5 -27.5t-15.5 -22.5l-183 -116q-28 -17 -60 15q-97 101 -242 101q-111 0 -217.5 -48t-186.5 -131h311q16 0 23 -9.5t3 -23.5l-33 -107q-7 -26 -35 -26h-382q-25 -60 -33 -125h379q16 0 23 -9.5t3 -23.5l-33 -108q-7 -26 -35 -26h-316
q31 -81 104.5 -128t181.5 -47q94 0 182 34t143 82q37 32 64 0l129 -163q21 -27 -13 -52q-248 -184 -539 -184q-240 0 -390.5 123.5t-175.5 334.5h-83q-34 0 -26 33l29 109q8 25 35 25h47q6 52 27 125h-33q-37 0 -26 33l28 107q8 26 33 26h70q116 205 325.5 333.5
t448.5 128.5q160 0 280.5 -64.5t177.5 -168.5z" />
    <glyph glyph-name="trademark" unicode="&#x2122;" horiz-adv-x="1199" 
d="M696 1354q22 0 17 -23l-24 -83q-5 -24 -29 -24h-105l-90 -334q-2 -10 -11 -17t-18 -7h-84q-24 0 -19 24l90 334h-105q-20 0 -16 24l23 83q5 23 29 23h342zM1336 1354q21 0 16 -23l-120 -441q-5 -24 -27 -24h-86q-9 0 -14 7t-3 17l63 224l-171 -229q-8 -15 -27 -15h-40
q-18 0 -21 15l-54 229l-61 -224q-2 -10 -11 -17t-20 -7h-83q-22 0 -17 24l118 441q5 23 31 23h90q16 0 21 -16l73 -264l198 266q11 14 31 14h114z" />
    <glyph glyph-name="oneeighth" unicode="&#x215b;" horiz-adv-x="1306" 
d="M956 1366q10 22 35 22h73q18 0 25 -10t-1 -26l-701 -1329q-13 -23 -36 -23h-72q-19 0 -25.5 10t1.5 26zM581 1388q9 0 13.5 -5.5t2.5 -13.5l-153 -569q-5 -21 -26 -21h-85q-19 0 -15 21l102 384l-115 -21q-10 0 -15.5 3.5t-3.5 11.5l16 65q3 18 21 24q79 27 147 99
q22 22 39 22h72zM883 -12q-79 0 -121.5 37t-42.5 95q0 64 47 120t110 74v4q-62 33 -62 104q0 86 70 146t173 60q72 0 115 -33t43 -92q0 -61 -38.5 -108.5t-102.5 -76.5l-1 -4q27 -6 51.5 -37.5t24.5 -76.5q0 -89 -78 -150.5t-188 -61.5zM991 380q41 0 72.5 30t31.5 64
q0 25 -18 39.5t-48 14.5q-38 0 -69 -26.5t-31 -62.5q0 -24 17 -41.5t45 -17.5zM913 83q47 0 82.5 29.5t35.5 74.5q0 29 -17.5 47.5t-53.5 18.5q-49 0 -84.5 -34.5t-35.5 -74.5q0 -27 20.5 -44t52.5 -17z" />
    <glyph glyph-name="threeeighths" unicode="&#x215c;" horiz-adv-x="1294" 
d="M637 998q0 -97 -83.5 -168.5t-189.5 -71.5q-122 0 -177 106q-6 11 6 21l69 57q15 10 23 -1q20 -34 44.5 -54.5t62.5 -20.5q49 0 88 33.5t39 79.5q0 40 -30.5 55t-92.5 -8l-40 67q-4 11 7 21l180 158h-208q-7 0 -11.5 5t-2.5 11l23 85q4 15 19 15h349q17 0 12 -15l-23 -82
q-1 -5 -4 -8.5t-8.5 -9l-8.5 -8.5l-163 -137q57 -1 88.5 -38t31.5 -92zM1106 1388q18 0 25 -10t-1 -26l-701 -1329q-13 -23 -35 -23h-73q-18 0 -24.5 10t0.5 26l701 1330q10 22 35 22h73zM1218 503q0 -62 -38 -109.5t-102 -75.5v-4q26 -6 50 -37.5t24 -76.5
q0 -90 -76.5 -151t-186.5 -61q-80 0 -123.5 37t-43.5 95q0 63 48 119.5t112 74.5l-2 4q-63 36 -63 104q0 86 70 146t173 60q72 0 115 -33t43 -92zM994 380q41 0 73.5 30.5t32.5 63.5q0 25 -18.5 39.5t-48.5 14.5q-38 0 -69.5 -26.5t-31.5 -62.5q0 -24 17 -41.5t45 -17.5z
M916 83q48 0 83 29.5t35 74.5q0 29 -17.5 47.5t-53.5 18.5q-49 0 -84.5 -34.5t-35.5 -74.5q0 -27 20.5 -44t52.5 -17z" />
    <glyph glyph-name="fiveeighths" unicode="&#x215d;" horiz-adv-x="1301" 
d="M628 1008q0 -102 -82.5 -176.5t-189.5 -74.5q-124 0 -175 100l97 75q26 -69 100 -69q49 0 86.5 36t37.5 78q0 31 -18 49.5t-50 18.5q-34 0 -68 -23l-97 11q-16 0 -12 19l87 321q3 15 19 15h317q7 0 11.5 -4t2.5 -9l-24 -89q-3 -12 -21 -12h-215l-38 -144q41 21 85 21
q71 0 109 -40t38 -103zM1095 1388q18 0 24.5 -10t-1.5 -26l-700 -1329q-13 -23 -36 -23h-73q-18 0 -24.5 10t1.5 26l700 1330q12 22 36 22h73zM1225 503q0 -61 -38 -109t-101 -76l-1 -4q27 -6 51.5 -37.5t24.5 -76.5q0 -89 -77.5 -150.5t-187.5 -61.5q-79 0 -122 37.5
t-43 94.5q0 64 47.5 120t110.5 74l-2 4q-61 35 -61 104q0 85 69.5 145.5t171.5 60.5q72 0 115 -33t43 -92zM1003 380q41 0 72.5 30t31.5 64q0 24 -18.5 39t-47.5 15q-38 0 -69 -26.5t-31 -62.5q0 -24 17 -41.5t45 -17.5zM925 83q47 0 81.5 29.5t34.5 74.5q0 29 -17.5 47.5
t-53.5 18.5q-49 0 -84.5 -34.5t-35.5 -74.5q0 -27 21.5 -44t53.5 -17z" />
    <glyph glyph-name="seveneighths" unicode="&#x215e;" horiz-adv-x="1228" 
d="M207 779q-18 0 -24 10.5t6 26.5l346 454h-228q-14 0 -10 14l21 89q3 15 19 15h380q11 0 7 -15l-5 -24q-2 -7 -13 -21l-406 -531q-14 -18 -34 -18h-59zM894 1366q12 22 36 22h71q19 0 26 -10t-1 -26l-701 -1329q-13 -23 -35 -23h-73q-18 0 -24.5 10t0.5 26zM824 -12
q-80 0 -123 37t-43 95q0 64 47.5 120t111.5 74l-1 4q-63 36 -63 104q0 86 70 146t173 60q72 0 115 -33t43 -92q0 -61 -38.5 -108.5t-101.5 -76.5l-2 -4q27 -6 51.5 -37.5t24.5 -76.5q0 -89 -77.5 -150.5t-186.5 -61.5zM930 380q41 0 72.5 30t31.5 64q0 25 -18 39.5t-48 14.5
q-38 0 -69 -26.5t-31 -62.5q0 -24 17 -41.5t45 -17.5zM852 83q47 0 82.5 29.5t35.5 74.5q0 29 -17.5 47.5t-53.5 18.5q-49 0 -84.5 -34.5t-35.5 -74.5q0 -27 20.5 -44t52.5 -17z" />
    <glyph glyph-name="partialdiff" unicode="&#x2202;" horiz-adv-x="1072" 
d="M505 1354q146 -1 255 -41t177 -113t101 -172t33 -223q0 -121 -28 -239.5t-83.5 -223.5t-132 -185t-180 -127t-220.5 -47q-170 0 -270 92t-100 251q0 135 70.5 254t193.5 191t267 72q124 0 177 -71q11 40 12.5 77.5t-7 74.5t-32 68t-59 55.5t-91 38t-125.5 14.5zM470 243
q90 0 161.5 69t71.5 153q0 52 -36.5 86t-93.5 34q-91 0 -161 -68t-70 -154q0 -53 35.5 -86.5t92.5 -33.5z" />
    <glyph glyph-name="emptyset" unicode="&#x2205;" horiz-adv-x="1544" 
d="M1578 1281q10 -9 9.5 -22t-9.5 -22l-106 -105q81 -124 81 -299q0 -163 -73 -318t-193 -270t-282 -185t-332 -70q-156 0 -282 60l-105 -104q-9 -9 -21.5 -9.5t-21.5 9.5l-149 149q-9 9 -9 22t9 22l97 97q-73 127 -73 286q0 162 73 317.5t193 271.5t282.5 186.5t331.5 70.5
q151 0 269 -56l118 118q21 22 43 0zM418 574q0 -57 12 -98l601 600q-50 9 -89 9q-102 0 -199 -43.5t-168 -114t-114 -164t-43 -189.5zM1255 781q0 53 -18 116l-612 -612q45 -13 102 -13q103 0 201 43.5t169.5 113.5t114.5 163.5t43 188.5z" />
    <glyph glyph-name="product" unicode="&#x220f;" horiz-adv-x="1339" 
d="M3 0q-16 0 -23 9.5t-3 23.5l348 1295q5 26 33 26h1103q16 0 23 -9.5t3 -23.5l-347 -1295q-8 -26 -34 -26h-230q-15 0 -22 9.5t-2 23.5l283 1059h-585l-284 -1066q-5 -26 -33 -26h-230z" />
    <glyph glyph-name="summation" unicode="&#x2211;" horiz-adv-x="1211" 
d="M1333 1354q16 0 23 -9.5t3 -23.5l-56 -203q-5 -26 -33 -26h-624l286 -337q13 -18 9 -42l-18 -85q-4 -19 -22 -33l-465 -331h605q16 0 23 -9.5t2 -23.5l-54 -205q-5 -26 -33 -26h-972q-34 0 -26 33l49 194q4 21 20 33l585 417l-347 418q-12 16 -7 40l47 193q8 26 33 26
h972z" />
    <glyph glyph-name="minus" unicode="&#x2212;" horiz-adv-x="1044" 
d="M144 526q-34 0 -26 33l52 196q8 24 33 24h811q35 0 24 -33l-52 -196q-4 -24 -33 -24h-809z" />
    <glyph glyph-name="radical" unicode="&#x221a;" horiz-adv-x="1225" 
d="M495 418l642 951q12 19 36 19h231q18 0 23.5 -11t-4.5 -25l-909 -1333q-12 -19 -37 -19h-149q-27 0 -31 26l-139 826q-2 14 5 23.5t21 9.5h215q28 0 31 -28z" />
    <glyph glyph-name="infinity" unicode="&#x221e;" horiz-adv-x="1584" 
d="M581 903q123 0 188.5 -58t80.5 -140h9q54 79 153.5 138.5t223.5 59.5q132 0 211 -73t79 -217q0 -132 -63 -250t-176 -192t-247 -74q-69 0 -124 20.5t-87 53t-50 65.5t-22 64h-7q-60 -83 -152.5 -143t-213.5 -60q-133 0 -213.5 78.5t-80.5 216.5q0 92 37 183.5t100 164
t156.5 118t197.5 45.5zM444 340q69 0 123.5 55.5t62.5 128.5q8 58 -21 96t-85 38q-79 0 -136 -63.5t-57 -143.5q0 -53 32.5 -82t80.5 -29zM1090 340q78 0 135.5 63.5t57.5 139.5q0 52 -31 83.5t-80 31.5q-72 0 -128.5 -52.5t-66.5 -131.5q-7 -60 25 -97t88 -37z" />
    <glyph glyph-name="integral" unicode="&#x222b;" horiz-adv-x="754" 
d="M1001 1310q38 -38 14 -64l-100 -116q-25 -27 -47 -9q-38 24 -77 24q-57 0 -105.5 -36t-67.5 -104l-273 -1024q-44 -160 -157.5 -244t-253.5 -84q-147 0 -238 87q-38 38 -14 64l101 116q23 29 47 9q34 -24 76 -24q57 0 106.5 36t67.5 104l272 1024q42 160 157 244t255 84
q146 0 237 -87z" />
    <glyph glyph-name="approxequal" unicode="&#x2248;" horiz-adv-x="1029" 
d="M932 894q29 24 40 -9l49 -118q7 -22 -11 -40q-135 -135 -283 -135q-45 0 -78 11.5t-52.5 28.5t-37.5 34t-44 28.5t-62 11.5q-53 0 -97 -22.5t-92 -62.5q-27 -26 -42 9l-45 115q-11 21 9 41q69 64 135 100.5t148 36.5q44 0 77 -12t52.5 -29t37.5 -34t44.5 -29t62.5 -12
q88 0 189 87zM821 477q29 24 40 -8l47 -118q9 -22 -9 -40q-136 -136 -283 -136q-45 0 -78 12t-52.5 28.5t-37.5 33.5t-44 29t-62 12q-53 0 -97 -22.5t-92 -62.5q-27 -26 -42 8l-47 115q-8 23 11 42q69 64 135 100.5t148 36.5q44 0 76.5 -12t52 -29t37.5 -34t44 -29t62 -12
q92 0 191 86z" />
    <glyph glyph-name="notequal" unicode="&#x2260;" horiz-adv-x="1044" 
d="M1067 982q16 0 23 -9t2 -24l-52 -196q-4 -24 -33 -24h-308l-93 -153h354q35 0 24 -33l-52 -196q-4 -24 -33 -24h-453l-187 -302q-13 -21 -39 -21h-187q-13 0 -16.5 9t4.5 21l182 293h-113q-34 0 -26 33l52 196q8 24 33 24h212l95 153h-258q-34 0 -26 33l52 196
q8 24 33 24h357l191 306q14 24 42 24h182q13 0 17 -10t-3 -23l-186 -297h210z" />
    <glyph glyph-name="lessequal" unicode="&#x2264;" horiz-adv-x="997" 
d="M233 979l-42 -149q-2 -7 1.5 -15t8.5 -10l684 -326q29 -12 40 17l50 181q6 29 -10 33l-420 177l514 186q9 2 17 11t10 20l54 198q5 17 -4 21t-27 -4l-852 -316q-20 -6 -24 -24zM17 0q-14 0 -21 8.5t-3 21.5l49 182q5 22 29 22h746q14 0 21.5 -8t3.5 -21l-49 -182
q-5 -23 -29 -23h-747z" />
    <glyph glyph-name="greaterequal" unicode="&#x2265;" horiz-adv-x="997" 
d="M1014 830l41 149q6 19 -10 24l-682 326q-30 14 -42 -17l-50 -180q-6 -28 10 -33l422 -177l-516 -186q-9 -2 -17 -11t-9 -19l-55 -199q-5 -17 4 -21.5t27 3.5l852 316q20 6 25 25zM2 0q-14 0 -20.5 8.5t-2.5 21.5l49 182q5 22 29 22h747q14 0 21 -8t3 -21l-49 -182
q-5 -23 -29 -23h-748z" />
    <glyph glyph-name="lozenge" unicode="&#x25ca;" horiz-adv-x="1563" 
d="M996 1361q41 33 63 0l474 -649q23 -30 -18 -63l-819 -649q-41 -31 -64 0l-476 649q-22 33 19 63zM944 1033l-455 -360l259 -345l455 359z" />
    <glyph glyph-name="W.ss01" horiz-adv-x="1985" 
d="M2157 1354q18 0 22.5 -11t-10.5 -33l-989 -1289q-25 -33 -43 -33h-21q-22 0 -28 33l-95 402l-306 -404q-23 -31 -43 -31h-21q-22 0 -28 31l-312 1291q-6 21 6 32.5t29 11.5h243q12 0 17.5 -9.5t11.5 -32.5l186 -786l147 198l-139 586q-5 21 7 32.5t30 11.5h243
q12 0 17.5 -9t11.5 -31l63 -278l205 278q29 40 52 40h243q16 0 20.5 -11t-10.5 -33l-442 -583l45 -201l595 788q29 40 50 40h243z" />
    <glyph glyph-name="i.loclTRK" horiz-adv-x="496" 
d="M462 1081q-60 0 -103 43t-43 103q0 58 43 100t103 42q59 0 101.5 -42t42.5 -100q0 -60 -42.5 -103t-101.5 -43zM24 0q-16 0 -23.5 9.5t-2.5 23.5l219 826q8 26 35 26h222q16 0 23 -9.5t3 -23.5l-221 -826q-8 -26 -34 -26h-221z" />
    <glyph glyph-name="zero.osf" horiz-adv-x="1025" 
d="M392 -23q-160 0 -257 97t-97 251q0 143 85.5 274.5t223 211t283.5 79.5q159 0 256.5 -96.5t97.5 -248.5q0 -108 -51.5 -213.5t-133.5 -182.5t-190 -124.5t-217 -47.5zM463 257q88 0 160.5 69t72.5 155q0 58 -37 95t-100 37q-90 0 -162 -69.5t-72 -156.5q0 -57 37.5 -93.5
t100.5 -36.5z" />
    <glyph glyph-name="one.osf" horiz-adv-x="642" 
d="M404 882h231q16 0 23 -9.5t2 -23.5l-219 -823q-5 -26 -33 -26h-231q-16 0 -23 9.5t-3 23.5l121 455l-170 -12q-34 0 -27 33l36 147q9 34 37 37q72 11 117 49.5t99 114.5q16 25 40 25z" />
    <glyph glyph-name="two.osf" horiz-adv-x="1032" 
d="M7 0q-16 0 -23 9.5t-3 23.5l38 146q6 20 28 31l430 160q48 19 78 33.5t63 37t49.5 49t16.5 58.5q0 41 -30 66t-86 25q-63 0 -117.5 -34.5t-86.5 -97.5q-15 -23 -34 -23h-215q-17 0 -23.5 9.5t0.5 25.5q70 164 207.5 264t337.5 100q169 0 255.5 -70.5t86.5 -179.5
q0 -107 -79.5 -190.5t-205.5 -133.5l-199 -83h373q34 0 26 -33l-44 -167q-8 -26 -34 -26h-809z" />
    <glyph glyph-name="three.osf" horiz-adv-x="1077" 
d="M1010 885q32 0 24 -33l-48 -198q-3 -15 -23 -33l-345 -279q134 -20 199.5 -100.5t65.5 -201.5q0 -139 -81 -261t-214.5 -193.5t-283.5 -71.5q-137 0 -246 64.5t-155 175.5q-9 13 -8.5 27.5t16.5 25.5l158 120q9 6 16.5 7t15 -4.5t13 -11.5t14.5 -17q32 -52 86.5 -85
t122.5 -33q107 0 186 73.5t79 166.5q0 52 -29 85t-84 33q-47 0 -105 -23q-27 -8 -40 23l-65 154q-14 29 7 47l360 290h-412q-35 0 -24 33l52 194q5 26 33 26h715z" />
    </font>
</defs>
</svg>
