<?xml version="1.0" standalone="no"?>
<!DOCTYPE svg PUBLIC "-//W3C//DTD SVG 1.1//EN" "http://www.w3.org/Graphics/SVG/1.1/DTD/svg11.dtd" >
<svg xmlns="http://www.w3.org/2000/svg" xmlns:xlink="http://www.w3.org/1999/xlink" version="1.1">
<metadata>
Created by FontForge 20170731 at Sat Dec 18 21:17:01 2021
 By Aleksey,,,
Copyright (c) 2018 by Connary Fagen. All rights reserved.
</metadata>
<defs>
<font id="VentiCF-DemiBoldItalic" horiz-adv-x="1056" >
  <font-face 
    font-family="Venti CF Demi Bold"
    font-weight="600"
    font-style="italic"
    font-stretch="normal"
    units-per-em="2048"
    panose-1="0 0 7 0 0 0 0 0 0 0"
    ascent="1638"
    descent="-410"
    x-height="885"
    cap-height="1354"
    bbox="-456.885 -694 2358.52 1947"
    underline-thickness="86"
    underline-position="-259"
    slope="-15"
    unicode-range="U+0020-FB01"
  />
<missing-glyph horiz-adv-x="867" 
d="M712 1388v-1735h-551v1735h551zM578 1272h-286v-57h112v-64h-114v-58h288v58h-115v64h115v57zM463 1048h-173v-180h288v59h-115v121zM404 989v-62h-57v62h57zM578 821h-288v-57h114v-65h-114v-57h173v122h115v57zM578 717h-57v-115h-231v-59h288v174zM578 505h-174v-97
h59v40h58v-82h-174v139h-57v-196h288v196zM578 205h-288v-196h288v196zM521 148v-82h-174v82h174zM578 -31h-288v-58h121l-121 -81v-57h288v57h-177l121 81h56v58z" />
    <glyph glyph-name="fi" unicode="fi" horiz-adv-x="1076" 
d="M1062 885q12 0 18.5 -7t2.5 -19l-224 -838q-5 -21 -26 -21h-168q-26 0 -21 26l177 665h-352l-179 -670q-4 -21 -28 -21h-167q-28 0 -20 26l177 665h-101q-13 0 -19 7t-2 19l38 147q4 21 28 21h108l50 188q43 157 152 240.5t246 83.5q138 0 223 -81q32 -32 13 -52l-79 -89
q-19 -22 -38 -5q-46 35 -99 35q-69 0 -129.5 -44t-85.5 -137l-36 -139h541z" />
    <glyph glyph-name="f_f" unicode="ff" horiz-adv-x="1291" 
d="M1543 1316q33 -31 12 -52l-76 -89q-20 -20 -40 -5q-46 35 -99 35q-68 0 -128.5 -44t-85.5 -137l-36 -139h203q13 0 19 -7t2 -19l-38 -149q-5 -19 -28 -19h-210l-179 -670q-7 -21 -28 -21h-168q-27 0 -19 26l177 665h-354l-179 -667q-4 -24 -29 -24h-165q-27 0 -19 26
l177 665h-101q-25 0 -21 28l38 144q4 22 30 22h106l41 160q46 170 171 265.5t288 95.5q160 0 253 -108q109 99 264 99q137 0 222 -81zM873 885l50 188q12 43 25 69q-44 71 -139 71q-29 0 -57 -5.5t-59.5 -21t-58 -39.5t-50 -65t-37.5 -93l-28 -104h354z" />
    <glyph glyph-name="f_f_i" unicode="ffi" horiz-adv-x="1676" 
d="M1630 885q27 0 22 -26l-224 -838q-4 -21 -27 -21h-167q-12 0 -18.5 7t-2.5 19l177 665h-352l-179 -670q-7 -21 -28 -21h-168q-27 0 -19 26l177 665h-354l-179 -667q-4 -24 -29 -24h-165q-27 0 -19 26l177 665h-101q-25 0 -21 28l38 144q4 22 30 22h106l41 160
q46 170 171 265.5t288 95.5q160 0 253 -108q109 99 264 99q137 0 222 -81q33 -31 12 -52l-76 -89q-20 -20 -40 -5q-46 35 -99 35q-68 0 -128.5 -44t-85.5 -137l-36 -139h540zM873 885l50 188q12 43 25 69q-44 71 -139 71q-29 0 -57 -5.5t-59.5 -21t-58 -39.5t-50 -65
t-37.5 -93l-28 -104h354z" />
    <glyph glyph-name="f_j.liga" unicode="fj" horiz-adv-x="1074" 
d="M1060 885q28 0 23 -26l-241 -892q-38 -149 -101.5 -229.5t-188.5 -128.5q-17 -7 -29 -0.5t-14 21.5l-42 163q-10 33 19 42q59 21 94 54t52 92l189 710h-352l-179 -670q-4 -21 -28 -21h-167q-28 0 -20 26l177 665h-101q-13 0 -19 7t-2 19l38 147q4 21 28 21h108l50 188
q43 157 152 240.5t246 83.5q138 0 223 -81q32 -32 13 -52l-79 -89q-19 -22 -38 -5q-46 35 -99 35q-69 0 -129.5 -44t-85.5 -137l-36 -139h539z" />
    <glyph glyph-name=".notdef" horiz-adv-x="867" 
d="M712 1388v-1735h-551v1735h551zM578 1272h-286v-57h112v-64h-114v-58h288v58h-115v64h115v57zM463 1048h-173v-180h288v59h-115v121zM404 989v-62h-57v62h57zM578 821h-288v-57h114v-65h-114v-57h173v122h115v57zM578 717h-57v-115h-231v-59h288v174zM578 505h-174v-97
h59v40h58v-82h-174v139h-57v-196h288v196zM578 205h-288v-196h288v196zM521 148v-82h-174v82h174zM578 -31h-288v-58h121l-121 -81v-57h288v57h-177l121 81h56v58z" />
    <glyph glyph-name=".null" horiz-adv-x="0" 
 />
    <glyph glyph-name="nonmarkingreturn" horiz-adv-x="682" 
 />
    <glyph glyph-name="space" unicode=" " horiz-adv-x="416" 
 />
    <glyph glyph-name="exclam" unicode="!" horiz-adv-x="439" 
d="M548 1354q12 0 18 -8t2 -20l-6 -24l-241 -726q-6 -26 -29 -26h-105q-22 0 -19 26l151 726l7 24q5 28 37 28h185zM137 -14q-53 0 -90.5 38.5t-37.5 91.5q0 52 37.5 89.5t90.5 37.5q52 0 90.5 -37.5t38.5 -89.5q0 -53 -38.5 -91.5t-90.5 -38.5z" />
    <glyph glyph-name="quotedbl" unicode="&#x22;" horiz-adv-x="638" 
d="M205 875q-15 0 -23.5 9.5t-4.5 26.5l111 410q5 20 14 26.5t28 6.5h137q37 0 22 -45l-137 -403q-12 -31 -41 -31h-106zM531 875q-14 0 -22 10t-4 26l111 410q5 20 14 26.5t28 6.5h137q39 0 21 -45l-136 -403q-12 -31 -41 -31h-108z" />
    <glyph glyph-name="numbersign" unicode="#" horiz-adv-x="1145" 
d="M1217 1019q22 0 17 -25l-40 -144q-9 -24 -29 -24h-184l-124 -298h162q20 0 15 -25l-38 -144q-2 -10 -11 -18t-18 -8h-189l-129 -309q-9 -24 -29 -24h-134q-12 0 -17.5 7t-1.5 17l128 309h-203l-128 -309q-9 -24 -30 -24h-133q-12 0 -18 7t-1 17l128 309h-153
q-24 0 -19 25l38 144q8 26 33 26h181l123 298h-160q-22 0 -17 24l38 144q2 10 11 17.5t20 7.5h188l128 310q13 25 33 25h134q11 0 16 -7.5t0 -17.5l-129 -310h203l129 310q13 25 33 25h133q11 0 16 -7.5t0 -17.5l-129 -310h157zM675 528l123 298h-203l-123 -298h203z" />
    <glyph glyph-name="dollar" unicode="$" horiz-adv-x="834" 
d="M863 1048q17 -13 3 -33l-78 -97q-14 -18 -33 -7q-96 59 -201 59q-71 0 -118 -28t-47 -76q0 -37 31.5 -59t91.5 -38q130 -34 197 -90.5t67 -150.5q0 -131 -114 -209.5t-278 -78.5h-28l-96 -212q-7 -17 -17 -22t-28 -1l-87 16q-34 7 -20 40l93 210q-69 25 -137 76
q-18 15 -3 35l74 95q13 15 33 7q116 -71 229 -71q75 0 127 31t52 77q0 40 -32.5 63t-106.5 44q-116 33 -175 89t-59 147q0 126 106 203t265 77h13l97 217q9 17 18 21.5t29 2.5l86 -17q36 -4 21 -40l-95 -212q62 -23 120 -68z" />
    <glyph glyph-name="percent" unicode="%" horiz-adv-x="1221" 
d="M443 908q-91 0 -147 56t-56 143q0 116 89.5 203t201.5 87q90 0 146.5 -56t56.5 -142q0 -113 -89.5 -202t-201.5 -89zM-38 0l1232 1388h205l-1234 -1388h-203zM455 1045q58 0 101 42.5t43 96.5q0 35 -23.5 55.5t-60.5 20.5q-57 0 -99.5 -42t-42.5 -95q0 -36 23 -57t59 -21
zM826 -9q-91 0 -147 56.5t-56 143.5q0 115 90.5 202.5t201.5 87.5q90 0 146.5 -56.5t56.5 -143.5q0 -112 -90 -201t-202 -89zM838 128q58 0 101 42.5t43 96.5q0 35 -23 56t-60 21q-57 0 -99.5 -42t-42.5 -95q0 -36 22.5 -57.5t58.5 -21.5z" />
    <glyph glyph-name="ampersand" unicode="&#x26;" horiz-adv-x="1327" 
d="M1154 168q20 -3 16 -29l-35 -123q-2 -10 -5.5 -13t-10.5 -3q-56 0 -101.5 13t-82 39t-59 49t-52.5 59q-193 -160 -409 -160q-168 0 -266.5 83t-98.5 226q0 46 11.5 88t30 75.5t49.5 66.5t62 58t77 53t84 48.5t92 47.5l120 63q52 25 92.5 46.5t88 52.5t79 60.5t52.5 66.5
t21 74q0 53 -36.5 84t-98.5 31q-90 0 -157 -61.5t-67 -150.5q0 -19 4 -37.5t8 -28t11 -23.5t7 -15q3 -6 -10.5 -17.5t-41.5 -27t-46 -24.5l-46 -23q-36 55 -53 96.5t-17 97.5q0 158 128 270t306 112q136 0 216.5 -71t80.5 -186q0 -68 -27 -128t-79.5 -111t-113 -92.5
t-143.5 -84.5l-31 -18l170 -272q92 79 171 176.5t105 192.5q5 23 24 23h125q23 0 23 -38q-7 -62 -44.5 -134t-93.5 -140.5t-108 -122.5t-107 -103q78 -101 186 -115zM434 186q152 0 279 111l-194 298l-10 -5q-64 -31 -100 -51t-77.5 -52t-60.5 -68.5t-19 -81.5
q0 -73 50 -112t132 -39z" />
    <glyph glyph-name="quotesingle" unicode="'" horiz-adv-x="310" 
d="M205 875q-15 0 -23.5 9.5t-4.5 26.5l111 410q5 20 14 26.5t28 6.5h137q37 0 22 -45l-137 -403q-12 -31 -41 -31h-106z" />
    <glyph glyph-name="parenleft" unicode="(" horiz-adv-x="725" 
d="M453 -212q-181 0 -272.5 135.5t-91.5 376.5q0 137 29 287.5t81.5 295.5t130.5 276.5t170 231t207 158t235 58.5q23 0 16 -21l-43 -168q-8 -26 -33 -26q-88 0 -176.5 -73t-157.5 -190.5t-123.5 -258t-84 -284t-29.5 -260.5q0 -148 49.5 -232.5t149.5 -84.5q27 0 19 -28
l-45 -172q-8 -21 -31 -21z" />
    <glyph glyph-name="parenright" unicode=")" horiz-adv-x="725" 
d="M410 1607q181 0 272.5 -135.5t91.5 -376.5q0 -137 -29 -287.5t-81.5 -295.5t-130.5 -276.5t-170 -231t-206.5 -158t-234.5 -58.5q-22 0 -17 21l43 168q8 26 35 26q109 0 216.5 111.5t183 275t122.5 348t47 331.5q0 148 -50 233t-150 85q-27 0 -19 28l47 171q4 21 30 21z
" />
    <glyph glyph-name="asterisk" unicode="*" horiz-adv-x="782" 
d="M890 1196q11 -22 -17 -35l-203 -95l149 -96q20 -13 2 -36l-69 -78q-21 -25 -39 -7l-125 107l-38 -187q-5 -26 -33 -26h-94q-28 0 -17 26l63 187l-184 -109q-23 -14 -33 9l-28 78q-7 23 17 36l203 96l-149 95q-20 15 0 37l69 78q20 23 39 7l125 -110l38 189q5 26 31 26h94
q13 0 18.5 -7t0.5 -19l-63 -187l181 109q28 17 36 -8z" />
    <glyph glyph-name="plus" unicode="+" horiz-adv-x="1029" 
d="M998 753q12 0 17.5 -7.5t1.5 -20.5l-38 -147q-5 -21 -26 -21h-309l-83 -309q-5 -21 -28 -21h-146q-12 0 -18.5 7t-2.5 19l82 304h-302q-26 0 -21 28l40 147q5 21 26 21h309l83 309q5 21 26 21h148q26 0 21 -26l-82 -304h302z" />
    <glyph glyph-name="comma" unicode="," horiz-adv-x="451" 
d="M28 -215q-13 -6 -18.5 -4t-11.5 14l-15 24q-9 20 12 30q99 67 135 139q-10 -4 -24 -4q-42 0 -74 34.5t-32 82.5q0 59 45 101.5t104 42.5q51 0 86.5 -34.5t35.5 -92.5q0 -86 -74.5 -182t-168.5 -151z" />
    <glyph glyph-name="hyphen" unicode="-" horiz-adv-x="822" 
d="M715 373q0 -26 -26 -26h-559q-26 0 -26 24v129q0 26 26 26h559q26 0 26 -24v-129z" />
    <glyph glyph-name="period" unicode="." horiz-adv-x="439" 
d="M132 -14q-53 0 -91 38.5t-38 91.5q0 52 38 89.5t91 37.5q52 0 90 -37.5t38 -89.5q0 -53 -38 -91.5t-90 -38.5z" />
    <glyph glyph-name="slash" unicode="/" horiz-adv-x="718" 
d="M731 1388h172q13 0 18.5 -7.5t0.5 -19.5l-762 -1333q-18 -28 -35 -28h-174q-11 0 -17 8t0 20l762 1333q15 27 35 27z" />
    <glyph glyph-name="zero" unicode="0" horiz-adv-x="1214" 
d="M496 -21q-194 0 -292 121t-98 332q0 110 25 223t70.5 216t112.5 194t147 157.5t178.5 105t202.5 38.5q193 0 291.5 -122t98.5 -333q0 -110 -25 -223t-70 -216t-112 -193t-147 -156.5t-179 -105t-203 -38.5zM522 179q84 0 162.5 45.5t137.5 121t103 170t67 196.5t23 196
q0 258 -196 258q-105 0 -200 -69.5t-157.5 -176.5t-99.5 -234.5t-37 -246.5q0 -260 197 -260z" />
    <glyph glyph-name="one" unicode="1" horiz-adv-x="569" 
d="M694 1354q26 0 21 -26l-351 -1307q-4 -21 -27 -21h-167q-13 0 -19 7t-2 19l274 1014q-34 -20 -87.5 -37t-78.5 -17q-23 0 -33.5 9.5t-6.5 26.5l24 113q5 27 25 31q82 17 129.5 56t99.5 116q9 16 33 16h166z" />
    <glyph glyph-name="two" unicode="2" horiz-adv-x="1041" 
d="M9 0q-13 0 -19 7t-2 19l10 52l646 587q47 42 72.5 66t62.5 63.5t56 69t33.5 67.5t14.5 74q0 68 -44 111t-127 43q-165 0 -327 -189q-17 -20 -34 0l-96 110q-13 18 2 33q237 253 493 253q160 0 257 -84t97 -228q0 -212 -222 -417l-502 -441h495q12 0 17.5 -7.5t1.5 -20.5
l-38 -147q-4 -21 -28 -21h-819z" />
    <glyph glyph-name="three" unicode="3" horiz-adv-x="1062" 
d="M1126 1354q26 0 21 -26l-40 -155q-2 -15 -17 -26l-411 -331q155 -7 233.5 -91.5t78.5 -217.5q0 -139 -81 -260.5t-214 -192.5t-281 -71q-136 0 -239 63.5t-148 177.5q-5 11 -6.5 16t1 12.5t12.5 14.5l119 89q18 8 26.5 3t20.5 -24q32 -69 93.5 -108.5t144.5 -39.5
q136 0 236.5 94.5t100.5 213.5q0 71 -39.5 116t-116.5 45q-72 0 -138 -29q-22 -8 -34 17l-51 116q-10 25 7 40l446 359h-480q-13 0 -19 7t-2 19l40 148q5 21 26 21h711z" />
    <glyph glyph-name="four" unicode="4" horiz-adv-x="1105" 
d="M1008 460q13 0 19 -7.5t2 -20.5l-38 -147q-5 -21 -28 -21h-113l-64 -243q-4 -21 -28 -21h-144q-28 0 -20 26l62 238h-611q-12 0 -17.5 7.5t-1.5 20.5l40 152q4 24 29 40q205 124 379 360.5t253 488.5q4 21 26 21h163q12 0 17.5 -7.5t1.5 -20.5q-76 -260 -239 -493.5
t-370 -381.5l382 5l37 139q6 22 22 25l158 36q14 2 20.5 -4t2.5 -20l-45 -174z" />
    <glyph glyph-name="five" unicode="5" horiz-adv-x="1051" 
d="M661 878q152 0 236.5 -91.5t84.5 -241.5q0 -148 -76 -277.5t-205.5 -207t-277.5 -77.5q-133 0 -231 62.5t-154 176.5q-11 17 7 33l130 108q20 17 35 -7q37 -77 99 -116t141 -39q129 0 218 91t89 210q0 72 -45.5 116.5t-123.5 44.5q-116 0 -213 -97l-177 57q-22 7 -17 31
l180 679q5 21 28 21h722q13 0 19 -7t2 -19l-40 -150q-4 -20 -26 -20h-538l-98 -358q104 78 231 78z" />
    <glyph glyph-name="six" unicode="6" horiz-adv-x="1077" 
d="M469 -17q-175 0 -275 113.5t-100 320.5q0 136 43.5 272t127.5 255t195.5 211t258 145.5t305.5 53.5q13 0 19 -7.5t2 -20.5l-42 -149q-5 -21 -21 -21q-98 0 -190 -30.5t-161.5 -79t-126.5 -111t-92.5 -126t-50.5 -123.5q56 70 143.5 112t177.5 42q154 0 243.5 -89
t89.5 -241q0 -105 -44.5 -202.5t-118.5 -168.5t-175 -113.5t-208 -42.5zM489 182q118 0 213 88t95 202q0 77 -48.5 125.5t-130.5 48.5q-119 0 -213 -86t-94 -199q0 -79 47.5 -129t130.5 -50z" />
    <glyph glyph-name="seven" unicode="7" horiz-adv-x="1001" 
d="M1168 1274q-2 -13 -19 -33l-875 -1225q-11 -16 -28 -16h-175q-14 0 -18 8.5t4 21.5l818 1128h-599q-13 0 -19 7t-2 20l40 148q5 21 26 21h835q14 0 21 -9.5t3 -23.5z" />
    <glyph glyph-name="eight" unicode="8" horiz-adv-x="1032" 
d="M391 -17q-172 0 -266.5 77t-94.5 207q0 148 112 269.5t255 159.5l-6 3q-60 29 -102.5 87.5t-42.5 145.5q0 115 72 216t190.5 159.5t249.5 58.5q147 0 235 -73.5t88 -195.5q0 -126 -89.5 -234.5t-222.5 -161.5l-11 -5q34 -9 66 -27t63 -48t49.5 -78t18.5 -107
q0 -126 -77.5 -230.5t-206.5 -163.5t-280 -59zM611 814q101 0 180 70t79 161q0 62 -42 98.5t-116 36.5q-104 0 -183 -68t-79 -157q0 -64 44 -102.5t117 -38.5zM434 172q119 0 206 72t87 174q0 67 -47.5 109t-132.5 42q-117 0 -204.5 -75t-87.5 -176q0 -71 49.5 -108.5
t129.5 -37.5z" />
    <glyph glyph-name="nine" unicode="9" horiz-adv-x="1077" 
d="M732 1366q176 0 275.5 -113.5t99.5 -320.5q0 -136 -43.5 -272t-127 -255t-195 -211t-257.5 -145.5t-305 -53.5q-28 0 -23 28l42 149q4 21 21 21q98 0 190.5 30.5t162 79t126.5 111t92 126t50 123.5q-56 -70 -143.5 -112t-177.5 -42q-154 0 -243 88.5t-89 240.5
q0 140 75 262t200.5 194t269.5 72zM713 1166q-118 0 -212.5 -88t-94.5 -202q0 -77 48.5 -125t130.5 -48q117 0 212 86t95 199q0 78 -48.5 128t-130.5 50z" />
    <glyph glyph-name="colon" unicode=":" horiz-adv-x="440" 
d="M307 640q-53 0 -90.5 38.5t-37.5 90.5q0 53 37.5 90.5t90.5 37.5q52 0 90.5 -37.5t38.5 -90.5q0 -52 -38.5 -90.5t-90.5 -38.5zM132 -14q-52 0 -89.5 38.5t-37.5 91.5q0 52 37.5 89.5t89.5 37.5q53 0 91.5 -37.5t38.5 -89.5q0 -53 -38.5 -91.5t-91.5 -38.5z" />
    <glyph glyph-name="semicolon" unicode=";" horiz-adv-x="451" 
d="M307 640q-53 0 -90.5 38.5t-37.5 90.5q0 53 37.5 90.5t90.5 37.5q52 0 90.5 -37.5t38.5 -90.5q0 -52 -38.5 -90.5t-90.5 -38.5zM30 -215q-15 -6 -19.5 -4t-12.5 14l-14 24q-10 18 11 30q96 63 137 139q-10 -4 -24 -4q-42 0 -75 34.5t-33 82.5q0 59 45.5 101.5t103.5 42.5
q53 0 87.5 -34.5t34.5 -92.5q0 -86 -73.5 -182t-167.5 -151z" />
    <glyph glyph-name="less" unicode="&#x3c;" horiz-adv-x="985" 
d="M160 708l-33 -114q-5 -18 10 -23l672 -352q27 -8 33 15l38 136q5 22 -7 27l-477 240l602 245q20 6 23 26l43 151q4 14 -3.5 17.5t-20.5 -3.5l-861 -344q-16 -5 -19 -21z" />
    <glyph glyph-name="equal" unicode="=" horiz-adv-x="1029" 
d="M200 760q-26 0 -21 28l40 147q5 21 26 21h807q27 0 19 -27l-38 -148q-5 -21 -26 -21h-807zM92 354q-26 0 -21 28l40 147q4 21 26 21h807q12 0 17.5 -7.5t1.5 -20.5l-38 -147q-5 -21 -26 -21h-807z" />
    <glyph glyph-name="greater" unicode="&#x3e;" horiz-adv-x="987" 
d="M937 585l31 114q5 16 -10 21l-672 353q-24 12 -33 -14l-38 -137q-5 -21 9 -26l475 -240l-602 -245q-19 -6 -22 -26l-42 -151q-5 -14 2.5 -17.5t21.5 2.5l859 345q16 5 21 21z" />
    <glyph glyph-name="question" unicode="?" horiz-adv-x="824" 
d="M234 1154q-12 17 7 33q96 91 207.5 139.5t223.5 48.5q136 0 213 -66.5t77 -183.5q0 -57 -18.5 -108.5t-55 -97.5t-78 -83.5t-100.5 -80.5q-106 -79 -143.5 -117t-52.5 -95l-28 -106q-4 -12 -13 -19.5t-20 -7.5h-144q-24 0 -19 27l36 137q19 72 67 124.5t133 110.5
q106 74 141 111q64 65 64 134q0 56 -37.5 89.5t-105.5 33.5q-50 0 -100.5 -22t-81 -46t-69.5 -61q-18 -15 -33 2zM319 -14q-52 0 -89 38.5t-37 91.5q0 52 37 89.5t89 37.5q53 0 92 -37.5t39 -89.5q0 -53 -39 -91.5t-92 -38.5z" />
    <glyph glyph-name="at" unicode="@" horiz-adv-x="1843" 
d="M639 -345q-140 13 -251 68t-181 140.5t-106.5 193.5t-36.5 231q0 208 93 407t245 345.5t356.5 236t416.5 89.5q156 0 280 -48.5t202.5 -134t120 -197.5t41.5 -243q0 -126 -35.5 -248.5t-97.5 -220t-154.5 -157.5t-196.5 -60q-38 0 -69.5 9t-50.5 19.5t-38 31t-25.5 30
t-19.5 30.5q-68 -51 -161.5 -85.5t-187.5 -34.5q-108 0 -174 51t-66 161q0 38 9.5 71t23.5 59t42 49.5t54 41t70.5 35t81 29.5t95.5 26t103.5 24t116.5 24q43 130 -105 130q-104 0 -251 -59q-14 -4 -25.5 1t-12.5 20l-4 96q0 22 33 36q166 66 292 66q153 0 222 -79t31 -226
l-69 -257q-6 -29 -7 -57t20 -49t63 -21q64 0 121 51t93.5 129.5t57.5 169t21 173.5q0 188 -117 300.5t-343 112.5q-140 0 -275 -45.5t-245.5 -127.5t-195 -188.5t-131 -236.5t-46.5 -263q0 -185 105 -315t302 -163q36 -6 28 -31l-26 -114q-4 -15 -11.5 -21t-24.5 -5z
M805 219q66 0 133 26.5t116 63.5l62 163q-193 -36 -224 -44q-143 -37 -167 -102q-6 -16 -6 -34q0 -41 20.5 -57t65.5 -16z" />
    <glyph glyph-name="A" unicode="A" horiz-adv-x="1423" 
d="M1270 30q5 -30 -20 -30h-164q-22 0 -27 28l-33 170h-721l-126 -177q-13 -21 -33 -21h-200q-15 0 -19.5 10t5.5 23l944 1303q14 18 32 18h92q23 0 26 -25zM436 378h557l-117 615z" />
    <glyph glyph-name="B" unicode="B" horiz-adv-x="1204" 
d="M946 713q163 -88 163 -270q0 -123 -74.5 -226t-195 -160t-256.5 -57h-543q-32 0 -24 31l347 1298q5 25 31 25h503q146 0 229.5 -74t83.5 -197q0 -117 -72 -216.5t-192 -153.5zM816 1152h-278l-101 -374h257q116 0 203 72.5t87 171.5q0 130 -168 130zM574 201
q128 0 219.5 70t91.5 179q0 70 -45.5 110.5t-140.5 40.5h-308l-108 -400h291z" />
    <glyph glyph-name="C" unicode="C" horiz-adv-x="1374" 
d="M684 -12q-259 0 -412.5 144.5t-153.5 384.5q0 163 74 319.5t195 272t285 186.5t335 71q153 0 272 -60.5t179 -160.5q10 -18 10.5 -26t-12.5 -19l-135 -86q-22 -14 -51 12q-109 123 -286 123q-96 0 -191 -31.5t-175 -88.5t-142 -130.5t-97 -163.5t-35 -181
q0 -153 95.5 -251t272.5 -98q112 0 210.5 39.5t162.5 93.5q30 29 54 2l95 -123q18 -21 -14 -45q-248 -184 -536 -184z" />
    <glyph glyph-name="D" unicode="D" horiz-adv-x="1431" 
d="M40 0q-32 0 -24 31l347 1298q5 25 31 25h470q277 0 420 -141t143 -382q0 -169 -67.5 -322.5t-183.5 -265t-279.5 -177.5t-346.5 -66h-510zM283 201h309q128 0 243 50t195 133.5t126.5 195t46.5 231.5q0 164 -91 252.5t-277 88.5h-297z" />
    <glyph glyph-name="E" unicode="E" horiz-adv-x="1069" 
d="M1215 1354q12 0 18 -8.5t4 -21.5l-41 -149q-4 -23 -30 -23h-628l-99 -366h465q13 0 20 -8t3 -21l-40 -150q-4 -22 -30 -22h-472l-102 -384h644q13 0 19.5 -8t2.5 -21l-43 -149q-4 -23 -30 -23h-840q-12 0 -18 8.5t-4 21.5l349 1301q5 23 31 23h821z" />
    <glyph glyph-name="F" unicode="F" horiz-adv-x="1048" 
d="M1215 1354q12 0 18 -8.5t4 -21.5l-41 -149q-4 -23 -30 -23h-628l-97 -366h463q13 0 20 -8t3 -21l-40 -150q-4 -22 -30 -22h-470l-151 -562q-5 -23 -29 -23h-171q-12 0 -18 8.5t-4 21.5l349 1301q5 23 31 23h821z" />
    <glyph glyph-name="G" unicode="G" horiz-adv-x="1417" 
d="M1458 1145q10 -18 10.5 -26t-12.5 -19l-135 -86q-22 -14 -51 12q-109 123 -286 123q-96 0 -191 -31.5t-175 -88.5t-142 -130.5t-97 -163.5t-35 -181q0 -153 95.5 -251t272.5 -98q110 0 210 38t175 95l57 209h-305q-13 0 -20 8t-3 21l38 143q4 22 32 22h473q13 0 19 -8
t4 -21l-137 -504q-257 -220 -578 -220q-254 0 -406.5 144.5t-152.5 384.5q0 163 74 319.5t195 272t285 186.5t335 71q153 0 272 -60.5t179 -160.5z" />
    <glyph glyph-name="H" unicode="H" horiz-adv-x="1409" 
d="M1498 1354q13 0 19.5 -8.5t2.5 -21.5l-348 -1301q-5 -23 -30 -23h-170q-13 0 -19 8.5t-4 21.5l150 555h-712l-151 -562q-5 -23 -29 -23h-171q-12 0 -18 8.5t-4 21.5l349 1301q5 23 31 23h168q13 0 20 -8.5t3 -21.5l-144 -538h711l146 545q5 23 31 23h169z" />
    <glyph glyph-name="I" unicode="I" horiz-adv-x="473" 
d="M36 0q-12 0 -18 8.5t-4 21.5l349 1301q5 23 31 23h168q13 0 20 -8.5t3 -21.5l-349 -1301q-5 -23 -29 -23h-171z" />
    <glyph glyph-name="J" unicode="J" horiz-adv-x="538" 
d="M627 1354q13 0 19.5 -8.5t2.5 -21.5l-408 -1518q-42 -155 -137.5 -252t-224.5 -137q-38 -12 -47 19l-44 167q-6 30 21 33q84 12 140.5 66t78.5 135l399 1494q5 23 29 23h171z" />
    <glyph glyph-name="K" unicode="K" horiz-adv-x="1253" 
d="M1387 1354q18 0 22 -10.5t-10 -22.5l-798 -646l484 -644q9 -12 4 -21.5t-22 -9.5h-201q-21 0 -33 16l-439 593l-158 -586q-5 -23 -29 -23h-171q-12 0 -18 8.5t-4 21.5l349 1301q5 23 31 23h168q13 0 20 -8.5t3 -21.5l-153 -571l708 589q13 12 32 12h215z" />
    <glyph glyph-name="L" unicode="L" horiz-adv-x="1039" 
d="M861 201q14 0 20 -8t2 -21l-38 -149q-7 -23 -31 -23h-776q-13 0 -19.5 8.5t-2.5 21.5l347 1301q5 23 31 23h168q13 0 20 -8.5t3 -21.5l-302 -1123h578z" />
    <glyph glyph-name="M" unicode="M" horiz-adv-x="1780" 
d="M36 0q-13 0 -19.5 8.5t-2.5 21.5l349 1301q5 23 31 23h160q22 0 29 -21l280 -958l801 963q14 16 32 16h171q14 0 20.5 -8.5t2.5 -21.5l-349 -1301q-5 -23 -29 -23h-170q-13 0 -19.5 9t-1.5 21l245 900l-735 -894q-21 -22 -36 -22h-17q-18 0 -23 24l-274 891l-245 -906
q-4 -23 -29 -23h-171z" />
    <glyph glyph-name="N" unicode="N" horiz-adv-x="1431" 
d="M36 0q-12 0 -18 8.5t-4 21.5l349 1301q5 23 31 23h167q23 0 31 -19l462 -984l265 980q7 23 31 23h169q14 0 20 -8.5t2 -21.5l-349 -1301q-5 -23 -29 -23h-167q-22 0 -29 21l-465 982l-266 -980q-4 -23 -29 -23h-171z" />
    <glyph glyph-name="O" unicode="O" horiz-adv-x="1542" 
d="M666 -12q-251 0 -399.5 146.5t-148.5 380.5q0 130 47 257.5t131 233t193.5 187.5t242.5 127.5t269 45.5q252 0 400.5 -147t148.5 -382q0 -162 -74 -318t-194.5 -272.5t-283.5 -187.5t-332 -71zM706 205q119 0 233.5 50.5t198 132.5t134.5 190.5t51 219.5q0 159 -96 255
t-265 96q-159 0 -302.5 -85t-229 -222.5t-85.5 -287.5q0 -158 96.5 -253.5t264.5 -95.5z" />
    <glyph glyph-name="P" unicode="P" horiz-adv-x="1221" 
d="M916 1354q186 0 282.5 -102.5t96.5 -262.5q0 -115 -48.5 -221t-130 -183.5t-194.5 -123.5t-236 -46h-344l-106 -392q-5 -23 -29 -23h-171q-12 0 -18 8.5t-4 21.5l349 1301q5 23 31 23h522zM720 614q144 0 251 103.5t107 237.5q0 89 -50.5 143t-154.5 54h-335l-144 -538
h326z" />
    <glyph glyph-name="Q" unicode="Q" horiz-adv-x="1553" 
d="M1243 212l224 -252q25 -28 -4 -52l-108 -87q-27 -21 -53 7l-236 262q-193 -102 -400 -102q-251 0 -399.5 146.5t-148.5 380.5q0 130 47 257.5t131 233t193.5 187.5t242.5 127.5t269 45.5q252 0 400.5 -147t148.5 -382q0 -174 -82.5 -338t-224.5 -287zM345 554
q0 -158 96.5 -253.5t264.5 -95.5q119 0 233.5 50.5t198 132.5t134.5 190.5t51 219.5q0 159 -96 255t-265 96q-159 0 -302.5 -85t-229 -222.5t-85.5 -287.5z" />
    <glyph glyph-name="R" unicode="R" horiz-adv-x="1251" 
d="M1295 989q0 -179 -110 -326t-284 -210l159 -423q4 -13 -1.5 -21.5t-18.5 -8.5h-174q-22 0 -29 21l-146 394h-5h-344l-106 -392q-5 -23 -29 -23h-171q-12 0 -18 8.5t-4 21.5l349 1301q5 23 31 23h522q186 0 282.5 -102.5t96.5 -262.5zM720 614q144 0 251 103.5t107 237.5
q0 89 -50.5 143t-154.5 54h-335l-144 -538h326z" />
    <glyph glyph-name="S" unicode="S" horiz-adv-x="1072" 
d="M24 246l106 103q5 5 10 6.5t8 2t9 -2.5t8 -4.5t9 -6.5t8 -6q115 -138 280 -138q125 0 212.5 68t87.5 161q0 32 -13.5 58t-42 46t-52.5 32.5t-64 29.5q-68 32 -114.5 57t-94.5 59t-76.5 68.5t-46.5 80t-18 98.5q0 111 70 205.5t189 148.5t258 54q241 0 371 -167
q14 -17 16.5 -27t-11.5 -27l-107 -100q-23 -21 -56 9q-99 102 -245 102q-114 0 -188 -56t-74 -138q0 -58 45.5 -98t144.5 -80q43 -20 69 -32.5t65 -35t63 -41t52.5 -46.5t44 -56t26.5 -65.5t11 -78.5q0 -121 -75 -223t-198.5 -160t-264.5 -58q-74 0 -140 17.5t-109.5 41
t-81.5 55t-55 52t-30 39.5q-22 36 -6 53z" />
    <glyph glyph-name="T" unicode="T" horiz-adv-x="1062" 
d="M1220 1354q13 0 20 -8.5t3 -21.5l-40 -149q-5 -23 -31 -23h-341l-302 -1129q-5 -23 -29 -23h-170q-13 0 -19 8.5t-4 21.5l300 1122h-331q-13 0 -20 8.5t-3 21.5l40 149q4 23 32 23h895z" />
    <glyph glyph-name="U" unicode="U" horiz-adv-x="1325" 
d="M1423 1354q14 0 20.5 -8.5t2.5 -21.5l-224 -829q-28 -105 -85.5 -196t-140.5 -161t-196 -110t-241 -40q-108 0 -193 28.5t-137 77.5t-82.5 116t-30 144t20.5 161l217 816q5 23 31 23h169q13 0 19.5 -8.5t2.5 -21.5l-212 -786q-44 -165 19.5 -251.5t204.5 -86.5
q151 0 268 96t163 265l206 770q5 23 30 23h168z" />
    <glyph glyph-name="V" unicode="V" horiz-adv-x="1421" 
d="M550 0q-25 0 -28 24l-244 1300q-2 13 4 21.5t18 8.5h163q23 0 26 -28l183 -965l697 972q15 21 33 21h200q15 0 19.5 -10t-5.5 -23l-944 -1304q-10 -17 -32 -17h-90z" />
    <glyph glyph-name="W" unicode="W" horiz-adv-x="2080" 
d="M371 0q-23 0 -26 26l-67 1300q-3 28 26 28h173q28 0 28 -26l37 -967l617 975q9 18 32 18h171q25 0 28 -26l92 -967l559 975q11 18 31 18h186q15 0 20.5 -9.5t-1.5 -21.5l-760 -1306q-12 -17 -31 -17h-139q-25 0 -28 26l-106 1041l-673 -1050q-10 -17 -30 -17h-139z" />
    <glyph glyph-name="X" unicode="X" horiz-adv-x="1247" 
d="M1415 1354q17 0 22 -10t-7 -23l-618 -644l280 -647q5 -13 0 -21.5t-19 -8.5h-200q-21 0 -31 21l-203 474l-462 -481q-16 -14 -33 -14h-186q-17 0 -21.5 10t7.5 23l617 640l-280 651q-5 13 0 21.5t19 8.5h196q22 0 32 -21l206 -479l467 486q14 14 33 14h181z" />
    <glyph glyph-name="Y" unicode="Y" horiz-adv-x="1282" 
d="M1461 1354q17 0 21 -10t-7 -23l-699 -785l-137 -513q-8 -23 -32 -23h-168q-13 0 -19.5 8.5t-2.5 21.5l135 510l-273 784q-4 13 2 21.5t19 8.5h182q26 0 30 -23l203 -578l521 587q13 14 33 14h192z" />
    <glyph glyph-name="Z" unicode="Z" horiz-adv-x="1089" 
d="M-38 0q-29 0 -24 30l5 20q2 13 14 30l958 1072h-629q-13 0 -18.5 8.5t-1.5 21.5l39 149q4 23 30 23h920q13 0 19.5 -8.5t2.5 -21.5l-3 -21q-3 -12 -16 -29l-958 -1073h629q13 0 19.5 -8t2.5 -21l-40 -149q-4 -23 -29 -23h-920z" />
    <glyph glyph-name="bracketleft" unicode="[" horiz-adv-x="673" 
d="M843 1421h-281l-406 -1518h281q20 0 16 -23l-49 -177q-5 -22 -27 -22h-490q-20 0 -15 22l513 1918q5 21 28 21h490q22 0 15 -21l-47 -179q-5 -21 -28 -21z" />
    <glyph glyph-name="backslash" unicode="\" horiz-adv-x="732" 
d="M510 1388q23 0 23 -27l36 -1331q0 -13 -7.5 -21.5t-19.5 -8.5h-183q-26 0 -26 30l-34 1331q0 27 24 27h187z" />
    <glyph glyph-name="bracketright" unicode="]" horiz-adv-x="673" 
d="M-54 -97h281l406 1518h-279q-20 0 -16 23l47 177q5 21 28 21h490q22 0 17 -21l-514 -1918q-5 -22 -29 -22h-490q-20 0 -15 22l48 177q4 23 26 23z" />
    <glyph glyph-name="asciicircum" unicode="^" horiz-adv-x="1110" 
d="M847 1354q23 0 28 -21l210 -651q4 -12 -2 -19t-19 -7h-155q-23 0 -27 21l-146 422l-373 -429q-11 -14 -28 -14h-167q-16 0 -19.5 8.5t5.5 21.5l565 654q11 14 27 14h101z" />
    <glyph glyph-name="underscore" unicode="_" horiz-adv-x="1022" 
d="M774 -153q0 -12 -7 -20t-19 -8h-758q-12 0 -20 7.5t-8 19.5v128q0 26 28 26h758q26 0 26 -26v-127z" />
    <glyph glyph-name="grave" unicode="`" horiz-adv-x="685" 
d="M319 1234l372 -196q24 -9 34 9l59 95q12 20 -6 30l-351 239q-9 7 -20 7t-18 -9l-78 -139q-8 -13 -5.5 -22.5t13.5 -13.5z" />
    <glyph glyph-name="a" unicode="a" horiz-adv-x="1079" 
d="M1078 885q13 0 19 -7t2 -19l-223 -838q-8 -21 -27 -21h-167q-13 0 -19 7t-2 19l28 106q-146 -146 -328 -146q-144 0 -231 91.5t-87 245.5q0 107 42.5 211.5t113 184.5t168.5 129t202 49q101 0 172.5 -45.5t105.5 -126.5l36 139q5 21 28 21h167zM441 170q91 0 170.5 52
t124.5 132.5t45 166.5q0 88 -52 140t-141 52q-138 0 -240 -109t-102 -243q0 -88 51 -139.5t144 -51.5z" />
    <glyph glyph-name="b" unicode="b" horiz-adv-x="1110" 
d="M746 897q146 0 233 -91.5t87 -248.5q0 -143 -70.5 -274.5t-191.5 -214t-259 -82.5q-95 0 -169.5 41.5t-115.5 116.5l-33 -123q-4 -21 -27 -21h-167q-13 0 -19 7t-2 19l302 1133q7 25 11.5 51.5t6.5 42t4 36t2 23.5q0 42 35 42h108q45 0 65.5 -30t7.5 -80l-129 -479
q149 132 321 132zM521 170q92 0 172 51t125 130.5t45 165.5q0 92 -49.5 144t-141.5 52q-139 0 -240.5 -108.5t-101.5 -240.5q0 -91 51 -142.5t140 -51.5z" />
    <glyph glyph-name="c" unicode="c" horiz-adv-x="918" 
d="M427 -14q-170 0 -276 97.5t-106 260.5q0 143 81 271.5t213.5 205t276.5 76.5q103 0 179.5 -41.5t115.5 -107.5q13 -23 9 -32q-3 -5 -11 -11l-107 -73q-23 -15 -45 3q-61 80 -167 80q-141 0 -245.5 -104.5t-104.5 -233.5q0 -93 58.5 -150t156.5 -57q116 0 218 85
q34 19 47 -5l52 -104q14 -22 -10 -40q-155 -120 -335 -120z" />
    <glyph glyph-name="d" unicode="d" horiz-adv-x="1102" 
d="M1130 1354q44 0 65 -30t8 -80l-327 -1223q-8 -21 -27 -21h-167q-13 0 -19 7t-2 19l28 106q-146 -146 -328 -146q-144 0 -231 91.5t-87 245.5q0 107 42.5 211.5t113 184.5t168.5 129t202 49q103 0 174 -45.5t104 -127.5l116 435q16 61 23 153q3 42 36 42h108zM444 170
q90 0 168.5 51t122.5 130.5t44 165.5q0 90 -52 143t-142 53t-169 -51.5t-123.5 -131.5t-44.5 -166q0 -90 51 -142t145 -52z" />
    <glyph glyph-name="e" unicode="e" horiz-adv-x="987" 
d="M606 897q179 0 269.5 -107.5t70.5 -268.5q-2 -76 -45 -117t-125 -41h-530q3 -87 55 -145t164 -58q135 0 247 83q32 14 48 -14l35 -71q14 -22 -11 -43q-152 -129 -359 -129q-175 0 -277.5 94t-102.5 258q0 143 74.5 271.5t205 208t281.5 79.5zM581 720
q-100 0 -182.5 -58.5t-122.5 -151.5h482q8 89 -35.5 149.5t-141.5 60.5z" />
    <glyph glyph-name="f" unicode="f" horiz-adv-x="722" 
d="M975 1316q32 -32 13 -52l-79 -89q-19 -22 -38 -5q-46 35 -99 35q-69 0 -129.5 -44t-85.5 -137l-36 -139h204q26 0 21 -26l-40 -149q-5 -19 -27 -19h-210l-179 -670q-4 -21 -28 -21h-167q-28 0 -20 26l177 665h-101q-13 0 -19 7t-2 19l38 147q4 21 28 21h108l50 188
q43 157 152 240.5t246 83.5q138 0 223 -81z" />
    <glyph glyph-name="g" unicode="g" horiz-adv-x="1079" 
d="M1080 885q12 0 18 -7t2 -19l-225 -840q-29 -108 -84.5 -189t-127 -127t-149.5 -68t-163 -22q-103 0 -197 25.5t-156 76.5q-18 16 -5 33l71 103q12 16 30 7q50 -33 118.5 -49.5t131.5 -16.5q117 0 202.5 64.5t121.5 193.5l23 82q-148 -146 -330 -146q-144 0 -231 91.5
t-87 245.5q0 107 42.5 211.5t113 184.5t168.5 129t202 49q103 0 174 -46t104 -129l38 142q5 21 28 21h167zM444 170q90 0 168.5 51t122.5 130.5t44 165.5q0 90 -52 143t-142 53t-169 -51.5t-123.5 -131.5t-44.5 -166q0 -90 51 -142t145 -52z" />
    <glyph glyph-name="h" unicode="h" horiz-adv-x="1079" 
d="M745 896q143 0 217.5 -91.5t33.5 -245.5l-95 -356q-11 -41 -15.5 -72.5t-5.5 -56t-2 -34.5q0 -42 -57 -42h-106q-36 0 -52.5 29t-6.5 63l116 439q23 83 -14 130t-118 47q-79 0 -151.5 -41.5t-117.5 -102.5l-144 -541q-4 -21 -27 -21h-167q-13 0 -19 7t-2 19l302 1133
q7 25 11.5 51.5t6.5 42t4 36t2 23.5q0 42 35 42h108q45 0 65.5 -30t7.5 -80l-129 -484q149 136 320 136z" />
    <glyph glyph-name="i" unicode="i" horiz-adv-x="439" 
d="M444 1161q-47 0 -80 32.5t-33 80.5q0 46 33 78.5t80 32.5q46 0 78.5 -32.5t32.5 -78.5q0 -48 -32 -80.5t-79 -32.5zM17 0q-12 0 -18 7t-2 19l223 838q4 21 26 21h169q26 0 21 -26l-224 -838q-4 -21 -28 -21h-167z" />
    <glyph glyph-name="j" unicode="j" horiz-adv-x="432" 
d="M437 1161q-48 0 -80 32.5t-32 80.5q0 47 32 79t80 32q47 0 79 -32.5t32 -78.5q0 -48 -32 -80.5t-79 -32.5zM-94 -391q-15 -7 -27 -0.5t-16 21.5l-42 163q-7 34 21 42q59 21 94 54.5t50 91.5l236 883q4 21 28 21h167q25 0 20 -26l-239 -892q-40 -149 -103.5 -229.5
t-188.5 -128.5z" />
    <glyph glyph-name="k" unicode="k" horiz-adv-x="1004" 
d="M1015 885q16 0 20 -9.5t-9 -19.5l-514 -400l335 -426q7 -12 2.5 -20t-18.5 -8l-199 -2q-21 0 -30 16l-279 362l-96 -357q-4 -21 -27 -21h-167q-13 0 -19 7t-2 19l302 1133q7 25 11.5 51.5t6.5 42t4 36t2 23.5q0 42 35 42h108q45 0 65.5 -30t7.5 -80l-186 -696l415 327
q13 10 29 10h203z" />
    <glyph glyph-name="l" unicode="l" horiz-adv-x="452" 
d="M33 0q-13 0 -19 7t-2 19l302 1133q7 25 11.5 51.5t6.5 42t4 36t2 23.5q0 42 35 42h108q45 0 65.5 -30t7.5 -80l-327 -1223q-4 -21 -27 -21h-167z" />
    <glyph glyph-name="m" unicode="m" horiz-adv-x="1641" 
d="M1321 897q142 0 211 -90.5t27 -245.5l-94 -356q-14 -56 -18 -108t-5 -57q-1 -23 -15.5 -31.5t-43.5 -8.5h-104q-37 0 -54 28t-7 64l118 439q22 83 -10.5 129t-114.5 46q-76 0 -142.5 -38.5t-112.5 -98.5q0 -1 -0.5 -4t-0.5 -4l-94 -356q-14 -56 -18 -108t-5 -57
q-1 -23 -15.5 -31.5t-43.5 -8.5h-104q-37 0 -54 28t-7 64l118 439q22 83 -10.5 129t-114.5 46q-75 0 -141.5 -38t-111.5 -97l-146 -550q-8 -21 -27 -21h-167q-13 0 -19 7t-2 19l222 838q5 21 28 21h167q28 0 20 -26l-24 -94q145 132 311 132q100 0 165.5 -46t82.5 -131
q163 177 356 177z" />
    <glyph glyph-name="n" unicode="n" 
d="M724 897q144 0 217.5 -91t32.5 -245l-94 -356q-11 -42 -15.5 -73.5t-5.5 -56.5t-2 -35q-1 -23 -15 -31.5t-42 -8.5h-106q-37 0 -54 28t-7 64l119 439q22 82 -16.5 128.5t-119.5 46.5q-78 0 -147.5 -38t-114.5 -97l-146 -550q-8 -21 -27 -21h-167q-13 0 -19 7t-2 19
l222 838q5 21 28 21h167q28 0 20 -26l-26 -95q154 133 320 133z" />
    <glyph glyph-name="o" unicode="o" horiz-adv-x="1046" 
d="M422 -14q-170 0 -273.5 95.5t-103.5 256.5q0 145 80 274.5t214.5 207t285.5 77.5q171 0 273.5 -95t102.5 -257q0 -147 -79 -276t-213 -206t-287 -77zM448 170q141 0 246.5 107t105.5 240q0 89 -53 142.5t-146 53.5q-141 0 -247 -106t-106 -239q0 -90 53 -144t147 -54z
" />
    <glyph glyph-name="p" unicode="p" horiz-adv-x="1089" 
d="M727 897q144 0 232 -92t88 -248q0 -142 -71 -274t-192.5 -214.5t-259.5 -82.5q-93 0 -168.5 39.5t-119.5 111.5l-123 -463q-5 -21 -26 -21h-169q-12 0 -18 7t-2 19l270 1012q7 25 11.5 51t6 42t3 35t2.5 24q3 42 36 42h108q46 0 66 -30.5t7 -78.5l-2 -7q151 128 321 128z
M502 170q92 0 171.5 51t124 130.5t44.5 165.5q0 92 -49 144t-142 52q-92 0 -171.5 -52t-124 -132t-44.5 -165q0 -91 50.5 -142.5t140.5 -51.5z" />
    <glyph glyph-name="q" unicode="q" horiz-adv-x="1089" 
d="M1080 885q12 0 18 -7t2 -19l-270 -1012q-7 -25 -11.5 -51t-6 -42t-3 -35t-2.5 -24q-3 -42 -36 -42h-108q-52 0 -69.5 26.5t-3.5 82.5l99 370q-146 -146 -328 -146q-144 0 -231 91.5t-87 245.5q0 107 42.5 211.5t113 184.5t168.5 129t202 49q103 0 174 -45.5t104 -127.5
l38 140q5 21 28 21h167zM444 170q90 0 168.5 51t122.5 130.5t44 165.5q0 90 -52 143t-142 53t-169 -51.5t-123.5 -131.5t-44.5 -166q0 -90 51 -142t145 -52z" />
    <glyph glyph-name="r" unicode="r" horiz-adv-x="775" 
d="M828 838q13 -10 17.5 -24.5t-5.5 -27.5l-108 -120q-4 -5 -9 -6t-8 0.5t-8.5 5t-7.5 4.5q-54 40 -119 40q-138 0 -224 -134l-148 -555q-8 -21 -27 -21h-167q-13 0 -19 7t-2 19l222 838q5 21 28 21h167q28 0 20 -26l-20 -81q126 119 258 119q92 0 160 -59z" />
    <glyph glyph-name="s" unicode="s" horiz-adv-x="803" 
d="M430 517q130 -34 197 -90.5t67 -150.5q0 -132 -114.5 -211t-279.5 -79q-178 0 -321 108q-19 14 -5 34l76 98q14 16 33 5q122 -71 231 -71q76 0 128.5 31.5t52.5 77.5q0 40 -33.5 63.5t-107.5 44.5q-117 34 -176.5 90t-59.5 147q0 128 107 205.5t268 77.5q166 0 290 -95
q19 -14 5 -33l-80 -101q-14 -16 -33 -5q-92 57 -203 57q-72 0 -119.5 -27t-47.5 -75q0 -38 32 -60.5t93 -40.5z" />
    <glyph glyph-name="t" unicode="t" horiz-adv-x="699" 
d="M340 -14q-135 0 -192.5 84t-20.5 227l107 394h-102q-13 0 -19 7t-2 19l16 57q4 16 17 26q107 60 174.5 129t157.5 211q10 14 29 14h45q13 0 19 -7t2 -19l-66 -243h194q12 0 18.5 -7t2.5 -19l-40 -149q-5 -19 -26 -19h-151q-23 0 -50 8l-109 -402q-18 -56 -5 -88t65 -32
q43 0 94 24q24 12 31 -12l39 -111q5 -25 -23 -38q-100 -54 -205 -54z" />
    <glyph glyph-name="u" unicode="u" 
d="M1045 885q26 0 21 -26l-224 -838q-4 -21 -28 -21h-167q-12 0 -18 7t-2 19l26 95q-149 -133 -320 -133q-144 0 -217.5 91.5t-32.5 245.5l94 355q11 42 15.5 73.5t5.5 56.5t2 35q1 23 15.5 31.5t43.5 8.5h105q36 0 52 -28t7 -64l-118 -439q-22 -82 16.5 -128.5t121.5 -46.5
q77 0 146.5 39t115.5 98l145 548q4 21 26 21h169z" />
    <glyph glyph-name="v" unicode="v" horiz-adv-x="978" 
d="M300 0q-23 0 -26 23l-121 838q-3 24 22 24h153q26 0 26 -22l85 -594h7l394 599q7 17 28 17h166q14 0 19 -8.5t-3 -20.5l-569 -840q-11 -16 -30 -16h-151z" />
    <glyph glyph-name="w" unicode="w" horiz-adv-x="1424" 
d="M219 0q-22 0 -25 23l-43 838q0 24 24 24h150q24 0 24 -24l14 -590h7l349 597q10 17 29 17h151q21 0 24 -22l25 -592h7l340 597q7 17 29 17h155q14 0 19 -8t-2 -21l-496 -839q-7 -17 -28 -17h-155q-21 0 -24 23l-28 604l-362 -611q-9 -16 -28 -16h-156z" />
    <glyph glyph-name="x" unicode="x" horiz-adv-x="947" 
d="M986 885q16 0 20 -8.5t-8 -20.5l-404 -412l180 -416q5 -13 -0.5 -20.5t-18.5 -7.5h-179q-22 0 -29 21l-108 265l-257 -272q-10 -14 -29 -14h-191q-16 0 -20 9t8 21l409 416l-177 411q-5 12 0.5 20t18.5 8h176q23 0 27 -21l106 -263l255 270q13 14 32 14h189z" />
    <glyph glyph-name="y" unicode="y" horiz-adv-x="978" 
d="M73 -347q-14 0 -19 8.5t3 20.5l219 339l-123 840q-3 24 22 24h155q23 0 26 -22l83 -594h7l392 599q7 17 30 17h166q14 0 18.5 -8.5t-2.5 -20.5l-793 -1187q-11 -16 -30 -16h-154z" />
    <glyph glyph-name="z" unicode="z" horiz-adv-x="834" 
d="M179 691q-13 0 -19 7t-2 19l38 147q4 21 28 21h644q26 0 21 -26l-7 -35l-589 -630h373q13 0 19 -7t2 -19l-38 -147q-5 -21 -28 -21h-654q-26 0 -21 26l7 35l592 630h-366z" />
    <glyph glyph-name="braceleft" unicode="{" horiz-adv-x="798" 
d="M493 -337q-57 0 -107.5 10.5t-98 32.5t-81.5 61.5t-54 92.5t-18.5 130t26.5 170l60 225q19 71 -12.5 105.5t-86.5 38.5q-26 3 -22 26l42 155q8 26 36 26q56 4 107.5 40.5t69.5 103.5l59 226q29 112 80.5 200t111.5 142.5t132 90t139 49.5t136 14q28 0 21 -24l-40 -153
q-4 -15 -10 -21t-21 -10q-142 -12 -218.5 -94.5t-116.5 -232.5l-56 -208q-13 -51 -42 -92.5t-63 -65.5t-62.5 -37.5t-51.5 -17.5l-7 -25q16 -4 32 -13t35.5 -26t30.5 -40.5t15.5 -58t-8.5 -77.5l-56 -208q-25 -96 -24.5 -165.5t46 -111.5t138.5 -49q22 -3 14 -32l-40 -151
q-8 -26 -35 -26z" />
    <glyph glyph-name="bar" unicode="|" horiz-adv-x="571" 
d="M417 1347q5 21 26 21h175q12 0 18.5 -7t2.5 -19l-542 -2015q-4 -21 -28 -21h-173q-26 0 -21 26z" />
    <glyph glyph-name="braceright" unicode="}" horiz-adv-x="800" 
d="M408 1602q48 0 92 -7t87 -24t76.5 -42.5t58.5 -65t36.5 -89.5t8 -118.5t-25.5 -149.5l-61 -226q-19 -71 12.5 -105.5t86.5 -38.5q28 0 23 -26l-42 -155q-7 -23 -36 -26q-54 -3 -106.5 -40t-70.5 -104l-59 -225q-29 -111 -80.5 -199t-111.5 -143t-132 -90.5t-139 -50
t-136 -14.5q-13 0 -19 7t-2 19l42 151q4 28 31 32q141 13 217 95t116 231l56 208q13 51 42 92.5t63 66t61.5 38t51.5 18.5l7 25q-20 4 -41 16.5t-43 39t-27 64.5t7 93l58 208q24 96 23 166.5t-46 112t-139 48.5q-13 2 -16 9.5t2 21.5l40 153q7 24 35 24z" />
    <glyph glyph-name="asciitilde" unicode="~" horiz-adv-x="1008" 
d="M863 606q23 16 33 -7l36 -90q8 -18 -7 -33q-140 -129 -271 -129q-46 0 -79.5 14t-53.5 33.5t-38.5 39t-46 33.5t-65.5 14q-39 0 -78 -15t-62.5 -31t-56.5 -43q-9 -10 -18.5 -8t-14.5 15l-35 87q-8 19 7 33q64 59 128.5 94.5t142.5 35.5q46 0 79 -14t52.5 -33.5t38 -39.5
t46 -34t65.5 -14q40 0 79 15.5t63.5 32.5t55.5 44z" />
    <glyph glyph-name="exclamdown" unicode="&#xa1;" horiz-adv-x="439" 
d="M302 899q53 0 90.5 -38.5t37.5 -91.5q0 -52 -37.5 -89.5t-90.5 -37.5q-52 0 -90 37.5t-38 89.5q0 53 38 91.5t90 38.5zM-109 -469q-12 0 -17.5 8t-3.5 20l7 24l241 726q2 11 11 18.5t19 7.5h102q24 0 19 -26l-151 -726l-5 -24q-5 -28 -37 -28h-185z" />
    <glyph glyph-name="cent" unicode="&#xa2;" horiz-adv-x="918" 
d="M911 748q13 -23 9 -32q-3 -5 -11 -11l-107 -73q-23 -15 -45 3q-37 46 -82 66l-271 -526q27 -5 51 -5q116 0 218 85q34 19 47 -5l52 -104q14 -22 -10 -40q-155 -120 -335 -120q-59 0 -115 14l-69 -137q-10 -22 -26 -14l-52 23q-20 5 -11 26l70 135q-84 43 -131.5 123.5
t-47.5 187.5q0 143 81 271.5t213.5 205t276.5 76.5q26 0 50 -3l46 87q10 21 26 13l55 -20q17 -8 9 -26l-40 -77q102 -41 149 -123zM240 377q0 -109 76 -165l258 503q-136 -7 -235 -110.5t-99 -227.5z" />
    <glyph glyph-name="sterling" unicode="&#xa3;" horiz-adv-x="1018" 
d="M1149 1201q13 -18 -4 -35l-126 -93q-17 -12 -35 3q-79 90 -201 90q-127 0 -209.5 -86t-82.5 -209q0 -34 21 -151h345q27 0 19 -26l-33 -125q-5 -21 -26 -21h-303q-19 -100 -72.5 -198t-116.5 -154h494q26 0 21 -28l-40 -147q-4 -21 -28 -21h-744q-12 0 -18.5 7t-4.5 19
l7 40q112 103 191 228t101 254h-151q-12 0 -17.5 8t-1.5 20l33 125q5 19 26 19h111q-21 138 -21 179q0 139 68.5 249.5t184 170t254.5 59.5q222 0 359 -177z" />
    <glyph glyph-name="currency" unicode="&#xa4;" horiz-adv-x="890" 
d="M897 1199q12 -32 12 -80q0 -118 -85 -218l77 -96l-52 -47l-75 94q-99 -83 -220 -83q-132 0 -200 95l-128 -106l-42 47l141 118q-13 35 -13 80q0 119 85 219l-76 95l52 47l75 -94q103 84 220 84q132 0 200 -96l128 106l42 -47zM562 830q111 0 198 88t87 193
q0 77 -52.5 129.5t-133.5 52.5q-113 0 -199.5 -87.5t-86.5 -193.5q0 -77 53 -129.5t134 -52.5z" />
    <glyph glyph-name="yen" unicode="&#xa5;" horiz-adv-x="1282" 
d="M1461 1354q17 0 21 -10t-7 -23l-691 -774h249q13 0 19 -8t2 -20l-25 -83q-7 -21 -29 -21h-257l-40 -153h253q13 0 19 -8t2 -20l-24 -83q-7 -21 -30 -21h-257l-27 -107q-8 -23 -32 -23h-168q-13 0 -19.5 8.5t-2.5 21.5l26 100h-256q-25 0 -20 26l22 85q7 21 28 21h262
l40 153h-253q-13 0 -19 7t-2 19l21 85q8 21 27 21h257l-271 777q-4 13 2 21.5t19 8.5h182q26 0 30 -23l203 -578l521 587q13 14 33 14h192z" />
    <glyph glyph-name="brokenbar" unicode="&#xa6;" horiz-adv-x="572" 
d="M226 529q-12 0 -18.5 8t-2.5 20l212 790q5 21 27 21h174q13 0 19 -7t2 -19l-212 -792q-5 -21 -28 -21h-173zM295 165q13 0 19 -7.5t2 -20.5l-219 -810q-4 -21 -26 -21h-175q-26 0 -21 26l219 812q5 21 27 21h174z" />
    <glyph glyph-name="section" unicode="&#xa7;" horiz-adv-x="1074" 
d="M1128 1199q9 -12 12.5 -18.5t3 -16.5t-10.5 -19l-107 -100q-24 -21 -58 9q-92 102 -241 102q-115 0 -189.5 -56t-74.5 -138q0 -58 45.5 -98t144.5 -80q43 -20 69 -32.5t65 -35t63 -41t52.5 -46.5t44 -56t26.5 -65.5t11 -78.5q0 -83 -37.5 -157t-104.5 -128
q29 -58 29 -130q0 -120 -73.5 -221.5t-196 -159.5t-263.5 -58q-75 0 -142 17.5t-111 40.5t-82 54.5t-55.5 51.5t-29.5 39q-26 34 -5 55l104 103q19 20 51 -12q57 -60 99 -86q83 -53 185 -53q124 0 211.5 68.5t87.5 160.5q0 32 -14 58.5t-41.5 46.5t-53.5 33t-65 29
q-68 32 -114 57t-94.5 59.5t-76.5 68.5t-46 79.5t-18 97.5q0 80 39.5 152.5t108.5 125.5q-36 60 -36 137q0 111 70 205.5t189.5 148.5t260.5 54q238 0 368 -167zM590 595q-105 51 -156 82q-82 -46 -82 -130q0 -58 44.5 -96t145.5 -81q109 -51 144 -73q76 53 76 132
q0 32 -13.5 58t-42 46t-52.5 32.5t-64 29.5z" />
    <glyph glyph-name="dieresis" unicode="&#xa8;" horiz-adv-x="824" 
d="M415 1161q-43 0 -73.5 31.5t-30.5 74.5t30.5 72.5t73.5 29.5t73.5 -29.5t30.5 -72.5t-30.5 -74.5t-73.5 -31.5zM850 1161q-43 0 -73.5 31.5t-30.5 74.5t30.5 72.5t73.5 29.5q42 0 73.5 -30t31.5 -72q0 -43 -31.5 -74.5t-73.5 -31.5z" />
    <glyph glyph-name="copyright" unicode="&#xa9;" horiz-adv-x="1542" 
d="M666 -12q-251 0 -399.5 146.5t-148.5 380.5q0 130 47 257.5t131 233t193.5 187.5t242.5 127.5t269 45.5q252 0 400.5 -147t148.5 -382q0 -162 -74 -318t-194.5 -272.5t-283.5 -187.5t-332 -71zM687 135q138 0 269 58t226.5 152.5t153.5 219.5t58 254q0 180 -110.5 289.5
t-304.5 109.5q-136 0 -266.5 -58t-225.5 -152.5t-153 -219t-58 -252.5q0 -182 109.5 -291.5t301.5 -109.5zM748 288q-132 0 -213.5 77t-81.5 208q0 91 41.5 179.5t108.5 154.5t154.5 107t174.5 41q93 0 160.5 -42.5t98.5 -101.5l-127 -74q-50 81 -151 81q-119 0 -213 -96.5
t-94 -212.5q0 -75 44 -124t122 -49q57 0 114 24.5t96 65.5l75 -111q-53 -54 -136.5 -90.5t-172.5 -36.5z" />
    <glyph glyph-name="ordfeminine" unicode="&#xaa;" horiz-adv-x="1079" 
d="M1078 885q13 0 19 -7t2 -19l-223 -838q-8 -21 -27 -21h-167q-13 0 -19 7t-2 19l28 106q-146 -146 -328 -146q-144 0 -231 91.5t-87 245.5q0 107 42.5 211.5t113 184.5t168.5 129t202 49q101 0 172.5 -45.5t105.5 -126.5l36 139q5 21 28 21h167zM441 170q91 0 170.5 52
t124.5 132.5t45 166.5q0 88 -52 140t-141 52q-138 0 -240 -109t-102 -243q0 -88 51 -139.5t144 -51.5z" />
    <glyph glyph-name="guillemotleft" unicode="&#xab;" horiz-adv-x="1062" 
d="M76 377l160 -342q8 -16 23 -16h142q19 0 27 12t4 31l-106 334l2 5l288 331q14 20 11.5 33t-20.5 13h-137q-18 0 -38 -20l-342 -335q-11 -9 -15 -22t1 -24zM509 377l159 -342q5 -16 23 -16h142q18 0 26.5 12.5t4.5 30.5l-106 334v5l290 331q13 20 11.5 33t-19.5 13h-137
q-19 0 -39 -20l-343 -335q-23 -23 -12 -46z" />
    <glyph glyph-name="logicalnot" unicode="&#xac;" horiz-adv-x="1051" 
d="M769 234q-12 0 -18.5 8t-2.5 20l83 307h-682q-13 0 -19 7.5t-2 20.5l33 120q5 19 26 19h828q13 0 19 -7t2 -19l-121 -455q-5 -21 -28 -21h-118z" />
    <glyph glyph-name="uni00AD" unicode="&#xad;" horiz-adv-x="822" 
d="M715 373q0 -26 -26 -26h-559q-26 0 -26 24v129q0 26 26 26h559q26 0 26 -24v-129z" />
    <glyph glyph-name="registered" unicode="&#xae;" horiz-adv-x="1077" 
d="M779 1371q174 0 280 -103.5t106 -269.5q0 -158 -87 -300t-233.5 -228t-311.5 -86q-169 0 -277 105t-108 269q0 119 52.5 232t138.5 196t202 134t238 51zM552 489q95 0 187.5 42t161.5 109.5t111.5 158.5t42.5 183q0 127 -79.5 205t-213.5 78q-95 0 -188 -41.5
t-162 -108.5t-112 -157t-43 -182q0 -128 80 -207.5t215 -79.5zM760 1102q50 0 80.5 -31.5t30.5 -77.5q0 -52 -37 -99.5t-91 -67.5l50 -158q3 -12 -7 -12h-78q-10 0 -14 10l-45 148h-85l-40 -148q-3 -10 -12 -10h-71q-6 0 -9 2.5t-2 7.5l115 422q4 14 17 14h198zM677 890
q39 0 63.5 26.5t24.5 57.5q0 50 -53 50h-92l-35 -134h92z" />
    <glyph glyph-name="macron" unicode="&#xaf;" horiz-adv-x="787" 
d="M321 1314q5 26 33 26h561q27 0 19 -26l-33 -127q-9 -28 -33 -28h-563q-27 0 -19 26z" />
    <glyph glyph-name="degree" unicode="&#xb0;" horiz-adv-x="662" 
d="M460 908q-87 0 -139 51.5t-52 133.5q0 116 97.5 210t218.5 94q87 0 139 -51t52 -133q0 -119 -97 -212t-219 -93zM495 1045q53 0 95.5 41.5t42.5 95.5q0 34 -23 56t-60 22q-54 0 -96.5 -41.5t-42.5 -95.5q0 -34 23 -56t61 -22z" />
    <glyph glyph-name="plusminus" unicode="&#xb1;" horiz-adv-x="1029" 
d="M1062 991q27 0 19 -26l-38 -149q-5 -21 -26 -21h-309l-83 -309q-5 -21 -28 -21h-146q-12 0 -18.5 8t-2.5 20l82 302h-302q-13 0 -19 8t-2 20l40 147q5 21 26 21h309l83 311q5 19 26 19h148q26 0 21 -26l-82 -304h302zM828 181q12 0 17.5 -7t1.5 -18l-38 -137
q-5 -19 -25 -19h-789q-26 0 -21 24l38 137q5 20 26 20h790z" />
    <glyph glyph-name="uni00B2" unicode="&#xb2;" horiz-adv-x="1041" 
d="M9 0q-13 0 -19 7t-2 19l10 52l646 587q47 42 72.5 66t62.5 63.5t56 69t33.5 67.5t14.5 74q0 68 -44 111t-127 43q-165 0 -327 -189q-17 -20 -34 0l-96 110q-13 18 2 33q237 253 493 253q160 0 257 -84t97 -228q0 -212 -222 -417l-502 -441h495q12 0 17.5 -7.5t1.5 -20.5
l-38 -147q-4 -21 -28 -21h-819z" />
    <glyph glyph-name="uni00B3" unicode="&#xb3;" horiz-adv-x="1062" 
d="M1126 1354q26 0 21 -26l-40 -155q-2 -15 -17 -26l-411 -331q155 -7 233.5 -91.5t78.5 -217.5q0 -139 -81 -260.5t-214 -192.5t-281 -71q-136 0 -239 63.5t-148 177.5q-5 11 -6.5 16t1 12.5t12.5 14.5l119 89q18 8 26.5 3t20.5 -24q32 -69 93.5 -108.5t144.5 -39.5
q136 0 236.5 94.5t100.5 213.5q0 71 -39.5 116t-116.5 45q-72 0 -138 -29q-22 -8 -34 17l-51 116q-10 25 7 40l446 359h-480q-13 0 -19 7t-2 19l40 148q5 21 26 21h711z" />
    <glyph glyph-name="acute" unicode="&#xb4;" horiz-adv-x="631" 
d="M746 1234q27 10 9 36l-78 139q-5 9 -17 9t-21 -7l-351 -239q-7 -4 -9.5 -12.5t2.5 -17.5l59 -95q11 -19 35 -9z" />
    <glyph glyph-name="paragraph" unicode="&#xb6;" horiz-adv-x="1476" 
d="M1616 1354q13 0 19 -7t2 -19l-47 -176q-4 -19 -28 -19h-154l-297 -1112q-5 -21 -28 -21h-174q-12 0 -18 7t-2 19l295 1107h-115l-297 -1112q-4 -21 -27 -21h-174q-12 0 -18.5 7t-2.5 19l118 439h-133q-161 0 -251.5 97.5t-90.5 246.5q0 105 46.5 205.5t123 174.5
t179.5 119.5t210 45.5h864zM725 684l120 449h-111q-88 0 -160.5 -44t-110.5 -109t-38 -133q0 -71 43.5 -117t133.5 -46h123z" />
    <glyph glyph-name="periodcentered" unicode="&#xb7;" horiz-adv-x="440" 
d="M227 340q-53 0 -90.5 38.5t-37.5 90.5q0 53 37.5 90.5t90.5 37.5q52 0 90.5 -37.5t38.5 -90.5q0 -52 -38.5 -90.5t-90.5 -38.5z" />
    <glyph glyph-name="cedilla" unicode="&#xb8;" horiz-adv-x="597" 
d="M141 -111q75 -4 120.5 -51.5t45.5 -122.5q0 -111 -93.5 -195t-208.5 -84q-56 0 -96.5 23.5t-59.5 59.5q-8 14 7 28l64 49q17 10 26 -2q34 -42 89 -42q61 0 106 43t45 96q0 36 -22.5 59.5t-66.5 23.5q-48 0 -107 -46q-16 -11 -25 0l-43 45q-7 9 2 22l170 205h139z" />
    <glyph glyph-name="uni00B9" unicode="&#xb9;" horiz-adv-x="569" 
d="M694 1354q26 0 21 -26l-351 -1307q-4 -21 -27 -21h-167q-13 0 -19 7t-2 19l274 1014q-34 -20 -87.5 -37t-78.5 -17q-23 0 -33.5 9.5t-6.5 26.5l24 113q5 27 25 31q82 17 129.5 56t99.5 116q9 16 33 16h166z" />
    <glyph glyph-name="ordmasculine" unicode="&#xba;" horiz-adv-x="1046" 
d="M422 -14q-170 0 -273.5 95.5t-103.5 256.5q0 145 80 274.5t214.5 207t285.5 77.5q171 0 273.5 -95t102.5 -257q0 -147 -79 -276t-213 -206t-287 -77zM448 170q141 0 246.5 107t105.5 240q0 89 -53 142.5t-146 53.5q-141 0 -247 -106t-106 -239q0 -90 53 -144t147 -54z
" />
    <glyph glyph-name="guillemotright" unicode="&#xbb;" horiz-adv-x="1062" 
d="M531 420l-160 342q-8 16 -22 16h-142q-19 0 -27.5 -12.5t-4.5 -31.5l106 -333l-2 -5l-288 -332q-14 -20 -11.5 -32.5t20.5 -12.5h137q19 0 38 19l342 335q26 23 14 47zM962 420l-158 342q-8 16 -23 16h-142q-19 0 -27.5 -12.5t-4.5 -31.5l106 -333l-1 -5l-289 -332
q-9 -13 -11.5 -23t2.5 -16t16 -6h139q19 0 38 19l342 335q11 9 14.5 22.5t-1.5 24.5z" />
    <glyph glyph-name="onequarter" unicode="&#xbc;" horiz-adv-x="1256" 
d="M1045 1388q16 0 22 -8.5t-1 -22.5l-715 -1336q-11 -21 -30 -21h-55q-16 0 -22 9t1 22l713 1337q13 20 31 20h56zM305 1165q-8 -2 -14 1.5t-5 10.5l13 50q0 14 17 21q102 39 161 121q19 19 32 19h57q8 0 12 -4t2 -11l-155 -576q-5 -18 -22 -18h-66q-19 0 -14 18l107 402z
M1102 250q16 0 11 -14l-18 -69q-6 -13 -17 -13h-57l-39 -142q-3 -12 -15 -12h-70q-13 0 -10 12l38 142h-227q-15 0 -12 16l20 80q110 65 187.5 160.5t104.5 198.5q3 14 16 14h72q11 0 7 -14q-25 -113 -90.5 -199t-172.5 -160h119l9 33q3 11 17 14l70 7q5 0 8.5 -4.5
t1.5 -9.5l-10 -40h57z" />
    <glyph glyph-name="onehalf" unicode="&#xbd;" horiz-adv-x="1293" 
d="M958 1368q13 20 31 20h56q16 0 22 -8.5t-1 -22.5l-715 -1336q-11 -21 -30 -21h-55q-16 0 -22 9t1 22zM566 1388q8 0 12 -4t2 -11l-155 -576q-5 -18 -22 -18h-66q-19 0 -14 18l107 402l-125 -34q-8 -2 -14 1.5t-5 10.5l13 50q0 14 17 21q102 39 161 121q19 19 32 19h57z
M699 0q-15 0 -12 16l6 20l298 264q36 33 53 49t36.5 47t19.5 57q0 34 -24.5 56t-65.5 22q-67 0 -147 -76q-14 -11 -20 0l-36 48q-6 10 2 18q103 109 231 109q74 0 117.5 -39t43.5 -105q0 -50 -26 -99.5t-68 -87.5l-222 -198h214q13 0 10 -12l-21 -75q-5 -14 -15 -14h-374z
" />
    <glyph glyph-name="threequarters" unicode="&#xbe;" horiz-adv-x="1244" 
d="M628 998q0 -97 -81 -168.5t-186 -71.5q-123 0 -174 106q-8 11 4 19l57 46q13 9 19 -4q43 -78 115 -78q58 0 104.5 40.5t46.5 94.5q0 48 -35.5 66.5t-112.5 -7.5l-33 56q-3 7 6 16l210 180h-233q-14 0 -10 14l19 68q3 13 15 13h344q15 0 12 -13l-19 -68q-1 -5 -19 -23
l-184 -154q64 2 99.5 -35t35.5 -97zM1078 1388q16 0 21 -8.5t-2 -22.5l-713 -1336q-14 -21 -32 -21h-53q-17 0 -22.5 9t1.5 22l713 1337q10 20 31 20h56zM1107 250q16 0 11 -14l-19 -69q-4 -13 -16 -13h-57l-38 -142q-3 -12 -16 -12h-69q-14 0 -11 12l38 142h-227
q-15 0 -12 16l21 80q109 65 186.5 160.5t104.5 198.5q3 14 14 14h75q11 0 7 -14q-25 -113 -90.5 -199t-173.5 -160h120l8 33q3 11 18 14l69 7q5 0 8.5 -4.5t1.5 -9.5l-10 -40h57z" />
    <glyph glyph-name="questiondown" unicode="&#xbf;" horiz-adv-x="810" 
d="M491 897q52 0 89.5 -38.5t37.5 -91.5q0 -52 -37.5 -89.5t-89.5 -37.5q-53 0 -91.5 37.5t-38.5 89.5q0 53 38.5 91.5t91.5 38.5zM576 -271q12 -17 -7 -33q-96 -91 -207 -139t-223 -48q-136 0 -213 66.5t-77 183.5q0 109 64 194t186 175q107 79 145 117t53 95l28 106
q2 12 12 20t21 8h144q24 0 19 -28l-37 -137q-19 -72 -66.5 -124t-132.5 -110q-106 -74 -141 -111q-64 -65 -64 -134q0 -56 37 -89.5t105 -33.5q72 0 131.5 35t120.5 93q18 15 33 -2z" />
    <glyph glyph-name="Agrave" unicode="&#xc0;" horiz-adv-x="1423" 
d="M788 1737q-11 4 -14 14t5 23l78 139q15 19 39 1l350 -239q7 -4 9.5 -12.5t-2.5 -17.5l-59 -95q-11 -18 -35 -9zM1270 30q5 -30 -20 -30h-164q-22 0 -27 28l-33 170h-721l-126 -177q-13 -21 -33 -21h-200q-15 0 -19.5 10t5.5 23l944 1303q14 18 32 18h92q23 0 26 -25z
M436 378h557l-117 615z" />
    <glyph glyph-name="Aacute" unicode="&#xc1;" horiz-adv-x="1423" 
d="M1317 1774q8 -13 5.5 -23t-13.5 -14l-372 -196q-23 -10 -34 9l-60 95q-5 9 -2.5 17.5t9.5 12.5l351 239q10 7 21 7.5t17 -8.5zM1026 1329l244 -1299q5 -30 -20 -30h-164q-22 0 -27 28l-33 170h-721l-126 -177q-13 -21 -33 -21h-200q-15 0 -19.5 10t5.5 23l944 1303
q14 18 32 18h92q23 0 26 -25zM436 378h557l-117 615z" />
    <glyph glyph-name="Acircumflex" unicode="&#xc2;" horiz-adv-x="1423" 
d="M1390 1711q16 -14 12 -31l-26 -99q-5 -18 -18 -24t-29 2l-256 168l-351 -168q-18 -8 -29 -2t-6 24l28 104q3 16 26 28l354 193q28 16 47 0zM1026 1329l244 -1299q5 -30 -20 -30h-164q-22 0 -27 28l-33 170h-721l-126 -177q-13 -21 -33 -21h-200q-15 0 -19.5 10t5.5 23
l944 1303q14 18 32 18h92q23 0 26 -25zM436 378h557l-117 615z" />
    <glyph glyph-name="Atilde" unicode="&#xc3;" horiz-adv-x="1423" 
d="M1444 1748q15 -16 -2 -35q-2 -2 -12 -16t-18.5 -23t-23.5 -24.5t-31 -26t-36.5 -21t-45.5 -16t-53 -5.5q-46 0 -88 17.5t-69 39t-66.5 39t-82.5 17.5q-16 0 -30 -2t-27.5 -8t-22 -10t-21 -14t-16.5 -13t-16 -15l-12 -11q-17 -14 -32 2l-62 71q-15 16 2 35q1 1 12 15.5
t19 23.5t23 24.5t31.5 26t37 21t46 16t53.5 5.5q50 0 93.5 -17.5t70 -39t63.5 -39t75 -17.5q17 0 31.5 2.5t28 8t23 10t20.5 13.5t16 13t15.5 14t12.5 12q16 16 32 0zM1026 1329l244 -1299q5 -30 -20 -30h-164q-22 0 -27 28l-33 170h-721l-126 -177q-13 -21 -33 -21h-200
q-15 0 -19.5 10t5.5 23l944 1303q14 18 32 18h92q23 0 26 -25zM436 378h557l-117 615z" />
    <glyph glyph-name="Adieresis" unicode="&#xc4;" horiz-adv-x="1423" 
d="M847 1664q-43 0 -73.5 31.5t-30.5 74.5t30.5 73t73.5 30t73.5 -30t30.5 -73t-30.5 -74.5t-73.5 -31.5zM1283 1873q42 0 73 -30.5t31 -72.5q0 -43 -31 -74.5t-73 -31.5q-43 0 -74 31.5t-31 74.5t31 73t74 30zM1026 1329l244 -1299q5 -30 -20 -30h-164q-22 0 -27 28
l-33 170h-721l-126 -177q-13 -21 -33 -21h-200q-15 0 -19.5 10t5.5 23l944 1303q14 18 32 18h92q23 0 26 -25zM436 378h557l-117 615z" />
    <glyph glyph-name="Aring" unicode="&#xc5;" horiz-adv-x="1423" 
d="M993 1498q-68 0 -110.5 41.5t-42.5 105.5q0 95 77.5 168.5t174.5 73.5q67 0 109 -41.5t42 -106.5q0 -96 -77.5 -168.5t-172.5 -72.5zM1066 1784q-44 0 -81 -34.5t-37 -79.5q0 -30 20 -49t51 -19q46 0 82 35t36 80q0 31 -19.5 49t-51.5 18zM1270 30q5 -30 -20 -30h-164
q-22 0 -27 28l-33 170h-721l-126 -177q-13 -21 -33 -21h-200q-15 0 -19.5 10t5.5 23l944 1303q14 18 32 18h92q23 0 26 -25zM436 378h557l-117 615z" />
    <glyph glyph-name="AE" unicode="&#xc6;" horiz-adv-x="1848" 
d="M1994 1354q13 0 19 -8.5t4 -21.5l-42 -149q-4 -23 -29 -23h-629l-99 -366h466q13 0 19.5 -8t2.5 -21l-40 -150q-4 -22 -29 -22h-472l-103 -384h644q13 0 20 -8t3 -21l-44 -149q-4 -23 -29 -23h-840q-13 0 -19 8.5t-4 21.5l44 159h-478l-152 -175q-13 -14 -32 -14h-229
q-16 0 -20 9t6 21l1170 1308q13 16 30 16h862zM521 375h364l163 606z" />
    <glyph glyph-name="Ccedilla" unicode="&#xc7;" horiz-adv-x="1374" 
d="M1458 1145q10 -18 10.5 -26t-12.5 -19l-135 -86q-22 -14 -51 12q-109 123 -286 123q-96 0 -191 -31.5t-175 -88.5t-142 -130.5t-97 -163.5t-35 -181q0 -153 95.5 -251t272.5 -98q112 0 210.5 39.5t162.5 93.5q30 29 54 2l95 -123q18 -21 -14 -45q-226 -170 -501 -184
l-84 -99q76 -4 121.5 -52t45.5 -122q0 -111 -93.5 -195t-208.5 -84q-56 0 -96.5 23.5t-59.5 59.5q-8 14 7 28l64 49q17 10 26 -2q34 -42 88 -42q61 0 106 43t45 96q0 36 -22.5 59.5t-65.5 23.5q-49 0 -108 -46q-15 -11 -24 0l-43 45q-8 10 1 22l165 200
q-216 27 -340.5 166.5t-124.5 355.5q0 163 74 319.5t195 272t285 186.5t335 71q153 0 272 -60.5t179 -160.5z" />
    <glyph glyph-name="Egrave" unicode="&#xc8;" horiz-adv-x="1069" 
d="M684 1703q-27 10 -9 36l78 139q7 9 18 9t20 -7l351 -240q18 -10 7 -29l-59 -96q-11 -18 -35 -9zM1215 1354q12 0 18 -8.5t4 -21.5l-41 -149q-4 -23 -30 -23h-628l-99 -366h465q13 0 20 -8t3 -21l-40 -150q-4 -22 -30 -22h-472l-102 -384h644q13 0 19.5 -8t2.5 -21
l-43 -149q-4 -23 -30 -23h-840q-12 0 -18 8.5t-4 21.5l349 1301q5 23 31 23h821z" />
    <glyph glyph-name="Eacute" unicode="&#xc9;" horiz-adv-x="1069" 
d="M797 1515l-59 96q-11 19 7 29l350 240q9 7 21 7t17 -9l78 -139q8 -13 5.5 -22.5t-13.5 -13.5l-372 -197q-23 -10 -34 9zM1215 1354q12 0 18 -8.5t4 -21.5l-41 -149q-4 -23 -30 -23h-628l-99 -366h465q13 0 20 -8t3 -21l-40 -150q-4 -22 -30 -22h-472l-102 -384h644
q13 0 19.5 -8t2.5 -21l-43 -149q-4 -23 -30 -23h-840q-12 0 -18 8.5t-4 21.5l349 1301q5 23 31 23h821z" />
    <glyph glyph-name="Ecircumflex" unicode="&#xca;" horiz-adv-x="1069" 
d="M1284 1677q16 -14 12 -32l-26 -99q-5 -18 -17.5 -24t-28.5 2l-257 168l-351 -168q-18 -8 -29 -2t-6 24l28 105q3 15 26 27l354 193q28 16 47 0zM1215 1354q12 0 18 -8.5t4 -21.5l-41 -149q-4 -23 -30 -23h-628l-99 -366h465q13 0 20 -8t3 -21l-40 -150q-4 -22 -30 -22
h-472l-102 -384h644q13 0 19.5 -8t2.5 -21l-43 -149q-4 -23 -30 -23h-840q-12 0 -18 8.5t-4 21.5l349 1301q5 23 31 23h821z" />
    <glyph glyph-name="Edieresis" unicode="&#xcb;" horiz-adv-x="1069" 
d="M741 1630q-43 0 -73.5 31.5t-30.5 74.5t30.5 72.5t73.5 29.5t73.5 -29.5t30.5 -72.5t-30.5 -74.5t-73.5 -31.5zM1177 1838q42 0 73 -30t31 -72q0 -43 -31 -74.5t-73 -31.5q-43 0 -73.5 31.5t-30.5 74.5t30.5 72.5t73.5 29.5zM1215 1354q12 0 18 -8.5t4 -21.5l-41 -149
q-4 -23 -30 -23h-628l-99 -366h465q13 0 20 -8t3 -21l-40 -150q-4 -22 -30 -22h-472l-102 -384h644q13 0 19.5 -8t2.5 -21l-43 -149q-4 -23 -30 -23h-840q-12 0 -18 8.5t-4 21.5l349 1301q5 23 31 23h821z" />
    <glyph glyph-name="Igrave" unicode="&#xcc;" horiz-adv-x="473" 
d="M309 1703l371 -197q24 -9 35 9l59 96q11 19 -7 29l-350 240q-9 7 -20.5 7t-18.5 -9l-78 -139q-18 -26 9 -36zM36 0q-12 0 -18 8.5t-4 21.5l349 1301q5 23 31 23h168q13 0 20 -8.5t3 -21.5l-349 -1301q-5 -23 -29 -23h-171z" />
    <glyph glyph-name="Iacute" unicode="&#xcd;" horiz-adv-x="473" 
d="M738 1723q9 4 12 15t-4 24l-80 137q-10 20 -36 1l-352 -239q-7 -4 -9.5 -12.5t3.5 -17.5l58 -95q11 -19 34 -9zM36 0q-12 0 -18 8.5t-4 21.5l349 1301q5 23 31 23h168q13 0 20 -8.5t3 -21.5l-349 -1301q-5 -23 -29 -23h-171z" />
    <glyph glyph-name="Icircumflex" unicode="&#xce;" horiz-adv-x="473" 
d="M535 1894l-354 -195q-23 -14 -27 -28l-26 -102q-5 -19 5.5 -25.5t27.5 1.5l353 168l255 -167q36 -17 47 21l27 101q4 18 -12 29l-250 197q-16 14 -46 0zM36 0q-12 0 -18 8.5t-4 21.5l349 1301q5 23 31 23h168q13 0 20 -8.5t3 -21.5l-349 -1301q-5 -23 -29 -23h-171z" />
    <glyph glyph-name="Idieresis" unicode="&#xcf;" horiz-adv-x="473" 
d="M293 1652q-42 0 -72 31t-30 73q0 43 29.5 73t72.5 30q44 0 75 -30t31 -73q0 -42 -31 -73t-75 -31zM729 1652q-43 0 -73.5 31t-30.5 73q0 43 30.5 73t73.5 30t73.5 -30t30.5 -73q0 -42 -30.5 -73t-73.5 -31zM36 0q-12 0 -18 8.5t-4 21.5l349 1301q5 23 31 23h168
q13 0 20 -8.5t3 -21.5l-349 -1301q-5 -23 -29 -23h-171z" />
    <glyph glyph-name="Eth" unicode="&#xd0;" horiz-adv-x="1391" 
d="M824 1354q277 0 420 -141t143 -382q0 -169 -67.5 -322.5t-183.5 -265t-279 -177.5t-345 -66h-512q-14 0 -21 8.5t-3 22.5l144 542h-125q-13 0 -19 7t-2 19l40 154q5 19 28 19h132l149 557q8 25 33 25h468zM554 201q170 0 311 85t219.5 224.5t78.5 300.5q0 164 -91 252.5
t-277 88.5h-297l-102 -380h180q26 0 21 -26l-42 -152q-5 -21 -26 -21h-187l-99 -372h311z" />
    <glyph glyph-name="Ntilde" unicode="&#xd1;" horiz-adv-x="1431" 
d="M1222 1546q-46 0 -88 17.5t-69 39t-66.5 39t-82.5 17.5q-16 0 -30 -2t-27.5 -8t-22 -10t-21 -14t-16.5 -13t-16 -14l-12 -12q-17 -14 -32 2l-62 71q-15 16 2 35q1 1 12 15.5t19 23.5t23 24.5t31.5 26t37 21t46 16t53.5 5.5q50 0 93.5 -17.5t70 -39t63.5 -39t75 -17.5
q17 0 31.5 2.5t28 8t23 10t20.5 13.5t16 13t15.5 14t12.5 12q16 16 32 0l62 -73q15 -16 -2 -35q-2 -2 -12 -16t-18.5 -23t-23.5 -24.5t-31 -26t-36.5 -21t-45.5 -16t-53 -5.5zM36 0q-12 0 -18 8.5t-4 21.5l349 1301q5 23 31 23h167q23 0 31 -19l462 -984l265 980q7 23 31 23
h169q14 0 20 -8.5t2 -21.5l-349 -1301q-5 -23 -29 -23h-167q-22 0 -29 21l-465 982l-266 -980q-4 -23 -29 -23h-171z" />
    <glyph glyph-name="Ograve" unicode="&#xd2;" horiz-adv-x="1542" 
d="M843 1703l374 -197q23 -10 34 9l59 96q11 19 -7 29l-350 240q-27 17 -38 -2l-80 -139q-15 -26 8 -36zM666 -12q-251 0 -399.5 146.5t-148.5 380.5q0 130 47 257.5t131 233t193.5 187.5t242.5 127.5t269 45.5q252 0 400.5 -147t148.5 -382q0 -162 -74 -318t-194.5 -272.5
t-283.5 -187.5t-332 -71zM706 205q119 0 233.5 50.5t198 132.5t134.5 190.5t51 219.5q0 159 -96 255t-265 96q-159 0 -302.5 -85t-229 -222.5t-85.5 -287.5q0 -158 96.5 -253.5t264.5 -95.5z" />
    <glyph glyph-name="Oacute" unicode="&#xd3;" horiz-adv-x="1542" 
d="M1366 1703q27 10 9 36l-79 139q-5 9 -17 9t-21 -7l-350 -240q-18 -10 -7 -29l59 -96q11 -19 34 -9zM666 -12q-251 0 -399.5 146.5t-148.5 380.5q0 130 47 257.5t131 233t193.5 187.5t242.5 127.5t269 45.5q252 0 400.5 -147t148.5 -382q0 -162 -74 -318t-194.5 -272.5
t-283.5 -187.5t-332 -71zM706 205q119 0 233.5 50.5t198 132.5t134.5 190.5t51 219.5q0 159 -96 255t-265 96q-159 0 -302.5 -85t-229 -222.5t-85.5 -287.5q0 -158 96.5 -253.5t264.5 -95.5z" />
    <glyph glyph-name="Ocircumflex" unicode="&#xd4;" horiz-adv-x="1542" 
d="M1151 1871l-354 -193q-23 -12 -26 -27l-28 -105q-5 -18 6 -24t29 2l350 168l257 -168q16 -8 29 -2t18 24l26 99q4 18 -12 32l-248 194q-19 16 -47 0zM666 -12q-251 0 -399.5 146.5t-148.5 380.5q0 130 47 257.5t131 233t193.5 187.5t242.5 127.5t269 45.5
q252 0 400.5 -147t148.5 -382q0 -162 -74 -318t-194.5 -272.5t-283.5 -187.5t-332 -71zM706 205q119 0 233.5 50.5t198 132.5t134.5 190.5t51 219.5q0 159 -96 255t-265 96q-159 0 -302.5 -85t-229 -222.5t-85.5 -287.5q0 -158 96.5 -253.5t264.5 -95.5z" />
    <glyph glyph-name="Otilde" unicode="&#xd5;" horiz-adv-x="1542" 
d="M1277 1546q-38 0 -71 11.5t-58.5 28t-50.5 33.5t-56.5 28.5t-66.5 11.5q-36 0 -68.5 -15t-44 -25.5t-33.5 -32.5q-19 -16 -31 2l-65 71q-13 14 2 35q1 1 12 15.5t19 23t23.5 24.5t31.5 26t37 21t46 16.5t53 5.5q51 0 95 -17.5t70.5 -39t63.5 -39t75 -17.5q19 0 36.5 4
t29.5 8.5t26.5 14.5t21 15t19 17t15.5 14q16 16 31 0l62 -73q15 -17 -1 -35q-1 -1 -12 -15.5t-19 -23t-23.5 -24.5t-31.5 -26t-37 -21t-46.5 -16.5t-53.5 -5.5zM666 -12q-251 0 -399.5 146.5t-148.5 380.5q0 130 47 257.5t131 233t193.5 187.5t242.5 127.5t269 45.5
q252 0 400.5 -147t148.5 -382q0 -162 -74 -318t-194.5 -272.5t-283.5 -187.5t-332 -71zM706 205q119 0 233.5 50.5t198 132.5t134.5 190.5t51 219.5q0 159 -96 255t-265 96q-159 0 -302.5 -85t-229 -222.5t-85.5 -287.5q0 -158 96.5 -253.5t264.5 -95.5z" />
    <glyph glyph-name="Odieresis" unicode="&#xd6;" horiz-adv-x="1542" 
d="M903 1630q-43 0 -74 31.5t-31 74.5q0 42 31 72t74 30t73.5 -29.5t30.5 -72.5t-30.5 -74.5t-73.5 -31.5zM1338 1630q-43 0 -73.5 31.5t-30.5 74.5t30.5 72.5t73.5 29.5t73.5 -29.5t30.5 -72.5t-30.5 -74.5t-73.5 -31.5zM666 -12q-251 0 -399.5 146.5t-148.5 380.5
q0 130 47 257.5t131 233t193.5 187.5t242.5 127.5t269 45.5q252 0 400.5 -147t148.5 -382q0 -162 -74 -318t-194.5 -272.5t-283.5 -187.5t-332 -71zM706 205q119 0 233.5 50.5t198 132.5t134.5 190.5t51 219.5q0 159 -96 255t-265 96q-159 0 -302.5 -85t-229 -222.5
t-85.5 -287.5q0 -158 96.5 -253.5t264.5 -95.5z" />
    <glyph glyph-name="multiply" unicode="&#xd7;" horiz-adv-x="935" 
d="M974 948q16 -16 -6 -33l-312 -250l174 -231q13 -18 -4 -35l-118 -99q-18 -15 -33 4l-175 236l-302 -241q-20 -15 -35 5l-74 97q-14 17 3 33l305 243l-173 232q-14 19 2 35l119 99q18 15 33 -5l176 -236l309 246q19 15 34 -3z" />
    <glyph glyph-name="Oslash" unicode="&#xd8;" horiz-adv-x="1542" 
d="M1428 1189q122 -141 122 -352q0 -162 -74 -318t-194.5 -272.5t-283.5 -187.5t-332 -71q-162 0 -284 64l-87 -95q-18 -21 -36 0l-111 105q-18 18 0 37l76 83q-106 137 -106 333q0 130 47 257.5t131 233t193.5 187.5t242.5 127.5t269 45.5q147 0 263 -54l111 122
q20 16 38 1l111 -107q18 -18 -2 -37zM345 554q0 -108 47 -190l703 766q-63 19 -133 19q-159 0 -302.5 -85t-229 -222.5t-85.5 -287.5zM706 205q119 0 233.5 50.5t198 132.5t134.5 190.5t51 219.5q0 123 -59 212l-716 -777q74 -28 158 -28z" />
    <glyph glyph-name="Ugrave" unicode="&#xd9;" horiz-adv-x="1325" 
d="M736 1703l371 -197q24 -9 37 9l57 96q11 19 -7 29l-351 240q-9 7 -20 7t-18 -9l-78 -139q-15 -26 9 -36zM1423 1354q14 0 20.5 -8.5t2.5 -21.5l-224 -829q-28 -105 -85.5 -196t-140.5 -161t-196 -110t-241 -40q-108 0 -193 28.5t-137 77.5t-82.5 116t-30 144t20.5 161
l217 816q5 23 31 23h169q13 0 19.5 -8.5t2.5 -21.5l-212 -786q-44 -165 19.5 -251.5t204.5 -86.5q151 0 268 96t163 265l206 770q5 23 30 23h168z" />
    <glyph glyph-name="Uacute" unicode="&#xda;" horiz-adv-x="1325" 
d="M1257 1703q23 10 8 36l-78 139q-7 9 -18 9t-20 -7l-351 -240q-18 -10 -7 -29l58 -96q13 -18 34 -9zM1423 1354q14 0 20.5 -8.5t2.5 -21.5l-224 -829q-28 -105 -85.5 -196t-140.5 -161t-196 -110t-241 -40q-108 0 -193 28.5t-137 77.5t-82.5 116t-30 144t20.5 161l217 816
q5 23 31 23h169q13 0 19.5 -8.5t2.5 -21.5l-212 -786q-44 -165 19.5 -251.5t204.5 -86.5q151 0 268 96t163 265l206 770q5 23 30 23h168z" />
    <glyph glyph-name="Ucircumflex" unicode="&#xdb;" horiz-adv-x="1325" 
d="M1041 1871l-354 -193q-23 -13 -26 -27l-28 -105q-5 -18 6 -24t29 2l351 168l257 -168q16 -8 29 -2t18 24l26 99q6 17 -11 32l-250 194q-19 16 -47 0zM1423 1354q14 0 20.5 -8.5t2.5 -21.5l-224 -829q-28 -105 -85.5 -196t-140.5 -161t-196 -110t-241 -40
q-108 0 -193 28.5t-137 77.5t-82.5 116t-30 144t20.5 161l217 816q5 23 31 23h169q13 0 19.5 -8.5t2.5 -21.5l-212 -786q-44 -165 19.5 -251.5t204.5 -86.5q151 0 268 96t163 265l206 770q5 23 30 23h168z" />
    <glyph glyph-name="Udieresis" unicode="&#xdc;" horiz-adv-x="1325" 
d="M793 1630q-42 0 -72 31.5t-30 74.5t29.5 72.5t72.5 29.5q44 0 75 -29.5t31 -72.5t-31 -74.5t-75 -31.5zM1229 1630q-43 0 -73.5 31.5t-30.5 74.5t30.5 72.5t73.5 29.5t73.5 -29.5t30.5 -72.5t-30.5 -74.5t-73.5 -31.5zM1423 1354q14 0 20.5 -8.5t2.5 -21.5l-224 -829
q-28 -105 -85.5 -196t-140.5 -161t-196 -110t-241 -40q-108 0 -193 28.5t-137 77.5t-82.5 116t-30 144t20.5 161l217 816q5 23 31 23h169q13 0 19.5 -8.5t2.5 -21.5l-212 -786q-44 -165 19.5 -251.5t204.5 -86.5q151 0 268 96t163 265l206 770q5 23 30 23h168z" />
    <glyph glyph-name="Yacute" unicode="&#xdd;" horiz-adv-x="1282" 
d="M824 1515l-57 96q-14 19 5 29l353 240q9 7 20 7t16 -9l80 -139q15 -26 -9 -36l-373 -197q-24 -10 -35 9zM1461 1354q17 0 21 -10t-7 -23l-699 -785l-137 -513q-8 -23 -32 -23h-168q-13 0 -19.5 8.5t-2.5 21.5l135 510l-273 784q-4 13 2 21.5t19 8.5h182q26 0 30 -23
l203 -578l521 587q13 14 33 14h192z" />
    <glyph glyph-name="Thorn" unicode="&#xde;" horiz-adv-x="1155" 
d="M802 1151q181 0 276 -99t95 -264q0 -154 -80 -288t-219.5 -214.5t-304.5 -80.5h-284l-49 -182q-5 -23 -29 -23h-171q-12 0 -18 8.5t-4 21.5l349 1301q5 23 31 23h168q13 0 20 -8.5t3 -21.5l-47 -173h264zM601 420q148 0 253.5 96.5t105.5 235.5q0 183 -200 183h-279
l-139 -515h259z" />
    <glyph glyph-name="germandbls" unicode="&#xdf;" horiz-adv-x="1143" 
d="M889 703q161 -54 161 -247q0 -126 -65.5 -230.5t-180.5 -165t-254 -60.5h-87q-16 0 -23.5 9.5t-3.5 23.5l33 123q4 15 9 20.5t17 5.5h33q137 0 229 77.5t92 195.5q0 158 -184 158h-47q-27 0 -19 26l33 125q4 20 22 20h35q110 0 189.5 72.5t79.5 169.5q0 72 -51.5 109
t-148.5 37q-128 0 -211.5 -68.5t-116.5 -190.5l-241 -890q-4 -23 -33 -23h-161q-12 0 -17.5 8.5t-1.5 21.5l244 902q59 218 204 326t359 108q179 0 278.5 -73t99.5 -215q0 -118 -70.5 -216.5t-198.5 -148.5z" />
    <glyph glyph-name="agrave" unicode="&#xe0;" horiz-adv-x="1079" 
d="M486 1234q-24 10 -9 36l80 139q5 9 16.5 9t20.5 -7l352 -239q17 -9 5 -30l-57 -95q-13 -18 -35 -9zM1078 885q13 0 19 -7t2 -19l-223 -838q-8 -21 -27 -21h-167q-13 0 -19 7t-2 19l28 106q-146 -146 -328 -146q-144 0 -231 91.5t-87 245.5q0 107 42.5 211.5t113 184.5
t168.5 129t202 49q101 0 172.5 -45.5t105.5 -126.5l36 139q5 21 28 21h167zM441 170q91 0 170.5 52t124.5 132.5t45 166.5q0 88 -52 140t-141 52q-138 0 -240 -109t-102 -243q0 -88 51 -139.5t144 -51.5z" />
    <glyph glyph-name="aacute" unicode="&#xe1;" horiz-adv-x="1079" 
d="M601 1047l-59 95q-12 20 6 30l351 239q27 17 38 -2l80 -139q15 -26 -9 -36l-373 -196q-23 -10 -34 9zM1078 885q13 0 19 -7t2 -19l-223 -838q-8 -21 -27 -21h-167q-13 0 -19 7t-2 19l28 106q-146 -146 -328 -146q-144 0 -231 91.5t-87 245.5q0 107 42.5 211.5t113 184.5
t168.5 129t202 49q101 0 172.5 -45.5t105.5 -126.5l36 139q5 21 28 21h167zM441 170q91 0 170.5 52t124.5 132.5t45 166.5q0 88 -52 140t-141 52q-138 0 -240 -109t-102 -243q0 -88 51 -139.5t144 -51.5z" />
    <glyph glyph-name="acircumflex" unicode="&#xe2;" horiz-adv-x="1079" 
d="M1088 1208q16 -14 12 -31l-27 -99q-5 -18 -18 -24.5t-29 1.5l-255 169l-353 -169q-17 -8 -27.5 -1.5t-5.5 24.5l26 104q4 15 26 28l354 192q31 16 47 0zM1078 885q13 0 19 -7t2 -19l-223 -838q-8 -21 -27 -21h-167q-13 0 -19 7t-2 19l28 106q-146 -146 -328 -146
q-144 0 -231 91.5t-87 245.5q0 107 42.5 211.5t113 184.5t168.5 129t202 49q101 0 172.5 -45.5t105.5 -126.5l36 139q5 21 28 21h167zM441 170q91 0 170.5 52t124.5 132.5t45 166.5q0 88 -52 140t-141 52q-138 0 -240 -109t-102 -243q0 -88 51 -139.5t144 -51.5z" />
    <glyph glyph-name="atilde" unicode="&#xe3;" horiz-adv-x="1079" 
d="M1142 1244q14 -16 -2 -34q-2 -2 -12 -16t-18.5 -23t-23.5 -24.5t-31 -26t-36.5 -21t-45.5 -16t-53 -5.5q-46 0 -88 17.5t-69 39t-66.5 39t-82.5 17.5q-16 0 -30 -2t-27.5 -8t-22 -10t-21 -14t-16.5 -13t-16 -14l-12 -12q-16 -16 -32 1l-62 72q-14 16 2 34q1 1 12 15.5
t19 23.5t23 24.5t31.5 26t37 21t46 16t53.5 5.5q51 0 95 -17.5t70.5 -39t63.5 -39t75 -17.5q16 0 30.5 2.5t27.5 8t22.5 10t20.5 13.5t16 13t15.5 14t12.5 12q16 16 32 0zM1078 885q13 0 19 -7t2 -19l-223 -838q-8 -21 -27 -21h-167q-13 0 -19 7t-2 19l28 106
q-146 -146 -328 -146q-144 0 -231 91.5t-87 245.5q0 107 42.5 211.5t113 184.5t168.5 129t202 49q101 0 172.5 -45.5t105.5 -126.5l36 139q5 21 28 21h167zM441 170q91 0 170.5 52t124.5 132.5t45 166.5q0 88 -52 140t-141 52q-138 0 -240 -109t-102 -243q0 -88 51 -139.5
t144 -51.5z" />
    <glyph glyph-name="adieresis" unicode="&#xe4;" horiz-adv-x="1079" 
d="M545 1161q-43 0 -73.5 31.5t-30.5 74.5t30.5 72.5t73.5 29.5t73.5 -29.5t30.5 -72.5t-30.5 -74.5t-73.5 -31.5zM979 1161q-42 0 -72.5 31.5t-30.5 74.5q0 42 30.5 72t72.5 30q43 0 74.5 -30t31.5 -72q0 -43 -31.5 -74.5t-74.5 -31.5zM1078 885q13 0 19 -7t2 -19
l-223 -838q-8 -21 -27 -21h-167q-13 0 -19 7t-2 19l28 106q-146 -146 -328 -146q-144 0 -231 91.5t-87 245.5q0 107 42.5 211.5t113 184.5t168.5 129t202 49q101 0 172.5 -45.5t105.5 -126.5l36 139q5 21 28 21h167zM441 170q91 0 170.5 52t124.5 132.5t45 166.5
q0 88 -52 140t-141 52q-138 0 -240 -109t-102 -243q0 -88 51 -139.5t144 -51.5z" />
    <glyph glyph-name="aring" unicode="&#xe5;" horiz-adv-x="1079" 
d="M691 994q-68 0 -110.5 42t-42.5 106q0 95 77.5 168t174.5 73q67 0 109 -41t42 -106q0 -96 -77.5 -169t-172.5 -73zM764 1281q-44 0 -81 -35t-37 -80q0 -30 19.5 -48.5t51.5 -18.5q46 0 82 34.5t36 79.5q0 31 -19.5 49.5t-51.5 18.5zM1078 885q13 0 19 -7t2 -19l-223 -838
q-8 -21 -27 -21h-167q-13 0 -19 7t-2 19l28 106q-146 -146 -328 -146q-144 0 -231 91.5t-87 245.5q0 107 42.5 211.5t113 184.5t168.5 129t202 49q101 0 172.5 -45.5t105.5 -126.5l36 139q5 21 28 21h167zM441 170q91 0 170.5 52t124.5 132.5t45 166.5q0 88 -52 140t-141 52
q-138 0 -240 -109t-102 -243q0 -88 51 -139.5t144 -51.5z" />
    <glyph glyph-name="ae" unicode="&#xe6;" horiz-adv-x="1562" 
d="M1180 897q119 0 202 -51t117 -136t20 -189q-2 -76 -44.5 -117t-124.5 -41h-531q3 -87 55.5 -145t165.5 -58q132 0 244 83q33 14 49 -14l35 -71q15 -24 -11 -43q-152 -129 -357 -129q-120 0 -209 46t-133 131q-97 -92 -217.5 -134.5t-218.5 -42.5q-224 0 -224 196
q0 96 50.5 166t145 112.5t206 66t256.5 34.5q23 90 -10.5 124.5t-119.5 34.5q-127 0 -262 -71q-32 -15 -35 12l-14 99q-3 27 30 44q186 93 364 93q197 0 233 -118q152 118 338 118zM1154 720q-100 0 -182.5 -58.5t-122.5 -151.5h482q10 89 -34 149.5t-143 60.5zM321 146
q68 0 149.5 37t150.5 102q-3 25 -3 53q0 46 7 82q-71 -4 -124 -10t-110.5 -19t-94 -32.5t-60.5 -52t-24 -75.5q0 -85 109 -85z" />
    <glyph glyph-name="ccedilla" unicode="&#xe7;" horiz-adv-x="918" 
d="M911 748q13 -23 9 -32q-3 -5 -11 -11l-107 -73q-23 -15 -45 3q-61 80 -167 80q-141 0 -245.5 -104.5t-104.5 -233.5q0 -93 58.5 -150t156.5 -57q116 0 218 85q34 19 47 -5l52 -104q14 -22 -10 -40q-136 -102 -281 -116l-84 -101q74 -4 120.5 -52t46.5 -122
q0 -111 -94 -195t-208 -84q-110 0 -158 83q-6 17 9 28l64 49q15 10 24 -2q34 -42 89 -42q61 0 106 43t45 96q0 36 -22 59.5t-65 23.5q-52 0 -108 -46q-17 -9 -24 0l-43 45q-7 9 2 22l164 198q-137 23 -218.5 116t-81.5 235q0 143 81 271.5t213.5 205t276.5 76.5
q103 0 179.5 -41.5t115.5 -107.5z" />
    <glyph glyph-name="egrave" unicode="&#xe8;" horiz-adv-x="987" 
d="M443 1234q-24 10 -9 36l80 139q5 9 16 9t20 -7l353 -239q19 -11 5 -30l-58 -95q-11 -19 -34 -9zM606 897q179 0 269.5 -107.5t70.5 -268.5q-2 -76 -45 -117t-125 -41h-530q3 -87 55 -145t164 -58q135 0 247 83q32 14 48 -14l35 -71q14 -22 -11 -43q-152 -129 -359 -129
q-175 0 -277.5 94t-102.5 258q0 143 74.5 271.5t205 208t281.5 79.5zM581 720q-100 0 -182.5 -58.5t-122.5 -151.5h482q8 89 -35.5 149.5t-141.5 60.5z" />
    <glyph glyph-name="eacute" unicode="&#xe9;" horiz-adv-x="987" 
d="M974 1270q15 -26 -9 -36l-373 -196q-24 -10 -35 9l-57 95q-14 19 5 30l352 239q9 7 20.5 7t16.5 -9zM606 897q179 0 269.5 -107.5t70.5 -268.5q-2 -76 -45 -117t-125 -41h-530q3 -87 55 -145t164 -58q135 0 247 83q32 14 48 -14l35 -71q14 -22 -11 -43
q-152 -129 -359 -129q-175 0 -277.5 94t-102.5 258q0 143 74.5 271.5t205 208t281.5 79.5zM581 720q-100 0 -182.5 -58.5t-122.5 -151.5h482q8 89 -35.5 149.5t-141.5 60.5z" />
    <glyph glyph-name="ecircumflex" unicode="&#xea;" horiz-adv-x="987" 
d="M1045 1208q16 -14 12 -31l-28 -99q-5 -18 -18 -24.5t-29 1.5l-255 169l-350 -169q-18 -8 -29 -1.5t-6 24.5l26 104q4 16 28 28l354 192q28 17 45 0zM606 897q179 0 269.5 -107.5t70.5 -268.5q-2 -76 -45 -117t-125 -41h-530q3 -87 55 -145t164 -58q135 0 247 83
q32 14 48 -14l35 -71q14 -22 -11 -43q-152 -129 -359 -129q-175 0 -277.5 94t-102.5 258q0 143 74.5 271.5t205 208t281.5 79.5zM581 720q-100 0 -182.5 -58.5t-122.5 -151.5h482q8 89 -35.5 149.5t-141.5 60.5z" />
    <glyph glyph-name="edieresis" unicode="&#xeb;" horiz-adv-x="987" 
d="M502 1161q-43 0 -74 31.5t-31 74.5q0 42 31 72t74 30t73.5 -29.5t30.5 -72.5t-30.5 -74.5t-73.5 -31.5zM937 1369q42 0 73 -30t31 -72q0 -43 -31 -74.5t-73 -31.5q-43 0 -73.5 31.5t-30.5 74.5t30.5 72.5t73.5 29.5zM606 897q179 0 269.5 -107.5t70.5 -268.5
q-2 -76 -45 -117t-125 -41h-530q3 -87 55 -145t164 -58q135 0 247 83q32 14 48 -14l35 -71q14 -22 -11 -43q-152 -129 -359 -129q-175 0 -277.5 94t-102.5 258q0 143 74.5 271.5t205 208t281.5 79.5zM581 720q-100 0 -182.5 -58.5t-122.5 -151.5h482q8 89 -35.5 149.5
t-141.5 60.5z" />
    <glyph glyph-name="igrave" unicode="&#xec;" horiz-adv-x="433" 
d="M163 1234l373 -196q22 -9 35 9l57 95q12 21 -5 30l-352 239q-9 7 -20.5 7t-16.5 -9l-80 -139q-15 -26 9 -36zM19 0q-13 0 -19 7t-2 19l222 838q4 21 28 21h167q13 0 19 -7t2 -19l-223 -838q-7 -21 -27 -21h-167z" />
    <glyph glyph-name="iacute" unicode="&#xed;" horiz-adv-x="433" 
d="M686 1234q23 10 8 36l-80 139q-11 19 -38 2l-350 -239q-7 -4 -9.5 -12.5t2.5 -17.5l59 -95q11 -19 34 -9zM19 0q-13 0 -19 7t-2 19l222 838q4 21 28 21h167q13 0 19 -7t2 -19l-223 -838q-7 -21 -27 -21h-167z" />
    <glyph glyph-name="icircumflex" unicode="&#xee;" horiz-adv-x="433" 
d="M469 1402l-354 -192q-22 -13 -26 -28l-27 -104q-5 -18 5.5 -24.5t27.5 1.5l353 169l255 -169q16 -8 29 -1.5t18 24.5l28 99q3 16 -13 31l-250 194q-16 16 -46 0zM19 0q-13 0 -19 7t-2 19l222 838q4 21 28 21h167q13 0 19 -7t2 -19l-223 -838q-7 -21 -27 -21h-167z" />
    <glyph glyph-name="idieresis" unicode="&#xef;" horiz-adv-x="433" 
d="M222 1161q-43 0 -73.5 31.5t-30.5 74.5t30.5 72.5t73.5 29.5t73.5 -29.5t30.5 -72.5t-30.5 -74.5t-73.5 -31.5zM656 1161q-42 0 -72 31.5t-30 74.5t30 72.5t72 29.5q43 0 74.5 -30t31.5 -72q0 -43 -31.5 -74.5t-74.5 -31.5zM19 0q-13 0 -19 7t-2 19l222 838q4 21 28 21
h167q13 0 19 -7t2 -19l-223 -838q-7 -21 -27 -21h-167z" />
    <glyph glyph-name="eth" unicode="&#xf0;" horiz-adv-x="1100" 
d="M1310 1140q8 -26 -19 -31l-133 -33l-282 -1055q-8 -21 -27 -21h-167q-13 0 -19 7t-2 19l28 106q-146 -146 -328 -146q-144 0 -231 91.5t-87 245.5q0 107 42.5 211.5t113 184.5t168.5 129t202 49q103 0 174 -45.5t104 -127.5l80 297l-134 -33q-24 -7 -33 17l-15 52
q-7 26 22 31l189 47l7 24q16 61 23 153q3 42 36 42h108q44 0 65 -30t8 -80l-14 -52l75 19q25 5 31 -17zM444 170q90 0 168.5 51t122.5 130.5t44 165.5q0 90 -52 143t-142 53t-169 -51.5t-123.5 -131.5t-44.5 -166q0 -90 51 -142t145 -52z" />
    <glyph glyph-name="ntilde" unicode="&#xf1;" 
d="M1121 1244q14 -16 -2 -34q-1 -1 -7.5 -10.5t-10.5 -14.5t-13.5 -16t-16.5 -18t-19.5 -17.5t-23.5 -17.5t-26.5 -15t-30.5 -12.5t-33.5 -7.5t-38.5 -3q-46 0 -88 17.5t-68.5 39t-66 39t-81.5 17.5q-14 0 -27.5 -2.5t-24 -5t-22 -8.5t-18.5 -10.5t-17 -12.5t-14 -11.5
t-13 -12t-11 -10.5q-16 -16 -31 1l-63 72q-14 16 2 34q1 1 12 15.5t19 23.5t23 24.5t31.5 26t37 21t46 16t53.5 5.5q51 0 95 -17.5t70.5 -39t63.5 -39t75 -17.5q16 0 30.5 2.5t27.5 8t22.5 10t20.5 13.5t16 13t15.5 14t12.5 12q16 16 32 0zM724 897q144 0 217.5 -91
t32.5 -245l-94 -356q-11 -42 -15.5 -73.5t-5.5 -56.5t-2 -35q-1 -23 -15 -31.5t-42 -8.5h-106q-37 0 -54 28t-7 64l119 439q22 82 -16.5 128.5t-119.5 46.5q-78 0 -147.5 -38t-114.5 -97l-146 -550q-8 -21 -27 -21h-167q-13 0 -19 7t-2 19l222 838q5 21 28 21h167
q28 0 20 -26l-26 -95q154 133 320 133z" />
    <glyph glyph-name="ograve" unicode="&#xf2;" horiz-adv-x="1046" 
d="M463 1208l374 -196q21 -9 34 9l58 95q10 17 -6 29l-352 240q-9 7 -20 7t-18 -9l-78 -139q-15 -26 8 -36zM422 -14q-170 0 -273.5 95.5t-103.5 256.5q0 145 80 274.5t214.5 207t285.5 77.5q171 0 273.5 -95t102.5 -257q0 -147 -79 -276t-213 -206t-287 -77zM448 170
q141 0 246.5 107t105.5 240q0 89 -53 142.5t-146 53.5q-141 0 -247 -106t-106 -239q0 -90 53 -144t147 -54z" />
    <glyph glyph-name="oacute" unicode="&#xf3;" horiz-adv-x="1046" 
d="M984 1208q25 9 9 36l-78 139q-7 9 -18.5 9t-20.5 -7l-350 -240q-18 -10 -7 -29l59 -95q11 -18 35 -9zM422 -14q-170 0 -273.5 95.5t-103.5 256.5q0 145 80 274.5t214.5 207t285.5 77.5q171 0 273.5 -95t102.5 -257q0 -147 -79 -276t-213 -206t-287 -77zM448 170
q141 0 246.5 107t105.5 240q0 89 -53 142.5t-146 53.5q-141 0 -247 -106t-106 -239q0 -90 53 -144t147 -54z" />
    <glyph glyph-name="ocircumflex" unicode="&#xf4;" horiz-adv-x="1046" 
d="M769 1376l-354 -192q-22 -13 -26 -28l-28 -104q-5 -18 6.5 -24.5t28.5 1.5l350 169l257 -169q16 -8 29 -1.5t18 24.5l28 99q4 17 -12 31l-250 194q-17 17 -47 0zM422 -14q-170 0 -273.5 95.5t-103.5 256.5q0 145 80 274.5t214.5 207t285.5 77.5q171 0 273.5 -95
t102.5 -257q0 -147 -79 -276t-213 -206t-287 -77zM448 170q141 0 246.5 107t105.5 240q0 89 -53 142.5t-146 53.5q-141 0 -247 -106t-106 -239q0 -90 53 -144t147 -54z" />
    <glyph glyph-name="otilde" unicode="&#xf5;" horiz-adv-x="1046" 
d="M897 1052q-46 0 -88 17.5t-68.5 39t-66 39t-82.5 17.5q-14 0 -27.5 -2.5t-23.5 -5t-21.5 -9t-18 -10t-17 -12t-14 -11.5t-13.5 -12.5t-11 -10.5q-16 -16 -31 1l-63 72q-14 16 2 34q1 1 12 15.5t19 23.5t23 24.5t31.5 26t37 21t46 16t53.5 5.5q51 0 94.5 -17.5t70 -39
t63.5 -39t76 -17.5q16 0 30.5 2.5t28 8t22.5 9.5t20.5 13.5t16.5 13.5t16 14.5t12 11.5q16 15 31 0l62 -73q15 -16 -1 -34q-1 -2 -12 -16t-19 -23t-23 -24.5t-31.5 -26t-37 -21t-45.5 -16t-53 -5.5zM422 -14q-170 0 -273.5 95.5t-103.5 256.5q0 145 80 274.5t214.5 207
t285.5 77.5q171 0 273.5 -95t102.5 -257q0 -147 -79 -276t-213 -206t-287 -77zM448 170q141 0 246.5 107t105.5 240q0 89 -53 142.5t-146 53.5q-141 0 -247 -106t-106 -239q0 -90 53 -144t147 -54z" />
    <glyph glyph-name="odieresis" unicode="&#xf6;" horiz-adv-x="1046" 
d="M521 1135q-42 0 -72.5 31.5t-30.5 74.5q0 42 30.5 72t72.5 30q44 0 75 -29.5t31 -72.5t-31 -74.5t-75 -31.5zM956 1135q-42 0 -72 31.5t-30 74.5t29.5 72.5t72.5 29.5t74.5 -30t31.5 -72q0 -43 -31.5 -74.5t-74.5 -31.5zM422 -14q-170 0 -273.5 95.5t-103.5 256.5
q0 145 80 274.5t214.5 207t285.5 77.5q171 0 273.5 -95t102.5 -257q0 -147 -79 -276t-213 -206t-287 -77zM448 170q141 0 246.5 107t105.5 240q0 89 -53 142.5t-146 53.5q-141 0 -247 -106t-106 -239q0 -90 53 -144t147 -54z" />
    <glyph glyph-name="divide" unicode="&#xf7;" horiz-adv-x="1029" 
d="M675 935q-47 0 -82.5 35.5t-35.5 81.5q0 48 35.5 83t82.5 35t81 -35t34 -83q0 -47 -34.5 -82t-80.5 -35zM146 557q-26 0 -21 28l40 147q5 21 26 21h807q12 0 17.5 -7.5t1.5 -20.5l-38 -147q-5 -21 -26 -21h-807zM474 141q-47 0 -82.5 35t-35.5 81q0 48 35.5 83t82.5 35
q46 0 80 -35t34 -83q0 -47 -34 -81.5t-80 -34.5z" />
    <glyph glyph-name="oslash" unicode="&#xf8;" horiz-adv-x="1046" 
d="M932 765q69 -87 69 -220q0 -147 -79 -276t-213 -206t-287 -77q-108 0 -196 44l-80 -84q-13 -13 -26 0l-59 61q-12 12 0 24l67 71q-83 91 -83 236t80 274.5t214.5 207t285.5 77.5q123 0 217 -54l50 54q13 15 26 2l59 -61q13 -12 0 -26zM248 368q0 -62 28 -113l422 439
q-44 19 -97 19q-141 0 -247 -106t-106 -239zM448 170q141 0 246.5 107t105.5 240q0 44 -17 92l-412 -427q31 -12 77 -12z" />
    <glyph glyph-name="ugrave" unicode="&#xf9;" 
d="M429 1234q-24 10 -9 36l80 139q11 19 38 2l351 -239q19 -11 5 -30l-57 -95q-11 -19 -35 -9zM1045 885q26 0 21 -26l-224 -838q-4 -21 -28 -21h-167q-12 0 -18 7t-2 19l26 95q-149 -133 -320 -133q-144 0 -217.5 91.5t-32.5 245.5l94 355q11 42 15.5 73.5t5.5 56.5t2 35
q1 23 15.5 31.5t43.5 8.5h105q36 0 52 -28t7 -64l-118 -439q-22 -82 16.5 -128.5t121.5 -46.5q77 0 146.5 39t115.5 98l145 548q4 21 26 21h169z" />
    <glyph glyph-name="uacute" unicode="&#xfa;" 
d="M543 1047l-57 95q-14 19 5 30l352 239q9 7 20.5 7t16.5 -9l80 -139q15 -26 -9 -36l-373 -196q-24 -10 -35 9zM1045 885q26 0 21 -26l-224 -838q-4 -21 -28 -21h-167q-12 0 -18 7t-2 19l26 95q-149 -133 -320 -133q-144 0 -217.5 91.5t-32.5 245.5l94 355q11 42 15.5 73.5
t5.5 56.5t2 35q1 23 15.5 31.5t43.5 8.5h105q36 0 52 -28t7 -64l-118 -439q-22 -82 16.5 -128.5t121.5 -46.5q77 0 146.5 39t115.5 98l145 548q4 21 26 21h169z" />
    <glyph glyph-name="ucircumflex" unicode="&#xfb;" 
d="M363 1055q-18 -8 -29 -1.5t-6 24.5l28 104q3 16 26 28l354 192q28 16 47 0l248 -194q16 -14 12 -31l-26 -99q-5 -18 -18 -24.5t-29 1.5l-257 169zM1045 885q26 0 21 -26l-224 -838q-4 -21 -28 -21h-167q-12 0 -18 7t-2 19l26 95q-149 -133 -320 -133q-144 0 -217.5 91.5
t-32.5 245.5l94 355q11 42 15.5 73.5t5.5 56.5t2 35q1 23 15.5 31.5t43.5 8.5h105q36 0 52 -28t7 -64l-118 -439q-22 -82 16.5 -128.5t121.5 -46.5q77 0 146.5 39t115.5 98l145 548q4 21 26 21h169z" />
    <glyph glyph-name="udieresis" unicode="&#xfc;" 
d="M488 1161q-43 0 -73.5 31.5t-30.5 74.5t30.5 72.5t73.5 29.5t73.5 -29.5t30.5 -72.5t-30.5 -74.5t-73.5 -31.5zM923 1161q-43 0 -73.5 31.5t-30.5 74.5t30.5 72.5t73.5 29.5t73.5 -29.5t30.5 -72.5t-30.5 -74.5t-73.5 -31.5zM1045 885q26 0 21 -26l-224 -838
q-4 -21 -28 -21h-167q-12 0 -18 7t-2 19l26 95q-149 -133 -320 -133q-144 0 -217.5 91.5t-32.5 245.5l94 355q11 42 15.5 73.5t5.5 56.5t2 35q1 23 15.5 31.5t43.5 8.5h105q36 0 52 -28t7 -64l-118 -439q-22 -82 16.5 -128.5t121.5 -46.5q77 0 146.5 39t115.5 98l145 548
q4 21 26 21h169z" />
    <glyph glyph-name="yacute" unicode="&#xfd;" horiz-adv-x="978" 
d="M958 1234q24 10 9 36l-80 139q-5 9 -16.5 9t-20.5 -7l-352 -239q-19 -11 -5 -30l57 -95q11 -19 35 -9zM73 -347q-14 0 -19 8.5t3 20.5l219 339l-123 840q-3 24 22 24h155q23 0 26 -22l83 -594h7l392 599q7 17 30 17h166q14 0 18.5 -8.5t-2.5 -20.5l-793 -1187
q-11 -16 -30 -16h-154z" />
    <glyph glyph-name="thorn" unicode="&#xfe;" horiz-adv-x="1112" 
d="M748 897q145 0 232 -91.5t87 -248.5q0 -143 -70 -274.5t-192 -214t-260 -82.5q-93 0 -168 39t-118 110l-124 -461q-7 -21 -27 -21h-167q-26 0 -21 26l396 1480q8 33 13 62.5t7 59.5t2 31q0 42 37 42h106q47 0 67 -30.5t7 -79.5l-126 -473q149 126 319 126zM522 170
q92 0 172 51t125 130.5t45 165.5q0 92 -49.5 144t-141.5 52q-139 0 -240.5 -108.5t-101.5 -240.5q0 -91 51 -142.5t140 -51.5z" />
    <glyph glyph-name="ydieresis" unicode="&#xff;" horiz-adv-x="978" 
d="M495 1161q-43 0 -73.5 31.5t-30.5 74.5t30.5 72.5t73.5 29.5t73.5 -29.5t30.5 -72.5t-30.5 -74.5t-73.5 -31.5zM930 1161q-43 0 -73.5 31.5t-30.5 74.5t30.5 72.5t73.5 29.5t73.5 -29.5t30.5 -72.5t-30.5 -74.5t-73.5 -31.5zM73 -347q-14 0 -19 8.5t3 20.5l219 339
l-123 840q-3 24 22 24h155q23 0 26 -22l83 -594h7l392 599q7 17 30 17h166q14 0 18.5 -8.5t-2.5 -20.5l-793 -1187q-11 -16 -30 -16h-154z" />
    <glyph glyph-name="Amacron" unicode="&#x100;" horiz-adv-x="1423" 
d="M1362 1843q28 0 20 -26l-33 -127q-8 -27 -33 -27h-563q-27 0 -19 26l35 128q5 26 33 26h560zM1026 1329l244 -1299q5 -30 -20 -30h-164q-22 0 -27 28l-33 170h-721l-126 -177q-13 -21 -33 -21h-200q-15 0 -19.5 10t5.5 23l944 1303q14 18 32 18h92q23 0 26 -25zM436 378
h557l-117 615z" />
    <glyph glyph-name="amacron" unicode="&#x101;" horiz-adv-x="1079" 
d="M451 1159q-27 0 -19 26l35 129q5 26 33 26h560q28 0 20 -26l-35 -127q-5 -28 -31 -28h-563zM1078 885q13 0 19 -7t2 -19l-223 -838q-8 -21 -27 -21h-167q-13 0 -19 7t-2 19l28 106q-146 -146 -328 -146q-144 0 -231 91.5t-87 245.5q0 107 42.5 211.5t113 184.5t168.5 129
t202 49q101 0 172.5 -45.5t105.5 -126.5l36 139q5 21 28 21h167zM441 170q91 0 170.5 52t124.5 132.5t45 166.5q0 88 -52 140t-141 52q-138 0 -240 -109t-102 -243q0 -88 51 -139.5t144 -51.5z" />
    <glyph glyph-name="Abreve" unicode="&#x102;" horiz-adv-x="1423" 
d="M1387 1857q26 0 15 -36q-44 -135 -147.5 -211.5t-237.5 -76.5q-142 0 -219 82t-46 206q8 36 32 36h94q18 0 18 -31q-14 -69 25.5 -109t112.5 -40t133 40t86 109q15 31 35 31h99zM1026 1329l244 -1299q5 -30 -20 -30h-164q-22 0 -27 28l-33 170h-721l-126 -177
q-13 -21 -33 -21h-200q-15 0 -19.5 10t5.5 23l944 1303q14 18 32 18h92q23 0 26 -25zM436 378h557l-117 615z" />
    <glyph glyph-name="abreve" unicode="&#x103;" horiz-adv-x="1079" 
d="M713 1029q-142 0 -218 82t-45 206q8 37 32 37h92q20 0 20 -31q-14 -69 25.5 -109.5t111.5 -40.5t132 40.5t86 109.5q16 31 37 31h99q28 0 14 -37q-44 -135 -148 -211.5t-238 -76.5zM1078 885q13 0 19 -7t2 -19l-223 -838q-8 -21 -27 -21h-167q-13 0 -19 7t-2 19l28 106
q-146 -146 -328 -146q-144 0 -231 91.5t-87 245.5q0 107 42.5 211.5t113 184.5t168.5 129t202 49q101 0 172.5 -45.5t105.5 -126.5l36 139q5 21 28 21h167zM441 170q91 0 170.5 52t124.5 132.5t45 166.5q0 88 -52 140t-141 52q-138 0 -240 -109t-102 -243q0 -88 51 -139.5
t144 -51.5z" />
    <glyph glyph-name="Aogonek" unicode="&#x104;" horiz-adv-x="1423" 
d="M1270 30q5 -30 -20 -30h-70q-127 -11 -220.5 -74t-93.5 -150q0 -78 96 -78q52 0 123 33q16 5 24.5 -0.5t4.5 -18.5l-21 -82q-4 -17 -27 -29q-95 -56 -193 -56q-83 0 -131.5 39t-48.5 109q0 107 110.5 199.5t256.5 130.5q-1 1 -1 5l-33 170h-721l-126 -177
q-13 -21 -33 -21h-200q-15 0 -19.5 10t5.5 23l944 1303q14 18 32 18h92q23 0 26 -25zM436 378h557l-117 615z" />
    <glyph glyph-name="aogonek" unicode="&#x105;" horiz-adv-x="1079" 
d="M1078 885q13 0 19 -7t2 -19l-223 -838q-8 -21 -27 -21h-73q-128 -11 -221 -74t-93 -150q0 -78 93 -78q53 0 125 33q14 5 24 -0.5t6 -18.5l-23 -82q-4 -16 -26 -29q-95 -56 -194 -56q-82 0 -130.5 39t-48.5 109q0 73 55.5 142.5t139 117t178.5 70.5v3l28 106
q-146 -146 -328 -146q-144 0 -231 91.5t-87 245.5q0 107 42.5 211.5t113 184.5t168.5 129t202 49q101 0 172.5 -45.5t105.5 -126.5l36 139q5 21 28 21h167zM441 170q91 0 170.5 52t124.5 132.5t45 166.5q0 88 -52 140t-141 52q-138 0 -240 -109t-102 -243q0 -88 51 -139.5
t144 -51.5z" />
    <glyph glyph-name="Cacute" unicode="&#x106;" horiz-adv-x="1374" 
d="M1350 1703q27 10 9 36l-78 139q-5 9 -17 9t-21 -7l-351 -240q-18 -10 -7 -29l59 -96q11 -19 35 -9zM684 -12q-259 0 -412.5 144.5t-153.5 384.5q0 163 74 319.5t195 272t285 186.5t335 71q153 0 272 -60.5t179 -160.5q10 -18 10.5 -26t-12.5 -19l-135 -86q-22 -14 -51 12
q-109 123 -286 123q-96 0 -191 -31.5t-175 -88.5t-142 -130.5t-97 -163.5t-35 -181q0 -153 95.5 -251t272.5 -98q112 0 210.5 39.5t162.5 93.5q30 29 54 2l95 -123q18 -21 -14 -45q-248 -184 -536 -184z" />
    <glyph glyph-name="cacute" unicode="&#x107;" horiz-adv-x="918" 
d="M968 1234q24 10 9 36l-78 139q-7 9 -18 9t-20 -7l-351 -239q-7 -4 -9.5 -12.5t2.5 -17.5l58 -95q13 -18 34 -9zM427 -14q-170 0 -276 97.5t-106 260.5q0 143 81 271.5t213.5 205t276.5 76.5q103 0 179.5 -41.5t115.5 -107.5q13 -23 9 -32q-3 -5 -11 -11l-107 -73
q-23 -15 -45 3q-61 80 -167 80q-141 0 -245.5 -104.5t-104.5 -233.5q0 -93 58.5 -150t156.5 -57q116 0 218 85q34 19 47 -5l52 -104q14 -22 -10 -40q-155 -120 -335 -120z" />
    <glyph glyph-name="Cdotaccent" unicode="&#x10a;" horiz-adv-x="1374" 
d="M1102 1609q-46 0 -80 33.5t-34 80.5t34 81t80 34t80.5 -34t34.5 -81q0 -46 -34 -80t-81 -34zM684 -12q-259 0 -412.5 144.5t-153.5 384.5q0 163 74 319.5t195 272t285 186.5t335 71q153 0 272 -60.5t179 -160.5q10 -18 10.5 -26t-12.5 -19l-135 -86q-22 -14 -51 12
q-109 123 -286 123q-96 0 -191 -31.5t-175 -88.5t-142 -130.5t-97 -163.5t-35 -181q0 -153 95.5 -251t272.5 -98q112 0 210.5 39.5t162.5 93.5q30 29 54 2l95 -123q18 -21 -14 -45q-248 -184 -536 -184z" />
    <glyph glyph-name="cdotaccent" unicode="&#x10b;" horiz-adv-x="918" 
d="M720 1140q-48 0 -81 34t-33 81t33 80.5t81 33.5q46 0 79.5 -33.5t33.5 -80.5t-33.5 -81t-79.5 -34zM427 -14q-170 0 -276 97.5t-106 260.5q0 143 81 271.5t213.5 205t276.5 76.5q103 0 179.5 -41.5t115.5 -107.5q13 -23 9 -32q-3 -5 -11 -11l-107 -73q-23 -15 -45 3
q-61 80 -167 80q-141 0 -245.5 -104.5t-104.5 -233.5q0 -93 58.5 -150t156.5 -57q116 0 218 85q34 19 47 -5l52 -104q14 -22 -10 -40q-155 -120 -335 -120z" />
    <glyph glyph-name="Ccaron" unicode="&#x10c;" horiz-adv-x="1374" 
d="M1071 1527l354 193q23 12 26 28l28 104q5 18 -6 24t-29 -2l-351 -168l-256 168q-16 8 -29 2t-18 -24l-26 -99q-4 -17 12 -31l248 -195q19 -16 47 0zM684 -12q-259 0 -412.5 144.5t-153.5 384.5q0 163 74 319.5t195 272t285 186.5t335 71q153 0 272 -60.5t179 -160.5
q10 -18 10.5 -26t-12.5 -19l-135 -86q-22 -14 -51 12q-109 123 -286 123q-96 0 -191 -31.5t-175 -88.5t-142 -130.5t-97 -163.5t-35 -181q0 -153 95.5 -251t272.5 -98q112 0 210.5 39.5t162.5 93.5q30 29 54 2l95 -123q18 -21 -14 -45q-248 -184 -536 -184z" />
    <glyph glyph-name="ccaron" unicode="&#x10d;" horiz-adv-x="918" 
d="M689 1059l354 192q23 12 26 28l28 104q5 18 -6 24.5t-29 -1.5l-350 -169l-257 169q-16 8 -29 1.5t-18 -24.5l-26 -99q-4 -17 12 -31l248 -194q19 -16 47 0zM427 -14q-170 0 -276 97.5t-106 260.5q0 143 81 271.5t213.5 205t276.5 76.5q103 0 179.5 -41.5t115.5 -107.5
q13 -23 9 -32q-3 -5 -11 -11l-107 -73q-23 -15 -45 3q-61 80 -167 80q-141 0 -245.5 -104.5t-104.5 -233.5q0 -93 58.5 -150t156.5 -57q116 0 218 85q34 19 47 -5l52 -104q14 -22 -10 -40q-155 -120 -335 -120z" />
    <glyph glyph-name="Dcaron" unicode="&#x10e;" horiz-adv-x="1431" 
d="M981 1493l354 192q23 12 26 28l27 104q5 18 -5.5 24.5t-28.5 -1.5l-351 -169l-257 169q-16 8 -29 1.5t-18 -24.5l-26 -99q-3 -16 13 -31l248 -194q19 -16 47 0zM40 0q-32 0 -24 31l347 1298q5 25 31 25h470q277 0 420 -141t143 -382q0 -169 -67.5 -322.5t-183.5 -265
t-279.5 -177.5t-346.5 -66h-510zM283 201h309q128 0 243 50t195 133.5t126.5 195t46.5 231.5q0 164 -91 252.5t-277 88.5h-297z" />
    <glyph glyph-name="dcaron" unicode="&#x10f;" horiz-adv-x="1220" 
d="M1406 1388q53 0 87 -34t34 -92q0 -86 -73.5 -182t-167.5 -151q-15 -6 -20 -4t-11 14l-14 24q-10 19 10 30q96 63 137 139q-10 -4 -24 -4q-42 0 -74.5 34t-32.5 82q0 59 45.5 101.5t103.5 42.5zM1130 1354q44 0 65 -30t8 -80l-327 -1223q-8 -21 -27 -21h-167q-13 0 -19 7
t-2 19l28 106q-146 -146 -328 -146q-144 0 -231 91.5t-87 245.5q0 107 42.5 211.5t113 184.5t168.5 129t202 49q103 0 174 -45.5t104 -127.5l116 435q16 61 23 153q3 42 36 42h108zM444 170q90 0 168.5 51t122.5 130.5t44 165.5q0 90 -52 143t-142 53t-169 -51.5
t-123.5 -131.5t-44.5 -166q0 -90 51 -142t145 -52z" />
    <glyph glyph-name="Dcroat" unicode="&#x110;" horiz-adv-x="1391" 
d="M824 1354q277 0 420 -141t143 -382q0 -169 -67.5 -322.5t-183.5 -265t-279 -177.5t-345 -66h-512q-14 0 -21 8.5t-3 22.5l144 542h-125q-13 0 -19 7t-2 19l40 154q5 19 28 19h132l149 557q8 25 33 25h468zM554 201q170 0 311 85t219.5 224.5t78.5 300.5q0 164 -91 252.5
t-277 88.5h-297l-102 -380h180q26 0 21 -26l-42 -152q-5 -21 -26 -21h-187l-99 -372h311z" />
    <glyph glyph-name="dcroat" unicode="&#x111;" horiz-adv-x="1088" 
d="M1274 1180q24 0 24 -26v-97q0 -26 -24 -26h-129l-269 -1010q-8 -21 -27 -21h-167q-13 0 -19 7t-2 19l28 106q-146 -146 -328 -146q-144 0 -231 91.5t-87 245.5q0 107 42.5 211.5t113 184.5t168.5 129t202 49q103 0 174 -45.5t104 -127.5l82 307h-217q-26 0 -26 26v97
q0 26 26 26h256q11 49 18 132q3 42 36 42h108q44 0 65 -30t8 -80l-18 -64h89zM444 170q90 0 168.5 51t122.5 130.5t44 165.5q0 90 -52 143t-142 53t-169 -51.5t-123.5 -131.5t-44.5 -166q0 -90 51 -142t145 -52z" />
    <glyph glyph-name="Emacron" unicode="&#x112;" horiz-adv-x="1069" 
d="M1257 1808q27 0 19 -26l-33 -126q-9 -28 -33 -28h-563q-27 0 -19 26l35 128q5 26 33 26h561zM1215 1354q12 0 18 -8.5t4 -21.5l-41 -149q-4 -23 -30 -23h-628l-99 -366h465q13 0 20 -8t3 -21l-40 -150q-4 -22 -30 -22h-472l-102 -384h644q13 0 19.5 -8t2.5 -21l-43 -149
q-4 -23 -30 -23h-840q-12 0 -18 8.5t-4 21.5l349 1301q5 23 31 23h821z" />
    <glyph glyph-name="emacron" unicode="&#x113;" horiz-adv-x="987" 
d="M1017 1340q27 0 19 -26l-33 -127q-9 -28 -33 -28h-562q-27 0 -19 26l34 129q5 26 33 26h561zM606 897q179 0 269.5 -107.5t70.5 -268.5q-2 -76 -45 -117t-125 -41h-530q3 -87 55 -145t164 -58q135 0 247 83q32 14 48 -14l35 -71q14 -22 -11 -43q-152 -129 -359 -129
q-175 0 -277.5 94t-102.5 258q0 143 74.5 271.5t205 208t281.5 79.5zM581 720q-100 0 -182.5 -58.5t-122.5 -151.5h482q8 89 -35.5 149.5t-141.5 60.5z" />
    <glyph glyph-name="Edotaccent" unicode="&#x116;" horiz-adv-x="1069" 
d="M955 1609q-47 0 -81 34t-34 80q0 47 34 81t81 34q46 0 80 -34t34 -81t-33.5 -80.5t-80.5 -33.5zM1215 1354q12 0 18 -8.5t4 -21.5l-41 -149q-4 -23 -30 -23h-628l-99 -366h465q13 0 20 -8t3 -21l-40 -150q-4 -22 -30 -22h-472l-102 -384h644q13 0 19.5 -8t2.5 -21
l-43 -149q-4 -23 -30 -23h-840q-12 0 -18 8.5t-4 21.5l349 1301q5 23 31 23h821z" />
    <glyph glyph-name="edotaccent" unicode="&#x117;" horiz-adv-x="987" 
d="M715 1140q-46 0 -80 34t-34 81t33.5 80.5t80.5 33.5q48 0 81.5 -33.5t33.5 -80.5t-33.5 -81t-81.5 -34zM606 897q179 0 269.5 -107.5t70.5 -268.5q-2 -76 -45 -117t-125 -41h-530q3 -87 55 -145t164 -58q135 0 247 83q32 14 48 -14l35 -71q14 -22 -11 -43
q-152 -129 -359 -129q-175 0 -277.5 94t-102.5 258q0 143 74.5 271.5t205 208t281.5 79.5zM581 720q-100 0 -182.5 -58.5t-122.5 -151.5h482q8 89 -35.5 149.5t-141.5 60.5z" />
    <glyph glyph-name="Eogonek" unicode="&#x118;" horiz-adv-x="1069" 
d="M1215 1354q12 0 18 -8.5t4 -21.5l-41 -149q-4 -23 -30 -23h-628l-99 -366h465q13 0 20 -8t3 -21l-40 -150q-4 -22 -30 -22h-472l-102 -384h644q13 0 19.5 -8t2.5 -21l-43 -149q-4 -23 -30 -23h-1q-127 -11 -220.5 -74t-93.5 -150q0 -78 95 -78q52 0 123 33q16 5 25 -0.5
t5 -18.5l-21 -82q-3 -16 -28 -29q-95 -56 -192 -56q-83 0 -132 39t-49 109q0 94 86.5 176.5t212.5 130.5h-650q-12 0 -18 8.5t-4 21.5l349 1301q5 23 31 23h821z" />
    <glyph glyph-name="eogonek" unicode="&#x119;" horiz-adv-x="1036" 
d="M606 897q179 0 269.5 -107.5t70.5 -268.5q-2 -76 -45 -117t-125 -41h-530q3 -87 55 -145t164 -58q135 0 247 83q32 14 48 -14l35 -71q14 -22 -11 -43q-50 -43 -116 -75l68 -7q-61 -30 -97 -51t-73 -49.5t-54 -59.5t-17 -67q0 -51 31.5 -79.5t87.5 -28.5q46 0 111 31
q14 7 24.5 1.5t10.5 -18.5v-82q0 -17 -19 -29q-80 -56 -177 -56q-99 0 -161.5 52.5t-62.5 136.5q0 76 54 143.5t146 119.5q-57 -11 -115 -11q-175 0 -277.5 94t-102.5 258q0 143 74.5 271.5t205 208t281.5 79.5zM581 720q-100 0 -182.5 -58.5t-122.5 -151.5h482
q8 89 -35.5 149.5t-141.5 60.5z" />
    <glyph glyph-name="Ecaron" unicode="&#x11a;" horiz-adv-x="1069" 
d="M1298 1874q18 8 29 2t6 -24l-28 -104q-3 -16 -26 -28l-354 -193q-28 -16 -47 0l-248 195q-16 14 -12 31l26 99q5 18 18 24t29 -2l257 -168zM1215 1354q12 0 18 -8.5t4 -21.5l-41 -149q-4 -23 -30 -23h-628l-99 -366h465q13 0 20 -8t3 -21l-40 -150q-4 -22 -30 -22h-472
l-102 -384h644q13 0 19.5 -8t2.5 -21l-43 -149q-4 -23 -30 -23h-840q-12 0 -18 8.5t-4 21.5l349 1301q5 23 31 23h821z" />
    <glyph glyph-name="ecaron" unicode="&#x11b;" horiz-adv-x="987" 
d="M1059 1406q17 8 27.5 1.5t5.5 -24.5l-26 -104q-4 -15 -26 -28l-354 -192q-30 -17 -47 0l-250 194q-16 14 -12 31l27 99q5 18 18 24.5t29 -1.5l255 -169zM606 897q179 0 269.5 -107.5t70.5 -268.5q-2 -76 -45 -117t-125 -41h-530q3 -87 55 -145t164 -58q135 0 247 83
q32 14 48 -14l35 -71q14 -22 -11 -43q-152 -129 -359 -129q-175 0 -277.5 94t-102.5 258q0 143 74.5 271.5t205 208t281.5 79.5zM581 720q-100 0 -182.5 -58.5t-122.5 -151.5h482q8 89 -35.5 149.5t-141.5 60.5z" />
    <glyph glyph-name="Gbreve" unicode="&#x11e;" horiz-adv-x="1417" 
d="M1041 1474q-142 0 -219 82t-46 206q8 36 33 36h94q11 0 14 -7t3 -24q-14 -69 26 -109t113 -40t132.5 40t85.5 109q15 31 35 31h99q27 0 16 -36q-44 -135 -148 -211.5t-238 -76.5zM1458 1145q10 -18 10.5 -26t-12.5 -19l-135 -86q-22 -14 -51 12q-109 123 -286 123
q-96 0 -191 -31.5t-175 -88.5t-142 -130.5t-97 -163.5t-35 -181q0 -153 95.5 -251t272.5 -98q110 0 210 38t175 95l57 209h-305q-13 0 -20 8t-3 21l38 143q4 22 32 22h473q13 0 19 -8t4 -21l-137 -504q-257 -220 -578 -220q-254 0 -406.5 144.5t-152.5 384.5q0 163 74 319.5
t195 272t285 186.5t335 71q153 0 272 -60.5t179 -160.5z" />
    <glyph glyph-name="gbreve" unicode="&#x11f;" horiz-adv-x="1004" 
d="M686 1019q-142 0 -219.5 82t-46.5 206q8 36 33 36h94q11 0 14 -7t3 -24q-12 -69 27.5 -109t111.5 -40q73 0 133 40t86 109q16 31 34 31h99q27 0 16 -36q-44 -135 -147.5 -211.5t-237.5 -76.5zM1080 885q12 0 18 -7t2 -19l-225 -840q-29 -108 -84.5 -189t-127 -127
t-149.5 -68t-163 -22q-103 0 -197 25.5t-156 76.5q-18 16 -5 33l71 103q12 16 30 7q50 -33 118.5 -49.5t131.5 -16.5q117 0 202.5 64.5t121.5 193.5l23 82q-148 -146 -330 -146q-144 0 -231 91.5t-87 245.5q0 107 42.5 211.5t113 184.5t168.5 129t202 49q103 0 174 -46
t104 -129l38 142q5 21 28 21h167zM444 170q90 0 168.5 51t122.5 130.5t44 165.5q0 90 -52 143t-142 53t-169 -51.5t-123.5 -131.5t-44.5 -166q0 -90 51 -142t145 -52z" />
    <glyph glyph-name="Gdotaccent" unicode="&#x120;" horiz-adv-x="1417" 
d="M1086 1585q-46 0 -80 33.5t-34 80.5t34 81t80 34t80.5 -34t34.5 -81q0 -46 -34 -80t-81 -34zM1458 1145q10 -18 10.5 -26t-12.5 -19l-135 -86q-22 -14 -51 12q-109 123 -286 123q-96 0 -191 -31.5t-175 -88.5t-142 -130.5t-97 -163.5t-35 -181q0 -153 95.5 -251
t272.5 -98q110 0 210 38t175 95l57 209h-305q-13 0 -20 8t-3 21l38 143q4 22 32 22h473q13 0 19 -8t4 -21l-137 -504q-257 -220 -578 -220q-254 0 -406.5 144.5t-152.5 384.5q0 163 74 319.5t195 272t285 186.5t335 71q153 0 272 -60.5t179 -160.5z" />
    <glyph glyph-name="gdotaccent" unicode="&#x121;" horiz-adv-x="1004" 
d="M731 1130q-48 0 -81.5 33.5t-33.5 80.5t33.5 81t81.5 34q46 0 79 -34t33 -81t-33 -80.5t-79 -33.5zM1080 885q12 0 18 -7t2 -19l-225 -840q-29 -108 -84.5 -189t-127 -127t-149.5 -68t-163 -22q-103 0 -197 25.5t-156 76.5q-18 16 -5 33l71 103q12 16 30 7
q50 -33 118.5 -49.5t131.5 -16.5q117 0 202.5 64.5t121.5 193.5l23 82q-148 -146 -330 -146q-144 0 -231 91.5t-87 245.5q0 107 42.5 211.5t113 184.5t168.5 129t202 49q103 0 174 -46t104 -129l38 142q5 21 28 21h167zM444 170q90 0 168.5 51t122.5 130.5t44 165.5
q0 90 -52 143t-142 53t-169 -51.5t-123.5 -131.5t-44.5 -166q0 -90 51 -142t145 -52z" />
    <glyph glyph-name="uni0122" unicode="&#x122;" horiz-adv-x="1417" 
d="M1458 1145q10 -18 10.5 -26t-12.5 -19l-135 -86q-22 -14 -51 12q-109 123 -286 123q-96 0 -191 -31.5t-175 -88.5t-142 -130.5t-97 -163.5t-35 -181q0 -153 95.5 -251t272.5 -98q110 0 210 38t175 95l57 209h-305q-13 0 -20 8t-3 21l38 143q4 22 32 22h473q13 0 19 -8
t4 -21l-137 -504q-257 -220 -578 -220q-254 0 -406.5 144.5t-152.5 384.5q0 163 74 319.5t195 272t285 186.5t335 71q153 0 272 -60.5t179 -160.5zM604 -160q53 0 87 -33.5t34 -91.5q0 -88 -74 -184t-167 -149q-15 -6 -20 -3.5t-11 14.5l-16 24q-7 14 13 29q95 63 137 137
q-3 -1 -25 -1q-42 0 -74.5 33t-32.5 81q0 60 44.5 102t104.5 42z" />
    <glyph glyph-name="uni0123" unicode="&#x123;" horiz-adv-x="1004" 
d="M580 1005q-51 0 -85.5 34.5t-34.5 92.5q0 86 73.5 182t167.5 151q13 6 18.5 3.5t11.5 -14.5l15 -24q8 -19 -12 -29q-99 -67 -135 -139q5 3 24 3q42 0 74 -33t32 -83q0 -59 -45 -101.5t-104 -42.5zM1080 885q12 0 18 -7t2 -19l-225 -840q-29 -108 -84.5 -189t-127 -127
t-149.5 -68t-163 -22q-103 0 -197 25.5t-156 76.5q-18 16 -5 33l71 103q12 16 30 7q50 -33 118.5 -49.5t131.5 -16.5q117 0 202.5 64.5t121.5 193.5l23 82q-148 -146 -330 -146q-144 0 -231 91.5t-87 245.5q0 107 42.5 211.5t113 184.5t168.5 129t202 49q103 0 174 -46
t104 -129l38 142q5 21 28 21h167zM444 170q90 0 168.5 51t122.5 130.5t44 165.5q0 90 -52 143t-142 53t-169 -51.5t-123.5 -131.5t-44.5 -166q0 -90 51 -142t145 -52z" />
    <glyph glyph-name="Hbar" unicode="&#x126;" horiz-adv-x="1409" 
d="M1498 1354q13 0 19.5 -8.5t2.5 -21.5l-348 -1301q-5 -23 -30 -23h-170q-13 0 -19 8.5t-4 21.5l150 555h-712l-151 -562q-5 -23 -29 -23h-171q-12 0 -18 8.5t-4 21.5l349 1301q5 23 31 23h168q13 0 20 -8.5t3 -21.5l-52 -196h711l54 203q5 23 31 23h169zM441 786h711
l44 162h-712z" />
    <glyph glyph-name="hbar" unicode="&#x127;" horiz-adv-x="1065" 
d="M731 896q144 0 219 -91.5t34 -245.5l-95 -356q-11 -41 -15.5 -72.5t-5.5 -56t-2 -34.5q-1 -24 -15 -33t-42 -9h-106q-37 0 -54 29t-7 63l118 439q22 83 -14.5 130t-117.5 47q-79 0 -151.5 -41t-117.5 -101l-146 -543q-5 -21 -26 -21h-166q-13 0 -19 7t-2 19l271 1019h-80
q-12 0 -20 7t-8 19v106q0 13 8 20.5t20 7.5h121q6 33 13 107q3 42 36 42h108q44 0 65 -30t8 -80l-11 -39h108q26 0 26 -27v-107q0 -26 -26 -26h-151l-77 -285q153 136 320 136z" />
    <glyph glyph-name="Imacron" unicode="&#x12a;" horiz-adv-x="473" 
d="M290 1782q5 26 33 26h560q28 0 20 -26l-33 -126q-9 -28 -33 -28h-563q-27 0 -19 26zM36 0q-12 0 -18 8.5t-4 21.5l349 1301q5 23 31 23h168q13 0 20 -8.5t3 -21.5l-349 -1301q-5 -23 -29 -23h-171z" />
    <glyph glyph-name="imacron" unicode="&#x12b;" horiz-adv-x="433" 
d="M144 1314q5 26 33 26h561q27 0 19 -26l-35 -127q-5 -28 -31 -28h-563q-27 0 -19 26zM19 0q-13 0 -19 7t-2 19l222 838q4 21 28 21h167q13 0 19 -7t2 -19l-223 -838q-7 -21 -27 -21h-167z" />
    <glyph glyph-name="Iogonek" unicode="&#x12e;" horiz-adv-x="473" 
d="M562 1354q13 0 20 -8.5t3 -21.5l-349 -1301q-5 -23 -29 -23h-11q-127 -11 -220.5 -74t-93.5 -150q0 -78 95 -78q53 0 124 33q16 5 24.5 -0.5t4.5 -18.5l-21 -82q-4 -17 -27 -29q-95 -56 -193 -56q-83 0 -132 39t-49 109q0 96 91.5 181t221.5 131q-11 8 -7 25l349 1301
q5 23 31 23h168z" />
    <glyph glyph-name="iogonek" unicode="&#x12f;" horiz-adv-x="433" 
d="M436 1369q46 0 80 -33.5t34 -80.5t-34 -81t-80 -34t-80.5 34t-34.5 81q0 46 34 80t81 34zM415 885q13 0 19 -7t2 -19l-223 -838q-7 -21 -27 -21q-127 -11 -220.5 -74t-93.5 -150q0 -78 95 -78q52 0 123 33q16 5 25 -0.5t5 -18.5l-21 -82q-3 -15 -28 -29q-95 -56 -192 -56
q-83 0 -132 39t-49 109q0 96 89 180t218 130q-12 5 -7 23l222 838q4 21 28 21h167z" />
    <glyph glyph-name="Idotaccent" unicode="&#x130;" horiz-adv-x="473" 
d="M502 1630q-47 0 -81 34t-34 80t34.5 80.5t80.5 34.5q48 0 81 -34t33 -81t-33 -80.5t-81 -33.5zM36 0q-12 0 -18 8.5t-4 21.5l349 1301q5 23 31 23h168q13 0 20 -8.5t3 -21.5l-349 -1301q-5 -23 -29 -23h-171z" />
    <glyph glyph-name="dotlessi" unicode="&#x131;" horiz-adv-x="433" 
d="M19 0q-13 0 -19 7t-2 19l222 838q4 21 28 21h167q13 0 19 -7t2 -19l-223 -838q-7 -21 -27 -21h-167z" />
    <glyph glyph-name="IJ" unicode="&#x132;" horiz-adv-x="958" 
d="M36 0q-12 0 -18 8.5t-4 21.5l349 1301q5 23 31 23h168q13 0 20 -8.5t3 -21.5l-349 -1301q-5 -23 -29 -23h-171zM1064 1354q13 0 19 -8.5t2 -21.5l-408 -1518q-41 -155 -137 -252t-226 -137q-20 -6 -31.5 -0.5t-13.5 19.5l-43 167q-6 30 19 33q84 12 140 66t78 135
l401 1494q5 23 30 23h170z" />
    <glyph glyph-name="ij" unicode="&#x133;" horiz-adv-x="873" 
d="M444 1161q-47 0 -80 32.5t-33 80.5q0 46 33 78.5t80 32.5q46 0 78.5 -32.5t32.5 -78.5q0 -48 -32 -80.5t-79 -32.5zM878 1161q-48 0 -80.5 32.5t-32.5 80.5q0 47 32.5 79t80.5 32q46 0 78.5 -32.5t32.5 -78.5q0 -48 -32.5 -80.5t-78.5 -32.5zM17 0q-12 0 -18 7t-2 19
l223 838q4 21 26 21h169q26 0 21 -26l-224 -838q-4 -21 -28 -21h-167zM347 -391q-34 -13 -43 21l-42 163q-10 33 21 42q58 21 93 54t51 92l236 883q5 21 26 21h168q26 0 21 -26l-239 -892q-40 -149 -103.5 -229.5t-188.5 -128.5z" />
    <glyph glyph-name="uni0136" unicode="&#x136;" horiz-adv-x="1253" 
d="M1387 1354q18 0 22 -10.5t-10 -22.5l-798 -646l484 -644q9 -12 4 -21.5t-22 -9.5h-201q-21 0 -33 16l-439 593l-158 -586q-5 -23 -29 -23h-171q-12 0 -18 8.5t-4 21.5l349 1301q5 23 31 23h168q13 0 20 -8.5t3 -21.5l-153 -571l708 589q13 12 32 12h215zM429 -160
q53 0 87 -33.5t34 -91.5q0 -88 -74 -184t-167 -149q-15 -6 -20 -3.5t-11 14.5l-16 24q-7 14 12 29q95 63 137 137q-3 -1 -24 -1q-42 0 -75 33t-33 81q0 60 45 102t105 42z" />
    <glyph glyph-name="uni0137" unicode="&#x137;" horiz-adv-x="1004" 
d="M1015 885q16 0 20 -9.5t-9 -19.5l-514 -400l335 -426q7 -12 2.5 -20t-18.5 -8l-199 -2q-21 0 -30 16l-279 362l-96 -357q-4 -21 -27 -21h-167q-13 0 -19 7t-2 19l302 1133q7 25 11.5 51.5t6.5 42t4 36t2 23.5q0 42 35 42h108q45 0 65.5 -30t7.5 -80l-186 -696l415 327
q13 10 29 10h203zM399 -160q53 0 87.5 -33.5t34.5 -91.5q0 -87 -74 -183.5t-168 -149.5q-16 -5 -19.5 -3.5t-11.5 14.5l-14 24q-9 14 11 29q95 63 137 137q-3 -1 -24 -1q-42 0 -75 33t-33 81q0 60 45 102t104 42z" />
    <glyph glyph-name="Lacute" unicode="&#x139;" horiz-adv-x="1039" 
d="M830 1703q11 4 13.5 13.5t-5.5 22.5l-78 139q-5 9 -17 9t-21 -7l-351 -240q-18 -10 -7 -29l59 -96q11 -19 35 -9zM861 201q14 0 20 -8t2 -21l-38 -149q-7 -23 -31 -23h-776q-13 0 -19.5 8.5t-2.5 21.5l347 1301q5 23 31 23h168q13 0 20 -8.5t3 -21.5l-302 -1123h578z" />
    <glyph glyph-name="lacute" unicode="&#x13a;" horiz-adv-x="452" 
d="M830 1703q23 10 8 36l-80 139q-11 19 -38 2l-350 -240q-7 -4 -9.5 -12t3.5 -17l58 -96q11 -19 34 -9zM33 0q-13 0 -19 7t-2 19l302 1133q7 25 11.5 51.5t6.5 42t4 36t2 23.5q0 42 35 42h108q45 0 65.5 -30t7.5 -80l-327 -1223q-4 -21 -27 -21h-167z" />
    <glyph glyph-name="uni013B" unicode="&#x13b;" horiz-adv-x="1039" 
d="M861 201q14 0 20 -8t2 -21l-38 -149q-7 -23 -31 -23h-776q-13 0 -19.5 8.5t-2.5 21.5l347 1301q5 23 31 23h168q13 0 20 -8.5t3 -21.5l-302 -1123h578zM238 -618q-15 -6 -20 -3.5t-11 14.5l-16 24q-7 14 12 29q95 63 137 137q-2 -1 -24 -1q-42 0 -75 33t-33 81
q0 60 45 102t105 42q53 0 87 -33.5t34 -91.5q0 -88 -74 -184t-167 -149z" />
    <glyph glyph-name="uni013C" unicode="&#x13c;" horiz-adv-x="452" 
d="M33 0q-13 0 -19 7t-2 19l302 1133q7 25 11.5 51.5t6.5 42t4 36t2 23.5q0 42 35 42h108q45 0 65.5 -30t7.5 -80l-327 -1223q-4 -21 -27 -21h-167zM-71 -618q-14 -6 -18.5 -3.5t-12.5 14.5l-14 24q-8 15 10 29q100 66 137 137q-3 -1 -24 -1q-42 0 -74 33t-32 81
q0 60 44.5 102t104.5 42q51 0 85.5 -33.5t34.5 -91.5q0 -88 -74 -184t-167 -149z" />
    <glyph glyph-name="Lcaron" unicode="&#x13d;" horiz-adv-x="1039" 
d="M684 908q-16 -5 -19.5 -3t-11.5 13l-14 26q-11 17 10 28q96 63 137 139q-10 -4 -24 -4q-42 0 -74 34.5t-32 82.5q0 60 45 102t103 42q53 0 87 -33.5t34 -91.5q0 -87 -73.5 -183.5t-167.5 -151.5zM861 201q14 0 20 -8t2 -21l-38 -149q-7 -23 -31 -23h-776q-13 0 -19.5 8.5
t-2.5 21.5l347 1301q5 23 31 23h168q13 0 20 -8.5t3 -21.5l-302 -1123h578z" />
    <glyph glyph-name="lcaron" unicode="&#x13e;" horiz-adv-x="617" 
d="M639 913q-15 -6 -19.5 -4t-12.5 14l-13 25q-9 14 10 29q95 63 137 137q-2 -1 -24 -1q-42 0 -74 33t-32 81q0 60 44.5 102t102.5 42q53 0 87.5 -33.5t34.5 -91.5q0 -86 -74 -183t-167 -150zM33 0q-13 0 -19 7t-2 19l302 1133q7 25 11.5 51.5t6.5 42t4 36t2 23.5
q0 42 35 42h108q45 0 65.5 -30t7.5 -80l-327 -1223q-4 -21 -27 -21h-167z" />
    <glyph glyph-name="Ldot" unicode="&#x13f;" horiz-adv-x="1039" 
d="M861 201q14 0 20 -8t2 -21l-38 -149q-7 -23 -31 -23h-776q-13 0 -19.5 8.5t-2.5 21.5l347 1301q5 23 31 23h168q13 0 20 -8.5t3 -21.5l-302 -1123h578zM795 552q-58 0 -100 42.5t-42 101.5q0 57 42 99t100 42q57 0 99.5 -42t42.5 -99q0 -58 -42.5 -101t-99.5 -43z" />
    <glyph glyph-name="ldot" unicode="&#x140;" horiz-adv-x="565" 
d="M33 0q-13 0 -19 7t-2 19l302 1133q7 25 11.5 51.5t6.5 42t4 36t2 23.5q0 42 35 42h108q45 0 65.5 -30t7.5 -80l-327 -1223q-4 -21 -27 -21h-167zM554 555q-57 0 -98 42t-41 99q0 56 41 96.5t98 40.5t98 -40.5t41 -96.5q0 -57 -41 -99t-98 -42z" />
    <glyph glyph-name="Lslash" unicode="&#x141;" horiz-adv-x="1053" 
d="M875 201q14 0 20 -8t2 -21l-38 -149q-7 -23 -31 -23h-776q-14 0 -20 8.5t-2 21.5l128 479l-73 -35q-25 -9 -35 12l-71 156q-11 26 14 37l241 118l143 534q5 23 29 23h170q13 0 20 -8.5t3 -21.5l-110 -404l150 73q24 12 33 -12l69 -157q11 -21 -12 -36l-316 -155
l-116 -432h578z" />
    <glyph glyph-name="lslash" unicode="&#x142;" horiz-adv-x="492" 
d="M597 826q18 -29 -12 -47l-153 -83l-180 -675q-5 -21 -28 -21h-167q-12 0 -18.5 7t-2.5 19l143 533l-78 -44q-28 -16 -49 13l-21 34q-18 29 16 47l170 94l123 456q7 25 11.5 51.5t6 42.5t3 35t2.5 24q0 42 34 42h108q45 0 65.5 -30t7.5 -80l-108 -404l59 33q30 16 45 -12z
" />
    <glyph glyph-name="Nacute" unicode="&#x143;" horiz-adv-x="1431" 
d="M1309 1703q11 4 13.5 13.5t-5.5 22.5l-78 139q-5 9 -17 9t-21 -7l-351 -240q-18 -10 -7 -29l60 -96q11 -19 34 -9zM36 0q-12 0 -18 8.5t-4 21.5l349 1301q5 23 31 23h167q23 0 31 -19l462 -984l265 980q7 23 31 23h169q14 0 20 -8.5t2 -21.5l-349 -1301q-5 -23 -29 -23
h-167q-22 0 -29 21l-465 982l-266 -980q-4 -23 -29 -23h-171z" />
    <glyph glyph-name="nacute" unicode="&#x144;" 
d="M996 1270q15 -26 -8 -36l-374 -196q-23 -10 -34 9l-58 95q-6 9 -3.5 17.5t9.5 12.5l352 239q9 7 20 7t16 -9zM724 897q144 0 217.5 -91t32.5 -245l-94 -356q-11 -42 -15.5 -73.5t-5.5 -56.5t-2 -35q-1 -23 -15 -31.5t-42 -8.5h-106q-37 0 -54 28t-7 64l119 439
q22 82 -16.5 128.5t-119.5 46.5q-78 0 -147.5 -38t-114.5 -97l-146 -550q-8 -21 -27 -21h-167q-13 0 -19 7t-2 19l222 838q5 21 28 21h167q28 0 20 -26l-26 -95q154 133 320 133z" />
    <glyph glyph-name="uni0145" unicode="&#x145;" horiz-adv-x="1431" 
d="M36 0q-12 0 -18 8.5t-4 21.5l349 1301q5 23 31 23h167q23 0 31 -19l462 -984l265 980q7 23 31 23h169q14 0 20 -8.5t2 -21.5l-349 -1301q-5 -23 -29 -23h-167q-22 0 -29 21l-465 982l-266 -980q-4 -23 -29 -23h-171zM404 -618q-15 -6 -20 -3.5t-11 14.5l-15 24
q-7 14 12 29q95 63 137 137q-3 -1 -25 -1q-42 0 -74.5 33t-32.5 81q0 60 44.5 102t104.5 42q53 0 87.5 -33.5t34.5 -91.5q0 -87 -74 -183.5t-168 -149.5z" />
    <glyph glyph-name="uni0146" unicode="&#x146;" 
d="M724 897q144 0 217.5 -91t32.5 -245l-94 -356q-11 -42 -15.5 -73.5t-5.5 -56.5t-2 -35q-1 -23 -15 -31.5t-42 -8.5h-106q-37 0 -54 28t-7 64l119 439q22 82 -16.5 128.5t-119.5 46.5q-78 0 -147.5 -38t-114.5 -97l-146 -550q-8 -21 -27 -21h-167q-13 0 -19 7t-2 19
l222 838q5 21 28 21h167q28 0 20 -26l-26 -95q154 133 320 133zM337 -160q52 0 86.5 -33.5t34.5 -91.5q0 -88 -74 -184t-167 -149q-15 -6 -20 -3.5t-11 14.5l-16 24q-8 15 12 29q95 63 137 137q-4 -1 -26 -1q-42 0 -74 33t-32 81q0 60 45 102t105 42z" />
    <glyph glyph-name="Ncaron" unicode="&#x147;" horiz-adv-x="1431" 
d="M1029 1527l354 193q23 12 26 28l28 104q5 18 -6 24t-29 -2l-350 -168l-257 168q-16 8 -29 2t-18 -24l-26 -99q-4 -17 12 -31l248 -195q19 -16 47 0zM36 0q-12 0 -18 8.5t-4 21.5l349 1301q5 23 31 23h167q23 0 31 -19l462 -984l265 980q7 23 31 23h169q14 0 20 -8.5
t2 -21.5l-349 -1301q-5 -23 -29 -23h-167q-22 0 -29 21l-465 982l-266 -980q-4 -23 -29 -23h-171z" />
    <glyph glyph-name="ncaron" unicode="&#x148;" 
d="M1081 1406q17 8 27.5 1.5t5.5 -24.5l-26 -104q-4 -15 -26 -28l-354 -192q-30 -17 -47 0l-250 194q-16 14 -12 31l28 99q5 18 18 24.5t29 -1.5l255 -169zM724 897q144 0 217.5 -91t32.5 -245l-94 -356q-11 -42 -15.5 -73.5t-5.5 -56.5t-2 -35q-1 -23 -15 -31.5t-42 -8.5
h-106q-37 0 -54 28t-7 64l119 439q22 82 -16.5 128.5t-119.5 46.5q-78 0 -147.5 -38t-114.5 -97l-146 -550q-8 -21 -27 -21h-167q-13 0 -19 7t-2 19l222 838q5 21 28 21h167q28 0 20 -26l-26 -95q154 133 320 133z" />
    <glyph glyph-name="Eng" unicode="&#x14a;" horiz-adv-x="1431" 
d="M1519 1354q14 0 20 -8.5t2 -21.5l-349 -1301q-5 -12 -8 -14l-54 -203q-41 -155 -137 -252t-226 -137q-20 -6 -31.5 -0.5t-13.5 19.5l-43 167q-9 30 19 33q84 12 140 66t78 135l51 186l-465 980l-266 -980q-4 -23 -29 -23h-171q-12 0 -18 8.5t-4 21.5l349 1301q5 23 31 23
h167q23 0 31 -19l462 -984l78 288l185 692q5 23 30 23h172z" />
    <glyph glyph-name="eng" unicode="&#x14b;" horiz-adv-x="1046" 
d="M724 897q144 0 217.5 -91t32.5 -245l-176 -663q-40 -149 -103 -228.5t-188 -127.5q-36 -14 -44 21l-41 163q-10 32 19 41q59 19 95 53t51 93l165 618q22 82 -16.5 128.5t-119.5 46.5q-78 0 -147.5 -38t-114.5 -97l-146 -550q-8 -21 -27 -21h-167q-13 0 -19 7t-2 19
l222 838q5 21 28 21h167q28 0 20 -26l-26 -95q154 133 320 133z" />
    <glyph glyph-name="Omacron" unicode="&#x14c;" horiz-adv-x="1542" 
d="M824 1782q8 26 33 26h561q26 0 21 -26l-35 -126q-9 -28 -33 -28h-560q-26 0 -21 26zM666 -12q-251 0 -399.5 146.5t-148.5 380.5q0 130 47 257.5t131 233t193.5 187.5t242.5 127.5t269 45.5q252 0 400.5 -147t148.5 -382q0 -162 -74 -318t-194.5 -272.5t-283.5 -187.5
t-332 -71zM706 205q119 0 233.5 50.5t198 132.5t134.5 190.5t51 219.5q0 159 -96 255t-265 96q-159 0 -302.5 -85t-229 -222.5t-85.5 -287.5q0 -158 96.5 -253.5t264.5 -95.5z" />
    <glyph glyph-name="omacron" unicode="&#x14d;" horiz-adv-x="1046" 
d="M443 1288q8 26 33 26h562q27 0 19 -26l-35 -127q-2 -12 -11.5 -20t-21.5 -8h-560q-27 0 -19 26zM422 -14q-170 0 -273.5 95.5t-103.5 256.5q0 145 80 274.5t214.5 207t285.5 77.5q171 0 273.5 -95t102.5 -257q0 -147 -79 -276t-213 -206t-287 -77zM448 170
q141 0 246.5 107t105.5 240q0 89 -53 142.5t-146 53.5q-141 0 -247 -106t-106 -239q0 -90 53 -144t147 -54z" />
    <glyph glyph-name="Ohungarumlaut" unicode="&#x150;" horiz-adv-x="1542" 
d="M797 1569q-11 0 -17 7t-2 17l116 328q8 26 31 26h155q12 0 18 -7t1 -19l-150 -328q-12 -24 -29 -24h-123zM1170 1569q-11 0 -16 7t-3 17l118 328q5 26 31 26h154q11 0 17 -7.5t1 -18.5l-148 -328q-12 -24 -31 -24h-123zM666 -12q-251 0 -399.5 146.5t-148.5 380.5
q0 130 47 257.5t131 233t193.5 187.5t242.5 127.5t269 45.5q252 0 400.5 -147t148.5 -382q0 -162 -74 -318t-194.5 -272.5t-283.5 -187.5t-332 -71zM706 205q119 0 233.5 50.5t198 132.5t134.5 190.5t51 219.5q0 159 -96 255t-265 96q-159 0 -302.5 -85t-229 -222.5
t-85.5 -287.5q0 -158 96.5 -253.5t264.5 -95.5z" />
    <glyph glyph-name="ohungarumlaut" unicode="&#x151;" horiz-adv-x="1046" 
d="M415 1074q-10 0 -15.5 7t-3.5 18l118 328q5 26 31 26h153q12 0 18 -7t1 -19l-148 -328q-13 -25 -31 -25h-123zM790 1074q-11 0 -17 7.5t-2 17.5l116 328q8 26 31 26h155q27 0 19 -26l-150 -328q-12 -25 -31 -25h-121zM422 -14q-170 0 -273.5 95.5t-103.5 256.5
q0 145 80 274.5t214.5 207t285.5 77.5q171 0 273.5 -95t102.5 -257q0 -147 -79 -276t-213 -206t-287 -77zM448 170q141 0 246.5 107t105.5 240q0 89 -53 142.5t-146 53.5q-141 0 -247 -106t-106 -239q0 -90 53 -144t147 -54z" />
    <glyph glyph-name="OE" unicode="&#x152;" horiz-adv-x="2190" 
d="M2334 1354q14 0 20.5 -8.5t2.5 -21.5l-40 -149q-4 -23 -29 -23h-629l-99 -366h465q13 0 19 -8t4 -21l-40 -150q-7 -22 -31 -22h-471l-102 -384h644q13 0 19 -8t4 -21l-44 -149q-4 -23 -29 -23h-840q-13 0 -20 8.5t-3 21.5l33 123q-236 -165 -502 -165
q-251 0 -399.5 146.5t-148.5 380.5q0 130 47 257.5t131 233t193.5 187.5t242.5 127.5t269 45.5q143 0 256 -50.5t185 -142.5l42 158q5 23 29 23h821zM706 205q119 0 233.5 50.5t198 132.5t134.5 190.5t51 219.5q0 159 -96 255t-265 96q-159 0 -302.5 -85t-229 -222.5
t-85.5 -287.5q0 -158 96.5 -253.5t264.5 -95.5z" />
    <glyph glyph-name="oe" unicode="&#x153;" horiz-adv-x="1725" 
d="M1343 897q119 0 202 -51t117 -136t20 -189q-2 -76 -44.5 -117t-125.5 -41h-530q3 -87 55.5 -145t165.5 -58q132 0 244 83q33 14 49 -14l35 -71q14 -22 -11 -43q-152 -129 -357 -129q-116 0 -202.5 43.5t-132.5 123.5q-81 -78 -186.5 -122.5t-219.5 -44.5
q-170 0 -273.5 95.5t-103.5 256.5q0 145 80 274.5t214.5 207t285.5 77.5q112 0 197 -42.5t131 -120.5q78 77 178 120t212 43zM1317 720q-100 0 -182.5 -58.5t-122.5 -151.5h482q10 89 -34 149.5t-143 60.5zM448 170q141 0 246.5 107t105.5 240q0 89 -53 142.5t-146 53.5
q-141 0 -247 -106t-106 -239q0 -90 53 -144t147 -54z" />
    <glyph glyph-name="Racute" unicode="&#x154;" horiz-adv-x="1251" 
d="M817 1515l-57 96q-10 18 5 29l353 240q9 7 20 7t16 -9l80 -139q15 -26 -9 -36l-373 -197q-22 -9 -35 9zM1295 989q0 -179 -110 -326t-284 -210l159 -423q4 -13 -1.5 -21.5t-18.5 -8.5h-174q-22 0 -29 21l-146 394h-5h-344l-106 -392q-5 -23 -29 -23h-171q-12 0 -18 8.5
t-4 21.5l349 1301q5 23 31 23h522q186 0 282.5 -102.5t96.5 -262.5zM720 614q144 0 251 103.5t107 237.5q0 89 -50.5 143t-154.5 54h-335l-144 -538h326z" />
    <glyph glyph-name="racute" unicode="&#x155;" horiz-adv-x="775" 
d="M915 1270q15 -26 -9 -36l-373 -196q-24 -10 -35 9l-57 95q-14 19 5 30l352 239q9 7 20.5 7t16.5 -9zM828 838q13 -10 17.5 -24.5t-5.5 -27.5l-108 -120q-4 -5 -9 -6t-8 0.5t-8.5 5t-7.5 4.5q-54 40 -119 40q-138 0 -224 -134l-148 -555q-8 -21 -27 -21h-167q-13 0 -19 7
t-2 19l222 838q5 21 28 21h167q28 0 20 -26l-20 -81q126 119 258 119q92 0 160 -59z" />
    <glyph glyph-name="uni0156" unicode="&#x156;" horiz-adv-x="1251" 
d="M1295 989q0 -179 -110 -326t-284 -210l159 -423q4 -13 -1.5 -21.5t-18.5 -8.5h-174q-22 0 -29 21l-146 394h-5h-344l-106 -392q-5 -23 -29 -23h-171q-12 0 -18 8.5t-4 21.5l349 1301q5 23 31 23h522q186 0 282.5 -102.5t96.5 -262.5zM720 614q144 0 251 103.5t107 237.5
q0 89 -50.5 143t-154.5 54h-335l-144 -538h326zM446 -160q52 0 87 -33.5t35 -91.5q0 -87 -74 -183.5t-168 -149.5q-15 -6 -20 -3.5t-11 14.5l-16 24q-7 15 13 29q95 63 137 137q-4 -1 -25 -1q-43 0 -75 33t-32 81q0 60 44.5 102t104.5 42z" />
    <glyph glyph-name="uni0157" unicode="&#x157;" horiz-adv-x="775" 
d="M828 838q13 -10 17.5 -24.5t-5.5 -27.5l-108 -120q-4 -5 -9 -6t-8 0.5t-8.5 5t-7.5 4.5q-54 40 -119 40q-138 0 -224 -134l-148 -555q-8 -21 -27 -21h-167q-13 0 -19 7t-2 19l222 838q5 21 28 21h167q28 0 20 -26l-20 -81q126 119 258 119q92 0 160 -59zM26 -160
q52 0 87 -33.5t35 -91.5q0 -87 -74 -183.5t-168 -149.5q-15 -6 -20 -3.5t-11 14.5l-16 24q-7 15 13 29q95 63 137 137q-4 -1 -25 -1q-43 0 -75 33t-32 81q0 60 44.5 102t104.5 42z" />
    <glyph glyph-name="Rcaron" unicode="&#x158;" horiz-adv-x="1251" 
d="M1319 1874q18 8 29 2t6 -24l-28 -104q-2 -14 -26 -28l-354 -193q-28 -16 -47 0l-250 195q-14 13 -10 31l26 99q5 18 18 24t29 -2l256 -168zM916 1354q186 0 282.5 -102.5t96.5 -262.5q0 -179 -110 -326t-284 -210l159 -423q4 -13 -1.5 -21.5t-18.5 -8.5h-174
q-22 0 -29 21l-146 394h-5h-344l-106 -392q-5 -23 -29 -23h-171q-12 0 -18 8.5t-4 21.5l349 1301q5 23 31 23h522zM720 614q144 0 251 103.5t107 237.5q0 89 -50.5 143t-154.5 54h-335l-144 -538h326z" />
    <glyph glyph-name="rcaron" unicode="&#x159;" horiz-adv-x="775" 
d="M1000 1406q17 8 27.5 1.5t6.5 -24.5l-27 -104q-4 -15 -26 -28l-354 -192q-30 -17 -47 0l-250 194q-16 14 -12 31l27 99q5 18 18 24.5t29 -1.5l257 -169zM828 838q13 -10 17.5 -24.5t-5.5 -27.5l-108 -120q-4 -5 -9 -6t-8 0.5t-8.5 5t-7.5 4.5q-54 40 -119 40
q-138 0 -224 -134l-148 -555q-8 -21 -27 -21h-167q-13 0 -19 7t-2 19l222 838q5 21 28 21h167q28 0 20 -26l-20 -81q126 119 258 119q92 0 160 -59z" />
    <glyph glyph-name="Sacute" unicode="&#x15a;" horiz-adv-x="1072" 
d="M1118 1677q10 4 12.5 14.5t-4.5 23.5l-79 137q-6 10 -16.5 9.5t-20.5 -7.5l-352 -240q-17 -9 -5 -29l57 -96q13 -18 35 -9zM24 246l106 103q5 5 10 6.5t8 2t9 -2.5t8 -4.5t9 -6.5t8 -6q115 -138 280 -138q125 0 212.5 68t87.5 161q0 32 -13.5 58t-42 46t-52.5 32.5
t-64 29.5q-68 32 -114.5 57t-94.5 59t-76.5 68.5t-46.5 80t-18 98.5q0 111 70 205.5t189 148.5t258 54q241 0 371 -167q14 -17 16.5 -27t-11.5 -27l-107 -100q-23 -21 -56 9q-99 102 -245 102q-114 0 -188 -56t-74 -138q0 -58 45.5 -98t144.5 -80q43 -20 69 -32.5t65 -35
t63 -41t52.5 -46.5t44 -56t26.5 -65.5t11 -78.5q0 -121 -75 -223t-198.5 -160t-264.5 -58q-74 0 -140 17.5t-109.5 41t-81.5 55t-55 52t-30 39.5q-22 36 -6 53z" />
    <glyph glyph-name="sacute" unicode="&#x15b;" horiz-adv-x="807" 
d="M866 1234q24 10 9 36l-80 139q-5 9 -16.5 9t-20.5 -7l-352 -239q-16 -11 -5 -30l57 -95q13 -18 35 -9zM430 517q130 -34 197 -90.5t67 -150.5q0 -132 -114.5 -211t-279.5 -79q-178 0 -321 108q-19 14 -5 34l76 98q14 16 33 5q122 -71 231 -71q76 0 128.5 31.5t52.5 77.5
q0 40 -33.5 63.5t-107.5 44.5q-117 34 -176.5 90t-59.5 147q0 128 107 205.5t268 77.5q166 0 290 -95q19 -14 5 -33l-80 -101q-14 -16 -33 -5q-92 57 -203 57q-72 0 -119.5 -27t-47.5 -75q0 -38 32 -60.5t93 -40.5z" />
    <glyph glyph-name="Scedilla" unicode="&#x15e;" horiz-adv-x="1072" 
d="M1128 1199q14 -17 16.5 -27t-11.5 -27l-107 -100q-23 -21 -56 9q-99 102 -245 102q-114 0 -188 -56t-74 -138q0 -58 45.5 -98t144.5 -80q43 -20 69 -32.5t65 -35t63 -41t52.5 -46.5t44 -56t26.5 -65.5t11 -78.5q0 -172 -143.5 -297.5t-345.5 -141.5l-84 -101
q74 -4 120.5 -52t46.5 -122q0 -111 -94 -195t-208 -84q-55 0 -96 23.5t-62 59.5q-6 17 9 28l64 49q16 11 26 -2q32 -42 88 -42q60 0 105.5 43t45.5 96q0 36 -22.5 59.5t-65.5 23.5q-52 0 -108 -46q-15 -11 -24 0l-43 45q-8 10 1 22l165 200q-70 10 -130.5 36.5t-100.5 59.5
t-61.5 56.5t-36.5 45.5q-22 36 -6 53l106 103q5 5 10 6.5t8 2t9 -2.5t8 -4.5t9 -6.5t8 -6q115 -138 280 -138q125 0 212.5 68t87.5 161q0 32 -13.5 58t-42 46t-52.5 32.5t-64 29.5q-68 32 -114.5 57t-94.5 59t-76.5 68.5t-46.5 80t-18 98.5q0 111 70 205.5t189 148.5t258 54
q241 0 371 -167z" />
    <glyph glyph-name="scedilla" unicode="&#x15f;" horiz-adv-x="807" 
d="M783 802q19 -14 5 -33l-80 -101q-14 -16 -33 -5q-92 57 -203 57q-72 0 -119.5 -27t-47.5 -75q0 -38 32 -60.5t93 -40.5q130 -34 197 -90.5t67 -150.5q0 -118 -93.5 -194.5t-236.5 -91.5l-83 -101q74 -4 120.5 -52t46.5 -122q0 -111 -94 -195t-208 -84q-110 0 -158 83
q-6 17 9 28l64 49q16 11 26 -2q32 -42 88 -42q60 0 105.5 43t45.5 96q0 36 -22.5 59.5t-65.5 23.5q-52 0 -108 -46q-15 -11 -24 0l-44 45q-7 9 2 22l163 196q-137 17 -248 103q-19 14 -5 34l76 98q14 16 33 5q122 -71 231 -71q76 0 128.5 31.5t52.5 77.5q0 40 -33.5 63.5
t-107.5 44.5q-117 34 -176.5 90t-59.5 147q0 128 107 205.5t268 77.5q166 0 290 -95z" />
    <glyph glyph-name="Scaron" unicode="&#x160;" horiz-adv-x="1072" 
d="M838 1501l354 195q23 10 26 26l28 104q5 18 -6 24t-29 -2l-350 -166l-257 166q-16 8 -29 2t-18 -24l-26 -99q-7 -17 11 -30l249 -196q19 -16 47 0zM24 246l106 103q5 5 10 6.5t8 2t9 -2.5t8 -4.5t9 -6.5t8 -6q115 -138 280 -138q125 0 212.5 68t87.5 161q0 32 -13.5 58
t-42 46t-52.5 32.5t-64 29.5q-68 32 -114.5 57t-94.5 59t-76.5 68.5t-46.5 80t-18 98.5q0 111 70 205.5t189 148.5t258 54q241 0 371 -167q14 -17 16.5 -27t-11.5 -27l-107 -100q-23 -21 -56 9q-99 102 -245 102q-114 0 -188 -56t-74 -138q0 -58 45.5 -98t144.5 -80
q43 -20 69 -32.5t65 -35t63 -41t52.5 -46.5t44 -56t26.5 -65.5t11 -78.5q0 -121 -75 -223t-198.5 -160t-264.5 -58q-74 0 -140 17.5t-109.5 41t-81.5 55t-55 52t-30 39.5q-22 36 -6 53z" />
    <glyph glyph-name="scaron" unicode="&#x161;" horiz-adv-x="807" 
d="M587 1059l354 192q24 14 26 28l27 104q5 18 -5.5 24.5t-28.5 -1.5l-351 -169l-257 169q-16 8 -29 1.5t-18 -24.5l-26 -99q-4 -18 11 -31l250 -194q19 -16 47 0zM430 517q130 -34 197 -90.5t67 -150.5q0 -132 -114.5 -211t-279.5 -79q-178 0 -321 108q-19 14 -5 34l76 98
q14 16 33 5q122 -71 231 -71q76 0 128.5 31.5t52.5 77.5q0 40 -33.5 63.5t-107.5 44.5q-117 34 -176.5 90t-59.5 147q0 128 107 205.5t268 77.5q166 0 290 -95q19 -14 5 -33l-80 -101q-14 -16 -33 -5q-92 57 -203 57q-72 0 -119.5 -27t-47.5 -75q0 -38 32 -60.5t93 -40.5z
" />
    <glyph glyph-name="uni0162" unicode="&#x162;" horiz-adv-x="1062" 
d="M1220 1354q13 0 20 -8.5t3 -21.5l-40 -149q-5 -23 -31 -23h-341l-302 -1129q-5 -23 -29 -23h-16l-88 -108q76 -4 121 -51.5t45 -123.5q0 -110 -94 -194t-208 -84q-56 0 -96.5 23t-61.5 61q-5 15 9 26l64 50q14 10 26 -2q30 -43 89 -43q61 0 106 43.5t45 97.5
q0 36 -22.5 59.5t-66.5 23.5q-46 0 -107 -47q-16 -11 -25 -2l-43 47q-9 10 2 21l166 203h-15q-13 0 -19 8.5t-4 21.5l300 1122h-331q-13 0 -20 8.5t-3 21.5l40 149q4 23 32 23h895z" />
    <glyph glyph-name="uni0163" unicode="&#x163;" horiz-adv-x="699" 
d="M699 885q12 0 18.5 -7t2.5 -19l-40 -149q-5 -19 -26 -19h-151q-23 0 -50 8l-109 -402q-18 -56 -5 -88t65 -32q43 0 94 24q24 12 31 -12l39 -111q5 -25 -23 -38q-85 -47 -174 -52l-81 -99q74 -4 120 -52t46 -122q0 -111 -94 -195t-208 -84q-109 0 -157 83q-6 18 8 28
l64 49q15 11 25 -2q34 -42 88 -42q61 0 106 43t45 96q0 36 -22 59.5t-65 23.5q-51 0 -107 -46q-17 -9 -24 0l-44 45q-7 9 2 22l170 205h2q-84 27 -116 105t-2 192l107 394h-102q-13 0 -19 7t-2 19l16 57q4 16 17 26q107 60 174.5 129t157.5 211q10 14 29 14h45q13 0 19 -7
t2 -19l-66 -243h194z" />
    <glyph glyph-name="Tcaron" unicode="&#x164;" horiz-adv-x="1062" 
d="M1218 1874q18 8 29 2t6 -24l-28 -104q-2 -14 -26 -28l-354 -193q-28 -16 -47 0l-250 195q-14 13 -10 31l26 99q5 18 18 24t29 -2l257 -168zM1220 1354q13 0 20 -8.5t3 -21.5l-40 -149q-5 -23 -31 -23h-341l-302 -1129q-5 -23 -29 -23h-170q-13 0 -19 8.5t-4 21.5
l300 1122h-331q-13 0 -20 8.5t-3 21.5l40 149q4 23 32 23h895z" />
    <glyph glyph-name="tcaron" unicode="&#x165;" horiz-adv-x="841" 
d="M750 911q-16 -5 -19.5 -3t-11.5 15l-14 25q-10 16 10 27q96 63 137 139q-8 -3 -24 -3q-42 0 -74 34t-32 82q0 60 45 102t103 42q53 0 87 -33.5t34 -91.5q0 -87 -73.5 -183.5t-167.5 -151.5zM340 -14q-135 0 -192.5 84t-20.5 227l107 394h-102q-13 0 -19 7t-2 19l16 57
q4 16 17 26q107 60 174.5 129t157.5 211q10 14 29 14h45q13 0 19 -7t2 -19l-66 -243h194q12 0 18.5 -7t2.5 -19l-40 -149q-5 -19 -26 -19h-151q-23 0 -50 8l-109 -402q-18 -56 -5 -88t65 -32q43 0 94 24q24 12 31 -12l39 -111q5 -25 -23 -38q-100 -54 -205 -54z" />
    <glyph glyph-name="Tbar" unicode="&#x166;" horiz-adv-x="1062" 
d="M1220 1354q13 0 20 -8.5t3 -21.5l-40 -149q-5 -23 -31 -23h-341l-71 -267h335q13 0 20 -8t3 -21l-40 -150q-5 -22 -31 -22h-341l-177 -661q-5 -23 -29 -23h-170q-13 0 -19 8.5t-4 21.5l175 654h-331q-13 0 -20 8t-3 21l40 150q7 22 32 22h336l71 267h-331q-13 0 -20 8.5
t-3 21.5l40 149q4 23 32 23h895z" />
    <glyph glyph-name="tbar" unicode="&#x167;" horiz-adv-x="699" 
d="M699 885q12 0 18.5 -7t2.5 -19l-40 -149q-5 -19 -26 -19h-151q-23 0 -50 8l-36 -135h203q22 0 17 -21l-17 -64q-5 -19 -30 -19h-201l-45 -163q-18 -56 -5 -88t65 -32q43 0 94 24q24 12 31 -12l39 -111q5 -25 -23 -38q-100 -54 -205 -54q-135 0 -192.5 84t-20.5 227
l45 163h-103q-20 0 -17 19l17 64q5 21 30 21h101l34 127h-102q-13 0 -19 7t-2 19l16 57q4 16 17 26q107 60 174.5 129t157.5 211q10 14 29 14h45q13 0 19 -7t2 -19l-66 -243h194z" />
    <glyph glyph-name="Utilde" unicode="&#x168;" horiz-adv-x="1325" 
d="M1170 1546q-46 0 -88 17.5t-69 39t-66.5 39t-82.5 17.5q-16 0 -30 -2t-27.5 -8t-22 -10t-21 -14t-16.5 -13t-16 -14l-12 -12q-17 -14 -32 2l-62 71q-15 16 2 35q1 1 12 15.5t19 23.5t23 24.5t31.5 26t37 21t46 16t53.5 5.5q41 0 76.5 -11.5t61 -28t50 -33.5t54 -28.5
t61.5 -11.5q16 0 30.5 2.5t28 8t22.5 9.5t20.5 13.5t16.5 13.5t16 14.5t12 11.5q16 16 31 0l63 -73q15 -16 -2 -35q-2 -2 -12 -16t-18.5 -23t-23.5 -24.5t-31 -26t-36.5 -21t-45.5 -16t-53 -5.5zM1423 1354q14 0 20.5 -8.5t2.5 -21.5l-224 -829q-28 -105 -85.5 -196
t-140.5 -161t-196 -110t-241 -40q-108 0 -193 28.5t-137 77.5t-82.5 116t-30 144t20.5 161l217 816q5 23 31 23h169q13 0 19.5 -8.5t2.5 -21.5l-212 -786q-44 -165 19.5 -251.5t204.5 -86.5q151 0 268 96t163 265l206 770q5 23 30 23h168z" />
    <glyph glyph-name="utilde" unicode="&#x169;" 
d="M1086 1244q13 -14 -1 -34q-1 -1 -12 -15.5t-19 -23.5t-23 -24.5t-31.5 -26t-37 -21t-46 -16t-53.5 -5.5q-46 0 -88 17.5t-68.5 39t-65.5 39t-82 17.5q-36 0 -68.5 -15t-44 -25.5t-33.5 -32.5q-18 -15 -33 1l-62 72q-13 14 1 34q1 1 12 15.5t19 23t23.5 24.5t31.5 26
t37 21t46.5 16.5t53.5 5.5q42 0 78 -11.5t61.5 -28.5t49.5 -33.5t53 -28t61 -11.5q19 0 36.5 4t29.5 8.5t26.5 14.5t21 15t19 17t15.5 14q15 16 31 0zM1045 885q26 0 21 -26l-224 -838q-4 -21 -28 -21h-167q-12 0 -18 7t-2 19l26 95q-149 -133 -320 -133q-144 0 -217.5 91.5
t-32.5 245.5l94 355q11 42 15.5 73.5t5.5 56.5t2 35q1 23 15.5 31.5t43.5 8.5h105q36 0 52 -28t7 -64l-118 -439q-22 -82 16.5 -128.5t121.5 -46.5q77 0 146.5 39t115.5 98l145 548q4 21 26 21h169z" />
    <glyph glyph-name="Umacron" unicode="&#x16a;" horiz-adv-x="1325" 
d="M715 1782q8 26 33 26h562q27 0 19 -26l-34 -126q-2 -12 -11.5 -20t-21.5 -8h-561q-26 0 -21 26zM1423 1354q14 0 20.5 -8.5t2.5 -21.5l-224 -829q-28 -105 -85.5 -196t-140.5 -161t-196 -110t-241 -40q-108 0 -193 28.5t-137 77.5t-82.5 116t-30 144t20.5 161l217 816
q5 23 31 23h169q13 0 19.5 -8.5t2.5 -21.5l-212 -786q-44 -165 19.5 -251.5t204.5 -86.5q151 0 268 96t163 265l206 770q5 23 30 23h168z" />
    <glyph glyph-name="umacron" unicode="&#x16b;" 
d="M396 1159q-26 0 -21 26l35 129q5 26 33 26h560q26 0 21 -26l-35 -127q-9 -28 -33 -28h-560zM1045 885q26 0 21 -26l-224 -838q-4 -21 -28 -21h-167q-12 0 -18 7t-2 19l26 95q-149 -133 -320 -133q-144 0 -217.5 91.5t-32.5 245.5l94 355q11 42 15.5 73.5t5.5 56.5t2 35
q1 23 15.5 31.5t43.5 8.5h105q36 0 52 -28t7 -64l-118 -439q-22 -82 16.5 -128.5t121.5 -46.5q77 0 146.5 39t115.5 98l145 548q4 21 26 21h169z" />
    <glyph glyph-name="Ubreve" unicode="&#x16c;" horiz-adv-x="1325" 
d="M963 1498q-142 0 -219 82t-46 206q8 36 33 36h93q18 0 18 -31q-12 -69 27.5 -109t111.5 -40q73 0 132.5 40t85.5 109q16 31 35 31h99q27 0 16 -36q-44 -135 -148 -211.5t-238 -76.5zM1423 1354q14 0 20.5 -8.5t2.5 -21.5l-224 -829q-28 -105 -85.5 -196t-140.5 -161
t-196 -110t-241 -40q-108 0 -193 28.5t-137 77.5t-82.5 116t-30 144t20.5 161l217 816q5 23 31 23h169q13 0 19.5 -8.5t2.5 -21.5l-212 -786q-44 -165 19.5 -251.5t204.5 -86.5q151 0 268 96t163 265l206 770q5 23 30 23h168z" />
    <glyph glyph-name="ubreve" unicode="&#x16d;" 
d="M656 1029q-141 0 -218 82t-46 206q8 37 33 37h94q11 0 14 -7t3 -24q-14 -69 26 -109.5t113 -40.5q72 0 132.5 40.5t86.5 109.5q15 31 35 31h98q27 0 16 -37q-44 -135 -148 -211.5t-239 -76.5zM1045 885q26 0 21 -26l-224 -838q-4 -21 -28 -21h-167q-12 0 -18 7t-2 19
l26 95q-149 -133 -320 -133q-144 0 -217.5 91.5t-32.5 245.5l94 355q11 42 15.5 73.5t5.5 56.5t2 35q1 23 15.5 31.5t43.5 8.5h105q36 0 52 -28t7 -64l-118 -439q-22 -82 16.5 -128.5t121.5 -46.5q77 0 146.5 39t115.5 98l145 548q4 21 26 21h169z" />
    <glyph glyph-name="Uring" unicode="&#x16e;" horiz-adv-x="1325" 
d="M939 1463q-68 0 -109.5 41.5t-41.5 106.5q0 95 77.5 168t174.5 73q67 0 108 -41t41 -107q0 -96 -76.5 -168.5t-173.5 -72.5zM967 1567q46 0 82 35t36 80q0 31 -19.5 49t-51.5 18q-44 0 -82 -34.5t-38 -79.5q0 -30 20.5 -49t52.5 -19zM1423 1354q14 0 20.5 -8.5t2.5 -21.5
l-224 -829q-28 -105 -85.5 -196t-140.5 -161t-196 -110t-241 -40q-108 0 -193 28.5t-137 77.5t-82.5 116t-30 144t20.5 161l217 816q5 23 31 23h169q13 0 19.5 -8.5t2.5 -21.5l-212 -786q-44 -165 19.5 -251.5t204.5 -86.5q151 0 268 96t163 265l206 770q5 23 30 23h168z
" />
    <glyph glyph-name="uring" unicode="&#x16f;" 
d="M633 994q-68 0 -109.5 41.5t-41.5 106.5q0 95 77 168t175 73q67 0 108 -41t41 -106q0 -96 -77 -169t-173 -73zM706 1281q-43 0 -80.5 -35t-37.5 -80q0 -30 20.5 -48.5t52.5 -18.5q46 0 82 34.5t36 79.5q0 31 -20.5 49.5t-52.5 18.5zM1045 885q26 0 21 -26l-224 -838
q-4 -21 -28 -21h-167q-12 0 -18 7t-2 19l26 95q-149 -133 -320 -133q-144 0 -217.5 91.5t-32.5 245.5l94 355q11 42 15.5 73.5t5.5 56.5t2 35q1 23 15.5 31.5t43.5 8.5h105q36 0 52 -28t7 -64l-118 -439q-22 -82 16.5 -128.5t121.5 -46.5q77 0 146.5 39t115.5 98l145 548
q4 21 26 21h169z" />
    <glyph glyph-name="Uhungarumlaut" unicode="&#x170;" horiz-adv-x="1325" 
d="M687 1569q-11 0 -16 7t-3 17l118 328q5 26 31 26h153q12 0 18 -7t1 -19l-149 -328q-9 -24 -29 -24h-124zM1060 1569q-10 0 -15.5 7t-1.5 17l116 328q8 26 32 26h154q27 0 19 -26l-149 -328q-12 -24 -31 -24h-124zM1423 1354q14 0 20.5 -8.5t2.5 -21.5l-224 -829
q-28 -105 -85.5 -196t-140.5 -161t-196 -110t-241 -40q-108 0 -193 28.5t-137 77.5t-82.5 116t-30 144t20.5 161l217 816q5 23 31 23h169q13 0 19.5 -8.5t2.5 -21.5l-212 -786q-44 -165 19.5 -251.5t204.5 -86.5q151 0 268 96t163 265l206 770q5 23 30 23h168z" />
    <glyph glyph-name="uhungarumlaut" unicode="&#x171;" 
d="M382 1100q-11 0 -17 7.5t-2 17.5l116 328q8 26 31 26h155q12 0 18 -7t1 -19l-149 -328q-13 -25 -32 -25h-121zM755 1100q-10 0 -15.5 7t-3.5 18l118 328q5 26 31 26h155q11 0 16.5 -7.5t0.5 -18.5l-148 -328q-13 -25 -31 -25h-123zM1045 885q26 0 21 -26l-224 -838
q-4 -21 -28 -21h-167q-12 0 -18 7t-2 19l26 95q-149 -133 -320 -133q-144 0 -217.5 91.5t-32.5 245.5l94 355q11 42 15.5 73.5t5.5 56.5t2 35q1 23 15.5 31.5t43.5 8.5h105q36 0 52 -28t7 -64l-118 -439q-22 -82 16.5 -128.5t121.5 -46.5q77 0 146.5 39t115.5 98l145 548
q4 21 26 21h169z" />
    <glyph glyph-name="Uogonek" unicode="&#x172;" horiz-adv-x="1325" 
d="M1423 1354q14 0 20.5 -8.5t2.5 -21.5l-224 -829q-28 -105 -85.5 -196t-140.5 -161t-196 -110t-241 -40h-4q-128 -11 -221 -74t-93 -150q0 -78 94 -78q53 0 125 33q14 5 23.5 -0.5t5.5 -18.5l-20 -82q-6 -17 -28 -29q-95 -56 -195 -56q-82 0 -130 39t-48 109t50 136
t126.5 112.5t166.5 73.5q-93 22 -159 72t-97.5 117.5t-37.5 151t20 171.5l217 816q5 23 31 23h169q13 0 19.5 -8.5t2.5 -21.5l-212 -786q-44 -165 19.5 -251.5t204.5 -86.5q151 0 268 96t163 265l206 770q5 23 30 23h168z" />
    <glyph glyph-name="uogonek" unicode="&#x173;" 
d="M1045 885q26 0 21 -26l-224 -838q-4 -21 -28 -21h-73q-128 -11 -221 -74t-93 -150q0 -78 94 -78q53 0 125 33q14 5 23.5 -0.5t5.5 -18.5l-21 -82q-6 -17 -27 -29q-95 -56 -195 -56q-82 0 -130.5 39t-48.5 109q0 73 56 142.5t139.5 117t178.5 70.5v3l26 95
q-149 -133 -320 -133q-144 0 -217.5 91.5t-32.5 245.5l94 355q11 42 15.5 73.5t5.5 56.5t2 35q1 23 15.5 31.5t43.5 8.5h105q36 0 52 -28t7 -64l-118 -439q-22 -82 16.5 -128.5t121.5 -46.5q77 0 146.5 39t115.5 98l145 548q4 21 26 21h169z" />
    <glyph glyph-name="Wcircumflex" unicode="&#x174;" horiz-adv-x="2080" 
d="M1416 1871l-354 -193q-23 -13 -26 -27l-26 -105q-5 -18 5.5 -24t27.5 2l352 168l256 -168q16 -8 28.5 -2t17.5 24l28 99q4 18 -12 32l-250 194q-17 17 -47 0zM371 0q-23 0 -26 26l-67 1300q-3 28 26 28h173q28 0 28 -26l37 -967l617 975q9 18 32 18h171q25 0 28 -26
l92 -967l559 975q11 18 31 18h186q15 0 20.5 -9.5t-1.5 -21.5l-760 -1306q-12 -17 -31 -17h-139q-25 0 -28 26l-106 1041l-673 -1050q-10 -17 -30 -17h-139z" />
    <glyph glyph-name="wcircumflex" unicode="&#x175;" horiz-adv-x="1424" 
d="M965 1402l-354 -192q-24 -12 -28 -28l-26 -104q-5 -18 6 -24.5t29 1.5l350 169l257 -169q14 -8 27.5 -1.5t17.5 24.5l28 99q4 17 -12 31l-248 194q-19 16 -47 0zM219 0q-22 0 -25 23l-43 838q0 24 24 24h150q24 0 24 -24l14 -590h7l349 597q10 17 29 17h151q21 0 24 -22
l25 -592h7l340 597q7 17 29 17h155q14 0 19 -8t-2 -21l-496 -839q-7 -17 -28 -17h-155q-21 0 -24 23l-28 604l-362 -611q-9 -16 -28 -16h-156z" />
    <glyph glyph-name="Ycircumflex" unicode="&#x176;" horiz-adv-x="1282" 
d="M644 1524q-18 -8 -29 -2t-6 24l26 105q4 15 28 27l354 193q28 17 45 0l250 -194q16 -14 12 -32l-28 -99q-5 -18 -17.5 -24t-28.5 2l-256 168zM1461 1354q17 0 21 -10t-7 -23l-699 -785l-137 -513q-8 -23 -32 -23h-168q-13 0 -19.5 8.5t-2.5 21.5l135 510l-273 784
q-4 13 2 21.5t19 8.5h182q26 0 30 -23l203 -578l521 587q13 14 33 14h192z" />
    <glyph glyph-name="ycircumflex" unicode="&#x177;" horiz-adv-x="978" 
d="M743 1402l-354 -192q-23 -12 -26 -28l-28 -104q-5 -18 6 -24.5t29 1.5l350 169l257 -169q16 -8 29 -1.5t18 24.5l26 99q4 17 -12 31l-248 194q-19 16 -47 0zM73 -347q-14 0 -19 8.5t3 20.5l219 339l-123 840q-3 24 22 24h155q23 0 26 -22l83 -594h7l392 599q7 17 30 17
h166q14 0 18.5 -8.5t-2.5 -20.5l-793 -1187q-11 -16 -30 -16h-154z" />
    <glyph glyph-name="Ydieresis" unicode="&#x178;" horiz-adv-x="1282" 
d="M769 1630q-43 0 -73.5 31.5t-30.5 74.5t30.5 72.5t73.5 29.5t73.5 -29.5t30.5 -72.5t-30.5 -74.5t-73.5 -31.5zM1205 1630q-43 0 -74 31.5t-31 74.5q0 42 31 72t74 30q42 0 73 -30t31 -72q0 -43 -31 -74.5t-73 -31.5zM1461 1354q17 0 21 -10t-7 -23l-699 -785l-137 -513
q-8 -23 -32 -23h-168q-13 0 -19.5 8.5t-2.5 21.5l135 510l-273 784q-4 13 2 21.5t19 8.5h182q26 0 30 -23l203 -578l521 587q13 14 33 14h192z" />
    <glyph glyph-name="Zacute" unicode="&#x179;" horiz-adv-x="1089" 
d="M1144 1703q24 9 8 36l-78 139q-7 9 -18 9t-20 -7l-350 -240q-18 -10 -7 -29l59 -96q10 -18 34 -9zM-38 0q-29 0 -24 30l5 20q2 13 14 30l958 1072h-629q-13 0 -18.5 8.5t-1.5 21.5l39 149q4 23 30 23h920q13 0 19.5 -8.5t2.5 -21.5l-3 -21q-3 -12 -16 -29l-958 -1073h629
q13 0 19.5 -8t2.5 -21l-40 -149q-4 -23 -29 -23h-920z" />
    <glyph glyph-name="zacute" unicode="&#x17a;" horiz-adv-x="834" 
d="M885 1234q24 10 9 36l-78 139q-7 9 -18 9t-20 -7l-351 -239q-7 -4 -9.5 -12.5t2.5 -17.5l57 -95q13 -18 37 -9zM179 691q-13 0 -19 7t-2 19l38 147q4 21 28 21h644q26 0 21 -26l-7 -35l-589 -630h373q13 0 19 -7t2 -19l-38 -147q-5 -21 -28 -21h-654q-26 0 -21 26l7 35
l592 630h-366z" />
    <glyph glyph-name="Zdotaccent" unicode="&#x17b;" horiz-adv-x="1089" 
d="M896 1609q-48 0 -81.5 33.5t-33.5 80.5t33.5 81t81.5 34q46 0 80 -34t34 -81t-34 -80.5t-80 -33.5zM-38 0q-29 0 -24 30l5 20q2 13 14 30l958 1072h-629q-13 0 -18.5 8.5t-1.5 21.5l39 149q4 23 30 23h920q13 0 19.5 -8.5t2.5 -21.5l-3 -21q-3 -12 -16 -29l-958 -1073
h629q13 0 19.5 -8t2.5 -21l-40 -149q-4 -23 -29 -23h-920z" />
    <glyph glyph-name="zdotaccent" unicode="&#x17c;" horiz-adv-x="834" 
d="M637 1140q-48 0 -81.5 34t-33.5 81t33.5 80.5t81.5 33.5q46 0 79.5 -33.5t33.5 -80.5t-33.5 -81t-79.5 -34zM179 691q-13 0 -19 7t-2 19l38 147q4 21 28 21h644q26 0 21 -26l-7 -35l-589 -630h373q13 0 19 -7t2 -19l-38 -147q-5 -21 -28 -21h-654q-26 0 -21 26l7 35
l592 630h-366z" />
    <glyph glyph-name="Zcaron" unicode="&#x17d;" horiz-adv-x="1089" 
d="M864 1527l354 193q23 12 26 28l28 104q5 18 -6 24t-29 -2l-350 -168l-257 168q-14 8 -28 2t-19 -24l-26 -99q-4 -17 12 -31l248 -195q19 -16 47 0zM-38 0q-29 0 -24 30l5 20q2 13 14 30l958 1072h-629q-13 0 -18.5 8.5t-1.5 21.5l39 149q4 23 30 23h920q13 0 19.5 -8.5
t2.5 -21.5l-3 -21q-3 -12 -16 -29l-958 -1073h629q13 0 19.5 -8t2.5 -21l-40 -149q-4 -23 -29 -23h-920z" />
    <glyph glyph-name="zcaron" unicode="&#x17e;" horiz-adv-x="834" 
d="M606 1059l354 192q23 12 26 28l28 104q5 18 -6 24.5t-29 -1.5l-351 -169l-257 169q-14 8 -27.5 1.5t-18.5 -24.5l-26 -99q-4 -17 12 -31l248 -194q19 -16 47 0zM179 691q-13 0 -19 7t-2 19l38 147q4 21 28 21h644q26 0 21 -26l-7 -35l-589 -630h373q13 0 19 -7t2 -19
l-38 -147q-5 -21 -28 -21h-654q-26 0 -21 26l7 35l592 630h-366z" />
    <glyph glyph-name="florin" unicode="&#x192;" horiz-adv-x="728" 
d="M981 1316q33 -31 12 -52l-77 -89q-20 -20 -40 -5q-46 35 -98 35q-68 0 -128.5 -44t-85.5 -137l-36 -139h203q13 0 19 -7t2 -19l-39 -149q-8 -19 -27 -19h-210l-191 -714q-43 -157 -152 -240.5t-246 -83.5q-139 0 -224 81q-32 32 -12 53l78 88q19 22 38 5q45 -34 99 -34
q69 0 130 43.5t86 136.5l177 665h-103q-26 0 -21 26l40 147q5 21 28 21h108l50 188q41 157 149.5 240.5t247.5 83.5q138 0 223 -81z" />
    <glyph glyph-name="uni01CD" unicode="&#x1cd;" horiz-adv-x="1423" 
d="M1402 1909q18 8 29 2t6 -24l-28 -105q-3 -15 -26 -27l-354 -193q-28 -16 -47 0l-248 194q-16 14 -12 32l26 99q5 18 18 24t29 -2l257 -168zM1026 1329l244 -1299q5 -30 -20 -30h-164q-22 0 -27 28l-33 170h-721l-126 -177q-13 -21 -33 -21h-200q-15 0 -19.5 10t5.5 23
l944 1303q14 18 32 18h92q23 0 26 -25zM436 378h557l-117 615z" />
    <glyph glyph-name="uni01CE" unicode="&#x1ce;" horiz-adv-x="1015" 
d="M1102 1406q17 8 27.5 1.5t5.5 -24.5l-26 -104q-4 -15 -26 -28l-354 -192q-31 -16 -47 0l-250 194q-16 14 -12 31l28 99q5 18 18 24.5t29 -1.5l255 -169zM1078 885q13 0 19 -7t2 -19l-223 -838q-8 -21 -27 -21h-167q-13 0 -19 7t-2 19l28 106q-146 -146 -328 -146
q-144 0 -231 91.5t-87 245.5q0 107 42.5 211.5t113 184.5t168.5 129t202 49q101 0 172.5 -45.5t105.5 -126.5l36 139q5 21 28 21h167zM441 170q91 0 170.5 52t124.5 132.5t45 166.5q0 88 -52 140t-141 52q-138 0 -240 -109t-102 -243q0 -88 51 -139.5t144 -51.5z" />
    <glyph glyph-name="uni01CF" unicode="&#x1cf;" horiz-adv-x="473" 
d="M482 1543l355 193q23 13 26 27l26 104q5 18 -5.5 24.5t-27.5 -1.5l-353 -168l-255 168q-16 8 -29 1.5t-18 -24.5l-27 -98q-4 -18 12 -32l250 -194q17 -17 46 0zM36 0q-12 0 -18 8.5t-4 21.5l349 1301q5 23 31 23h168q13 0 20 -8.5t3 -21.5l-349 -1301q-5 -23 -29 -23
h-171z" />
    <glyph glyph-name="uni01D0" unicode="&#x1d0;" horiz-adv-x="433" 
d="M406 1059l354 192q22 13 26 28l26 104q5 18 -5.5 24.5t-27.5 -1.5l-352 -169l-255 169q-16 8 -29 1.5t-18 -24.5l-28 -99q-4 -17 12 -31l250 -194q16 -16 47 0zM19 0q-13 0 -19 7t-2 19l222 838q4 21 28 21h167q13 0 19 -7t2 -19l-223 -838q-7 -21 -27 -21h-167z" />
    <glyph glyph-name="uni01D1" unicode="&#x1d1;" horiz-adv-x="1541" 
d="M1041 1527l354 193q22 13 26 28l26 104q5 18 -5.5 24t-28.5 -2l-351 -168l-255 168q-16 8 -29 2t-18 -24l-28 -99q-3 -16 13 -31l249 -195q16 -16 47 0zM666 -12q-251 0 -399.5 146.5t-148.5 380.5q0 130 47 257.5t131 233t193.5 187.5t242.5 127.5t269 45.5
q252 0 400.5 -147t148.5 -382q0 -162 -74 -318t-194.5 -272.5t-283.5 -187.5t-332 -71zM706 205q119 0 233.5 50.5t198 132.5t134.5 190.5t51 219.5q0 159 -96 255t-265 96q-159 0 -302.5 -85t-229 -222.5t-85.5 -287.5q0 -158 96.5 -253.5t264.5 -95.5z" />
    <glyph glyph-name="uni01D2" unicode="&#x1d2;" horiz-adv-x="1046" 
d="M705 1033l354 192q23 12 26 28l28 104q5 18 -6 24.5t-29 -1.5l-351 -169l-257 169q-14 8 -28 1.5t-19 -24.5l-26 -99q-3 -16 13 -31l248 -194q19 -16 47 0zM422 -14q-170 0 -273.5 95.5t-103.5 256.5q0 145 80 274.5t214.5 207t285.5 77.5q171 0 273.5 -95t102.5 -257
q0 -147 -79 -276t-213 -206t-287 -77zM448 170q141 0 246.5 107t105.5 240q0 89 -53 142.5t-146 53.5q-141 0 -247 -106t-106 -239q0 -90 53 -144t147 -54z" />
    <glyph glyph-name="uni01D3" unicode="&#x1d3;" horiz-adv-x="1325" 
d="M977 1527l354 193q23 12 26 28l28 104q5 18 -6 24t-29 -2l-350 -168l-257 168q-16 8 -29 2t-18 -24l-26 -99q-4 -17 12 -31l248 -195q19 -16 47 0zM1423 1354q14 0 20.5 -8.5t2.5 -21.5l-224 -829q-28 -105 -85.5 -196t-140.5 -161t-196 -110t-241 -40q-108 0 -193 28.5
t-137 77.5t-82.5 116t-30 144t20.5 161l217 816q5 23 31 23h169q13 0 19.5 -8.5t2.5 -21.5l-212 -786q-44 -165 19.5 -251.5t204.5 -86.5q151 0 268 96t163 265l206 770q5 23 30 23h168z" />
    <glyph glyph-name="uni01D4" unicode="&#x1d4;" 
d="M1045 1406q18 8 29 1.5t6 -24.5l-28 -104q-4 -15 -26 -28l-354 -192q-28 -16 -47 0l-250 194q-17 15 -11 31l27 99q11 39 46 23l257 -169zM1045 885q26 0 21 -26l-224 -838q-4 -21 -28 -21h-167q-12 0 -18 7t-2 19l26 95q-149 -133 -320 -133q-144 0 -217.5 91.5
t-32.5 245.5l94 355q11 42 15.5 73.5t5.5 56.5t2 35q1 23 15.5 31.5t43.5 8.5h105q36 0 52 -28t7 -64l-118 -439q-22 -82 16.5 -128.5t121.5 -46.5q77 0 146.5 39t115.5 98l145 548q4 21 26 21h169z" />
    <glyph glyph-name="Gcaron" unicode="&#x1e6;" horiz-adv-x="1417" 
d="M760 1697q-16 14 -12 32l26 99q5 18 18 24t29 -2l257 -168l350 168q18 8 29 2t6 -24l-28 -105q-3 -15 -26 -27l-354 -193q-28 -16 -47 0zM1458 1145q10 -18 10.5 -26t-12.5 -19l-135 -86q-22 -14 -51 12q-109 123 -286 123q-96 0 -191 -31.5t-175 -88.5t-142 -130.5
t-97 -163.5t-35 -181q0 -153 95.5 -251t272.5 -98q110 0 210 38t175 95l57 209h-305q-13 0 -20 8t-3 21l38 143q4 22 32 22h473q13 0 19 -8t4 -21l-137 -504q-257 -220 -578 -220q-254 0 -406.5 144.5t-152.5 384.5q0 163 74 319.5t195 272t285 186.5t335 71
q153 0 272 -60.5t179 -160.5z" />
    <glyph glyph-name="gcaron" unicode="&#x1e7;" horiz-adv-x="1004" 
d="M1073 1395q18 8 28.5 2t5.5 -24l-27 -104q-3 -16 -26 -28l-355 -193q-27 -16 -46 0l-249 196q-16 11 -12 30l26 99q5 18 18 24t29 -2l257 -168zM1080 885q12 0 18 -7t2 -19l-225 -840q-29 -108 -84.5 -189t-127 -127t-149.5 -68t-163 -22q-103 0 -197 25.5t-156 76.5
q-18 16 -5 33l71 103q12 16 30 7q50 -33 118.5 -49.5t131.5 -16.5q117 0 202.5 64.5t121.5 193.5l23 82q-148 -146 -330 -146q-144 0 -231 91.5t-87 245.5q0 107 42.5 211.5t113 184.5t168.5 129t202 49q103 0 174 -46t104 -129l38 142q5 21 28 21h167zM444 170
q90 0 168.5 51t122.5 130.5t44 165.5q0 90 -52 143t-142 53t-169 -51.5t-123.5 -131.5t-44.5 -166q0 -90 51 -142t145 -52z" />
    <glyph glyph-name="uni0218" unicode="&#x218;" horiz-adv-x="1070" 
d="M24 246l106 103q5 5 10 6.5t8 2t9 -2.5t8 -4.5t9 -6.5t8 -6q115 -138 280 -138q125 0 212.5 68t87.5 161q0 32 -13.5 58t-42 46t-52.5 32.5t-64 29.5q-68 32 -114.5 57t-94.5 59t-76.5 68.5t-46.5 80t-18 98.5q0 111 70 205.5t189 148.5t258 54q241 0 371 -167
q14 -17 16.5 -27t-11.5 -27l-107 -100q-23 -21 -56 9q-99 102 -245 102q-114 0 -188 -56t-74 -138q0 -58 45.5 -98t144.5 -80q43 -20 69 -32.5t65 -35t63 -41t52.5 -46.5t44 -56t26.5 -65.5t11 -78.5q0 -121 -75 -223t-198.5 -160t-264.5 -58q-74 0 -140 17.5t-109.5 41
t-81.5 55t-55 52t-30 39.5q-22 36 -6 53zM227 -618q-14 -6 -18.5 -3.5t-12.5 14.5l-14 24q-7 15 11 29q100 66 137 137q-2 -1 -25 -1q-42 0 -73.5 33t-31.5 81q0 60 44.5 102t104.5 42q51 0 85.5 -33.5t34.5 -91.5q0 -87 -74 -183.5t-168 -149.5z" />
    <glyph glyph-name="uni0219" unicode="&#x219;" horiz-adv-x="807" 
d="M430 517q130 -34 197 -90.5t67 -150.5q0 -132 -114.5 -211t-279.5 -79q-178 0 -321 108q-19 14 -5 34l76 98q14 16 33 5q122 -71 231 -71q76 0 128.5 31.5t52.5 77.5q0 40 -33.5 63.5t-107.5 44.5q-117 34 -176.5 90t-59.5 147q0 128 107 205.5t268 77.5q166 0 290 -95
q19 -14 5 -33l-80 -101q-14 -16 -33 -5q-92 57 -203 57q-72 0 -119.5 -27t-47.5 -75q0 -38 32 -60.5t93 -40.5zM97 -618q-16 -5 -19.5 -3.5t-11.5 14.5l-14 24q-9 14 10 29q97 64 138 137q-2 -1 -25 -1q-42 0 -74 33t-32 81q0 60 45 102t103 42q53 0 87 -33.5t34 -91.5
q0 -88 -74 -184t-167 -149z" />
    <glyph glyph-name="uni021A" unicode="&#x21a;" horiz-adv-x="1060" 
d="M1220 1354q13 0 20 -8.5t3 -21.5l-40 -149q-5 -23 -31 -23h-341l-302 -1129q-5 -23 -29 -23h-170q-13 0 -19 8.5t-4 21.5l300 1122h-331q-13 0 -20 8.5t-3 21.5l40 149q4 23 32 23h895zM333 -156q51 0 85.5 -33.5t34.5 -91.5q0 -87 -73.5 -183.5t-167.5 -151.5
q-18 -10 -30 10l-15 26q-9 18 12 28q99 67 135 139q-10 -4 -24 -4q-42 0 -74 34.5t-32 82.5q0 60 44.5 102t104.5 42z" />
    <glyph glyph-name="uni021B" unicode="&#x21b;" horiz-adv-x="699" 
d="M340 -14q-135 0 -192.5 84t-20.5 227l107 394h-102q-13 0 -19 7t-2 19l16 57q4 16 17 26q107 60 174.5 129t157.5 211q10 14 29 14h45q13 0 19 -7t2 -19l-66 -243h194q12 0 18.5 -7t2.5 -19l-40 -149q-5 -19 -26 -19h-151q-23 0 -50 8l-109 -402q-18 -56 -5 -88t65 -32
q43 0 94 24q24 12 31 -12l39 -111q5 -25 -23 -38q-100 -54 -205 -54zM106 -618q-16 -5 -19.5 -3.5t-11.5 14.5l-14 24q-9 14 10 29q95 63 137 137q-3 -1 -24 -1q-42 0 -75 33t-33 81q0 60 45.5 102t104.5 42q53 0 87 -33.5t34 -91.5q0 -88 -74 -184t-167 -149z" />
    <glyph glyph-name="uni0229" unicode="&#x229;" horiz-adv-x="987" 
d="M606 897q179 0 269.5 -107.5t70.5 -268.5q-2 -76 -45 -117t-125 -41h-530q3 -87 55 -145t164 -58q135 0 247 83q32 14 48 -14l35 -71q14 -22 -11 -43q-116 -99 -274 -122l-85 -104q74 -4 120.5 -52t46.5 -122q0 -111 -94 -195t-208 -84q-55 0 -96 23.5t-62 59.5
q-6 17 9 28l64 49q16 11 26 -2q32 -42 88 -42q60 0 105.5 43t45.5 96q0 36 -22.5 59.5t-65.5 23.5q-52 0 -108 -46q-15 -11 -24 0l-43 45q-8 10 1 22l162 195q-152 14 -238.5 106t-86.5 242q0 143 74.5 271.5t205 208t281.5 79.5zM581 720q-100 0 -182.5 -58.5
t-122.5 -151.5h482q8 89 -35.5 149.5t-141.5 60.5z" />
    <glyph glyph-name="uni0237" unicode="&#x237;" horiz-adv-x="428" 
d="M-94 -391q-15 -7 -27 -0.5t-16 21.5l-42 163q-7 34 21 42q59 21 94 54.5t50 91.5l236 883q4 21 28 21h167q25 0 20 -26l-239 -892q-40 -149 -103.5 -229.5t-188.5 -128.5z" />
    <glyph glyph-name="circumflex" unicode="&#x2c6;" horiz-adv-x="862" 
d="M666 1402l-354 -192q-23 -12 -26 -28l-27 -104q-5 -18 5.5 -24.5t28.5 1.5l351 169l257 -169q16 -8 29 -1.5t18 24.5l26 99q4 17 -12 31l-249 194q-19 16 -47 0z" />
    <glyph glyph-name="caron" unicode="&#x2c7;" horiz-adv-x="862" 
d="M620 1059l354 192q23 12 26 28l27 104q5 18 -5.5 24.5t-28.5 -1.5l-351 -169l-257 169q-16 8 -29 1.5t-18 -24.5l-26 -99q-3 -16 13 -31l248 -194q19 -16 47 0z" />
    <glyph glyph-name="breve" unicode="&#x2d8;" horiz-adv-x="824" 
d="M587 1029q-142 0 -219.5 82t-46.5 206q8 37 33 37h94q11 0 14 -7t3 -24q-14 -69 26 -109.5t113 -40.5t133 40.5t86 109.5q15 31 34 31h99q27 0 16 -37q-44 -135 -147.5 -211.5t-237.5 -76.5z" />
    <glyph glyph-name="dotaccent" unicode="&#x2d9;" horiz-adv-x="411" 
d="M423 1140q-46 0 -80 34t-34 81t33.5 80.5t80.5 33.5t81 -34t34 -80q0 -47 -34 -81t-81 -34z" />
    <glyph glyph-name="ring" unicode="&#x2da;" horiz-adv-x="564" 
d="M434 994q-68 0 -110.5 42t-42.5 106q0 95 77.5 168t174.5 73q67 0 109 -41t42 -106q0 -96 -77.5 -169t-172.5 -73zM460 1099q46 0 82 34.5t36 79.5q0 31 -19.5 49.5t-51.5 18.5q-44 0 -81 -35t-37 -80q0 -30 19.5 -48.5t51.5 -18.5z" />
    <glyph glyph-name="ogonek" unicode="&#x2db;" horiz-adv-x="597" 
d="M73 -455q-83 0 -132 39t-49 109q0 74 58 145t144 118.5t182 69.5l104 -26q-127 -11 -220.5 -74t-93.5 -150q0 -78 95 -78q53 0 124 33q16 5 24.5 -0.5t4.5 -18.5l-21 -82q-4 -17 -27 -29q-95 -56 -193 -56z" />
    <glyph glyph-name="tilde" unicode="&#x2dc;" horiz-adv-x="947" 
d="M843 1078q-46 0 -88 17.5t-68.5 39t-66 39t-82.5 17.5q-14 0 -27.5 -2.5t-23.5 -5t-21.5 -9t-18 -10t-17 -12t-14 -11.5t-13.5 -12.5t-11 -10.5q-17 -14 -31 1l-62 72q-15 16 1 34q1 1 12 15.5t19 23.5t23 24.5t31.5 26t37 21t46 16t53.5 5.5q50 0 93.5 -17.5t70 -39
t63.5 -39t75 -17.5q17 0 31.5 2.5t28 8t23 9.5t21.5 13.5t16 13t15.5 14.5t12.5 12q16 15 31 0l63 -73q14 -16 -2 -34q-1 -2 -12 -16t-19 -23t-23 -24.5t-31.5 -26t-37 -21t-45.5 -16t-53 -5.5z" />
    <glyph glyph-name="hungarumlaut" unicode="&#x2dd;" horiz-adv-x="781" 
d="M288 1100q-10 0 -15.5 7t-3.5 18l118 328q5 26 31 26h153q12 0 18 -7t1 -19l-149 -328q-9 -25 -30 -25h-123zM661 1100q-9 0 -15 7.5t-2 17.5l116 328q8 26 31 26h155q27 0 19 -26l-149 -328q-12 -25 -32 -25h-123z" />
    <glyph glyph-name="uni0326" unicode="&#x326;" horiz-adv-x="0" 
d="M-408 -618q-15 -6 -20 -3.5t-11 14.5l-16 24q-7 14 12 29q97 64 138 137q-3 -1 -25 -1q-42 0 -74.5 33t-32.5 81q0 60 44.5 102t104.5 42q53 0 87 -33.5t34 -91.5q0 -88 -74 -184t-167 -149z" />
    <glyph glyph-name="uni0394" unicode="&#x394;" horiz-adv-x="1454" 
d="M1298 26q7 -12 2.5 -19t-17.5 -7h-1337q-13 0 -17.5 8t0.5 20l652 1354q7 15 23 15h23q13 0 20 -15zM234 207h759l-379 810z" />
    <glyph glyph-name="uni03A9" unicode="&#x3a9;" horiz-adv-x="1501" 
d="M42 200v-174q0 -26 24 -26h578q24 0 24 26v135q0 8 -1 14t-2.5 10t-5.5 8t-6 5.5t-8.5 5.5t-9.5 6q-156 73 -262 202t-106 281q0 205 134.5 345t350.5 140q214 0 348 -140t134 -345q0 -151 -106.5 -280.5t-263.5 -202.5q-2 -1 -8 -5l-7.5 -5t-5.5 -4.5t-5 -6t-2.5 -7
t-2 -9.5t-0.5 -12v-135q0 -26 23 -26h581q9 0 16 7t7 19v174q0 9 -7 16.5t-16 7.5h-286q35 14 75 41.5t83.5 72.5t78 99t57 126t22.5 147q0 194 -95.5 355t-259.5 252.5t-360 91.5q-197 0 -361.5 -91.5t-260 -252t-95.5 -355.5q0 -76 21.5 -147.5t55.5 -125t76 -98.5t82 -73
t75 -42h-279q-10 0 -17 -7.5t-7 -16.5z" />
    <glyph glyph-name="uni03BC" unicode="&#x3bc;" horiz-adv-x="1102" 
d="M935 885q27 0 27 -28v-480q0 -176 -95 -288t-265 -112q-132 -3 -262 96v-394q0 -12 -8 -19t-20 -7h-168q-28 0 -28 26v1178q0 28 28 28h170q26 0 26 -28v-546q72 -73 146.5 -95.5t129 -0.5t89 74.5t34.5 121.5v446q0 28 26 28h170z" />
    <glyph glyph-name="pi" unicode="&#x3c0;" horiz-adv-x="1227" 
d="M1114 887q26 0 26 -28v-156q0 -28 -26 -28h-126v-382q0 -62 20.5 -95.5t72.5 -56.5q22 -12 12 -32l-85 -158q-8 -19 -33 -10q-112 50 -161.5 128.5t-51.5 211.5l2 394h-301v-647q0 -28 -26 -28h-168q-28 0 -28 28v647h-128q-26 0 -26 28v154q0 13 7 21.5t19 8.5h1001z
" />
    <glyph glyph-name="uni0401" unicode="&#x401;" horiz-adv-x="1069" 
d="M741 1630q-43 0 -73.5 31.5t-30.5 74.5t30.5 72.5t73.5 29.5t73.5 -29.5t30.5 -72.5t-30.5 -74.5t-73.5 -31.5zM1177 1838q43 0 73.5 -29.5t30.5 -72.5t-30.5 -74.5t-73.5 -31.5t-73.5 31.5t-30.5 74.5t30.5 72.5t73.5 29.5zM1215 1354q12 0 18 -8.5t4 -21.5l-41 -149
q-4 -23 -30 -23h-628l-99 -366h465q13 0 20 -8t3 -21l-40 -150q-4 -22 -30 -22h-472l-102 -384h644q13 0 19.5 -8t2.5 -21l-43 -149q-4 -23 -30 -23h-840q-12 0 -18 8.5t-4 21.5l349 1301q5 23 31 23h821z" />
    <glyph glyph-name="uni0403" unicode="&#x403;" horiz-adv-x="1102" 
d="M774 1515l-57 96q-10 18 5 29l352 240q9 7 21 7t18 -9l78 -139q15 -26 -9 -36l-373 -197q-22 -9 -35 9zM1217 1354q25 0 20 -28l-45 -163q-7 -23 -36 -19q-83 8 -123 8h-495l-302 -1129q-5 -23 -29 -23h-171q-12 0 -18 8.5t-4 21.5l349 1301q5 23 31 23h823z" />
    <glyph glyph-name="uni0404" unicode="&#x404;" horiz-adv-x="1374" 
d="M1458 1145q10 -18 10.5 -26t-12.5 -19l-135 -86q-22 -14 -51 12q-109 123 -286 123q-180 0 -344 -105t-243 -266h523q27 0 19 -26l-38 -150q-2 -12 -12.5 -19t-22.5 -7h-522v-22q0 -153 95.5 -251t272.5 -98q112 0 210.5 39.5t162.5 93.5q30 29 54 2l95 -123
q18 -21 -14 -45q-248 -184 -536 -184q-259 0 -412.5 144.5t-153.5 384.5q0 163 74 319.5t195 272t285 186.5t335 71q153 0 272 -60.5t179 -160.5z" />
    <glyph glyph-name="uni0406" unicode="&#x406;" horiz-adv-x="473" 
d="M36 0q-12 0 -18 8.5t-4 21.5l349 1301q5 23 31 23h168q13 0 20 -8.5t3 -21.5l-349 -1301q-5 -23 -29 -23h-171z" />
    <glyph glyph-name="uni0407" unicode="&#x407;" horiz-adv-x="473" 
d="M368 1630q-43 0 -73.5 31.5t-30.5 74.5t30.5 72.5t73.5 29.5t73.5 -29.5t30.5 -72.5t-30.5 -74.5t-73.5 -31.5zM804 1630q-43 0 -74 31.5t-31 74.5q0 42 31 72t74 30q42 0 73 -30t31 -72q0 -43 -31 -74.5t-73 -31.5zM36 0q-12 0 -18 8.5t-4 21.5l349 1301q5 23 31 23h168
q13 0 20 -8.5t3 -21.5l-349 -1301q-5 -23 -29 -23h-171z" />
    <glyph glyph-name="uni0408" unicode="&#x408;" horiz-adv-x="538" 
d="M627 1354q13 0 19.5 -8.5t2.5 -21.5l-408 -1518q-42 -155 -137.5 -252t-224.5 -137q-38 -12 -47 19l-44 167q-6 30 21 33q84 12 140.5 66t78.5 135l399 1494q5 23 29 23h171z" />
    <glyph glyph-name="uni040C" unicode="&#x40c;" horiz-adv-x="1253" 
d="M557 1515l-57 96q-14 19 5 29l351 240q27 17 38 -2l80 -139q15 -26 -9 -36l-373 -197q-24 -10 -35 9zM1387 1354q18 0 22 -10.5t-10 -22.5l-798 -646l484 -644q9 -12 4 -21.5t-22 -9.5h-201q-21 0 -33 16l-439 593l-158 -586q-5 -23 -29 -23h-171q-12 0 -18 8.5t-4 21.5
l349 1301q5 23 31 23h168q13 0 20 -8.5t3 -21.5l-153 -571l708 589q13 12 32 12h215z" />
    <glyph glyph-name="uni040D" unicode="&#x40d;" horiz-adv-x="1719" 
d="M859 1673l373 -194q22 -9 35 8l57 94q9 17 -5 31l-352 240q-24 18 -38 -4l-79 -137q-14 -24 9 -38zM396 1354h172q23 0 17 -26l-255 -957l965 958q25 25 52 25h179q20 0 15 -25l-349 -1303q-5 -26 -33 -26h-173q-10 0 -15 7.5t-1 18.5l261 977l-972 -979q-23 -24 -51 -24
h-178q-23 0 -18 24l351 1304q5 26 33 26z" />
    <glyph glyph-name="uni040E" unicode="&#x40e;" horiz-adv-x="1301" 
d="M949 1498q-142 0 -219 82t-46 206q8 36 33 36h94q11 0 14 -7t3 -24q-12 -69 27.5 -109t111.5 -40q73 0 132.5 40t85.5 109q16 31 35 31h99q27 0 16 -36q-44 -135 -148 -211.5t-238 -76.5zM1484 1354q20 0 20 -12t-13 -26l-1151 -1297q-16 -19 -33 -19h-177
q-21 0 -25.5 15t10.5 32l435 493l-271 776q-6 15 1 26.5t27 11.5h172q28 0 36 -26l207 -592l524 592q26 26 54 26h184z" />
    <glyph glyph-name="uni0410" unicode="&#x410;" horiz-adv-x="1423" 
d="M1270 30q5 -30 -20 -30h-164q-22 0 -27 28l-33 170h-721l-126 -177q-13 -21 -33 -21h-200q-15 0 -19.5 10t5.5 23l944 1303q14 18 32 18h92q23 0 26 -25zM436 378h557l-117 615z" />
    <glyph glyph-name="uni0411" unicode="&#x411;" horiz-adv-x="1206" 
d="M1217 1354q25 0 20 -28l-45 -163q-7 -23 -36 -19q-83 8 -123 8h-495l-90 -338h328q162 0 255.5 -88t93.5 -230q0 -136 -75.5 -250.5t-201.5 -180t-270 -65.5h-542q-12 0 -18 8.5t-4 21.5l349 1301q5 23 31 23h823zM708 613h-314l-109 -412h300q130 0 220.5 79t90.5 189
q0 64 -47 104t-141 40z" />
    <glyph glyph-name="uni0412" unicode="&#x412;" horiz-adv-x="1204" 
d="M946 713q163 -88 163 -270q0 -123 -74.5 -226t-195 -160t-256.5 -57h-543q-32 0 -24 31l347 1298q5 25 31 25h503q146 0 229.5 -74t83.5 -197q0 -117 -72 -216.5t-192 -153.5zM816 1152h-278l-101 -374h257q116 0 203 72.5t87 171.5q0 130 -168 130zM574 201
q128 0 219.5 70t91.5 179q0 70 -45.5 110.5t-140.5 40.5h-308l-108 -400h291z" />
    <glyph glyph-name="uni0413" unicode="&#x413;" horiz-adv-x="1081" 
d="M1217 1354q25 0 20 -28l-45 -163q-7 -23 -36 -19q-83 8 -123 8h-495l-302 -1129q-5 -23 -29 -23h-171q-12 0 -18 8.5t-4 21.5l349 1301q5 23 31 23h823z" />
    <glyph glyph-name="uni0414" unicode="&#x414;" horiz-adv-x="1475" 
d="M1489 1354q35 0 24 -35l-295 -1099h101q26 0 21 -26l-97 -357h-221l45 163h-895l-45 -163h-221l97 357q5 26 33 26h92q126 207 226 478t193 619q11 37 45 37h897zM998 220l245 913h-526q-152 -579 -356 -913h637z" />
    <glyph glyph-name="uni0415" unicode="&#x415;" horiz-adv-x="1069" 
d="M1215 1354q12 0 18 -8.5t4 -21.5l-41 -149q-4 -23 -30 -23h-628l-99 -366h465q13 0 20 -8t3 -21l-40 -150q-4 -22 -30 -22h-472l-102 -384h644q13 0 19.5 -8t2.5 -21l-43 -149q-4 -23 -30 -23h-840q-12 0 -18 8.5t-4 21.5l349 1301q5 23 31 23h821z" />
    <glyph glyph-name="uni0416" unicode="&#x416;" horiz-adv-x="2006" 
d="M2142 1354q18 0 22 -10.5t-10 -22.5l-800 -646l484 -644q9 -12 4.5 -21.5t-20.5 -9.5h-203q-19 0 -31 16l-439 593l-158 -586q-5 -23 -31 -23h-169q-13 0 -19.5 8.5t-2.5 21.5l153 571l-740 -582q-23 -19 -48 -19h-174q-24 0 -27.5 18t15.5 34l807 628l-434 625
q-13 21 -4 35t32 14h182q24 0 38 -25l396 -569l153 571q5 23 29 23h170q13 0 19 -8.5t4 -21.5l-153 -571l707 589q13 12 33 12h215z" />
    <glyph glyph-name="uni0417" unicode="&#x417;" horiz-adv-x="1135" 
d="M856 696q90 -31 142 -93.5t52 -151.5q0 -134 -92 -242t-233 -164.5t-295 -56.5t-259 57.5t-150 173.5q-11 22 12 36l146 108q13 9 21 8.5t15 -12.5q26 -76 94.5 -114t167.5 -38q139 0 240.5 70t101.5 178q0 147 -286 151l48 180q154 2 254 60t100 162q0 68 -53 102.5
t-144 34.5q-84 0 -167 -38.5t-148 -112.5q-20 -19 -38 -1l-88 106q-10 11 -8 18t15 18q107 116 240.5 173.5t274.5 57.5q166 0 267 -76.5t101 -206.5q0 -131 -92 -233t-239 -154z" />
    <glyph glyph-name="uni0418" unicode="&#x418;" horiz-adv-x="1430" 
d="M396 1354h172q23 0 17 -26l-255 -957l965 958q25 25 52 25h179q20 0 15 -25l-349 -1303q-5 -26 -33 -26h-173q-10 0 -15 7.5t-1 18.5l261 977l-972 -979q-23 -24 -51 -24h-178q-23 0 -18 24l351 1304q5 26 33 26z" />
    <glyph glyph-name="uni0419" unicode="&#x419;" horiz-adv-x="1430" 
d="M1015 1498q-142 0 -219 82t-46 206q8 36 33 36h93q18 0 18 -31q-14 -69 26 -109t113 -40t132.5 40t85.5 109q15 31 35 31h99q27 0 16 -36q-44 -135 -148 -211.5t-238 -76.5zM396 1354h172q23 0 17 -26l-255 -957l965 958q25 25 52 25h179q20 0 15 -25l-349 -1303
q-5 -26 -33 -26h-173q-10 0 -15 7.5t-1 18.5l261 977l-972 -979q-23 -24 -51 -24h-178q-23 0 -18 24l351 1304q5 26 33 26z" />
    <glyph glyph-name="uni041A" unicode="&#x41a;" horiz-adv-x="1253" 
d="M1387 1354q18 0 22 -10.5t-10 -22.5l-798 -646l484 -644q9 -12 4 -21.5t-22 -9.5h-201q-21 0 -33 16l-439 593l-158 -586q-5 -23 -29 -23h-171q-12 0 -18 8.5t-4 21.5l349 1301q5 23 31 23h168q13 0 20 -8.5t3 -21.5l-153 -571l708 589q13 12 32 12h215z" />
    <glyph glyph-name="uni041B" unicode="&#x41b;" horiz-adv-x="1369" 
d="M1453 1354q35 0 24 -35l-345 -1295q-4 -24 -30 -24h-173q-25 0 -20 24l304 1128h-611l-218 -815q-26 -97 -72 -167t-104 -108t-117.5 -55t-123.5 -17q-33 0 -54.5 7.5t-16.5 25.5l33 121q10 35 40 35q79 0 126.5 36.5t69.5 124.5l262 979q11 35 45 35h981z" />
    <glyph glyph-name="uni041C" unicode="&#x41c;" horiz-adv-x="1780" 
d="M36 0q-13 0 -19.5 8.5t-2.5 21.5l349 1301q5 23 31 23h160q22 0 29 -21l280 -958l801 963q14 16 32 16h171q14 0 20.5 -8.5t2.5 -21.5l-349 -1301q-5 -23 -29 -23h-170q-13 0 -19.5 9t-1.5 21l245 900l-735 -894q-21 -22 -36 -22h-17q-18 0 -23 24l-274 891l-245 -906
q-4 -23 -29 -23h-171z" />
    <glyph glyph-name="uni041D" unicode="&#x41d;" horiz-adv-x="1409" 
d="M1498 1354q13 0 19.5 -8.5t2.5 -21.5l-348 -1301q-5 -23 -30 -23h-170q-13 0 -19 8.5t-4 21.5l150 555h-712l-151 -562q-5 -23 -29 -23h-171q-12 0 -18 8.5t-4 21.5l349 1301q5 23 31 23h168q13 0 20 -8.5t3 -21.5l-144 -538h711l146 545q5 23 31 23h169z" />
    <glyph glyph-name="uni041E" unicode="&#x41e;" horiz-adv-x="1542" 
d="M666 -12q-251 0 -399.5 146.5t-148.5 380.5q0 130 47 257.5t131 233t193.5 187.5t242.5 127.5t269 45.5q252 0 400.5 -147t148.5 -382q0 -162 -74 -318t-194.5 -272.5t-283.5 -187.5t-332 -71zM706 205q119 0 233.5 50.5t198 132.5t134.5 190.5t51 219.5q0 159 -96 255
t-265 96q-159 0 -302.5 -85t-229 -222.5t-85.5 -287.5q0 -158 96.5 -253.5t264.5 -95.5z" />
    <glyph glyph-name="uni041F" unicode="&#x41f;" horiz-adv-x="1398" 
d="M1491 1354q24 0 19 -26l-349 -1302q-6 -26 -31 -26h-170q-26 0 -21 26l297 1107h-705l-297 -1107q-6 -26 -29 -26h-172q-26 0 -21 26l351 1302q5 26 33 26h1095z" />
    <glyph glyph-name="uni0420" unicode="&#x420;" horiz-adv-x="1221" 
d="M916 1354q186 0 282.5 -102.5t96.5 -262.5q0 -115 -48.5 -221t-130 -183.5t-194.5 -123.5t-236 -46h-344l-106 -392q-5 -23 -29 -23h-171q-12 0 -18 8.5t-4 21.5l349 1301q5 23 31 23h522zM720 614q144 0 251 103.5t107 237.5q0 89 -50.5 143t-154.5 54h-335l-144 -538
h326z" />
    <glyph glyph-name="uni0421" unicode="&#x421;" horiz-adv-x="1374" 
d="M684 -12q-259 0 -412.5 144.5t-153.5 384.5q0 163 74 319.5t195 272t285 186.5t335 71q153 0 272 -60.5t179 -160.5q10 -18 10.5 -26t-12.5 -19l-135 -86q-22 -14 -51 12q-109 123 -286 123q-96 0 -191 -31.5t-175 -88.5t-142 -130.5t-97 -163.5t-35 -181
q0 -153 95.5 -251t272.5 -98q112 0 210.5 39.5t162.5 93.5q30 29 54 2l95 -123q18 -21 -14 -45q-248 -184 -536 -184z" />
    <glyph glyph-name="uni0422" unicode="&#x422;" horiz-adv-x="1062" 
d="M1220 1354q13 0 20 -8.5t3 -21.5l-40 -149q-5 -23 -31 -23h-341l-302 -1129q-5 -23 -29 -23h-170q-13 0 -19 8.5t-4 21.5l300 1122h-331q-13 0 -20 8.5t-3 21.5l40 149q4 23 32 23h895z" />
    <glyph glyph-name="uni0423" unicode="&#x423;" horiz-adv-x="1303" 
d="M1484 1354q20 0 20 -12t-13 -26l-1151 -1297q-16 -19 -33 -19h-177q-21 0 -25.5 15t10.5 32l435 493l-271 776q-6 15 1 26.5t27 11.5h172q28 0 36 -26l207 -592l524 592q26 26 54 26h184z" />
    <glyph glyph-name="uni0424" unicode="&#x424;" horiz-adv-x="1558" 
d="M1128 1198q107 0 191 -32t135 -87.5t77 -126t26 -152.5q0 -131 -59 -250.5t-156 -204.5t-225.5 -135t-262.5 -50h-33l-37 -137q-5 -23 -29 -23h-170q-13 0 -19 8.5t-4 21.5l35 130h-17q-208 0 -317 111t-109 283q0 131 59 251.5t156 206t225 136t263 50.5h18l36 133
q5 23 31 23h169q13 0 19.5 -8.5t2.5 -21.5l-34 -126h29zM646 338l182 681h-14q-179 0 -315 -129.5t-136 -295.5q0 -112 67.5 -184t197.5 -72h18zM896 338q117 0 222.5 63t168 164t62.5 209t-67.5 176.5t-200.5 68.5h-29l-182 -681h26z" />
    <glyph glyph-name="uni0425" unicode="&#x425;" horiz-adv-x="1247" 
d="M1415 1354q17 0 22 -10t-7 -23l-618 -644l280 -647q5 -13 0 -21.5t-19 -8.5h-200q-21 0 -31 21l-203 474l-462 -481q-16 -14 -33 -14h-186q-17 0 -21.5 10t7.5 23l617 640l-280 651q-5 13 0 21.5t19 8.5h196q22 0 32 -21l206 -479l467 486q14 14 33 14h181z" />
    <glyph glyph-name="uni0426" unicode="&#x426;" horiz-adv-x="1374" 
d="M1409 1354q14 0 20.5 -8.5t2.5 -21.5l-295 -1104h28q43 0 59.5 -22.5t4.5 -65.5l-40 -149q-11 -42 -14 -87q-4 -31 -28 -31h-154q-26 0 -37.5 14.5t-4.5 40.5l21 80h-936q-12 0 -18 8.5t-4 21.5l349 1301q5 23 31 23h168q13 0 20 -8.5t3 -21.5l-295 -1104h623l298 1111
q5 23 30 23h168z" />
    <glyph glyph-name="uni0427" unicode="&#x427;" horiz-adv-x="1214" 
d="M1324 1354q13 0 20 -8.5t3 -21.5l-349 -1301q-5 -23 -30 -23h-170q-12 0 -18 8.5t-4 21.5l137 510q-188 -99 -354 -99q-206 0 -312.5 105.5t-62.5 269.5l111 416q9 34 16 91q0 31 29 31h149q29 0 40.5 -16.5t3.5 -44.5l-110 -408q-28 -103 33.5 -171t203.5 -68
q77 0 160 29t152 87l153 569q5 23 31 23h168z" />
    <glyph glyph-name="uni0428" unicode="&#x428;" horiz-adv-x="1900" 
d="M1987 1354q14 0 20.5 -8.5t2.5 -21.5l-349 -1301q-5 -23 -30 -23h-1595q-12 0 -18 8.5t-4 21.5l349 1301q5 23 31 23h168q13 0 20 -8.5t3 -21.5l-295 -1104h488l298 1111q5 23 30 23h170q12 0 18 -8.5t4 -21.5l-295 -1104h488l297 1111q8 23 31 23h168z" />
    <glyph glyph-name="uni0429" unicode="&#x429;" horiz-adv-x="1949" 
d="M1987 1354q14 0 20.5 -8.5t2.5 -21.5l-295 -1104h22q43 0 60.5 -23t4.5 -65l-40 -149q-7 -29 -14 -87q0 -13 -7.5 -22t-18.5 -9h-155q-55 0 -41 55l20 80h-1510q-12 0 -18 8.5t-4 21.5l349 1301q5 23 31 23h168q13 0 20 -8.5t3 -21.5l-295 -1104h488l298 1111q5 23 30 23
h170q12 0 18 -8.5t4 -21.5l-295 -1104h488l297 1111q8 23 31 23h168z" />
    <glyph glyph-name="uni042A" unicode="&#x42a;" horiz-adv-x="1312" 
d="M868 941q186 0 282 -103t96 -264q0 -115 -48.5 -221t-130.5 -183t-195 -123.5t-235 -46.5h-540q-14 0 -20 8.5t-2 21.5l295 1103h-176q-24 0 -19 26l45 169q5 26 35 26h366q14 0 20.5 -8.5t2.5 -21.5l-102 -383h326zM672 201q144 0 250.5 102.5t106.5 236.5
q0 90 -51 144.5t-154 54.5h-336l-144 -538h328z" />
    <glyph glyph-name="uni042B" unicode="&#x42b;" horiz-adv-x="1713" 
d="M807 941q186 0 283 -103t97 -264q0 -115 -49 -221t-130.5 -183t-195 -123.5t-236.5 -46.5h-540q-12 0 -18 8.5t-4 21.5l349 1301q5 23 31 23h168q13 0 20 -8.5t3 -21.5l-103 -383h325zM1800 1354q14 0 20 -8.5t2 -21.5l-348 -1301q-5 -23 -30 -23h-168q-14 0 -20.5 8.5
t-2.5 21.5l347 1301q8 23 31 23h169zM613 201q142 0 248.5 102.5t106.5 236.5q0 90 -50 144.5t-154 54.5h-335l-144 -538h328z" />
    <glyph glyph-name="uni042C" unicode="&#x42c;" horiz-adv-x="1251" 
d="M807 941q186 0 283 -103t97 -264q0 -115 -49 -221t-130.5 -183t-195 -123.5t-236.5 -46.5h-540q-12 0 -18 8.5t-4 21.5l349 1301q5 23 31 23h168q13 0 20 -8.5t3 -21.5l-103 -383h325zM613 201q142 0 248.5 102.5t106.5 236.5q0 90 -50 144.5t-154 54.5h-335l-144 -538
h328z" />
    <glyph glyph-name="uni042D" unicode="&#x42d;" horiz-adv-x="1371" 
d="M838 1366q250 0 397.5 -144t147.5 -384q0 -168 -75 -325.5t-198 -272t-288.5 -183.5t-340.5 -69q-153 0 -272.5 54t-189.5 151q-16 22 9 40l153 109q22 16 36 -2q104 -137 300 -137q180 0 339 106.5t237 266.5h-517q-26 0 -21 26l40 150q5 26 33 26h521v27
q0 153 -97 248.5t-271 95.5q-195 0 -382 -144q-20 -18 -36 -2l-97 118q-16 19 8 37q259 208 564 208z" />
    <glyph glyph-name="uni042E" unicode="&#x42e;" horiz-adv-x="2032" 
d="M1491 1366q251 0 399.5 -147t148.5 -382q0 -162 -73.5 -318t-194 -272.5t-283.5 -187.5t-332 -71q-253 0 -401 146.5t-148 380.5q0 27 6 79h-224l-153 -571q-5 -23 -29 -23h-171q-12 0 -18 8.5t-4 21.5l349 1301q5 23 31 23h168q13 0 20 -8.5t3 -21.5l-142 -529h220
q98 245 329 408t499 163zM1196 205q119 0 233 50.5t197.5 132.5t134.5 190.5t51 219.5q0 159 -96 255t-265 96q-119 0 -233 -50.5t-197.5 -132.5t-134.5 -191t-51 -221q0 -158 96 -253.5t265 -95.5z" />
    <glyph glyph-name="uni042F" unicode="&#x42f;" horiz-adv-x="1247" 
d="M1336 1354q13 0 20 -8.5t3 -21.5l-349 -1301q-5 -23 -29 -23h-170q-13 0 -20 8.5t-3 21.5l102 385h-321h-21l-352 -391q-23 -24 -52 -24h-160q-19 0 -23 11.5t8 24.5l387 426q-89 46 -133 133t-44 198q0 156 80 284.5t223.5 202.5t319.5 74h534zM618 614h326l144 538
h-333q-146 0 -247.5 -99t-101.5 -237q0 -92 52.5 -147t159.5 -55z" />
    <glyph glyph-name="uni0430" unicode="&#x430;" horiz-adv-x="1079" 
d="M1078 885q13 0 19 -7t2 -19l-223 -838q-8 -21 -27 -21h-167q-13 0 -19 7t-2 19l28 106q-146 -146 -328 -146q-144 0 -231 91.5t-87 245.5q0 107 42.5 211.5t113 184.5t168.5 129t202 49q101 0 172.5 -45.5t105.5 -126.5l36 139q5 21 28 21h167zM441 170q91 0 170.5 52
t124.5 132.5t45 166.5q0 88 -52 140t-141 52q-138 0 -240 -109t-102 -243q0 -88 51 -139.5t144 -51.5z" />
    <glyph glyph-name="uni0431" unicode="&#x431;" horiz-adv-x="1086" 
d="M1118 1362q14 2 21.5 -1.5t5.5 -15.5l-39 -151q-11 -31 -39 -31h-137q-348 0 -526 -330q128 64 261 64q171 0 273.5 -95t102.5 -257q0 -147 -79 -276t-212.5 -206t-286.5 -77q-166 0 -267.5 90.5t-108.5 244.5v16v1v4q1 196 66 380t177 323.5t274 224t344 84.5h81
q44 0 89 8zM842 517q0 89 -54.5 142.5t-147.5 53.5q-140 0 -246 -106.5t-106 -238.5q0 -90 53 -144t147 -54q141 0 247.5 107t106.5 240z" />
    <glyph glyph-name="uni0432" unicode="&#x432;" horiz-adv-x="987" 
d="M720 469q163 -44 163 -177q0 -86 -57 -153.5t-149.5 -103t-200.5 -35.5h-473q-19 0 -13 19l225 847q6 19 25 19h465q124 0 190.5 -47t66.5 -130q0 -88 -70 -154t-172 -85zM548 519q81 0 136 42.5t55 104.5q0 80 -133 80h-221l-60 -227h223zM451 139q98 0 157.5 43.5
t59.5 107.5q0 45 -40.5 71t-112.5 26h-227l-66 -248h229z" />
    <glyph glyph-name="uni0433" unicode="&#x433;" horiz-adv-x="907" 
d="M918 885q12 0 17.5 -7.5t1.5 -20.5l-41 -158q-8 -25 -39 -19q-78 9 -83 9h-364l-181 -663q-6 -26 -31 -26h-165q-26 0 -21 26l224 833q8 26 33 26h649z" />
    <glyph glyph-name="uni0434" unicode="&#x434;" horiz-adv-x="1239" 
d="M1133 885q34 0 26 -35l-175 -654h92q26 0 21 -28l-78 -288q-8 -26 -33 -26h-167q-26 0 -15 26l31 120h-667l-33 -120q-8 -26 -31 -26h-166q-28 0 -20 26l79 288q5 28 34 28h110q159 217 267 649l2 7q7 33 41 33h682zM359 196h408l132 493h-321q-79 -304 -219 -493z" />
    <glyph glyph-name="uni0435" unicode="&#x435;" horiz-adv-x="987" 
d="M606 897q179 0 269.5 -107.5t70.5 -268.5q-2 -76 -45 -117t-125 -41h-530q3 -87 55 -145t164 -58q135 0 247 83q32 14 48 -14l35 -71q14 -22 -11 -43q-152 -129 -359 -129q-175 0 -277.5 94t-102.5 258q0 143 74.5 271.5t205 208t281.5 79.5zM581 720
q-100 0 -182.5 -58.5t-122.5 -151.5h482q8 89 -35.5 149.5t-141.5 60.5z" />
    <glyph glyph-name="uni0436" unicode="&#x436;" horiz-adv-x="1581" 
d="M1588 885q18 0 20 -13.5t-15 -26.5l-533 -402l355 -398q12 -16 4.5 -30.5t-27.5 -14.5h-186q-15 0 -26 14l-304 366l-95 -352q-5 -28 -31 -28h-160q-26 0 -21 28l96 350l-493 -364q-19 -14 -33 -14h-188q-18 0 -20 16t15 29l569 405l-315 395q-9 12 0 26t26 14h184
q17 0 24 -12l265 -363l70 257q7 24 14 87q4 31 26 31h177q24 0 19 -26l-94 -347l451 356q17 17 40 17h186z" />
    <glyph glyph-name="uni0437" unicode="&#x437;" horiz-adv-x="848" 
d="M592 451q133 -40 133 -163q0 -87 -63 -158t-159 -107.5t-201 -36.5q-110 0 -190.5 41.5t-113.5 113.5q-7 13 7 27l103 84q17 12 29 -4q22 -46 75 -70t118 -24q85 0 147.5 40t62.5 96q0 45 -40 69t-134 26l35 130q97 2 157 33.5t60 91.5q0 40 -34 64.5t-93 24.5
q-64 0 -125.5 -27t-105.5 -70q-23 -14 -34 3l-52 80q-12 13 3 28q149 154 359 154q126 0 203 -59.5t77 -155.5q0 -83 -61 -143.5t-163 -87.5z" />
    <glyph glyph-name="uni0438" unicode="&#x438;" horiz-adv-x="1077" 
d="M1069 885q9 0 13.5 -5.5t2.5 -13.5l-228 -845q-3 -21 -26 -21h-168q-9 0 -13.5 6.5t-2.5 14.5l144 541l-643 -543q-25 -19 -40 -19h-99q-9 0 -12.5 5.5t-1.5 13.5l227 847q4 19 23 19h173q9 0 12.5 -5.5t1.5 -13.5l-149 -559l644 556q29 22 36 22h106z" />
    <glyph glyph-name="uni0439" unicode="&#x439;" horiz-adv-x="1077" 
d="M670 1029q-141 0 -218 82t-46 205q8 38 33 38h94q17 0 17 -31q-14 -69 26 -109.5t113 -40.5q72 0 131.5 40t85.5 110q18 31 36 31h99q29 0 14 -38q-44 -134 -148 -210.5t-237 -76.5zM1069 885q9 0 13.5 -5.5t2.5 -13.5l-228 -845q-3 -21 -26 -21h-168q-9 0 -13.5 6.5
t-2.5 14.5l144 541l-643 -543q-25 -19 -40 -19h-99q-9 0 -12.5 5.5t-1.5 13.5l227 847q4 19 23 19h173q9 0 12.5 -5.5t1.5 -13.5l-149 -559l644 556q29 22 36 22h106z" />
    <glyph glyph-name="uni043A" unicode="&#x43a;" horiz-adv-x="987" 
d="M994 885q18 0 21 -13.5t-14 -26.5l-532 -402l352 -398q12 -16 4.5 -30.5t-27.5 -14.5h-185q-15 0 -26 14l-304 366l-94 -352q-9 -28 -33 -28h-159q-12 0 -18 7.5t-2 20.5l198 739q10 36 14 87q4 31 28 31h175q24 0 19 -26l-93 -347l453 356q17 17 38 17h185z" />
    <glyph glyph-name="uni043B" unicode="&#x43b;" horiz-adv-x="1041" 
d="M1022 885q34 0 26 -35l-222 -826q-4 -24 -29 -24h-169q-24 0 -17 24l177 667h-351l-97 -365q-44 -165 -145 -249t-271 -84q-36 0 -26 33l31 122q9 29 41 34q120 4 157 151l139 517q8 35 43 35h713z" />
    <glyph glyph-name="uni043C" unicode="&#x43c;" horiz-adv-x="1355" 
d="M1347 885q17 0 14 -21l-228 -843q-4 -21 -22 -21h-177q-9 0 -13.5 6t-2.5 15l144 540l-461 -537q-12 -19 -30 -19h-19q-10 0 -17 19l-179 537l-146 -540q-2 -8 -8.5 -14.5t-15.5 -6.5h-176q-20 0 -15 21l225 843q5 21 25 21h184q14 0 21 -17l190 -550l478 552
q14 15 27 15h202z" />
    <glyph glyph-name="uni043D" unicode="&#x43d;" horiz-adv-x="1091" 
d="M1080 885q9 0 14 -5t3 -12l-227 -847q-4 -21 -25 -21h-175q-9 0 -13.5 6t-2.5 15l85 317h-444l-85 -317q-4 -21 -24 -21h-176q-20 0 -15 21l227 847q3 17 23 17h177q8 0 12.5 -5t2.5 -12l-88 -328h444l89 328q3 17 22 17h176z" />
    <glyph glyph-name="uni043E" unicode="&#x43e;" horiz-adv-x="1046" 
d="M422 -14q-170 0 -273.5 95.5t-103.5 256.5q0 145 80 274.5t214.5 207t285.5 77.5q171 0 273.5 -95t102.5 -257q0 -147 -79 -276t-213 -206t-287 -77zM448 170q141 0 246.5 107t105.5 240q0 89 -53 142.5t-146 53.5q-141 0 -247 -106t-106 -239q0 -90 53 -144t147 -54z
" />
    <glyph glyph-name="uni043F" unicode="&#x43f;" horiz-adv-x="1029" 
d="M811 26q-9 -26 -32 -26h-166q-26 0 -21 26l179 663h-382l-176 -663q-9 -26 -31 -26h-166q-26 0 -21 26l224 833q8 26 33 26h762q24 0 19 -26z" />
    <glyph glyph-name="uni0440" unicode="&#x440;" horiz-adv-x="1098" 
d="M727 897q144 0 232 -92t88 -248q0 -142 -71 -274t-192.5 -214.5t-259.5 -82.5q-93 0 -168.5 39.5t-119.5 111.5l-123 -463q-5 -21 -26 -21h-169q-12 0 -18 7t-2 19l270 1012q7 25 11.5 51t6 42t3 35t2.5 24q3 42 36 42h108q46 0 66 -30.5t7 -78.5l-2 -7q151 128 321 128z
M502 170q92 0 171.5 51t124 130.5t44.5 165.5q0 92 -49 144t-142 52q-92 0 -171.5 -52t-124 -132t-44.5 -165q0 -91 50.5 -142.5t140.5 -51.5z" />
    <glyph glyph-name="uni0441" unicode="&#x441;" horiz-adv-x="918" 
d="M427 -14q-170 0 -276 97.5t-106 260.5q0 143 81 271.5t213.5 205t276.5 76.5q103 0 179.5 -41.5t115.5 -107.5q13 -23 9 -32q-3 -5 -11 -11l-107 -73q-23 -15 -45 3q-61 80 -167 80q-141 0 -245.5 -104.5t-104.5 -233.5q0 -93 58.5 -150t156.5 -57q116 0 218 85
q34 19 47 -5l52 -104q14 -22 -10 -40q-155 -120 -335 -120z" />
    <glyph glyph-name="uni0442" unicode="&#x442;" horiz-adv-x="916" 
d="M958 885q10 0 14 -5.5t2 -13.5l-42 -158q-4 -19 -26 -19h-274l-179 -668q-2 -8 -8.5 -14.5t-15.5 -6.5h-176q-20 0 -15 21l179 668h-275q-9 0 -13 5.5t-2 13.5l41 156q5 21 26 21h764z" />
    <glyph glyph-name="uni0443" unicode="&#x443;" horiz-adv-x="978" 
d="M73 -347q-14 0 -19 8.5t3 20.5l219 339l-123 840q-3 24 22 24h155q23 0 26 -22l83 -594h7l392 599q7 17 30 17h166q14 0 18.5 -8.5t-2.5 -20.5l-793 -1187q-11 -16 -30 -16h-154z" />
    <glyph glyph-name="uni0444" unicode="&#x444;" horiz-adv-x="1759" 
d="M1395 897q146 0 233 -91.5t87 -248.5q0 -142 -71 -274t-192.5 -214.5t-259.5 -82.5q-93 0 -167 39t-119 109l-5 -25l-117 -435q-8 -21 -27 -21h-169q-28 0 -20 26l121 453q-146 -146 -328 -146q-144 0 -231 91.5t-87 245.5q0 107 42.5 211.5t113 184.5t168.5 129t202 49
q103 0 174 -45.5t104 -127.5l116 435q16 61 23 153q3 42 36 42h108q44 0 65 -30t8 -80l-127 -473q149 126 319 126zM444 170q90 0 168.5 51t122.5 130.5t44 165.5q0 90 -52 143t-142 53t-169 -51.5t-123.5 -131.5t-44.5 -166q0 -90 51 -142t145 -52zM1170 170q92 0 172 51
t125 130.5t45 165.5q0 92 -49.5 144t-141.5 52q-139 0 -240.5 -108.5t-101.5 -240.5q0 -91 50.5 -142.5t140.5 -51.5z" />
    <glyph glyph-name="uni0445" unicode="&#x445;" horiz-adv-x="947" 
d="M986 885q16 0 20 -8.5t-8 -20.5l-404 -412l180 -416q5 -13 -0.5 -20.5t-18.5 -7.5h-179q-22 0 -29 21l-108 265l-257 -272q-10 -14 -29 -14h-191q-16 0 -20 9t8 21l409 416l-177 411q-5 12 0.5 20t18.5 8h176q23 0 27 -21l106 -263l255 270q13 14 32 14h189z" />
    <glyph glyph-name="uni0446" unicode="&#x446;" horiz-adv-x="1115" 
d="M1027 885q26 0 21 -26l-178 -663h29q43 0 59.5 -23.5t4.5 -66.5l-33 -123q-10 -36 -14 -87q-4 -31 -27 -31h-148q-27 0 -38 14.5t-4 40.5l21 80h-687q-12 0 -16.5 7.5t-2.5 18.5l224 833q6 26 29 26h167q24 0 19 -26l-179 -663h379l178 663q6 26 32 26h164z" />
    <glyph glyph-name="uni0447" unicode="&#x447;" horiz-adv-x="1048" 
d="M1038 885q12 0 16.5 -8t0.5 -20l-222 -833q-10 -24 -29 -24h-169q-23 0 -19 24l87 325q-153 -149 -335 -149q-142 0 -212 85.5t-29 240.5l54 199q17 64 26 127q0 33 24 33h151q28 0 38 -17t3 -44l-65 -246q-24 -88 9.5 -137.5t120.5 -49.5q134 0 264 140l88 326
q2 11 11 19.5t20 8.5h167z" />
    <glyph glyph-name="uni0448" unicode="&#x448;" horiz-adv-x="1633" 
d="M1600 885q26 0 21 -26l-224 -833q-5 -26 -31 -26h-1333q-27 0 -19 26l224 833q6 26 29 26h167q24 0 19 -26l-177 -663h368l177 663q6 26 31 26h165q26 0 21 -26l-179 -663h368l177 663q9 26 31 26h165z" />
    <glyph glyph-name="uni0449" unicode="&#x449;" horiz-adv-x="1688" 
d="M1600 885q26 0 21 -26l-179 -663h30q44 0 61 -23.5t5 -66.5l-35 -123q-7 -29 -14 -87q-4 -31 -26 -31h-147q-27 0 -39 14.5t-5 40.5l23 80h-1262q-27 0 -19 26l224 833q6 26 29 26h167q24 0 19 -26l-177 -663h368l177 663q6 26 31 26h165q26 0 21 -26l-179 -663h368
l177 663q9 26 31 26h165z" />
    <glyph glyph-name="uni044A" unicode="&#x44a;" horiz-adv-x="1086" 
d="M679 694q155 0 231 -71t76 -200q0 -185 -139 -304t-356 -119h-442q-26 0 -21 26l179 663h-115q-10 0 -15.5 7.5t-3.5 18.5l40 146q2 9 11.5 16.5t19.5 7.5h304q11 0 17 -7t2 -19l-44 -165h256zM522 191q107 0 175 55.5t68 137.5q0 121 -159 121h-233l-85 -314h234z" />
    <glyph glyph-name="uni044B" unicode="&#x44b;" horiz-adv-x="1445" 
d="M663 694q157 0 232 -70.5t75 -200.5q0 -185 -138.5 -304t-355.5 -119h-443q-26 0 -21 26l224 833q8 26 31 26h165q26 0 21 -26l-45 -165h255zM1409 885q13 0 19 -7t2 -19l-222 -838q-8 -21 -28 -21h-166q-13 0 -19 7t-2 19l222 838q5 21 28 21h166zM507 191
q107 0 175 55.5t68 137.5q0 121 -158 121h-234l-84 -314h233z" />
    <glyph glyph-name="uni044C" unicode="&#x44c;" horiz-adv-x="1072" 
d="M663 694q157 0 232 -70.5t75 -200.5q0 -185 -138.5 -304t-355.5 -119h-443q-26 0 -21 26l224 833q8 26 31 26h165q26 0 21 -26l-45 -165h255zM507 191q107 0 175 55.5t68 137.5q0 121 -158 121h-234l-84 -314h233z" />
    <glyph glyph-name="uni044D" unicode="&#x44d;" horiz-adv-x="942" 
d="M521 897q162 0 263 -96t101 -259q0 -110 -48.5 -213t-128 -178t-186.5 -120t-220 -45q-200 0 -300 141q-15 23 5 40l97 90q20 17 45 -2q65 -85 177 -85q101 0 189 58.5t132 149.5h-336q-27 0 -19 26l19 75q8 26 33 26h335v9q0 90 -54.5 143t-150.5 53q-119 0 -221 -85
q-32 -21 -46 3l-49 96q-11 18 12 38q164 135 351 135z" />
    <glyph glyph-name="uni044E" unicode="&#x44e;" horiz-adv-x="1506" 
d="M1067 897q171 0 274 -95t103 -257q0 -147 -79 -276t-212.5 -206t-286.5 -77q-169 0 -272.5 93.5t-105.5 250.5h-176l-81 -311q-7 -21 -28 -21h-167q-28 0 -20 26l222 839q4 20 28 20h166q13 0 19 -7t2 -19l-89 -331h160q65 161 215.5 266t327.5 105zM890 170
q141 0 247 107t106 240q0 89 -53.5 142.5t-146.5 53.5q-141 0 -246.5 -106t-105.5 -239q0 -90 52.5 -144t146.5 -54z" />
    <glyph glyph-name="uni044F" unicode="&#x44f;" horiz-adv-x="1020" 
d="M1010 885q24 0 19 -26l-224 -833q-5 -26 -31 -26h-165q-11 0 -17 7t-2 19l45 165h-201l-189 -175q-18 -16 -35 -16h-194q-8 0 -10.5 7t4.5 14l216 194q-155 58 -155 247q0 185 140 304t357 119h442zM451 380h235l83 314h-234q-106 0 -174.5 -55t-68.5 -137
q0 -122 159 -122z" />
    <glyph glyph-name="uni0451" unicode="&#x451;" horiz-adv-x="987" 
d="M502 1161q-43 0 -74 31.5t-31 74.5q0 42 31 72t74 30t73.5 -29.5t30.5 -72.5t-30.5 -74.5t-73.5 -31.5zM937 1369q42 0 73 -30t31 -72q0 -43 -31 -74.5t-73 -31.5q-43 0 -73.5 31.5t-30.5 74.5t30.5 72.5t73.5 29.5zM606 897q179 0 269.5 -107.5t70.5 -268.5
q-2 -76 -45 -117t-125 -41h-530q3 -87 55 -145t164 -58q135 0 247 83q32 14 48 -14l35 -71q14 -22 -11 -43q-152 -129 -359 -129q-175 0 -277.5 94t-102.5 258q0 143 74.5 271.5t205 208t281.5 79.5zM581 720q-100 0 -182.5 -58.5t-122.5 -151.5h482q8 89 -35.5 149.5
t-141.5 60.5z" />
    <glyph glyph-name="uni0453" unicode="&#x453;" horiz-adv-x="909" 
d="M951 1270q15 -26 -9 -36l-373 -196q-21 -9 -34 9l-58 95q-5 9 -2.5 17.5t9.5 12.5l351 239q9 7 20 7t18 -9zM918 885q12 0 17.5 -7.5t1.5 -20.5l-41 -158q-8 -25 -39 -19q-78 9 -83 9h-364l-181 -663q-6 -26 -31 -26h-165q-26 0 -21 26l224 833q8 26 33 26h649z" />
    <glyph glyph-name="uni0454" unicode="&#x454;" horiz-adv-x="947" 
d="M929 748q13 -23 9 -32q-3 -5 -11 -11l-108 -73q-23 -15 -45 3q-61 80 -167 80q-103 0 -190 -59.5t-131 -150.5h346q27 0 19 -26l-19 -75q-8 -26 -33 -26h-342v-1q0 -93 58.5 -150t156.5 -57q117 0 219 85q34 19 47 -5l52 -104q14 -22 -11 -40q-155 -120 -335 -120
q-170 0 -276 97.5t-106 260.5q0 143 81 271.5t213.5 205t276.5 76.5q103 0 180 -41.5t116 -107.5z" />
    <glyph glyph-name="uni0456" unicode="&#x456;" horiz-adv-x="439" 
d="M444 1161q-47 0 -80 32.5t-33 80.5q0 46 33 78.5t80 32.5q46 0 78.5 -32.5t32.5 -78.5q0 -48 -32 -80.5t-79 -32.5zM17 0q-12 0 -18 7t-2 19l223 838q4 21 26 21h169q26 0 21 -26l-224 -838q-4 -21 -28 -21h-167z" />
    <glyph glyph-name="uni0457" unicode="&#x457;" horiz-adv-x="678" 
d="M305 1161q-43 0 -73.5 31.5t-30.5 74.5t30.5 72.5t73.5 29.5t74 -30t31 -72q0 -43 -31 -74.5t-74 -31.5zM739 1161q-42 0 -72 31.5t-30 74.5t29.5 72.5t72.5 29.5t74.5 -30t31.5 -72q0 -43 -31.5 -74.5t-74.5 -31.5zM120 0q-12 0 -18.5 7t-2.5 19l224 838q5 21 28 21h166
q12 0 18.5 -7t2.5 -19l-224 -838q-4 -21 -28 -21h-166z" />
    <glyph glyph-name="uni0458" unicode="&#x458;" horiz-adv-x="433" 
d="M437 1161q-48 0 -80 32.5t-32 80.5q0 47 32 79t80 32q47 0 79 -32.5t32 -78.5q0 -48 -32 -80.5t-79 -32.5zM-94 -391q-15 -7 -27 -0.5t-16 21.5l-42 163q-7 34 21 42q59 21 94 54.5t50 91.5l236 883q4 21 28 21h167q25 0 20 -26l-239 -892q-40 -149 -103.5 -229.5
t-188.5 -128.5z" />
    <glyph glyph-name="uni045C" unicode="&#x45c;" horiz-adv-x="1034" 
d="M489 1021l-57 95q-14 19 5 29l353 240q9 7 20 7t16 -9l80 -139q15 -26 -9 -36l-373 -196q-24 -10 -35 9zM994 885q18 0 21 -13.5t-14 -26.5l-532 -402l352 -398q12 -16 4.5 -30.5t-27.5 -14.5h-185q-15 0 -26 14l-304 366l-94 -352q-9 -28 -33 -28h-159q-12 0 -18 7.5
t-2 20.5l198 739q10 36 14 87q4 31 28 31h175q24 0 19 -26l-93 -347l453 356q17 17 38 17h185z" />
    <glyph glyph-name="uni045D" unicode="&#x45d;" horiz-adv-x="1077" 
d="M443 1232l373 -194q23 -12 34 9l58 93q13 20 -5 30l-353 241q-9 7 -20 7t-16 -10l-80 -138q-7 -13 -4 -23.5t13 -14.5zM1069 885q9 0 13.5 -5.5t2.5 -13.5l-228 -845q-3 -21 -26 -21h-168q-9 0 -13.5 6.5t-2.5 14.5l144 541l-643 -543q-25 -19 -40 -19h-99
q-9 0 -12.5 5.5t-1.5 13.5l227 847q4 19 23 19h173q9 0 12.5 -5.5t1.5 -13.5l-149 -559l644 556q29 22 36 22h106z" />
    <glyph glyph-name="uni045E" unicode="&#x45e;" horiz-adv-x="978" 
d="M594 1029q-142 0 -219.5 82t-46.5 206q8 37 33 37h94q11 0 14 -7t3 -24q-12 -69 27.5 -109.5t111.5 -40.5q73 0 133 40.5t86 109.5q15 31 34 31h99q27 0 16 -37q-44 -135 -147.5 -211.5t-237.5 -76.5zM73 -347q-14 0 -19 8.5t3 20.5l219 339l-123 840q-3 24 22 24h155
q23 0 26 -22l83 -594h7l392 599q7 17 30 17h166q14 0 18.5 -8.5t-2.5 -20.5l-793 -1187q-11 -16 -30 -16h-154z" />
    <glyph glyph-name="uni0490" unicode="&#x490;" horiz-adv-x="1133" 
d="M1303 1489q14 0 18.5 -12.5t-5.5 -32.5q-22 -63 -28 -85l-40 -148q-14 -59 -94 -59h-616l-302 -1129q-5 -23 -29 -23h-171q-12 0 -18 8.5t-4 21.5l349 1301q5 23 31 23h672l22 88q7 27 20 37t39 10h156z" />
    <glyph glyph-name="uni0491" unicode="&#x491;" horiz-adv-x="942" 
d="M991 1021q14 0 18.5 -9.5t-2.5 -22.5q-3 -8 -10 -23.5t-13 -30.5t-10 -32l-32 -124q-25 -90 -114 -90h-420l-179 -663q-6 -26 -31 -26h-165q-26 0 -21 26l224 833q8 26 33 26h481l21 80q16 56 72 56h148z" />
    <glyph glyph-name="uni04C0" unicode="&#x4c0;" horiz-adv-x="473" 
d="M36 0q-12 0 -18 8.5t-4 21.5l349 1301q5 23 31 23h168q13 0 20 -8.5t3 -21.5l-349 -1301q-5 -23 -29 -23h-171z" />
    <glyph glyph-name="uni04E2" unicode="&#x4e2;" horiz-adv-x="1719" 
d="M838 1753q8 28 35 28h561q27 0 19 -26l-35 -129q-5 -26 -31 -26h-563q-27 0 -19 26zM396 1354h172q23 0 17 -26l-255 -957l965 958q25 25 52 25h179q20 0 15 -25l-349 -1303q-5 -26 -33 -26h-173q-10 0 -15 7.5t-1 18.5l261 977l-972 -979q-23 -24 -51 -24h-178
q-23 0 -18 24l351 1304q5 26 33 26z" />
    <glyph glyph-name="uni04E3" unicode="&#x4e3;" horiz-adv-x="1077" 
d="M472 1314q5 26 33 26h561q27 0 19 -26l-33 -127q-9 -28 -33 -28h-563q-27 0 -19 26zM1069 885q9 0 13.5 -5.5t2.5 -13.5l-228 -845q-3 -21 -26 -21h-168q-9 0 -13.5 6.5t-2.5 14.5l144 541l-643 -543q-25 -19 -40 -19h-99q-9 0 -12.5 5.5t-1.5 13.5l227 847q4 19 23 19
h173q9 0 12.5 -5.5t1.5 -13.5l-149 -559l644 556q29 22 36 22h106z" />
    <glyph glyph-name="uni04EC" unicode="&#x4ec;" horiz-adv-x="1371" 
d="M748 1630q-42 0 -72 31.5t-30 74.5t29.5 72.5t72.5 29.5q44 0 75 -29.5t31 -72.5t-31 -74.5t-75 -31.5zM1184 1630q-43 0 -73.5 31.5t-30.5 74.5t30.5 72.5t73.5 29.5t73.5 -29.5t30.5 -72.5t-30.5 -74.5t-73.5 -31.5zM838 1366q250 0 397.5 -144t147.5 -384
q0 -168 -75 -325.5t-198 -272t-288.5 -183.5t-340.5 -69q-153 0 -272.5 54t-189.5 151q-16 22 9 40l153 109q22 16 36 -2q104 -137 300 -137q180 0 339 106.5t237 266.5h-517q-26 0 -21 26l40 150q5 26 33 26h521v27q0 153 -97 248.5t-271 95.5q-195 0 -382 -144
q-20 -18 -36 -2l-97 118q-16 19 8 37q259 208 564 208z" />
    <glyph glyph-name="uni04ED" unicode="&#x4ed;" horiz-adv-x="942" 
d="M463 1161q-42 0 -72 31.5t-30 74.5t29.5 72.5t72.5 29.5q44 0 75 -29.5t31 -72.5t-31 -74.5t-75 -31.5zM899 1369q43 0 73.5 -29.5t30.5 -72.5t-30.5 -74.5t-73.5 -31.5t-73.5 31.5t-30.5 74.5t30.5 72.5t73.5 29.5zM521 897q162 0 263 -96t101 -259q0 -110 -48.5 -213
t-128 -178t-186.5 -120t-220 -45q-200 0 -300 141q-15 23 5 40l97 90q20 17 45 -2q65 -85 177 -85q101 0 189 58.5t132 149.5h-336q-27 0 -19 26l19 75q8 26 33 26h335v9q0 90 -54.5 143t-150.5 53q-119 0 -221 -85q-32 -21 -46 3l-49 96q-11 18 12 38q164 135 351 135z" />
    <glyph glyph-name="uni04EE" unicode="&#x4ee;" horiz-adv-x="1301" 
d="M687 1628q-26 0 -21 26l35 128q8 26 33 26h562q28 0 20 -26l-35 -126q-2 -12 -11.5 -20t-21.5 -8h-561zM1484 1354q20 0 20 -12t-13 -26l-1151 -1297q-16 -19 -33 -19h-177q-21 0 -25.5 15t10.5 32l435 493l-271 776q-6 15 1 26.5t27 11.5h172q28 0 36 -26l207 -592
l524 592q26 26 54 26h184z" />
    <glyph glyph-name="uni04EF" unicode="&#x4ef;" horiz-adv-x="978" 
d="M382 1314q5 26 33 26h560q27 0 19 -26l-32 -127q-9 -28 -33 -28h-563q-27 0 -19 26zM73 -347q-14 0 -19 8.5t3 20.5l219 339l-123 840q-3 24 22 24h155q23 0 26 -22l83 -594h7l392 599q7 17 30 17h166q14 0 18.5 -8.5t-2.5 -20.5l-793 -1187q-11 -16 -30 -16h-154z" />
    <glyph glyph-name="uni1E3E" unicode="&#x1e3e;" horiz-adv-x="1780" 
d="M1474 1703q11 4 13.5 13.5t-5.5 22.5l-78 139q-5 9 -17 9t-21 -7l-351 -240q-18 -10 -7 -29l59 -96q11 -19 35 -9zM36 0q-13 0 -19.5 8.5t-2.5 21.5l349 1301q5 23 31 23h160q22 0 29 -21l280 -958l801 963q14 16 32 16h171q14 0 20.5 -8.5t2.5 -21.5l-349 -1301
q-5 -23 -29 -23h-170q-13 0 -19.5 9t-1.5 21l245 900l-735 -894q-21 -22 -36 -22h-17q-18 0 -23 24l-274 891l-245 -906q-4 -23 -29 -23h-171z" />
    <glyph glyph-name="uni1E3F" unicode="&#x1e3f;" horiz-adv-x="1641" 
d="M809 1038l-59 95q-5 9 -2.5 17.5t9.5 12.5l350 239q10 7 21 7.5t17 -8.5l79 -139q8 -13 5 -23t-14 -14l-372 -196q-23 -10 -34 9zM1321 897q142 0 211 -90.5t27 -245.5l-94 -356q-14 -56 -18 -108t-5 -57q-1 -23 -15.5 -31.5t-43.5 -8.5h-104q-37 0 -54 28t-7 64l118 439
q22 83 -10.5 129t-114.5 46q-76 0 -142.5 -38.5t-112.5 -98.5q0 -1 -0.5 -4t-0.5 -4l-94 -356q-14 -56 -18 -108t-5 -57q-1 -23 -15.5 -31.5t-43.5 -8.5h-104q-37 0 -54 28t-7 64l118 439q22 83 -10.5 129t-114.5 46q-75 0 -141.5 -38t-111.5 -97l-146 -550q-8 -21 -27 -21
h-167q-13 0 -19 7t-2 19l222 838q5 21 28 21h167q28 0 20 -26l-24 -94q145 132 311 132q100 0 165.5 -46t82.5 -131q163 177 356 177z" />
    <glyph glyph-name="Wgrave" unicode="&#x1e80;" horiz-adv-x="2080" 
d="M1111 1703l373 -197q22 -9 35 9l57 96q10 18 -5 29l-353 240q-9 7 -20 7t-18 -9l-78 -139q-15 -26 9 -36zM371 0q-23 0 -26 26l-67 1300q-3 28 26 28h173q28 0 28 -26l37 -967l617 975q9 18 32 18h171q25 0 28 -26l92 -967l559 975q11 18 31 18h186q15 0 20.5 -9.5
t-1.5 -21.5l-760 -1306q-12 -17 -31 -17h-139q-25 0 -28 26l-106 1041l-673 -1050q-10 -17 -30 -17h-139z" />
    <glyph glyph-name="wgrave" unicode="&#x1e81;" horiz-adv-x="1424" 
d="M658 1234l373 -196q24 -10 35 9l57 95q14 19 -5 30l-353 239q-9 7 -20 7t-16 -9l-80 -139q-15 -26 9 -36zM219 0q-22 0 -25 23l-43 838q0 24 24 24h150q24 0 24 -24l14 -590h7l349 597q10 17 29 17h151q21 0 24 -22l25 -592h7l340 597q7 17 29 17h155q14 0 19 -8t-2 -21
l-496 -839q-7 -17 -28 -17h-155q-21 0 -24 23l-28 604l-362 -611q-9 -16 -28 -16h-156z" />
    <glyph glyph-name="Wacute" unicode="&#x1e82;" horiz-adv-x="2080" 
d="M1631 1703q27 10 9 36l-78 139q-5 9 -17 9t-21 -7l-351 -240q-18 -10 -7 -29l59 -96q11 -19 35 -9zM371 0q-23 0 -26 26l-67 1300q-3 28 26 28h173q28 0 28 -26l37 -967l617 975q9 18 32 18h171q25 0 28 -26l92 -967l559 975q11 18 31 18h186q15 0 20.5 -9.5t-1.5 -21.5
l-760 -1306q-12 -17 -31 -17h-139q-25 0 -28 26l-106 1041l-673 -1050q-10 -17 -30 -17h-139z" />
    <glyph glyph-name="wacute" unicode="&#x1e83;" horiz-adv-x="1424" 
d="M1180 1234q24 10 9 36l-80 139q-5 9 -16 9t-20 -7l-353 -239q-19 -11 -5 -30l57 -95q11 -19 35 -9zM219 0q-22 0 -25 23l-43 838q0 24 24 24h150q24 0 24 -24l14 -590h7l349 597q10 17 29 17h151q21 0 24 -22l25 -592h7l340 597q7 17 29 17h155q14 0 19 -8t-2 -21
l-496 -839q-7 -17 -28 -17h-155q-21 0 -24 23l-28 604l-362 -611q-9 -16 -28 -16h-156z" />
    <glyph glyph-name="Wdieresis" unicode="&#x1e84;" horiz-adv-x="2080" 
d="M1170 1630q-43 0 -73.5 31.5t-30.5 74.5t30.5 72.5t73.5 29.5t73.5 -29.5t30.5 -72.5t-30.5 -74.5t-73.5 -31.5zM1604 1630q-42 0 -72.5 31.5t-30.5 74.5t30 72.5t73 29.5t74.5 -30t31.5 -72q0 -43 -31.5 -74.5t-74.5 -31.5zM371 0q-23 0 -26 26l-67 1300q-3 28 26 28
h173q28 0 28 -26l37 -967l617 975q9 18 32 18h171q25 0 28 -26l92 -967l559 975q11 18 31 18h186q15 0 20.5 -9.5t-1.5 -21.5l-760 -1306q-12 -17 -31 -17h-139q-25 0 -28 26l-106 1041l-673 -1050q-10 -17 -30 -17h-139z" />
    <glyph glyph-name="wdieresis" unicode="&#x1e85;" horiz-adv-x="1424" 
d="M717 1161q-43 0 -73.5 31.5t-30.5 74.5t30.5 72.5t73.5 29.5t73.5 -29.5t30.5 -72.5t-30.5 -74.5t-73.5 -31.5zM1152 1161q-43 0 -73.5 31.5t-30.5 74.5t30.5 72.5t73.5 29.5q42 0 73.5 -30t31.5 -72q0 -43 -31.5 -74.5t-73.5 -31.5zM219 0q-22 0 -25 23l-43 838
q0 24 24 24h150q24 0 24 -24l14 -590h7l349 597q10 17 29 17h151q21 0 24 -22l25 -592h7l340 597q7 17 29 17h155q14 0 19 -8t-2 -21l-496 -839q-7 -17 -28 -17h-155q-21 0 -24 23l-28 604l-362 -611q-9 -16 -28 -16h-156z" />
    <glyph glyph-name="Ygrave" unicode="&#x1ef2;" horiz-adv-x="1282" 
d="M710 1703q-24 10 -9 36l80 139q5 9 16 9t20 -7l353 -240q19 -10 5 -29l-57 -96q-11 -19 -35 -9zM1461 1354q17 0 21 -10t-7 -23l-699 -785l-137 -513q-8 -23 -32 -23h-168q-13 0 -19.5 8.5t-2.5 21.5l135 510l-273 784q-4 13 2 21.5t19 8.5h182q26 0 30 -23l203 -578
l521 587q13 14 33 14h192z" />
    <glyph glyph-name="ygrave" unicode="&#x1ef3;" horiz-adv-x="978" 
d="M436 1234l373 -196q23 -10 34 9l58 95q14 19 -5 30l-351 239q-27 17 -38 -2l-80 -139q-15 -26 9 -36zM73 -347q-14 0 -19 8.5t3 20.5l219 339l-123 840q-3 24 22 24h155q23 0 26 -22l83 -594h7l392 599q7 17 30 17h166q14 0 18.5 -8.5t-2.5 -20.5l-793 -1187
q-11 -16 -30 -16h-154z" />
    <glyph glyph-name="endash" unicode="&#x2013;" horiz-adv-x="1147" 
d="M1040 371q0 -27 -26 -27h-886q-26 0 -26 26v128q0 26 26 26h886q26 0 26 -26v-127z" />
    <glyph glyph-name="emdash" unicode="&#x2014;" horiz-adv-x="1598" 
d="M1491 371q0 -27 -26 -27h-1337q-26 0 -26 26v128q0 26 26 26h1337q26 0 26 -26v-127z" />
    <glyph glyph-name="quoteleft" unicode="&#x2018;" horiz-adv-x="447" 
d="M493 1368q14 6 18.5 3.5t12.5 -14.5l14 -24q9 -18 -10 -28q-99 -67 -137 -139q10 4 24 4q42 0 74 -34t32 -82q0 -60 -45 -102.5t-105 -42.5q-51 0 -85 33.5t-34 91.5q0 88 74 184.5t167 149.5z" />
    <glyph glyph-name="quoteright" unicode="&#x2019;" horiz-adv-x="447" 
d="M330 908q-15 -6 -20 -4t-11 14l-16 24q-8 16 12 30q95 63 137 137q-7 -2 -26 -2q-42 0 -74 33.5t-32 81.5q0 60 45 102t105 42q52 0 86.5 -33.5t34.5 -91.5q0 -86 -74 -183t-167 -150z" />
    <glyph glyph-name="quotesinglbase" unicode="&#x201a;" horiz-adv-x="447" 
d="M28 -215q-13 -6 -18.5 -4t-11.5 14l-15 24q-9 20 12 30q99 67 135 139q-10 -4 -24 -4q-42 0 -74 34.5t-32 82.5q0 59 45 101.5t104 42.5q51 0 86.5 -34.5t35.5 -92.5q0 -86 -74.5 -182t-168.5 -151z" />
    <glyph glyph-name="quotedblleft" unicode="&#x201c;" horiz-adv-x="801" 
d="M493 1368q14 6 18.5 3.5t12.5 -14.5l14 -24q9 -20 -10 -30q-101 -66 -137 -138q5 3 24 3q42 0 74 -33t32 -83q0 -59 -45.5 -101.5t-104.5 -42.5q-51 0 -85 34t-34 92q0 86 74 182.5t167 151.5zM845 1368q15 6 20 3.5t11 -14.5l14 -24q10 -19 -10 -30q-97 -64 -137 -138
q5 3 24 3q42 0 75 -33.5t33 -82.5q0 -59 -46 -101.5t-104 -42.5q-53 0 -87 34t-34 92q0 86 74 182.5t167 151.5z" />
    <glyph glyph-name="quotedblright" unicode="&#x201d;" horiz-adv-x="800" 
d="M330 908q-15 -6 -20 -4t-11 14l-16 24q-8 16 12 30q95 63 137 137q-7 -2 -26 -2q-42 0 -74 33.5t-32 81.5q0 60 45 102t105 42q52 0 86.5 -33.5t34.5 -91.5q0 -86 -74 -183t-167 -150zM682 908q-15 -6 -20 -4t-11 14l-14 24q-10 15 10 30q95 63 137 137q-5 -2 -24 -2
q-42 0 -74.5 33.5t-32.5 81.5q0 60 45 102t104 42q53 0 87 -33.5t34 -91.5q0 -86 -74 -183t-167 -150z" />
    <glyph glyph-name="quotedblbase" unicode="&#x201e;" horiz-adv-x="801" 
d="M28 -215q-13 -6 -18.5 -4t-11.5 14l-15 24q-9 20 12 30q99 67 135 139q-10 -4 -24 -4q-42 0 -74 34.5t-32 82.5q0 59 45 101.5t104 42.5q51 0 86.5 -34.5t35.5 -92.5q0 -86 -74.5 -182t-168.5 -151zM382 -215q-15 -6 -20 -4t-11 14l-16 24q-8 19 12 30q96 63 137 139
q-10 -4 -24 -4q-42 0 -75 34.5t-33 82.5q0 59 45.5 101.5t104.5 42.5q52 0 86.5 -34.5t34.5 -92.5q0 -86 -73.5 -182t-167.5 -151z" />
    <glyph glyph-name="dagger" unicode="&#x2020;" horiz-adv-x="765" 
d="M769 885q13 0 19 -7t2 -19l-45 -168q-5 -21 -26 -21h-174l-285 -996q-4 -21 -26 -21h-126q-26 0 -21 26l253 991h-165q-12 0 -17.5 7.5t-1.5 20.5l44 166q4 21 27 21h169l123 483q4 20 26 20h177q26 0 21 -27l-136 -476h162z" />
    <glyph glyph-name="daggerdbl" unicode="&#x2021;" horiz-adv-x="765" 
d="M783 937q12 0 17.5 -8t3.5 -20l-40 -147q-5 -19 -28 -19h-172l-57 -201h170q26 0 21 -27l-40 -147q-4 -21 -28 -21h-179l-192 -673q-5 -21 -26 -21h-127q-26 0 -21 26l172 668h-168q-26 0 -21 28l40 147q5 20 27 20h172l52 201h-165q-25 0 -20 26l39 147q5 21 28 21h167
l111 431q4 20 26 20h175q13 0 19 -7.5t2 -19.5l-121 -424h163z" />
    <glyph glyph-name="bullet" unicode="&#x2022;" horiz-adv-x="581" 
d="M297 260q-81 0 -140.5 57.5t-59.5 138.5t59.5 139.5t140.5 58.5t137.5 -58.5t56.5 -139.5t-56.5 -138.5t-137.5 -57.5z" />
    <glyph glyph-name="ellipsis" unicode="&#x2026;" horiz-adv-x="1183" 
d="M132 -14q-53 0 -91 38.5t-38 91.5q0 52 38 89.5t91 37.5q52 0 90 -37.5t38 -89.5q0 -53 -38 -91.5t-90 -38.5zM503 -14q-52 0 -89 38.5t-37 91.5q0 52 37 89.5t89 37.5q53 0 91.5 -37.5t38.5 -89.5q0 -53 -38.5 -91.5t-91.5 -38.5zM876 -14q-53 0 -90.5 38.5t-37.5 91.5
q0 52 37.5 89.5t90.5 37.5q52 0 91.5 -38t39.5 -89q0 -53 -39.5 -91.5t-91.5 -38.5z" />
    <glyph glyph-name="perthousand" unicode="&#x2030;" horiz-adv-x="1794" 
d="M443 908q-91 0 -147 56t-56 143q0 116 89.5 203t201.5 87q90 0 146.5 -56t56.5 -142q0 -113 -89.5 -202t-201.5 -89zM-38 0l1232 1388h205l-1234 -1388h-203zM455 1045q58 0 101 42.5t43 96.5q0 35 -23.5 55.5t-60.5 20.5q-57 0 -99.5 -42t-42.5 -95q0 -36 23 -57t59 -21
zM826 -9q-91 0 -147 56.5t-56 143.5q0 115 90.5 202.5t201.5 87.5q90 0 146.5 -56.5t56.5 -143.5q0 -112 -90 -201t-202 -89zM1399 -9q-90 0 -146.5 56.5t-56.5 143.5q0 115 90 202.5t201 87.5q91 0 147 -56.5t56 -143.5q0 -112 -89 -201t-202 -89zM838 128q58 0 101 42.5
t43 96.5q0 35 -23 56t-60 21q-57 0 -99.5 -42t-42.5 -95q0 -36 22.5 -57.5t58.5 -21.5zM1413 128q58 0 101 42.5t43 96.5q0 35 -23.5 56t-59.5 21q-59 0 -102 -42t-43 -95q0 -36 24 -57.5t60 -21.5z" />
    <glyph glyph-name="guilsinglleft" unicode="&#x2039;" horiz-adv-x="630" 
d="M76 377l160 -342q8 -16 23 -16h142q19 0 27 12t4 31l-106 334l2 5l288 331q14 20 11.5 33t-20.5 13h-137q-18 0 -38 -20l-342 -335q-11 -9 -15 -22t1 -24z" />
    <glyph glyph-name="guilsinglright" unicode="&#x203a;" horiz-adv-x="630" 
d="M531 420l-160 342q-8 16 -22 16h-142q-19 0 -27.5 -12.5t-4.5 -31.5l106 -333l-2 -5l-288 -332q-14 -20 -11.5 -32.5t20.5 -12.5h137q19 0 38 19l342 335q26 23 14 47z" />
    <glyph glyph-name="fraction" unicode="&#x2044;" horiz-adv-x="380" 
d="M741 1368q17 20 37 20h55q16 0 20 -8.5t-8 -22.5l-1072 -1336q-18 -21 -35 -21h-56q-16 0 -20 9t8 22z" />
    <glyph glyph-name="Euro" unicode="&#x20ac;" horiz-adv-x="1391" 
d="M1475 1145q7 -13 9.5 -19t0.5 -13t-11 -13l-136 -86q-21 -13 -50 12q-109 123 -287 123q-148 0 -287 -73t-232 -193h417q26 0 21 -26l-26 -85q-4 -20 -28 -20h-463q-33 -76 -40 -153h460q28 0 20 -28l-26 -83q-4 -21 -27 -21h-420q26 -119 118 -190.5t241 -71.5
q112 0 210.5 39.5t162.5 93.5q30 29 54 2l95 -123q18 -21 -14 -45q-248 -184 -536 -184q-245 0 -396 129.5t-168 349.5h-83q-13 0 -19 7.5t-2 20.5l23 83q7 21 27 21h58q7 71 33 153h-42q-13 0 -19 7t-2 20l21 84q4 20 28 20h73q116 213 331.5 348t459.5 135
q153 0 272 -60.5t179 -160.5z" />
    <glyph glyph-name="trademark" unicode="&#x2122;" horiz-adv-x="1213" 
d="M703 1354q21 0 16 -21l-20 -64q-5 -21 -26 -21h-121l-97 -359q-5 -23 -26 -23h-65q-20 0 -15 23l97 359h-123q-19 0 -14 21l17 64q4 21 26 21h351zM1352 1354q8 0 12 -5t2 -14l-120 -446q-5 -23 -26 -23h-64q-21 0 -16 23l75 274l-217 -278q-8 -14 -24 -14h-33
q-15 0 -18 14l-74 276l-73 -272q-5 -23 -28 -23h-62q-21 0 -16 23l120 446q5 19 26 19h71q14 0 19 -14l87 -306l243 306q11 14 29 14h87z" />
    <glyph glyph-name="oneeighth" unicode="&#x215b;" horiz-adv-x="1303" 
d="M972 1368q10 20 31 20h54q17 0 23 -8.5t-2 -22.5l-714 -1336q-13 -21 -31 -21h-54q-17 0 -22.5 9t2.5 22zM566 1388q8 0 12 -4t2 -11l-155 -576q-5 -18 -22 -18h-66q-19 0 -14 18l107 402l-125 -34q-8 -2 -14 1.5t-5 10.5l13 50q0 14 17 21q102 39 161 121q19 19 32 19
h57zM883 -12q-79 0 -121.5 36t-42.5 94q0 68 52 125.5t116 70.5l-4 2q-69 33 -69 107q0 84 69 144.5t171 60.5q73 0 115 -33t42 -93q0 -64 -42 -112t-105 -74l-4 -2q31 -6 57.5 -37.5t26.5 -80.5q0 -87 -76.5 -147.5t-184.5 -60.5zM988 366q49 0 87.5 35.5t38.5 79.5
q0 64 -83 64q-49 0 -86 -31.5t-37 -76.5q0 -31 22 -51t58 -20zM906 66q59 0 100.5 34t41.5 89q0 33 -22 54t-64 21q-60 0 -103 -39t-43 -88q0 -32 25.5 -51.5t64.5 -19.5z" />
    <glyph glyph-name="threeeighths" unicode="&#x215c;" horiz-adv-x="1289" 
d="M628 998q0 -97 -81 -168.5t-186 -71.5q-123 0 -174 106q-8 11 4 19l57 46q13 9 19 -4q43 -78 115 -78q58 0 104.5 40.5t46.5 94.5q0 48 -35.5 66.5t-112.5 -7.5l-33 56q-3 7 6 16l210 180h-233q-14 0 -10 14l19 68q3 13 15 13h344q15 0 12 -13l-19 -68q-1 -5 -19 -23
l-184 -154q64 2 99.5 -35t35.5 -97zM1097 1388q17 0 23 -8.5t-2 -22.5l-714 -1336q-8 -12 -13.5 -16.5t-17.5 -4.5h-54q-17 0 -22.5 9t2.5 22l713 1337q10 20 31 20h54zM1215 502q0 -64 -42.5 -112t-105.5 -74l-3 -2q31 -6 57 -37.5t26 -80.5q0 -87 -76 -147.5t-184 -60.5
q-80 0 -123.5 36t-43.5 94q0 68 52.5 125.5t117.5 70.5l-3 2q-71 34 -71 107q0 85 69 145t172 60q73 0 115.5 -33t42.5 -93zM989 366q50 0 89.5 35.5t39.5 79.5q0 31 -23 47.5t-61 16.5q-49 0 -87 -31.5t-38 -76.5q0 -31 22 -51t58 -20zM909 66q59 0 101 34t42 89
q0 33 -22.5 54t-66.5 21q-59 0 -101.5 -39t-42.5 -88q0 -32 24.5 -51.5t65.5 -19.5z" />
    <glyph glyph-name="fiveeighths" unicode="&#x215d;" horiz-adv-x="1299" 
d="M623 1005q0 -100 -82 -174t-189 -74q-58 0 -103 26.5t-67 77.5l78 61q27 -79 111 -79q58 0 104 43t46 95q0 36 -22.5 57.5t-61.5 21.5q-48 0 -92 -34l-76 7q-15 3 -12 17l87 325q3 13 19 13h312q6 0 10 -4t2 -8l-19 -71q-3 -10 -17 -10h-233l-48 -177q52 29 104 29
q72 0 110.5 -39t38.5 -103zM1090 1388q16 0 21 -8.5t-2 -22.5l-713 -1336q-10 -21 -32 -21h-53q-17 0 -22.5 9t1.5 22l713 1337q13 20 31 20h56zM1225 502q0 -64 -42 -112t-105 -74l-4 -2q31 -6 57.5 -37.5t26.5 -80.5q0 -87 -76 -147.5t-186 -60.5q-79 0 -122 36t-43 94
q0 68 52.5 125.5t115.5 70.5l-3 2q-70 36 -70 107q0 85 69 145t172 60q72 0 115 -33t43 -93zM1000 366q49 0 88.5 35.5t39.5 79.5q0 31 -22.5 47.5t-60.5 16.5q-49 0 -87 -31.5t-38 -76.5q0 -31 22 -51t58 -20zM920 66q59 0 99.5 34t40.5 89q0 34 -21 54.5t-65 20.5
q-59 0 -101.5 -39t-42.5 -88q0 -32 24.5 -51.5t65.5 -19.5z" />
    <glyph glyph-name="seveneighths" unicode="&#x215e;" horiz-adv-x="1235" 
d="M203 779q-15 0 -19.5 8.5t5.5 21.5l380 484h-258q-5 0 -8 3t-1 7l17 72q3 13 16 13h384q9 0 6 -13l-5 -20q-1 -5 -10 -17l-431 -545q-10 -14 -27 -14h-49zM916 1368q10 20 32 20h53q17 0 23 -8.5t-2 -22.5l-713 -1336q-13 -21 -31 -21h-54q-17 0 -23 9t2 22zM833 -12
q-79 0 -122 36t-43 94q0 68 53 125.5t116 70.5l-4 2q-69 36 -69 107q0 85 69 145t172 60q72 0 115 -33t43 -93q0 -64 -42.5 -112t-106.5 -74l-4 -2q31 -6 58 -37.5t27 -80.5q0 -87 -77 -147.5t-185 -60.5zM937 366q50 0 89.5 35.5t39.5 79.5q0 31 -22.5 47.5t-62.5 16.5
q-49 0 -86.5 -31.5t-37.5 -76.5q0 -31 22 -51t58 -20zM856 66q59 0 100.5 34t41.5 89q0 34 -21.5 54.5t-65.5 20.5q-60 0 -102 -39t-42 -88q0 -32 25 -51.5t64 -19.5z" />
    <glyph glyph-name="partialdiff" unicode="&#x2202;" horiz-adv-x="1067" 
d="M521 1354q140 -1 245.5 -40.5t170.5 -112.5t97 -170t32 -219q0 -121 -28.5 -241t-85 -225.5t-133 -187t-180 -128.5t-219.5 -47q-167 0 -265 91.5t-98 246.5q0 100 43.5 195.5t116 167t172 115t205.5 43.5q90 0 147.5 -39t77.5 -97q19 59 22.5 119t-13.5 120.5t-55 107
t-111.5 76t-173.5 30.5zM453 182q118 0 214.5 93.5t96.5 201.5q0 71 -52 119t-131 48q-119 0 -213 -91t-94 -204q0 -74 50.5 -120.5t128.5 -46.5z" />
    <glyph glyph-name="emptyset" unicode="&#x2205;" horiz-adv-x="1542" 
d="M1574 1314q18 -15 0 -37l-118 -118q96 -138 96 -321q0 -163 -74 -319t-195 -271.5t-284 -186.5t-333 -71q-180 0 -305 74l-116 -116q-8 -8 -18.5 -8.5t-18.5 8.5l-113 111q-7 7 -7 18t7 18l112 112q-89 133 -89 310q0 162 73.5 318.5t194 273t283.5 188t332 71.5
q166 0 297 -72l129 129q17 17 36 2zM347 555q0 -95 37 -171l739 737q-74 30 -161 30q-119 0 -233 -51t-197 -133.5t-134 -191.5t-51 -220zM1324 800q0 104 -43 184l-746 -746q77 -33 171 -33q120 0 234.5 51t198 133t134.5 191t51 220z" />
    <glyph glyph-name="product" unicode="&#x220f;" horiz-adv-x="1322" 
d="M-3 0q-12 0 -18.5 7t-2.5 19l350 1307q4 21 26 21h1099q26 0 21 -26l-351 -1307q-5 -21 -28 -21h-171q-12 0 -18.5 7t-2.5 19l302 1126h-705l-302 -1131q-4 -21 -28 -21h-171z" />
    <glyph glyph-name="summation" unicode="&#x2211;" horiz-adv-x="1201" 
d="M1329 1354q13 0 19 -7t2 -19l-41 -155q-5 -21 -26 -21h-712l364 -414q11 -14 7 -33l-12 -66q-4 -15 -19 -26l-581 -412h691q28 0 20 -26l-40 -154q-4 -21 -27 -21h-974q-13 0 -19 7t-2 19l37 149q3 14 17 26l673 478l-407 475q-11 14 -6 33l37 146q4 21 26 21h973z" />
    <glyph glyph-name="minus" unicode="&#x2212;" horiz-adv-x="1029" 
d="M146 557q-26 0 -21 28l40 147q5 21 26 21h807q12 0 17.5 -7.5t1.5 -20.5l-38 -147q-5 -21 -26 -21h-807z" />
    <glyph glyph-name="radical" unicode="&#x221a;" horiz-adv-x="1197" 
d="M460 318l718 1055q10 15 30 15h175q14 0 19 -8.5t-3 -20.5l-922 -1343q-11 -16 -29 -16h-115q-22 0 -26 21l-149 838q-3 26 23 26h161q23 0 26 -22z" />
    <glyph glyph-name="infinity" unicode="&#x221e;" horiz-adv-x="1579" 
d="M574 903q125 0 191.5 -65t74.5 -158h7q46 84 152 153.5t237 69.5q129 0 207.5 -72.5t78.5 -214.5q0 -130 -63 -248.5t-175 -193.5t-244 -75q-131 0 -205.5 71.5t-76.5 157.5h-5q-60 -92 -156.5 -159.5t-219.5 -67.5q-130 0 -208.5 77.5t-78.5 213.5q0 93 37 184.5
t100 164t154.5 117.5t192.5 45zM420 288q88 0 157.5 68t87.5 165q18 83 -17.5 137.5t-114.5 54.5q-106 0 -181.5 -84.5t-75.5 -192.5q0 -71 40.5 -109.5t103.5 -38.5zM1076 286q106 0 182.5 86.5t76.5 189.5q0 72 -40 111.5t-106 39.5q-89 0 -162 -63t-95 -168
q-18 -85 22.5 -140.5t121.5 -55.5z" />
    <glyph glyph-name="integral" unicode="&#x222b;" horiz-adv-x="728" 
d="M981 1316q33 -31 12 -52l-77 -89q-20 -20 -40 -5q-46 35 -98 35q-68 0 -128.5 -44t-85.5 -137l-279 -1047q-43 -157 -152 -240.5t-246 -83.5q-139 0 -224 81q-32 32 -12 53l78 88q19 22 38 5q45 -34 99 -34q69 0 130 43.5t86 136.5l279 1047q41 157 149.5 240.5
t247.5 83.5q138 0 223 -81z" />
    <glyph glyph-name="approxequal" unicode="&#x2248;" horiz-adv-x="1008" 
d="M932 866q23 16 33 -7l38 -90q5 -19 -9 -33q-138 -129 -270 -129q-46 0 -79.5 14t-53.5 33.5t-38.5 39t-46 33.5t-65.5 14q-91 0 -196 -88q-11 -10 -20 -8t-13 15l-37 86q-8 18 7 33q67 60 130 95t141 35q46 0 79.5 -14t53.5 -33.5t38.5 -39.5t46 -34t65.5 -14
q55 0 101 25t95 67zM821 450q23 16 33 -7l36 -91q8 -18 -7 -33q-139 -128 -270 -128q-46 0 -79.5 14t-53.5 33.5t-38.5 39t-46 33.5t-65.5 14q-55 0 -101 -24t-97 -65q-9 -10 -18.5 -8t-14.5 15l-35 87q-8 19 7 33q64 59 128.5 94.5t142.5 35.5q46 0 79 -14t52.5 -33.5
t38 -39.5t46 -34t65.5 -14q40 0 79 15.5t63.5 32.5t55.5 44z" />
    <glyph glyph-name="notequal" unicode="&#x2260;" horiz-adv-x="1029" 
d="M1052 956q27 0 19 -27l-38 -148q-5 -21 -26 -21h-325l-127 -210h389q12 0 17.5 -7.5t1.5 -20.5l-38 -147q-5 -21 -26 -21h-462l-203 -337q-13 -17 -31 -17h-142q-12 0 -14 7.5t5 16.5l198 330h-158q-26 0 -21 28l40 147q4 21 26 21h231l127 210h-295q-26 0 -21 28l40 147
q5 21 26 21h368l199 334q12 20 37 20h137q25 0 10 -27l-196 -327h252z" />
    <glyph glyph-name="lessequal" unicode="&#x2264;" horiz-adv-x="985" 
d="M220 934l-33 -115q-3 -15 11 -21l673 -352q25 -13 32 14l38 137q6 24 -7 28l-476 238l601 244q19 6 24 26l42 151q7 28 -25 16l-859 -345q-17 -6 -21 -21zM5 0q-11 0 -16 7t-1 17l35 137q8 20 24 20h744q25 0 20 -25l-37 -137q-5 -19 -24 -19h-745z" />
    <glyph glyph-name="greaterequal" unicode="&#x2265;" horiz-adv-x="985" 
d="M1000 819l31 115q5 16 -10 21l-672 352q-24 10 -33 -14l-38 -137q-6 -23 8 -28l476 -238l-602 -244q-20 -6 -23 -26l-42 -153q-5 -13 2.5 -16.5t22.5 2.5l859 345q17 6 21 21zM-3 0q-12 0 -18 7t-2 17l37 137q5 20 22 20h745q12 0 17.5 -7t1.5 -18l-36 -137
q-5 -19 -25 -19h-742z" />
    <glyph glyph-name="lozenge" unicode="&#x25ca;" horiz-adv-x="1568" 
d="M1005 1366q34 25 54 0l480 -660q19 -27 -15 -52l-831 -659q-36 -25 -54 0l-483 659q-21 26 16 52zM968 1113l-555 -440l316 -425l557 439z" />
    <glyph glyph-name="W.ss01" horiz-adv-x="1975" 
d="M2152 1355q14 0 18 -10t-9 -28l-989 -1300q-19 -27 -37 -27h-21q-18 0 -24 27l-97 426l-323 -427q-17 -26 -35 -26h-22q-19 0 -25 26l-305 1300q-5 18 4.5 28t23.5 10h184q16 0 24 -37l210 -926l210 284l-148 642q-4 17 6 27.5t24 10.5h182q11 0 15.5 -7.5t10.5 -28.5
l89 -404l298 404q26 35 45 35h184q13 0 16.5 -9t-9.5 -29l-484 -641l63 -283l694 929q25 34 45 34h182z" />
    <glyph glyph-name="i.loclTRK" horiz-adv-x="433" 
d="M436 1140q-46 0 -80.5 34t-34.5 81q0 46 34 80t81 34q46 0 80 -33.5t34 -80.5t-34 -81t-80 -34zM19 0q-13 0 -19 7t-2 19l222 838q4 21 28 21h167q13 0 19 -7t2 -19l-223 -838q-7 -21 -27 -21h-167z" />
    <glyph glyph-name="zero.osf" horiz-adv-x="1029" 
d="M394 -23q-160 0 -257 97t-97 251q0 143 86 274.5t223.5 211t282.5 79.5q158 0 255 -96.5t97 -248.5q0 -144 -86 -276.5t-223 -212t-281 -79.5zM446 191q121 0 220 95.5t99 211.5q0 79 -50.5 129t-134.5 50q-121 0 -221 -94.5t-100 -211.5q0 -79 51 -129.5t136 -50.5z" />
    <glyph glyph-name="one.osf" horiz-adv-x="562" 
d="M387 876h172q13 0 19 -7t2 -20l-221 -828q-5 -21 -28 -21h-173q-26 0 -21 26l139 519l-163 -24q-29 0 -24 26l26 111q3 26 27 29q51 11 93 39.5t65.5 56.5t53.5 73q13 20 33 20z" />
    <glyph glyph-name="two.osf" horiz-adv-x="1020" 
d="M0 0q-12 0 -18.5 7t-2.5 19l30 113q4 18 22 26l453 180q57 24 94 42.5t78 47t61.5 63t20.5 75.5q0 55 -39 88t-121 33q-96 0 -168.5 -50.5t-107.5 -133.5q-11 -19 -28 -19h-161q-14 0 -19 7.5t0 20.5q30 75 76.5 138.5t111.5 115.5t154.5 81t193.5 29q167 0 250 -69.5
t83 -178.5q0 -111 -82.5 -195t-219.5 -141l-284 -124h470q13 0 19 -7t2 -20l-33 -127q-5 -21 -28 -21h-807z" />
    <glyph glyph-name="three.osf" horiz-adv-x="1062" 
d="M1000 885q13 0 19 -7t2 -19l-39 -154q-4 -16 -17 -26l-411 -332q153 -7 231.5 -92t78.5 -217q0 -139 -80.5 -260.5t-213 -192.5t-280.5 -71q-136 0 -240 63.5t-149 177.5q-13 29 7 44l122 88q7 5 12.5 6t11.5 -3.5t10 -9t12 -14.5q32 -69 93.5 -108t144.5 -39
q136 0 236.5 94t100.5 213q0 71 -40 116t-116 45q-71 0 -137 -29q-26 -9 -35 17l-51 117q-11 22 6 39l447 360h-482q-27 0 -19 26l38 147q4 21 28 21h710z" />
    <glyph glyph-name="four.osf" horiz-adv-x="1103" 
d="M882 -9q13 0 19 -7t2 -20l-39 -148q-4 -21 -27 -21h-113l-64 -243q-4 -21 -28 -21h-144q-13 0 -19 7t-2 19l62 238h-611q-12 0 -17.5 7.5t-1.5 20.5l40 153q4 23 30 40q205 124 379 360t253 488q4 21 26 21h163q12 0 17.5 -7.5t1.5 -20.5q-76 -260 -239 -493t-370 -381
l381 5l37 139q5 21 22 24l158 36q14 2 20.5 -4t2.5 -20l-45 -173z" />
    <glyph glyph-name="five.osf" 
d="M536 410q152 0 236.5 -91.5t84.5 -242.5q0 -148 -76 -277.5t-205 -207t-277 -77.5q-133 0 -231.5 63t-154.5 177q-11 17 7 33l130 107q20 17 35 -7q73 -154 240 -154q129 0 218 90.5t89 209.5q0 72 -45.5 116.5t-123.5 44.5q-116 0 -213 -97l-177 57q-22 7 -17 32
l180 678q5 21 28 21h722q13 0 19 -7t2 -19l-40 -149q-5 -21 -26 -21h-538l-98 -358q106 79 231 79z" />
    <glyph glyph-name="six.osf" horiz-adv-x="1077" 
d="M469 -17q-175 0 -275 113.5t-100 320.5q0 136 43.5 272t127.5 255t195.5 211t258 145.5t305.5 53.5q13 0 19 -7.5t2 -20.5l-42 -149q-5 -21 -21 -21q-98 0 -190 -30.5t-161.5 -79t-126.5 -111t-92.5 -126t-50.5 -123.5q56 70 143.5 112t177.5 42q154 0 243.5 -89
t89.5 -241q0 -105 -44.5 -202.5t-118.5 -168.5t-175 -113.5t-208 -42.5zM489 182q118 0 213 88t95 202q0 77 -48.5 125.5t-130.5 48.5q-119 0 -213 -86t-94 -199q0 -79 47.5 -129t130.5 -50z" />
    <glyph glyph-name="seven.osf" horiz-adv-x="1001" 
d="M1043 805q-3 -11 -19 -33l-875 -1225q-11 -16 -29 -16h-174q-14 0 -18 8.5t4 21.5l816 1128h-599q-12 0 -17.5 7.5t-1.5 20.5l38 147q4 21 28 21h833q14 0 21.5 -9.5t3.5 -23.5z" />
    <glyph glyph-name="eight.osf" horiz-adv-x="1032" 
d="M391 -17q-172 0 -266.5 77t-94.5 207q0 148 112 269.5t255 159.5l-6 3q-60 29 -102.5 87.5t-42.5 145.5q0 115 72 216t190.5 159.5t249.5 58.5q147 0 235 -73.5t88 -195.5q0 -126 -89.5 -234.5t-222.5 -161.5l-11 -5q34 -9 66 -27t63 -48t49.5 -78t18.5 -107
q0 -126 -77.5 -230.5t-206.5 -163.5t-280 -59zM611 814q101 0 180 70t79 161q0 62 -42 98.5t-116 36.5q-104 0 -183 -68t-79 -157q0 -64 44 -102.5t117 -38.5zM434 172q119 0 206 72t87 174q0 67 -47.5 109t-132.5 42q-117 0 -204.5 -75t-87.5 -176q0 -71 49.5 -108.5
t129.5 -37.5z" />
    <glyph glyph-name="nine.osf" horiz-adv-x="1077" 
d="M604 885q175 0 275 -113.5t100 -320.5q0 -136 -43.5 -272t-127 -255t-195 -211t-258.5 -145.5t-306 -53.5q-13 0 -19 7.5t-2 20.5l41 149q5 21 21 21q98 0 190.5 30.5t162.5 79t126.5 111t92 126t50.5 123.5q-56 -70 -143.5 -112t-177.5 -42q-154 0 -244 89t-90 241
q0 140 75.5 262t201.5 193.5t270 71.5zM583 686q-118 0 -212.5 -88t-94.5 -202q0 -77 48.5 -125.5t130.5 -48.5q119 0 213 86t94 199q0 79 -48 129t-131 50z" />
    </font>
</defs>
</svg>
