<?xml version="1.0" standalone="no"?>
<!DOCTYPE svg PUBLIC "-//W3C//DTD SVG 1.1//EN" "http://www.w3.org/Graphics/SVG/1.1/DTD/svg11.dtd" >
<svg xmlns="http://www.w3.org/2000/svg" xmlns:xlink="http://www.w3.org/1999/xlink" version="1.1">
<metadata>
Created by FontForge 20170731 at Sat Dec 18 21:17:03 2021
 By Aleksey,,,
Copyright (c) 2018 by Connary Fagen. All rights reserved.
</metadata>
<defs>
<font id="VentiCF-RegularItalic" horiz-adv-x="1011" >
  <font-face 
    font-family="Venti CF"
    font-weight="400"
    font-style="italic"
    font-stretch="normal"
    units-per-em="2048"
    panose-1="0 0 5 0 0 0 0 0 0 0"
    ascent="1638"
    descent="-410"
    x-height="885"
    cap-height="1354"
    bbox="-389.297 -694 2414.62 1942"
    underline-thickness="86"
    underline-position="-259"
    slope="-15"
    unicode-range="U+0020-FB01"
  />
<missing-glyph horiz-adv-x="867" 
d="M712 1388v-1735h-551v1735h551zM578 1272h-286v-57h112v-64h-114v-58h288v58h-115v64h115v57zM463 1048h-173v-180h288v59h-115v121zM404 989v-62h-57v62h57zM578 821h-288v-57h114v-65h-114v-57h173v122h115v57zM578 717h-57v-115h-231v-59h288v174zM578 505h-174v-97
h59v40h58v-82h-174v139h-57v-196h288v196zM578 205h-288v-196h288v196zM521 148v-82h-174v82h174zM578 -31h-288v-58h121l-121 -81v-57h288v57h-177l121 81h56v58z" />
    <glyph glyph-name="fi" unicode="fi" horiz-adv-x="975" 
d="M965 885q21 0 16 -19l-228 -852q-3 -14 -19 -14h-102q-21 0 -16 19l198 741h-396l-199 -746q-3 -14 -19 -14h-105q-18 0 -13 19l197 741h-116q-8 0 -12.5 5t-2.5 14l24 92q5 14 19 14h123l50 191q41 154 143.5 237.5t238.5 83.5q127 0 207 -74q23 -23 9 -40l-49 -54
q-14 -14 -31 -2q-54 45 -125 45q-36 0 -71.5 -10t-73 -33.5t-69 -70t-48.5 -110.5l-44 -163h514z" />
    <glyph glyph-name="f_f" unicode="ff" horiz-adv-x="1227" 
d="M1486 1323q24 -24 10 -40l-49 -54q-15 -15 -31 -2q-57 45 -125 45q-37 0 -72.5 -10t-73 -33.5t-68.5 -69.5t-48 -111l-43 -163h243q20 0 15 -19l-24 -92q-3 -14 -19 -14h-248l-200 -746q-5 -14 -21 -14h-102q-19 0 -14 19l198 741h-397l-198 -743q-5 -17 -23 -17h-101
q-18 0 -13 19l197 741h-116q-10 0 -13 4.5t-1 16.5l23 87q4 17 22 17h118l49 179q44 161 157.5 251.5t265.5 90.5q161 0 238 -110q106 101 257 101q129 0 207 -74zM849 885l50 191q18 66 47 120q-44 85 -160 85q-40 0 -79 -10.5t-82.5 -36t-79.5 -77.5t-56 -126l-38 -146
h398z" />
    <glyph glyph-name="f_f_i" unicode="ffi" horiz-adv-x="1562" 
d="M1500 885q20 0 15 -19l-227 -852q-5 -14 -19 -14h-103q-20 0 -15 19l198 741h-396l-200 -746q-5 -14 -21 -14h-102q-19 0 -14 19l198 741h-397l-198 -743q-5 -17 -23 -17h-101q-18 0 -13 19l197 741h-116q-10 0 -13 4.5t-1 16.5l23 87q4 17 22 17h118l49 179
q44 161 157.5 251.5t265.5 90.5q161 0 238 -110q106 101 257 101q129 0 207 -74q24 -24 10 -40l-49 -54q-15 -15 -31 -2q-57 45 -125 45q-37 0 -72.5 -10t-73 -33.5t-68.5 -69.5t-48 -111l-43 -163h514zM849 885l50 191q18 66 47 120q-44 85 -160 85q-40 0 -79 -10.5
t-82.5 -36t-79.5 -77.5t-56 -126l-38 -146h398z" />
    <glyph glyph-name="f_j.liga" unicode="fj" horiz-adv-x="975" 
d="M965 885q19 0 16 -19l-257 -953q-33 -125 -84.5 -190.5t-157.5 -106.5q-26 -8 -31 16l-24 99q-7 24 14 29q60 21 94.5 55t51.5 100l225 845h-394l-199 -746q-3 -14 -19 -14h-105q-18 0 -13 19l197 741h-116q-8 0 -12.5 5t-2.5 14l24 92q5 14 19 14h123l50 191
q41 154 143.5 237.5t238.5 83.5q127 0 207 -74q23 -23 9 -40l-49 -54q-14 -14 -31 -2q-54 45 -125 45q-36 0 -71.5 -10t-73 -33.5t-69 -70t-48.5 -110.5l-44 -163h514z" />
    <glyph glyph-name=".notdef" horiz-adv-x="867" 
d="M712 1388v-1735h-551v1735h551zM578 1272h-286v-57h112v-64h-114v-58h288v58h-115v64h115v57zM463 1048h-173v-180h288v59h-115v121zM404 989v-62h-57v62h57zM578 821h-288v-57h114v-65h-114v-57h173v122h115v57zM578 717h-57v-115h-231v-59h288v174zM578 505h-174v-97
h59v40h58v-82h-174v139h-57v-196h288v196zM578 205h-288v-196h288v196zM521 148v-82h-174v82h174zM578 -31h-288v-58h121l-121 -81v-57h288v57h-177l121 81h56v58z" />
    <glyph glyph-name=".null" horiz-adv-x="0" 
 />
    <glyph glyph-name="nonmarkingreturn" horiz-adv-x="682" 
 />
    <glyph glyph-name="space" unicode=" " horiz-adv-x="416" 
 />
    <glyph glyph-name="exclam" unicode="!" horiz-adv-x="357" 
d="M472 1354q21 0 16 -23l-6 -17l-225 -743q-5 -21 -21 -21h-68q-8 0 -12 6t-2 15l176 743l5 17q5 23 26 23h111zM83 -14q-37 0 -62.5 26t-25.5 64q0 37 25.5 63t62.5 26t63 -26t26 -63t-26 -63.5t-63 -26.5z" />
    <glyph glyph-name="quotedbl" unicode="&#x22;" horiz-adv-x="503" 
d="M194 880q-24 0 -19 24l117 429q2 12 8 16.5t19 4.5h87q25 0 14 -30l-128 -423q-9 -21 -30 -21h-68zM460 880q-24 0 -19 24l116 429q4 21 28 21h87q25 0 14 -30l-129 -423q-9 -21 -29 -21h-68z" />
    <glyph glyph-name="numbersign" unicode="#" horiz-adv-x="1145" 
d="M1217 994q15 0 12 -17l-26 -92q-5 -17 -19 -17h-217l-158 -384h205q14 0 10 -19l-23 -87q-3 -19 -20 -19h-224l-141 -342q-7 -17 -22 -17h-85q-18 0 -13 17l141 342h-267l-141 -342q-7 -17 -22 -17h-86q-9 0 -12.5 5t0.5 12l141 342h-194q-18 0 -13 18l25 90q5 17 22 17
h212l158 384h-203q-16 0 -11 17l23 90q5 19 23 19h222l140 342q9 18 25 18h83q9 0 12.5 -5t-0.5 -13l-141 -342h268l140 342q9 18 26 18h84q8 0 11 -5t-1 -13l-140 -342h196zM689 484l158 384h-267l-158 -384h267z" />
    <glyph glyph-name="dollar" unicode="$" horiz-adv-x="827" 
d="M859 1057q13 -10 4 -24l-52 -65q-11 -11 -25 -3q-100 73 -222 73q-99 0 -161.5 -41.5t-62.5 -109.5q0 -54 43.5 -86t118.5 -53q122 -33 190 -89t68 -150q0 -126 -113.5 -203t-273.5 -77q-19 0 -57 4l-94 -210q-9 -20 -31 -16l-56 10q-24 4 -14 28l94 208q-88 27 -156 85
q-15 12 -2 26l51 61q9 13 24 5q115 -86 253 -86q104 0 173.5 47t69.5 112q0 57 -45 90.5t-128 57.5q-119 36 -179.5 90.5t-60.5 143.5q0 121 103 196t256 75q27 0 39 -2l93 212q7 12 13 15t20 1l54 -11q26 -5 16 -29l-92 -207q80 -25 142 -78z" />
    <glyph glyph-name="percent" unicode="%" horiz-adv-x="1140" 
d="M427 946q-82 0 -133 50.5t-51 128.5q0 109 86 190.5t190 81.5q82 0 133 -50.5t51 -128.5q0 -105 -85.5 -188.5t-190.5 -83.5zM-40 0l1222 1388h135l-1223 -1388h-134zM434 1038q70 0 124.5 52.5t54.5 119.5q0 42 -28.5 68.5t-74.5 26.5q-70 0 -123.5 -52.5t-53.5 -119.5
q0 -43 27.5 -69t73.5 -26zM757 -9q-82 0 -133 50.5t-51 128.5q0 109 86 191t190 82q82 0 133 -50.5t51 -128.5q0 -105 -85.5 -189t-190.5 -84zM764 83q70 0 124 52.5t54 119.5q0 42 -28.5 69t-73.5 27q-70 0 -123.5 -52.5t-53.5 -119.5q0 -43 27.5 -69.5t73.5 -26.5z" />
    <glyph glyph-name="ampersand" unicode="&#x26;" horiz-adv-x="1317" 
d="M1279 748q-12 -65 -51.5 -139.5t-93.5 -141.5t-104.5 -120.5t-99.5 -96.5q98 -133 212 -139q14 -3 10 -21l-22 -78q-1 -8 -3.5 -10t-10.5 -2q-52 0 -95 14t-78 43t-55.5 52t-49.5 61q-202 -170 -428 -170q-165 0 -262.5 80.5t-97.5 223.5q0 48 12.5 92t32 78.5t53.5 68
t66.5 58.5t81 52.5t87.5 47t96 45.5l101 49q76 34 133.5 65.5t117 75t92 94t32.5 105.5q0 66 -46 106t-126 40q-115 0 -201 -78t-86 -189q0 -18 3 -35.5t6.5 -30t9.5 -26t9.5 -20t9 -16t6.5 -10.5q3 -8 -25.5 -24t-70.5 -36q-34 51 -51.5 95t-17.5 101q0 157 124.5 268.5
t298.5 111.5q129 0 204.5 -66t75.5 -172q0 -70 -29.5 -132t-86.5 -113.5t-123.5 -93t-156.5 -83.5l-45 -24l231 -361q94 80 182.5 193.5t117.5 221.5q3 17 19 17h75q20 0 17 -31zM423 120q94 0 182.5 37.5t159.5 104.5l-250 380l-5 -2q-62 -27 -102 -47t-87.5 -50.5
t-74.5 -60.5t-45.5 -71.5t-18.5 -89.5q0 -96 66.5 -148.5t174.5 -52.5z" />
    <glyph glyph-name="quotesingle" unicode="'" horiz-adv-x="237" 
d="M194 880q-24 0 -19 24l117 429q2 12 8 16.5t19 4.5h87q25 0 14 -30l-128 -423q-9 -21 -30 -21h-68z" />
    <glyph glyph-name="parenleft" unicode="(" horiz-adv-x="680" 
d="M411 -212q-159 0 -242.5 131.5t-83.5 358.5q0 133 28.5 283.5t79 298t125.5 283t163 238.5t197 164.5t221 61.5q19 0 14 -15l-28 -105q-5 -19 -24 -19q-80 0 -162 -57t-150 -151.5t-128.5 -217t-102 -252t-65.5 -259t-24 -236.5q0 -166 56.5 -266t162.5 -100q20 0 15 -19
l-29 -106q-3 -16 -23 -16z" />
    <glyph glyph-name="parenright" unicode=")" horiz-adv-x="680" 
d="M406 1607q159 0 242.5 -131t83.5 -358q0 -133 -28.5 -283.5t-79 -298t-125.5 -283t-163 -239t-197 -165t-221 -61.5q-16 0 -13 16l27 104q5 19 25 19q80 0 162 57t150 151.5t128 217t101.5 252t65.5 259t24 236.5q0 167 -55.5 267t-162.5 100q-21 0 -16 19l30 106
q4 15 22 15z" />
    <glyph glyph-name="asterisk" unicode="*" horiz-adv-x="767" 
d="M880 1208q5 -19 -16 -28l-236 -114l172 -115q15 -13 2 -29l-47 -56q-17 -17 -31 -3l-153 128l-50 -229q-3 -19 -25 -19h-66q-12 0 -14.5 4.5t1.5 14.5l71 227l-221 -128q-21 -14 -26 5l-21 57q-7 17 14 28l238 115l-172 114q-15 14 -3 28l50 57q15 18 30 4l151 -129
l50 228q4 20 24 20h68q12 0 15 -4t-1 -16l-73 -228l220 130q23 13 30 -5z" />
    <glyph glyph-name="plus" unicode="+" 
d="M979 722q20 0 15 -19l-24 -94q-5 -14 -19 -14h-340l-92 -342q-4 -13 -19 -13h-92q-8 0 -13 5t-3 14l90 336h-334q-8 0 -12 5t-2 14l24 94q5 14 19 14h340l92 342q3 14 19 14h91q20 0 15 -19l-90 -337h335z" />
    <glyph glyph-name="comma" unicode="," horiz-adv-x="369" 
d="M5 -161q-7 -3 -11 -3t-6 2t-5 8l-11 15q-5 13 9 23q69 43 99 100q-2 -1 -16 -1q-31 0 -53.5 23t-22.5 56q0 43 32 73t74 30q38 0 62.5 -23t24.5 -64q0 -63 -55.5 -133.5t-120.5 -105.5z" />
    <glyph glyph-name="hyphen" unicode="-" horiz-adv-x="807" 
d="M708 401q0 -21 -21 -21h-567q-23 0 -23 19v78q0 21 23 21h567q21 0 21 -19v-78z" />
    <glyph glyph-name="period" unicode="." horiz-adv-x="357" 
d="M80 -14q-37 0 -63 26.5t-26 63.5t26 63t63 26t63.5 -26t26.5 -63t-26.5 -63.5t-63.5 -26.5z" />
    <glyph glyph-name="slash" unicode="/" horiz-adv-x="636" 
d="M724 1388h102q25 0 14 -22l-764 -1343q-12 -19 -19 -22q-3 -1 -8 -1h-103q-11 0 -15.5 6t1.5 17l764 1343q11 22 28 22z" />
    <glyph glyph-name="zero" unicode="0" horiz-adv-x="1195" 
d="M479 -21q-187 0 -280 116.5t-93 321.5q0 168 55.5 337.5t150 305t234 221t294.5 85.5q187 0 280 -117t93 -322q0 -111 -25 -225.5t-69.5 -219.5t-111.5 -197t-146.5 -160t-178 -107t-203.5 -39zM495 108q100 0 192 50t161 133.5t121 189t78.5 220.5t26.5 224
q0 312 -248 312q-100 0 -192.5 -50t-161.5 -133.5t-121 -188.5t-79 -220.5t-27 -224.5q0 -312 250 -312z" />
    <glyph glyph-name="one" unicode="1" horiz-adv-x="475" 
d="M606 1354q20 0 15 -19l-354 -1321q-5 -14 -19 -14h-104q-19 0 -14 19l299 1107q-25 -25 -84.5 -50.5t-84.5 -25.5q-29 0 -26 23l12 69q3 21 16 23q45 11 79 29t61 45.5t41 46.5t38 56q7 12 24 12h101z" />
    <glyph glyph-name="two" unicode="2" horiz-adv-x="1010" 
d="M-7 0q-21 0 -16 19l9 42l687 595q51 43 83 72.5t71 71t61 76t37.5 76.5t15.5 84q0 89 -59.5 142.5t-164.5 53.5q-192 0 -373 -205q-14 -15 -26 0l-59 68q-11 14 1 24q232 247 479 247q154 0 248 -82t94 -220q0 -210 -241 -418l-614 -519h604q18 0 13 -19l-24 -94
q-3 -14 -19 -14h-807z" />
    <glyph glyph-name="three" unicode="3" horiz-adv-x="1044" 
d="M1116 1354q19 0 16 -19l-28 -103q-2 -12 -12 -19l-504 -406q23 10 59 10q156 0 239.5 -87.5t83.5 -226.5q0 -104 -48 -200.5t-126.5 -166t-183.5 -111.5t-215 -42q-133 0 -230 62t-141 181q-7 23 5 31l77 54q17 10 33 -16q32 -87 102 -133.5t170 -46.5q84 0 161.5 32
t133.5 85t89.5 123t33.5 143q0 93 -52 153.5t-152 60.5q-85 0 -174 -39q-21 -9 -30 13l-32 71q-8 17 5 29l546 443h-562q-19 0 -14 19l25 92q3 14 19 14h706z" />
    <glyph glyph-name="four" unicode="4" horiz-adv-x="1074" 
d="M975 436q21 0 16 -21l-24 -92q-3 -14 -19 -14h-143l-78 -295q-3 -14 -19 -14h-90q-21 0 -16 19l78 290h-628q-19 0 -16 19l26 94q3 16 23 29q219 130 401.5 379.5t261.5 509.5q3 14 17 14h101q18 0 14 -21q-76 -265 -247.5 -508.5t-391.5 -394.5l472 4l47 175q4 15 16 18
l100 26q20 5 16 -18l-54 -201z" />
    <glyph glyph-name="five" unicode="5" horiz-adv-x="1024" 
d="M635 863q149 0 234.5 -88t85.5 -233q0 -146 -76 -275t-205 -206.5t-277 -77.5q-130 0 -224.5 62.5t-141.5 178.5q-9 12 5 22l82 65q14 13 24 -6q71 -182 271 -182q164 0 281 118t117 274q0 95 -59.5 152.5t-159.5 57.5q-155 0 -288 -133l-113 38q-17 5 -12 23l184 687
q5 14 19 14h713q21 0 16 -19l-25 -94q-5 -14 -19 -14h-597l-130 -475q134 111 295 111z" />
    <glyph glyph-name="six" unicode="6" horiz-adv-x="1069" 
d="M448 -17q-169 0 -262.5 108.5t-93.5 305.5q0 172 71 344t191 307.5t292.5 220.5t360.5 85q19 0 15 -21l-26 -92q-3 -16 -15 -16q-116 0 -224.5 -41t-190 -107t-147 -148.5t-104 -165t-51.5 -156.5q67 104 179 167.5t230 63.5q153 0 243.5 -88t90.5 -236
q0 -138 -78.5 -261.5t-207.5 -196.5t-273 -73zM462 111q99 0 192.5 52.5t152.5 141.5t59 186q0 98 -62 160t-167 62q-99 0 -192.5 -50.5t-152.5 -138t-59 -184.5q0 -99 62 -164t167 -65z" />
    <glyph glyph-name="seven" unicode="7" horiz-adv-x="985" 
d="M1156 1291q-2 -6 -16 -26l-925 -1255q-7 -10 -21 -10h-109q-11 0 -14 6t4 15l895 1206h-682q-8 0 -12 5t-2 14l25 94q5 14 19 14h829q10 0 15 -7t3 -18z" />
    <glyph glyph-name="eight" unicode="8" horiz-adv-x="1018" 
d="M382 -17q-167 0 -259 76.5t-92 204.5q0 79 36 155.5t93.5 132.5t128.5 94.5t141 49.5l-13 2q-69 27 -118 87t-49 154q0 113 71 212t188 157t246 58q143 0 229.5 -72.5t86.5 -193.5q0 -132 -98.5 -244.5t-238.5 -156.5l-17 -3q37 -5 74 -23.5t70 -49.5t53.5 -82t20.5 -112
q0 -123 -76 -226t-203 -161.5t-274 -58.5zM594 769q133 0 236.5 90.5t103.5 207.5q0 82 -56 130.5t-153 48.5q-137 0 -240 -88t-103 -205q0 -83 58.5 -133.5t153.5 -50.5zM408 106q157 0 270 91t113 220q0 89 -61.5 143t-174.5 54q-154 0 -267 -96t-113 -226
q0 -93 64 -139.5t169 -46.5z" />
    <glyph glyph-name="nine" unicode="9" horiz-adv-x="1069" 
d="M746 1366q169 0 262.5 -109t93.5 -306q0 -137 -44.5 -276t-128.5 -260.5t-195 -216t-253.5 -149t-293.5 -54.5q-19 0 -15 21l26 92q3 15 15 15q116 0 224.5 41t190 107t147 148.5t104 165t51.5 156.5q-67 -104 -179 -167.5t-230 -63.5q-153 0 -243.5 88.5t-90.5 236.5
q0 138 78.5 261.5t207.5 196.5t273 73zM732 1237q-99 0 -192.5 -52.5t-152.5 -141.5t-59 -186q0 -98 62 -160t167 -62q99 0 192.5 50.5t153 138t59.5 184.5q0 99 -62.5 164t-167.5 65z" />
    <glyph glyph-name="colon" unicode=":" horiz-adv-x="359" 
d="M276 719q-37 0 -63 26.5t-26 63.5t26 62.5t63 25.5t63.5 -25.5t26.5 -62.5t-26.5 -63.5t-63.5 -26.5zM80 -14q-37 0 -63 26.5t-26 63.5t26 63t63 26t63.5 -26t26.5 -63t-26.5 -63.5t-63.5 -26.5z" />
    <glyph glyph-name="semicolon" unicode=";" horiz-adv-x="369" 
d="M276 719q-37 0 -63 26.5t-26 63.5t26 62.5t63 25.5t63.5 -25.5t26.5 -62.5t-26.5 -63.5t-63.5 -26.5zM5 -161q-6 -3 -9.5 -3t-6 2t-6.5 8l-9 15q-8 14 9 23q69 43 99 100q-2 -1 -18 -1q-29 0 -51.5 23t-22.5 56q0 44 31 73.5t74 29.5q37 0 61.5 -23t24.5 -64
q0 -63 -55.5 -133.5t-120.5 -105.5z" />
    <glyph glyph-name="less" unicode="&#x3c;" horiz-adv-x="971" 
d="M153 687l-21 -74q-3 -15 10 -19l660 -382q17 -9 22 10l25 85q5 16 -6 23l-539 310l703 313q15 5 19 21l28 97q2 10 -3.5 12t-14.5 -2l-866 -378q-13 -4 -17 -16z" />
    <glyph glyph-name="equal" unicode="=" 
d="M201 798q-8 0 -12 5t-2 14l25 94q5 14 19 14h802q20 0 15 -19l-24 -94q-5 -14 -19 -14h-804zM94 392q-8 0 -12 5t-2 14l24 94q5 14 19 14h802q21 0 16 -19l-25 -94q-5 -14 -19 -14h-803z" />
    <glyph glyph-name="greater" unicode="&#x3e;" horiz-adv-x="973" 
d="M929 607l20 73q5 14 -8 19l-662 382q-18 9 -22 -10l-24 -85q-3 -17 7 -21l538 -311l-703 -314q-16 -5 -19 -21l-26 -97q-4 -9 1 -11.5t14 1.5l866 378q16 5 18 17z" />
    <glyph glyph-name="question" unicode="?" horiz-adv-x="810" 
d="M231 1149q-8 11 5 24q201 198 427 198q132 0 207.5 -66t75.5 -184q0 -61 -19.5 -114.5t-60 -101t-84.5 -85t-110 -84.5q-117 -84 -146 -112q-53 -52 -70 -119l-33 -120q-2 -9 -8.5 -15t-15.5 -6h-88q-19 0 -14 21l38 144q22 77 72.5 130t154.5 125q56 37 89.5 63
t72.5 64.5t57.5 80.5t18.5 89q0 72 -47 117t-137 45q-51 0 -99 -14.5t-91 -44t-66.5 -49t-59.5 -52.5q-14 -13 -24 0zM297 -14q-37 0 -63 26.5t-26 63.5t26 63t63 26t63.5 -26t26.5 -63t-26.5 -63.5t-63.5 -26.5z" />
    <glyph glyph-name="at" unicode="@" horiz-adv-x="1841" 
d="M640 -344q-140 15 -251 71t-180.5 140.5t-106 191t-36.5 227.5q0 139 42.5 277t117.5 256t180.5 220t227.5 173.5t263 112.5t283 41q155 0 277.5 -47t200.5 -130.5t118.5 -194.5t40.5 -241q0 -168 -59.5 -327t-171 -264t-246.5 -105q-47 0 -83 12.5t-58.5 36t-33 40
t-21.5 40.5q-67 -49 -172 -89t-207 -40q-100 0 -161.5 47t-61.5 151q0 58 18.5 103t64.5 79.5t91 58t133 46t152 36t184 35.5q61 196 -135 196q-114 0 -276 -70q-26 -9 -29 14l-6 59q-1 11 4.5 16.5t20.5 11.5q171 75 305 75q151 0 213 -80t23 -229l-81 -302
q-6 -15 -2.5 -38t12.5 -44t36.5 -36.5t67.5 -15.5q76 0 144 56t112 143.5t69.5 190.5t25.5 200q0 104 -32 190.5t-94.5 150.5t-162 100t-228.5 36q-189 0 -369 -78t-312.5 -206.5t-213.5 -301.5t-81 -354q0 -134 50 -243t157.5 -186t262.5 -101q26 -4 21 -22l-15 -73
q-4 -19 -32 -16zM781 165q87 0 170 33t144 78l77 233q-28 -5 -81 -14q-60 -10 -89 -15.5t-79.5 -16t-76 -19t-61.5 -21.5t-54.5 -27.5t-38 -34t-27 -43t-7.5 -51.5q0 -56 31.5 -79t91.5 -23z" />
    <glyph glyph-name="A" unicode="A" horiz-adv-x="1391" 
d="M1237 24q3 -24 -15 -24h-101q-18 0 -21 24l-40 210h-814l-154 -215q-14 -19 -28 -19h-121q-11 0 -14.5 8t3.5 18l951 1312q11 16 26 16h59q17 0 23 -19zM331 351h709l-148 779z" />
    <glyph glyph-name="B" unicode="B" horiz-adv-x="1180" 
d="M897 710q89 -37 136.5 -107t47.5 -166q0 -123 -75 -224.5t-197 -157t-261 -55.5h-512q-25 0 -20 26l350 1307q5 21 26 21h490q145 0 227 -70t82 -189q0 -123 -82 -228t-212 -157zM481 1224l-127 -472h335q141 0 248.5 94t107.5 213q0 78 -53 121.5t-162 43.5h-349z
M548 130q159 0 276 89.5t117 221.5q0 90 -61.5 142t-185.5 52h-371l-136 -505h361z" />
    <glyph glyph-name="C" unicode="C" horiz-adv-x="1371" 
d="M679 -12q-255 0 -407 143.5t-152 380.5q0 163 75 320t197.5 274t288 188.5t336.5 71.5q148 0 264.5 -55.5t179.5 -152.5q19 -26 4 -37l-83 -52q-16 -14 -35 9q-126 149 -340 149q-139 0 -275.5 -58.5t-239 -153t-165.5 -222t-63 -258.5q0 -85 27 -158t79.5 -129
t136.5 -88.5t191 -32.5q133 0 244.5 46.5t187.5 109.5q24 21 40 2l57 -75q14 -14 -16 -36q-243 -186 -532 -186z" />
    <glyph glyph-name="D" unicode="D" horiz-adv-x="1409" 
d="M36 0q-25 0 -20 26l350 1307q5 21 26 21h455q279 0 418 -137.5t139 -373.5q0 -172 -68 -327.5t-184.5 -269t-281 -180t-349.5 -66.5h-485zM187 130h363q149 0 282 57t227 152.5t148.5 224t54.5 267.5q0 186 -106.5 289.5t-322.5 103.5h-352z" />
    <glyph glyph-name="E" unicode="E" horiz-adv-x="1050" 
d="M1201 1354q10 0 14.5 -7t2.5 -16l-24 -88q-3 -19 -22 -19h-691l-127 -474h512q22 0 17 -23l-22 -88q-5 -18 -24 -18h-518l-132 -491h705q11 0 16 -7t3 -17l-26 -89q-4 -17 -24 -17h-828q-22 0 -17 23l350 1313q5 18 25 18h810z" />
    <glyph glyph-name="F" unicode="F" horiz-adv-x="1030" 
d="M1201 1354q10 0 14.5 -7t2.5 -16l-24 -88q-3 -19 -22 -19h-691l-127 -474h512q22 0 17 -23l-22 -88q-5 -18 -24 -18h-518l-161 -604q-5 -17 -24 -17h-101q-22 0 -17 23l350 1313q5 18 25 18h810z" />
    <glyph glyph-name="G" unicode="G" horiz-adv-x="1419" 
d="M1461 1158q19 -26 4 -37l-83 -52q-16 -14 -35 9q-126 149 -340 149q-139 0 -275.5 -58.5t-239 -153t-165.5 -222t-63 -258.5q0 -85 27 -158t79.5 -129t137 -88.5t191.5 -32.5q134 0 249.5 47t200.5 112l76 285h-364q-23 0 -18 23l23 85q4 17 24 17h472q10 0 16 -7t4 -16
l-127 -465q-263 -220 -580 -220q-253 0 -404 144t-151 380q0 163 75 320t197.5 274t288 188.5t336.5 71.5q148 0 264.5 -55.5t179.5 -152.5z" />
    <glyph glyph-name="H" unicode="H" horiz-adv-x="1386" 
d="M1479 1354q22 0 17 -23l-352 -1314q-1 -7 -8 -12t-15 -5h-102q-23 0 -18 23l162 598h-844l-161 -604q-5 -17 -24 -17h-101q-22 0 -17 23l350 1313q5 18 25 18h100q24 0 19 -23l-156 -581h842l158 586q4 18 22 18h103z" />
    <glyph glyph-name="I" unicode="I" horiz-adv-x="399" 
d="M33 0q-22 0 -17 23l350 1313q5 18 25 18h100q24 0 19 -23l-352 -1314q-5 -17 -24 -17h-101z" />
    <glyph glyph-name="J" unicode="J" horiz-adv-x="480" 
d="M573 1354q24 0 19 -23l-413 -1532q-38 -146 -130 -236.5t-214 -126.5q-29 -11 -35 12l-27 102q-4 25 15 25q96 21 162.5 84.5t91.5 156.5l406 1520q5 18 24 18h101z" />
    <glyph glyph-name="K" unicode="K" horiz-adv-x="1155" 
d="M1298 1354q14 0 17.5 -8.5t-6.5 -17.5l-856 -656l533 -646q8 -10 4.5 -18t-16.5 -8h-122q-17 0 -26 12l-503 618l-165 -613q-5 -17 -24 -17h-101q-22 0 -17 23l350 1313q5 18 25 18h100q24 0 19 -23l-163 -607l793 621q12 9 26 9h132z" />
    <glyph glyph-name="L" unicode="L" horiz-adv-x="1022" 
d="M830 130q11 0 16 -7t3 -17l-25 -89q-4 -17 -24 -17h-767q-22 0 -17 23l350 1313q5 18 25 18h100q24 0 19 -23l-323 -1201h643z" />
    <glyph glyph-name="M" unicode="M" horiz-adv-x="1739" 
d="M33 0q-11 0 -16 6.5t-1 16.5l350 1313q5 18 25 18h97q17 0 22 -18l299 -1098l888 1104q9 12 26 12h108q22 0 17 -23l-352 -1314q-3 -17 -22 -17h-103q-11 0 -16 6.5t-1 16.5l284 1057l-841 -1050q-14 -20 -30 -20h-14q-14 0 -19 21l-291 1047l-285 -1061q-5 -17 -24 -17
h-101z" />
    <glyph glyph-name="N" unicode="N" horiz-adv-x="1402" 
d="M33 0q-22 0 -17 23l350 1313q5 18 25 18h104q16 0 24 -16l548 -1118l302 1116q4 18 23 18h102q23 0 18 -23l-353 -1314q-3 -17 -22 -17h-106q-18 0 -23 16l-550 1117l-300 -1116q-5 -17 -24 -17h-101z" />
    <glyph glyph-name="O" unicode="O" horiz-adv-x="1541" 
d="M660 -12q-249 0 -395.5 145t-146.5 377q0 162 74.5 319.5t196 274.5t285 189.5t333.5 72.5q249 0 395 -145t146 -378q0 -163 -74.5 -320t-195.5 -274t-284.5 -189t-333.5 -72zM682 127q139 0 272.5 59.5t231.5 155t158 223t60 256.5q0 181 -111.5 293.5t-308.5 112.5
q-138 0 -271.5 -59.5t-231 -155t-157.5 -223t-60 -256.5q0 -181 111 -293.5t307 -112.5z" />
    <glyph glyph-name="P" unicode="P" horiz-adv-x="1194" 
d="M892 1354q97 0 171 -27.5t118 -76t66 -110t22 -135.5q0 -151 -82.5 -281.5t-222.5 -207.5t-303 -77h-390l-113 -422q-5 -17 -24 -17h-101q-22 0 -17 23l350 1313q5 18 25 18h501zM686 569q87 0 169 34.5t142 90.5t96.5 132t36.5 156q0 109 -64.5 175.5t-194.5 66.5h-390
l-176 -655h381z" />
    <glyph glyph-name="Q" unicode="Q" horiz-adv-x="1553" 
d="M1215 194l232 -263q19 -25 -1 -39l-64 -52q-21 -13 -40 6l-238 270q-214 -128 -444 -128q-249 0 -395.5 145t-146.5 377q0 162 74.5 319.5t196 274.5t285 189.5t333.5 72.5q249 0 395 -145t146 -378q0 -183 -90 -354.5t-243 -294.5zM264 533q0 -181 111 -293.5
t307 -112.5q139 0 272.5 59.5t231.5 155t158 223t60 256.5q0 181 -111.5 293.5t-308.5 112.5q-138 0 -271.5 -59.5t-231 -155t-157.5 -223t-60 -256.5z" />
    <glyph glyph-name="R" unicode="R" horiz-adv-x="1214" 
d="M1269 1005q0 -184 -120 -333.5t-307 -206.5l177 -441q7 -24 -18 -24h-104q-17 0 -24 16l-165 425q-16 -2 -47 -2h-390l-113 -422q-5 -17 -24 -17h-101q-22 0 -17 23l350 1313q5 18 25 18h501q97 0 171 -27.5t118 -76t66 -110t22 -135.5zM686 569q87 0 169 34.5t142 90.5
t96.5 132t36.5 156q0 109 -64.5 175.5t-194.5 66.5h-390l-176 -655h381z" />
    <glyph glyph-name="S" unicode="S" horiz-adv-x="1051" 
d="M23 236l69 63q13 13 35 -9q111 -165 310 -165q157 0 268 88t111 205q0 27 -8.5 51.5t-20 42t-35 36t-40 29.5t-49.5 26.5t-49 22t-53 20.5q-74 31 -126 61t-97.5 69.5t-68.5 89.5t-23 111q0 107 67.5 197t181.5 141t248 51q66 0 125 -14t96.5 -32.5t70 -44t47 -41
t25.5 -31.5q1 -1 3.5 -5t3 -5.5t2.5 -5t2.5 -5t1 -4.5t0.5 -4.5t-1 -4t-2.5 -4.5t-3.5 -4l-70 -61q-18 -13 -40 9q-104 122 -279 122q-141 0 -237 -73t-96 -179q0 -43 17.5 -76.5t56 -61.5t80 -48t109.5 -47q44 -19 72.5 -33t68 -36.5t65 -46.5t50 -55.5t36.5 -71.5t12 -86
q0 -117 -74 -216t-195.5 -155t-258.5 -56q-75 0 -141 18t-108 42t-77.5 56t-51 52.5t-26.5 39.5q-16 25 -3 38z" />
    <glyph glyph-name="T" unicode="T" horiz-adv-x="1041" 
d="M1203 1354q22 0 17 -23l-24 -88q-3 -19 -23 -19h-373l-323 -1207q-3 -17 -22 -17h-103q-22 0 -17 23l323 1201h-366q-11 0 -16.5 7t-3.5 17l25 88q5 18 24 18h882z" />
    <glyph glyph-name="U" unicode="U" horiz-adv-x="1308" 
d="M1409 1354q24 0 19 -23l-223 -829q-28 -104 -85.5 -195.5t-139.5 -163.5t-195 -113.5t-242 -41.5q-89 0 -161 20t-121.5 56t-83 85.5t-47 108t-11.5 123.5t20 134l219 821q5 18 24 18h100q11 0 16.5 -6.5t3.5 -16.5l-214 -791q-27 -112 -18.5 -191t52.5 -129t104 -72.5
t135 -22.5q80 0 157 25.5t147 76t125.5 134.5t85.5 193l208 782q5 18 25 18h100z" />
    <glyph glyph-name="V" unicode="V" horiz-adv-x="1390" 
d="M548 0q-16 0 -20 19l-247 1310q-2 11 2.5 18t13.5 7h100q18 0 21 -25l207 -1105l800 1111q16 19 29 19h120q11 0 15 -8t-4 -18l-952 -1312q-11 -16 -24 -16h-61z" />
    <glyph glyph-name="W" unicode="W" horiz-adv-x="2039" 
d="M371 0q-20 0 -20 21l-70 1312q-3 21 21 21h104q21 0 21 -21l49 -1109l704 1116q7 14 25 14h105q23 0 23 -21l104 -1109l647 1116q8 14 25 14h113q12 0 15.5 -8t-2.5 -18l-770 -1314q-8 -14 -24 -14h-87q-23 0 -23 21l-113 1147l-736 -1154q-7 -14 -24 -14h-87z" />
    <glyph glyph-name="X" unicode="X" horiz-adv-x="1192" 
d="M1368 1354q13 0 16 -8t-6 -18l-639 -653l295 -651q9 -24 -15 -24h-116q-19 0 -27 16l-246 546l-540 -552q-10 -10 -26 -10h-113q-13 0 -16.5 8t6.5 18l637 651l-293 652q-9 25 14 25h116q16 0 24 -16l248 -548l544 553q11 11 26 11h111z" />
    <glyph glyph-name="Y" unicode="Y" horiz-adv-x="1249" 
d="M1430 1354q14 0 17.5 -8t-5.5 -18l-723 -792l-138 -519q-5 -17 -24 -17h-101q-22 0 -17 23l137 515l-293 791q-4 11 1 18t15 7h109q18 0 22 -18l250 -663l610 670q11 11 26 11h114z" />
    <glyph glyph-name="Z" unicode="Z" horiz-adv-x="1062" 
d="M-43 0q-10 0 -15.5 7t-3.5 16l3 19q3 10 12 22l1068 1160h-719q-22 0 -17 24l24 88q3 18 22 18h900q10 0 15.5 -7t3.5 -16l-4 -19q-2 -4 -14 -22l-1067 -1160h720q23 0 18 -24l-23 -89q-4 -17 -24 -17h-899z" />
    <glyph glyph-name="bracketleft" unicode="[" horiz-adv-x="650" 
d="M854 1519h-349l-449 -1679h348q16 0 11 -15l-30 -111q-3 -14 -19 -14h-479q-17 0 -12 14l516 1930q5 17 22 17h479q16 0 11 -17l-30 -110q-3 -15 -19 -15z" />
    <glyph glyph-name="backslash" unicode="\" horiz-adv-x="657" 
d="M434 1388q19 0 19 -22l36 -1342q0 -24 -22 -24h-106q-21 0 -21 24l-36 1342q0 22 21 22h109z" />
    <glyph glyph-name="bracketright" unicode="]" horiz-adv-x="650" 
d="M-76 -160h348l450 1679h-347q-15 0 -12 17l29 109q5 16 21 16h479q16 0 12 -16l-517 -1930q-5 -15 -21 -15h-479q-15 0 -12 15l30 110q5 15 19 15z" />
    <glyph glyph-name="asciicircum" unicode="^" horiz-adv-x="1121" 
d="M837 1354q16 0 19 -14l237 -668q5 -21 -15 -21h-97q-16 0 -21 15l-195 525l-475 -530q-7 -10 -21 -10h-109q-11 0 -13.5 6t4.5 15l597 671q8 11 21 11h68z" />
    <glyph glyph-name="underscore" unicode="_" horiz-adv-x="994" 
d="M762 -97q0 -21 -19 -21h-759q-20 0 -20 19v78q0 21 20 21h759q19 0 19 -19v-78z" />
    <glyph glyph-name="grave" unicode="`" horiz-adv-x="666" 
d="M330 1298l375 -224q16 -9 24 7l36 59q10 13 -3 23l-361 250q-16 13 -28 -2l-48 -87q-12 -16 5 -26z" />
    <glyph glyph-name="a" unicode="a" horiz-adv-x="1053" 
d="M1059 885q8 0 12.5 -5t2.5 -14l-227 -852q-5 -14 -19 -14h-104q-8 0 -13 5t-3 14l42 158q-75 -89 -173.5 -140t-208.5 -51q-149 0 -237 90t-88 243q0 108 44.5 213.5t117.5 185.5t174 129.5t208 49.5q116 0 193.5 -55.5t104.5 -155.5l50 185q5 14 20 14h104zM413 106
q134 0 245.5 90.5t155.5 220.5l14 50q7 34 7 71q0 110 -65.5 175t-174.5 65q-110 0 -208 -64t-155 -164.5t-57 -205.5q0 -109 63 -173.5t175 -64.5z" />
    <glyph glyph-name="b" unicode="b" horiz-adv-x="1079" 
d="M712 897q147 0 234.5 -90.5t87.5 -245.5q0 -143 -73 -276t-198.5 -216t-267.5 -83q-112 0 -193 53.5t-113 149.5l-47 -175q-3 -14 -19 -14h-102q-21 0 -16 19l318 1186q6 24 10.5 47.5t7 44.5t4.5 29q0 28 25 28h67q28 0 40.5 -18t4.5 -50l-152 -571q77 84 176 133
t206 49zM482 106q112 0 210.5 63.5t154.5 163t56 205.5q0 110 -62 175t-173 65q-112 0 -211 -64.5t-155.5 -164.5t-56.5 -204q0 -111 64 -175t173 -64z" />
    <glyph glyph-name="c" unicode="c" horiz-adv-x="919" 
d="M413 -14q-164 0 -265 95t-101 254q0 144 81 274.5t214.5 209t280.5 78.5q107 0 182 -44t113 -115q12 -21 -2 -32l-69 -43q-18 -10 -33 5q-66 111 -205 111q-86 0 -167.5 -37t-140 -96t-94 -135.5t-35.5 -154.5q0 -111 69.5 -180.5t188.5 -69.5q148 0 280 116q22 14 31 -3
l35 -65q13 -15 -7 -29q-161 -139 -356 -139z" />
    <glyph glyph-name="d" unicode="d" horiz-adv-x="1074" 
d="M1140 1354q28 0 40.5 -18t4.5 -50l-338 -1272q-5 -14 -19 -14h-104q-8 0 -13 5t-3 14l42 158q-73 -89 -172.5 -140t-209.5 -51q-149 0 -237 90t-88 243q0 108 44.5 213.5t117.5 185.5t174 129.5t208 49.5q116 0 193.5 -56t106.5 -157l139 521q6 24 10.5 47.5t7 44.5
t4.5 29q3 28 26 28h66zM415 106q110 0 207.5 63.5t154 163t56.5 203.5q0 111 -65 176.5t-174 65.5q-110 0 -208 -64t-154.5 -164t-56.5 -205q0 -109 64 -174t176 -65z" />
    <glyph glyph-name="e" unicode="e" horiz-adv-x="982" 
d="M611 897q183 0 269.5 -114.5t53.5 -287.5q-8 -104 -118 -104h-639q-2 -14 -2 -40q0 -109 63 -180.5t196 -71.5q164 0 305 121q24 10 33 -8l25 -45q12 -17 -6 -33q-166 -148 -380 -148q-170 0 -268 93t-98 251q0 108 45 211.5t120.5 181.5t181 126t219.5 48zM597 781
q-134 0 -242.5 -83.5t-154.5 -208.5h614q7 42 7.5 83t-14.5 79t-40 67t-69 46t-101 17z" />
    <glyph glyph-name="f" unicode="f" horiz-adv-x="692" 
d="M953 1323q23 -23 9 -40l-49 -54q-14 -14 -31 -2q-54 45 -125 45q-36 0 -71.5 -10t-73 -33.5t-69 -70t-48.5 -110.5l-44 -163h245q8 0 13 -5t3 -14l-25 -92q-5 -14 -19 -14h-250l-199 -746q-3 -14 -19 -14h-105q-18 0 -13 19l197 741h-116q-8 0 -12.5 5t-2.5 14l24 92
q5 14 19 14h123l50 191q41 154 143.5 237.5t238.5 83.5q127 0 207 -74z" />
    <glyph glyph-name="g" unicode="g" horiz-adv-x="1053" 
d="M1059 885q20 0 15 -19l-225 -840q-30 -109 -85 -191t-125.5 -128.5t-147.5 -69t-160 -22.5q-95 0 -182.5 25t-141.5 72q-13 10 -4 22l47 65q8 11 23 3q44 -35 116.5 -52t140.5 -17q137 0 241 78.5t148 237.5l34 132q-76 -91 -175 -143t-210 -52q-149 0 -237 90t-88 243
q0 108 44.5 213.5t117.5 185.5t174 129.5t208 49.5q116 0 194.5 -57t105.5 -158l50 189q3 14 19 14h103zM415 106q110 0 207.5 63.5t154 163t56.5 203.5q0 111 -65 176.5t-174 65.5q-110 0 -208 -64t-154.5 -164t-56.5 -205q0 -109 64 -174t176 -65z" />
    <glyph glyph-name="h" unicode="h" horiz-adv-x="1024" 
d="M694 897q143 0 221 -88t38 -238l-104 -390q-11 -42 -19.5 -94.5t-10.5 -60.5q-2 -26 -36 -26h-68q-22 0 -32.5 17t-5.5 39l134 494q27 102 -18.5 162t-152.5 60q-97 0 -186.5 -48.5t-153.5 -121.5l-158 -588q-3 -14 -19 -14h-102q-21 0 -16 19l318 1186q6 24 10.5 47.5
t7 44.5t4.5 29q0 28 25 28h67q28 0 40.5 -18t4.5 -50l-145 -547q168 158 357 158z" />
    <glyph glyph-name="i" unicode="i" horiz-adv-x="371" 
d="M420 1232q-32 0 -54 22.5t-22 54.5q0 31 22 52.5t54 21.5t53.5 -21.5t21.5 -52.5q0 -32 -22 -54.5t-53 -22.5zM17 0q-20 0 -15 19l227 852q3 14 19 14h103q20 0 15 -19l-227 -852q-5 -14 -19 -14h-103z" />
    <glyph glyph-name="j" unicode="j" horiz-adv-x="361" 
d="M408 1232q-32 0 -54.5 22.5t-22.5 54.5q0 31 22.5 52.5t54.5 21.5t53 -21.5t21 -52.5q0 -32 -21.5 -54.5t-52.5 -22.5zM-135 -384q-27 -8 -32 16l-26 99q-5 25 16 29q59 21 94 55.5t52 99.5l255 956q5 14 19 14h102q21 0 16 -19l-255 -953q-33 -125 -84.5 -190.5
t-156.5 -106.5z" />
    <glyph glyph-name="k" unicode="k" horiz-adv-x="909" 
d="M923 885q12 0 14.5 -6.5t-7.5 -14.5l-560 -411l380 -432q7 -7 3.5 -14t-14.5 -7h-126q-13 0 -23 10l-342 396l-106 -392q-3 -14 -19 -14h-102q-21 0 -16 19l318 1186q6 24 10.5 47.5t7 44.5t4.5 29q0 28 25 28h67q28 0 40.5 -18t4.5 -50l-206 -774l496 366q10 7 21 7h130
z" />
    <glyph glyph-name="l" unicode="l" horiz-adv-x="369" 
d="M21 0q-21 0 -16 19l318 1186q6 24 10.5 47.5t7 44.5t4.5 29q0 28 25 28h67q28 0 40.5 -18t4.5 -50l-340 -1272q-3 -14 -19 -14h-102z" />
    <glyph glyph-name="m" unicode="m" horiz-adv-x="1621" 
d="M1307 897q142 0 212 -87t29 -239l-104 -389q-10 -39 -17 -88t-12 -68q-2 -26 -37 -26h-68q-22 0 -32.5 17t-5.5 39l134 494q28 104 -13.5 164t-148.5 60q-177 0 -322 -170q-5 -25 -7 -33l-104 -389q-10 -39 -17.5 -88t-12.5 -68q-2 -26 -36 -26h-68q-22 0 -32.5 17
t-5.5 39l133 494q28 104 -13 164t-148 60q-178 0 -321 -168l-158 -592q-5 -14 -19 -14h-103q-20 0 -15 19l227 852q3 14 19 14h103q20 0 15 -19l-33 -125q162 156 347 156q105 0 173 -49t81 -140q174 189 380 189z" />
    <glyph glyph-name="n" unicode="n" 
d="M686 897q143 0 219 -87.5t36 -238.5l-104 -389q-11 -43 -19.5 -95.5t-10.5 -60.5q-2 -26 -36 -26h-68q-22 0 -32.5 17t-5.5 39l133 494q27 102 -20 163t-155 61q-98 0 -184 -47t-149 -121l-158 -592q-5 -14 -19 -14h-103q-20 0 -15 19l227 852q3 14 19 14h103
q20 0 15 -19l-33 -125q166 156 360 156z" />
    <glyph glyph-name="o" unicode="o" horiz-adv-x="1041" 
d="M413 -14q-167 0 -266.5 94t-99.5 253q0 145 81 276t216.5 210.5t285.5 79.5q167 0 266.5 -94.5t99.5 -254.5q0 -109 -48 -213t-127 -181t-187 -123.5t-221 -46.5zM429 106q113 0 215.5 62t163 161.5t60.5 205.5q0 110 -68 177t-184 67q-114 0 -216.5 -62t-162.5 -161
t-60 -205q0 -111 67.5 -178t184.5 -67z" />
    <glyph glyph-name="p" unicode="p" horiz-adv-x="1056" 
d="M689 897q148 0 235.5 -90.5t87.5 -245.5q0 -107 -44 -212t-116 -184.5t-172.5 -129t-207.5 -49.5q-110 0 -191 51.5t-116 143.5l-137 -514q-5 -14 -19 -14h-104q-8 0 -13 5t-3 14l286 1064q8 32 14.5 76t6.5 45q3 28 26 28h68q29 0 41 -18.5t4 -49.5l-26 -97
q78 82 176.5 129.5t203.5 47.5zM460 106q112 0 210 63.5t154 163t56 205.5q0 110 -61.5 175t-172.5 65q-112 0 -211 -64.5t-156 -164.5t-57 -204q0 -111 64.5 -175t173.5 -64z" />
    <glyph glyph-name="q" unicode="q" horiz-adv-x="1056" 
d="M1059 885q20 0 15 -19l-284 -1064q-6 -24 -10.5 -47.5t-8 -45t-4.5 -28.5q-3 -28 -26 -28h-66q-63 0 -45 68l123 458q-75 -89 -175 -141t-210 -52q-149 0 -237 90t-88 243q0 108 44.5 213.5t117.5 185.5t174 129.5t208 49.5q116 0 194.5 -57t105.5 -158l50 189
q3 14 19 14h103zM415 106q110 0 207.5 63.5t154 163t56.5 203.5q0 111 -65 176.5t-174 65.5q-110 0 -208 -64t-154.5 -164t-56.5 -205q0 -109 64 -174t176 -65z" />
    <glyph glyph-name="r" unicode="r" horiz-adv-x="720" 
d="M778 837q8 -7 10.5 -17t-4.5 -18l-64 -73q-3 -4 -6.5 -4.5t-5 0t-6.5 3.5t-6 4q-57 44 -134 44q-154 0 -269 -160l-161 -602q-5 -14 -19 -14h-103q-20 0 -15 19l227 852q3 14 19 14h103q20 0 15 -19l-28 -104q132 135 282 135q99 0 165 -60z" />
    <glyph glyph-name="s" unicode="s" horiz-adv-x="779" 
d="M411 496q120 -32 187 -86.5t67 -147.5q0 -83 -53.5 -147t-139.5 -96.5t-189 -32.5q-178 0 -307 109q-14 11 -2 25l49 61q11 11 24 3q119 -85 248 -85q104 0 172 46.5t68 111.5q0 55 -44.5 88.5t-126.5 57.5q-117 34 -176.5 87.5t-59.5 141.5q0 118 102 191.5t252 73.5
q162 0 280 -97q13 -10 3 -22l-52 -65q-8 -11 -22 -3q-97 73 -219 73q-97 0 -158.5 -41.5t-61.5 -108.5q0 -53 42.5 -85t116.5 -52z" />
    <glyph glyph-name="t" unicode="t" horiz-adv-x="633" 
d="M292 -14q-118 0 -163 73t-11 200l135 501h-107q-20 0 -16 18l11 41q4 14 15 18q95 34 144.5 89t119.5 209q6 12 21 12h36q21 0 16 -19l-66 -243h222q21 0 16 -19l-25 -92q-5 -14 -19 -14h-184q-18 0 -43 5l-137 -503q-23 -73 -7 -113t83 -40q43 0 117 30q15 8 22 -9
l24 -69q5 -16 -17 -28q-98 -47 -187 -47z" />
    <glyph glyph-name="u" unicode="u" 
d="M1003 885q8 0 13 -5t3 -14l-228 -852q-5 -14 -19 -14h-104q-8 0 -12.5 5t-2.5 14l33 125q-170 -156 -358 -156q-144 0 -220.5 87.5t-36.5 238.5l104 389q11 43 19.5 95.5t10.5 60.5q2 26 38 26h68q23 0 33 -16.5t3 -38.5l-132 -495q-27 -102 20 -163t156 -61
q96 0 180.5 47t150.5 120l158 593q5 14 19 14h104z" />
    <glyph glyph-name="v" unicode="v" horiz-adv-x="949" 
d="M309 0q-16 0 -19 17l-134 851q-3 17 16 17h97q16 0 19 -17l109 -700h6l480 705q4 12 21 12h104q10 0 14 -6.5t-1 -14.5l-591 -854q-7 -10 -20 -10h-101z" />
    <glyph glyph-name="w" unicode="w" horiz-adv-x="1348" 
d="M210 0q-17 0 -17 17l-39 851q0 17 18 17h94q17 0 17 -17l21 -696h3l410 701q7 12 21 12h99q14 0 17 -17l24 -696h5l405 701q4 12 21 12h99q10 0 13.5 -6t-1.5 -15l-504 -852q-4 -12 -20 -12h-103q-17 0 -17 17l-28 696l-415 -703q-4 -10 -21 -10h-102z" />
    <glyph glyph-name="x" unicode="x" horiz-adv-x="895" 
d="M939 885q11 0 13.5 -6.5t-4.5 -14.5l-420 -421l192 -422q8 -21 -14 -21h-111q-16 0 -21 14l-149 330l-324 -334q-7 -10 -23 -10h-121q-11 0 -13.5 7t4.5 14l423 423l-189 420q-5 21 14 21h109q16 0 21 -14l144 -328l327 332q7 10 22 10h120z" />
    <glyph glyph-name="y" unicode="y" horiz-adv-x="949" 
d="M78 -347q-10 0 -13 6.5t3 14.5l225 335l-137 859q-3 17 16 17h97q16 0 19 -17l109 -700h6l479 705q7 12 21 12h105q10 0 14 -6.5t-1 -14.5l-821 -1199q-7 -12 -23 -12h-99z" />
    <glyph glyph-name="z" unicode="z" horiz-adv-x="801" 
d="M191 760q-8 0 -13 5t-3 14l25 92q5 14 19 14h621q19 0 16 -19l-6 -24l-680 -717h451q21 0 16 -19l-24 -92q-3 -14 -19 -14h-632q-21 0 -16 19l5 24l682 717h-442z" />
    <glyph glyph-name="braceleft" unicode="{" horiz-adv-x="775" 
d="M481 -318q-69 0 -127 16t-108 52.5t-75.5 96t-30 146t29.5 203.5l61 226q34 129 -103 152q-23 3 -19 21l32 113q4 17 29 21q55 7 110 44.5t74 108.5l61 225q30 113 79.5 203t107.5 147.5t127 95t135.5 53t136.5 15.5q21 0 16 -19l-26 -92q-4 -21 -23 -23
q-312 -13 -418 -402l-57 -215q-11 -41 -34 -76t-47.5 -56.5t-53.5 -38.5t-48.5 -24t-37.5 -12l-6 -24q15 -4 31 -11.5t37 -23.5t32.5 -38.5t17.5 -56t-7 -75.5l-59 -217q-24 -89 -27.5 -158t16.5 -124.5t73.5 -85.5t140.5 -33q16 -2 12 -23l-24 -93q-5 -18 -28 -18z" />
    <glyph glyph-name="bar" unicode="|" horiz-adv-x="491" 
d="M420 1362q5 14 19 14h108q8 0 12.5 -5t2.5 -14l-548 -2037q-3 -14 -19 -14h-106q-21 0 -16 19z" />
    <glyph glyph-name="braceright" unicode="}" horiz-adv-x="777" 
d="M406 1621q70 0 128 -16t108.5 -52.5t76 -96t30 -146t-29.5 -203.5l-61 -225q-11 -34 -6.5 -59.5t13 -42.5t26.5 -27.5t34 -16t35 -7.5q24 -4 18 -21l-30 -113q-4 -17 -29 -21q-56 -7 -110.5 -44t-73.5 -108l-61 -226q-30 -113 -80 -203t-108 -147.5t-127.5 -95t-136 -53
t-135.5 -15.5q-19 0 -15 18l24 93q4 19 24 23q315 13 417 401l59 217q13 51 42.5 91.5t65 63t62 34t48.5 16.5l7 24q-12 4 -24.5 9.5t-30 17t-29 26.5t-23 38t-10.5 51t8 65l59 215q24 89 27 158t-17 124t-73.5 86t-139.5 34q-16 2 -12 23l24 92q5 19 26 19z" />
    <glyph glyph-name="asciitilde" unicode="~" horiz-adv-x="984" 
d="M863 573q16 14 24 -5l24 -58q6 -14 -5 -22q-134 -122 -257 -122q-47 0 -81 16t-54 39t-39.5 46t-48.5 39t-68 16q-41 0 -83 -16.5t-66.5 -34t-57.5 -44.5q-15 -15 -24 5l-23 56q-5 14 5 24q39 34 70.5 56.5t83 43.5t101.5 21q40 0 71 -11.5t48.5 -29t36 -38t34.5 -38
t42 -29t60 -11.5q32 0 61.5 8.5t59 26.5t44.5 29t42 33z" />
    <glyph glyph-name="exclamdown" unicode="&#xa1;" horiz-adv-x="357" 
d="M274 899q37 0 63 -26.5t26 -63.5t-26 -63t-63 -26t-63.5 26t-26.5 63t26.5 63.5t63.5 26.5zM-115 -469q-20 0 -17 23l5 17l228 743q5 21 20 21h66q19 0 14 -21l-175 -743l-5 -17q-3 -23 -26 -23h-110z" />
    <glyph glyph-name="cent" unicode="&#xa2;" horiz-adv-x="919" 
d="M918 738q12 -21 -2 -32l-69 -43q-18 -10 -33 5q-51 82 -128 103l-339 -655q37 -10 83 -10q148 0 280 116q22 14 31 -3l35 -65q13 -15 -7 -29q-161 -139 -356 -139q-72 0 -123 17l-73 -140q-7 -16 -21 -11l-36 16q-16 5 -9 21l73 139q-83 43 -130 122.5t-47 184.5
q0 144 81 274.5t214.5 209t280.5 78.5q8 0 24 -0.5t23 -0.5l49 92q7 14 20 10l40 -16q12 -5 5 -19l-43 -83q120 -37 177 -142zM283 144l328 635h-2q-86 0 -167.5 -37t-140 -96t-94 -135.5t-35.5 -154.5q0 -146 111 -212z" />
    <glyph glyph-name="sterling" unicode="&#xa3;" horiz-adv-x="1006" 
d="M1142 1208q10 -14 -3 -24l-79 -59q-13 -10 -26 3q-89 115 -246 115q-155 0 -260 -104t-105 -249q0 -42 15 -116.5t17 -86.5h380q8 0 12 -5t2 -14l-21 -80q-4 -14 -19 -14h-349q-10 -122 -81 -246.5t-162 -200.5h581q8 0 12 -5t2 -14l-24 -94q-5 -14 -19 -14h-741
q-8 0 -13 5t-3 14l7 35q288 265 306 520h-174q-8 0 -12 5.5t-2 14.5l21 79q5 14 19 14h142q-3 24 -12 67t-14 80t-5 72q0 202 146 337t357 135q223 0 351 -170z" />
    <glyph glyph-name="currency" unicode="&#xa4;" horiz-adv-x="881" 
d="M892 1208q14 -37 14 -82q0 -122 -92 -227l76 -99l-43 -36l-75 95q-103 -90 -229 -90q-134 0 -199 99l-129 -104l-33 36l139 113q-14 40 -14 83q0 123 92 228l-76 99l43 36l75 -95q103 90 231 90q136 0 198 -99l128 104l33 -36zM548 819q120 0 214 94t94 206
q0 80 -53.5 132t-137.5 52q-121 0 -215 -92.5t-94 -205.5q0 -80 54 -133t138 -53z" />
    <glyph glyph-name="yen" unicode="&#xa5;" horiz-adv-x="1249" 
d="M1430 1354q14 0 17.5 -8t-5.5 -18l-718 -786h305q21 0 16 -21l-18 -56q-4 -14 -20 -14h-311l-49 -185h308q20 0 15 -21l-15 -56q-4 -15 -23 -15h-309l-42 -157q-5 -17 -24 -17h-101q-22 0 -17 23l40 151h-309q-18 0 -14 20l14 56q5 16 21 16h312l49 185h-306
q-20 0 -15 19l14 56q4 16 19 16h310l-291 787q-4 11 1 18t15 7h109q18 0 22 -18l250 -663l610 670q11 11 26 11h114z" />
    <glyph glyph-name="brokenbar" unicode="&#xa6;" horiz-adv-x="492" 
d="M219 529q-21 0 -16 19l219 814q3 14 19 14h106q20 0 15 -19l-218 -814q-3 -14 -19 -14h-106zM222 165q21 0 16 -19l-222 -826q-5 -14 -19 -14h-108q-8 0 -13 5t-3 14l222 826q5 14 20 14h107z" />
    <glyph glyph-name="section" unicode="&#xa7;" horiz-adv-x="1053" 
d="M1106 1203q7 -12 9.5 -16.5t2.5 -12t-7 -13.5l-70 -61q-18 -13 -40 9q-14 17 -22.5 26t-35 30t-53 33t-71 22.5t-94.5 10.5q-144 0 -240 -73t-96 -179q0 -81 63 -130t201 -103q44 -19 72.5 -33t68 -36.5t64.5 -46.5t49.5 -55.5t36.5 -71.5t12 -86q0 -153 -126 -263
q26 -50 26 -118q0 -117 -73 -216t-193 -155t-257 -56q-75 0 -142 18t-110 42.5t-79 56t-52 53t-26 39.5q-16 26 -4 38l68 62q16 13 35 -10q20 -25 29 -35.5t41.5 -40t62.5 -44.5t79.5 -29t104.5 -14q156 0 264.5 87.5t108.5 205.5q0 27 -8.5 51.5t-20 42t-35 36t-40 29.5
t-49.5 26.5t-49 22t-53 20.5q-59 26 -102 48.5t-85 53t-68.5 63t-42.5 75t-16 91.5q0 150 132 253q-31 53 -31 127q0 163 146.5 276t354.5 113q66 0 124.5 -14t95.5 -32.5t69.5 -44.5t45.5 -41t25 -31zM559 646q-125 53 -191 104q-80 -61 -80 -151q0 -81 63 -130t201 -103
q126 -55 187 -102q75 67 75 154q0 27 -8.5 51.5t-20 42t-35 36t-40 29.5t-49.5 26.5t-49 22t-53 20.5z" />
    <glyph glyph-name="dieresis" unicode="&#xa8;" horiz-adv-x="746" 
d="M391 1220q-30 0 -51.5 22.5t-21.5 52.5t21.5 51.5t51.5 21.5q31 0 52.5 -21.5t21.5 -51.5t-21.5 -52.5t-52.5 -22.5zM811 1220q-30 0 -51.5 22.5t-21.5 52.5q0 31 21.5 52t51.5 21q31 0 52.5 -21.5t21.5 -51.5t-21.5 -52.5t-52.5 -22.5z" />
    <glyph glyph-name="copyright" unicode="&#xa9;" horiz-adv-x="1541" 
d="M660 -12q-249 0 -395.5 145t-146.5 377q0 162 74.5 319.5t196 274.5t285 189.5t333.5 72.5q249 0 395 -145t146 -378q0 -163 -74.5 -320t-195.5 -274t-284.5 -189t-333.5 -72zM672 87q149 0 292 64t247.5 167t168.5 239.5t64 275.5q0 193 -120 313.5t-330 120.5
q-148 0 -290.5 -64t-247 -167t-168.5 -239t-64 -275q0 -194 119.5 -314.5t328.5 -120.5zM746 283q-133 0 -214.5 78.5t-81.5 211.5q0 121 70 234t183.5 181.5t235.5 68.5q94 0 160 -41.5t95 -100.5l-85 -51q-54 99 -182 99q-95 0 -182.5 -53.5t-140 -139t-52.5 -176.5
q0 -93 56 -152.5t154 -59.5q69 0 133.5 29.5t112.5 77.5l52 -74q-54 -57 -138.5 -94.5t-175.5 -37.5z" />
    <glyph glyph-name="ordfeminine" unicode="&#xaa;" horiz-adv-x="1053" 
d="M1059 885q8 0 12.5 -5t2.5 -14l-227 -852q-5 -14 -19 -14h-104q-8 0 -13 5t-3 14l42 158q-75 -89 -173.5 -140t-208.5 -51q-149 0 -237 90t-88 243q0 108 44.5 213.5t117.5 185.5t174 129.5t208 49.5q116 0 193.5 -55.5t104.5 -155.5l50 185q5 14 20 14h104zM413 106
q134 0 245.5 90.5t155.5 220.5l14 50q7 34 7 71q0 110 -65.5 175t-174.5 65q-110 0 -208 -64t-155 -164.5t-57 -205.5q0 -109 63 -173.5t175 -64.5z" />
    <glyph glyph-name="guillemotleft" unicode="&#xab;" horiz-adv-x="940" 
d="M78 378l175 -345q5 -14 18 -14h92q26 0 21 30l-150 348v2l339 349q9 13 8 21.5t-13 8.5h-92q-18 0 -30 -16l-357 -337q-9 -9 -12.5 -22.5t1.5 -24.5zM437 378l176 -345q5 -14 19 -14h90q26 0 21 30l-149 348v2l338 349q7 8 9 15t-2 11t-12 4h-90q-16 0 -32 -16l-355 -337
q-11 -9 -14.5 -22.5t1.5 -24.5z" />
    <glyph glyph-name="logicalnot" unicode="&#xac;" horiz-adv-x="1048" 
d="M819 257q-8 0 -12.5 6t-2.5 15l88 324h-743q-8 0 -12 6t-2 15l21 75q3 15 18 15h838q20 0 15 -20l-112 -421q-5 -15 -19 -15h-77z" />
    <glyph glyph-name="uni00AD" unicode="&#xad;" horiz-adv-x="807" 
d="M708 401q0 -21 -21 -21h-567q-23 0 -23 19v78q0 21 23 21h567q21 0 21 -19v-78z" />
    <glyph glyph-name="registered" unicode="&#xae;" horiz-adv-x="1077" 
d="M783 1371q173 0 278 -103.5t105 -266.5q0 -117 -53.5 -230.5t-140.5 -198t-204.5 -136.5t-238.5 -52q-169 0 -276 104.5t-107 266.5q0 118 54 231.5t141.5 197.5t204.5 135.5t237 51.5zM542 460q100 0 199.5 45t175 117t122.5 170t47 197q0 136 -85 221t-229 85
q-100 0 -200 -45t-175.5 -117t-123 -169.5t-47.5 -196.5q0 -137 85 -222t231 -85zM764 1114q54 0 85 -33t31 -80q0 -56 -43.5 -107.5t-104.5 -69.5l59 -164q4 -13 -7 -13h-53q-9 0 -12 11l-58 159h-121l-44 -159q-3 -11 -14 -11h-45q-13 0 -10 11l120 441q3 15 15 15h202z
M684 876q51 0 84.5 35.5t33.5 76.5q0 28 -18 47t-53 19h-129l-47 -178h129z" />
    <glyph glyph-name="macron" unicode="&#xaf;" horiz-adv-x="768" 
d="M323 1319q5 21 24 21h556q19 0 15 -19l-21 -78q-5 -21 -26 -21h-555q-9 0 -13.5 5t-0.5 14z" />
    <glyph glyph-name="degree" unicode="&#xb0;" horiz-adv-x="626" 
d="M451 946q-80 0 -128.5 47.5t-48.5 122.5q0 109 90 195t202 86q81 0 129 -47.5t48 -122.5q0 -110 -89.5 -195.5t-202.5 -85.5zM474 1038q66 0 119.5 51t53.5 119q0 43 -28.5 70t-75.5 27q-66 0 -119.5 -51t-53.5 -119q0 -43 28.5 -70t75.5 -27z" />
    <glyph glyph-name="plusminus" unicode="&#xb1;" horiz-adv-x="1010" 
d="M1040 944q8 0 12 -5t2 -14l-25 -92q-5 -16 -19 -16h-340l-92 -340q-3 -15 -19 -15h-90q-21 0 -16 20l90 335h-335q-20 0 -15 21l24 92q4 14 19 14h340l92 342q5 14 19 14h92q8 0 13 -5t3 -14l-90 -337h335zM800 116q19 0 14 -17l-23 -85q-5 -14 -19 -14h-784
q-21 0 -16 19l25 85q4 12 19 12h784z" />
    <glyph glyph-name="uni00B2" unicode="&#xb2;" horiz-adv-x="1010" 
d="M-7 0q-21 0 -16 19l9 42l687 595q51 43 83 72.5t71 71t61 76t37.5 76.5t15.5 84q0 89 -59.5 142.5t-164.5 53.5q-192 0 -373 -205q-14 -15 -26 0l-59 68q-11 14 1 24q232 247 479 247q154 0 248 -82t94 -220q0 -210 -241 -418l-614 -519h604q18 0 13 -19l-24 -94
q-3 -14 -19 -14h-807z" />
    <glyph glyph-name="uni00B3" unicode="&#xb3;" horiz-adv-x="1044" 
d="M1116 1354q19 0 16 -19l-28 -103q-2 -12 -12 -19l-504 -406q23 10 59 10q156 0 239.5 -87.5t83.5 -226.5q0 -104 -48 -200.5t-126.5 -166t-183.5 -111.5t-215 -42q-133 0 -230 62t-141 181q-7 23 5 31l77 54q17 10 33 -16q32 -87 102 -133.5t170 -46.5q84 0 161.5 32
t133.5 85t89.5 123t33.5 143q0 93 -52 153.5t-152 60.5q-85 0 -174 -39q-21 -9 -30 13l-32 71q-8 17 5 29l546 443h-562q-19 0 -14 19l25 92q3 14 19 14h706z" />
    <glyph glyph-name="acute" unicode="&#xb4;" horiz-adv-x="579" 
d="M715 1298q17 9 7 26l-50 87q-4 7 -11.5 7t-14.5 -5l-361 -250q-13 -10 -6 -23l39 -59q8 -16 24 -7z" />
    <glyph glyph-name="paragraph" unicode="&#xb6;" horiz-adv-x="1423" 
d="M1569 1354q21 0 16 -19l-30 -108q-3 -14 -19 -14h-207l-319 -1199q-3 -14 -19 -14h-106q-20 0 -15 19l317 1194h-137l-319 -1199q-5 -14 -19 -14h-108q-8 0 -13 5t-3 14l120 446h-177q-163 0 -251.5 96t-88.5 243q0 140 79.5 267.5t210.5 205t274 77.5h814zM746 606
l162 607h-156q-90 0 -169.5 -36t-132 -92.5t-82.5 -125t-30 -135.5q0 -95 60.5 -156.5t181.5 -61.5h166z" />
    <glyph glyph-name="periodcentered" unicode="&#xb7;" horiz-adv-x="359" 
d="M187 385q-37 0 -62.5 26t-25.5 63t25.5 62.5t62.5 25.5t64 -26t27 -62q0 -37 -27 -63t-64 -26z" />
    <glyph glyph-name="cedilla" unicode="&#xb8;" horiz-adv-x="602" 
d="M139 -111q77 0 125 -48t48 -126q0 -110 -92.5 -194.5t-207.5 -84.5q-116 0 -165 88q-5 16 7 25l40 29q14 10 23 -3q37 -59 113 -59q80 0 139.5 57.5t59.5 129.5q0 47 -28.5 77.5t-84.5 30.5q-66 0 -139 -63q-16 -12 -22 -1l-28 29q-5 8 4 17q0 1 0.5 2t0.5 2l177 203h96
l-97 -113q10 2 31 2z" />
    <glyph glyph-name="uni00B9" unicode="&#xb9;" horiz-adv-x="475" 
d="M606 1354q20 0 15 -19l-354 -1321q-5 -14 -19 -14h-104q-19 0 -14 19l299 1107q-25 -25 -84.5 -50.5t-84.5 -25.5q-29 0 -26 23l12 69q3 21 16 23q45 11 79 29t61 45.5t41 46.5t38 56q7 12 24 12h101z" />
    <glyph glyph-name="ordmasculine" unicode="&#xba;" horiz-adv-x="1041" 
d="M413 -14q-167 0 -266.5 94t-99.5 253q0 145 81 276t216.5 210.5t285.5 79.5q167 0 266.5 -94.5t99.5 -254.5q0 -109 -48 -213t-127 -181t-187 -123.5t-221 -46.5zM429 106q113 0 215.5 62t163 161.5t60.5 205.5q0 110 -68 177t-184 67q-114 0 -216.5 -62t-162.5 -161
t-60 -205q0 -111 67.5 -178t184.5 -67z" />
    <glyph glyph-name="guillemotright" unicode="&#xbb;" horiz-adv-x="942" 
d="M481 418l-176 346q-5 14 -17 14h-92q-26 0 -21 -30l150 -349v-2l-339 -348q-9 -13 -8 -21.5t13 -8.5h92q18 0 30 16l357 336q9 9 12.5 22.5t-1.5 24.5zM842 418l-176 346q-8 14 -19 14h-90q-13 0 -19 -8.5t-2 -21.5l150 -349l-2 -2l-339 -348q-9 -13 -7.5 -21.5
t13.5 -8.5h92q17 0 29 16l358 336q10 9 13.5 23t-1.5 24z" />
    <glyph glyph-name="onequarter" unicode="&#xbc;" horiz-adv-x="1272" 
d="M1043 1388q27 0 17 -24l-730 -1345q-6 -11 -10.5 -15t-14.5 -4h-34q-13 0 -18 7t0 19l729 1343q10 19 26 19h35zM304 1165q-16 -4 -16 8l5 35q0 13 14 17q63 25 111.5 68t67.5 82q12 13 23 13h39q16 0 11 -12l-156 -583q-3 -14 -19 -14h-44q-15 0 -12 14l113 424z
M1118 240q12 0 8 -13l-12 -46q-6 -13 -14 -13h-74l-42 -158q-3 -10 -14 -10h-50q-11 0 -7 10l42 158h-235q-11 0 -8 14l15 58q112 64 188.5 162.5t105.5 208.5q3 12 12 12h52q7 0 7 -10q-51 -224 -269 -373h151l12 45q4 10 14 10l48 7q5 2 8 -1.5t1 -8.5l-14 -52h75z" />
    <glyph glyph-name="onehalf" unicode="&#xbd;" horiz-adv-x="1291" 
d="M982 1369q10 19 26 19h35q27 0 17 -24l-730 -1345q-6 -11 -10.5 -15t-14.5 -4h-34q-13 0 -18 7t0 19zM548 1388q16 0 11 -12l-156 -583q-3 -14 -19 -14h-44q-15 0 -12 14l113 424l-137 -52q-16 -4 -16 8l5 35q0 13 14 17q63 25 111.5 68t67.5 82q12 13 23 13h39zM703 0
q-13 0 -10 12l5 23l314 269q39 32 59 51.5t39.5 51t19.5 62.5q0 38 -28.5 63t-75.5 25q-79 0 -162 -83q-9 -7 -14 0l-29 35q-5 5 2 13q101 108 222 108q74 0 117 -39t43 -102q0 -97 -101 -185l-269 -231h255q11 0 9 -11l-16 -52q-3 -10 -12 -10h-368z" />
    <glyph glyph-name="threequarters" unicode="&#xbe;" horiz-adv-x="1258" 
d="M620 1000q0 -96 -79 -168t-183 -72q-123 0 -172 104q-3 12 5 18l42 31q10 6 15 -5q41 -84 123 -84q68 0 122.5 49.5t54.5 114.5q0 37 -18 60t-57.5 28.5t-101.5 -17.5l-24 41q-3 6 4 13l244 206h-258q-5 0 -8 3t-1 7l14 49q2 10 14 10h338q14 0 11 -12l-14 -50
q-1 -2 -18 -19l-213 -175q75 10 117.5 -28.5t42.5 -103.5zM1076 1388q28 0 17 -24l-729 -1345q-1 -2 -3 -5t-2.5 -4t-2 -3t-2.5 -2.5t-3 -2t-3.5 -1.5t-4 -0.5t-5.5 -0.5h-34q-13 0 -17.5 7t1.5 19l727 1343q12 19 26 19h35zM1121 240q12 0 9 -13l-14 -46q-4 -13 -12 -13
h-77l-41 -158q-3 -10 -12 -10h-51q-12 0 -8 10l43 158h-234q-13 0 -9 14l16 58q111 64 187.5 163t105.5 208q3 12 10 12h54q5 0 6 -4t-1 -6q-51 -223 -267 -373h151l12 45q4 10 14 10l49 7q5 1 7.5 -2t0.5 -8l-13 -52h74z" />
    <glyph glyph-name="questiondown" unicode="&#xbf;" horiz-adv-x="801" 
d="M505 897q37 0 63 -26.5t26 -63.5t-26 -62.5t-63 -25.5t-63.5 25.5t-26.5 62.5t26.5 63.5t63.5 26.5zM571 -266q8 -11 -5 -24q-201 -198 -427 -198q-133 0 -208 66t-75 184q0 61 19.5 114.5t60 101t84 85.5t108.5 85q118 83 148 113q51 50 69 117l32 120q5 21 26 21h86
q19 0 16 -21l-40 -144q-21 -77 -71.5 -130.5t-155.5 -124.5q-43 -29 -71.5 -49.5t-62.5 -51t-54 -58t-34 -64t-14 -74.5q0 -73 46 -117t136 -44q52 0 100.5 14.5t91 43t67 49t57.5 52.5q14 13 24 0z" />
    <glyph glyph-name="Agrave" unicode="&#xc0;" horiz-adv-x="1391" 
d="M788 1802q-17 10 -5 26l48 86q12 15 28 2l361 -250q14 -10 4 -22l-37 -59q-8 -16 -24 -7zM1237 24q3 -24 -15 -24h-101q-18 0 -21 24l-40 210h-814l-154 -215q-14 -19 -28 -19h-121q-11 0 -14.5 8t3.5 18l951 1312q11 16 26 16h59q17 0 23 -19zM331 351h709l-148 779z
" />
    <glyph glyph-name="Aacute" unicode="&#xc1;" horiz-adv-x="1391" 
d="M1303 1828q10 -17 -7 -26l-373 -224q-16 -9 -24 7l-38 59q-7 13 5 22l361 250q7 5 14.5 5t11.5 -7zM991 1335l246 -1311q3 -24 -15 -24h-101q-18 0 -21 24l-40 210h-814l-154 -215q-14 -19 -28 -19h-121q-11 0 -14.5 8t3.5 18l951 1312q11 16 26 16h59q17 0 23 -19z
M331 351h709l-148 779z" />
    <glyph glyph-name="Acircumflex" unicode="&#xc2;" horiz-adv-x="1391" 
d="M1366 1673q14 -8 9 -22l-18 -65q-4 -13 -13 -17t-20 3l-248 195l-361 -196q-12 -6 -19 -1.5t-5 16.5l17 70q2 8 21 22l352 205q27 15 44 0zM991 1335l246 -1311q3 -24 -15 -24h-101q-18 0 -21 24l-40 210h-814l-154 -215q-14 -19 -28 -19h-121q-11 0 -14.5 8t3.5 18
l951 1312q11 16 26 16h59q17 0 23 -19zM331 351h709l-148 779z" />
    <glyph glyph-name="Atilde" unicode="&#xc3;" horiz-adv-x="1391" 
d="M1428 1762q10 -10 -1 -25q-44 -59 -88 -87q-56 -34 -121 -34q-51 0 -94.5 21t-69.5 45.5t-67 45.5t-88 21q-20 0 -39.5 -5t-32 -10.5t-27.5 -17t-21.5 -17t-18.5 -18.5t-14 -15q-12 -12 -24 0l-42 47q-9 9 2 24q43 58 85 85q57 37 125 37q44 0 80.5 -13.5t62.5 -33
t51 -39t56.5 -33t67.5 -13.5q20 0 39 4.5t31.5 10t27 16.5t21 17.5t18.5 19t15 15.5q14 11 25 0zM991 1335l246 -1311q3 -24 -15 -24h-101q-18 0 -21 24l-40 210h-814l-154 -215q-14 -19 -28 -19h-121q-11 0 -14.5 8t3.5 18l951 1312q11 16 26 16h59q17 0 23 -19zM331 351
h709l-148 779z" />
    <glyph glyph-name="Adieresis" unicode="&#xc4;" horiz-adv-x="1391" 
d="M852 1723q-30 0 -51.5 22.5t-21.5 52.5t21.5 51.5t51.5 21.5q31 0 53 -21.5t22 -51.5t-22 -52.5t-53 -22.5zM1272 1871q31 0 53 -21.5t22 -51.5t-22 -52.5t-53 -22.5q-30 0 -51.5 22.5t-21.5 52.5q0 31 21.5 52t51.5 21zM991 1335l246 -1311q3 -24 -15 -24h-101
q-18 0 -21 24l-40 210h-814l-154 -215q-14 -19 -28 -19h-121q-11 0 -14.5 8t3.5 18l951 1312q11 16 26 16h59q17 0 23 -19zM331 351h709l-148 779z" />
    <glyph glyph-name="Aring" unicode="&#xc5;" horiz-adv-x="1391" 
d="M982 1510q-66 0 -105.5 39.5t-39.5 102.5q0 90 74.5 160.5t168.5 70.5q64 0 103 -39t39 -101q0 -92 -74 -162.5t-166 -70.5zM1060 1810q-55 0 -101 -42.5t-46 -99.5q0 -37 24.5 -60t63.5 -23q57 0 102.5 43.5t45.5 98.5q0 37 -25 60t-64 23zM1237 24q3 -24 -15 -24h-101
q-18 0 -21 24l-40 210h-814l-154 -215q-14 -19 -28 -19h-121q-11 0 -14.5 8t3.5 18l951 1312q11 16 26 16h59q17 0 23 -19zM331 351h709l-148 779z" />
    <glyph glyph-name="AE" unicode="&#xc6;" horiz-adv-x="1836" 
d="M1987 1354q10 0 15.5 -7t3.5 -16l-24 -88q-4 -19 -24 -19h-691l-127 -474h512q23 0 18 -23l-23 -88q-5 -18 -24 -18h-517l-132 -491h706q22 0 17 -24l-26 -89q-3 -17 -22 -17h-830q-22 0 -17 23l50 187h-569l-177 -200q-10 -10 -21 -10h-144q-12 0 -14.5 6t5.5 15
l1189 1319q13 14 26 14h840zM391 331h494l214 795z" />
    <glyph glyph-name="Ccedilla" unicode="&#xc7;" horiz-adv-x="1371" 
d="M1461 1158q19 -26 4 -37l-83 -52q-16 -14 -35 9q-126 149 -340 149q-139 0 -275.5 -58.5t-239 -153t-165.5 -222t-63 -258.5q0 -85 27 -158t79.5 -129t136.5 -88.5t191 -32.5q133 0 244.5 46.5t187.5 109.5q24 21 40 2l57 -75q14 -14 -16 -36q-239 -183 -525 -186
l-87 -101q10 2 31 2q77 0 125.5 -48t48.5 -126q0 -110 -93 -194.5t-208 -84.5q-116 0 -165 88q-5 16 7 25l40 29q14 10 23 -3q37 -59 113 -59q80 0 139.5 57.5t59.5 129.5q0 47 -28.5 77.5t-84.5 30.5q-36 0 -67 -14.5t-71 -48.5q-16 -13 -23 -1l-28 29q-5 8 4 17q0 1 0.5 2
t0.5 2l171 196q-219 23 -346.5 163t-127.5 356q0 163 75 320t197.5 274t288 188.5t336.5 71.5q148 0 264.5 -55.5t179.5 -152.5z" />
    <glyph glyph-name="Egrave" unicode="&#xc8;" horiz-adv-x="1050" 
d="M691 1767q-17 10 -5 26l48 87q11 14 28 1l361 -250q13 -9 3 -22l-36 -59q-8 -16 -24 -7zM1201 1354q10 0 14.5 -7t2.5 -16l-24 -88q-3 -19 -22 -19h-691l-127 -474h512q22 0 17 -23l-22 -88q-5 -18 -24 -18h-518l-132 -491h705q11 0 16 -7t3 -17l-26 -89q-4 -17 -24 -17
h-828q-22 0 -17 23l350 1313q5 18 25 18h810z" />
    <glyph glyph-name="Eacute" unicode="&#xc9;" horiz-adv-x="1050" 
d="M802 1550l-38 59q-7 13 5 22l361 250q18 14 26 -1l50 -87q10 -17 -7 -26l-373 -224q-16 -9 -24 7zM1201 1354q10 0 14.5 -7t2.5 -16l-24 -88q-3 -19 -22 -19h-691l-127 -474h512q22 0 17 -23l-22 -88q-5 -18 -24 -18h-518l-132 -491h705q11 0 16 -7t3 -17l-26 -89
q-4 -17 -24 -17h-828q-22 0 -17 23l350 1313q5 18 25 18h810z" />
    <glyph glyph-name="Ecircumflex" unicode="&#xca;" horiz-adv-x="1050" 
d="M1269 1638q13 -7 8 -22l-17 -64q-4 -13 -13 -17t-20 3l-248 194l-361 -196q-12 -5 -19 -1t-5 17l17 69q2 10 21 23l352 204q26 15 43 0zM1201 1354q10 0 14.5 -7t2.5 -16l-24 -88q-3 -19 -22 -19h-691l-127 -474h512q22 0 17 -23l-22 -88q-5 -18 -24 -18h-518l-132 -491
h705q11 0 16 -7t3 -17l-26 -89q-4 -17 -24 -17h-828q-22 0 -17 23l350 1313q5 18 25 18h810z" />
    <glyph glyph-name="Edieresis" unicode="&#xcb;" horiz-adv-x="1050" 
d="M755 1689q-30 0 -51.5 22t-21.5 52t21.5 51.5t51.5 21.5q31 0 53 -21.5t22 -51.5t-22 -52t-53 -22zM1175 1836q31 0 53 -21.5t22 -51.5t-22 -52t-53 -22q-30 0 -51.5 22t-21.5 52q0 31 21.5 52t51.5 21zM1201 1354q10 0 14.5 -7t2.5 -16l-24 -88q-3 -19 -22 -19h-691
l-127 -474h512q22 0 17 -23l-22 -88q-5 -18 -24 -18h-518l-132 -491h705q11 0 16 -7t3 -17l-26 -89q-4 -17 -24 -17h-828q-22 0 -17 23l350 1313q5 18 25 18h810z" />
    <glyph glyph-name="Igrave" unicode="&#xcc;" horiz-adv-x="399" 
d="M285 1767l375 -224q16 -9 24 7l36 59q10 13 -3 22l-361 250q-17 13 -28 -1l-49 -87q-12 -16 6 -26zM33 0q-22 0 -17 23l350 1313q5 18 25 18h100q24 0 19 -23l-352 -1314q-5 -17 -24 -17h-101z" />
    <glyph glyph-name="Iacute" unicode="&#xcd;" horiz-adv-x="399" 
d="M640 1802q17 9 7 26l-50 86q-4 7 -11.5 7t-14.5 -5l-361 -250q-12 -9 -5 -22l38 -59q8 -16 24 -7zM33 0q-22 0 -17 23l350 1313q5 18 25 18h100q24 0 19 -23l-352 -1314q-5 -17 -24 -17h-101z" />
    <glyph glyph-name="Icircumflex" unicode="&#xce;" horiz-adv-x="399" 
d="M446 1883l-352 -205q-18 -13 -21 -22l-16 -70q-4 -12 3.5 -16.5t19.5 1.5l363 196l248 -195q10 -7 19.5 -3t11.5 17l17 65q5 14 -7 22l-241 210q-19 14 -45 0zM33 0q-22 0 -17 23l350 1313q5 18 25 18h100q24 0 19 -23l-352 -1314q-5 -17 -24 -17h-101z" />
    <glyph glyph-name="Idieresis" unicode="&#xcf;" horiz-adv-x="399" 
d="M229 1723q-30 0 -51.5 22.5t-21.5 52.5t21.5 51.5t51.5 21.5q31 0 53 -21.5t22 -51.5t-22 -52.5t-53 -22.5zM649 1723q-31 0 -53 22.5t-22 52.5q0 31 21.5 52t53.5 21q30 0 51.5 -21.5t21.5 -51.5t-21.5 -52.5t-51.5 -22.5zM33 0q-22 0 -17 23l350 1313q5 18 25 18h100
q24 0 19 -23l-352 -1314q-5 -17 -24 -17h-101z" />
    <glyph glyph-name="Eth" unicode="&#xd0;" horiz-adv-x="1371" 
d="M809 1354q279 0 418 -137.5t139 -373.5q0 -172 -68 -327.5t-185 -269t-281.5 -180t-349.5 -66.5h-484q-26 0 -21 26l157 583h-137q-9 0 -13.5 6t-2.5 15l26 95q3 14 19 14h142l160 594q5 21 26 21h455zM512 130q149 0 282 57t227 152.5t148.5 224t54.5 267.5
q0 186 -106.5 289.5t-322.5 103.5h-352l-131 -485h245q19 0 14 -19l-24 -95q-5 -16 -19 -16h-250l-129 -479h363z" />
    <glyph glyph-name="Ntilde" unicode="&#xd1;" horiz-adv-x="1402" 
d="M1217 1581q-51 0 -94.5 21t-70 46t-67.5 46t-88 21q-20 0 -39 -5t-32 -11t-27.5 -17t-21.5 -17.5t-18 -18.5t-14 -15q-13 -13 -25 0l-41 47q-10 10 1 25q44 59 88 86q57 35 122 35q44 0 80.5 -13.5t62.5 -33t51 -39t56.5 -33t67.5 -13.5q20 0 39 4.5t32 10.5t27.5 17
t21 17.5t18.5 19t15 15.5q13 10 24 0l42 -49q9 -9 -2 -24q-41 -56 -79 -82q-59 -40 -129 -40zM33 0q-22 0 -17 23l350 1313q5 18 25 18h104q16 0 24 -16l548 -1118l302 1116q4 18 23 18h102q23 0 18 -23l-353 -1314q-3 -17 -22 -17h-106q-18 0 -23 16l-550 1117l-300 -1116
q-5 -17 -24 -17h-101z" />
    <glyph glyph-name="Ograve" unicode="&#xd2;" horiz-adv-x="1541" 
d="M857 1767l374 -224q16 -9 24 7l38 59q7 13 -5 22l-361 250q-18 14 -26 -1l-51 -87q-10 -17 7 -26zM660 -12q-249 0 -395.5 145t-146.5 377q0 162 74.5 319.5t196 274.5t285 189.5t333.5 72.5q249 0 395 -145t146 -378q0 -163 -74.5 -320t-195.5 -274t-284.5 -189
t-333.5 -72zM682 127q139 0 272.5 59.5t231.5 155t158 223t60 256.5q0 181 -111.5 293.5t-308.5 112.5q-138 0 -271.5 -59.5t-231 -155t-157.5 -223t-60 -256.5q0 -181 111 -293.5t307 -112.5z" />
    <glyph glyph-name="Oacute" unicode="&#xd3;" horiz-adv-x="1541" 
d="M1366 1767q17 9 7 26l-50 87q-9 15 -27 1l-361 -250q-12 -9 -5 -22l38 -59q8 -17 25 -7zM660 -12q-249 0 -395.5 145t-146.5 377q0 162 74.5 319.5t196 274.5t285 189.5t333.5 72.5q249 0 395 -145t146 -378q0 -163 -74.5 -320t-195.5 -274t-284.5 -189t-333.5 -72z
M682 127q139 0 272.5 59.5t231.5 155t158 223t60 256.5q0 181 -111.5 293.5t-308.5 112.5q-138 0 -271.5 -59.5t-231 -155t-157.5 -223t-60 -256.5q0 -181 111 -293.5t307 -112.5z" />
    <glyph glyph-name="Ocircumflex" unicode="&#xd4;" horiz-adv-x="1541" 
d="M1149 1848l-352 -204q-18 -12 -21 -23l-16 -69q-4 -12 3.5 -17t19.5 1l362 196l249 -194q10 -7 19.5 -3t11.5 17l17 64q5 14 -7 22l-241 210q-19 14 -45 0zM660 -12q-249 0 -395.5 145t-146.5 377q0 162 74.5 319.5t196 274.5t285 189.5t333.5 72.5q249 0 395 -145
t146 -378q0 -163 -74.5 -320t-195.5 -274t-284.5 -189t-333.5 -72zM682 127q139 0 272.5 59.5t231.5 155t158 223t60 256.5q0 181 -111.5 293.5t-308.5 112.5q-138 0 -271.5 -59.5t-231 -155t-157.5 -223t-60 -256.5q0 -181 111 -293.5t307 -112.5z" />
    <glyph glyph-name="Otilde" unicode="&#xd5;" horiz-adv-x="1541" 
d="M1286 1581q-42 0 -77 14t-60.5 33.5l-51 39t-58.5 33.5t-72 14q-20 0 -39 -5t-32 -10.5t-28 -17t-21.5 -18t-18.5 -19t-14 -14.5q-13 -13 -23 0l-43 47q-10 10 2 25q44 59 88 86q57 35 122 35q44 0 81 -13.5t62.5 -33t50.5 -39t56.5 -33t68.5 -13.5q18 0 33.5 3t29.5 9.5
t23.5 11.5t21 15.5t16.5 15t15.5 16t11.5 13.5q14 10 24 0l44 -49q8 -11 -2 -24l-10 -13q-11 -14 -18 -21.5t-22 -22.5t-30 -24.5t-35 -20t-44.5 -15.5t-50.5 -5zM660 -12q-249 0 -395.5 145t-146.5 377q0 162 74.5 319.5t196 274.5t285 189.5t333.5 72.5q249 0 395 -145
t146 -378q0 -163 -74.5 -320t-195.5 -274t-284.5 -189t-333.5 -72zM682 127q139 0 272.5 59.5t231.5 155t158 223t60 256.5q0 181 -111.5 293.5t-308.5 112.5q-138 0 -271.5 -59.5t-231 -155t-157.5 -223t-60 -256.5q0 -181 111 -293.5t307 -112.5z" />
    <glyph glyph-name="Odieresis" unicode="&#xd6;" horiz-adv-x="1541" 
d="M922 1689q-30 0 -51.5 22t-21.5 52t21.5 51.5t51.5 21.5q31 0 52.5 -21.5t21.5 -51.5t-21.5 -52t-52.5 -22zM1342 1689q-31 0 -53 22t-22 52q0 31 21.5 52t53.5 21q30 0 51.5 -21.5t21.5 -51.5t-21.5 -52t-51.5 -22zM660 -12q-249 0 -395.5 145t-146.5 377
q0 162 74.5 319.5t196 274.5t285 189.5t333.5 72.5q249 0 395 -145t146 -378q0 -163 -74.5 -320t-195.5 -274t-284.5 -189t-333.5 -72zM682 127q139 0 272.5 59.5t231.5 155t158 223t60 256.5q0 181 -111.5 293.5t-308.5 112.5q-138 0 -271.5 -59.5t-231 -155t-157.5 -223
t-60 -256.5q0 -181 111 -293.5t307 -112.5z" />
    <glyph glyph-name="multiply" unicode="&#xd7;" horiz-adv-x="864" 
d="M904 946q12 -12 -3 -24l-327 -259l183 -246q10 -13 -2 -25l-73 -62q-14 -12 -24 1l-186 250l-318 -253q-14 -10 -24 3l-47 61q-11 14 4 25l319 253l-184 248q-8 14 2 24l75 63q11 11 24 -2l186 -251l324 258q12 12 24 -3z" />
    <glyph glyph-name="Oslash" unicode="&#xd8;" horiz-adv-x="1541" 
d="M1408 1215q140 -143 140 -372q0 -163 -74.5 -320t-195.5 -274t-284.5 -189t-333.5 -72q-180 0 -313 80l-102 -110q-13 -16 -28 0l-68 65q-12 12 0 27l96 103q-127 142 -127 357q0 162 74.5 319.5t196 274.5t285 189.5t333.5 72.5q167 0 296 -71l124 133q15 14 27 2
l68 -64q13 -15 -2 -30zM264 533q0 -161 87 -266l847 915q-89 45 -214 45q-138 0 -271.5 -59.5t-231 -155t-157.5 -223t-60 -256.5zM682 127q139 0 272.5 59.5t231.5 155t158 223t60 256.5q0 172 -101 281l-852 -920q95 -55 231 -55z" />
    <glyph glyph-name="Ugrave" unicode="&#xd9;" horiz-adv-x="1308" 
d="M739 1767l374 -224q15 -9 26 7l36 59q8 14 -3 22l-361 250q-20 14 -28 -1l-51 -87q-10 -17 7 -26zM1409 1354q24 0 19 -23l-223 -829q-28 -104 -85.5 -195.5t-139.5 -163.5t-195 -113.5t-242 -41.5q-89 0 -161 20t-121.5 56t-83 85.5t-47 108t-11.5 123.5t20 134l219 821
q5 18 24 18h100q11 0 16.5 -6.5t3.5 -16.5l-214 -791q-27 -112 -18.5 -191t52.5 -129t104 -72.5t135 -22.5q80 0 157 25.5t147 76t125.5 134.5t85.5 193l208 782q5 18 25 18h100z" />
    <glyph glyph-name="Uacute" unicode="&#xda;" horiz-adv-x="1308" 
d="M1248 1767q17 9 7 26l-50 87q-9 15 -27 1l-361 -250q-12 -9 -5 -22l38 -59q8 -17 25 -7zM1409 1354q24 0 19 -23l-223 -829q-28 -104 -85.5 -195.5t-139.5 -163.5t-195 -113.5t-242 -41.5q-89 0 -161 20t-121.5 56t-83 85.5t-47 108t-11.5 123.5t20 134l219 821
q5 18 24 18h100q11 0 16.5 -6.5t3.5 -16.5l-214 -791q-27 -112 -18.5 -191t52.5 -129t104 -72.5t135 -22.5q80 0 157 25.5t147 76t125.5 134.5t85.5 193l208 782q5 18 25 18h100z" />
    <glyph glyph-name="Ucircumflex" unicode="&#xdb;" horiz-adv-x="1308" 
d="M1031 1848l-351 -204q-17 -10 -20 -23l-18 -69q-4 -12 3.5 -17t19.5 1l362 196l249 -194q11 -7 20 -3t13 17l17 64q3 15 -9 22l-241 210q-17 15 -45 0zM1409 1354q24 0 19 -23l-223 -829q-28 -104 -85.5 -195.5t-139.5 -163.5t-195 -113.5t-242 -41.5q-89 0 -161 20
t-121.5 56t-83 85.5t-47 108t-11.5 123.5t20 134l219 821q5 18 24 18h100q11 0 16.5 -6.5t3.5 -16.5l-214 -791q-27 -112 -18.5 -191t52.5 -129t104 -72.5t135 -22.5q80 0 157 25.5t147 76t125.5 134.5t85.5 193l208 782q5 18 25 18h100z" />
    <glyph glyph-name="Udieresis" unicode="&#xdc;" horiz-adv-x="1308" 
d="M804 1689q-30 0 -51.5 22t-21.5 52t21.5 51.5t51.5 21.5q31 0 52.5 -21.5t21.5 -51.5t-21.5 -52t-52.5 -22zM1224 1689q-30 0 -51.5 22t-21.5 52q0 31 21.5 52t51.5 21q31 0 52.5 -21.5t21.5 -51.5t-21.5 -52t-52.5 -22zM1409 1354q24 0 19 -23l-223 -829
q-28 -104 -85.5 -195.5t-139.5 -163.5t-195 -113.5t-242 -41.5q-89 0 -161 20t-121.5 56t-83 85.5t-47 108t-11.5 123.5t20 134l219 821q5 18 24 18h100q11 0 16.5 -6.5t3.5 -16.5l-214 -791q-27 -112 -18.5 -191t52.5 -129t104 -72.5t135 -22.5q80 0 157 25.5t147 76
t125.5 134.5t85.5 193l208 782q5 18 25 18h100z" />
    <glyph glyph-name="Yacute" unicode="&#xdd;" horiz-adv-x="1249" 
d="M817 1550l-36 59q-10 13 3 22l361 250q17 13 28 -1l49 -87q12 -16 -5 -26l-375 -224q-17 -10 -25 7zM1430 1354q14 0 17.5 -8t-5.5 -18l-723 -792l-138 -519q-5 -17 -24 -17h-101q-22 0 -17 23l137 515l-293 791q-4 11 1 18t15 7h109q18 0 22 -18l250 -663l610 670
q11 11 26 11h114z" />
    <glyph glyph-name="Thorn" unicode="&#xde;" horiz-adv-x="1115" 
d="M760 1137q184 0 278 -94.5t94 -254.5q0 -151 -81 -282.5t-220.5 -209t-302.5 -77.5h-316l-54 -202q-5 -17 -24 -17h-101q-22 0 -17 23l350 1313q5 18 25 18h100q24 0 19 -23l-52 -194h302zM545 356q186 0 318.5 121.5t132.5 291.5q0 231 -265 231h-309l-174 -644h297z
" />
    <glyph glyph-name="germandbls" unicode="&#xdf;" horiz-adv-x="1124" 
d="M850 717q179 -57 179 -257q0 -128 -68 -233.5t-186 -166t-260 -60.5h-76q-24 0 -19 23l21 78q4 17 19 17h45q168 0 281 97.5t113 240.5q0 202 -236 202h-52q-21 0 -16 21l21 76q3 16 19 16h45q135 0 233.5 87t98.5 206q0 177 -248 177q-162 0 -265 -84t-145 -237
l-245 -904q-4 -16 -22 -16h-101q-17 0 -12 21l246 911q57 217 201 325.5t357 108.5q173 0 268.5 -68.5t95.5 -204.5q0 -120 -75.5 -219.5t-210.5 -149.5z" />
    <glyph glyph-name="agrave" unicode="&#xe0;" horiz-adv-x="1053" 
d="M486 1298q-17 9 -7 26l50 87q4 7 12.5 7t15.5 -5l361 -250q12 -9 4 -23l-37 -59q-11 -16 -26 -7zM1059 885q8 0 12.5 -5t2.5 -14l-227 -852q-5 -14 -19 -14h-104q-8 0 -13 5t-3 14l42 158q-75 -89 -173.5 -140t-208.5 -51q-149 0 -237 90t-88 243q0 108 44.5 213.5
t117.5 185.5t174 129.5t208 49.5q116 0 193.5 -55.5t104.5 -155.5l50 185q5 14 20 14h104zM413 106q134 0 245.5 90.5t155.5 220.5l14 50q7 34 7 71q0 110 -65.5 175t-174.5 65q-110 0 -208 -64t-155 -164.5t-57 -205.5q0 -109 63 -173.5t175 -64.5z" />
    <glyph glyph-name="aacute" unicode="&#xe1;" horiz-adv-x="1053" 
d="M597 1081l-38 59q-8 14 5 23l361 250q7 5 14.5 5t11.5 -7l50 -87q10 -17 -7 -26l-373 -224q-16 -9 -24 7zM1059 885q8 0 12.5 -5t2.5 -14l-227 -852q-5 -14 -19 -14h-104q-8 0 -13 5t-3 14l42 158q-75 -89 -173.5 -140t-208.5 -51q-149 0 -237 90t-88 243
q0 108 44.5 213.5t117.5 185.5t174 129.5t208 49.5q116 0 193.5 -55.5t104.5 -155.5l50 185q5 14 20 14h104zM413 106q134 0 245.5 90.5t155.5 220.5l14 50q7 34 7 71q0 110 -65.5 175t-174.5 65q-110 0 -208 -64t-155 -164.5t-57 -205.5q0 -109 63 -173.5t175 -64.5z" />
    <glyph glyph-name="acircumflex" unicode="&#xe2;" horiz-adv-x="1053" 
d="M411 1067q-12 -6 -19 -1t-3 17l17 69q2 12 21 23l351 205q28 15 45 0l241 -210q13 -7 9 -23l-18 -64q-4 -13 -13 -17t-20 3l-248 195zM1059 885q8 0 12.5 -5t2.5 -14l-227 -852q-5 -14 -19 -14h-104q-8 0 -13 5t-3 14l42 158q-75 -89 -173.5 -140t-208.5 -51
q-149 0 -237 90t-88 243q0 108 44.5 213.5t117.5 185.5t174 129.5t208 49.5q116 0 193.5 -55.5t104.5 -155.5l50 185q5 14 20 14h104zM413 106q134 0 245.5 90.5t155.5 220.5l14 50q7 34 7 71q0 110 -65.5 175t-174.5 65q-110 0 -208 -64t-155 -164.5t-57 -205.5
q0 -109 63 -173.5t175 -64.5z" />
    <glyph glyph-name="atilde" unicode="&#xe3;" horiz-adv-x="1053" 
d="M1126 1258q10 -10 -1 -24q-44 -59 -88 -86q-57 -35 -122 -35q-50 0 -93.5 21t-70 45.5t-68 45.5t-88.5 21q-24 0 -44.5 -5.5t-37.5 -17t-27 -19.5t-25 -23l-18 -18q-11 -11 -23 0l-43 47q-8 12 1 24q1 1 9 11.5t14 17.5t18 19.5t23 21t28 19t34 17t39 11t45 4.5
q44 0 81 -13.5t63.5 -32.5t51.5 -38.5t56.5 -33t67.5 -13.5q20 0 39 4.5t31.5 10t27 16.5t21 17.5t18.5 19t15 15.5q13 13 23 0zM1059 885q8 0 12.5 -5t2.5 -14l-227 -852q-5 -14 -19 -14h-104q-8 0 -13 5t-3 14l42 158q-75 -89 -173.5 -140t-208.5 -51q-149 0 -237 90
t-88 243q0 108 44.5 213.5t117.5 185.5t174 129.5t208 49.5q116 0 193.5 -55.5t104.5 -155.5l50 185q5 14 20 14h104zM413 106q134 0 245.5 90.5t155.5 220.5l14 50q7 34 7 71q0 110 -65.5 175t-174.5 65q-110 0 -208 -64t-155 -164.5t-57 -205.5q0 -109 63 -173.5
t175 -64.5z" />
    <glyph glyph-name="adieresis" unicode="&#xe4;" horiz-adv-x="1053" 
d="M550 1220q-30 0 -51.5 22.5t-21.5 52.5t21.5 51.5t51.5 21.5q31 0 53 -21.5t22 -51.5t-22 -52.5t-53 -22.5zM970 1220q-30 0 -51.5 22.5t-21.5 52.5q0 31 21.5 52t51.5 21q31 0 53 -21.5t22 -51.5t-22 -52.5t-53 -22.5zM1059 885q8 0 12.5 -5t2.5 -14l-227 -852
q-5 -14 -19 -14h-104q-8 0 -13 5t-3 14l42 158q-75 -89 -173.5 -140t-208.5 -51q-149 0 -237 90t-88 243q0 108 44.5 213.5t117.5 185.5t174 129.5t208 49.5q116 0 193.5 -55.5t104.5 -155.5l50 185q5 14 20 14h104zM413 106q134 0 245.5 90.5t155.5 220.5l14 50q7 34 7 71
q0 110 -65.5 175t-174.5 65q-110 0 -208 -64t-155 -164.5t-57 -205.5q0 -109 63 -173.5t175 -64.5z" />
    <glyph glyph-name="aring" unicode="&#xe5;" horiz-adv-x="1053" 
d="M680 1007q-66 0 -105.5 39.5t-39.5 102.5q0 90 74.5 160.5t168.5 70.5q64 0 103 -39t39 -102q0 -92 -74 -162t-166 -70zM758 1307q-55 0 -101 -42.5t-46 -99.5q0 -37 24.5 -60.5t63.5 -23.5q57 0 102.5 44t45.5 99q0 37 -25 60t-64 23zM1059 885q8 0 12.5 -5t2.5 -14
l-227 -852q-5 -14 -19 -14h-104q-8 0 -13 5t-3 14l42 158q-75 -89 -173.5 -140t-208.5 -51q-149 0 -237 90t-88 243q0 108 44.5 213.5t117.5 185.5t174 129.5t208 49.5q116 0 193.5 -55.5t104.5 -155.5l50 185q5 14 20 14h104zM413 106q134 0 245.5 90.5t155.5 220.5l14 50
q7 34 7 71q0 110 -65.5 175t-174.5 65q-110 0 -208 -64t-155 -164.5t-57 -205.5q0 -109 63 -173.5t175 -64.5z" />
    <glyph glyph-name="ae" unicode="&#xe6;" horiz-adv-x="1600" 
d="M1229 897q183 0 269.5 -114.5t53.5 -287.5q-8 -104 -118 -104h-639q-2 -14 -2 -40q0 -109 63 -180.5t196 -71.5q164 0 305 121q24 10 33 -8l25 -45q12 -17 -6 -33q-166 -148 -380 -148q-126 0 -214 52.5t-126 147.5q-81 -75 -173.5 -122t-161.5 -62.5t-132 -15.5
q-222 0 -222 196q0 67 25 121.5t73.5 93.5t110 67.5t144.5 48t166.5 30.5t186.5 19q32 121 -8 171t-150 50q-136 0 -289 -84q-24 -13 -28 9l-11 61q-3 21 23 33q180 95 354 95q230 0 245 -161q78 75 178 118t209 43zM1215 781q-134 0 -243 -83.5t-155 -208.5h615
q7 42 7.5 83t-14.5 79t-40 67t-69 46t-101 17zM283 92q88 0 189 46t194 133q-3 28 -3 59q0 66 19 137q-78 -6 -135 -12t-125 -18t-114.5 -30t-88 -44t-62 -64.5t-20.5 -86.5q0 -120 146 -120z" />
    <glyph glyph-name="ccedilla" unicode="&#xe7;" horiz-adv-x="919" 
d="M918 738q12 -21 -2 -32l-69 -43q-18 -10 -33 5q-66 111 -205 111q-86 0 -167.5 -37t-140 -96t-94 -135.5t-35.5 -154.5q0 -111 69.5 -180.5t188.5 -69.5q148 0 280 116q22 14 31 -3l35 -65q13 -15 -7 -29q-151 -127 -323 -137l-88 -101q10 2 33 2q77 0 125 -48t48 -126
q0 -110 -93.5 -194.5t-208.5 -84.5q-59 0 -101.5 25t-61.5 63q-5 16 7 25l40 29q13 9 22 -3q37 -59 113 -59q79 0 139.5 57.5t60.5 129.5q0 47 -29 77.5t-86 30.5q-36 0 -67 -14t-72 -49q-14 -11 -22 -1l-28 29q-5 8 4 17q3 3 3 6l168 191q-139 17 -222 109.5t-83 235.5
q0 144 81 274.5t214.5 209t280.5 78.5q107 0 182 -44t113 -115z" />
    <glyph glyph-name="egrave" unicode="&#xe8;" horiz-adv-x="982" 
d="M451 1298q-17 10 -5 26l49 87q11 14 27 2l361 -250q14 -10 4 -23l-37 -59q-8 -16 -24 -7zM611 897q183 0 269.5 -114.5t53.5 -287.5q-8 -104 -118 -104h-639q-2 -14 -2 -40q0 -109 63 -180.5t196 -71.5q164 0 305 121q24 10 33 -8l25 -45q12 -17 -6 -33
q-166 -148 -380 -148q-170 0 -268 93t-98 251q0 108 45 211.5t120.5 181.5t181 126t219.5 48zM597 781q-134 0 -242.5 -83.5t-154.5 -208.5h614q7 42 7.5 83t-14.5 79t-40 67t-69 46t-101 17z" />
    <glyph glyph-name="eacute" unicode="&#xe9;" horiz-adv-x="982" 
d="M967 1324q12 -16 -5 -26l-375 -224q-17 -10 -25 7l-36 59q-10 13 3 23l361 250q16 13 28 -2zM611 897q183 0 269.5 -114.5t53.5 -287.5q-8 -104 -118 -104h-639q-2 -14 -2 -40q0 -109 63 -180.5t196 -71.5q164 0 305 121q24 10 33 -8l25 -45q12 -17 -6 -33
q-166 -148 -380 -148q-170 0 -268 93t-98 251q0 108 45 211.5t120.5 181.5t181 126t219.5 48zM597 781q-134 0 -242.5 -83.5t-154.5 -208.5h614q7 42 7.5 83t-14.5 79t-40 67t-69 46t-101 17z" />
    <glyph glyph-name="ecircumflex" unicode="&#xea;" horiz-adv-x="982" 
d="M1029 1170q14 -8 9 -23l-17 -64q-4 -13 -13 -17t-20 3l-249 195l-361 -197q-12 -5 -19 -1t-5 17l17 69q2 10 21 23l353 205q26 15 43 0zM611 897q183 0 269.5 -114.5t53.5 -287.5q-8 -104 -118 -104h-639q-2 -14 -2 -40q0 -109 63 -180.5t196 -71.5q164 0 305 121
q24 10 33 -8l25 -45q12 -17 -6 -33q-166 -148 -380 -148q-170 0 -268 93t-98 251q0 108 45 211.5t120.5 181.5t181 126t219.5 48zM597 781q-134 0 -242.5 -83.5t-154.5 -208.5h614q7 42 7.5 83t-14.5 79t-40 67t-69 46t-101 17z" />
    <glyph glyph-name="edieresis" unicode="&#xeb;" horiz-adv-x="982" 
d="M517 1220q-31 0 -52.5 22.5t-21.5 52.5t21.5 51.5t52.5 21.5t52 -21.5t21 -51.5q0 -31 -21 -53t-52 -22zM935 1368q31 0 53 -21.5t22 -51.5t-22 -52.5t-53 -22.5q-30 0 -51 22.5t-21 52.5q0 31 21 52t51 21zM611 897q183 0 269.5 -114.5t53.5 -287.5q-8 -104 -118 -104
h-639q-2 -14 -2 -40q0 -109 63 -180.5t196 -71.5q164 0 305 121q24 10 33 -8l25 -45q12 -17 -6 -33q-166 -148 -380 -148q-170 0 -268 93t-98 251q0 108 45 211.5t120.5 181.5t181 126t219.5 48zM597 781q-134 0 -242.5 -83.5t-154.5 -208.5h614q7 42 7.5 83t-14.5 79
t-40 67t-69 46t-101 17z" />
    <glyph glyph-name="igrave" unicode="&#xec;" horiz-adv-x="359" 
d="M139 1298l373 -224q15 -9 26 7l36 59q8 15 -3 23l-361 250q-7 5 -15.5 5t-12.5 -7l-50 -87q-10 -17 7 -26zM12 0q-8 0 -12.5 5t-2.5 14l227 852q5 14 19 14h104q8 0 13 -5t3 -14l-228 -852q-5 -14 -19 -14h-104z" />
    <glyph glyph-name="iacute" unicode="&#xed;" horiz-adv-x="359" 
d="M647 1298q17 9 7 26l-50 87q-4 7 -11.5 7t-14.5 -5l-361 -250q-13 -9 -5 -23l38 -59q8 -16 24 -7zM12 0q-8 0 -12.5 5t-2.5 14l227 852q5 14 19 14h104q8 0 13 -5t3 -14l-228 -852q-5 -14 -19 -14h-104z" />
    <glyph glyph-name="icircumflex" unicode="&#xee;" horiz-adv-x="359" 
d="M430 1380l-350 -205q-19 -11 -21 -23l-17 -69q-4 -12 3 -17t19 1l363 197l248 -195q11 -7 20 -3t13 17l17 64q4 17 -8 23l-241 210q-17 15 -46 0zM12 0q-8 0 -12.5 5t-2.5 14l227 852q5 14 19 14h104q8 0 13 -5t3 -14l-228 -852q-5 -14 -19 -14h-104z" />
    <glyph glyph-name="idieresis" unicode="&#xef;" horiz-adv-x="359" 
d="M203 1220q-30 0 -51.5 22.5t-21.5 52.5t21.5 51.5t51.5 21.5q31 0 53 -21.5t22 -51.5t-22 -52.5t-53 -22.5zM623 1220q-30 0 -51.5 22.5t-21.5 52.5q0 31 21.5 52t51.5 21q31 0 53 -21.5t22 -51.5t-22 -52.5t-53 -22.5zM12 0q-8 0 -12.5 5t-2.5 14l227 852q5 14 19 14
h104q8 0 13 -5t3 -14l-228 -852q-5 -14 -19 -14h-104z" />
    <glyph glyph-name="eth" unicode="&#xf0;" horiz-adv-x="1070" 
d="M1303 1151q4 -20 -15 -23l-155 -38l-286 -1076q-5 -14 -19 -14h-104q-8 0 -13 5t-3 14l42 158q-73 -89 -172.5 -140t-209.5 -51q-149 0 -237 90t-88 243q0 108 44.5 213.5t117.5 185.5t174 129.5t208 49.5q116 0 193.5 -56t106.5 -157l99 370l-193 -47q-10 -3 -16 0
t-10 14l-10 34q-9 20 17 25l234 57l18 68q6 24 10.5 47.5t7 44.5t4.5 29q3 28 26 28h66q28 0 40.5 -18t4.5 -50l-29 -113l113 28q20 5 24 -14zM415 106q110 0 207.5 63.5t154 163t56.5 203.5q0 111 -65 176.5t-174 65.5q-110 0 -208 -64t-154.5 -164t-56.5 -205
q0 -109 64 -174t176 -65z" />
    <glyph glyph-name="ntilde" unicode="&#xf1;" 
d="M1100 1258q10 -10 -1 -24q-44 -59 -88 -86q-57 -35 -122 -35q-50 0 -93.5 21t-70 45.5t-68 45.5t-88.5 21q-24 0 -44.5 -5.5t-37.5 -17t-27 -19.5t-25 -23l-18 -18q-11 -11 -23 0l-43 47q-8 12 1 24q1 1 9 11.5t14 17.5t18 19.5t23 21t28 19t34 17t39 11t45 4.5
q44 0 81 -13.5t63.5 -32.5t51.5 -38.5t56.5 -33t67.5 -13.5q20 0 39 4.5t31.5 10t27 16.5t21 17.5t18.5 19t15 15.5q13 13 23 0zM686 897q143 0 219 -87.5t36 -238.5l-104 -389q-11 -43 -19.5 -95.5t-10.5 -60.5q-2 -26 -36 -26h-68q-22 0 -32.5 17t-5.5 39l133 494
q27 102 -20 163t-155 61q-98 0 -184 -47t-149 -121l-158 -592q-5 -14 -19 -14h-103q-20 0 -15 19l227 852q3 14 19 14h103q20 0 15 -19l-33 -125q166 156 360 156z" />
    <glyph glyph-name="ograve" unicode="&#xf2;" horiz-adv-x="1041" 
d="M474 1272l373 -224q15 -9 26 7l36 59q8 15 -3 23l-361 250q-7 5 -15.5 5t-12.5 -7l-50 -87q-10 -17 7 -26zM413 -14q-167 0 -266.5 94t-99.5 253q0 145 81 276t216.5 210.5t285.5 79.5q167 0 266.5 -94.5t99.5 -254.5q0 -109 -48 -213t-127 -181t-187 -123.5t-221 -46.5z
M429 106q113 0 215.5 62t163 161.5t60.5 205.5q0 110 -68 177t-184 67q-114 0 -216.5 -62t-162.5 -161t-60 -205q0 -111 67.5 -178t184.5 -67z" />
    <glyph glyph-name="oacute" unicode="&#xf3;" horiz-adv-x="1041" 
d="M982 1272q17 9 7 26l-50 87q-4 7 -11.5 7t-14.5 -5l-361 -250q-13 -9 -5 -23l38 -59q8 -16 24 -7zM413 -14q-167 0 -266.5 94t-99.5 253q0 145 81 276t216.5 210.5t285.5 79.5q167 0 266.5 -94.5t99.5 -254.5q0 -109 -48 -213t-127 -181t-187 -123.5t-221 -46.5zM429 106
q113 0 215.5 62t163 161.5t60.5 205.5q0 110 -68 177t-184 67q-114 0 -216.5 -62t-162.5 -161t-60 -205q0 -111 67.5 -178t184.5 -67z" />
    <glyph glyph-name="ocircumflex" unicode="&#xf4;" horiz-adv-x="1041" 
d="M765 1354l-350 -205q-19 -11 -21 -23l-17 -69q-4 -12 3 -17t19 1l363 196l248 -194q11 -7 20 -3t13 17l17 64q4 17 -8 23l-241 210q-17 15 -46 0zM413 -14q-167 0 -266.5 94t-99.5 253q0 145 81 276t216.5 210.5t285.5 79.5q167 0 266.5 -94.5t99.5 -254.5
q0 -109 -48 -213t-127 -181t-187 -123.5t-221 -46.5zM429 106q113 0 215.5 62t163 161.5t60.5 205.5q0 110 -68 177t-184 67q-114 0 -216.5 -62t-162.5 -161t-60 -205q0 -111 67.5 -178t184.5 -67z" />
    <glyph glyph-name="otilde" unicode="&#xf5;" horiz-adv-x="1041" 
d="M903 1086q-50 0 -93.5 21t-70 46t-68 46t-88.5 21q-24 0 -44.5 -5.5t-38 -17t-27.5 -19.5t-25.5 -23.5l-17.5 -17.5q-11 -11 -22 0l-44 47q-8 11 2 24q1 1 9 11.5t14 17.5t18 19.5t23 21t28 19t34 17t39 11t45 4.5q44 0 81 -13.5t63.5 -32.5t51.5 -38.5t56.5 -33
t67.5 -13.5q20 0 39 4.5t31.5 10t27 16.5t21 17.5t18.5 19t15 15.5q13 13 23 0l43 -49q10 -10 -1 -24q-43 -58 -85 -85q-57 -37 -125 -37zM413 -14q-167 0 -266.5 94t-99.5 253q0 145 81 276t216.5 210.5t285.5 79.5q167 0 266.5 -94.5t99.5 -254.5q0 -109 -48 -213
t-127 -181t-187 -123.5t-221 -46.5zM429 106q113 0 215.5 62t163 161.5t60.5 205.5q0 110 -68 177t-184 67q-114 0 -216.5 -62t-162.5 -161t-60 -205q0 -111 67.5 -178t184.5 -67z" />
    <glyph glyph-name="odieresis" unicode="&#xf6;" horiz-adv-x="1041" 
d="M538 1194q-30 0 -51.5 22.5t-21.5 52.5t21.5 51.5t51.5 21.5q31 0 53 -21.5t22 -51.5t-22 -52.5t-53 -22.5zM958 1194q-30 0 -51.5 22.5t-21.5 52.5q0 31 21.5 52t51.5 21q31 0 53 -21.5t22 -51.5t-22 -52.5t-53 -22.5zM413 -14q-167 0 -266.5 94t-99.5 253q0 145 81 276
t216.5 210.5t285.5 79.5q167 0 266.5 -94.5t99.5 -254.5q0 -109 -48 -213t-127 -181t-187 -123.5t-221 -46.5zM429 106q113 0 215.5 62t163 161.5t60.5 205.5q0 110 -68 177t-184 67q-114 0 -216.5 -62t-162.5 -161t-60 -205q0 -111 67.5 -178t184.5 -67z" />
    <glyph glyph-name="divide" unicode="&#xf7;" 
d="M666 953q-36 0 -64 27.5t-28 64.5q0 36 28 64t64 28q35 0 62 -27.5t27 -64.5t-27 -64.5t-62 -27.5zM148 595q-8 0 -12 5t-2 14l24 94q5 14 19 14h802q20 0 15 -19l-24 -94q-5 -14 -19 -14h-803zM467 181q-37 0 -65.5 27t-28.5 64t28.5 64.5t65.5 27.5q35 0 61 -27.5
t26 -64.5t-26 -64t-61 -27z" />
    <glyph glyph-name="oslash" unicode="&#xf8;" horiz-adv-x="1041" 
d="M923 776q73 -89 73 -226q0 -109 -48 -213t-127 -181t-187 -123.5t-221 -46.5q-115 0 -205 49l-81 -85q-12 -9 -23 0l-38 38q-9 11 0 22l75 77q-94 94 -94 246q0 145 81 276t216.5 210.5t285.5 79.5q138 0 231 -64l54 55q13 13 22 2l38 -38q10 -10 0 -23zM177 351
q0 -104 57 -167l533 554q-59 41 -151 41q-114 0 -216.5 -62t-162.5 -161t-60 -205zM429 106q113 0 215.5 62t163 161.5t60.5 205.5q0 82 -40 144l-526 -547q55 -26 127 -26z" />
    <glyph glyph-name="ugrave" unicode="&#xf9;" 
d="M413 1298q-17 9 -7 26l50 87q4 7 12.5 7t15.5 -5l361 -250q12 -9 4 -23l-37 -59q-11 -16 -26 -7zM1003 885q8 0 13 -5t3 -14l-228 -852q-5 -14 -19 -14h-104q-8 0 -12.5 5t-2.5 14l33 125q-170 -156 -358 -156q-144 0 -220.5 87.5t-36.5 238.5l104 389q11 43 19.5 95.5
t10.5 60.5q2 26 38 26h68q23 0 33 -16.5t3 -38.5l-132 -495q-27 -102 20 -163t156 -61q96 0 180.5 47t150.5 120l158 593q5 14 19 14h104z" />
    <glyph glyph-name="uacute" unicode="&#xfa;" 
d="M524 1081l-38 59q-8 14 5 23l361 250q7 5 14.5 5t11.5 -7l51 -87q10 -17 -7 -26l-374 -224q-16 -9 -24 7zM1003 885q8 0 13 -5t3 -14l-228 -852q-5 -14 -19 -14h-104q-8 0 -12.5 5t-2.5 14l33 125q-170 -156 -358 -156q-144 0 -220.5 87.5t-36.5 238.5l104 389
q11 43 19.5 95.5t10.5 60.5q2 26 38 26h68q23 0 33 -16.5t3 -38.5l-132 -495q-27 -102 20 -163t156 -61q96 0 180.5 47t150.5 120l158 593q5 14 19 14h104z" />
    <glyph glyph-name="ucircumflex" unicode="&#xfb;" 
d="M338 1067q-12 -6 -19 -1t-3 17l17 69q2 12 21 23l351 205q28 15 45 0l241 -210q13 -7 9 -23l-18 -64q-4 -13 -13 -17t-20 3l-248 195zM1003 885q8 0 13 -5t3 -14l-228 -852q-5 -14 -19 -14h-104q-8 0 -12.5 5t-2.5 14l33 125q-170 -156 -358 -156q-144 0 -220.5 87.5
t-36.5 238.5l104 389q11 43 19.5 95.5t10.5 60.5q2 26 38 26h68q23 0 33 -16.5t3 -38.5l-132 -495q-27 -102 20 -163t156 -61q96 0 180.5 47t150.5 120l158 593q5 14 19 14h104z" />
    <glyph glyph-name="udieresis" unicode="&#xfc;" 
d="M477 1220q-30 0 -51.5 22.5t-21.5 52.5t21.5 51.5t51.5 21.5q31 0 53 -21.5t22 -51.5t-22 -52.5t-53 -22.5zM897 1220q-30 0 -51.5 22.5t-21.5 52.5q0 31 21.5 52t51.5 21q31 0 53 -21.5t22 -51.5t-22 -52.5t-53 -22.5zM1003 885q8 0 13 -5t3 -14l-228 -852
q-5 -14 -19 -14h-104q-8 0 -12.5 5t-2.5 14l33 125q-170 -156 -358 -156q-144 0 -220.5 87.5t-36.5 238.5l104 389q11 43 19.5 95.5t10.5 60.5q2 26 38 26h68q23 0 33 -16.5t3 -38.5l-132 -495q-27 -102 20 -163t156 -61q96 0 180.5 47t150.5 120l158 593q5 14 19 14h104z
" />
    <glyph glyph-name="yacute" unicode="&#xfd;" horiz-adv-x="949" 
d="M944 1298q17 10 5 26l-48 87q-12 15 -28 2l-361 -250q-13 -10 -3 -23l36 -59q8 -16 24 -7zM78 -347q-10 0 -13 6.5t3 14.5l225 335l-137 859q-3 17 16 17h97q16 0 19 -17l109 -700h6l479 705q7 12 21 12h105q10 0 14 -6.5t-1 -14.5l-821 -1199q-7 -12 -23 -12h-99z" />
    <glyph glyph-name="thorn" unicode="&#xfe;" horiz-adv-x="1081" 
d="M713 897q148 0 235.5 -90.5t87.5 -245.5q0 -107 -44 -212t-116 -184.5t-172.5 -129t-207.5 -49.5q-110 0 -191 51.5t-116 143.5l-137 -514q-5 -14 -19 -14h-104q-19 0 -16 19l412 1533q8 32 14 75.5t6 45.5q3 28 26 28h68q29 0 41 -18.5t4 -49.5l-151 -566
q78 82 176.5 129.5t203.5 47.5zM484 106q112 0 210 63.5t154 163t56 205.5q0 110 -61.5 175t-172.5 65q-112 0 -211 -64.5t-156 -164.5t-57 -204q0 -111 64.5 -175t173.5 -64z" />
    <glyph glyph-name="ydieresis" unicode="&#xff;" horiz-adv-x="949" 
d="M500 1220q-31 0 -53 22.5t-22 52.5t22 51.5t53 21.5t52 -21.5t21 -51.5q0 -31 -21 -53t-52 -22zM918 1220q-30 0 -51.5 22.5t-21.5 52.5q0 31 21.5 52t51.5 21q31 0 53 -21.5t22 -51.5t-22 -52.5t-53 -22.5zM78 -347q-10 0 -13 6.5t3 14.5l225 335l-137 859q-3 17 16 17
h97q16 0 19 -17l109 -700h6l479 705q7 12 21 12h105q10 0 14 -6.5t-1 -14.5l-821 -1199q-7 -12 -23 -12h-99z" />
    <glyph glyph-name="Amacron" unicode="&#x100;" horiz-adv-x="1391" 
d="M1345 1843q20 0 16 -19l-21 -78q-4 -21 -26 -21h-556q-21 0 -13 19l20 78q5 21 25 21h555zM991 1335l246 -1311q3 -24 -15 -24h-101q-18 0 -21 24l-40 210h-814l-154 -215q-14 -19 -28 -19h-121q-11 0 -14.5 8t3.5 18l951 1312q11 16 26 16h59q17 0 23 -19zM331 351h709
l-148 779z" />
    <glyph glyph-name="amacron" unicode="&#x101;" horiz-adv-x="1053" 
d="M458 1222q-20 0 -15 19l20 78q5 21 26 21h554q23 0 16 -19l-21 -78q-4 -21 -26 -21h-554zM1059 885q8 0 12.5 -5t2.5 -14l-227 -852q-5 -14 -19 -14h-104q-8 0 -13 5t-3 14l42 158q-75 -89 -173.5 -140t-208.5 -51q-149 0 -237 90t-88 243q0 108 44.5 213.5t117.5 185.5
t174 129.5t208 49.5q116 0 193.5 -55.5t104.5 -155.5l50 185q5 14 20 14h104zM413 106q134 0 245.5 90.5t155.5 220.5l14 50q7 34 7 71q0 110 -65.5 175t-174.5 65q-110 0 -208 -64t-155 -164.5t-57 -205.5q0 -109 63 -173.5t175 -64.5z" />
    <glyph glyph-name="Abreve" unicode="&#x102;" horiz-adv-x="1391" 
d="M1373 1857q18 0 10 -28q-41 -132 -144.5 -211t-237.5 -79q-140 0 -212.5 82.5t-40.5 207.5q8 28 26 28h61q15 0 12 -24q-23 -92 27.5 -144t137.5 -52t164 51.5t107 144.5q11 24 26 24h64zM991 1335l246 -1311q3 -24 -15 -24h-101q-18 0 -21 24l-40 210h-814l-154 -215
q-14 -19 -28 -19h-121q-11 0 -14.5 8t3.5 18l951 1312q11 16 26 16h59q17 0 23 -19zM331 351h709l-148 779z" />
    <glyph glyph-name="abreve" unicode="&#x103;" horiz-adv-x="1053" 
d="M1071 1354q18 0 10 -28q-42 -132 -145 -211t-238 -79q-139 0 -212 82.5t-40 207.5q8 28 24 28h61q15 0 12 -25q-22 -92 29 -144t138 -52t164 51.5t107 144.5q11 25 26 25h64zM1059 885q8 0 12.5 -5t2.5 -14l-227 -852q-5 -14 -19 -14h-104q-8 0 -13 5t-3 14l42 158
q-75 -89 -173.5 -140t-208.5 -51q-149 0 -237 90t-88 243q0 108 44.5 213.5t117.5 185.5t174 129.5t208 49.5q116 0 193.5 -55.5t104.5 -155.5l50 185q5 14 20 14h104zM413 106q134 0 245.5 90.5t155.5 220.5l14 50q7 34 7 71q0 110 -65.5 175t-174.5 65q-110 0 -208 -64
t-155 -164.5t-57 -205.5q0 -109 63 -173.5t175 -64.5z" />
    <glyph glyph-name="Aogonek" unicode="&#x104;" horiz-adv-x="1391" 
d="M1237 24q3 -24 -15 -24h-40q-92 -12 -170 -46.5t-126.5 -89.5t-48.5 -119q0 -89 104 -89q60 0 144 42q9 4 15 0.5t4 -12.5l-14 -56q-3 -11 -23 -24q-94 -52 -178 -52q-77 0 -122 37.5t-45 104.5q0 75 56 144t141 115.5t181 68.5l-40 210h-814l-154 -215q-14 -19 -28 -19
h-121q-11 0 -14.5 8t3.5 18l951 1312q11 16 26 16h59q17 0 23 -19zM331 351h709l-148 779z" />
    <glyph glyph-name="aogonek" unicode="&#x105;" horiz-adv-x="1053" 
d="M1059 885q8 0 12.5 -5t2.5 -14l-227 -852q-5 -14 -19 -14h-44q-92 -12 -170 -46.5t-126.5 -89.5t-48.5 -119q0 -89 106 -89q58 0 142 42q11 4 17 0.5t4 -12.5l-15 -56q-2 -11 -23 -24q-93 -52 -177 -52q-78 0 -123 37.5t-45 104.5q0 75 57.5 145t144 116.5t183.5 68.5
l40 151q-75 -89 -173.5 -140t-208.5 -51q-149 0 -237 90t-88 243q0 108 44.5 213.5t117.5 185.5t174 129.5t208 49.5q116 0 193.5 -55.5t104.5 -155.5l50 185q5 14 20 14h104zM413 106q134 0 245.5 90.5t155.5 220.5l14 50q7 34 7 71q0 110 -65.5 175t-174.5 65
q-110 0 -208 -64t-155 -164.5t-57 -205.5q0 -109 63 -173.5t175 -64.5z" />
    <glyph glyph-name="Cacute" unicode="&#x106;" horiz-adv-x="1371" 
d="M1350 1767q17 9 7 26l-50 87q-8 15 -26 1l-361 -250q-12 -9 -5 -22l38 -59q8 -16 24 -7zM679 -12q-255 0 -407 143.5t-152 380.5q0 163 75 320t197.5 274t288 188.5t336.5 71.5q148 0 264.5 -55.5t179.5 -152.5q19 -26 4 -37l-83 -52q-16 -14 -35 9q-126 149 -340 149
q-139 0 -275.5 -58.5t-239 -153t-165.5 -222t-63 -258.5q0 -85 27 -158t79.5 -129t136.5 -88.5t191 -32.5q133 0 244.5 46.5t187.5 109.5q24 21 40 2l57 -75q14 -14 -16 -36q-243 -186 -532 -186z" />
    <glyph glyph-name="cacute" unicode="&#x107;" horiz-adv-x="919" 
d="M975 1298q18 10 6 26l-49 87q-12 15 -28 2l-361 -250q-13 -10 -3 -23l36 -59q8 -17 25 -7zM413 -14q-164 0 -265 95t-101 254q0 144 81 274.5t214.5 209t280.5 78.5q107 0 182 -44t113 -115q12 -21 -2 -32l-69 -43q-18 -10 -33 5q-66 111 -205 111q-86 0 -167.5 -37
t-140 -96t-94 -135.5t-35.5 -154.5q0 -111 69.5 -180.5t188.5 -69.5q148 0 280 116q22 14 31 -3l35 -65q13 -15 -7 -29q-161 -139 -356 -139z" />
    <glyph glyph-name="Cdotaccent" unicode="&#x10a;" horiz-adv-x="1371" 
d="M1109 1677q-32 0 -56 23.5t-24 55.5t24 56t56 24q33 0 56.5 -23.5t23.5 -56.5q0 -32 -23.5 -55.5t-56.5 -23.5zM679 -12q-255 0 -407 143.5t-152 380.5q0 163 75 320t197.5 274t288 188.5t336.5 71.5q148 0 264.5 -55.5t179.5 -152.5q19 -26 4 -37l-83 -52q-16 -14 -35 9
q-126 149 -340 149q-139 0 -275.5 -58.5t-239 -153t-165.5 -222t-63 -258.5q0 -85 27 -158t79.5 -129t136.5 -88.5t191 -32.5q133 0 244.5 46.5t187.5 109.5q24 21 40 2l57 -75q14 -14 -16 -36q-243 -186 -532 -186z" />
    <glyph glyph-name="cdotaccent" unicode="&#x10b;" horiz-adv-x="918" 
d="M732 1208q-32 0 -55.5 24t-23.5 56t23.5 56t55.5 24q33 0 56.5 -23.5t23.5 -56.5t-23.5 -56.5t-56.5 -23.5zM413 -14q-164 0 -265 95t-101 254q0 144 81 274.5t214.5 209t280.5 78.5q107 0 182 -44t113 -115q12 -21 -2 -32l-69 -43q-18 -10 -33 5q-66 111 -205 111
q-86 0 -167.5 -37t-140 -96t-94 -135.5t-35.5 -154.5q0 -111 69.5 -180.5t188.5 -69.5q148 0 280 116q22 14 31 -3l35 -65q13 -15 -7 -29q-161 -139 -356 -139z" />
    <glyph glyph-name="Ccaron" unicode="&#x10c;" horiz-adv-x="1371" 
d="M1073 1541l352 205q18 9 21 21l17 69q2 13 -5 17t-19 -1l-361 -196l-248 196q-25 12 -33 -14l-18 -64q-5 -14 9 -25l241 -208q17 -17 44 0zM679 -12q-255 0 -407 143.5t-152 380.5q0 163 75 320t197.5 274t288 188.5t336.5 71.5q148 0 264.5 -55.5t179.5 -152.5
q19 -26 4 -37l-83 -52q-16 -14 -35 9q-126 149 -340 149q-139 0 -275.5 -58.5t-239 -153t-165.5 -222t-63 -258.5q0 -85 27 -158t79.5 -129t136.5 -88.5t191 -32.5q133 0 244.5 46.5t187.5 109.5q24 21 40 2l57 -75q14 -14 -16 -36q-243 -186 -532 -186z" />
    <glyph glyph-name="ccaron" unicode="&#x10d;" horiz-adv-x="919" 
d="M698 1073l352 204q17 8 21 21l15 70q4 12 -3 16.5t-19 -1.5l-363 -196l-248 196q-10 5 -19.5 1.5t-11.5 -15.5l-18 -64q-4 -13 7 -24l242 -208q19 -16 45 0zM413 -14q-164 0 -265 95t-101 254q0 144 81 274.5t214.5 209t280.5 78.5q107 0 182 -44t113 -115q12 -21 -2 -32
l-69 -43q-18 -10 -33 5q-66 111 -205 111q-86 0 -167.5 -37t-140 -96t-94 -135.5t-35.5 -154.5q0 -111 69.5 -180.5t188.5 -69.5q148 0 280 116q22 14 31 -3l35 -65q13 -15 -7 -29q-161 -139 -356 -139z" />
    <glyph glyph-name="Dcaron" unicode="&#x10e;" horiz-adv-x="1409" 
d="M968 1506l353 205q18 9 21 21l17 70q2 12 -5 16.5t-19 -1.5l-361 -196l-249 196q-24 12 -32 -14l-18 -64q-5 -13 9 -24l241 -209q17 -17 43 0zM36 0q-25 0 -20 26l350 1307q5 21 26 21h455q279 0 418 -137.5t139 -373.5q0 -172 -68 -327.5t-184.5 -269t-281 -180
t-349.5 -66.5h-485zM187 130h363q149 0 282 57t227 152.5t148.5 224t54.5 267.5q0 186 -106.5 289.5t-322.5 103.5h-352z" />
    <glyph glyph-name="dcaron" unicode="&#x10f;" horiz-adv-x="1133" 
d="M1345 1382q37 0 61 -23t24 -64q0 -63 -55 -134t-120 -106q-6 -3 -10 -3t-6.5 2t-6.5 8l-8 16q-8 13 8 22q68 42 99 101q-5 -2 -17 -2q-29 0 -52 23.5t-23 56.5q0 43 31.5 73t74.5 30zM1140 1354q28 0 40.5 -18t4.5 -50l-338 -1272q-5 -14 -19 -14h-104q-8 0 -13 5t-3 14
l42 158q-73 -89 -172.5 -140t-209.5 -51q-149 0 -237 90t-88 243q0 108 44.5 213.5t117.5 185.5t174 129.5t208 49.5q116 0 193.5 -56t106.5 -157l139 521q6 24 10.5 47.5t7 44.5t4.5 29q3 28 26 28h66zM415 106q110 0 207.5 63.5t154 163t56.5 203.5q0 111 -65 176.5
t-174 65.5q-110 0 -208 -64t-154.5 -164t-56.5 -205q0 -109 64 -174t176 -65z" />
    <glyph glyph-name="Dcroat" unicode="&#x110;" horiz-adv-x="1371" 
d="M809 1354q279 0 418 -137.5t139 -373.5q0 -172 -68 -327.5t-185 -269t-281.5 -180t-349.5 -66.5h-484q-26 0 -21 26l157 583h-137q-9 0 -13.5 6t-2.5 15l26 95q3 14 19 14h142l160 594q5 21 26 21h455zM512 130q149 0 282 57t227 152.5t148.5 224t54.5 267.5
q0 186 -106.5 289.5t-322.5 103.5h-352l-131 -485h245q19 0 14 -19l-24 -95q-5 -16 -19 -16h-250l-129 -479h363z" />
    <glyph glyph-name="dcroat" unicode="&#x111;" horiz-adv-x="1076" 
d="M1269 1180q19 0 19 -19v-61q0 -20 -19 -20h-139l-283 -1066q-5 -14 -19 -14h-104q-8 0 -13 5t-3 14l42 158q-73 -89 -172.5 -140t-209.5 -51q-149 0 -237 90t-88 243q0 108 44.5 213.5t117.5 185.5t174 129.5t208 49.5q116 0 193.5 -56t106.5 -157l106 396h-266
q-21 0 -21 19v60q0 21 21 21h292l7 25q6 24 10.5 47.5t7 44.5t4.5 29q3 28 26 28h66q28 0 40.5 -18t4.5 -50l-27 -106h111zM415 106q110 0 207.5 63.5t154 163t56.5 203.5q0 111 -65 176.5t-174 65.5q-110 0 -208 -64t-154.5 -164t-56.5 -205q0 -109 64 -174t176 -65z" />
    <glyph glyph-name="Emacron" unicode="&#x112;" horiz-adv-x="1050" 
d="M1248 1808q20 0 16 -19l-21 -78q-5 -21 -26 -21h-556q-9 0 -13.5 5.5t-0.5 14.5l21 78q4 20 25 20h555zM1201 1354q10 0 14.5 -7t2.5 -16l-24 -88q-3 -19 -22 -19h-691l-127 -474h512q22 0 17 -23l-22 -88q-5 -18 -24 -18h-518l-132 -491h705q11 0 16 -7t3 -17l-26 -89
q-4 -17 -24 -17h-828q-22 0 -17 23l350 1313q5 18 25 18h810z" />
    <glyph glyph-name="emacron" unicode="&#x113;" horiz-adv-x="982" 
d="M1010 1340q20 0 16 -19l-21 -78q-7 -21 -26 -21h-556q-20 0 -15 19l21 78q7 21 26 21h555zM611 897q183 0 269.5 -114.5t53.5 -287.5q-8 -104 -118 -104h-639q-2 -14 -2 -40q0 -109 63 -180.5t196 -71.5q164 0 305 121q24 10 33 -8l25 -45q12 -17 -6 -33
q-166 -148 -380 -148q-170 0 -268 93t-98 251q0 108 45 211.5t120.5 181.5t181 126t219.5 48zM597 781q-134 0 -242.5 -83.5t-154.5 -208.5h614q7 42 7.5 83t-14.5 79t-40 67t-69 46t-101 17z" />
    <glyph glyph-name="Edotaccent" unicode="&#x116;" horiz-adv-x="1050" 
d="M958 1677q-32 0 -56 23.5t-24 55.5t24 56t56 24q33 0 56.5 -23.5t23.5 -56.5q0 -32 -23 -55.5t-57 -23.5zM1201 1354q10 0 14.5 -7t2.5 -16l-24 -88q-3 -19 -22 -19h-691l-127 -474h512q22 0 17 -23l-22 -88q-5 -18 -24 -18h-518l-132 -491h705q11 0 16 -7t3 -17l-26 -89
q-4 -17 -24 -17h-828q-22 0 -17 23l350 1313q5 18 25 18h810z" />
    <glyph glyph-name="edotaccent" unicode="&#x117;" horiz-adv-x="982" 
d="M719 1208q-32 0 -56 24t-24 56t24 56t56 24q33 0 56 -23.5t23 -56.5t-23 -56.5t-56 -23.5zM611 897q183 0 269.5 -114.5t53.5 -287.5q-8 -104 -118 -104h-639q-2 -14 -2 -40q0 -109 63 -180.5t196 -71.5q164 0 305 121q24 10 33 -8l25 -45q12 -17 -6 -33
q-166 -148 -380 -148q-170 0 -268 93t-98 251q0 108 45 211.5t120.5 181.5t181 126t219.5 48zM597 781q-134 0 -242.5 -83.5t-154.5 -208.5h614q7 42 7.5 83t-14.5 79t-40 67t-69 46t-101 17z" />
    <glyph glyph-name="Eogonek" unicode="&#x118;" horiz-adv-x="1050" 
d="M1201 1354q10 0 14.5 -7t2.5 -16l-24 -88q-3 -19 -22 -19h-691l-127 -474h512q22 0 17 -23l-22 -88q-5 -18 -24 -18h-518l-132 -491h705q11 0 16 -7t3 -17l-26 -89q-4 -17 -22 -17q-143 -18 -244.5 -89t-101.5 -166q0 -89 104 -89q60 0 144 42q9 4 15 0.5t4 -12.5
l-13 -56q-3 -11 -23 -24q-94 -52 -179 -52q-77 0 -121.5 37.5t-44.5 104.5q0 96 84.5 177t211.5 127h-666q-22 0 -17 23l350 1313q5 18 25 18h810z" />
    <glyph glyph-name="eogonek" unicode="&#x119;" horiz-adv-x="1022" 
d="M611 897q183 0 269.5 -114.5t53.5 -287.5q-8 -104 -118 -104h-639q-2 -14 -2 -40q0 -109 63 -180.5t196 -71.5q164 0 305 121q24 10 33 -8l25 -45q12 -17 -6 -33q-53 -48 -118 -84l58 -15q-70 -35 -109 -57t-81 -54.5t-60.5 -67.5t-18.5 -78q0 -59 35 -90.5t98 -31.5
q55 0 127 40q9 5 16 2t7 -12v-56q0 -10 -18 -24q-78 -52 -163 -52q-93 0 -149.5 51t-56.5 131q0 158 230 278q-89 -28 -177 -28q-170 0 -268 93t-98 251q0 108 45 211.5t120.5 181.5t181 126t219.5 48zM597 781q-134 0 -242.5 -83.5t-154.5 -208.5h614q7 42 7.5 83t-14.5 79
t-40 67t-69 46t-101 17z" />
    <glyph glyph-name="Ecaron" unicode="&#x11a;" horiz-adv-x="1050" 
d="M1288 1852q12 5 19 1t5 -17l-17 -69q-3 -12 -21 -21l-352 -205q-27 -17 -44 0l-241 208q-14 11 -9 25l18 64q8 26 33 14l248 -196zM1201 1354q10 0 14.5 -7t2.5 -16l-24 -88q-3 -19 -22 -19h-691l-127 -474h512q22 0 17 -23l-22 -88q-5 -18 -24 -18h-518l-132 -491h705
q11 0 16 -7t3 -17l-26 -89q-4 -17 -24 -17h-828q-22 0 -17 23l350 1313q5 18 25 18h810z" />
    <glyph glyph-name="ecaron" unicode="&#x11b;" horiz-adv-x="982" 
d="M1050 1383q12 6 19.5 1.5t3.5 -16.5l-16 -70q-4 -13 -21 -21l-352 -204q-26 -16 -45 0l-242 208q-11 11 -6 24l17 64q2 12 11.5 15.5t19.5 -1.5l248 -196zM611 897q183 0 269.5 -114.5t53.5 -287.5q-8 -104 -118 -104h-639q-2 -14 -2 -40q0 -109 63 -180.5t196 -71.5
q164 0 305 121q24 10 33 -8l25 -45q12 -17 -6 -33q-166 -148 -380 -148q-170 0 -268 93t-98 251q0 108 45 211.5t120.5 181.5t181 126t219.5 48zM597 781q-134 0 -242.5 -83.5t-154.5 -208.5h614q7 42 7.5 83t-14.5 79t-40 67t-69 46t-101 17z" />
    <glyph glyph-name="Gbreve" unicode="&#x11e;" horiz-adv-x="1419" 
d="M1040 1480q-140 0 -213 82.5t-41 207.5q8 28 26 28h61q15 0 12 -24q-23 -92 27.5 -144t137.5 -52t164 51.5t107 144.5q11 24 26 24h64q18 0 10 -28q-41 -132 -144 -211t-237 -79zM1461 1158q19 -26 4 -37l-83 -52q-16 -14 -35 9q-126 149 -340 149q-139 0 -275.5 -58.5
t-239 -153t-165.5 -222t-63 -258.5q0 -85 27 -158t79.5 -129t137 -88.5t191.5 -32.5q134 0 249.5 47t200.5 112l76 285h-364q-23 0 -18 23l23 85q4 17 24 17h472q10 0 16 -7t4 -16l-127 -465q-263 -220 -580 -220q-253 0 -404 144t-151 380q0 163 75 320t197.5 274
t288 188.5t336.5 71.5q148 0 264.5 -55.5t179.5 -152.5z" />
    <glyph glyph-name="gbreve" unicode="&#x11f;" horiz-adv-x="1008" 
d="M686 1031q-139 0 -212 82t-40 206q8 30 24 30h61q15 0 12 -26q-22 -92 29 -143.5t138 -51.5t163.5 51t106.5 144q11 26 26 26h65q18 0 10 -30q-42 -132 -145 -210t-238 -78zM1059 885q20 0 15 -19l-225 -840q-30 -109 -85 -191t-125.5 -128.5t-147.5 -69t-160 -22.5
q-95 0 -182.5 25t-141.5 72q-13 10 -4 22l47 65q8 11 23 3q44 -35 116.5 -52t140.5 -17q137 0 241 78.5t148 237.5l34 132q-76 -91 -175 -143t-210 -52q-149 0 -237 90t-88 243q0 108 44.5 213.5t117.5 185.5t174 129.5t208 49.5q116 0 194.5 -57t105.5 -158l50 189
q3 14 19 14h103zM415 106q110 0 207.5 63.5t154 163t56.5 203.5q0 111 -65 176.5t-174 65.5q-110 0 -208 -64t-154.5 -164t-56.5 -205q0 -109 64 -174t176 -65z" />
    <glyph glyph-name="Gdotaccent" unicode="&#x120;" horiz-adv-x="1419" 
d="M1093 1652q-32 0 -55.5 24t-23.5 56t23.5 56t55.5 24q33 0 56.5 -23.5t23.5 -56.5t-23.5 -56.5t-56.5 -23.5zM1461 1158q19 -26 4 -37l-83 -52q-16 -14 -35 9q-126 149 -340 149q-139 0 -275.5 -58.5t-239 -153t-165.5 -222t-63 -258.5q0 -85 27 -158t79.5 -129
t137 -88.5t191.5 -32.5q134 0 249.5 47t200.5 112l76 285h-364q-23 0 -18 23l23 85q4 17 24 17h472q10 0 16 -7t4 -16l-127 -465q-263 -220 -580 -220q-253 0 -404 144t-151 380q0 163 75 320t197.5 274t288 188.5t336.5 71.5q148 0 264.5 -55.5t179.5 -152.5z" />
    <glyph glyph-name="gdotaccent" unicode="&#x121;" horiz-adv-x="1008" 
d="M741 1203q-32 0 -56 24t-24 56t24 55.5t56 23.5q33 0 56.5 -23t23.5 -56t-23.5 -56.5t-56.5 -23.5zM1059 885q20 0 15 -19l-225 -840q-30 -109 -85 -191t-125.5 -128.5t-147.5 -69t-160 -22.5q-95 0 -182.5 25t-141.5 72q-13 10 -4 22l47 65q8 11 23 3q44 -35 116.5 -52
t140.5 -17q137 0 241 78.5t148 237.5l34 132q-76 -91 -175 -143t-210 -52q-149 0 -237 90t-88 243q0 108 44.5 213.5t117.5 185.5t174 129.5t208 49.5q116 0 194.5 -57t105.5 -158l50 189q3 14 19 14h103zM415 106q110 0 207.5 63.5t154 163t56.5 203.5q0 111 -65 176.5
t-174 65.5q-110 0 -208 -64t-154.5 -164t-56.5 -205q0 -109 64 -174t176 -65z" />
    <glyph glyph-name="uni0122" unicode="&#x122;" horiz-adv-x="1419" 
d="M1461 1158q19 -26 4 -37l-83 -52q-16 -14 -35 9q-126 149 -340 149q-139 0 -275.5 -58.5t-239 -153t-165.5 -222t-63 -258.5q0 -85 27 -158t79.5 -129t137 -88.5t191.5 -32.5q134 0 249.5 47t200.5 112l76 285h-364q-23 0 -18 23l23 85q4 17 24 17h472q10 0 16 -7t4 -16
l-127 -465q-263 -220 -580 -220q-253 0 -404 144t-151 380q0 163 75 320t197.5 274t288 188.5t336.5 71.5q148 0 264.5 -55.5t179.5 -152.5zM597 -168q37 0 61 -23t24 -64q0 -63 -55 -134t-120 -106q-14 -8 -21 7l-10 16q-5 13 8 22q68 42 99 101q-5 -2 -17 -2
q-29 0 -52 23.5t-23 56.5q0 43 31.5 73t74.5 30z" />
    <glyph glyph-name="uni0123" unicode="&#x123;" horiz-adv-x="1008" 
d="M588 1015q-36 0 -60.5 24t-24.5 65q0 63 55 132.5t121 106.5q12 7 20 -7l11 -17q5 -11 -9 -21q-71 -48 -99 -100q2 1 18 1q29 0 51.5 -23.5t22.5 -57.5q0 -42 -32 -72.5t-74 -30.5zM1059 885q20 0 15 -19l-225 -840q-30 -109 -85 -191t-125.5 -128.5t-147.5 -69
t-160 -22.5q-95 0 -182.5 25t-141.5 72q-13 10 -4 22l47 65q8 11 23 3q44 -35 116.5 -52t140.5 -17q137 0 241 78.5t148 237.5l34 132q-76 -91 -175 -143t-210 -52q-149 0 -237 90t-88 243q0 108 44.5 213.5t117.5 185.5t174 129.5t208 49.5q116 0 194.5 -57t105.5 -158
l50 189q3 14 19 14h103zM415 106q110 0 207.5 63.5t154 163t56.5 203.5q0 111 -65 176.5t-174 65.5q-110 0 -208 -64t-154.5 -164t-56.5 -205q0 -109 64 -174t176 -65z" />
    <glyph glyph-name="Hbar" unicode="&#x126;" horiz-adv-x="1386" 
d="M1479 1354q22 0 17 -23l-352 -1314q-1 -7 -8 -12t-15 -5h-102q-23 0 -18 23l162 598h-844l-161 -604q-5 -17 -24 -17h-101q-22 0 -17 23l350 1313q5 18 25 18h100q24 0 19 -23l-64 -238h842l66 243q4 18 22 18h103zM354 750h842l61 225h-842z" />
    <glyph glyph-name="hbar" unicode="&#x127;" horiz-adv-x="1013" 
d="M684 897q143 0 220.5 -88t37.5 -238l-104 -390q-11 -42 -19 -93.5t-10 -61.5q-2 -26 -38 -26h-68q-23 0 -33.5 17t-3.5 39l132 494q27 102 -17.5 162t-150.5 60q-97 0 -185 -47t-155 -119l-158 -592q-5 -14 -19 -14h-103q-20 0 -15 19l290 1083h-98q-20 0 -20 21v64
q0 21 20 21h127q11 47 19 118q3 28 26 28h68q27 0 39.5 -18.5t5.5 -49.5l-21 -78h136q20 0 20 -19v-66q0 -21 -20 -21h-164l-97 -363q168 158 358 158z" />
    <glyph glyph-name="Imacron" unicode="&#x12a;" horiz-adv-x="399" 
d="M262 1788q4 20 24 20h556q19 0 15 -19l-20 -78q-5 -21 -26 -21h-556q-9 0 -13.5 5.5t-0.5 14.5zM33 0q-22 0 -17 23l350 1313q5 18 25 18h100q24 0 19 -23l-352 -1314q-5 -17 -24 -17h-101z" />
    <glyph glyph-name="imacron" unicode="&#x12b;" horiz-adv-x="359" 
d="M116 1319q4 21 26 21h554q23 0 16 -19l-21 -78q-5 -21 -26 -21h-554q-21 0 -16 19zM12 0q-8 0 -12.5 5t-2.5 14l227 852q5 14 19 14h104q8 0 13 -5t3 -14l-228 -852q-5 -14 -19 -14h-104z" />
    <glyph glyph-name="Iogonek" unicode="&#x12e;" horiz-adv-x="399" 
d="M491 1354q24 0 19 -23l-352 -1314q-5 -17 -24 -17h-4q-92 -12 -170 -46.5t-126.5 -89.5t-48.5 -119q0 -89 104 -89q60 0 144 42q9 4 15 0.5t4 -12.5l-14 -56q-4 -12 -22 -24q-94 -52 -179 -52q-77 0 -122 37.5t-45 104.5q0 105 101.5 192.5t242.5 127.5l2 7l350 1313
q5 18 25 18h100z" />
    <glyph glyph-name="iogonek" unicode="&#x12f;" horiz-adv-x="359" 
d="M406 1368q33 0 56.5 -23.5t23.5 -56.5t-23.5 -56.5t-56.5 -23.5q-32 0 -56 24t-24 56t24 56t56 24zM347 885q8 0 13 -5t3 -14l-228 -852q-5 -14 -19 -14q-92 -12 -170 -46.5t-126.5 -89.5t-48.5 -119q0 -89 104 -89q60 0 144 42q9 4 15 0.5t4 -12.5l-14 -56
q-4 -12 -22 -24q-94 -52 -179 -52q-77 0 -122 37.5t-45 104.5q0 104 100 191t241 127v5l227 852q5 14 19 14h104z" />
    <glyph glyph-name="Idotaccent" unicode="&#x130;" horiz-adv-x="399" 
d="M422 1711q-32 0 -56 24t-24 56t24 56t56 24q33 0 56.5 -23.5t23.5 -56.5t-23.5 -56.5t-56.5 -23.5zM33 0q-22 0 -17 23l350 1313q5 18 25 18h100q24 0 19 -23l-352 -1314q-5 -17 -24 -17h-101z" />
    <glyph glyph-name="dotlessi" unicode="&#x131;" horiz-adv-x="359" 
d="M12 0q-8 0 -12.5 5t-2.5 14l227 852q5 14 19 14h104q8 0 13 -5t3 -14l-228 -852q-5 -14 -19 -14h-104z" />
    <glyph glyph-name="IJ" unicode="&#x132;" horiz-adv-x="789" 
d="M33 0q-22 0 -17 23l350 1313q5 18 25 18h100q24 0 19 -23l-352 -1314q-5 -17 -24 -17h-101zM890 1354q23 0 18 -23l-412 -1532q-38 -145 -130 -235.5t-213 -127.5q-31 -10 -37 12l-26 102q-5 25 14 25q96 21 162.5 84t91.5 157l407 1520q5 18 25 18h100z" />
    <glyph glyph-name="ij" unicode="&#x133;" horiz-adv-x="734" 
d="M420 1232q-32 0 -54 22.5t-22 54.5q0 31 22 52.5t54 21.5t53.5 -21.5t21.5 -52.5q0 -32 -22 -54.5t-53 -22.5zM779 1232q-32 0 -54 22.5t-22 54.5q0 31 22 52.5t54 21.5t53.5 -21.5t21.5 -52.5q0 -32 -22 -54.5t-53 -22.5zM17 0q-20 0 -15 19l227 852q3 14 19 14h103
q20 0 15 -19l-227 -852q-5 -14 -19 -14h-103zM236 -384q-26 -8 -31 16l-24 99q-7 24 13 29q60 21 94.5 55t51.5 100l255 956q5 14 19 14h105q18 0 15 -19l-257 -953q-34 -126 -84.5 -191t-156.5 -106z" />
    <glyph glyph-name="uni0136" unicode="&#x136;" horiz-adv-x="1155" 
d="M1298 1354q14 0 17.5 -8.5t-6.5 -17.5l-856 -656l533 -646q8 -10 4.5 -18t-16.5 -8h-122q-17 0 -26 12l-503 618l-165 -613q-5 -17 -24 -17h-101q-22 0 -17 23l350 1313q5 18 25 18h100q24 0 19 -23l-163 -607l793 621q12 9 26 9h132zM368 -168q37 0 61 -23t24 -64
q0 -63 -55 -134t-120 -106q-14 -8 -21 7l-11 16q-5 12 9 22q68 42 99 101q-5 -2 -17 -2q-29 0 -52 23.5t-23 56.5q0 43 31.5 73t74.5 30z" />
    <glyph glyph-name="uni0137" unicode="&#x137;" horiz-adv-x="909" 
d="M923 885q12 0 14.5 -6.5t-7.5 -14.5l-560 -411l380 -432q7 -7 3.5 -14t-14.5 -7h-126q-13 0 -23 10l-342 396l-106 -392q-3 -14 -19 -14h-102q-21 0 -16 19l318 1186q6 24 10.5 47.5t7 44.5t4.5 29q0 28 25 28h67q28 0 40.5 -18t4.5 -50l-206 -774l496 366q10 7 21 7h130
zM345 -168q37 0 61 -23t24 -64q0 -63 -55 -134t-120 -106q-6 -3 -9.5 -3t-6 2t-6.5 8l-9 16q-7 13 9 22q67 41 98 101q-5 -2 -17 -2q-29 0 -51.5 23.5t-22.5 56.5q0 44 31 73.5t74 29.5z" />
    <glyph glyph-name="Lacute" unicode="&#x139;" horiz-adv-x="1022" 
d="M793 1767q17 9 7 26l-50 87q-8 15 -26 1l-361 -250q-12 -9 -5 -22l38 -59q8 -16 24 -7zM830 130q11 0 16 -7t3 -17l-25 -89q-4 -17 -24 -17h-767q-22 0 -17 23l350 1313q5 18 25 18h100q24 0 19 -23l-323 -1201h643z" />
    <glyph glyph-name="lacute" unicode="&#x13a;" horiz-adv-x="369" 
d="M784 1767q17 9 7 26l-50 87q-8 15 -28 1l-361 -250q-11 -8 -3 -22l36 -59q11 -16 26 -7zM21 0q-21 0 -16 19l318 1186q6 24 10.5 47.5t7 44.5t4.5 29q0 28 25 28h67q28 0 40.5 -18t4.5 -50l-340 -1272q-3 -14 -19 -14h-102z" />
    <glyph glyph-name="uni013B" unicode="&#x13b;" horiz-adv-x="1022" 
d="M830 130q11 0 16 -7t3 -17l-25 -89q-4 -17 -24 -17h-767q-22 0 -17 23l350 1313q5 18 25 18h100q24 0 19 -23l-323 -1201h643zM245 -495q-14 -8 -21 7l-11 16q-5 12 9 22q68 42 99 101q-5 -2 -17 -2q-29 0 -52 23.5t-23 56.5q0 43 31.5 73t74.5 30q37 0 61 -23t24 -64
q0 -63 -55 -134t-120 -106z" />
    <glyph glyph-name="uni013C" unicode="&#x13c;" horiz-adv-x="369" 
d="M21 0q-21 0 -16 19l318 1186q6 24 10.5 47.5t7 44.5t4.5 29q0 28 25 28h67q28 0 40.5 -18t4.5 -50l-340 -1272q-3 -14 -19 -14h-102zM-101 -495q-7 -3 -11 -3t-6 2t-5 8l-11 16q-5 12 9 22q68 42 99 101q-3 -2 -16 -2q-30 0 -53 23.5t-23 56.5q0 43 32 73t74 30
q38 0 62.5 -23t24.5 -64q0 -63 -55.5 -134t-120.5 -106z" />
    <glyph glyph-name="Lcaron" unicode="&#x13d;" horiz-adv-x="1022" 
d="M607 1038q-12 -7 -20 7l-11 17q-5 11 9 21q71 47 99 101q-5 -2 -18 -2q-29 0 -51.5 24t-22.5 58q0 42 31.5 72t74.5 30q36 0 60.5 -24t24.5 -65q0 -63 -55 -132.5t-121 -106.5zM830 130q11 0 16 -7t3 -17l-25 -89q-4 -17 -24 -17h-767q-22 0 -17 23l350 1313q5 18 25 18
h100q24 0 19 -23l-323 -1201h643z" />
    <glyph glyph-name="lcaron" unicode="&#x13e;" horiz-adv-x="454" 
d="M548 1045q-11 -7 -22 7l-9 17q-8 12 9 21q70 47 99 101q-5 -2 -18 -2q-29 0 -51.5 23.5t-22.5 57.5q0 42 32 72.5t74 30.5q36 0 60.5 -24t24.5 -65q0 -63 -55 -132.5t-121 -106.5zM21 0q-21 0 -16 19l318 1186q6 24 10.5 47.5t7 44.5t4.5 29q0 28 25 28h67q28 0 40.5 -18
t4.5 -50l-340 -1272q-3 -14 -19 -14h-102z" />
    <glyph glyph-name="Ldot" unicode="&#x13f;" horiz-adv-x="1022" 
d="M830 130q11 0 16 -7t3 -17l-25 -89q-4 -17 -24 -17h-767q-22 0 -17 23l350 1313q5 18 25 18h100q24 0 19 -23l-323 -1201h643zM769 595q-42 0 -71.5 29t-29.5 70q0 42 29.5 71.5t71.5 29.5q39 0 69 -29.5t30 -71.5q0 -40 -30 -69.5t-69 -29.5z" />
    <glyph glyph-name="ldot" unicode="&#x140;" horiz-adv-x="428" 
d="M21 0q-21 0 -16 19l318 1186q6 24 10.5 47.5t7 44.5t4.5 29q0 28 25 28h67q28 0 40.5 -18t4.5 -50l-340 -1272q-3 -14 -19 -14h-102zM422 601q-39 0 -66.5 27.5t-27.5 65.5q0 39 27.5 66.5t66.5 27.5t66 -27.5t27 -66.5q0 -38 -27 -65.5t-66 -27.5z" />
    <glyph glyph-name="Lslash" unicode="&#x141;" horiz-adv-x="1017" 
d="M824 130q11 0 16 -7t3 -17l-24 -89q-4 -17 -24 -17h-767q-23 0 -18 23l150 558l-118 -60q-21 -9 -28 8l-44 94q-7 17 11 28l229 118l151 567q5 18 24 18h101q24 0 19 -23l-128 -475l246 126q19 9 26 -8l42 -94q9 -15 -9 -28l-356 -184l-144 -538h642z" />
    <glyph glyph-name="lslash" unicode="&#x142;" horiz-adv-x="413" 
d="M522 816q12 -22 -8 -35l-162 -88l-180 -679q-5 -14 -19 -14h-104q-8 0 -13 5t-3 14l156 583l-114 -62q-20 -13 -33 8l-16 25q-11 20 10 34l181 99l134 499q6 24 10.5 47.5t7 44.5t4.5 29q3 28 26 28h66q28 0 40.5 -18t4.5 -50l-130 -489l96 52q19 10 31 -9z" />
    <glyph glyph-name="Nacute" unicode="&#x143;" horiz-adv-x="1402" 
d="M1295 1767q17 9 7 26l-51 87q-8 15 -26 1l-361 -250q-12 -9 -5 -22l38 -59q8 -17 25 -7zM33 0q-22 0 -17 23l350 1313q5 18 25 18h104q16 0 24 -16l548 -1118l302 1116q4 18 23 18h102q23 0 18 -23l-353 -1314q-3 -17 -22 -17h-106q-18 0 -23 16l-550 1117l-300 -1116
q-5 -17 -24 -17h-101z" />
    <glyph glyph-name="nacute" unicode="&#x144;" 
d="M975 1324q10 -17 -7 -26l-373 -224q-16 -9 -24 7l-38 59q-8 14 5 23l361 250q7 5 14.5 5t11.5 -7zM686 897q143 0 219 -87.5t36 -238.5l-104 -389q-11 -43 -19.5 -95.5t-10.5 -60.5q-2 -26 -36 -26h-68q-22 0 -32.5 17t-5.5 39l133 494q27 102 -20 163t-155 61
q-98 0 -184 -47t-149 -121l-158 -592q-5 -14 -19 -14h-103q-20 0 -15 19l227 852q3 14 19 14h103q20 0 15 -19l-33 -125q166 156 360 156z" />
    <glyph glyph-name="uni0145" unicode="&#x145;" horiz-adv-x="1402" 
d="M33 0q-22 0 -17 23l350 1313q5 18 25 18h104q16 0 24 -16l548 -1118l302 1116q4 18 23 18h102q23 0 18 -23l-353 -1314q-3 -17 -22 -17h-106q-18 0 -23 16l-550 1117l-300 -1116q-5 -17 -24 -17h-101zM406 -495q-14 -8 -21 7l-10 16q-5 12 9 22q67 41 98 101
q-5 -2 -17 -2q-29 0 -51.5 23.5t-22.5 56.5q0 44 31 73.5t74 29.5q37 0 61 -23t24 -64q0 -63 -55 -134t-120 -106z" />
    <glyph glyph-name="uni0146" unicode="&#x146;" 
d="M686 897q143 0 219 -87.5t36 -238.5l-104 -389q-11 -43 -19.5 -95.5t-10.5 -60.5q-2 -26 -36 -26h-68q-22 0 -32.5 17t-5.5 39l133 494q27 102 -20 163t-155 61q-98 0 -184 -47t-149 -121l-158 -592q-5 -14 -19 -14h-103q-20 0 -15 19l227 852q3 14 19 14h103
q20 0 15 -19l-33 -125q166 156 360 156zM304 -168q37 0 61 -23t24 -64q0 -63 -55.5 -134t-120.5 -106q-6 -3 -9.5 -3t-6 2t-6.5 8l-9 16q-7 13 9 22q68 42 99 101q-5 -2 -18 -2q-29 0 -51.5 23.5t-22.5 56.5q0 43 31.5 73t74.5 30z" />
    <glyph glyph-name="Ncaron" unicode="&#x147;" horiz-adv-x="1402" 
d="M1017 1541l352 205q18 9 21 21l18 69q2 12 -5.5 17t-19.5 -1l-361 -196l-248 196q-25 12 -33 -14l-17 -64q-5 -15 8 -25l242 -208q17 -17 43 0zM33 0q-22 0 -17 23l350 1313q5 18 25 18h104q16 0 24 -16l548 -1118l302 1116q4 18 23 18h102q23 0 18 -23l-353 -1314
q-3 -17 -22 -17h-106q-18 0 -23 16l-550 1117l-300 -1116q-5 -17 -24 -17h-101z" />
    <glyph glyph-name="ncaron" unicode="&#x148;" 
d="M1059 1383q12 6 19 1.5t3 -16.5l-17 -70q-3 -14 -21 -21l-350 -204q-29 -17 -46 0l-241 208q-12 10 -9 24l18 64q8 26 33 14l248 -196zM686 897q143 0 219 -87.5t36 -238.5l-104 -389q-11 -43 -19.5 -95.5t-10.5 -60.5q-2 -26 -36 -26h-68q-22 0 -32.5 17t-5.5 39
l133 494q27 102 -20 163t-155 61q-98 0 -184 -47t-149 -121l-158 -592q-5 -14 -19 -14h-103q-20 0 -15 19l227 852q3 14 19 14h103q20 0 15 -19l-33 -125q166 156 360 156z" />
    <glyph glyph-name="Eng" unicode="&#x14a;" horiz-adv-x="1402" 
d="M1494 1354q23 0 18 -23l-353 -1314q0 -5 -5 -8l-55 -210q-40 -146 -131.5 -236.5t-212.5 -126.5q-30 -10 -36 12l-26 102q-5 25 13 25q96 21 162.5 84.5t91.5 156.5l52 193q-4 4 -4 7l-550 1117l-300 -1116q-5 -17 -24 -17h-101q-22 0 -17 23l350 1313q5 18 25 18h104
q16 0 24 -16l548 -1118l101 375l200 741q4 18 22 18h104z" />
    <glyph glyph-name="eng" unicode="&#x14b;" horiz-adv-x="1013" 
d="M686 897q143 0 219 -87.5t36 -238.5l-186 -696q-33 -125 -84.5 -190t-156.5 -107q-27 -8 -32 16l-26 99q-5 24 14 29q60 18 95.5 53.5t52.5 101.5l180 673q27 102 -20 163t-155 61q-98 0 -184 -47t-149 -121l-158 -592q-5 -14 -19 -14h-103q-20 0 -15 19l227 852
q3 14 19 14h103q20 0 15 -19l-33 -125q166 156 360 156z" />
    <glyph glyph-name="Omacron" unicode="&#x14c;" horiz-adv-x="1541" 
d="M835 1788q4 20 24 20h556q19 0 15 -19l-21 -78q-5 -21 -26 -21h-555q-9 0 -13.5 5.5t-0.5 14.5zM660 -12q-249 0 -395.5 145t-146.5 377q0 162 74.5 319.5t196 274.5t285 189.5t333.5 72.5q249 0 395 -145t146 -378q0 -163 -74.5 -320t-195.5 -274t-284.5 -189
t-333.5 -72zM682 127q139 0 272.5 59.5t231.5 155t158 223t60 256.5q0 181 -111.5 293.5t-308.5 112.5q-138 0 -271.5 -59.5t-231 -155t-157.5 -223t-60 -256.5q0 -181 111 -293.5t307 -112.5z" />
    <glyph glyph-name="omacron" unicode="&#x14d;" horiz-adv-x="1041" 
d="M451 1293q5 21 26 21h554q23 0 16 -19l-21 -78q-5 -21 -26 -21h-554q-21 0 -16 19zM413 -14q-167 0 -266.5 94t-99.5 253q0 145 81 276t216.5 210.5t285.5 79.5q167 0 266.5 -94.5t99.5 -254.5q0 -109 -48 -213t-127 -181t-187 -123.5t-221 -46.5zM429 106
q113 0 215.5 62t163 161.5t60.5 205.5q0 110 -68 177t-184 67q-114 0 -216.5 -62t-162.5 -161t-60 -205q0 -111 67.5 -178t184.5 -67z" />
    <glyph glyph-name="Ohungarumlaut" unicode="&#x150;" horiz-adv-x="1541" 
d="M837 1588q-8 0 -12.5 6t-0.5 13l132 318q5 17 23 17h95q19 0 12 -17l-149 -320q-9 -17 -22 -17h-78zM1178 1588q-7 0 -10.5 6t-1.5 13l132 318q5 17 25 17h93q21 0 14 -17l-151 -320q-9 -17 -22 -17h-79zM660 -12q-249 0 -395.5 145t-146.5 377q0 162 74.5 319.5
t196 274.5t285 189.5t333.5 72.5q249 0 395 -145t146 -378q0 -163 -74.5 -320t-195.5 -274t-284.5 -189t-333.5 -72zM682 127q139 0 272.5 59.5t231.5 155t158 223t60 256.5q0 181 -111.5 293.5t-308.5 112.5q-138 0 -271.5 -59.5t-231 -155t-157.5 -223t-60 -256.5
q0 -181 111 -293.5t307 -112.5z" />
    <glyph glyph-name="ohungarumlaut" unicode="&#x151;" horiz-adv-x="1041" 
d="M453 1093q-7 0 -10.5 6.5t-1.5 13.5l132 317q5 17 24 17h94q21 0 14 -17l-151 -319q-9 -18 -23 -18h-78zM797 1093q-7 0 -11.5 6.5t-2.5 13.5l132 317q9 17 24 17h95q20 0 13 -17l-151 -319q-9 -18 -23 -18h-76zM413 -14q-167 0 -266.5 94t-99.5 253q0 145 81 276
t216.5 210.5t285.5 79.5q167 0 266.5 -94.5t99.5 -254.5q0 -109 -48 -213t-127 -181t-187 -123.5t-221 -46.5zM429 106q113 0 215.5 62t163 161.5t60.5 205.5q0 110 -68 177t-184 67q-114 0 -216.5 -62t-162.5 -161t-60 -205q0 -111 67.5 -178t184.5 -67z" />
    <glyph glyph-name="OE" unicode="&#x152;" horiz-adv-x="2245" 
d="M2397 1354q10 0 14.5 -7t2.5 -16l-24 -88q-4 -19 -24 -19h-689l-127 -474h510q24 0 19 -23l-24 -88q-3 -18 -23 -18h-517l-132 -491h705q22 0 17 -24l-24 -89q-4 -17 -24 -17h-828q-24 0 -19 23l59 218q-125 -118 -283.5 -185.5t-325.5 -67.5q-249 0 -395.5 145
t-146.5 377q0 162 74.5 319.5t196 274.5t285 189.5t333.5 72.5q173 0 299.5 -73.5t189.5 -202.5l66 246q5 18 24 18h811zM682 127q155 0 301 72t249.5 192t145.5 262l10 36q16 69 16 132q0 181 -111.5 293.5t-308.5 112.5q-138 0 -271.5 -59.5t-231 -155t-157.5 -223
t-60 -256.5q0 -181 111 -293.5t307 -112.5z" />
    <glyph glyph-name="oe" unicode="&#x153;" horiz-adv-x="1780" 
d="M1409 897q183 0 269.5 -114.5t53.5 -287.5q-8 -104 -118 -104h-639q-1 -7 -1 -40q0 -109 62.5 -180.5t195.5 -71.5q165 0 306 121q24 10 33 -8l24 -45q13 -18 -5 -33q-166 -148 -380 -148q-131 0 -221 57.5t-126 159.5q-84 -100 -202.5 -158.5t-247.5 -58.5
q-167 0 -266.5 94t-99.5 253q0 145 81 276t216.5 210.5t285.5 79.5q128 0 218.5 -56.5t125.5 -158.5q80 98 193.5 155.5t241.5 57.5zM1395 781q-134 0 -242.5 -83.5t-154.5 -208.5h614q7 42 7.5 83t-14.5 79t-40 67t-69 46t-101 17zM429 106q113 0 215.5 62t163 161.5
t60.5 205.5q0 110 -68 177t-184 67q-114 0 -216.5 -62t-162.5 -161t-60 -205q0 -111 67.5 -178t184.5 -67z" />
    <glyph glyph-name="Racute" unicode="&#x154;" horiz-adv-x="1214" 
d="M805 1550l-38 59q-7 13 5 22l361 250q18 14 26 -1l51 -87q10 -17 -7 -26l-373 -224q-17 -10 -25 7zM1269 1005q0 -184 -120 -333.5t-307 -206.5l177 -441q7 -24 -18 -24h-104q-17 0 -24 16l-165 425q-16 -2 -47 -2h-390l-113 -422q-5 -17 -24 -17h-101q-22 0 -17 23
l350 1313q5 18 25 18h501q97 0 171 -27.5t118 -76t66 -110t22 -135.5zM686 569q87 0 169 34.5t142 90.5t96.5 132t36.5 156q0 109 -64.5 175.5t-194.5 66.5h-390l-176 -655h381z" />
    <glyph glyph-name="racute" unicode="&#x155;" horiz-adv-x="720" 
d="M887 1324q10 -17 -7 -26l-373 -224q-15 -9 -26 7l-37 59q-8 14 4 23l361 250q7 5 15.5 5t12.5 -7zM778 837q8 -7 10.5 -17t-4.5 -18l-64 -73q-3 -4 -6.5 -4.5t-5 0t-6.5 3.5t-6 4q-57 44 -134 44q-154 0 -269 -160l-161 -602q-5 -14 -19 -14h-103q-20 0 -15 19l227 852
q3 14 19 14h103q20 0 15 -19l-28 -104q132 135 282 135q99 0 165 -60z" />
    <glyph glyph-name="uni0156" unicode="&#x156;" horiz-adv-x="1214" 
d="M1269 1005q0 -184 -120 -333.5t-307 -206.5l177 -441q7 -24 -18 -24h-104q-17 0 -24 16l-165 425q-16 -2 -47 -2h-390l-113 -422q-5 -17 -24 -17h-101q-22 0 -17 23l350 1313q5 18 25 18h501q97 0 171 -27.5t118 -76t66 -110t22 -135.5zM686 569q87 0 169 34.5t142 90.5
t96.5 132t36.5 156q0 109 -64.5 175.5t-194.5 66.5h-390l-176 -655h381zM408 -168q37 0 61 -23t24 -64q0 -63 -55 -134t-120 -106q-6 -3 -10 -3t-6.5 2t-6.5 8l-9 16q-7 13 9 22q68 42 99 101q-5 -2 -17 -2q-29 0 -52 23.5t-23 56.5q0 43 31.5 73t74.5 30z" />
    <glyph glyph-name="uni0157" unicode="&#x157;" horiz-adv-x="720" 
d="M778 837q8 -7 10.5 -17t-4.5 -18l-64 -73q-3 -4 -6.5 -4.5t-5 0t-6.5 3.5t-6 4q-57 44 -134 44q-154 0 -269 -160l-161 -602q-5 -14 -19 -14h-103q-20 0 -15 19l227 852q3 14 19 14h103q20 0 15 -19l-28 -104q132 135 282 135q99 0 165 -60zM-24 -168q37 0 61 -23t24 -64
q0 -63 -55.5 -134t-120.5 -106q-6 -3 -9.5 -3t-6 2t-6.5 8l-9 16q-7 13 9 22q68 42 99 101q-5 -2 -18 -2q-29 0 -51.5 23.5t-22.5 56.5q0 43 31.5 73t74.5 30z" />
    <glyph glyph-name="Rcaron" unicode="&#x158;" horiz-adv-x="1214" 
d="M1293 1852q12 6 19.5 1t3.5 -17l-18 -69q-3 -13 -21 -21l-350 -205q-28 -17 -45 0l-242 208q-12 9 -8 25l17 64q8 26 33 14l248 -196zM892 1354q97 0 171 -27.5t118 -76t66 -110t22 -135.5q0 -184 -120 -333.5t-307 -206.5l177 -441q7 -24 -18 -24h-104q-17 0 -24 16
l-165 425q-16 -2 -47 -2h-390l-113 -422q-5 -17 -24 -17h-101q-22 0 -17 23l350 1313q5 18 25 18h501zM686 569q87 0 169 34.5t142 90.5t96.5 132t36.5 156q0 109 -64.5 175.5t-194.5 66.5h-390l-176 -655h381z" />
    <glyph glyph-name="rcaron" unicode="&#x159;" horiz-adv-x="720" 
d="M968 1383q12 6 19.5 1.5t5.5 -16.5l-18 -70q-3 -12 -20 -21l-353 -204q-26 -17 -43 0l-241 208q-14 11 -9 24l17 64q8 26 33 14l248 -196zM778 837q8 -7 10.5 -17t-4.5 -18l-64 -73q-3 -4 -6.5 -4.5t-5 0t-6.5 3.5t-6 4q-57 44 -134 44q-154 0 -269 -160l-161 -602
q-5 -14 -19 -14h-103q-20 0 -15 19l227 852q3 14 19 14h103q20 0 15 -19l-28 -104q132 135 282 135q99 0 165 -60z" />
    <glyph glyph-name="Sacute" unicode="&#x15a;" horiz-adv-x="1051" 
d="M1106 1741q7 2 9.5 9.5t-2.5 16.5l-51 85q-7 14 -28 3l-361 -251q-12 -5 -3 -21l36 -61q10 -13 26 -7zM23 236l69 63q13 13 35 -9q111 -165 310 -165q157 0 268 88t111 205q0 27 -8.5 51.5t-20 42t-35 36t-40 29.5t-49.5 26.5t-49 22t-53 20.5q-74 31 -126 61t-97.5 69.5
t-68.5 89.5t-23 111q0 107 67.5 197t181.5 141t248 51q66 0 125 -14t96.5 -32.5t70 -44t47 -41t25.5 -31.5q1 -1 3.5 -5t3 -5.5t2.5 -5t2.5 -5t1 -4.5t0.5 -4.5t-1 -4t-2.5 -4.5t-3.5 -4l-70 -61q-18 -13 -40 9q-104 122 -279 122q-141 0 -237 -73t-96 -179
q0 -43 17.5 -76.5t56 -61.5t80 -48t109.5 -47q44 -19 72.5 -33t68 -36.5t65 -46.5t50 -55.5t36.5 -71.5t12 -86q0 -117 -74 -216t-195.5 -155t-258.5 -56q-75 0 -141 18t-108 42t-77.5 56t-51 52.5t-26.5 39.5q-16 25 -3 38z" />
    <glyph glyph-name="sacute" unicode="&#x15b;" horiz-adv-x="782" 
d="M856 1298q17 9 7 26l-51 87q-4 7 -11.5 7t-14.5 -5l-361 -250q-13 -9 -5 -23l38 -59q8 -16 24 -7zM411 496q120 -32 187 -86.5t67 -147.5q0 -83 -53.5 -147t-139.5 -96.5t-189 -32.5q-178 0 -307 109q-14 11 -2 25l49 61q11 11 24 3q119 -85 248 -85q104 0 172 46.5
t68 111.5q0 55 -44.5 88.5t-126.5 57.5q-117 34 -176.5 87.5t-59.5 141.5q0 118 102 191.5t252 73.5q162 0 280 -97q13 -10 3 -22l-52 -65q-8 -11 -22 -3q-97 73 -219 73q-97 0 -158.5 -41.5t-61.5 -108.5q0 -53 42.5 -85t116.5 -52z" />
    <glyph glyph-name="Scedilla" unicode="&#x15e;" horiz-adv-x="1051" 
d="M1107 1203q1 -1 3.5 -5t3 -5.5t2.5 -5t2.5 -5t1 -4.5t0.5 -4.5t-1 -4t-2.5 -4.5t-3.5 -4l-70 -61q-18 -13 -40 9q-104 122 -279 122q-141 0 -237 -73t-96 -179q0 -43 17.5 -76.5t56 -61.5t80 -48t109.5 -47q44 -19 72.5 -33t68 -36.5t65 -46.5t50 -55.5t36.5 -71.5
t12 -86q0 -113 -70.5 -210.5t-186 -154.5t-248.5 -62l-89 -103q10 2 32 2q77 0 125 -48t48 -126q0 -110 -92.5 -194.5t-207.5 -84.5q-116 0 -165 88q-5 16 7 25l40 29q14 10 23 -3q37 -59 112 -59q80 0 140 57.5t60 129.5q0 47 -28.5 77.5t-84.5 30.5q-66 0 -139 -63
q-16 -12 -22 -1l-28 29q-6 8 3 17q0 1 1 2t1 2l172 196q-61 7 -115 27.5t-89 43.5t-64.5 51.5t-43 47t-23.5 35.5q-16 25 -3 38l69 63q13 13 35 -9q111 -165 310 -165q157 0 268 88t111 205q0 27 -8.5 51.5t-20 42t-35 36t-40 29.5t-49.5 26.5t-49 22t-53 20.5
q-74 31 -126 61t-97.5 69.5t-68.5 89.5t-23 111q0 107 67.5 197t181.5 141t248 51q66 0 125 -14t96.5 -32.5t70 -44t47 -41t25.5 -31.5z" />
    <glyph glyph-name="scedilla" unicode="&#x15f;" horiz-adv-x="782" 
d="M762 800q13 -10 3 -22l-52 -65q-8 -11 -22 -3q-97 73 -219 73q-97 0 -158.5 -41.5t-61.5 -108.5q0 -53 42.5 -85t116.5 -52q120 -32 187 -86.5t67 -147.5q0 -116 -97.5 -190.5t-242.5 -83.5l-89 -101q10 2 33 2q77 0 125.5 -48t48.5 -126q0 -110 -93.5 -194.5
t-208.5 -84.5q-59 0 -102 25t-62 63q-5 16 7 25l40 29q14 10 23 -3q37 -59 113 -59q79 0 139 57.5t60 129.5q0 47 -28.5 77.5t-85.5 30.5q-36 0 -67 -14t-72 -49q-15 -12 -23 -1l-27 29q-6 8 3 17q3 3 3 6l167 189q-141 14 -253 107q-14 11 -2 25l49 61q11 11 24 3
q119 -85 248 -85q104 0 172 46.5t68 111.5q0 55 -44.5 88.5t-126.5 57.5q-117 34 -176.5 87.5t-59.5 141.5q0 118 102 191.5t252 73.5q162 0 280 -97z" />
    <glyph glyph-name="Scaron" unicode="&#x160;" horiz-adv-x="1051" 
d="M828 1513l352 205q19 13 21 23l17 69q2 13 -5 17t-19 -1l-361 -196l-248 194q-11 7 -20 3t-13 -17l-17 -64q-5 -16 8 -23l241 -210q17 -15 44 0zM23 236l69 63q13 13 35 -9q111 -165 310 -165q157 0 268 88t111 205q0 27 -8.5 51.5t-20 42t-35 36t-40 29.5t-49.5 26.5
t-49 22t-53 20.5q-74 31 -126 61t-97.5 69.5t-68.5 89.5t-23 111q0 107 67.5 197t181.5 141t248 51q66 0 125 -14t96.5 -32.5t70 -44t47 -41t25.5 -31.5q1 -1 3.5 -5t3 -5.5t2.5 -5t2.5 -5t1 -4.5t0.5 -4.5t-1 -4t-2.5 -4.5t-3.5 -4l-70 -61q-18 -13 -40 9
q-104 122 -279 122q-141 0 -237 -73t-96 -179q0 -43 17.5 -76.5t56 -61.5t80 -48t109.5 -47q44 -19 72.5 -33t68 -36.5t65 -46.5t50 -55.5t36.5 -71.5t12 -86q0 -117 -74 -216t-195.5 -155t-258.5 -56q-75 0 -141 18t-108 42t-77.5 56t-51 52.5t-26.5 39.5q-16 25 -3 38z
" />
    <glyph glyph-name="scaron" unicode="&#x161;" horiz-adv-x="782" 
d="M580 1073l350 204q18 7 21 21l17 70q4 12 -3 16.5t-19 -1.5l-363 -196l-248 196q-25 12 -33 -14l-17 -64q-3 -15 8 -24l242 -208q17 -17 45 0zM411 496q120 -32 187 -86.5t67 -147.5q0 -83 -53.5 -147t-139.5 -96.5t-189 -32.5q-178 0 -307 109q-14 11 -2 25l49 61
q11 11 24 3q119 -85 248 -85q104 0 172 46.5t68 111.5q0 55 -44.5 88.5t-126.5 57.5q-117 34 -176.5 87.5t-59.5 141.5q0 118 102 191.5t252 73.5q162 0 280 -97q13 -10 3 -22l-52 -65q-8 -11 -22 -3q-97 73 -219 73q-97 0 -158.5 -41.5t-61.5 -108.5q0 -53 42.5 -85
t116.5 -52z" />
    <glyph glyph-name="uni0162" unicode="&#x162;" horiz-adv-x="1041" 
d="M1203 1354q22 0 17 -23l-24 -88q-3 -19 -23 -19h-373l-323 -1207q-3 -17 -22 -17h-7l-92 -108q10 2 31 2q77 0 125.5 -48.5t48.5 -124.5q0 -110 -93 -195t-208 -85q-60 0 -101.5 25t-63.5 64q-6 13 7 22l40 31q15 7 23 -3q36 -59 113 -59q80 0 139.5 57t59.5 129
q0 47 -28.5 77t-84.5 30q-36 0 -67.5 -13.5t-70.5 -46.5q-17 -13 -23 -4l-28 31q-7 7 4 18q0 1 1 1.5t1 1.5l171 198q-22 0 -17 23l323 1201h-366q-11 0 -16.5 7t-3.5 17l25 88q5 18 24 18h882z" />
    <glyph glyph-name="uni0163" unicode="&#x163;" horiz-adv-x="633" 
d="M649 885q21 0 16 -19l-25 -92q-5 -14 -19 -14h-184q-18 0 -43 5l-137 -503q-23 -73 -7 -113t83 -40q43 0 117 30q15 8 22 -9l24 -69q5 -16 -17 -28q-86 -42 -167 -47l-86 -99q10 2 33 2q77 0 125 -48t48 -126q0 -110 -93.5 -194.5t-208.5 -84.5q-59 0 -101.5 25t-61.5 63
q-5 16 7 25l40 29q13 9 22 -3q37 -59 113 -59q79 0 139.5 57.5t60.5 129.5q0 47 -29 77.5t-86 30.5q-36 0 -67 -14t-72 -49q-14 -11 -22 -1l-28 29q-5 8 4 17q3 3 3 6l172 194q-80 21 -107.5 90.5t1.5 175.5l135 501h-107q-20 0 -16 18l11 41q4 14 15 18q95 34 144.5 89
t119.5 209q6 12 21 12h36q21 0 16 -19l-66 -243h222z" />
    <glyph glyph-name="Tcaron" unicode="&#x164;" horiz-adv-x="1041" 
d="M1205 1852q12 6 19 1t3 -17l-17 -69q-3 -13 -21 -21l-351 -205q-28 -17 -45 0l-241 208q-12 10 -9 25l18 64q8 26 33 14l248 -196zM1203 1354q22 0 17 -23l-24 -88q-3 -19 -23 -19h-373l-323 -1207q-3 -17 -22 -17h-103q-22 0 -17 23l323 1201h-366q-11 0 -16.5 7
t-3.5 17l25 88q5 18 24 18h882z" />
    <glyph glyph-name="tcaron" unicode="&#x165;" horiz-adv-x="713" 
d="M635 1043q-10 -3 -13 -1t-9 10l-9 15q-10 15 9 21q71 47 99 101q-2 0 -7.5 -1t-10.5 -1q-29 0 -51.5 24t-22.5 58q0 42 31.5 72t73.5 30q37 0 61.5 -23t24.5 -64q0 -63 -55 -133.5t-121 -107.5zM292 -14q-118 0 -163 73t-11 200l135 501h-107q-20 0 -16 18l11 41
q4 14 15 18q95 34 144.5 89t119.5 209q6 12 21 12h36q21 0 16 -19l-66 -243h222q21 0 16 -19l-25 -92q-5 -14 -19 -14h-184q-18 0 -43 5l-137 -503q-23 -73 -7 -113t83 -40q43 0 117 30q15 8 22 -9l24 -69q5 -16 -17 -28q-98 -47 -187 -47z" />
    <glyph glyph-name="Tbar" unicode="&#x166;" horiz-adv-x="1041" 
d="M1203 1354q22 0 17 -23l-24 -88q-3 -19 -23 -19h-373l-90 -339h368q11 0 16 -6t1 -16l-24 -89q-3 -19 -23 -19h-373l-198 -738q-3 -17 -22 -17h-103q-22 0 -17 23l196 732h-364q-11 0 -16 7t-3 17l24 89q7 17 24 17h370l92 339h-366q-11 0 -16.5 7t-3.5 17l25 88
q5 18 24 18h882z" />
    <glyph glyph-name="tbar" unicode="&#x167;" horiz-adv-x="633" 
d="M649 885q21 0 16 -19l-25 -92q-5 -14 -19 -14h-184q-18 0 -43 5l-47 -173h226q19 0 14 -16l-11 -43q-5 -16 -24 -16h-226l-69 -255q-23 -73 -7 -113t83 -40q43 0 117 30q15 8 22 -9l24 -69q5 -16 -17 -28q-98 -47 -187 -47q-118 0 -163 73t-11 200l69 258h-105
q-17 0 -14 16l10 43q5 16 24 16h106l45 168h-107q-20 0 -16 18l11 41q4 14 15 18q95 34 144.5 89t119.5 209q6 12 21 12h36q21 0 16 -19l-66 -243h222z" />
    <glyph glyph-name="Utilde" unicode="&#x168;" horiz-adv-x="1306" 
d="M1168 1581q-42 0 -77 14t-60.5 33.5t-50.5 39t-58.5 33.5t-72.5 14q-24 0 -44.5 -5.5t-38 -17t-27.5 -20t-25 -23.5l-18 -18q-12 -11 -23 0l-43 47q-8 12 2 25q1 1 9 11.5t14 17.5t18 19.5t23 21t28 19t34 17t39 11t45 4.5q44 0 81 -13.5t63 -33t51 -39t56.5 -33
t67.5 -13.5q20 0 39 4.5t32 10.5t27.5 17t21 17.5t18.5 19t15 15.5q13 13 22 0l44 -49q9 -9 -2 -24q-43 -58 -85 -85q-57 -37 -125 -37zM1409 1354q24 0 19 -23l-223 -829q-28 -104 -85.5 -195.5t-139.5 -163.5t-195 -113.5t-242 -41.5q-89 0 -161 20t-121.5 56t-83 85.5
t-47 108t-11.5 123.5t20 134l219 821q5 18 24 18h100q11 0 16.5 -6.5t3.5 -16.5l-214 -791q-27 -112 -18.5 -191t52.5 -129t104 -72.5t135 -22.5q80 0 157 25.5t147 76t125.5 134.5t85.5 193l208 782q5 18 25 18h100z" />
    <glyph glyph-name="utilde" unicode="&#x169;" 
d="M1054 1258q9 -9 -2 -24q-44 -59 -88 -86q-57 -35 -122 -35q-50 0 -93.5 21t-70 45.5t-68 45.5t-88.5 21q-24 0 -44.5 -5.5t-37.5 -17t-27 -19.5t-25 -23l-18 -18q-12 -11 -23 0l-43 47q-8 12 1 24q1 1 9 11.5t14 17.5t18 19.5t23 21t28 19t34 17t39 11t45 4.5
q44 0 81 -13.5t63.5 -32.5t51.5 -38.5t56.5 -33t67.5 -13.5q20 0 39 4.5t31.5 10t27.5 17t21.5 17t19 19t14.5 15.5q13 13 22 0zM1003 885q8 0 13 -5t3 -14l-228 -852q-5 -14 -19 -14h-104q-8 0 -12.5 5t-2.5 14l33 125q-170 -156 -358 -156q-144 0 -220.5 87.5t-36.5 238.5
l104 389q11 43 19.5 95.5t10.5 60.5q2 26 38 26h68q23 0 33 -16.5t3 -38.5l-132 -495q-27 -102 20 -163t156 -61q96 0 180.5 47t150.5 120l158 593q5 14 19 14h104z" />
    <glyph glyph-name="Umacron" unicode="&#x16a;" horiz-adv-x="1308" 
d="M717 1788q4 20 26 20h553q23 0 16 -19l-21 -78q-5 -21 -26 -21h-553q-21 0 -16 20zM1409 1354q24 0 19 -23l-223 -829q-28 -104 -85.5 -195.5t-139.5 -163.5t-195 -113.5t-242 -41.5q-89 0 -161 20t-121.5 56t-83 85.5t-47 108t-11.5 123.5t20 134l219 821q5 18 24 18
h100q11 0 16.5 -6.5t3.5 -16.5l-214 -791q-27 -112 -18.5 -191t52.5 -129t104 -72.5t135 -22.5q80 0 157 25.5t147 76t125.5 134.5t85.5 193l208 782q5 18 25 18h100z" />
    <glyph glyph-name="umacron" unicode="&#x16b;" 
d="M385 1222q-20 0 -15 19l21 78q5 21 26 21h553q23 0 16 -19l-21 -78q-4 -21 -26 -21h-554zM1003 885q8 0 13 -5t3 -14l-228 -852q-5 -14 -19 -14h-104q-8 0 -12.5 5t-2.5 14l33 125q-170 -156 -358 -156q-144 0 -220.5 87.5t-36.5 238.5l104 389q11 43 19.5 95.5
t10.5 60.5q2 26 38 26h68q23 0 33 -16.5t3 -38.5l-132 -495q-27 -102 20 -163t156 -61q96 0 180.5 47t150.5 120l158 593q5 14 19 14h104z" />
    <glyph glyph-name="Ubreve" unicode="&#x16c;" horiz-adv-x="1306" 
d="M951 1505q-139 0 -212 82.5t-40 207.5q8 27 25 27h60q16 0 13 -24q-22 -92 28.5 -144t137.5 -52t164 51.5t107 144.5q10 24 26 24h64q19 0 11 -27q-42 -132 -145.5 -211t-238.5 -79zM1409 1354q24 0 19 -23l-223 -829q-28 -104 -85.5 -195.5t-139.5 -163.5t-195 -113.5
t-242 -41.5q-89 0 -161 20t-121.5 56t-83 85.5t-47 108t-11.5 123.5t20 134l219 821q5 18 24 18h100q11 0 16.5 -6.5t3.5 -16.5l-214 -791q-27 -112 -18.5 -191t52.5 -129t104 -72.5t135 -22.5q80 0 157 25.5t147 76t125.5 134.5t85.5 193l208 782q5 18 25 18h100z" />
    <glyph glyph-name="ubreve" unicode="&#x16d;" 
d="M625 1036q-139 0 -212 82.5t-40 207.5q8 28 24 28h61q15 0 12 -25q-22 -92 29 -144t138 -52t164 51.5t107 144.5q11 25 26 25h64q18 0 10 -28q-42 -132 -145 -211t-238 -79zM1003 885q8 0 13 -5t3 -14l-228 -852q-5 -14 -19 -14h-104q-8 0 -12.5 5t-2.5 14l33 125
q-170 -156 -358 -156q-144 0 -220.5 87.5t-36.5 238.5l104 389q11 43 19.5 95.5t10.5 60.5q2 26 38 26h68q23 0 33 -16.5t3 -38.5l-132 -495q-27 -102 20 -163t156 -61q96 0 180.5 47t150.5 120l158 593q5 14 19 14h104z" />
    <glyph glyph-name="Uring" unicode="&#x16e;" horiz-adv-x="1308" 
d="M934 1475q-66 0 -106 40t-40 103q0 90 74.5 160t168.5 70q64 0 103 -39t39 -101q0 -93 -73.5 -163t-165.5 -70zM953 1550q57 0 102 43.5t45 98.5q0 37 -24.5 60.5t-63.5 23.5q-55 0 -101.5 -43t-46.5 -100q0 -37 25 -60t64 -23zM1409 1354q24 0 19 -23l-223 -829
q-28 -104 -85.5 -195.5t-139.5 -163.5t-195 -113.5t-242 -41.5q-89 0 -161 20t-121.5 56t-83 85.5t-47 108t-11.5 123.5t20 134l219 821q5 18 24 18h100q11 0 16.5 -6.5t3.5 -16.5l-214 -791q-27 -112 -18.5 -191t52.5 -129t104 -72.5t135 -22.5q80 0 157 25.5t147 76
t125.5 134.5t85.5 193l208 782q5 18 25 18h100z" />
    <glyph glyph-name="uring" unicode="&#x16f;" 
d="M607 1007q-66 0 -105.5 39.5t-39.5 102.5q0 90 74.5 160.5t168.5 70.5q63 0 102.5 -39t39.5 -102q0 -92 -74 -162t-166 -70zM686 1307q-55 0 -101.5 -42.5t-46.5 -99.5q0 -37 25 -60.5t64 -23.5q57 0 102 44t45 99q0 37 -24.5 60t-63.5 23zM1003 885q8 0 13 -5t3 -14
l-228 -852q-5 -14 -19 -14h-104q-8 0 -12.5 5t-2.5 14l33 125q-170 -156 -358 -156q-144 0 -220.5 87.5t-36.5 238.5l104 389q11 43 19.5 95.5t10.5 60.5q2 26 38 26h68q23 0 33 -16.5t3 -38.5l-132 -495q-27 -102 20 -163t156 -61q96 0 180.5 47t150.5 120l158 593
q5 14 19 14h104z" />
    <glyph glyph-name="Uhungarumlaut" unicode="&#x170;" horiz-adv-x="1308" 
d="M719 1588q-7 0 -11 6t-2 13l132 318q5 17 25 17h93q21 0 14 -17l-151 -320q-9 -17 -22 -17h-78zM1062 1588q-8 0 -12 6t-2 13l132 318q8 17 25 17h95q19 0 12 -17l-151 -320q-9 -17 -22 -17h-77zM1409 1354q24 0 19 -23l-223 -829q-28 -104 -85.5 -195.5t-139.5 -163.5
t-195 -113.5t-242 -41.5q-89 0 -161 20t-121.5 56t-83 85.5t-47 108t-11.5 123.5t20 134l219 821q5 18 24 18h100q11 0 16.5 -6.5t3.5 -16.5l-214 -791q-27 -112 -18.5 -191t52.5 -129t104 -72.5t135 -22.5q80 0 157 25.5t147 76t125.5 134.5t85.5 193l208 782q5 18 25 18
h100z" />
    <glyph glyph-name="uhungarumlaut" unicode="&#x171;" 
d="M392 1119q-7 0 -10.5 6.5t-1.5 13.5l132 317q5 18 24 18h94q22 0 14 -18l-151 -319q-9 -18 -23 -18h-78zM736 1119q-8 0 -12 6.5t-2 13.5l132 317q9 18 24 18h96q8 0 12 -4.5t0 -13.5l-151 -319q-9 -18 -23 -18h-76zM1003 885q8 0 13 -5t3 -14l-228 -852q-5 -14 -19 -14
h-104q-8 0 -12.5 5t-2.5 14l33 125q-170 -156 -358 -156q-144 0 -220.5 87.5t-36.5 238.5l104 389q11 43 19.5 95.5t10.5 60.5q2 26 38 26h68q23 0 33 -16.5t3 -38.5l-132 -495q-27 -102 20 -163t156 -61q96 0 180.5 47t150.5 120l158 593q5 14 19 14h104z" />
    <glyph glyph-name="Uogonek" unicode="&#x172;" horiz-adv-x="1308" 
d="M1409 1354q24 0 19 -23l-223 -829q-28 -104 -85 -195.5t-139.5 -163.5t-195 -113.5t-240.5 -41.5q-92 -12 -170 -46.5t-126.5 -89.5t-48.5 -119q0 -89 104 -89q60 0 144 42q9 4 15 0.5t4 -12.5l-14 -56q-3 -11 -23 -24q-94 -52 -178 -52q-77 0 -122 37.5t-45 104.5
q0 102 97.5 188t234.5 128q-77 15 -135.5 50.5t-94 85t-53.5 110.5t-16 129t21 140l219 821q5 18 24 18h100q11 0 16.5 -6.5t3.5 -16.5l-214 -791q-27 -112 -18.5 -191t52.5 -129t104 -72.5t135 -22.5q80 0 157 25.5t147 76t125.5 134.5t85.5 193l208 782q5 18 25 18h100z
" />
    <glyph glyph-name="uogonek" unicode="&#x173;" 
d="M1003 885q8 0 13 -5t3 -14l-228 -852q-5 -14 -19 -14h-45q-142 -18 -242.5 -88.5t-100.5 -166.5q0 -89 104 -89q57 0 144 42q9 4 15 0.5t4 -12.5l-14 -56q-3 -11 -24 -24q-93 -52 -177 -52q-77 0 -122 37.5t-45 104.5q0 112 115.5 204t269.5 126l32 118
q-170 -156 -358 -156q-144 0 -220.5 87.5t-36.5 238.5l104 389q11 43 19.5 95.5t10.5 60.5q2 26 38 26h68q23 0 33 -16.5t3 -38.5l-132 -495q-27 -102 20 -163t156 -61q96 0 180.5 47t150.5 120l158 593q5 14 19 14h104z" />
    <glyph glyph-name="Wcircumflex" unicode="&#x174;" horiz-adv-x="2039" 
d="M1395 1848l-350 -204q-19 -11 -21 -23l-17 -69q-4 -12 3 -17t19 1l363 196l248 -194q11 -7 20 -3t13 17l17 64q3 16 -8 22l-241 210q-17 15 -46 0zM371 0q-20 0 -20 21l-70 1312q-3 21 21 21h104q21 0 21 -21l49 -1109l704 1116q7 14 25 14h105q23 0 23 -21l104 -1109
l647 1116q8 14 25 14h113q12 0 15.5 -8t-2.5 -18l-770 -1314q-8 -14 -24 -14h-87q-23 0 -23 21l-113 1147l-736 -1154q-7 -14 -24 -14h-87z" />
    <glyph glyph-name="wcircumflex" unicode="&#x175;" horiz-adv-x="1348" 
d="M925 1380l-352 -205q-18 -12 -21 -23l-16 -69q-4 -12 3.5 -17t19.5 1l363 197l248 -195q10 -7 19.5 -3t11.5 17l17 64q5 15 -7 23l-241 210q-19 14 -45 0zM210 0q-17 0 -17 17l-39 851q0 17 18 17h94q17 0 17 -17l21 -696h3l410 701q7 12 21 12h99q14 0 17 -17l24 -696h5
l405 701q4 12 21 12h99q10 0 13.5 -6t-1.5 -15l-504 -852q-4 -12 -20 -12h-103q-17 0 -17 17l-28 696l-415 -703q-4 -10 -21 -10h-102z" />
    <glyph glyph-name="Ycircumflex" unicode="&#x176;" horiz-adv-x="1249" 
d="M633 1536q-12 -5 -19 -1t-5 17l18 69q2 10 20 23l353 204q26 15 43 0l241 -210q14 -8 9 -22l-17 -64q-4 -13 -13 -17t-20 3l-249 194zM1430 1354q14 0 17.5 -8t-5.5 -18l-723 -792l-138 -519q-5 -17 -24 -17h-101q-22 0 -17 23l137 515l-293 791q-4 11 1 18t15 7h109
q18 0 22 -18l250 -663l610 670q11 11 26 11h114z" />
    <glyph glyph-name="ycircumflex" unicode="&#x177;" horiz-adv-x="949" 
d="M727 1380l-352 -205q-19 -13 -21 -23l-17 -69q-2 -13 5 -17t19 1l361 197l248 -195q11 -7 20 -3t13 17l18 64q5 15 -9 23l-241 210q-17 15 -44 0zM78 -347q-10 0 -13 6.5t3 14.5l225 335l-137 859q-3 17 16 17h97q16 0 19 -17l109 -700h6l479 705q7 12 21 12h105
q10 0 14 -6.5t-1 -14.5l-821 -1199q-7 -12 -23 -12h-99z" />
    <glyph glyph-name="Ydieresis" unicode="&#x178;" horiz-adv-x="1249" 
d="M772 1689q-31 0 -52.5 22t-21.5 52t21.5 51.5t52.5 21.5t52 -21.5t21 -51.5t-21 -52t-52 -22zM1191 1689q-30 0 -51.5 22t-21.5 52q0 31 21.5 52t51.5 21q31 0 52.5 -21.5t21.5 -51.5t-21.5 -52t-52.5 -22zM1430 1354q14 0 17.5 -8t-5.5 -18l-723 -792l-138 -519
q-5 -17 -24 -17h-101q-22 0 -17 23l137 515l-293 791q-4 11 1 18t15 7h109q18 0 22 -18l250 -663l610 670q11 11 26 11h114z" />
    <glyph glyph-name="Zacute" unicode="&#x179;" horiz-adv-x="1062" 
d="M1130 1767q17 9 7 26l-51 87q-8 15 -26 1l-361 -250q-12 -9 -5 -22l38 -59q8 -17 25 -7zM-43 0q-10 0 -15.5 7t-3.5 16l3 19q3 10 12 22l1068 1160h-719q-22 0 -17 24l24 88q3 18 22 18h900q10 0 15.5 -7t3.5 -16l-4 -19q-2 -4 -14 -22l-1067 -1160h720q23 0 18 -24
l-23 -89q-4 -17 -24 -17h-899z" />
    <glyph glyph-name="zacute" unicode="&#x17a;" horiz-adv-x="801" 
d="M870 1298q16 9 6 26l-50 87q-4 7 -12.5 7t-15.5 -5l-361 -250q-11 -8 -3 -23l36 -59q11 -16 26 -7zM191 760q-8 0 -13 5t-3 14l25 92q5 14 19 14h621q19 0 16 -19l-6 -24l-680 -717h451q21 0 16 -19l-24 -92q-3 -14 -19 -14h-632q-21 0 -16 19l5 24l682 717h-442z" />
    <glyph glyph-name="Zdotaccent" unicode="&#x17b;" horiz-adv-x="1062" 
d="M889 1677q-32 0 -56 23.5t-24 55.5t24 56t56 24q33 0 56 -23.5t23 -56.5t-23 -56t-56 -23zM-43 0q-10 0 -15.5 7t-3.5 16l3 19q3 10 12 22l1068 1160h-719q-22 0 -17 24l24 88q3 18 22 18h900q10 0 15.5 -7t3.5 -16l-4 -19q-2 -4 -14 -22l-1067 -1160h720q23 0 18 -24
l-23 -89q-4 -17 -24 -17h-899z" />
    <glyph glyph-name="zdotaccent" unicode="&#x17c;" horiz-adv-x="801" 
d="M628 1208q-33 0 -56.5 23.5t-23.5 56.5t23.5 56.5t56.5 23.5q32 0 55 -24t23 -56t-23 -56t-55 -24zM191 760q-8 0 -13 5t-3 14l25 92q5 14 19 14h621q19 0 16 -19l-6 -24l-680 -717h451q21 0 16 -19l-24 -92q-3 -14 -19 -14h-632q-21 0 -16 19l5 24l682 717h-442z" />
    <glyph glyph-name="Zcaron" unicode="&#x17d;" horiz-adv-x="1062" 
d="M854 1541l351 205q17 7 20 21l18 69q4 12 -3.5 17t-19.5 -1l-363 -196l-248 196q-25 12 -33 -14l-17 -64q-3 -15 9 -25l241 -208q17 -17 45 0zM-43 0q-10 0 -15.5 7t-3.5 16l3 19q3 10 12 22l1068 1160h-719q-22 0 -17 24l24 88q3 18 22 18h900q10 0 15.5 -7t3.5 -16
l-4 -19q-2 -4 -14 -22l-1067 -1160h720q23 0 18 -24l-23 -89q-4 -17 -24 -17h-899z" />
    <glyph glyph-name="zcaron" unicode="&#x17e;" horiz-adv-x="801" 
d="M592 1073l352 204q18 9 21 21l17 70q2 12 -5 16.5t-19 -1.5l-361 -196l-248 196q-25 12 -33 -14l-17 -64q-5 -14 8 -24l241 -208q17 -17 44 0zM191 760q-8 0 -13 5t-3 14l25 92q5 14 19 14h621q19 0 16 -19l-6 -24l-680 -717h451q21 0 16 -19l-24 -92q-3 -14 -19 -14
h-632q-21 0 -16 19l5 24l682 717h-442z" />
    <glyph glyph-name="florin" unicode="&#x192;" horiz-adv-x="697" 
d="M958 1323q23 -23 9 -40l-49 -54q-12 -15 -29 -2q-57 45 -127 45q-36 0 -71 -10t-72.5 -33.5t-68.5 -70t-48 -110.5l-44 -163h243q21 0 16 -19l-24 -92q-5 -14 -20 -14h-250l-210 -786q-42 -155 -143.5 -238t-237.5 -83q-126 0 -207 75q-23 23 -9 39l49 54q14 14 31 2
q54 -45 125 -45q36 0 71.5 10t73 33.5t69 70t48.5 110.5l203 758h-116q-21 0 -16 19l25 92q3 14 19 14h123l50 191q41 154 143 237.5t238 83.5q128 0 206 -74z" />
    <glyph glyph-name="uni01CD" unicode="&#x1cd;" horiz-adv-x="1391" 
d="M1385 1887q12 5 19 1t5 -17l-17 -69q-3 -12 -21 -21l-352 -205q-27 -17 -44 0l-241 208q-14 10 -9 24l18 65q8 26 33 14l248 -197zM991 1335l246 -1311q3 -24 -15 -24h-101q-18 0 -21 24l-40 210h-814l-154 -215q-14 -19 -28 -19h-121q-11 0 -14.5 8t3.5 18l951 1312
q11 16 26 16h59q17 0 23 -19zM331 351h709l-148 779z" />
    <glyph glyph-name="uni01CE" unicode="&#x1ce;" horiz-adv-x="947" 
d="M1085 1383q12 6 19 1.5t3 -16.5l-17 -70q-3 -14 -21 -21l-350 -204q-29 -17 -46 0l-241 208q-12 10 -9 24l18 64q8 26 33 14l248 -196zM1059 885q8 0 12.5 -5t2.5 -14l-227 -852q-5 -14 -19 -14h-104q-8 0 -13 5t-3 14l42 158q-75 -89 -173.5 -140t-208.5 -51
q-149 0 -237 90t-88 243q0 108 44.5 213.5t117.5 185.5t174 129.5t208 49.5q116 0 193.5 -55.5t104.5 -155.5l50 185q5 14 20 14h104zM413 106q134 0 245.5 90.5t155.5 220.5l14 50q7 34 7 71q0 110 -65.5 175t-174.5 65q-110 0 -208 -64t-155 -164.5t-57 -205.5
q0 -109 63 -173.5t175 -64.5z" />
    <glyph glyph-name="uni01CF" unicode="&#x1cf;" horiz-adv-x="399" 
d="M403 1566l352 204q19 13 21 23l17 69q2 13 -5 17t-19 -1l-361 -196l-248 194q-11 7 -20 3t-13 -17l-18 -64q-5 -14 9 -22l241 -210q17 -15 44 0zM33 0q-22 0 -17 23l350 1313q5 18 25 18h100q24 0 19 -23l-352 -1314q-5 -17 -24 -17h-101z" />
    <glyph glyph-name="uni01D0" unicode="&#x1d0;" horiz-adv-x="359" 
d="M371 1073l351 204q18 7 21 21l17 70q4 12 -3 16.5t-19 -1.5l-363 -196l-248 196q-25 12 -33 -14l-18 -64q-3 -14 9 -24l241 -208q17 -17 45 0zM12 0q-8 0 -12.5 5t-2.5 14l227 852q5 14 19 14h104q8 0 13 -5t3 -14l-228 -852q-5 -14 -19 -14h-104z" />
    <glyph glyph-name="uni01D1" unicode="&#x1d1;" horiz-adv-x="1537" 
d="M1014 1541l352 205q17 8 21 21l15 69q4 12 -3 17t-19 -1l-363 -196l-248 196q-10 5 -19.5 1.5t-11.5 -15.5l-18 -64q-4 -14 7 -25l241 -208q19 -16 46 0zM660 -12q-249 0 -395.5 145t-146.5 377q0 162 74.5 319.5t196 274.5t285 189.5t333.5 72.5q249 0 395 -145
t146 -378q0 -163 -74.5 -320t-195.5 -274t-284.5 -189t-333.5 -72zM682 127q139 0 272.5 59.5t231.5 155t158 223t60 256.5q0 181 -111.5 293.5t-308.5 112.5q-138 0 -271.5 -59.5t-231 -155t-157.5 -223t-60 -256.5q0 -181 111 -293.5t307 -112.5z" />
    <glyph glyph-name="uni01D2" unicode="&#x1d2;" horiz-adv-x="1041" 
d="M706 1047l351 204q18 7 21 21l17 70q4 12 -3 16.5t-19 -1.5l-363 -196l-248 196q-25 12 -33 -14l-18 -64q-3 -14 9 -24l241 -208q17 -17 45 0zM413 -14q-167 0 -266.5 94t-99.5 253q0 145 81 276t216.5 210.5t285.5 79.5q167 0 266.5 -94.5t99.5 -254.5q0 -109 -48 -213
t-127 -181t-187 -123.5t-221 -46.5zM429 106q113 0 215.5 62t163 161.5t60.5 205.5q0 110 -68 177t-184 67q-114 0 -216.5 -62t-162.5 -161t-60 -205q0 -111 67.5 -178t184.5 -67z" />
    <glyph glyph-name="uni01D3" unicode="&#x1d3;" horiz-adv-x="1306" 
d="M972 1541l351 205q17 7 20 21l18 69q4 12 -3.5 17t-19.5 -1l-363 -196l-248 196q-25 12 -33 -14l-17 -64q-3 -15 9 -25l241 -208q17 -17 45 0zM1409 1354q24 0 19 -23l-223 -829q-28 -104 -85.5 -195.5t-139.5 -163.5t-195 -113.5t-242 -41.5q-89 0 -161 20t-121.5 56
t-83 85.5t-47 108t-11.5 123.5t20 134l219 821q5 18 24 18h100q11 0 16.5 -6.5t3.5 -16.5l-214 -791q-27 -112 -18.5 -191t52.5 -129t104 -72.5t135 -22.5q80 0 157 25.5t147 76t125.5 134.5t85.5 193l208 782q5 18 25 18h100z" />
    <glyph glyph-name="uni01D4" unicode="&#x1d4;" 
d="M1012 1383q12 6 19 1.5t3 -16.5l-17 -70q-3 -14 -21 -21l-350 -204q-28 -17 -45 0l-242 208q-11 9 -8 24l17 64q8 26 33 14l248 -196zM1003 885q8 0 13 -5t3 -14l-228 -852q-5 -14 -19 -14h-104q-8 0 -12.5 5t-2.5 14l33 125q-170 -156 -358 -156q-144 0 -220.5 87.5
t-36.5 238.5l104 389q11 43 19.5 95.5t10.5 60.5q2 26 38 26h68q23 0 33 -16.5t3 -38.5l-132 -495q-27 -102 20 -163t156 -61q96 0 180.5 47t150.5 120l158 593q5 14 19 14h104z" />
    <glyph glyph-name="Gcaron" unicode="&#x1e6;" horiz-adv-x="1419" 
d="M774 1725q-14 11 -9 24l18 65q8 26 33 14l248 -197l361 197q12 5 19 1t5 -17l-17 -69q-3 -12 -21 -21l-352 -205q-27 -17 -44 0zM1461 1158q19 -26 4 -37l-83 -52q-16 -14 -35 9q-126 149 -340 149q-139 0 -275.5 -58.5t-239 -153t-165.5 -222t-63 -258.5q0 -85 27 -158
t79.5 -129t137 -88.5t191.5 -32.5q134 0 249.5 47t200.5 112l76 285h-364q-23 0 -18 23l23 85q4 17 24 17h472q10 0 16 -7t4 -16l-127 -465q-263 -220 -580 -220q-253 0 -404 144t-151 380q0 163 75 320t197.5 274t288 188.5t336.5 71.5q148 0 264.5 -55.5t179.5 -152.5z
" />
    <glyph glyph-name="gcaron" unicode="&#x1e7;" horiz-adv-x="1008" 
d="M1073 1378q12 6 19 1t3 -17l-17 -69q-2 -12 -21 -23l-351 -204q-28 -15 -45 0l-241 210q-12 7 -9 22l18 64q4 13 13 17t20 -3l248 -194zM1059 885q20 0 15 -19l-225 -840q-30 -109 -85 -191t-125.5 -128.5t-147.5 -69t-160 -22.5q-95 0 -182.5 25t-141.5 72q-13 10 -4 22
l47 65q8 11 23 3q44 -35 116.5 -52t140.5 -17q137 0 241 78.5t148 237.5l34 132q-76 -91 -175 -143t-210 -52q-149 0 -237 90t-88 243q0 108 44.5 213.5t117.5 185.5t174 129.5t208 49.5q116 0 194.5 -57t105.5 -158l50 189q3 14 19 14h103zM415 106q110 0 207.5 63.5
t154 163t56.5 203.5q0 111 -65 176.5t-174 65.5q-110 0 -208 -64t-154.5 -164t-56.5 -205q0 -109 64 -174t176 -65z" />
    <glyph glyph-name="uni0218" unicode="&#x218;" horiz-adv-x="1048" 
d="M23 236l69 63q13 13 35 -9q111 -165 310 -165q157 0 268 88t111 205q0 27 -8.5 51.5t-20 42t-35 36t-40 29.5t-49.5 26.5t-49 22t-53 20.5q-74 31 -126 61t-97.5 69.5t-68.5 89.5t-23 111q0 107 67.5 197t181.5 141t248 51q66 0 125 -14t96.5 -32.5t70 -44t47 -41
t25.5 -31.5q1 -1 3.5 -5t3 -5.5t2.5 -5t2.5 -5t1 -4.5t0.5 -4.5t-1 -4t-2.5 -4.5t-3.5 -4l-70 -61q-18 -13 -40 9q-104 122 -279 122q-141 0 -237 -73t-96 -179q0 -43 17.5 -76.5t56 -61.5t80 -48t109.5 -47q44 -19 72.5 -33t68 -36.5t65 -46.5t50 -55.5t36.5 -71.5t12 -86
q0 -117 -74 -216t-195.5 -155t-258.5 -56q-75 0 -141 18t-108 42t-77.5 56t-51 52.5t-26.5 39.5q-16 25 -3 38zM231 -495q-14 -8 -21 7l-10 16q-5 13 8 22q68 42 99 101q-5 -2 -17 -2q-29 0 -52 23.5t-23 56.5q0 43 31.5 73t74.5 30q37 0 61 -23t24 -64q0 -63 -55 -134
t-120 -106z" />
    <glyph glyph-name="uni0219" unicode="&#x219;" horiz-adv-x="782" 
d="M411 496q120 -32 187 -86.5t67 -147.5q0 -83 -53.5 -147t-139.5 -96.5t-189 -32.5q-178 0 -307 109q-14 11 -2 25l49 61q11 11 24 3q119 -85 248 -85q104 0 172 46.5t68 111.5q0 55 -44.5 88.5t-126.5 57.5q-117 34 -176.5 87.5t-59.5 141.5q0 118 102 191.5t252 73.5
q162 0 280 -97q13 -10 3 -22l-52 -65q-8 -11 -22 -3q-97 73 -219 73q-97 0 -158.5 -41.5t-61.5 -108.5q0 -53 42.5 -85t116.5 -52zM104 -495q-6 -3 -9.5 -3t-6 2t-6.5 8l-9 16q-7 13 9 22q68 42 99 101q-5 -2 -18 -2q-29 0 -51.5 23.5t-22.5 56.5q0 44 31 73.5t74 29.5
q37 0 61 -23t24 -64q0 -63 -55 -134t-120 -106z" />
    <glyph glyph-name="uni021A" unicode="&#x21a;" horiz-adv-x="1039" 
d="M1203 1354q22 0 17 -23l-24 -88q-3 -19 -23 -19h-373l-323 -1207q-3 -17 -22 -17h-103q-22 0 -17 23l323 1201h-366q-11 0 -16.5 7t-3.5 17l25 88q5 18 24 18h882zM312 -163q37 0 61 -23t24 -64q0 -63 -55 -133.5t-120 -107.5q-14 -6 -21 9l-10 15q-7 14 9 21
q71 47 99 101q-2 0 -7 -1t-11 -1q-29 0 -51.5 23.5t-22.5 57.5q0 42 31.5 72.5t73.5 30.5z" />
    <glyph glyph-name="uni021B" unicode="&#x21b;" horiz-adv-x="633" 
d="M292 -14q-118 0 -163 73t-11 200l135 501h-107q-20 0 -16 18l11 41q4 14 15 18q95 34 144.5 89t119.5 209q6 12 21 12h36q21 0 16 -19l-66 -243h222q21 0 16 -19l-25 -92q-5 -14 -19 -14h-184q-18 0 -43 5l-137 -503q-23 -73 -7 -113t83 -40q43 0 117 30q15 8 22 -9
l24 -69q5 -16 -17 -28q-98 -47 -187 -47zM94 -495q-6 -3 -10 -3t-6.5 2t-6.5 8l-9 16q-7 13 9 22q68 42 99 101q-5 -2 -17 -2q-29 0 -52 23.5t-23 56.5q0 43 31.5 73t74.5 30q37 0 61 -23t24 -64q0 -63 -55 -134t-120 -106z" />
    <glyph glyph-name="uni0229" unicode="&#x229;" horiz-adv-x="980" 
d="M611 897q183 0 269.5 -114.5t53.5 -287.5q-8 -104 -118 -104h-639q-2 -14 -2 -40q0 -109 63 -180.5t196 -71.5q164 0 305 121q24 10 33 -8l25 -45q12 -17 -6 -33q-133 -120 -302 -143l-92 -104q10 2 32 2q78 0 126.5 -48t48.5 -126q0 -110 -93.5 -194.5t-208.5 -84.5
q-59 0 -101.5 25t-61.5 63q-8 14 7 25l40 29q13 10 22 -3q33 -59 113 -59q79 0 139.5 57.5t60.5 129.5q0 47 -29.5 77.5t-85.5 30.5q-36 0 -67 -14t-72 -49q-16 -12 -22 -1l-28 29q-6 8 3 17q0 1 1 2t1 2l165 189q-159 7 -250.5 99t-91.5 245q0 108 45 211.5t120.5 181.5
t181 126t219.5 48zM597 781q-134 0 -242.5 -83.5t-154.5 -208.5h614q7 42 7.5 83t-14.5 79t-40 67t-69 46t-101 17z" />
    <glyph glyph-name="uni0237" unicode="&#x237;" horiz-adv-x="355" 
d="M-135 -384q-27 -8 -32 16l-26 99q-5 25 16 29q59 21 94 55.5t52 99.5l255 956q5 14 19 14h102q21 0 16 -19l-255 -953q-33 -125 -84.5 -190.5t-156.5 -106.5z" />
    <glyph glyph-name="circumflex" unicode="&#x2c6;" horiz-adv-x="841" 
d="M651 1380l-352 -205q-19 -13 -21 -23l-18 -69q-2 -12 5.5 -17t19.5 1l361 197l248 -195q11 -7 20 -3t13 17l17 64q5 15 -9 23l-241 210q-17 15 -43 0z" />
    <glyph glyph-name="caron" unicode="&#x2c7;" horiz-adv-x="841" 
d="M611 1073l352 204q18 9 21 21l17 70q2 12 -5 16.5t-19 -1.5l-361 -196l-248 196q-25 12 -33 -14l-17 -64q-5 -14 8 -24l242 -208q17 -17 43 0z" />
    <glyph glyph-name="breve" unicode="&#x2d8;" horiz-adv-x="808" 
d="M576 1036q-140 0 -212.5 82.5t-40.5 207.5q8 28 26 28h61q15 0 12 -25q-23 -92 27.5 -144t137.5 -52t163.5 51.5t106.5 144.5q11 25 26 25h65q18 0 10 -28q-41 -132 -144.5 -211t-237.5 -79z" />
    <glyph glyph-name="dotaccent" unicode="&#x2d9;" horiz-adv-x="338" 
d="M396 1208q-32 0 -56 24t-24 56t24 56t56 24q33 0 56.5 -23.5t23.5 -56.5t-23.5 -56.5t-56.5 -23.5z" />
    <glyph glyph-name="ring" unicode="&#x2da;" horiz-adv-x="548" 
d="M429 1007q-66 0 -106 39.5t-40 102.5q0 90 74.5 160.5t168.5 70.5q64 0 103 -39t39 -102q0 -92 -73.5 -162t-165.5 -70zM448 1081q57 0 102 44t45 99q0 37 -24.5 60t-63.5 23q-55 0 -101.5 -42.5t-46.5 -99.5q0 -37 25 -60.5t64 -23.5z" />
    <glyph glyph-name="ogonek" unicode="&#x2db;" horiz-adv-x="567" 
d="M61 -446q-77 0 -122 37.5t-45 104.5q0 77 59.5 148t148.5 117.5t188 66.5l64 -28q-92 -12 -170 -46.5t-126.5 -89.5t-48.5 -119q0 -89 104 -89q60 0 144 42q9 4 15 0.5t4 -12.5l-14 -56q-4 -12 -22 -24q-94 -52 -179 -52z" />
    <glyph glyph-name="tilde" unicode="&#x2dc;" horiz-adv-x="923" 
d="M838 1113q-51 0 -94.5 21t-69.5 45.5t-67 45.5t-88 21q-20 0 -39.5 -5t-32 -10.5t-27.5 -17t-21.5 -17t-18.5 -18.5t-14 -15q-12 -12 -24 0l-42 47q-9 9 2 24q44 59 88 86q57 35 122 35q44 0 80.5 -13.5t62.5 -32.5t51 -38.5t56.5 -33t67.5 -13.5q20 0 39 4.5t31.5 10
t27 16.5t21 17.5t18.5 19t15 15.5q14 11 25 0l41 -49q10 -10 -1 -24q-44 -59 -88 -87q-56 -34 -121 -34z" />
    <glyph glyph-name="hungarumlaut" unicode="&#x2dd;" horiz-adv-x="694" 
d="M286 1119q-8 0 -12 6.5t-2 13.5l132 317q9 18 25 18h95q8 0 12 -4.5t0 -13.5l-151 -319q-9 -18 -22 -18h-77zM628 1119q-8 0 -12 6.5t0 13.5l132 317q5 18 23 18h95q20 0 12 -18l-149 -319q-9 -18 -23 -18h-78z" />
    <glyph glyph-name="uni0326" unicode="&#x326;" horiz-adv-x="0" 
d="M-352 -495q-14 -8 -21 7l-11 16q-5 12 9 22q68 42 99 101q-5 -2 -17 -2q-29 0 -52 23.5t-23 56.5q0 43 31.5 73t74.5 30q37 0 61 -23t24 -64q0 -63 -55 -134t-120 -106z" />
    <glyph glyph-name="uni0394" unicode="&#x394;" horiz-adv-x="1456" 
d="M1296 17q10 -17 -10 -17h-1345q-20 0 -12 19l652 1364q6 14 18 14h31q11 0 16 -14zM125 134h975l-486 1032z" />
    <glyph glyph-name="uni03A9" unicode="&#x3a9;" horiz-adv-x="1501" 
d="M42 125v-108q0 -17 17 -17h583q18 0 18 17v89q0 8 -2 13.5t-3.5 7t-8.5 5t-9 5.5q-80 30 -158.5 83.5t-146 124.5t-109 162.5t-41.5 185.5q0 116 42.5 220.5t116.5 182t181 123t230 45.5q162 0 292 -77.5t201.5 -208t71.5 -285.5q0 -94 -41 -185.5t-108 -162.5
t-145 -124.5t-159 -83.5l-6 -3t-5.5 -3t-4 -2.5t-3 -3.5t-1.5 -4.5t-1.5 -6t-0.5 -8.5v-89q0 -17 15 -17h587q16 0 16 17v108q0 17 -16 17h-387q58 19 124.5 65t132.5 116t109.5 172.5t43.5 214.5q0 194 -95.5 355t-259.5 252.5t-360 91.5q-197 0 -361.5 -91.5t-260 -252
t-95.5 -355.5q0 -91 28.5 -176t73 -147.5t100 -114.5t106.5 -83t96 -47h-380q-17 0 -17 -17z" />
    <glyph glyph-name="uni03BC" unicode="&#x3bc;" horiz-adv-x="1062" 
d="M896 885q20 0 20 -21v-493q0 -171 -94 -282.5t-260 -111.5q-147 -3 -302 117v-420q0 -21 -22 -21h-97q-23 0 -23 21v1190q0 21 23 21h99q22 0 22 -21l-2 -618q88 -75 171 -105t143.5 -17.5t106.5 50t69.5 93t23.5 117.5v480q0 21 23 21h99z" />
    <glyph glyph-name="pi" unicode="&#x3c0;" horiz-adv-x="1192" 
d="M1083 887q23 0 23 -23v-92q0 -22 -23 -22h-148v-500q0 -70 19 -101t79 -57q15 -6 8 -23l-50 -97q-6 -12 -24 -7q-102 41 -138 104.5t-38 175.5l2 505h-396l2 -729q0 -21 -22 -21h-98q-22 0 -22 21v729h-149q-21 0 -21 22v91q0 22 21 22z" />
    <glyph glyph-name="uni0401" unicode="&#x401;" horiz-adv-x="1050" 
d="M755 1689q-30 0 -51.5 22t-21.5 52t21.5 51.5t51.5 21.5q31 0 53 -21.5t22 -51.5t-22 -52t-53 -22zM1175 1836q31 0 53 -21.5t22 -51.5t-22 -52t-53 -22q-30 0 -51.5 22t-21.5 52q0 31 21.5 52t51.5 21zM1201 1354q10 0 14.5 -7t2.5 -16l-24 -88q-3 -19 -22 -19h-691
l-127 -474h512q22 0 17 -23l-22 -88q-5 -18 -24 -18h-518l-132 -491h705q11 0 16 -7t3 -17l-26 -89q-4 -17 -24 -17h-828q-22 0 -17 23l350 1313q5 18 25 18h810z" />
    <glyph glyph-name="uni0403" unicode="&#x403;" horiz-adv-x="1100" 
d="M807 1550l-36 59q-10 13 3 22l361 250q17 13 28 -1l48 -87q12 -16 -5 -26l-375 -224q-16 -9 -24 7zM1208 1354q20 0 16 -21l-26 -99q-7 -16 -30 -16q-48 6 -90 6h-597l-323 -1207q-5 -17 -24 -17h-101q-22 0 -17 23l350 1313q5 18 25 18h817z" />
    <glyph glyph-name="uni0404" unicode="&#x404;" horiz-adv-x="1371" 
d="M1461 1158q19 -26 4 -37l-83 -52q-16 -14 -35 9q-126 149 -340 149q-226 0 -425 -140t-278 -346h611q20 0 15 -19l-24 -90q-3 -19 -26 -19h-611q-5 -43 -5 -78q0 -85 27 -158t79.5 -129t136.5 -88.5t191 -32.5q133 0 244.5 46.5t187.5 109.5q24 21 40 2l57 -75
q14 -14 -16 -36q-243 -186 -532 -186q-255 0 -407 143.5t-152 380.5q0 163 75 320t197.5 274t288 188.5t336.5 71.5q148 0 264.5 -55.5t179.5 -152.5z" />
    <glyph glyph-name="uni0406" unicode="&#x406;" horiz-adv-x="399" 
d="M33 0q-22 0 -17 23l350 1313q5 18 25 18h100q24 0 19 -23l-352 -1314q-5 -17 -24 -17h-101z" />
    <glyph glyph-name="uni0407" unicode="&#x407;" horiz-adv-x="399" 
d="M349 1689q-30 0 -51.5 22t-21.5 52t21.5 51.5t51.5 21.5q31 0 52.5 -21.5t21.5 -51.5t-21.5 -52t-52.5 -22zM769 1689q-30 0 -51.5 22t-21.5 52q0 31 21.5 52t51.5 21q31 0 52.5 -21.5t21.5 -51.5t-21.5 -52t-52.5 -22zM33 0q-22 0 -17 23l350 1313q5 18 25 18h100
q24 0 19 -23l-352 -1314q-5 -17 -24 -17h-101z" />
    <glyph glyph-name="uni0408" unicode="&#x408;" horiz-adv-x="480" 
d="M573 1354q24 0 19 -23l-413 -1532q-38 -146 -130 -236.5t-214 -126.5q-29 -11 -35 12l-27 102q-4 25 15 25q96 21 162.5 84.5t91.5 156.5l406 1520q5 18 24 18h101z" />
    <glyph glyph-name="uni040C" unicode="&#x40c;" horiz-adv-x="1155" 
d="M521 1550l-37 59q-8 14 4 22l361 250q19 13 27 -1l51 -87q10 -17 -7 -26l-373 -224q-15 -9 -26 7zM1298 1354q14 0 17.5 -8.5t-6.5 -17.5l-856 -656l533 -646q8 -10 4.5 -18t-16.5 -8h-122q-17 0 -26 12l-503 618l-165 -613q-5 -17 -24 -17h-101q-22 0 -17 23l350 1313
q5 18 25 18h100q24 0 19 -23l-163 -607l793 621q12 9 26 9h132z" />
    <glyph glyph-name="uni040D" unicode="&#x40d;" horiz-adv-x="1876" 
d="M903 1720l374 -224q17 -7 25 7l36 59q10 14 -3 23l-361 250q-17 13 -28 -2l-49 -85q-13 -17 6 -28zM391 1354h105q18 0 14 -19l-295 -1102l1130 1103q18 18 37 18h118q17 0 12 -19l-353 -1316q-5 -19 -26 -19h-106q-18 0 -12 19l299 1114l-1133 -1116q-17 -17 -39 -17
h-118q-15 0 -10 19l352 1316q5 19 25 19z" />
    <glyph glyph-name="uni040E" unicode="&#x40e;" horiz-adv-x="1260" 
d="M925 1505q-139 0 -212 82.5t-40 207.5q8 27 25 27h60q16 0 13 -24q-22 -92 28.5 -144t137.5 -52t164 51.5t107 144.5q10 24 26 24h64q19 0 11 -27q-42 -132 -145.5 -211t-238.5 -79zM1446 1354q31 0 5 -30l-1187 -1308q-13 -16 -28 -16h-108q-16 0 -19 11t9 24l456 505
l-291 784q-4 12 1 21t20 9h104q22 0 26 -19l250 -674l609 674q16 19 40 19h113z" />
    <glyph glyph-name="uni0410" unicode="&#x410;" horiz-adv-x="1391" 
d="M1237 24q3 -24 -15 -24h-101q-18 0 -21 24l-40 210h-814l-154 -215q-14 -19 -28 -19h-121q-11 0 -14.5 8t3.5 18l951 1312q11 16 26 16h59q17 0 23 -19zM331 351h709l-148 779z" />
    <glyph glyph-name="uni0411" unicode="&#x411;" horiz-adv-x="1207" 
d="M1208 1354q20 0 16 -21l-26 -99q-7 -16 -30 -16q-48 6 -90 6h-597l-117 -440h403q164 0 258 -81.5t94 -216.5q0 -136 -76 -248t-202 -175t-272 -63h-536q-22 0 -17 23l350 1313q5 18 25 18h817zM727 654h-399l-141 -524h391q165 0 281 98.5t116 241.5q0 83 -62.5 133.5
t-185.5 50.5z" />
    <glyph glyph-name="uni0412" unicode="&#x412;" horiz-adv-x="1180" 
d="M897 710q89 -37 136.5 -107t47.5 -166q0 -123 -75 -224.5t-197 -157t-261 -55.5h-512q-25 0 -20 26l350 1307q5 21 26 21h490q145 0 227 -70t82 -189q0 -123 -82 -228t-212 -157zM481 1224l-127 -472h335q141 0 248.5 94t107.5 213q0 78 -53 121.5t-162 43.5h-349z
M548 130q159 0 276 89.5t117 221.5q0 90 -61.5 142t-185.5 52h-371l-136 -505h361z" />
    <glyph glyph-name="uni0413" unicode="&#x413;" horiz-adv-x="1069" 
d="M1208 1354q20 0 16 -21l-26 -99q-7 -16 -30 -16q-48 6 -90 6h-597l-323 -1207q-5 -17 -24 -17h-101q-22 0 -17 23l350 1313q5 18 25 18h817z" />
    <glyph glyph-name="uni0414" unicode="&#x414;" horiz-adv-x="1475" 
d="M1477 1354q35 0 24 -35l-316 -1178h118q21 0 18 -20l-78 -284h-141l45 163h-1055l-45 -163h-141l78 284q3 20 25 20h106q138 219 243.5 508.5t207.5 669.5q8 35 45 35h866zM1047 141l286 1072h-656q-44 -162 -79.5 -281t-86.5 -267.5t-112.5 -280t-132.5 -243.5h781z" />
    <glyph glyph-name="uni0415" unicode="&#x415;" horiz-adv-x="1050" 
d="M1201 1354q10 0 14.5 -7t2.5 -16l-24 -88q-3 -19 -22 -19h-691l-127 -474h512q22 0 17 -23l-22 -88q-5 -18 -24 -18h-518l-132 -491h705q11 0 16 -7t3 -17l-26 -89q-4 -17 -24 -17h-828q-22 0 -17 23l350 1313q5 18 25 18h810z" />
    <glyph glyph-name="uni0416" unicode="&#x416;" horiz-adv-x="1890" 
d="M2032 1354q14 0 17.5 -8.5t-6.5 -17.5l-856 -656l533 -646q8 -10 4.5 -18t-16.5 -8h-122q-17 0 -26 12l-503 618l-165 -613q-5 -17 -24 -17h-101q-22 0 -17 23l159 597l-812 -604q-19 -16 -36 -16h-111q-11 0 -16 5.5t-2.5 14t11.5 16.5l866 643l-491 640q-10 14 -4 24.5
t21 10.5h115q16 0 29 -18l460 -602l161 602q5 18 25 18h100q24 0 19 -23l-163 -607l793 621q12 9 26 9h132z" />
    <glyph glyph-name="uni0417" unicode="&#x417;" horiz-adv-x="1105" 
d="M786 699q109 -27 169 -93.5t60 -164.5q0 -130 -87 -235.5t-223 -161.5t-287 -56t-255.5 58.5t-139.5 177.5q-8 17 8 28l90 64q18 13 28 -4q22 -93 102.5 -138.5t198.5 -45.5q109 0 204.5 39t155.5 112t60 162q0 195 -341 199l32 118q188 4 311.5 81.5t123.5 208.5
q0 88 -65 132.5t-179 44.5q-101 0 -198 -46t-170 -138q-15 -15 -30 -1l-54 62q-8 9 -6.5 14t10.5 16q99 118 228.5 176t269.5 58q159 0 255.5 -74t96.5 -200q0 -138 -103.5 -244t-264.5 -149z" />
    <glyph glyph-name="uni0418" unicode="&#x418;" horiz-adv-x="1400" 
d="M391 1354h105q18 0 14 -19l-295 -1102l1130 1103q18 18 37 18h118q17 0 12 -19l-353 -1316q-5 -19 -26 -19h-106q-18 0 -12 19l299 1114l-1133 -1116q-17 -17 -39 -17h-118q-15 0 -10 19l352 1316q5 19 25 19z" />
    <glyph glyph-name="uni0419" unicode="&#x419;" horiz-adv-x="1400" 
d="M1000 1505q-140 0 -213 82.5t-41 207.5q8 27 26 27h61q15 0 12 -24q-23 -92 27.5 -144t137.5 -52t164 51.5t107 144.5q11 24 26 24h64q19 0 11 -27q-41 -132 -144.5 -211t-237.5 -79zM391 1354h105q18 0 14 -19l-295 -1102l1130 1103q18 18 37 18h118q17 0 12 -19
l-353 -1316q-5 -19 -26 -19h-106q-18 0 -12 19l299 1114l-1133 -1116q-17 -17 -39 -17h-118q-15 0 -10 19l352 1316q5 19 25 19z" />
    <glyph glyph-name="uni041A" unicode="&#x41a;" horiz-adv-x="1155" 
d="M1298 1354q14 0 17.5 -8.5t-6.5 -17.5l-856 -656l533 -646q8 -10 4.5 -18t-16.5 -8h-122q-17 0 -26 12l-503 618l-165 -613q-5 -17 -24 -17h-101q-22 0 -17 23l350 1313q5 18 25 18h100q24 0 19 -23l-163 -607l793 621q12 9 26 9h132z" />
    <glyph glyph-name="uni041B" unicode="&#x41b;" horiz-adv-x="1339" 
d="M1421 1354q36 0 25 -35l-347 -1302q-5 -17 -23 -17h-106q-17 0 -14 17l325 1207h-719l-250 -931q-79 -302 -366 -302q-27 0 -41 5t-11 18l19 73q6 26 31 26q99 0 151.5 42.5t78.5 143.5l272 1020q11 35 45 35h930z" />
    <glyph glyph-name="uni041C" unicode="&#x41c;" horiz-adv-x="1739" 
d="M33 0q-11 0 -16 6.5t-1 16.5l350 1313q5 18 25 18h97q17 0 22 -18l299 -1098l888 1104q9 12 26 12h108q22 0 17 -23l-352 -1314q-3 -17 -22 -17h-103q-11 0 -16 6.5t-1 16.5l284 1057l-841 -1050q-14 -20 -30 -20h-14q-14 0 -19 21l-291 1047l-285 -1061q-5 -17 -24 -17
h-101z" />
    <glyph glyph-name="uni041D" unicode="&#x41d;" horiz-adv-x="1386" 
d="M1479 1354q22 0 17 -23l-352 -1314q-1 -7 -8 -12t-15 -5h-102q-23 0 -18 23l162 598h-844l-161 -604q-5 -17 -24 -17h-101q-22 0 -17 23l350 1313q5 18 25 18h100q24 0 19 -23l-156 -581h842l158 586q4 18 22 18h103z" />
    <glyph glyph-name="uni041E" unicode="&#x41e;" horiz-adv-x="1541" 
d="M660 -12q-249 0 -395.5 145t-146.5 377q0 162 74.5 319.5t196 274.5t285 189.5t333.5 72.5q249 0 395 -145t146 -378q0 -163 -74.5 -320t-195.5 -274t-284.5 -189t-333.5 -72zM682 127q139 0 272.5 59.5t231.5 155t158 223t60 256.5q0 181 -111.5 293.5t-308.5 112.5
q-138 0 -271.5 -59.5t-231 -155t-157.5 -223t-60 -256.5q0 -181 111 -293.5t307 -112.5z" />
    <glyph glyph-name="uni041F" unicode="&#x41f;" horiz-adv-x="1374" 
d="M1472 1354q19 0 14 -19l-353 -1316q-4 -19 -22 -19h-104q-19 0 -14 19l319 1194h-838l-320 -1194q-4 -19 -22 -19h-104q-19 0 -14 19l352 1316q5 19 26 19h1080z" />
    <glyph glyph-name="uni0420" unicode="&#x420;" horiz-adv-x="1194" 
d="M892 1354q97 0 171 -27.5t118 -76t66 -110t22 -135.5q0 -151 -82.5 -281.5t-222.5 -207.5t-303 -77h-390l-113 -422q-5 -17 -24 -17h-101q-22 0 -17 23l350 1313q5 18 25 18h501zM686 569q87 0 169 34.5t142 90.5t96.5 132t36.5 156q0 109 -64.5 175.5t-194.5 66.5h-390
l-176 -655h381z" />
    <glyph glyph-name="uni0421" unicode="&#x421;" horiz-adv-x="1371" 
d="M679 -12q-255 0 -407 143.5t-152 380.5q0 163 75 320t197.5 274t288 188.5t336.5 71.5q148 0 264.5 -55.5t179.5 -152.5q19 -26 4 -37l-83 -52q-16 -14 -35 9q-126 149 -340 149q-139 0 -275.5 -58.5t-239 -153t-165.5 -222t-63 -258.5q0 -85 27 -158t79.5 -129
t136.5 -88.5t191 -32.5q133 0 244.5 46.5t187.5 109.5q24 21 40 2l57 -75q14 -14 -16 -36q-243 -186 -532 -186z" />
    <glyph glyph-name="uni0422" unicode="&#x422;" horiz-adv-x="1041" 
d="M1203 1354q22 0 17 -23l-24 -88q-3 -19 -23 -19h-373l-323 -1207q-3 -17 -22 -17h-103q-22 0 -17 23l323 1201h-366q-11 0 -16.5 7t-3.5 17l25 88q5 18 24 18h882z" />
    <glyph glyph-name="uni0423" unicode="&#x423;" horiz-adv-x="1261" 
d="M1446 1354q31 0 5 -30l-1187 -1308q-13 -16 -28 -16h-108q-16 0 -19 11t9 24l456 505l-291 784q-4 12 1 21t20 9h104q22 0 26 -19l250 -674l609 674q16 19 40 19h113z" />
    <glyph glyph-name="uni0424" unicode="&#x424;" horiz-adv-x="1483" 
d="M1060 1198q107 0 189.5 -30.5t133 -84.5t76 -122.5t25.5 -149.5q0 -129 -58 -249.5t-153 -208.5t-222.5 -140.5t-260.5 -52.5h-47l-38 -143q-5 -17 -25 -17h-100q-24 0 -19 23l36 137h-36q-105 0 -186.5 31t-132 84.5t-76 123t-25.5 149.5q0 174 98 324.5t258.5 238
t340.5 87.5h38l37 138q5 18 24 18h101q22 0 17 -23l-36 -133h41zM628 278l215 802h-38q-137 0 -259.5 -71.5t-195 -188.5t-72.5 -246q0 -130 77.5 -213t229.5 -83h43zM819 278q102 0 200 44t170 115.5t116.5 165.5t44.5 190q0 127 -78 207t-232 80h-52l-214 -802h45z" />
    <glyph glyph-name="uni0425" unicode="&#x425;" horiz-adv-x="1192" 
d="M1368 1354q13 0 16 -8t-6 -18l-639 -653l295 -651q9 -24 -15 -24h-116q-19 0 -27 16l-246 546l-540 -552q-10 -10 -26 -10h-113q-13 0 -16.5 8t6.5 18l637 651l-293 652q-9 25 14 25h116q16 0 24 -16l248 -548l544 553q11 11 26 11h111z" />
    <glyph glyph-name="uni0426" unicode="&#x426;" horiz-adv-x="1320" 
d="M1387 1354q22 0 17 -23l-319 -1190h40q27 0 38 -15.5t3 -42.5l-31 -113q-10 -42 -14 -69q-3 -24 -21 -24h-93q-36 0 -28 38l24 85h-970q-22 0 -17 23l350 1313q5 18 25 18h100q24 0 19 -23l-319 -1190h750l321 1195q4 18 22 18h103z" />
    <glyph glyph-name="uni0427" unicode="&#x427;" horiz-adv-x="1159" 
d="M1264 1354q22 0 17 -23l-351 -1314q-5 -17 -24 -17h-101q-24 0 -19 23l148 548q-199 -115 -391 -115q-200 0 -301 107.5t-55 273.5l112 418q9 28 15 76q3 24 24 24h89q40 0 29 -41l-118 -439q-33 -121 35.5 -204t227.5 -83q195 0 373 131l165 617q5 18 24 18h101z" />
    <glyph glyph-name="uni0428" unicode="&#x428;" horiz-adv-x="1848" 
d="M1940 1354q23 0 18 -23l-351 -1314q-5 -17 -24 -17h-1550q-22 0 -17 23l350 1313q5 18 25 18h100q24 0 19 -23l-319 -1190h580l321 1195q4 18 22 18h103q22 0 17 -23l-319 -1190h579l321 1195q5 18 25 18h100z" />
    <glyph glyph-name="uni0429" unicode="&#x429;" horiz-adv-x="1874" 
d="M1940 1354q23 0 18 -23l-318 -1190h38q27 0 38 -15.5t4 -42.5l-30 -113q-7 -21 -13 -69q-5 -24 -23 -24h-94q-17 0 -24 10.5t-2 27.5l23 85h-1524q-22 0 -17 23l350 1313q5 18 25 18h100q24 0 19 -23l-319 -1190h580l321 1195q4 18 22 18h103q22 0 17 -23l-319 -1190h579
l321 1195q5 18 25 18h100z" />
    <glyph glyph-name="uni042A" unicode="&#x42a;" horiz-adv-x="1273" 
d="M828 916q189 0 283 -98t94 -254q0 -150 -82.5 -280t-223 -207t-302.5 -77h-515q-11 0 -16.5 6.5t-3.5 16.5l320 1190h-170q-21 0 -18 21l28 101q3 19 28 19h290q22 0 17 -23l-111 -415h382zM620 130q116 0 219 57.5t164 153t61 202.5q0 109 -64.5 176t-194.5 67h-394
l-175 -656h384z" />
    <glyph glyph-name="uni042B" unicode="&#x42b;" horiz-adv-x="1601" 
d="M779 916q190 0 283.5 -98t93.5 -254q0 -150 -82.5 -280t-223 -207t-302.5 -77h-515q-22 0 -17 23l350 1313q5 18 25 18h100q24 0 19 -23l-111 -415h380zM1694 1354q24 0 19 -23l-352 -1314q-5 -17 -25 -17h-100q-23 0 -18 23l351 1313q5 18 24 18h101zM573 130
q87 0 169 34.5t142 90.5t96.5 132t36.5 156q0 109 -64.5 176t-194.5 67h-394l-177 -656h386z" />
    <glyph glyph-name="uni042C" unicode="&#x42c;" horiz-adv-x="1225" 
d="M779 916q190 0 283.5 -98t93.5 -254q0 -150 -82.5 -280t-223 -207t-302.5 -77h-515q-22 0 -17 23l350 1313q5 18 25 18h100q24 0 19 -23l-111 -415h380zM573 130q87 0 169 34.5t142 90.5t96.5 132t36.5 156q0 109 -64.5 176t-194.5 67h-394l-177 -656h386z" />
    <glyph glyph-name="uni042D" unicode="&#x42d;" horiz-adv-x="1369" 
d="M833 1366q249 0 398 -143t149 -380q0 -166 -76.5 -324t-201 -274t-291.5 -186.5t-341 -70.5q-148 0 -263.5 51t-185.5 148q-15 18 3 32l92 67q15 14 30 -3q117 -158 343 -158t422 141t276 347h-614q-21 0 -16 19l24 90q3 19 26 19h615q7 39 7 85q0 178 -112 289.5
t-319 111.5q-232 0 -442 -163q-19 -14 -28 -2l-59 71q-12 14 7 30q125 99 268.5 151t288.5 52z" />
    <glyph glyph-name="uni042E" unicode="&#x42e;" horiz-adv-x="1988" 
d="M1454 1366q249 0 396.5 -145.5t147.5 -377.5q0 -163 -74.5 -320t-196.5 -274t-286 -189t-334 -72q-249 0 -394 144.5t-145 377.5q0 63 10 120h-255l-165 -613q-5 -17 -24 -17h-101q-22 0 -17 23l350 1313q5 18 25 18h100q24 0 19 -23l-152 -573h253q60 168 187 306.5
t300 220t356 81.5zM1132 127q139 0 272 59.5t231 155t157.5 222.5t59.5 257q0 181 -111.5 293.5t-308.5 112.5q-138 0 -271.5 -59.5t-231 -155t-157.5 -223t-60 -256.5q0 -181 111.5 -293.5t308.5 -112.5z" />
    <glyph glyph-name="uni042F" unicode="&#x42f;" horiz-adv-x="1211" 
d="M1303 1354q23 0 18 -23l-353 -1314q-3 -17 -22 -17h-103q-22 0 -17 23l111 416h-375q-32 0 -48 2l-391 -422q-19 -19 -40 -19h-100q-14 0 -17 8t6 18l415 443q-105 40 -155.5 127t-50.5 204q0 155 80.5 282t222 199.5t314.5 72.5h505zM587 569h385l177 655h-387
q-181 0 -309 -120.5t-128 -291.5q0 -112 64.5 -177.5t197.5 -65.5z" />
    <glyph glyph-name="uni0430" unicode="&#x430;" horiz-adv-x="1053" 
d="M1059 885q8 0 12.5 -5t2.5 -14l-227 -852q-5 -14 -19 -14h-104q-8 0 -13 5t-3 14l42 158q-75 -89 -173.5 -140t-208.5 -51q-149 0 -237 90t-88 243q0 108 44.5 213.5t117.5 185.5t174 129.5t208 49.5q116 0 193.5 -55.5t104.5 -155.5l50 185q5 14 20 14h104zM413 106
q134 0 245.5 90.5t155.5 220.5l14 50q7 34 7 71q0 110 -65.5 175t-174.5 65q-110 0 -208 -64t-155 -164.5t-57 -205.5q0 -109 63 -173.5t175 -64.5z" />
    <glyph glyph-name="uni0431" unicode="&#x431;" horiz-adv-x="1083" 
d="M1118 1359q11 2 16 -2t3 -14l-24 -90q-7 -22 -28 -22h-150q-223 0 -382.5 -126t-250.5 -345q167 139 370 139q167 0 266.5 -94.5t99.5 -254.5q0 -109 -48 -213t-127 -181t-187 -123.5t-221 -46.5q-164 0 -263 91t-103 246v8v2v4q1 197 65 381.5t175 325.5t272.5 225.5
t344.5 84.5h99q33 0 73 5zM658 779q-114 0 -216.5 -62t-162.5 -161t-60 -205q0 -111 67 -178t184 -67q113 0 215.5 62t163 161.5t60.5 205.5q0 111 -67.5 177.5t-183.5 66.5z" />
    <glyph glyph-name="uni0432" unicode="&#x432;" horiz-adv-x="959" 
d="M677 467q175 -39 175 -182q0 -125 -119.5 -205t-282.5 -80h-447q-15 0 -10 14l229 856q3 15 16 15h442q118 0 183.5 -46.5t65.5 -128.5q0 -91 -73.5 -158t-178.5 -85zM545 502q99 0 170 54.5t71 130.5q0 104 -166 104h-290l-77 -289h292zM444 94q122 0 195.5 56.5
t73.5 132.5q0 60 -51 95t-138 35h-295l-87 -319h302z" />
    <glyph glyph-name="uni0433" unicode="&#x433;" horiz-adv-x="905" 
d="M920 885q22 0 14 -21l-25 -95q-4 -19 -27 -16q-58 5 -70 5h-461l-200 -739q-4 -19 -23 -19h-100q-19 0 -14 19l226 847q8 19 26 19h654z" />
    <glyph glyph-name="uni0434" unicode="&#x434;" horiz-adv-x="1214" 
d="M1102 885q34 0 26 -35l-193 -723h106q19 0 16 -21l-63 -233q-7 -19 -26 -19h-100q-19 0 -12 19l34 127h-800l-34 -127q-7 -19 -25 -19h-99q-19 0 -15 19l62 233q5 21 26 21h118q185 232 306 720l1 7q7 31 42 31h630zM797 127l168 631h-425q-30 -115 -57 -201t-86 -212
t-131 -218h531z" />
    <glyph glyph-name="uni0435" unicode="&#x435;" horiz-adv-x="982" 
d="M611 897q183 0 269.5 -114.5t53.5 -287.5q-8 -104 -118 -104h-639q-2 -14 -2 -40q0 -109 63 -180.5t196 -71.5q164 0 305 121q24 10 33 -8l25 -45q12 -17 -6 -33q-166 -148 -380 -148q-170 0 -268 93t-98 251q0 108 45 211.5t120.5 181.5t181 126t219.5 48zM597 781
q-134 0 -242.5 -83.5t-154.5 -208.5h614q7 42 7.5 83t-14.5 79t-40 67t-69 46t-101 17z" />
    <glyph glyph-name="uni0436" unicode="&#x436;" horiz-adv-x="1499" 
d="M1512 885q8 0 12 -4.5t1.5 -11t-10.5 -12.5l-585 -416l399 -410q10 -11 5 -21t-20 -10h-115q-12 0 -24 12l-373 396l-103 -387q-5 -21 -24 -21h-97q-22 0 -14 21l102 385l-574 -394q-16 -12 -30 -12h-118q-14 0 -15.5 12t10.5 19l625 415l-361 410q-7 9 -1.5 19t18.5 10
h115q13 0 19 -10l333 -396l84 312q6 25 13 72q3 22 21 22h106q19 0 14 -19l-104 -389l538 394q16 14 33 14h120z" />
    <glyph glyph-name="uni0437" unicode="&#x437;" horiz-adv-x="819" 
d="M533 453q160 -37 160 -172q0 -84 -59.5 -153t-152 -105.5t-193.5 -36.5q-107 0 -184.5 42.5t-103.5 117.5q-4 13 7 21l68 50q13 9 20 -5q19 -56 77 -85.5t135 -29.5q106 0 185 54t79 128q0 123 -213 127l24 92q121 4 198.5 48t77.5 124q0 54 -40.5 85t-115.5 31
q-77 0 -145.5 -32.5t-116.5 -87.5q-14 -13 -28 2l-33 49q-10 10 2 22q64 75 154.5 116.5t192.5 41.5q116 0 187 -55.5t71 -147.5q0 -91 -69.5 -154t-183.5 -87z" />
    <glyph glyph-name="uni0438" unicode="&#x438;" horiz-adv-x="1055" 
d="M1048 885q16 0 11 -14l-229 -855q-4 -16 -19 -16h-103q-7 0 -11.5 5t-2.5 11l177 663l-769 -663q-21 -16 -33 -16h-60q-18 0 -14 16l231 854q3 15 17 15h106q15 0 12 -15l-180 -670l768 668q19 17 28 17h71z" />
    <glyph glyph-name="uni0439" unicode="&#x439;" horiz-adv-x="1055" 
d="M623 1036q-141 0 -213.5 81.5t-38.5 206.5q5 28 25 28h60q16 0 13 -24q-23 -92 27.5 -143.5t138.5 -51.5q87 0 163 51t106 144q10 24 28 24h64q21 0 9 -28q-41 -131 -144.5 -209.5t-237.5 -78.5zM1048 885q16 0 11 -14l-229 -855q-4 -16 -19 -16h-103q-7 0 -11.5 5
t-2.5 11l177 663l-769 -663q-21 -16 -33 -16h-60q-18 0 -14 16l231 854q3 15 17 15h106q15 0 12 -15l-180 -670l768 668q19 17 28 17h71z" />
    <glyph glyph-name="uni043A" unicode="&#x43a;" horiz-adv-x="905" 
d="M918 885q13 0 15.5 -9.5t-11.5 -18.5l-584 -416l400 -410q9 -11 3.5 -21t-19.5 -10h-115q-14 0 -26 12l-371 394l-102 -385q-5 -21 -25 -21h-97q-20 0 -16 21l207 770q10 32 14 72q3 22 22 22h106q8 0 12 -5t2 -14l-102 -387l536 392q16 14 33 14h118z" />
    <glyph glyph-name="uni043B" unicode="&#x43b;" horiz-adv-x="1027" 
d="M1003 885q34 0 26 -35l-222 -833q-5 -17 -23 -17h-102q-19 0 -14 17l200 743h-467l-127 -477q-39 -149 -127.5 -220.5t-233.5 -71.5q-24 0 -19 25l19 74q7 22 30 25q80 1 126.5 44.5t71.5 135.5l147 555q8 35 43 35h672z" />
    <glyph glyph-name="uni043C" unicode="&#x43c;" horiz-adv-x="1312" 
d="M1307 885q13 0 10 -15l-229 -854q-4 -16 -19 -16h-106q-18 0 -14 16l177 657l-553 -652q-14 -16 -25 -16h-13q-9 0 -14 16l-210 652l-177 -657q-4 -16 -19 -16h-106q-18 0 -14 16l229 854q4 15 19 15h111q12 0 17 -14l219 -666l568 666q11 14 22 14h127z" />
    <glyph glyph-name="uni043D" unicode="&#x43d;" horiz-adv-x="1069" 
d="M1060 885q17 0 14 -14l-231 -855q-4 -16 -19 -16h-105q-8 0 -11.5 4.5t-1.5 11.5l98 362h-573l-97 -362q-4 -16 -19 -16h-106q-18 0 -14 16l231 855q3 14 17 14h108q17 0 12 -14l-97 -362h572l97 362q3 14 18 14h107z" />
    <glyph glyph-name="uni043E" unicode="&#x43e;" horiz-adv-x="1041" 
d="M413 -14q-167 0 -266.5 94t-99.5 253q0 145 81 276t216.5 210.5t285.5 79.5q167 0 266.5 -94.5t99.5 -254.5q0 -109 -48 -213t-127 -181t-187 -123.5t-221 -46.5zM429 106q113 0 215.5 62t163 161.5t60.5 205.5q0 110 -68 177t-184 67q-114 0 -216.5 -62t-162.5 -161
t-60 -205q0 -111 67.5 -178t184.5 -67z" />
    <glyph glyph-name="uni043F" unicode="&#x43f;" horiz-adv-x="994" 
d="M771 19q-6 -19 -23 -19h-101q-20 0 -15 19l198 739h-499l-196 -739q-6 -19 -22 -19h-103q-18 0 -13 19l225 847q8 19 26 19h734q22 0 14 -19z" />
    <glyph glyph-name="uni0440" unicode="&#x440;" horiz-adv-x="1065" 
d="M689 897q148 0 235.5 -90.5t87.5 -245.5q0 -107 -44 -212t-116 -184.5t-172.5 -129t-207.5 -49.5q-110 0 -191 51.5t-116 143.5l-137 -514q-5 -14 -19 -14h-104q-8 0 -13 5t-3 14l286 1064q8 32 14.5 76t6.5 45q3 28 26 28h68q29 0 41 -18.5t4 -49.5l-26 -97
q78 82 176.5 129.5t203.5 47.5zM460 106q112 0 210 63.5t154 163t56 205.5q0 110 -61.5 175t-172.5 65q-112 0 -211 -64.5t-156 -164.5t-57 -204q0 -111 64.5 -175t173.5 -64z" />
    <glyph glyph-name="uni0441" unicode="&#x441;" horiz-adv-x="919" 
d="M413 -14q-164 0 -265 95t-101 254q0 144 81 274.5t214.5 209t280.5 78.5q107 0 182 -44t113 -115q12 -21 -2 -32l-69 -43q-18 -10 -33 5q-66 111 -205 111q-86 0 -167.5 -37t-140 -96t-94 -135.5t-35.5 -154.5q0 -111 69.5 -180.5t188.5 -69.5q148 0 280 116q22 14 31 -3
l35 -65q13 -15 -7 -29q-161 -139 -356 -139z" />
    <glyph glyph-name="uni0442" unicode="&#x442;" horiz-adv-x="912" 
d="M956 885q16 0 12 -15l-26 -98q-3 -14 -19 -14h-314l-198 -742q-4 -16 -17 -16h-108q-18 0 -14 16l198 742h-312q-16 0 -12 14l26 98q4 15 21 15h763z" />
    <glyph glyph-name="uni0443" unicode="&#x443;" horiz-adv-x="949" 
d="M78 -347q-10 0 -13 6.5t3 14.5l225 335l-137 859q-3 17 16 17h97q16 0 19 -17l109 -700h6l479 705q7 12 21 12h105q10 0 14 -6.5t-1 -14.5l-821 -1199q-7 -12 -23 -12h-99z" />
    <glyph glyph-name="uni0444" unicode="&#x444;" horiz-adv-x="1782" 
d="M1415 897q147 0 234.5 -90.5t87.5 -245.5q0 -143 -73 -276t-198.5 -216t-267.5 -83q-109 0 -190 51t-118 142l-29 -111l-106 -401q-5 -14 -19 -14h-106q-8 0 -13 5t-3 14l101 371l35 134q-73 -89 -172.5 -140t-209.5 -51q-149 0 -237 90t-88 243q0 108 44.5 213.5
t117.5 185.5t174 129.5t208 49.5q116 0 193.5 -56t106.5 -157l139 521q6 24 10.5 47.5t7 44.5t4.5 29q3 28 26 28h66q28 0 40.5 -18t4.5 -50l-151 -566q78 82 177 129.5t204 47.5zM415 106q110 0 207.5 63.5t154 163t56.5 203.5q0 111 -65 176.5t-174 65.5q-110 0 -208 -64
t-154.5 -164t-56.5 -205q0 -109 64 -174t176 -65zM1185 106q112 0 210 63.5t154 163t56 205.5q0 110 -61.5 175t-172.5 65q-138 0 -252.5 -95t-155.5 -228l-5 -25q-10 -40 -10 -85q0 -111 64 -175t173 -64z" />
    <glyph glyph-name="uni0445" unicode="&#x445;" horiz-adv-x="895" 
d="M939 885q11 0 13.5 -6.5t-4.5 -14.5l-420 -421l192 -422q8 -21 -14 -21h-111q-16 0 -21 14l-149 330l-324 -334q-7 -10 -23 -10h-121q-11 0 -13.5 7t4.5 14l423 423l-189 420q-5 21 14 21h109q16 0 21 -14l144 -328l327 332q7 10 22 10h120z" />
    <glyph glyph-name="uni0446" unicode="&#x446;" horiz-adv-x="1055" 
d="M991 885q19 0 16 -19l-200 -739h49q27 0 38 -15.5t3 -42.5l-27 -99q-8 -34 -14 -69q-3 -24 -21 -24h-89q-38 0 -27 38l22 85h-711q-9 0 -13.5 5.5t-2.5 13.5l227 847q6 19 23 19h100q19 0 16 -19l-198 -739h486l200 739q6 19 22 19h101z" />
    <glyph glyph-name="uni0447" unicode="&#x447;" horiz-adv-x="1015" 
d="M1000 885q18 0 12 -21l-226 -845q-6 -19 -22 -19h-103q-19 0 -14 19l99 370q-178 -170 -375 -170q-141 0 -213 83.5t-31 235.5l50 189q14 57 31 134q0 24 19 24h94q35 0 26 -40l-73 -272q-29 -108 13 -169.5t152 -61.5q168 0 342 172l94 350q4 21 22 21h103z" />
    <glyph glyph-name="uni0448" unicode="&#x448;" horiz-adv-x="1634" 
d="M1605 885q21 0 16 -19l-227 -847q-5 -19 -25 -19h-1339q-21 0 -16 19l227 847q6 19 23 19h100q19 0 16 -19l-198 -739h483l198 739q4 19 22 19h101q19 0 14 -19l-198 -739h482l198 739q6 19 23 19h100z" />
    <glyph glyph-name="uni0449" unicode="&#x449;" horiz-adv-x="1669" 
d="M1605 885q21 0 16 -19l-198 -739h47q58 0 42 -58l-26 -99q-10 -31 -14 -69q-3 -24 -23 -24h-88q-36 0 -28 38l24 85h-1327q-21 0 -16 19l227 847q6 19 23 19h100q19 0 16 -19l-198 -739h483l198 739q4 19 22 19h101q19 0 14 -19l-198 -739h482l198 739q6 19 23 19h100z
" />
    <glyph glyph-name="uni044A" unicode="&#x44a;" horiz-adv-x="1053" 
d="M644 663q156 0 230 -67.5t74 -189.5q0 -177 -137.5 -291.5t-347.5 -114.5h-430q-19 0 -16 19l198 739h-111q-7 0 -11.5 6t-2.5 14l25 88q1 7 8 13t14 6h231q21 0 16 -19l-54 -203h314zM486 123q139 0 230 74.5t91 186.5q0 156 -210 156h-300l-113 -417h302z" />
    <glyph glyph-name="uni044B" unicode="&#x44b;" horiz-adv-x="1348" 
d="M639 663q156 0 229.5 -67.5t73.5 -189.5q0 -177 -136.5 -291.5t-347.5 -114.5h-430q-19 0 -14 19l226 847q8 19 24 19h99q20 0 15 -19l-53 -203h314zM1319 885q21 0 16 -19l-228 -852q-5 -14 -19 -14h-102q-21 0 -16 19l228 852q3 14 19 14h102zM481 123q139 0 230 74.5
t91 186.5q0 78 -50.5 117t-159.5 39h-300l-113 -417h302z" />
    <glyph glyph-name="uni044C" unicode="&#x44c;" horiz-adv-x="1050" 
d="M639 663q156 0 229.5 -67.5t73.5 -189.5q0 -177 -136.5 -291.5t-347.5 -114.5h-430q-19 0 -14 19l226 847q8 19 24 19h99q20 0 15 -19l-53 -203h314zM481 123q139 0 230 74.5t91 186.5q0 78 -50.5 117t-159.5 39h-300l-113 -417h302z" />
    <glyph glyph-name="uni044D" unicode="&#x44d;" horiz-adv-x="949" 
d="M533 897q159 0 257.5 -94.5t98.5 -252.5q0 -109 -48.5 -213t-128.5 -181t-188.5 -123.5t-221.5 -46.5q-205 0 -299 153q-11 16 4 29l64 56q15 13 30 -4q75 -114 217 -114q132 0 247 83.5t164 207.5h-424q-19 0 -15 21l12 49q8 19 26 19h424q3 24 3 47q0 111 -67.5 177
t-184.5 66q-148 0 -277 -116q-23 -17 -33 0l-33 59q-8 15 8 29q162 149 365 149z" />
    <glyph glyph-name="uni044E" unicode="&#x44e;" horiz-adv-x="1445" 
d="M1017 899q165 0 265 -95t100 -254q0 -146 -80.5 -276.5t-215.5 -209t-286 -78.5q-167 0 -267.5 94t-100.5 253q0 21 2 31h-188l-93 -352q-5 -14 -19 -14h-104q-8 0 -13 5t-3 14l227 853q4 13 19 13h104q8 0 13 -5t3 -14l-99 -373h177q58 173 215.5 290.5t343.5 117.5z
M814 106q85 0 166.5 37t141 96.5t95.5 138t36 157.5q0 110 -68 177t-184 67q-113 0 -215.5 -62t-163 -161t-60.5 -205q0 -111 67.5 -178t184.5 -67z" />
    <glyph glyph-name="uni044F" unicode="&#x44f;" horiz-adv-x="997" 
d="M989 885q19 0 16 -19l-227 -847q-5 -19 -25 -19h-99q-20 0 -15 19l54 203h-275l-241 -208q-16 -14 -29 -14h-127q-7 0 -9 5.5t4 10.5l255 217q-196 43 -196 246q0 177 137 291.5t347 114.5h430zM425 345h300l113 417h-302q-140 0 -230.5 -74t-90.5 -186q0 -157 210 -157z
" />
    <glyph glyph-name="uni0451" unicode="&#x451;" horiz-adv-x="982" 
d="M517 1220q-31 0 -52.5 22.5t-21.5 52.5t21.5 51.5t52.5 21.5t52 -21.5t21 -51.5q0 -31 -21 -53t-52 -22zM935 1368q31 0 53 -21.5t22 -51.5t-22 -52.5t-53 -22.5q-30 0 -51 22.5t-21 52.5q0 31 21 52t51 21zM611 897q183 0 269.5 -114.5t53.5 -287.5q-8 -104 -118 -104
h-639q-2 -14 -2 -40q0 -109 63 -180.5t196 -71.5q164 0 305 121q24 10 33 -8l25 -45q12 -17 -6 -33q-166 -148 -380 -148q-170 0 -268 93t-98 251q0 108 45 211.5t120.5 181.5t181 126t219.5 48zM597 781q-134 0 -242.5 -83.5t-154.5 -208.5h614q7 42 7.5 83t-14.5 79
t-40 67t-69 46t-101 17z" />
    <glyph glyph-name="uni0453" unicode="&#x453;" horiz-adv-x="909" 
d="M953 1324q10 -17 -7 -26l-373 -224q-17 -10 -25 7l-38 59q-8 14 5 23l361 250q7 5 15 5t12 -7zM920 885q22 0 14 -21l-25 -95q-4 -19 -27 -16q-58 5 -70 5h-461l-200 -739q-4 -19 -23 -19h-100q-19 0 -14 19l226 847q8 19 26 19h654z" />
    <glyph glyph-name="uni0454" unicode="&#x454;" horiz-adv-x="951" 
d="M935 738q13 -22 -1 -32l-70 -43q-18 -10 -33 5q-66 111 -204 111q-136 0 -251.5 -84.5t-162.5 -208.5h427q22 0 14 -21l-12 -47q-4 -21 -26 -21h-425q0 -7 -1 -20.5t-1 -20.5q0 -111 70 -180.5t189 -69.5q147 0 279 116q22 14 31 -3l35 -65q13 -15 -7 -29
q-161 -139 -356 -139q-164 0 -265 95t-101 254q0 144 81 274.5t214.5 209t280.5 78.5q107 0 182 -44t113 -115z" />
    <glyph glyph-name="uni0456" unicode="&#x456;" horiz-adv-x="371" 
d="M420 1232q-32 0 -54 22.5t-22 54.5q0 31 22 52.5t54 21.5t53.5 -21.5t21.5 -52.5q0 -32 -22 -54.5t-53 -22.5zM17 0q-20 0 -15 19l227 852q3 14 19 14h103q20 0 15 -19l-227 -852q-5 -14 -19 -14h-103z" />
    <glyph glyph-name="uni0457" unicode="&#x457;" horiz-adv-x="600" 
d="M278 1220q-30 0 -51.5 22.5t-21.5 52.5t21.5 51.5t51.5 21.5q31 0 52.5 -21.5t21.5 -51.5t-21.5 -52.5t-52.5 -22.5zM698 1220q-31 0 -53 22.5t-22 52.5q0 31 21.5 52t53.5 21q30 0 51.5 -21.5t21.5 -51.5t-21.5 -52.5t-51.5 -22.5zM115 0q-21 0 -16 19l227 852
q3 14 19 14h103q20 0 15 -19l-227 -852q-5 -14 -19 -14h-102z" />
    <glyph glyph-name="uni0458" unicode="&#x458;" horiz-adv-x="361" 
d="M408 1232q-32 0 -54.5 22.5t-22.5 54.5q0 31 22.5 52.5t54.5 21.5t53 -21.5t21 -52.5q0 -32 -21.5 -54.5t-52.5 -22.5zM-135 -384q-27 -8 -32 16l-26 99q-5 25 16 29q59 21 94 55.5t52 99.5l255 956q5 14 19 14h102q21 0 16 -19l-255 -953q-33 -125 -84.5 -190.5
t-156.5 -106.5z" />
    <glyph glyph-name="uni045C" unicode="&#x45c;" horiz-adv-x="982" 
d="M434 1055l-37 59q-10 13 4 23l361 250q16 13 28 -2l48 -87q12 -16 -5 -26l-375 -224q-16 -9 -24 7zM918 885q13 0 15.5 -9.5t-11.5 -18.5l-584 -416l400 -410q9 -11 3.5 -21t-19.5 -10h-115q-14 0 -26 12l-371 394l-102 -385q-5 -21 -25 -21h-97q-20 0 -16 21l207 770
q10 32 14 72q3 22 22 22h106q8 0 12 -5t2 -14l-102 -387l536 392q16 14 33 14h118z" />
    <glyph glyph-name="uni045D" unicode="&#x45d;" horiz-adv-x="1055" 
d="M411 1296l373 -223q17 -7 25 7l38 59q7 14 -5 22l-361 250q-18 14 -26 -2l-51 -85q-11 -19 7 -28zM1048 885q16 0 11 -14l-229 -855q-4 -16 -19 -16h-103q-7 0 -11.5 5t-2.5 11l177 663l-769 -663q-21 -16 -33 -16h-60q-18 0 -14 16l231 854q3 15 17 15h106q15 0 12 -15
l-180 -670l768 668q19 17 28 17h71z" />
    <glyph glyph-name="uni045E" unicode="&#x45e;" horiz-adv-x="949" 
d="M555 1036q-140 0 -212.5 82.5t-38.5 207.5q5 28 24 28h61q15 0 12 -25q-23 -92 28 -144t139 -52q86 0 162.5 51.5t106.5 144.5q11 25 27 25h65q20 0 8 -28q-41 -132 -144.5 -211t-237.5 -79zM78 -347q-10 0 -13 6.5t3 14.5l225 335l-137 859q-3 17 16 17h97q16 0 19 -17
l109 -700h6l479 705q7 12 21 12h105q10 0 14 -6.5t-1 -14.5l-821 -1199q-7 -12 -23 -12h-99z" />
    <glyph glyph-name="uni0490" unicode="&#x490;" horiz-adv-x="1115" 
d="M1286 1477q11 0 14 -9.5t-4 -23.5q-14 -44 -20 -69l-30 -111q-8 -40 -61 -40h-704l-323 -1207q-5 -17 -24 -17h-101q-22 0 -17 23l350 1313q5 18 25 18h739l22 88q5 20 13.5 27.5t26.5 7.5h94z" />
    <glyph glyph-name="uni0491" unicode="&#x491;" horiz-adv-x="932" 
d="M977 1008q24 0 14 -24q-14 -36 -24 -69l-25 -99q-7 -27 -26.5 -42.5t-47.5 -15.5h-519l-198 -739q-4 -19 -23 -19h-100q-19 0 -14 19l226 847q8 19 26 19h553l23 87q11 36 47 36h88z" />
    <glyph glyph-name="uni04C0" unicode="&#x4c0;" horiz-adv-x="399" 
d="M33 0q-22 0 -17 23l350 1313q5 18 25 18h100q24 0 19 -23l-352 -1314q-5 -17 -24 -17h-101z" />
    <glyph glyph-name="uni04E2" unicode="&#x4e2;" horiz-adv-x="1876" 
d="M880 1743q7 19 26 19h555q20 0 16 -19l-21 -79q-7 -20 -26 -20h-555q-20 0 -16 20zM391 1354h105q18 0 14 -19l-295 -1102l1130 1103q18 18 37 18h118q17 0 12 -19l-353 -1316q-5 -19 -26 -19h-106q-18 0 -12 19l299 1114l-1133 -1116q-17 -17 -39 -17h-118q-15 0 -10 19
l352 1316q5 19 25 19z" />
    <glyph glyph-name="uni04E3" unicode="&#x4e3;" horiz-adv-x="1055" 
d="M467 1319q5 21 24 21h556q19 0 15 -19l-21 -78q-5 -21 -26 -21h-555q-9 0 -13.5 5t-0.5 14zM1048 885q16 0 11 -14l-229 -855q-4 -16 -19 -16h-103q-7 0 -11.5 5t-2.5 11l177 663l-769 -663q-21 -16 -33 -16h-60q-18 0 -14 16l231 854q3 15 17 15h106q15 0 12 -15
l-180 -670l768 668q19 17 28 17h71z" />
    <glyph glyph-name="uni04EC" unicode="&#x4ec;" horiz-adv-x="1369" 
d="M771 1689q-30 0 -51.5 22t-21.5 52t21.5 51.5t51.5 21.5q31 0 52.5 -21.5t21.5 -51.5t-21.5 -52t-52.5 -22zM1191 1689q-30 0 -51.5 22t-21.5 52q0 31 21.5 52t51.5 21q31 0 52.5 -21.5t21.5 -51.5t-21.5 -52t-52.5 -22zM833 1366q249 0 398 -143t149 -380
q0 -166 -76.5 -324t-201 -274t-291.5 -186.5t-341 -70.5q-148 0 -263.5 51t-185.5 148q-15 18 3 32l92 67q15 14 30 -3q117 -158 343 -158t422 141t276 347h-614q-21 0 -16 19l24 90q3 19 26 19h615q7 39 7 85q0 178 -112 289.5t-319 111.5q-232 0 -442 -163q-19 -14 -28 -2
l-59 71q-12 14 7 30q125 99 268.5 151t288.5 52z" />
    <glyph glyph-name="uni04ED" unicode="&#x4ed;" horiz-adv-x="949" 
d="M472 1220q-30 0 -51.5 22.5t-21.5 52.5t21.5 51.5t51.5 21.5q31 0 53 -21.5t22 -51.5t-22 -52.5t-53 -22.5zM892 1368q30 0 51.5 -21.5t21.5 -51.5t-21.5 -52.5t-51.5 -22.5q-31 0 -53 22.5t-22 52.5q0 31 21.5 52t53.5 21zM533 897q159 0 257.5 -94.5t98.5 -252.5
q0 -109 -48.5 -213t-128.5 -181t-188.5 -123.5t-221.5 -46.5q-205 0 -299 153q-11 16 4 29l64 56q15 13 30 -4q75 -114 217 -114q132 0 247 83.5t164 207.5h-424q-19 0 -15 21l12 49q8 19 26 19h424q3 24 3 47q0 111 -67.5 177t-184.5 66q-148 0 -277 -116q-23 -17 -33 0
l-33 59q-8 15 8 29q162 149 365 149z" />
    <glyph glyph-name="uni04EE" unicode="&#x4ee;" horiz-adv-x="1260" 
d="M686 1690q-21 0 -16 20l21 78q4 20 26 20h553q23 0 16 -19l-21 -78q-5 -21 -26 -21h-553zM1446 1354q31 0 5 -30l-1187 -1308q-13 -16 -28 -16h-108q-16 0 -19 11t9 24l456 505l-291 784q-4 12 1 21t20 9h104q22 0 26 -19l250 -674l609 674q16 19 40 19h113z" />
    <glyph glyph-name="uni04EF" unicode="&#x4ef;" horiz-adv-x="949" 
d="M378 1319q4 21 25 21h555q20 0 16 -19l-21 -78q-4 -21 -26 -21h-556q-21 0 -13 19zM78 -347q-10 0 -13 6.5t3 14.5l225 335l-137 859q-3 17 16 17h97q16 0 19 -17l109 -700h6l479 705q7 12 21 12h105q10 0 14 -6.5t-1 -14.5l-821 -1199q-7 -12 -23 -12h-99z" />
    <glyph glyph-name="uni1E3E" unicode="&#x1e3e;" horiz-adv-x="1739" 
d="M1451 1767q17 9 7 26l-50 87q-8 15 -26 1l-361 -250q-13 -9 -6 -22l39 -59q8 -16 24 -7zM33 0q-11 0 -16 6.5t-1 16.5l350 1313q5 18 25 18h97q17 0 22 -18l299 -1098l888 1104q9 12 26 12h108q22 0 17 -23l-352 -1314q-3 -17 -22 -17h-103q-11 0 -16 6.5t-1 16.5
l284 1057l-841 -1050q-14 -20 -30 -20h-14q-14 0 -19 21l-291 1047l-285 -1061q-5 -17 -24 -17h-101z" />
    <glyph glyph-name="uni1E3F" unicode="&#x1e3f;" horiz-adv-x="1621" 
d="M783 1073l-37 59q-8 14 4 22l361 250q7 5 15.5 5t12.5 -7l50 -86q10 -17 -7 -26l-373 -224q-15 -9 -26 7zM1307 897q142 0 212 -87t29 -239l-104 -389q-10 -39 -17 -88t-12 -68q-2 -26 -37 -26h-68q-22 0 -32.5 17t-5.5 39l134 494q28 104 -13.5 164t-148.5 60
q-177 0 -322 -170q-5 -25 -7 -33l-104 -389q-10 -39 -17.5 -88t-12.5 -68q-2 -26 -36 -26h-68q-22 0 -32.5 17t-5.5 39l133 494q28 104 -13 164t-148 60q-178 0 -321 -168l-158 -592q-5 -14 -19 -14h-103q-20 0 -15 19l227 852q3 14 19 14h103q20 0 15 -19l-33 -125
q162 156 347 156q105 0 173 -49t81 -140q174 189 380 189z" />
    <glyph glyph-name="Wgrave" unicode="&#x1e80;" horiz-adv-x="2039" 
d="M1104 1767l373 -224q15 -9 26 7l36 59q8 14 -3 22l-361 250q-20 14 -28 -1l-50 -87q-10 -17 7 -26zM371 0q-20 0 -20 21l-70 1312q-3 21 21 21h104q21 0 21 -21l49 -1109l704 1116q7 14 25 14h105q23 0 23 -21l104 -1109l647 1116q8 14 25 14h113q12 0 15.5 -8t-2.5 -18
l-770 -1314q-8 -14 -24 -14h-87q-23 0 -23 21l-113 1147l-736 -1154q-7 -14 -24 -14h-87z" />
    <glyph glyph-name="wgrave" unicode="&#x1e81;" horiz-adv-x="1348" 
d="M633 1298l374 -224q16 -9 24 7l38 59q8 14 -5 23l-361 250q-7 5 -14.5 5t-11.5 -7l-50 -87q-10 -18 6 -26zM210 0q-17 0 -17 17l-39 851q0 17 18 17h94q17 0 17 -17l21 -696h3l410 701q7 12 21 12h99q14 0 17 -17l24 -696h5l405 701q4 12 21 12h99q10 0 13.5 -6t-1.5 -15
l-504 -852q-4 -12 -20 -12h-103q-17 0 -17 17l-28 696l-415 -703q-4 -10 -21 -10h-102z" />
    <glyph glyph-name="Wacute" unicode="&#x1e82;" horiz-adv-x="2039" 
d="M1612 1767q17 9 7 26l-50 87q-8 15 -26 1l-361 -250q-12 -9 -5 -22l38 -59q8 -16 24 -7zM371 0q-20 0 -20 21l-70 1312q-3 21 21 21h104q21 0 21 -21l49 -1109l704 1116q7 14 25 14h105q23 0 23 -21l104 -1109l647 1116q8 14 25 14h113q12 0 15.5 -8t-2.5 -18l-770 -1314
q-8 -14 -24 -14h-87q-23 0 -23 21l-113 1147l-736 -1154q-7 -14 -24 -14h-87z" />
    <glyph glyph-name="wacute" unicode="&#x1e83;" horiz-adv-x="1348" 
d="M1142 1298q17 9 7 26l-50 87q-4 7 -12.5 7t-15.5 -5l-361 -250q-12 -9 -4 -23l37 -59q11 -16 26 -7zM210 0q-17 0 -17 17l-39 851q0 17 18 17h94q17 0 17 -17l21 -696h3l410 701q7 12 21 12h99q14 0 17 -17l24 -696h5l405 701q4 12 21 12h99q10 0 13.5 -6t-1.5 -15
l-504 -852q-4 -12 -20 -12h-103q-17 0 -17 17l-28 696l-415 -703q-4 -10 -21 -10h-102z" />
    <glyph glyph-name="Wdieresis" unicode="&#x1e84;" horiz-adv-x="2039" 
d="M1168 1689q-30 0 -51.5 22t-21.5 52t21.5 51.5t51.5 21.5q31 0 53 -21.5t22 -51.5t-22 -52t-53 -22zM1588 1689q-30 0 -51.5 22t-21.5 52q0 31 21.5 52t51.5 21q31 0 53 -21.5t22 -51.5t-22 -52t-53 -22zM371 0q-20 0 -20 21l-70 1312q-3 21 21 21h104q21 0 21 -21
l49 -1109l704 1116q7 14 25 14h105q23 0 23 -21l104 -1109l647 1116q8 14 25 14h113q12 0 15.5 -8t-2.5 -18l-770 -1314q-8 -14 -24 -14h-87q-23 0 -23 21l-113 1147l-736 -1154q-7 -14 -24 -14h-87z" />
    <glyph glyph-name="wdieresis" unicode="&#x1e85;" horiz-adv-x="1348" 
d="M698 1220q-30 0 -51.5 22.5t-21.5 52.5t21.5 51.5t51.5 21.5q31 0 52.5 -21.5t21.5 -51.5t-21.5 -52.5t-52.5 -22.5zM1118 1220q-31 0 -53 22.5t-22 52.5q0 31 21.5 52t53.5 21q30 0 51.5 -21.5t21.5 -51.5t-21.5 -52.5t-51.5 -22.5zM210 0q-17 0 -17 17l-39 851
q0 17 18 17h94q17 0 17 -17l21 -696h3l410 701q7 12 21 12h99q14 0 17 -17l24 -696h5l405 701q4 12 21 12h99q10 0 13.5 -6t-1.5 -15l-504 -852q-4 -12 -20 -12h-103q-17 0 -17 17l-28 696l-415 -703q-4 -10 -21 -10h-102z" />
    <glyph glyph-name="Ygrave" unicode="&#x1ef2;" horiz-adv-x="1249" 
d="M706 1767q-17 10 -5 26l49 87q11 14 28 1l361 -250q13 -9 3 -22l-36 -59q-8 -17 -25 -7zM1430 1354q14 0 17.5 -8t-5.5 -18l-723 -792l-138 -519q-5 -17 -24 -17h-101q-22 0 -17 23l137 515l-293 791q-4 11 1 18t15 7h109q18 0 22 -18l250 -663l610 670q11 11 26 11h114z
" />
    <glyph glyph-name="ygrave" unicode="&#x1ef3;" horiz-adv-x="949" 
d="M434 1298l375 -224q16 -9 24 7l37 59q10 13 -4 23l-361 250q-16 13 -28 -2l-48 -87q-12 -16 5 -26zM78 -347q-10 0 -13 6.5t3 14.5l225 335l-137 859q-3 17 16 17h97q16 0 19 -17l109 -700h6l479 705q7 12 21 12h105q10 0 14 -6.5t-1 -14.5l-821 -1199q-7 -12 -23 -12
h-99z" />
    <glyph glyph-name="endash" unicode="&#x2013;" horiz-adv-x="1135" 
d="M1034 399q0 -21 -20 -21h-896q-21 0 -21 21v78q0 19 21 19h896q20 0 20 -19v-78z" />
    <glyph glyph-name="emdash" unicode="&#x2014;" horiz-adv-x="1586" 
d="M1486 399q0 -21 -21 -21h-1347q-21 0 -21 21v78q0 19 21 19h1347q21 0 21 -19v-78z" />
    <glyph glyph-name="quoteleft" unicode="&#x2018;" horiz-adv-x="367" 
d="M450 1369q11 3 14.5 1.5t7.5 -9.5l10 -16q7 -14 -8 -21q-71 -48 -99 -100q1 0 6 0.5t10 0.5q31 0 53.5 -23t22.5 -58q0 -42 -32.5 -72.5t-73.5 -30.5q-38 0 -62.5 23t-24.5 64q0 63 55 133.5t121 107.5z" />
    <glyph glyph-name="quoteright" unicode="&#x2019;" horiz-adv-x="367" 
d="M326 1040q-11 -7 -22 7l-9 17q-8 12 9 21q71 48 99 100q-2 -1 -18 -1q-29 0 -51.5 23.5t-22.5 57.5q0 42 32 72.5t74 30.5q36 0 60.5 -24t24.5 -65q0 -63 -55 -132.5t-121 -106.5z" />
    <glyph glyph-name="quotesinglbase" unicode="&#x201a;" horiz-adv-x="367" 
d="M5 -161q-7 -3 -11 -3t-6 2t-5 8l-11 15q-5 13 9 23q69 43 99 100q-2 -1 -16 -1q-31 0 -53.5 23t-22.5 56q0 43 32 73t74 30q38 0 62.5 -23t24.5 -64q0 -63 -55.5 -133.5t-120.5 -105.5z" />
    <glyph glyph-name="quotedblleft" unicode="&#x201c;" horiz-adv-x="635" 
d="M450 1368q11 4 14.5 2.5t7.5 -9.5l10 -18q5 -11 -8 -20q-70 -47 -99 -101q3 2 16 2q31 0 53.5 -23.5t22.5 -58.5q0 -42 -32.5 -72t-73.5 -30q-38 0 -62.5 23.5t-24.5 64.5q0 63 55 133t121 107zM717 1368q13 8 21 -7l10 -18q5 -10 -9 -20q-71 -47 -99 -101q5 2 18 2
q29 0 51.5 -24t22.5 -58q0 -42 -31.5 -72t-73.5 -30q-37 0 -61 23.5t-24 64.5q0 63 55 133t120 107z" />
    <glyph glyph-name="quotedblright" unicode="&#x201d;" horiz-adv-x="633" 
d="M326 1040q-11 -7 -22 7l-9 17q-8 12 9 21q71 48 99 100q-2 -1 -18 -1q-29 0 -51.5 23.5t-22.5 57.5q0 42 32 72.5t74 30.5q36 0 60.5 -24t24.5 -65q0 -63 -55 -132.5t-121 -106.5zM592 1040q-13 -8 -21 7l-10 17q-6 11 8 21q71 48 99 100q-2 -1 -17 -1q-29 0 -52 23.5
t-23 57.5q0 42 32 72.5t74 30.5q36 0 60.5 -24t24.5 -65q0 -63 -54.5 -132.5t-120.5 -106.5z" />
    <glyph glyph-name="quotedblbase" unicode="&#x201e;" horiz-adv-x="635" 
d="M5 -161q-7 -3 -11 -3t-6 2t-5 8l-11 15q-5 13 9 23q69 43 99 100q-2 -1 -16 -1q-31 0 -53.5 23t-22.5 56q0 43 32 73t74 30q38 0 62.5 -23t24.5 -64q0 -63 -55.5 -133.5t-120.5 -105.5zM271 -161q-6 -3 -10 -3t-6.5 2t-6.5 8l-8 15q-8 14 8 23q69 43 99 100q-3 -1 -17 -1
q-29 0 -52 23t-23 56q0 43 31.5 73t74.5 30q37 0 61 -23t24 -64q0 -63 -55 -133.5t-120 -105.5z" />
    <glyph glyph-name="dagger" unicode="&#x2020;" horiz-adv-x="683" 
d="M696 885q8 0 12 -5t2 -14l-28 -104q-3 -14 -19 -14h-172l-300 -1081q-5 -14 -19 -14h-82q-18 0 -15 19l281 1076h-167q-20 0 -15 19l27 104q5 14 19 14h172l129 490q4 13 19 13h107q21 0 16 -20l-134 -483h167z" />
    <glyph glyph-name="daggerdbl" unicode="&#x2021;" horiz-adv-x="683" 
d="M703 915q19 0 14 -21l-24 -92q-3 -14 -20 -14h-171l-68 -245h170q19 0 14 -19l-24 -92q-3 -15 -20 -15h-177l-208 -750q-3 -14 -17 -14h-82q-20 0 -15 19l194 745h-168q-21 0 -16 20l24 92q5 14 19 14h176l62 245h-166q-21 0 -16 19l24 92q5 16 19 16h174l120 460
q3 13 17 13h109q21 0 16 -20l-127 -453h167z" />
    <glyph glyph-name="bullet" unicode="&#x2022;" horiz-adv-x="479" 
d="M245 312q-61 0 -104.5 43t-43.5 105q0 60 43.5 103t104.5 43t103.5 -43t42.5 -103q0 -62 -42.5 -105t-103.5 -43z" />
    <glyph glyph-name="ellipsis" unicode="&#x2026;" horiz-adv-x="958" 
d="M80 -14q-37 0 -63 26.5t-26 63.5t26 63t63 26t63.5 -26t26.5 -63t-26.5 -63.5t-63.5 -26.5zM380 -14q-37 0 -62.5 26t-25.5 64q0 37 25.5 63t62.5 26t63.5 -26t26.5 -63t-26.5 -63.5t-63.5 -26.5zM680 -14q-37 0 -62.5 26t-25.5 64q0 37 25.5 63t62.5 26t64 -26t27 -63
t-27 -63.5t-64 -26.5z" />
    <glyph glyph-name="perthousand" unicode="&#x2030;" horiz-adv-x="1678" 
d="M427 946q-82 0 -133 50.5t-51 128.5q0 109 86 190.5t190 81.5q82 0 133 -50.5t51 -128.5q0 -105 -85.5 -188.5t-190.5 -83.5zM-40 0l1222 1388h135l-1223 -1388h-134zM434 1038q70 0 124.5 52.5t54.5 119.5q0 42 -28.5 68.5t-74.5 26.5q-70 0 -123.5 -52.5t-53.5 -119.5
q0 -43 27.5 -69t73.5 -26zM757 -9q-82 0 -133 50.5t-51 128.5q0 109 86 191t190 82q82 0 133 -50.5t51 -128.5q0 -105 -85.5 -189t-190.5 -84zM1293 -9q-81 0 -131.5 51t-50.5 128q0 109 86 191t190 82q82 0 133 -50.5t51 -128.5q0 -105 -86 -189t-192 -84zM764 83
q70 0 124 52.5t54 119.5q0 42 -28.5 69t-73.5 27q-70 0 -123.5 -52.5t-53.5 -119.5q0 -43 27.5 -69.5t73.5 -26.5zM1302 83q69 0 123.5 52.5t54.5 119.5q0 42 -29 69t-75 27q-70 0 -123.5 -52.5t-53.5 -119.5q0 -43 28.5 -69.5t74.5 -26.5z" />
    <glyph glyph-name="guilsinglleft" unicode="&#x2039;" horiz-adv-x="581" 
d="M78 378l175 -345q5 -14 18 -14h92q26 0 21 30l-150 348v2l339 349q9 13 8 21.5t-13 8.5h-92q-18 0 -30 -16l-357 -337q-9 -9 -12.5 -22.5t1.5 -24.5z" />
    <glyph glyph-name="guilsinglright" unicode="&#x203a;" horiz-adv-x="583" 
d="M481 418l-176 346q-5 14 -17 14h-92q-26 0 -21 -30l150 -349v-2l-339 -348q-9 -13 -8 -21.5t13 -8.5h92q18 0 30 16l357 336q9 9 12.5 22.5t-1.5 24.5z" />
    <glyph glyph-name="fraction" unicode="&#x2044;" horiz-adv-x="378" 
d="M762 1369q16 19 31 19h35q30 0 12 -24l-1092 -1345q-2 -2 -5 -6t-4.5 -5.5l-3.5 -3.5t-4 -2.5t-5 -1t-7 -0.5h-35q-13 0 -16 7t6 19z" />
    <glyph glyph-name="Euro" unicode="&#x20ac;" horiz-adv-x="1388" 
d="M1479 1158q10 -14 11 -21t-8 -16l-83 -52q-16 -14 -35 9q-126 149 -340 149q-191 0 -365 -102t-277 -264h529q19 0 14 -21l-16 -56q-4 -15 -20 -15h-558q-37 -83 -48 -186h554q20 0 15 -21l-17 -55q-3 -14 -21 -14h-531q13 -161 124 -263.5t308 -102.5q133 0 244.5 46.5
t187.5 109.5q24 21 40 2l57 -75q14 -14 -15 -36q-243 -186 -533 -186q-250 0 -401 138t-158 367h-85q-21 0 -16 19l16 56q5 15 21 15h68q10 90 43 186h-56q-20 0 -15 21l14 55q3 16 19 16h80q114 220 336.5 362.5t471.5 142.5q148 0 265 -55.5t180 -152.5z" />
    <glyph glyph-name="trademark" unicode="&#x2122;" horiz-adv-x="1228" 
d="M712 1354q16 0 12 -18l-11 -41q-5 -18 -22 -18h-143l-105 -392q-4 -17 -21 -17h-42q-18 0 -14 17l106 392h-144q-16 0 -12 18l10 41q4 18 23 18h363zM1371 1354q17 0 12 -16l-121 -453q-4 -17 -23 -17h-40q-18 0 -14 17l91 333l-273 -331q-11 -14 -22 -14h-23
q-13 0 -16 14l-97 330l-88 -332q-4 -17 -23 -17h-38q-20 0 -16 17l122 453q5 16 22 16h47q14 0 18 -14l104 -354l295 356q9 12 26 12h57z" />
    <glyph glyph-name="oneeighth" unicode="&#x215b;" horiz-adv-x="1298" 
d="M989 1369q12 19 26 19h35q28 0 17 -24l-729 -1345q-1 -2 -3 -5t-2.5 -4t-2 -3t-2.5 -2.5t-3 -2t-3.5 -1.5t-4 -0.5t-5.5 -0.5h-34q-13 0 -17.5 7t1.5 19zM548 1388q16 0 11 -12l-156 -583q-3 -14 -19 -14h-44q-15 0 -12 14l113 424l-137 -52q-16 -4 -16 8l5 35
q0 13 14 17q63 25 111.5 68t67.5 82q12 13 23 13h39zM882 -12q-79 0 -122 35t-43 93q0 72 58.5 130.5t121.5 65.5l-5 2q-80 29 -80 113q0 82 68.5 141.5t169.5 59.5q73 0 115.5 -33.5t42.5 -94.5q0 -68 -47 -116.5t-109 -69.5l-5 -2q33 -3 62.5 -35t29.5 -84
q0 -86 -74.5 -145.5t-182.5 -59.5zM982 351q60 0 107.5 40.5t47.5 96.5q0 78 -104 78q-61 0 -106 -37t-45 -93q0 -37 27.5 -61t72.5 -24zM899 47q72 0 121 39t49 103q0 39 -27 62t-79 23q-72 0 -123.5 -42.5t-51.5 -103.5q0 -38 30.5 -59.5t80.5 -21.5z" />
    <glyph glyph-name="threeeighths" unicode="&#x215c;" horiz-adv-x="1282" 
d="M620 1000q0 -96 -79 -168t-183 -72q-123 0 -172 104q-3 12 5 18l42 31q10 6 15 -5q41 -84 123 -84q68 0 122.5 49.5t54.5 114.5q0 37 -18 60t-57.5 28.5t-101.5 -17.5l-24 41q-3 6 4 13l244 206h-258q-5 0 -8 3t-1 7l14 49q2 10 14 10h338q14 0 11 -12l-14 -50
q-1 -2 -18 -19l-213 -175q75 10 117.5 -28.5t42.5 -103.5zM1088 1388q28 0 18 -24l-731 -1345q-9 -19 -24 -19h-35q-28 0 -17 26l728 1343q9 19 27 19h34zM1210 500q0 -68 -47 -116.5t-109 -69.5l-6 -2q33 -3 62.5 -35t29.5 -84q0 -86 -74.5 -145.5t-182.5 -59.5
q-79 0 -121.5 34.5t-42.5 93.5q0 72 58.5 130.5t121.5 65.5l-5 2q-80 29 -80 113q0 82 68.5 141.5t169.5 59.5q73 0 115.5 -33.5t42.5 -94.5zM984 351q60 0 107.5 40.5t47.5 96.5q0 78 -105 78q-61 0 -106 -37t-45 -93q0 -37 28 -61t73 -24zM1071 189q0 39 -27 62t-79 23
q-72 0 -123.5 -42.5t-51.5 -103.5q0 -38 30.5 -59.5t80.5 -21.5q72 0 121 39t49 103z" />
    <glyph glyph-name="fiveeighths" unicode="&#x215d;" horiz-adv-x="1296" 
d="M616 1001q0 -98 -80.5 -171t-186.5 -73q-60 0 -104 27.5t-63 79.5l58 44q33 -87 123 -87q69 0 124 49.5t55 113.5q0 43 -27.5 69.5t-73.5 26.5q-59 0 -118 -51l-56 5q-13 0 -8 16l86 326q3 12 16 12h307q7 0 10.5 -3t1.5 -7l-14 -50q-4 -9 -15 -9h-250l-57 -215
q57 40 123 40q72 0 110.5 -39.5t38.5 -103.5zM1083 1388q27 0 17 -24l-729 -1345q-1 -2 -3 -5t-2.5 -4t-2 -3t-2.5 -2.5t-3 -2t-3.5 -1.5t-4 -0.5t-5.5 -0.5h-34q-13 0 -17.5 7t1.5 19l727 1343q12 19 26 19h35zM1224 500q0 -68 -47.5 -116.5t-109.5 -69.5l-7 -2
q34 -3 64 -35t30 -84q0 -86 -75 -145.5t-182 -59.5q-79 0 -122 35t-43 93q0 73 58.5 131t122.5 65l-7 2q-78 30 -78 113q0 82 68.5 141.5t169.5 59.5q72 0 115 -33.5t43 -94.5zM996 351q60 0 108 40.5t48 96.5q0 78 -104 78q-63 0 -107 -37t-44 -93q0 -37 27 -61t72 -24z
M1083 189q0 39 -26.5 62t-79.5 23q-71 0 -122 -42.5t-51 -103.5q0 -38 30 -59.5t79 -21.5q72 0 121 39t49 103z" />
    <glyph glyph-name="seveneighths" unicode="&#x215e;" horiz-adv-x="1244" 
d="M198 779q-11 0 -14.5 6t3.5 15l422 517h-293q-9 0 -9 9l12 50q3 12 14 12h387q9 0 5 -10l-3 -14q-2 -8 -9 -15l-456 -559q-8 -11 -21 -11h-38zM942 1369q10 19 26 19h35q29 0 16 -24l-729 -1345q-6 -12 -10 -15.5t-14 -3.5h-35q-13 0 -18 7t0 19zM845 -12q-79 0 -122 35
t-43 93q0 73 58.5 131t122.5 65l-7 2q-78 30 -78 113q0 82 68.5 141.5t169.5 59.5q72 0 115 -33.5t43 -94.5q0 -68 -47.5 -116.5t-109.5 -69.5l-7 -2q34 -3 64 -35t30 -84q0 -86 -75 -145.5t-182 -59.5zM944 351q60 0 108 40.5t48 96.5q0 78 -104 78q-63 0 -107 -37t-44 -93
q0 -37 27 -61t72 -24zM861 47q72 0 121 39t49 103q0 39 -26.5 62t-79.5 23q-71 0 -122 -42.5t-51 -103.5q0 -38 30 -59.5t79 -21.5z" />
    <glyph glyph-name="partialdiff" unicode="&#x2202;" horiz-adv-x="1062" 
d="M538 1354q135 -1 236.5 -40.5t163 -112t92 -168.5t30.5 -214q0 -122 -29 -243t-86.5 -227t-134.5 -188.5t-180.5 -130t-218.5 -47.5q-162 0 -258 91t-96 242q0 133 75.5 254.5t201.5 195.5t265 74q119 0 194 -61.5t89 -148.5q17 51 26 105.5t7.5 113.5t-14 113t-42.5 103
t-74.5 85.5t-113 57.5t-154.5 21zM432 109q74 0 149 35.5t130 90t89.5 123.5t34.5 133q0 93 -69.5 157t-175.5 64q-99 0 -191.5 -55.5t-148.5 -143.5t-56 -180q0 -98 67.5 -161t170.5 -63z" />
    <glyph glyph-name="emptyset" unicode="&#x2205;" horiz-adv-x="1541" 
d="M1571 1354q14 -14 -2 -28l-137 -137q118 -140 118 -346q0 -130 -47.5 -258t-133 -234t-195.5 -188.5t-244 -128.5t-270 -46q-195 0 -334 94l-132 -132q-14 -14 -27 0l-68 66q-14 15 0 29l128 129q-107 138 -107 336q0 162 74 319t195 274.5t284.5 190t333.5 72.5
q190 0 326 -89l142 143q15 14 28 1zM264 533q0 -144 73 -250l887 887q-99 59 -240 59q-138 0 -271.5 -59.5t-231 -156t-157.5 -224t-60 -256.5zM1404 823q0 152 -80 258l-888 -890q101 -64 248 -64q111 0 220 38t198 106t157.5 154.5t106.5 190t38 207.5z" />
    <glyph glyph-name="product" unicode="&#x220f;" horiz-adv-x="1301" 
d="M-10 0q-21 0 -16 19l354 1321q3 14 19 14h1090q21 0 16 -19l-354 -1321q-3 -14 -19 -14h-106q-8 0 -13 5t-3 14l323 1205h-844l-322 -1210q-5 -14 -20 -14h-105z" />
    <glyph glyph-name="summation" unicode="&#x2211;" horiz-adv-x="1188" 
d="M1326 1354q19 0 14 -19l-24 -96q-4 -15 -20 -15h-810l455 -505q8 -11 5 -26l-9 -40q-2 -11 -12 -21l-718 -502h791q19 0 14 -19l-24 -97q-5 -14 -20 -14h-977q-20 0 -15 19l22 94q2 7 14 19l778 547l-478 543q-10 10 -5 24l23 94q5 14 19 14h977z" />
    <glyph glyph-name="minus" unicode="&#x2212;" 
d="M148 595q-8 0 -12 5t-2 14l24 94q5 14 19 14h802q20 0 15 -19l-24 -94q-5 -14 -19 -14h-803z" />
    <glyph glyph-name="radical" unicode="&#x221a;" horiz-adv-x="1166" 
d="M418 201l809 1177q7 10 21 10h109q10 0 13.5 -6t-1.5 -14l-935 -1358q-4 -10 -21 -10h-73q-16 0 -19 16l-161 850q-3 19 15 19h101q16 0 19 -15z" />
    <glyph glyph-name="infinity" unicode="&#x221e;" horiz-adv-x="1574" 
d="M568 903q127 0 194.5 -73.5t63.5 -178.5h5q18 40 55 82.5t88.5 81.5t120.5 63.5t141 24.5q126 0 203.5 -71t77.5 -212q0 -96 -37 -189.5t-100 -166.5t-152.5 -118t-187.5 -45q-133 0 -209 77t-69 183h-5q-58 -103 -161 -180t-228 -77t-201.5 76.5t-76.5 213.5
q0 125 62.5 242t174 192t241.5 75zM392 226q110 0 198.5 83t115.5 206q28 115 -14.5 189.5t-148.5 74.5q-90 0 -167.5 -52.5t-120.5 -135.5t-43 -173q0 -93 49.5 -142.5t130.5 -49.5zM1060 224q93 0 171 54.5t120.5 137t42.5 169.5q0 95 -50 144.5t-134 49.5
q-109 0 -203 -75t-129 -209q-29 -115 21 -193t161 -78z" />
    <glyph glyph-name="integral" unicode="&#x222b;" horiz-adv-x="697" 
d="M958 1323q23 -23 9 -40l-49 -54q-12 -15 -29 -2q-57 45 -127 45q-36 0 -71 -10t-72.5 -33.5t-68.5 -70t-48 -110.5l-289 -1074q-42 -155 -143.5 -238t-237.5 -83q-126 0 -207 75q-23 23 -9 39l49 54q14 14 31 2q54 -45 125 -45q36 0 71.5 10t73 33.5t69 70t48.5 110.5
l288 1074q41 154 143 237.5t238 83.5q128 0 206 -74z" />
    <glyph glyph-name="approxequal" unicode="&#x2248;" horiz-adv-x="985" 
d="M934 833q14 14 22 -5l26 -57q5 -13 -5 -23q-133 -121 -257 -121q-47 0 -81.5 16t-54.5 39t-39.5 46t-48.5 39t-69 16t-82 -17t-66 -34t-57 -45q-7 -7 -14.5 -5t-9.5 11l-23 55q-5 15 4 24q39 34 71 57t84 44t102 21q47 0 81 -16.5t54 -39.5t39.5 -46t48.5 -39.5t68 -16.5
q32 0 61.5 8.5t59 26.5t44.5 29t42 33zM821 417q16 14 24 -6l25 -57q6 -14 -6 -23q-133 -121 -257 -121q-47 0 -81 16t-54 39t-39.5 46t-48.5 39t-68 16q-41 0 -83 -16.5t-66.5 -34t-57.5 -44.5q-15 -15 -24 5l-23 55q-5 14 6 25q39 34 70.5 56.5t83 43.5t101.5 21
q47 0 81 -16.5t54 -39.5t39.5 -46t48.5 -39.5t68 -16.5q32 0 61.5 8.5t59.5 27t44 29t42 33.5z" />
    <glyph glyph-name="notequal" unicode="&#x2260;" 
d="M1033 925q20 0 15 -19l-24 -94q-5 -14 -19 -14h-345l-162 -279h427q21 0 16 -19l-25 -94q-5 -14 -19 -14h-472l-218 -378q-7 -14 -25 -14h-88q-9 0 -10.5 6t3.5 13l215 373h-208q-8 0 -12 5t-2 14l24 94q5 14 19 14h252l161 279h-335q-8 0 -12 5t-2 14l25 94q5 14 19 14
h380l210 365q11 19 29 19h84q22 0 7 -23l-209 -361h301z" />
    <glyph glyph-name="lessequal" unicode="&#x2264;" horiz-adv-x="971" 
d="M207 882l-23 -73q-3 -13 10 -19l662 -382q16 -8 22 10l23 85q5 17 -5 21l-538 311l702 314q15 5 20 21l26 95q2 10 -2.5 13t-15.5 -2l-866 -377q-12 -5 -15 -17zM-7 0q-17 0 -12 19l22 85q3 12 16 12h741q8 0 12 -5t2 -12l-22 -85q-3 -14 -18 -14h-741z" />
    <glyph glyph-name="greaterequal" unicode="&#x2265;" horiz-adv-x="971" 
d="M982 805l21 75q3 15 -10 19l-660 382q-17 9 -22 -11l-25 -85q-5 -16 6 -22l539 -311l-703 -312q-15 -5 -19 -21l-27 -97q-4 -20 17 -11l866 379q14 4 17 15zM-12 0q-17 0 -14 19l23 85q4 12 17 12h741q17 0 14 -17l-23 -85q-5 -14 -17 -14h-741z" />
    <glyph glyph-name="lozenge" unicode="&#x25ca;" horiz-adv-x="1574" 
d="M1017 1371q25 21 40 0l489 -670q15 -21 -10 -41l-849 -670q-26 -21 -41 0l-492 670q-14 19 13 41zM998 1206l-675 -533l383 -519l676 535z" />
    <glyph glyph-name="W.ss01" horiz-adv-x="1962" 
d="M2147 1355q10 0 13 -7.5t-8 -23.5l-989 -1310q-19 -21 -30 -21h-20q-16 0 -20 21l-100 451l-342 -455q-13 -19 -28 -19h-21q-15 0 -21 19l-296 1313q-3 15 3 23t16 8h113q8 0 12 -6.5t8 -23.5l238 -1090l283 384l-158 706q-3 15 3 23t16 8h113q9 0 13 -6t8 -23l118 -555
l411 555q21 28 37 28h112q12 0 14.5 -7.5t-8.5 -23.5l-533 -709l81 -378l813 1092q20 27 36 27h113z" />
    <glyph glyph-name="i.loclTRK" horiz-adv-x="359" 
d="M406 1208q-32 0 -56 24t-24 56t24 56t56 24q33 0 56.5 -23.5t23.5 -56.5t-23.5 -56.5t-56.5 -23.5zM12 0q-8 0 -12.5 5t-2.5 14l227 852q5 14 19 14h104q8 0 13 -5t3 -14l-228 -852q-5 -14 -19 -14h-104z" />
    <glyph glyph-name="zero.osf" horiz-adv-x="1032" 
d="M396 -23q-158 0 -256 98t-98 250q0 107 51.5 211t134 181.5t190 125t215.5 47.5q158 0 255.5 -97t97.5 -248q0 -108 -51.5 -213t-133.5 -182t-190 -125t-215 -48zM427 115q78 0 155 35t135 90.5t94 129t36 147.5q0 104 -67.5 170t-177.5 66q-103 0 -200.5 -57
t-158.5 -150.5t-61 -193.5q0 -104 67.5 -170.5t177.5 -66.5z" />
    <glyph glyph-name="one.osf" horiz-adv-x="470" 
d="M366 870h104q21 0 16 -20l-224 -836q-3 -14 -19 -14h-106q-21 0 -16 19l160 594l-158 -39q-19 -3 -19 18l14 68q0 17 17 20q122 35 207 174q11 16 24 16z" />
    <glyph glyph-name="two.osf" horiz-adv-x="1006" 
d="M-7 0q-21 0 -16 19l20 75q5 16 15 19l481 205q58 25 90.5 40.5t80.5 44t73.5 54.5t45 64t19.5 81q0 69 -51 113.5t-159 44.5q-136 0 -230.5 -70.5t-130.5 -175.5q-7 -14 -21 -14h-101q-19 0 -14 21q25 71 68.5 132.5t107 114.5t154 83.5t196.5 30.5q165 0 245 -68.5
t80 -174.5q0 -212 -321 -351l-385 -173h584q8 0 12 -5.5t2 -14.5l-21 -81q-5 -14 -19 -14h-805z" />
    <glyph glyph-name="three.osf" horiz-adv-x="1043" 
d="M989 885q21 0 16 -19l-26 -102q-3 -11 -14 -19l-503 -407q25 11 59 11q155 0 238.5 -87.5t83.5 -226.5q0 -138 -80 -259t-212 -191.5t-279 -70.5q-134 0 -231.5 62t-139.5 181q-10 21 4 31l76 54q17 10 33 -16q70 -180 272 -180q112 0 209.5 54.5t154 143t56.5 186.5
q0 92 -52.5 152.5t-153.5 60.5q-85 0 -174 -38q-14 -4 -18.5 -1.5t-10.5 13.5l-31 71q-9 19 3 30l548 442h-564q-18 0 -13 19l24 92q5 14 19 14h706z" />
    <glyph glyph-name="four.osf" horiz-adv-x="1072" 
d="M849 -33q19 0 15 -21l-24 -92q-3 -14 -19 -14h-142l-78 -295q-3 -14 -20 -14h-90q-20 0 -15 19l78 290h-629q-18 0 -15 19l26 94q3 18 22 30q219 130 401.5 379t261.5 509q3 14 18 14h100q19 0 14 -21q-76 -265 -247 -508t-391 -394l472 3l46 176q4 14 16 17l101 26
q19 5 15 -17l-53 -202z" />
    <glyph glyph-name="five.osf" horiz-adv-x="1027" 
d="M510 394q149 0 234.5 -88t85.5 -233q0 -146 -76 -275t-205 -206.5t-277 -77.5q-130 0 -224.5 62.5t-141.5 178.5q-9 13 5 23l82 64q15 13 24 -5q71 -182 271 -182q164 0 281 118t117 274q0 95 -59.5 152.5t-159.5 57.5q-154 0 -288 -134l-113 38q-17 5 -12 23l184 687
q5 14 19 14h713q21 0 16 -19l-24 -94q-5 -14 -20 -14h-597l-130 -475q134 111 295 111z" />
    <glyph glyph-name="six.osf" horiz-adv-x="1069" 
d="M448 -17q-169 0 -262.5 108.5t-93.5 305.5q0 172 71 344t191 307.5t292.5 220.5t360.5 85q19 0 15 -21l-26 -92q-3 -16 -15 -16q-116 0 -224.5 -41t-190 -107t-147 -148.5t-104 -165t-51.5 -156.5q67 104 179 167.5t230 63.5q153 0 243.5 -88t90.5 -236
q0 -138 -78.5 -261.5t-207.5 -196.5t-273 -73zM462 111q99 0 192.5 52.5t152.5 141.5t59 186q0 98 -62 160t-167 62q-99 0 -192.5 -50.5t-152.5 -138t-59 -184.5q0 -99 62 -164t167 -65z" />
    <glyph glyph-name="seven.osf" horiz-adv-x="985" 
d="M1029 823q-3 -12 -15 -26l-925 -1255q-8 -11 -21 -11h-110q-22 0 -10 21l897 1206h-682q-20 0 -15 20l24 93q5 14 19 14h830q22 0 17 -24z" />
    <glyph glyph-name="eight.osf" horiz-adv-x="1018" 
d="M382 -17q-167 0 -259 76.5t-92 204.5q0 79 36 155.5t93.5 132.5t128.5 94.5t141 49.5l-13 2q-69 27 -118 87t-49 154q0 113 71 212t188 157t246 58q143 0 229.5 -72.5t86.5 -193.5q0 -132 -98.5 -244.5t-238.5 -156.5l-17 -3q37 -5 74 -23.5t70 -49.5t53.5 -82t20.5 -112
q0 -123 -76 -226t-203 -161.5t-274 -58.5zM594 769q133 0 236.5 90.5t103.5 207.5q0 82 -56 130.5t-153 48.5q-137 0 -240 -88t-103 -205q0 -83 58.5 -133.5t153.5 -50.5zM408 106q157 0 270 91t113 220q0 89 -61.5 143t-174.5 54q-154 0 -267 -96t-113 -226
q0 -93 64 -139.5t169 -46.5z" />
    <glyph glyph-name="nine.osf" horiz-adv-x="1069" 
d="M616 885q169 0 262.5 -109t93.5 -306q0 -114 -32 -231t-89 -222.5t-141 -198t-183.5 -159.5t-221 -106t-248.5 -39q-19 0 -15 21l26 92q5 15 15 15q116 0 225 41t190.5 107t147 148.5t104 165t52.5 156.5q-67 -104 -179 -167t-232 -63q-153 0 -242.5 88t-89.5 236
q0 139 78 262t206.5 196t272.5 73zM602 757q-99 0 -192.5 -52.5t-152.5 -141.5t-59 -186q0 -98 62 -160.5t167 -62.5q99 0 192.5 51t152.5 138t59 185q0 99 -61.5 164t-167.5 65z" />
    <glyph glyph-name="zero.tf" horiz-adv-x="1388" 
d="M576 -21q-187 0 -281 116.5t-94 321.5q0 168 55.5 337.5t150 305t234 221t294.5 85.5q188 0 281.5 -117t93.5 -322q0 -111 -25 -225.5t-69.5 -219.5t-111.5 -197t-146.5 -160t-178 -107t-203.5 -39zM590 108q124 0 235.5 76.5t185.5 196t117.5 263.5t43.5 281
q0 312 -249 312q-100 0 -192.5 -50t-161.5 -133.5t-121 -188.5t-79 -220.5t-27 -224.5q0 -312 248 -312z" />
    <glyph glyph-name="one.tf" horiz-adv-x="1388" 
d="M975 1354q21 0 16 -19l-354 -1321q-3 -14 -19 -14h-104q-8 0 -12 5t-2 14l298 1107q-25 -25 -84 -50.5t-84 -25.5q-29 0 -26 23l14 69q0 20 15 23q58 15 102 45.5t65 58t50 73.5q7 12 25 12h100z" />
    <glyph glyph-name="two.tf" horiz-adv-x="1388" 
d="M181 0q-21 0 -16 19l9 42l689 595q63 54 102.5 91.5t81 87.5t61.5 99.5t20 101.5q0 89 -59 142.5t-165 53.5q-192 0 -373 -205q-12 -14 -26 0l-57 68q-10 13 0 24q232 247 479 247q155 0 248.5 -81.5t93.5 -220.5q0 -208 -240 -418l-616 -519h604q21 0 16 -19l-25 -94
q-5 -14 -19 -14h-808z" />
    <glyph glyph-name="three.tf" horiz-adv-x="1388" 
d="M1288 1354q18 0 15 -19l-27 -103q-2 -12 -12 -19l-504 -406q23 10 59 10q156 0 239.5 -87.5t83.5 -226.5q0 -104 -48 -200.5t-126.5 -166t-183.5 -111.5t-215 -42q-133 0 -230 62t-141 181q-7 23 5 31l76 54q17 10 33 -16q32 -87 102.5 -133.5t170.5 -46.5q84 0 161.5 32
t133.5 85t89.5 123t33.5 143q0 92 -52.5 153t-152.5 61q-84 0 -173 -39q-21 -9 -30 13l-33 71q-8 16 6 29l546 443h-562q-19 0 -14 19l24 92q3 14 19 14h707z" />
    </font>
</defs>
</svg>
