<?xml version="1.0" standalone="no"?>
<!DOCTYPE svg PUBLIC "-//W3C//DTD SVG 1.1//EN" "http://www.w3.org/Graphics/SVG/1.1/DTD/svg11.dtd" >
<svg xmlns="http://www.w3.org/2000/svg" xmlns:xlink="http://www.w3.org/1999/xlink" version="1.1">
<metadata>
Created by FontForge 20170731 at Sat Dec 18 21:16:59 2021
 By Aleksey,,,
Copyright (c) 2018 by Connary Fagen. All rights reserved.
</metadata>
<defs>
<font id="VentiCF-ExtraBold" horiz-adv-x="1081" >
  <font-face 
    font-family="Venti CF Extra Bold"
    font-weight="800"
    font-stretch="normal"
    units-per-em="2048"
    panose-1="0 0 9 0 0 0 0 0 0 0"
    ascent="1638"
    descent="-410"
    x-height="885"
    cap-height="1354"
    bbox="-418 -721.818 2093 1951"
    underline-thickness="86"
    underline-position="-259"
    unicode-range="U+0020-FB01"
  />
<missing-glyph horiz-adv-x="867" 
d="M712 1388v-1735h-551v1735h551zM578 1272h-286v-57h112v-64h-114v-58h288v58h-115v64h115v57zM463 1048h-173v-180h288v59h-115v121zM404 989v-62h-57v62h57zM578 821h-288v-57h114v-65h-114v-57h173v122h115v57zM578 717h-57v-115h-231v-59h288v174zM578 505h-174v-97
h59v40h58v-82h-174v139h-57v-196h288v196zM578 205h-288v-196h288v196zM521 148v-82h-174v82h174zM578 -31h-288v-58h121l-121 -81v-57h288v57h-177l121 81h56v58z" />
    <glyph glyph-name="fi" unicode="fi" horiz-adv-x="1171" 
d="M1036 885q13 0 21.5 -9t8.5 -22v-823q0 -13 -8.5 -22t-21.5 -9h-222q-14 0 -22 9t-8 22v601h-324v-602q0 -30 -31 -30h-222q-30 0 -30 30v602h-101q-22 0 -22 22v207q0 24 22 24h101v169q0 163 96 253t248 90q75 0 145 -21t115 -57q23 -23 9 -49l-78 -137
q-13 -28 -42 -15q-47 27 -92 27q-47 0 -82.5 -30t-35.5 -96v-134h576z" />
    <glyph glyph-name="f_f" unicode="ff" horiz-adv-x="1350" 
d="M1387 1319q25 -21 10 -49l-80 -137q-13 -27 -40 -15q-47 27 -92 27q-48 0 -83.5 -30t-35.5 -96v-134h182q24 0 24 -24v-207q0 -22 -24 -22h-182v-602q0 -30 -30 -30h-222q-30 0 -30 30v602h-324v-602q0 -30 -31 -30h-222q-30 0 -30 30v602h-101q-22 0 -22 22v207
q0 24 22 24h101v142q0 180 106.5 279.5t282.5 99.5q173 0 298 -115q95 106 264 106q74 0 144.5 -21t114.5 -57zM784 885v169v27q-59 73 -147 73q-35 0 -64 -9.5t-56 -30.5t-42 -62.5t-15 -98.5v-68h324z" />
    <glyph glyph-name="f_f_i" unicode="ffi" horiz-adv-x="1778" 
d="M1644 885q13 0 21 -9t8 -22v-823q0 -13 -8 -22t-21 -9h-223q-14 0 -22.5 9t-8.5 22v601h-324v-602q0 -30 -30 -30h-222q-30 0 -30 30v602h-324v-602q0 -30 -31 -30h-222q-30 0 -30 30v602h-101q-22 0 -22 22v207q0 24 22 24h101v142q0 180 106.5 279.5t282.5 99.5
q173 0 298 -115q95 106 264 106q74 0 144.5 -21t114.5 -57q25 -21 10 -49l-80 -137q-13 -27 -40 -15q-47 27 -92 27q-48 0 -83.5 -30t-35.5 -96v-134h578zM784 885v169v27q-59 73 -147 73q-35 0 -64 -9.5t-56 -30.5t-42 -62.5t-15 -98.5v-68h324z" />
    <glyph glyph-name="f_j.liga" unicode="fj" horiz-adv-x="1166" 
d="M1059 854l1 -875q0 -147 -63 -234t-186 -142q-29 -12 -42 12l-111 203q-14 27 14 47q104 60 104 145v622h-316v-602q0 -30 -31 -30h-222q-30 0 -30 30v602h-101q-22 0 -22 22v207q0 24 22 24h101v169q0 163 96 253t248 90q75 0 145 -21t115 -57q23 -23 9 -49l-78 -137
q-13 -28 -42 -15q-47 27 -92 27q-47 0 -82.5 -30t-35.5 -96v-134h567q13 0 22.5 -9t9.5 -22z" />
    <glyph glyph-name=".notdef" horiz-adv-x="867" 
d="M712 1388v-1735h-551v1735h551zM578 1272h-286v-57h112v-64h-114v-58h288v58h-115v64h115v57zM463 1048h-173v-180h288v59h-115v121zM404 989v-62h-57v62h57zM578 821h-288v-57h114v-65h-114v-57h173v122h115v57zM578 717h-57v-115h-231v-59h288v174zM578 505h-174v-97
h59v40h58v-82h-174v139h-57v-196h288v196zM578 205h-288v-196h288v196zM521 148v-82h-174v82h174zM578 -31h-288v-58h121l-121 -81v-57h288v57h-177l121 81h56v58z" />
    <glyph glyph-name=".null" horiz-adv-x="0" 
 />
    <glyph glyph-name="nonmarkingreturn" horiz-adv-x="682" 
 />
    <glyph glyph-name="space" unicode=" " horiz-adv-x="416" 
 />
    <glyph glyph-name="exclam" unicode="!" horiz-adv-x="484" 
d="M368 1354q14 0 23.5 -10t9.5 -23v-28l-61 -712q-4 -31 -29 -31h-136q-28 0 -31 31l-61 712v28q0 13 9.5 23t23.5 10h252zM241 -14q-67 0 -114 48.5t-47 116.5q0 67 47 113.5t114 46.5t115 -47t48 -113q0 -68 -48 -116.5t-115 -48.5z" />
    <glyph glyph-name="quotedbl" unicode="&#x22;" horiz-adv-x="742" 
d="M83 871q-12 0 -21.5 9t-9.5 21v422q0 13 9 22t21 9h204q15 0 24.5 -9t7.5 -22l-42 -422q-4 -30 -31 -30h-162zM456 871q-13 0 -22 9t-9 21v422q0 13 8.5 22t21.5 9h205q14 0 23.5 -9t7.5 -22l-42 -422q-4 -30 -31 -30h-162z" />
    <glyph glyph-name="numbersign" unicode="#" horiz-adv-x="1145" 
d="M1055 1041q13 0 21.5 -8.5t8.5 -22.5v-191q0 -12 -8.5 -20.5t-21.5 -8.5h-154l-33 -226h121q13 0 21.5 -7.5t8.5 -21.5v-191q0 -12 -9 -22t-21 -10h-158l-41 -281q-2 -13 -11 -22t-21 -9h-175q-14 0 -23.5 9t-7.5 22l42 281h-146l-42 -281q-5 -31 -29 -31h-177
q-15 0 -24.5 9t-7.5 22l42 281h-118q-13 0 -22 9t-9 21v191q0 14 9 22.5t22 8.5h154l33 226h-121q-13 0 -22 8t-9 21v191q0 13 9 22t22 9h158l42 283q6 30 29 30h177q13 0 22.5 -9t8.5 -21l-41 -283h145l42 283q6 30 30 30h177q12 0 22 -9t9 -21l-42 -283h118zM630 564
l33 226h-146l-33 -226h146z" />
    <glyph glyph-name="dollar" unicode="$" horiz-adv-x="840" 
d="M771 517q0 -124 -92 -192.5t-235 -74.5l-41 -226q-1 -13 -11.5 -21t-23.5 -6l-139 26q-13 2 -19.5 12.5t-4.5 23.5l38 217q-94 26 -167 76q-22 13 -7 39l73 124q16 29 47 14q35 -19 104.5 -40.5t133.5 -21.5q37 0 60 13.5t23 36.5q0 29 -30 43.5t-126 43.5
q-132 39 -200.5 103t-68.5 164q-2 111 77.5 183t229.5 81l42 231q2 12 12 19.5t23 6.5l140 -26q12 -2 19 -13t5 -24l-39 -220q65 -23 121 -59q31 -18 17 -40l-83 -135q-14 -24 -43 -11q-33 17 -87 33t-101 16q-88 0 -88 -49q0 -24 26 -37t87 -30q3 -1 4 -1t3.5 -0.5t4 -1.5
t3.5 -1q163 -46 238 -109t75 -167z" />
    <glyph glyph-name="percent" unicode="%" horiz-adv-x="1293" 
d="M312 876q-108 0 -184 76.5t-76 184.5t76 184t184 76q109 0 185 -76t76 -184t-76 -184.5t-185 -76.5zM125 0q-14 0 -20 9t1 22l838 1337q7 13 14 16.5t21 3.5h189q14 0 21.5 -10.5t-0.5 -23.5l-835 -1333q-13 -21 -35 -21h-194zM312 1052q36 0 60.5 24.5t24.5 60.5
t-24.5 60.5t-60.5 24.5q-35 0 -60 -25t-25 -60t25 -60t60 -25zM981 -9q-108 0 -184.5 76.5t-76.5 184.5t76.5 184t184.5 76q109 0 184.5 -76t75.5 -184t-75.5 -184.5t-184.5 -76.5zM981 167q35 0 60 25t25 60t-25 60t-60 25t-60 -25t-25 -60t25 -60t60 -25z" />
    <glyph glyph-name="ampersand" unicode="&#x26;" horiz-adv-x="1334" 
d="M1211 236q39 -5 39 -36v-167q0 -33 -35 -33q-209 0 -345 149q-146 -149 -361 -149q-190 0 -314 104t-124 260q0 62 20 115t63.5 100t89.5 82.5t119 83.5l114 74q56 35 86.5 56.5t65.5 51.5t50 59.5t15 61.5q0 52 -36.5 88t-88.5 36q-56 0 -92 -34t-36 -90q0 -12 2 -23
t4.5 -18.5t8 -18t8 -14l10 -14t8.5 -11.5q15 -20 -36 -60t-134 -89q-42 51 -62 80.5t-37 76t-17 100.5q0 150 105.5 242.5t266.5 92.5q163 0 267 -93t104 -232q0 -102 -60.5 -185.5t-185.5 -166.5l-6 -3l191 -216q149 173 149 328q0 32 33 32h167q31 0 31 -33
q0 -247 -227 -495q87 -83 180 -92zM524 241q113 0 175 77l-222 246l-12 -9q-66 -41 -98 -78.5t-32 -87.5q0 -66 54 -107t135 -41z" />
    <glyph glyph-name="quotesingle" unicode="'" horiz-adv-x="369" 
d="M83 871q-12 0 -21.5 9t-9.5 21v422q0 13 9 22t21 9h204q15 0 24.5 -9t7.5 -22l-42 -422q-4 -30 -31 -30h-162z" />
    <glyph glyph-name="parenleft" unicode="(" horiz-adv-x="751" 
d="M653 -212q-141 0 -253.5 70.5t-183.5 194.5t-108 287.5t-37 355.5t37 356t108 288.5t183.5 195.5t253.5 71q27 0 27 -26v-222q0 -17 -6.5 -25t-24.5 -8q-76 0 -133 -49.5t-91 -138t-50.5 -199.5t-16.5 -243q0 -131 16.5 -241t50.5 -196t91 -134.5t133 -48.5
q18 0 24.5 -8.5t6.5 -25.5v-228q0 -26 -27 -26z" />
    <glyph glyph-name="parenright" unicode=")" horiz-adv-x="751" 
d="M101 -212q-30 0 -30 26v228q0 17 6.5 25.5t24.5 8.5q76 0 133 48.5t91 134.5t51 196t17 241q0 132 -17 243.5t-51 199.5t-91 137.5t-133 49.5q-18 0 -24.5 8t-6.5 25v222q0 26 28 26q142 0 254 -71t183 -195.5t107.5 -288.5t36.5 -356t-36.5 -355.5t-107 -287.5
t-182.5 -194.5t-253 -70.5z" />
    <glyph glyph-name="asterisk" unicode="*" horiz-adv-x="734" 
d="M661 986q28 -13 11 -42l-63 -99q-17 -28 -40 -8l-125 92l12 -155q0 -31 -31 -31h-116q-31 0 -31 31l12 155l-125 -92q-23 -20 -40 8l-63 99q-17 29 11 42l153 80l-153 79q-28 13 -11 42l63 99q17 29 42 9l123 -92l-12 154q0 31 31 31h116q31 0 31 -31l-12 -154l124 92
q24 20 41 -9l63 -99q17 -29 -11 -42l-152 -79z" />
    <glyph glyph-name="plus" unicode="+" horiz-adv-x="1058" 
d="M935 779q30 0 30 -29v-193q0 -13 -8.5 -22t-21.5 -9h-277v-278q0 -13 -9 -23t-22 -10h-193q-13 0 -22 9.5t-9 23.5v278h-278q-13 0 -22 8t-9 21v193q0 31 31 31h278v278q0 13 8.5 22t22.5 9h191q13 0 23 -9t10 -22v-278h277z" />
    <glyph glyph-name="comma" unicode="," horiz-adv-x="505" 
d="M418 116q2 -98 -53.5 -203.5t-156.5 -164.5q-25 -14 -41 4l-25 36q-9 12 6 26q59 46 88 82t40 92q-18 -4 -28 -4q-66 0 -113.5 49t-47.5 116q0 68 47 115.5t114 47.5q70 0 119.5 -53.5t50.5 -142.5z" />
    <glyph glyph-name="hyphen" unicode="-" horiz-adv-x="786" 
d="M699 349q0 -13 -8 -22t-21 -9h-550q-13 0 -23 8.5t-10 20.5v172q0 14 9.5 22.5t23.5 8.5h550q29 0 29 -29v-172z" />
    <glyph glyph-name="period" unicode="." horiz-adv-x="498" 
d="M248 -14q-67 0 -114 48.5t-47 116.5q0 67 47 113.5t114 46.5t115 -47t48 -113q0 -68 -48 -116.5t-115 -48.5z" />
    <glyph glyph-name="slash" unicode="/" horiz-adv-x="787" 
d="M481 1388h232q15 0 24.5 -9.5t5.5 -21.5l-403 -1324q-12 -33 -33 -33h-232q-14 0 -25 10.5t-7 22.5l407 1324q5 31 31 31z" />
    <glyph glyph-name="zero" unicode="0" horiz-adv-x="1223" 
d="M613 -21q-105 0 -193 35t-152 98t-108.5 150t-66.5 190.5t-22 219.5q0 144 35 269t101.5 220t171 150t234.5 55q129 0 232.5 -55t169.5 -150t101.5 -220t35.5 -269q0 -145 -35.5 -270.5t-101.5 -220t-169.5 -148.5t-232.5 -54zM613 241q125 0 187.5 119.5t62.5 311.5
q0 194 -62.5 313t-187.5 119q-84 0 -142 -58.5t-84 -153.5t-26 -220q0 -124 26 -219t84 -153.5t142 -58.5z" />
    <glyph glyph-name="one" unicode="1" horiz-adv-x="652" 
d="M533 1354q13 0 22 -9t9 -21v-1293q0 -13 -8 -22t-21 -9h-228q-14 0 -23.5 9t-9.5 22v932q-84 -25 -170 -33q-32 0 -35 25l-15 159q-2 14 4 22t24 15q73 26 121.5 70.5t89.5 118.5q6 14 28 14h212z" />
    <glyph glyph-name="two" unicode="2" horiz-adv-x="1060" 
d="M958 255q31 0 31 -31v-193q0 -13 -9 -22t-22 -9h-828q-12 0 -22.5 9.5t-10.5 21.5v61l458 569q70 85 100.5 142.5t30.5 114.5q0 71 -49 124t-127 53q-42 0 -79 -15t-68.5 -44t-50 -50.5t-43.5 -56.5q-20 -23 -45 0l-144 128q-9 7 -9.5 20t7.5 22q93 132 201 199.5
t250 67.5q189 0 314.5 -112.5t124.5 -297.5q0 -163 -121 -314l-316 -387h427z" />
    <glyph glyph-name="three" unicode="3" horiz-adv-x="1089" 
d="M646 814q93 -7 165.5 -41t115.5 -87.5t65 -118t22 -138.5q0 -99 -39 -183.5t-105 -141.5t-154 -89t-185 -32q-130 0 -245 57t-197 173q-10 14 -10.5 22.5t11.5 21.5l151 142q26 26 44 -3q94 -144 241 -144q94 0 146.5 53t52.5 131q0 75 -46 125t-129 50q-32 0 -100 -17
q-20 0 -30 13l-99 138q-17 26 2 45l304 310h-440q-13 0 -22 8.5t-9 21.5v193q0 13 9 22t22 9h714q31 0 31 -31v-186q0 -34 -23 -56z" />
    <glyph glyph-name="four" unicode="4" horiz-adv-x="1159" 
d="M1052 481q29 0 29 -31v-191q0 -13 -8.5 -23t-20.5 -10h-84v-195q0 -31 -31 -31h-189q-13 0 -23 9t-10 22v195h-613q-12 0 -21.5 9t-9.5 22l-2 193q0 14 18 27q180 143 290 379t112 468q0 13 8.5 21.5t21.5 8.5h224q14 0 22.5 -9t8.5 -22q-5 -230 -108 -463t-265 -379h314
v102q0 24 30 33l192 45q12 2 21.5 -9t9.5 -24v-147h84z" />
    <glyph glyph-name="five" unicode="5" horiz-adv-x="1074" 
d="M413 842q69 48 174 48q124 0 220 -61t146 -162t50 -224q0 -205 -135 -332.5t-337 -127.5q-133 0 -249 59t-200 168q-11 13 -11 23t12 22l153 158q23 23 45 0q109 -144 245 -144q82 0 130.5 50t48.5 122q0 73 -49.5 121.5t-120.5 48.5q-78 0 -129 -57l-239 62
q-15 4 -26 15t-11 23v663q0 37 35 37h722q35 0 35 -33v-189q0 -14 -9.5 -23.5t-25.5 -9.5h-474v-257z" />
    <glyph glyph-name="six" unicode="6" horiz-adv-x="1070" 
d="M576 843q194 0 313 -119.5t119 -312.5q0 -190 -126 -309t-320 -119q-217 0 -349.5 152.5t-132.5 433.5q0 166 43 307t126.5 249t218 169t306.5 60q16 0 25.5 -9.5t9.5 -23.5l2 -188q0 -14 -11 -23.5t-24 -9.5q-90 0 -163.5 -30.5t-117 -80t-67.5 -104.5t-27 -111
q60 69 175 69zM554 243q73 0 125 49.5t52 120.5q0 73 -50 122.5t-124 49.5t-126.5 -49.5t-52.5 -118.5q0 -73 51 -123.5t125 -50.5z" />
    <glyph glyph-name="seven" unicode="7" horiz-adv-x="1013" 
d="M960 1267q0 -8 -7 -24l-516 -1213q-4 -11 -16.5 -20.5t-24.5 -9.5h-217q-14 0 -19 19t0 28l460 1052h-533q-13 0 -23 10t-10 23v189q0 13 9.5 23t23.5 10h842q31 0 31 -30v-57z" />
    <glyph glyph-name="eight" unicode="8" horiz-adv-x="1036" 
d="M305 698q-23 -8 -51 -23.5t-63 -45t-63 -66.5t-47 -91.5t-19 -115.5q0 -162 122 -267.5t331 -105.5q213 0 336.5 105.5t123.5 267.5q0 244 -246 342l5 5q35 19 66 44t62 62.5t49 89t18 111.5q0 156 -117 256t-297 100q-176 0 -291 -100t-115 -256q0 -59 18 -111t48 -90
t61.5 -64t65.5 -44zM666 988q0 -56 -42 -96t-105 -40t-105.5 40t-42.5 96q0 57 42 97t106 40t105.5 -40t41.5 -97zM519 229q-72 0 -120 41.5t-48 107.5q0 65 46.5 108t121.5 43t121 -43t46 -108q0 -66 -47.5 -107.5t-119.5 -41.5z" />
    <glyph glyph-name="nine" unicode="9" horiz-adv-x="1070" 
d="M496 505q-195 0 -314.5 119.5t-119.5 312.5q0 190 126.5 309.5t320.5 119.5q217 0 349.5 -153t132.5 -434q0 -132 -26.5 -249t-82 -216t-136 -169.5t-195.5 -110.5t-254 -39q-16 0 -25.5 9.5t-9.5 23.5l-2 187q0 14 11 23.5t26 9.5q90 0 163 30.5t117 80t67.5 105
t25.5 110.5q-26 -30 -72 -49.5t-102 -19.5zM517 1106q-73 0 -125 -50t-52 -121q0 -73 50 -122t124 -49t126.5 49.5t52.5 118.5q0 73 -51 123.5t-125 50.5z" />
    <glyph glyph-name="colon" unicode=":" horiz-adv-x="498" 
d="M248 573q-67 0 -114 48t-47 115t47 114t114 47t115 -47t48 -114t-48 -115t-115 -48zM248 -14q-67 0 -114 48.5t-47 116.5q0 67 47 113.5t114 46.5t115 -47t48 -113q0 -68 -48 -116.5t-115 -48.5z" />
    <glyph glyph-name="semicolon" unicode=";" horiz-adv-x="505" 
d="M250 573q-67 0 -114 48t-47 115t47 114t114 47t115 -47t48 -114t-48 -115t-115 -48zM418 116q2 -98 -53.5 -203.5t-156.5 -164.5q-25 -14 -41 4l-25 36q-9 12 6 26q59 46 88 82t40 92q-18 -4 -28 -4q-66 0 -113.5 49t-47.5 116q0 68 47 115.5t114 47.5q70 0 119.5 -53.5
t50.5 -142.5z" />
    <glyph glyph-name="less" unicode="&#x3c;" horiz-adv-x="996" 
d="M87 574q0 -16 17 -22l771 -326q34 -15 34 17v194q0 27 -17 32l-467 177l467 175q17 4 17 33v194q0 34 -34 18l-771 -327q-17 -6 -17 -22v-143z" />
    <glyph glyph-name="equal" unicode="=" horiz-adv-x="1063" 
d="M118 729q-13 0 -22 8t-9 21v193q0 14 9 22.5t22 8.5h828q13 0 22 -7.5t9 -21.5v-193q0 -13 -9 -22t-22 -9h-828zM118 323q-13 0 -22 8t-9 21v193q0 14 9 22.5t22 8.5h828q13 0 22 -7.5t9 -21.5v-193q0 -13 -9 -22t-22 -9h-828z" />
    <glyph glyph-name="greater" unicode="&#x3e;" horiz-adv-x="996" 
d="M909 574v143q0 17 -17 22l-771 327q-34 16 -34 -18v-194q0 -28 19 -33l467 -175l-467 -177q-19 -5 -19 -32v-194q0 -33 34 -17l771 326q17 5 17 22z" />
    <glyph glyph-name="question" unicode="?" horiz-adv-x="817" 
d="M43 1159q-18 18 -1 39q149 180 371 180q165 0 267.5 -93t102.5 -240q0 -81 -34 -140.5t-110 -133.5q-75 -72 -101 -110t-26 -85v-95q0 -13 -9 -23t-22 -10h-191q-14 0 -22.5 9.5t-8.5 23.5v132q0 120 116 217q34 31 47 43.5t36 38.5t31.5 48t8.5 47q0 50 -37 81t-95 31
q-35 0 -68.5 -17t-48.5 -31t-53 -52q-20 -18 -38 0zM397 -14q-67 0 -114 48.5t-47 116.5q0 67 47 113.5t114 46.5t115.5 -47t48.5 -113q0 -67 -48.5 -116t-115.5 -49z" />
    <glyph glyph-name="at" unicode="@" horiz-adv-x="1839" 
d="M835 -356q-143 13 -267 66.5t-214 136t-154.5 188t-96.5 224t-32 241.5q0 178 65.5 337t180 275.5t279 185t352.5 68.5q125 0 238 -32t202 -88t161.5 -133.5t120.5 -168.5t73.5 -192t25.5 -205q0 -61 -8 -121t-31.5 -129t-61.5 -120t-104.5 -85.5t-152.5 -34.5
q-44 0 -80 9t-66.5 28t-47.5 33t-44 40q-54 -46 -130.5 -78t-164.5 -32q-131 0 -214.5 62.5t-83.5 191.5q0 126 102 192.5t373 117.5q0 47 -36.5 70.5t-95.5 23.5q-96 0 -210 -50q-13 -6 -25 -1.5t-16 16.5l-37 127q-5 29 14 40q154 75 304 75q153 0 240.5 -75t87.5 -214
v-218q0 -58 25.5 -97t78.5 -39q35 0 59 19.5t36 57.5t16.5 81t4.5 101q0 164 -62 290t-190.5 201t-307.5 75q-180 0 -318.5 -78t-212 -212.5t-73.5 -303.5q0 -155 64 -288.5t183 -223.5t272 -114q22 -3 22 -32v-189q0 -23 -43 -19zM899 266q86 0 156 60v117
q-142 -29 -177 -43q-67 -26 -67 -72q0 -62 88 -62z" />
    <glyph glyph-name="A" unicode="A" horiz-adv-x="1444" 
d="M1402 43q9 -23 1.5 -33t-25.5 -10h-243q-22 0 -40 40l-55 127h-636l-55 -127q-18 -40 -40 -40h-245q-16 0 -23.5 10t1.5 33l581 1285q15 26 37 26h124q24 0 35 -26zM509 401h426l-213 479z" />
    <glyph glyph-name="B" unicode="B" horiz-adv-x="1223" 
d="M911 727q113 -57 173 -145.5t60 -199.5q0 -166 -124.5 -274t-302.5 -108h-563q-14 0 -22.5 9t-8.5 22v1292q0 13 8.5 22t22.5 9h528q176 0 281.5 -98.5t105.5 -245.5q0 -83 -38.5 -158t-119.5 -125zM783 946q0 63 -43 104.5t-122 41.5h-205v-294h205q78 0 121.5 42.5
t43.5 105.5zM660 262q83 0 129 44t46 107q0 66 -46.5 111t-130.5 45h-245v-307h247z" />
    <glyph glyph-name="C" unicode="C" horiz-adv-x="1369" 
d="M774 -12q-199 0 -360 89t-252 246.5t-91 353.5t91 353.5t252 246.5t360 89q299 0 512 -210q24 -24 0 -45l-170 -151q-20 -20 -43 0q-123 123 -295 123q-178 0 -294 -118.5t-116 -287.5t116 -287.5t294 -118.5q172 0 295 123q23 20 43 0l170 -151q24 -21 0 -45
q-213 -210 -512 -210z" />
    <glyph glyph-name="D" unicode="D" horiz-adv-x="1450" 
d="M649 1354q169 0 305.5 -53.5t225 -146.5t135.5 -215t47 -262q0 -138 -47.5 -260t-135.5 -215.5t-224 -147.5t-302 -54h-499q-14 0 -22.5 9t-8.5 22v1292q0 13 8.5 22t22.5 9h495zM654 262q197 0 304.5 113t107.5 302q-2 189 -108 302t-304 113h-241v-830h241z" />
    <glyph glyph-name="E" unicode="E" 
d="M1005 262q13 0 22 -9t9 -22v-200q0 -13 -8.5 -22t-22.5 -9h-851q-13 0 -22 9.5t-9 21.5v1292q0 13 8.5 22t22.5 9h832q13 0 23 -9t10 -22v-198q0 -14 -9.5 -23.5t-23.5 -9.5h-573v-276h429q13 0 22 -9t9 -23v-197q0 -14 -8.5 -23t-22.5 -9h-429v-293h592z" />
    <glyph glyph-name="F" unicode="F" horiz-adv-x="1065" 
d="M989 1354q13 0 23 -9t10 -22v-198q0 -14 -9.5 -23.5t-23.5 -9.5h-576v-276h429q13 0 22 -9t9 -23v-197q0 -14 -8.5 -23t-22.5 -9h-429v-524q0 -12 -8.5 -21.5t-20.5 -9.5h-230q-13 0 -22 9.5t-9 21.5v1292q0 13 8.5 22t22.5 9h835z" />
    <glyph glyph-name="G" unicode="G" horiz-adv-x="1400" 
d="M1272 779q31 0 31 -29v-530q-103 -114 -239 -173t-283 -59q-201 0 -363.5 89t-254.5 246.5t-92 353.5t91.5 353.5t252.5 246.5t359 89q299 0 512 -210q24 -24 0 -45l-170 -151q-20 -20 -43 0q-123 123 -295 123q-180 0 -295 -118.5t-115 -287.5q0 -170 117 -288t305 -118
q149 0 264 83v174h-257q-32 0 -32 27v195q0 29 32 29h475z" />
    <glyph glyph-name="H" unicode="H" horiz-adv-x="1428" 
d="M1274 1354q13 0 22 -9t9 -22v-1292q0 -12 -8.5 -21.5t-20.5 -9.5h-229q-14 0 -23 9t-9 22v524h-602v-524q0 -12 -8.5 -21.5t-20.5 -9.5h-230q-14 0 -22.5 9t-8.5 22v1292q0 13 8.5 22t22.5 9h228q13 0 22 -9t9 -22v-507h602v507q0 13 8.5 22t21.5 9h229z" />
    <glyph glyph-name="I" unicode="I" horiz-adv-x="536" 
d="M154 0q-14 0 -22.5 9t-8.5 22v1292q0 13 8.5 22t22.5 9h228q13 0 22 -9t9 -22v-1292q0 -12 -8.5 -21.5t-20.5 -9.5h-230z" />
    <glyph glyph-name="J" unicode="J" horiz-adv-x="590" 
d="M207 1354h229q13 0 22 -9t9 -22v-1326q0 -163 -81 -267.5t-218 -151.5q-29 -11 -41 12l-113 210q-8 13 -3.5 24t19.5 15q64 21 105.5 65.5t41.5 105.5v1313q0 13 8 22t22 9z" />
    <glyph glyph-name="K" unicode="K" horiz-adv-x="1299" 
d="M1250 73q21 -23 11 -48t-41 -25h-232q-26 0 -39 16l-536 569v-554q0 -12 -8.5 -21.5t-20.5 -9.5h-230q-14 0 -22.5 9t-8.5 22v1292q0 13 8.5 22t22.5 9h228q13 0 22 -9t9 -22v-539l493 552q15 18 38 18h241q29 0 39 -22t-9 -44l-550 -606z" />
    <glyph glyph-name="L" unicode="L" horiz-adv-x="1051" 
d="M942 262q13 0 21.5 -8.5t8.5 -22.5v-200q0 -13 -8.5 -22t-21.5 -9h-788q-14 0 -22.5 9t-8.5 22v1292q0 13 8.5 22t22.5 9h228q13 0 22 -9t9 -22v-1061h529z" />
    <glyph glyph-name="M" unicode="M" horiz-adv-x="1813" 
d="M1661 1354q14 0 21.5 -9t7.5 -22v-1290q0 -13 -8.5 -23t-22.5 -10h-227q-14 0 -22.5 9.5t-8.5 23.5v769l-450 -762q-17 -24 -38 -24h-12q-21 0 -38 24l-450 760v-767q0 -13 -8.5 -23t-20.5 -10h-228q-14 0 -23.5 9.5t-9.5 23.5v1290q0 13 8 22t22 9h222q21 0 35 -21
l496 -840l498 840q14 21 35 21h222z" />
    <glyph glyph-name="N" unicode="N" horiz-adv-x="1454" 
d="M1300 1354q14 0 22.5 -9t8.5 -22v-1293q0 -12 -8.5 -21t-20.5 -9h-228q-33 0 -53 30l-608 860v-859q0 -12 -8.5 -21.5t-20.5 -9.5h-230q-14 0 -22.5 9t-8.5 22v1293q0 12 8.5 21t21.5 9h227q34 0 54 -30l607 -833v832q0 12 9 21.5t21 9.5h229z" />
    <glyph glyph-name="O" unicode="O" horiz-adv-x="1539" 
d="M771 -12q-199 0 -360 92.5t-250.5 250t-89.5 346.5t89.5 346.5t250.5 250t360 92.5t359.5 -92.5t249 -249.5t88.5 -347t-88.5 -347t-249 -249.5t-359.5 -92.5zM771 271q175 0 288 117t113 289q0 173 -113 290t-288 116q-117 -1 -209.5 -55t-143 -146t-50.5 -205
q0 -173 113.5 -289.5t289.5 -116.5z" />
    <glyph glyph-name="P" unicode="P" horiz-adv-x="1246" 
d="M706 1354q117 0 211.5 -40.5t153.5 -108t90 -153t31 -179.5t-31 -179t-90 -153t-153.5 -108.5t-211.5 -40.5h-293v-361q0 -12 -8.5 -21.5t-20.5 -9.5h-230q-14 0 -22.5 9t-8.5 22v1292q0 13 8.5 22t22.5 9h552zM698 654q96 0 150.5 61t54.5 158t-54.5 158t-150.5 61h-285
v-438h285z" />
    <glyph glyph-name="Q" unicode="Q" horiz-adv-x="1539" 
d="M1463 -16q30 -33 -5 -62l-141 -132q-32 -30 -62 7l-219 239q-124 -48 -265 -48q-199 0 -360 92.5t-250.5 250t-89.5 346.5t89.5 346.5t250.5 250t360 92.5t359.5 -92.5t249 -249.5t88.5 -347q0 -141 -50.5 -266t-143.5 -218zM368 677q0 -173 113.5 -289.5t289.5 -116.5
q175 0 288 117t113 289q0 173 -113 290t-288 116q-117 -1 -209.5 -55t-143 -146t-50.5 -205z" />
    <glyph glyph-name="R" unicode="R" horiz-adv-x="1268" 
d="M1194 54q14 -22 6 -38t-35 -16h-207q-35 0 -55 30l-224 362h-266v-361q0 -12 -8.5 -21.5t-20.5 -9.5h-230q-14 0 -22.5 9t-8.5 22v1292q0 13 8.5 22t22.5 9h552q117 0 211.5 -40.5t153.5 -108t90 -153t31 -179.5q0 -136 -63 -250.5t-181 -174.5zM413 1092v-438h285
q96 0 150.5 61t54.5 158t-54.5 158t-150.5 61h-285z" />
    <glyph glyph-name="S" unicode="S" horiz-adv-x="1084" 
d="M82 240l112 152q12 17 31.5 18.5t29.5 -9.5q2 -1 20 -17t25.5 -22t28 -21.5t34.5 -23.5t38 -20t44.5 -18t47 -10.5t52.5 -4.5q82 0 127 36t45 92q0 22 -9 40.5t-20 31t-36 27.5t-41 22.5t-50 22.5q-88 43 -133 65.5t-110.5 60t-97.5 67t-66.5 69.5t-48 85t-13.5 98
q0 159 125.5 272t332.5 113q65 0 128 -14t101 -28t85 -43t56 -36t38 -30q15 -11 18 -26t-8 -30l-114 -152q-34 -44 -70 -19q-149 102 -251 102q-64 0 -103 -27t-39 -77q0 -48 35 -78t122 -66q192 -91 259 -133q156 -98 194 -222q14 -47 14 -100q0 -173 -132 -286t-341 -113
q-253 0 -448 189l-7 7q-30 22 -5 56z" />
    <glyph glyph-name="T" unicode="T" 
d="M996 1354q13 0 22 -8.5t9 -22.5v-198q0 -13 -9 -23t-22 -10h-317v-1061q0 -12 -9 -21.5t-21 -9.5h-229q-14 0 -22.5 9t-8.5 22v1061h-302q-14 0 -23.5 9t-9.5 22v198q0 14 9.5 23.5t23.5 9.5h909z" />
    <glyph glyph-name="U" unicode="U" horiz-adv-x="1341" 
d="M1196 1354q14 0 22.5 -9t8.5 -22v-821q0 -106 -36.5 -198.5t-105 -163t-176 -111.5t-239.5 -41t-239 41t-175 111.5t-104.5 163t-36.5 198.5v821q0 13 8.5 22t22.5 9h229q13 0 21 -9t8 -22v-769q0 -132 68.5 -211t197.5 -79t197 79t68 211v769q0 13 9.5 22t22.5 9h229z
" />
    <glyph glyph-name="V" unicode="V" horiz-adv-x="1444" 
d="M660 0q-22 0 -37 26l-581 1284q-9 22 -1.5 33t23.5 11h245q22 0 40 -40l373 -840l373 840q18 40 40 40h243q18 0 25.5 -11t-1.5 -33l-583 -1284q-11 -26 -35 -26h-124z" />
    <glyph glyph-name="W" unicode="W" horiz-adv-x="2110" 
d="M489 0q-26 0 -34 26l-415 1284q-7 21 0 32.5t24 11.5h240q27 0 41 -40l243 -837l311 837q15 40 40 40h231q26 0 40 -40l310 -837l245 837q14 40 40 40h241q17 0 24 -11.5t1 -32.5l-415 -1284q-8 -26 -37 -26h-175q-27 0 -35 26l-354 955l-354 -955q-11 -26 -35 -26h-177z
" />
    <glyph glyph-name="X" unicode="X" horiz-adv-x="1293" 
d="M1237 1354q13 0 18 -9t-4 -22l-444 -653l437 -637q7 -11 1.5 -22t-18.5 -11h-274q-7 0 -12.5 3.5t-8 6.5t-7.5 11t-7 10l-272 401l-273 -401q-2 -3 -5.5 -8.5t-5.5 -8.5t-5.5 -7t-7.5 -5.5t-9 -1.5h-272q-13 0 -19 11t1 22l434 637l-442 653q-9 13 -4 22t18 9h274
q5 0 8.5 -1.5t7 -5t5 -6t5 -9t5.5 -9.5l285 -417l284 417q1 2 3.5 6t3.5 6t3 5t3.5 5t3.5 4t4 3t5 1.5t6 0.5h275z" />
    <glyph glyph-name="Y" unicode="Y" horiz-adv-x="1306" 
d="M1239 1354q25 0 30.5 -14t-7.5 -31l-464 -769v-510q0 -30 -29 -30h-231q-29 0 -29 30v510l-464 769q-13 17 -7 31t30 14h234q38 0 54 -31l298 -500l297 500q16 31 54 31h234z" />
    <glyph glyph-name="Z" unicode="Z" horiz-adv-x="1105" 
d="M71 0q-26 0 -26 26v31q0 17 16 47l590 988h-559q-13 0 -22 8.5t-9 22.5v200q0 13 9 22t22 9h942q26 0 26 -26v-32q0 -22 -15 -46l-590 -988h559q13 0 22 -8.5t9 -22.5v-200q0 -13 -9 -22t-22 -9h-943z" />
    <glyph glyph-name="bracketleft" unicode="[" horiz-adv-x="692" 
d="M595 1336h-222v-1381h222q28 0 28 -26v-236q0 -28 -28 -28h-498q-28 0 -28 28v1907q0 26 28 26h498q28 0 28 -26v-236q0 -28 -28 -28z" />
    <glyph glyph-name="backslash" unicode="\" horiz-adv-x="793" 
d="M323 1388q24 0 33 -31l390 -1324q4 -12 -6 -22.5t-23 -10.5h-247q-24 0 -33 33l-390 1324q-4 12 6 21.5t25 9.5h245z" />
    <glyph glyph-name="bracketright" unicode="]" horiz-adv-x="692" 
d="M95 1336q-26 0 -26 28v236q0 26 28 26h498q28 0 28 -26v-1907q0 -28 -28 -28h-498q-28 0 -28 28v236q0 26 28 26h222v1381h-224z" />
    <glyph glyph-name="asciicircum" unicode="^" horiz-adv-x="1093" 
d="M92 703q-8 -14 -1.5 -28.5t25.5 -14.5h205q17 0 28 15l198 344l198 -344q11 -15 26 -15h206q18 0 25.5 13.5t-1.5 29.5l-354 628q-11 23 -31 23h-139q-16 0 -31 -23z" />
    <glyph glyph-name="underscore" unicode="_" horiz-adv-x="996" 
d="M909 -201q0 -13 -8.5 -22.5t-20.5 -9.5h-760q-13 0 -23 9t-10 21v172q0 13 9.5 22t23.5 9h760q13 0 21 -8.5t8 -22.5v-170z" />
    <glyph glyph-name="grave" unicode="`" horiz-adv-x="650" 
d="M87 1178l371 -170q31 -14 44 9l74 125q6 13 3.5 22.5t-10.5 13.5l-343 233q-32 20 -47 -3l-104 -183q-8 -17 -4.5 -30t16.5 -17z" />
    <glyph glyph-name="a" unicode="a" horiz-adv-x="951" 
d="M331 -14q-134 0 -205.5 67t-71.5 187q0 144 117 219.5t402 99.5q0 63 -34.5 86t-102.5 23q-116 0 -221 -62q-31 -15 -47 15l-48 134q-14 31 21 49q165 93 350 93q77 0 142.5 -17.5t116.5 -52t79.5 -91t26.5 -129.5q-4 -119 -2.5 -285.5t16.5 -283.5q2 -16 -6.5 -27
t-25.5 -11h-163q-18 0 -40 30.5t-36 75.5q-110 -120 -268 -120zM401 191q95 0 170 78v113q-137 -7 -196 -33t-59 -82q0 -37 23 -56.5t62 -19.5z" />
    <glyph glyph-name="b" unicode="b" horiz-adv-x="1128" 
d="M668 897q172 0 289 -127.5t117 -328.5q0 -200 -115.5 -327.5t-281.5 -127.5q-169 0 -276 130v-85q0 -31 -31 -31h-221q-31 0 -31 31v1121q0 58 -9.5 109t-9.5 60q0 33 29 33h184q89 0 89 -87v-495q105 125 267 125zM606 226q94 0 150 59.5t56 155.5t-56 156.5t-150 60.5
q-91 0 -148 -60.5t-57 -156.5t57 -155.5t148 -59.5z" />
    <glyph glyph-name="c" unicode="c" horiz-adv-x="899" 
d="M519 -14q-91 0 -175 33.5t-148.5 92.5t-103 145.5t-38.5 185.5q0 131 65.5 236.5t171.5 161.5t228 56q179 0 314 -128q22 -19 4 -45l-96 -123q-22 -26 -57 -2q-70 59 -151 59q-97 0 -159 -61.5t-62 -153.5t62.5 -154.5t158.5 -62.5q79 0 153 59q35 24 57 -2l94 -123
q20 -23 -2 -45q-137 -129 -316 -129z" />
    <glyph glyph-name="d" unicode="d" horiz-adv-x="1121" 
d="M922 1354q86 0 86 -87v-1236q0 -31 -31 -31h-219q-33 0 -33 31v85q-107 -130 -275 -130q-165 0 -280.5 127.5t-115.5 327.5q0 201 117 328.5t289 127.5q161 0 265 -123v378q0 58 -9.5 109t-9.5 60q0 15 8 24t22 9h186zM522 226q91 0 147 59.5t56 155.5t-56 156.5
t-147 60.5q-94 0 -150 -60.5t-56 -156.5t56 -155.5t150 -59.5z" />
    <glyph glyph-name="e" unicode="e" horiz-adv-x="992" 
d="M939 488q0 -150 -186 -150h-413q56 -128 247 -128q97 0 175 49q15 9 27 7t25 -18l45 -66q20 -24 -5 -55q-107 -141 -325 -141q-209 0 -342 125t-133 330q0 198 124 327t327 129q103 0 187 -34.5t137 -92t81.5 -130.5t28.5 -152zM505 666q-68 0 -111.5 -37.5t-60.5 -100.5
h337q-34 138 -165 138z" />
    <glyph glyph-name="f" unicode="f" horiz-adv-x="744" 
d="M781 1319q23 -23 9 -49l-78 -137q-13 -28 -42 -15q-47 27 -92 27q-47 0 -82.5 -30t-35.5 -96v-134h182q23 0 23 -24v-207q0 -10 -7 -16t-16 -6h-182v-602q0 -30 -31 -30h-222q-30 0 -30 30v602h-101q-22 0 -22 22v207q0 24 22 24h101v169q0 163 96 253t248 90
q75 0 145 -21t115 -57z" />
    <glyph glyph-name="g" unicode="g" horiz-adv-x="999" 
d="M640 31q172 -26 251 -83.5t79 -173.5q0 -85 -39.5 -149.5t-108.5 -101t-153 -54t-183 -16.5q-125 1 -224 30t-159.5 89t-60.5 142q0 45 18 81.5t48.5 59t63 36t69.5 20.5q-201 43 -201 174q0 75 55 120t125 38q-119 105 -121 262q-4 168 111 280t304 112q29 0 150.5 -14
t241.5 -3q13 0 22.5 -8.5t8.5 -22.5l-8 -118q-13 -22 -113 -28q102 -86 102 -234q0 -160 -115 -260t-286 -100q-16 0 -30 1t-28.5 3.5t-24 4t-24 5.5t-20 6t-21 7t-18.5 6q-47 9 -63.5 1t-16.5 -27q0 -21 27 -30t91 -18zM507 660q-64 0 -109.5 -42.5t-45.5 -110.5t44.5 -111
t112.5 -45q67 0 109 43t42 111q0 69 -44 112t-109 43zM514 -312q65 0 111.5 22.5t46.5 65.5q0 52 -71 64l-160 30q-53 11 -95 -12t-42 -68q0 -102 210 -102z" />
    <glyph glyph-name="h" unicode="h" horiz-adv-x="1095" 
d="M1005 40q2 -17 -3.5 -28.5t-17.5 -11.5h-200q-36 0 -55 21.5t-19 56.5v422q0 68 -38 108.5t-106 40.5q-53 0 -96.5 -27.5t-68.5 -74.5v-516q0 -28 -26 -31h-4h-223q-5 0 -7 2q-23 3 -23 29v1121q0 58 -9.5 109t-9.5 60q0 33 29 33h184q89 0 89 -87v-507q111 137 276 137
q138 0 227 -87t89 -246v-403q0 -42 12 -121z" />
    <glyph glyph-name="i" unicode="i" horiz-adv-x="498" 
d="M250 1100q-62 0 -103 41t-41 103q0 60 41.5 101.5t102.5 41.5q60 0 101 -41.5t41 -101.5q0 -61 -41 -102.5t-101 -41.5zM139 0q-14 0 -22.5 9t-8.5 22v823q0 13 8.5 22t22.5 9h220q13 0 22.5 -9t9.5 -22v-823q0 -13 -9.5 -22t-22.5 -9h-220z" />
    <glyph glyph-name="j" unicode="j" horiz-adv-x="505" 
d="M257 1100q-61 0 -102.5 41t-41.5 103q0 60 41.5 101.5t102.5 41.5q59 0 100.5 -41.5t41.5 -101.5q0 -61 -41.5 -102.5t-100.5 -41.5zM148 -397q-27 -11 -42 12l-111 203q-15 30 14 47q106 61 106 145v844q0 13 7.5 22t21.5 9h220q13 0 23 -9t10 -22v-875
q0 -101 -31.5 -175t-84 -119.5t-133.5 -81.5z" />
    <glyph glyph-name="k" unicode="k" horiz-adv-x="1065" 
d="M1017 66q18 -21 8.5 -43.5t-37.5 -22.5h-231q-23 0 -40 21l-316 337v-327q0 -31 -31 -31h-221q-31 0 -31 31v1121q0 58 -9.5 109t-9.5 60q0 33 29 33h184q89 0 89 -87v-696l278 295q16 19 41 19h215q31 0 40.5 -24t-10.5 -47l-332 -349z" />
    <glyph glyph-name="l" unicode="l" horiz-adv-x="513" 
d="M149 0q-31 0 -31 31v1121q0 58 -9.5 109t-9.5 60q0 33 29 33h184q89 0 89 -87v-1236q0 -31 -31 -31h-221z" />
    <glyph glyph-name="m" unicode="m" horiz-adv-x="1657" 
d="M1567 40q2 -17 -3.5 -28.5t-17.5 -11.5h-199q-36 0 -55.5 21.5t-19.5 56.5v415q0 68 -37 109.5t-102 41.5q-50 0 -93.5 -28.5t-67.5 -75.5v-379q0 -55 10 -121q4 -16 -1.5 -28t-17.5 -12h-201q-34 0 -53.5 21.5t-19.5 56.5v415q0 68 -37.5 109.5t-101.5 41.5
q-51 0 -94 -28t-67 -74v-509q0 -13 -9 -23t-21 -10h-224q-13 0 -21 9.5t-8 23.5v823q0 12 8 20.5t20 8.5h225q30 0 30 -29v-94q105 135 274 135q96 0 169.5 -45t109.5 -130q115 175 302 175q137 0 224 -87t87 -246v-403q0 -42 12 -121z" />
    <glyph glyph-name="n" unicode="n" 
d="M993 40q2 -17 -3.5 -28.5t-17.5 -11.5h-200q-36 0 -55 21.5t-19 56.5v422q0 68 -38.5 108.5t-105.5 40.5q-53 0 -96.5 -27.5t-68.5 -74.5v-514q0 -13 -9 -23t-21 -10h-224q-13 0 -21 9.5t-8 23.5v823q0 12 8 20.5t20 8.5h225q30 0 30 -29v-96q111 137 276 137
q137 0 226.5 -87.5t89.5 -245.5v-403q0 -64 12 -121z" />
    <glyph glyph-name="o" unicode="o" horiz-adv-x="1044" 
d="M522 -14q-200 0 -334 127t-134 328t134 328.5t334 127.5t334.5 -127.5t134.5 -328.5t-134.5 -328t-334.5 -127zM522 226q92 0 151 60.5t59 154.5t-59 155.5t-151 61.5t-151 -61.5t-59 -155.5t59 -154.5t151 -60.5z" />
    <glyph glyph-name="p" unicode="p" horiz-adv-x="1109" 
d="M649 897q172 0 289 -127.5t117 -328.5q0 -200 -115.5 -327.5t-281.5 -127.5q-169 0 -276 130v-418q0 -45 -45 -45h-191q-47 0 -47 45v1015q0 26 -3 50t-8 49.5t-6 32.5q-4 17 3 28.5t24 11.5h184q89 0 89 -87v-26q105 125 267 125zM587 226q94 0 150 59.5t56 155.5
t-56 156.5t-150 60.5q-91 0 -148 -60.5t-57 -156.5t57 -155.5t148 -59.5z" />
    <glyph glyph-name="q" unicode="q" horiz-adv-x="1117" 
d="M1027 -307q2 -17 -5 -28.5t-22 -11.5h-186q-89 0 -89 87v376q-107 -130 -275 -130q-165 0 -280.5 127.5t-115.5 327.5q0 201 117 328.5t289 127.5q161 0 265 -123v66q0 45 47 45h191q45 0 45 -45v-1015q0 -26 3.5 -50.5t9 -48.5t6.5 -33zM522 226q91 0 147 59.5t56 155.5
t-56 156.5t-147 60.5q-94 0 -150 -60.5t-56 -156.5t56 -155.5t150 -59.5z" />
    <glyph glyph-name="r" unicode="r" horiz-adv-x="827" 
d="M781 840q28 -23 12 -54l-97 -159q-13 -24 -43 -11q-60 37 -113 37q-52 0 -90.5 -27.5t-60.5 -75.5v-517q0 -13 -9 -23t-21 -10h-224q-13 0 -21 9.5t-8 23.5v823q0 12 8 20.5t20 8.5h225q30 0 30 -29v-85q96 126 231 126q95 0 161 -57z" />
    <glyph glyph-name="s" unicode="s" horiz-adv-x="827" 
d="M50 130l75 129q17 30 50 13q37 -19 107.5 -40.5t135.5 -21.5q40 0 63.5 13.5t23.5 36.5q0 30 -31.5 45.5t-129.5 43.5q-135 41 -206 107.5t-72 170.5q0 120 90 195t261 75q95 0 162 -23t136 -65q33 -17 19 -40l-85 -141q-14 -24 -45 -10q-33 18 -88.5 34t-104.5 16
q-92 0 -92 -50q0 -14 8 -24t30 -19.5t39 -14.5t55 -15q168 -47 245.5 -112.5t77.5 -172.5q0 -132 -102.5 -203t-260.5 -71q-194 0 -352 104q-22 16 -9 40z" />
    <glyph glyph-name="t" unicode="t" horiz-adv-x="744" 
d="M474 -14q-140 0 -225.5 86.5t-85.5 241.5v318h-97q-12 0 -21 9t-9 22v52q0 13 0.5 17.5t4 10.5t11.5 14q93 85 153.5 162.5t125.5 201.5q17 31 44 31h45q12 0 21 -9.5t9 -21.5v-236h173q14 0 22.5 -8t8.5 -21v-196q0 -12 -9 -20t-22 -8h-120q-37 0 -57 5v-293
q0 -48 21 -79t64 -31q26 0 68 18q28 15 40 -11l74 -147q13 -19 -12 -37q-41 -33 -101.5 -52t-125.5 -19z" />
    <glyph glyph-name="u" unicode="u" horiz-adv-x="1083" 
d="M946 885q29 0 29 -33v-822q0 -13 -7.5 -21.5t-19.5 -8.5h-224q-31 0 -31 30v93q-112 -135 -275 -135q-139 0 -228 87t-89 246v403q0 48 -11 121q-4 16 1.5 28t17.5 12h202q34 0 53.5 -21.5t19.5 -56.5v-422q0 -68 38.5 -108.5t105.5 -40.5q53 0 96.5 27.5t68.5 74.5v514
q0 13 9 23t22 10h222z" />
    <glyph glyph-name="v" unicode="v" horiz-adv-x="1006" 
d="M397 0q-19 0 -34 30l-325 824q-5 13 0.5 22t20.5 9h224q17 0 31 -31l184 -498h9l186 498q4 10 7.5 15.5t9.5 10.5t14 5h224q14 0 19 -9t1 -22l-326 -824q-11 -30 -35 -30h-210z" />
    <glyph glyph-name="w" unicode="w" horiz-adv-x="1515" 
d="M345 0q-23 0 -34 30l-273 824q-5 13 0.5 22t20.5 9h219q21 0 31 -31l139 -498h8l176 498q10 31 29 31h193q17 0 31 -31l174 -498h8l139 498q10 31 31 31h221q14 0 19.5 -9t1.5 -22l-274 -824q-2 -11 -12.5 -20.5t-22.5 -9.5h-189q-22 0 -37 30l-184 503h-5l-184 -503
q-11 -30 -35 -30h-191z" />
    <glyph glyph-name="x" unicode="x" horiz-adv-x="970" 
d="M911 50q10 -17 2.5 -33.5t-24.5 -16.5h-235q-22 0 -34 23l-134 215l-135 -215q-14 -23 -37 -23h-234q-16 0 -23.5 17t2.5 33l276 396l-273 391q-11 16 -3 32t24 16h235q24 0 36 -22l132 -212l130 212q14 22 37 22h236q16 0 22.5 -16t-3.5 -32l-273 -391z" />
    <glyph glyph-name="y" unicode="y" horiz-adv-x="1003" 
d="M944 885q15 0 20.5 -9t0.5 -22l-463 -1170q-14 -31 -32 -31h-224q-14 0 -19 9t-1 22l137 346l-325 824q-5 13 0.5 22t20.5 9h224q17 0 31 -31l182 -498h11l182 498q4 10 7.5 15.5t9.5 10.5t14 5h224z" />
    <glyph glyph-name="z" unicode="z" horiz-adv-x="853" 
d="M436 253h319q29 0 29 -29v-193q0 -13 -8 -22t-21 -9h-670q-12 0 -21.5 9.5t-9.5 20.5v45l369 557h-315q-13 0 -21.5 7.5t-8.5 21.5v193q0 13 9 22t21 9h661q12 0 21.5 -9t9.5 -20v-45z" />
    <glyph glyph-name="braceleft" unicode="{" horiz-adv-x="819" 
d="M715 -352q-69 0 -132 13t-128 46.5t-112 86t-77 138.5t-30 196v226q0 64 -39 99.5t-93 37.5q-35 3 -35 31v190q0 31 35 31q54 2 93 37.5t39 99.5v226q0 110 30 196t77 138.5t112 86t128 46.5t132 13q35 0 35 -31v-201q0 -19 -5.5 -27t-22.5 -13q-113 -17 -153 -77
t-40 -183v-204q0 -51 -17 -93.5t-43 -68t-51 -40t-47 -18.5v-24q22 -5 47 -20t51 -40.5t43 -68t17 -93.5v-203q0 -62 8 -104t28.5 -76.5t59 -54t97.5 -26.5q17 -4 22.5 -12t5.5 -26v-203q0 -31 -35 -31z" />
    <glyph glyph-name="bar" unicode="|" horiz-adv-x="640" 
d="M174 1329q0 13 8.5 22.5t22.5 9.5h229q13 0 23 -9.5t10 -22.5v-1990q0 -13 -9 -23t-22 -10h-231q-13 0 -22 9.5t-9 23.5v1990z" />
    <glyph glyph-name="braceright" unicode="}" horiz-adv-x="819" 
d="M102 -352q-14 0 -23.5 8t-9.5 23v203q0 18 5.5 26t22.5 12q59 7 97.5 26.5t59 54t28.5 76.5t8 104v203q0 51 16.5 93.5t42.5 68t51 40.5t48 20v24q-54 10 -106 66.5t-52 153.5v204q0 123 -40 183t-153 77q-17 5 -22.5 13t-5.5 27v201q0 15 9.5 23t23.5 8q69 0 132.5 -13
t128.5 -46.5t112.5 -86t77.5 -138.5t30 -196v-226q0 -64 38.5 -99.5t93.5 -37.5q16 0 25.5 -8.5t9.5 -22.5v-190q0 -28 -35 -31q-55 -2 -93.5 -37.5t-38.5 -99.5v-226q0 -110 -30 -196t-77.5 -138.5t-112.5 -86t-128.5 -46.5t-132.5 -13z" />
    <glyph glyph-name="asciitilde" unicode="~" horiz-adv-x="1010" 
d="M673 331q-47 0 -84.5 12t-62.5 28.5t-48.5 33.5t-54 29t-67.5 12q-32 0 -59 -7t-47 -21t-29.5 -22.5t-24.5 -24.5q-25 -21 -38 0l-66 105q-11 21 2 39q113 148 243 148q58 0 103 -18t69.5 -40t62 -40t82.5 -18q17 0 32.5 2.5t27 5t25 9.5t20 10t18.5 12.5t14.5 11.5
t13.5 12l11 11q23 23 36 2l66 -106q13 -19 0 -40q-104 -146 -245 -146z" />
    <glyph glyph-name="exclamdown" unicode="&#xa1;" horiz-adv-x="484" 
d="M241 899q67 0 115 -48.5t48 -116.5q0 -66 -48 -113t-115 -47t-114 46.5t-47 113.5q0 68 47 116.5t114 48.5zM368 -469h-252q-14 0 -23.5 10t-9.5 23v28l61 712q3 31 31 31h136q25 0 29 -31l61 -712v-28q0 -13 -9.5 -23t-23.5 -10z" />
    <glyph glyph-name="cent" unicode="&#xa2;" horiz-adv-x="899" 
d="M837 160q20 -23 -2 -45q-137 -129 -316 -129q-33 0 -73 5l-33 -130q-2 -12 -13.5 -18t-24.5 -4l-52 13q-24 9 -19 37l33 134q-126 51 -204.5 162.5t-78.5 257.5q0 131 65.5 236.5t171.5 161.5t228 56q26 0 31 -1l19 76q9 30 40 22l51 -13q11 -2 16.5 -13t3.5 -24l-17 -69
q93 -33 170 -106q22 -19 4 -45l-96 -123q-22 -26 -57 -2q-37 32 -78 47l-103 -419q5 -1 30 -1q79 0 153 59q35 24 57 -2zM312 443q0 -54 22.5 -100t62.5 -74l94 385q-81 -13 -130 -71.5t-49 -139.5z" />
    <glyph glyph-name="sterling" unicode="&#xa3;" horiz-adv-x="1032" 
d="M962 1203q9 -9 10 -22t-9 -22l-144 -138q-20 -20 -43 0q-1 1 -11.5 10t-13 11t-13 10.5t-15 11.5t-15.5 10t-18 9.5t-19 7t-22 6.5t-22.5 3.5t-25.5 1.5q-78 0 -126 -45t-48 -132q0 -14 1 -27t5 -27t6 -23t9 -25.5t9 -22.5t11 -26t11 -24h318q13 0 21 -8.5t8 -21.5v-159
q0 -13 -8.5 -23t-20.5 -10h-268q-1 -76 -24.5 -157t-53.5 -116h441q31 0 31 -47v-175q0 -14 -9 -23.5t-22 -9.5h-748q-14 0 -23.5 9.5t-9.5 23.5v31q73 97 110.5 212t37.5 213q0 27 -2 39h-130q-13 0 -22.5 9t-9.5 22v160q0 14 9.5 22.5t22.5 8.5h74q-46 119 -56 172
q-6 36 -6 71q-2 167 118.5 275.5t316.5 109.5q134 1 224.5 -47.5t163.5 -127.5z" />
    <glyph glyph-name="currency" unicode="&#xa4;" horiz-adv-x="897" 
d="M741 1060q0 -77 -38 -144l108 -107l-54 -54l-101 101q-84 -87 -206 -87q-125 0 -209 87l-100 -101l-54 54l107 107q-38 67 -38 144q0 78 38 146l-107 108l54 54l100 -101q84 87 209 87q122 0 206 -87l101 101l54 -54l-108 -108q38 -68 38 -146zM450 840q91 0 155.5 65
t64.5 157q0 91 -64.5 156t-155.5 65q-92 0 -157.5 -65t-65.5 -156q0 -92 65.5 -157t157.5 -65z" />
    <glyph glyph-name="yen" unicode="&#xa5;" horiz-adv-x="1306" 
d="M1239 1354q25 0 30.5 -14t-7.5 -31l-401 -667h173q13 0 22.5 -8.5t9.5 -22.5v-160q0 -13 -9.5 -22t-22.5 -9h-236v-68h236q13 0 22.5 -8.5t9.5 -22.5v-160q0 -13 -9.5 -22t-22.5 -9h-236v-100q0 -30 -29 -30h-231q-29 0 -29 30v100h-235q-13 0 -23 9t-10 22v160
q0 13 9.5 22t23.5 9h235v68h-235q-13 0 -23 9t-10 21v159q0 14 9.5 23.5t23.5 9.5h172l-401 667q-13 17 -7 31t30 14h234q38 0 54 -31l298 -500l297 500q16 31 54 31h234z" />
    <glyph glyph-name="brokenbar" unicode="&#xa6;" horiz-adv-x="640" 
d="M174 1357q0 13 8.5 22t22.5 9h229q13 0 23 -9t10 -22v-795q0 -13 -9 -22t-22 -9h-231q-13 0 -22 8.5t-9 22.5v795zM174 134q0 13 8.5 21t22.5 8h229q13 0 23 -8.5t10 -20.5v-795q0 -13 -9 -23t-22 -10h-231q-13 0 -22 9.5t-9 23.5v795z" />
    <glyph glyph-name="section" unicode="&#xa7;" horiz-adv-x="1102" 
d="M1033 387q0 -139 -87 -238q69 -90 69 -205q0 -172 -132 -284.5t-341 -112.5q-55 0 -106.5 8.5t-94 24.5t-76.5 31.5t-66 38.5t-49 36.5t-39 33t-24 21.5q-30 22 -5 56l112 154q12 16 31.5 17.5t29.5 -8.5q30 -28 47 -41.5t58 -41t87.5 -41t97.5 -13.5q81 0 126.5 36.5
t45.5 90.5q0 51 -38.5 80.5t-117.5 63.5q-58 28 -90 44t-80.5 41t-75.5 42t-63.5 42t-56.5 45.5t-42.5 48t-34 54.5t-19 59.5t-7.5 67.5q0 136 94 241q-77 88 -77 202q0 159 126 272t333 113q65 0 128 -14t100.5 -28t85 -43.5t55.5 -35.5t38 -30q15 -11 18.5 -26t-7.5 -30
l-115 -152q-34 -44 -69 -19q-149 102 -252 102q-64 0 -103 -27t-39 -77q0 -48 35 -78t123 -66q192 -91 259 -133q156 -98 194 -222q14 -47 14 -100zM548 399l157 -74q29 26 29 67q0 22 -9 40.5t-20 31t-36 27.5t-41 22.5t-50 22.5q-72 35 -151 75q-36 -25 -36 -68
q0 -47 35 -76.5t122 -67.5z" />
    <glyph glyph-name="dieresis" unicode="&#xa8;" horiz-adv-x="848" 
d="M200 1111q-54 0 -92.5 39t-38.5 93q0 53 38 89.5t93 36.5q54 0 92 -36.5t38 -89.5t-38.5 -92.5t-91.5 -39.5zM647 1111q-53 0 -90.5 39t-37.5 93t37 90t91 36t93 -36.5t39 -89.5t-39.5 -92.5t-92.5 -39.5z" />
    <glyph glyph-name="copyright" unicode="&#xa9;" horiz-adv-x="1539" 
d="M772 -12q-150 0 -281 54t-223 147t-144.5 219.5t-52.5 268.5t52.5 268.5t144.5 219.5t223 147t281 54q198 0 358 -92.5t249 -250t89 -346.5t-89 -346.5t-249 -250t-358 -92.5zM772 172q217 2 357.5 146.5t140.5 358.5q0 215 -141 360.5t-357 144.5q-219 -2 -361 -146.5
t-142 -358.5q0 -215 142 -360.5t361 -144.5zM772 489q97 0 148 66l132 -128q-41 -57 -113.5 -94.5t-162.5 -37.5q-157 0 -267 106t-110 272t110 273.5t267 107.5q91 0 163 -38t113 -96l-132 -127q-50 64 -148 64q-78 0 -130 -51t-52 -133t52 -133t130 -51z" />
    <glyph glyph-name="ordfeminine" unicode="&#xaa;" horiz-adv-x="951" 
d="M331 -14q-134 0 -205.5 67t-71.5 187q0 144 117 219.5t402 99.5q0 63 -34.5 86t-102.5 23q-116 0 -221 -62q-31 -15 -47 15l-48 134q-14 31 21 49q165 93 350 93q77 0 142.5 -17.5t116.5 -52t79.5 -91t26.5 -129.5q-4 -119 -2.5 -285.5t16.5 -283.5q2 -16 -6.5 -27
t-25.5 -11h-163q-18 0 -40 30.5t-36 75.5q-110 -120 -268 -120zM401 191q95 0 170 78v113q-137 -7 -196 -33t-59 -82q0 -37 23 -56.5t62 -19.5z" />
    <glyph glyph-name="guillemotleft" unicode="&#xab;" horiz-adv-x="1162" 
d="M94 373l234 -337q8 -17 30 -17h187q24 0 30.5 16.5t-4.5 39.5l-154 321v5l159 318q12 26 4.5 42.5t-30.5 16.5h-177q-23 0 -36 -23l-243 -332q-17 -23 0 -50zM587 373l234 -337q12 -17 29 -17h188q24 0 30.5 16.5t-4.5 39.5l-155 321v5l162 318q11 26 3.5 42.5
t-29.5 16.5h-179q-18 0 -36 -23l-243 -332q-17 -23 0 -50z" />
    <glyph glyph-name="logicalnot" unicode="&#xac;" horiz-adv-x="1055" 
d="M784 215q-14 0 -23 9.5t-9 23.5v294h-632q-13 0 -23 8.5t-10 20.5v154q0 14 9.5 23t23.5 9h819q13 0 21 -8.5t8 -21.5v-479q0 -13 -8.5 -23t-20.5 -10h-155z" />
    <glyph glyph-name="uni00AD" unicode="&#xad;" horiz-adv-x="786" 
d="M699 349q0 -13 -8 -22t-21 -9h-550q-13 0 -23 8.5t-10 20.5v172q0 14 9.5 22.5t23.5 8.5h550q29 0 29 -29v-172z" />
    <glyph glyph-name="registered" unicode="&#xae;" horiz-adv-x="1046" 
d="M524 1371q136 0 249 -64.5t178.5 -178t65.5 -250.5q0 -209 -143 -351.5t-350 -142.5q-209 0 -351.5 142.5t-142.5 351.5t142.5 351t351.5 142zM524 517q154 0 256.5 103t102.5 258q0 156 -102.5 258.5t-256.5 102.5q-156 0 -259.5 -102.5t-103.5 -258.5q0 -155 104 -258
t259 -103zM635 826l84 -151q4 -12 -7 -12h-99q-10 0 -12 3l-75 145h-50v-139q0 -3 -4 -6t-7 -3h-92q-12 0 -12 9v408q0 13 12 13h196q60 0 99.5 -42.5t39.5 -97.5q0 -41 -19.5 -75t-53.5 -52zM474 998v-97h62q29 0 41.5 24.5t0.5 48.5t-42 24h-62z" />
    <glyph glyph-name="macron" unicode="&#xaf;" horiz-adv-x="768" 
d="M69 1309q0 13 9.5 22t22.5 9h567q13 0 22 -8.5t9 -22.5v-170q0 -13 -9 -22.5t-22 -9.5h-567q-13 0 -22.5 8.5t-9.5 21.5v172z" />
    <glyph glyph-name="degree" unicode="&#xb0;" horiz-adv-x="694" 
d="M347 876q-109 0 -184.5 76.5t-75.5 184.5t75.5 184t184.5 76q110 0 185 -75.5t75 -184.5t-75 -185t-185 -76zM347 1052q36 0 60.5 24.5t24.5 60.5t-24.5 60.5t-60.5 24.5q-35 0 -60 -25t-25 -60t25 -60t60 -25z" />
    <glyph glyph-name="plusminus" unicode="&#xb1;" horiz-adv-x="1046" 
d="M929 1031q13 0 22 -8.5t9 -22.5v-191q0 -13 -9 -23t-22 -10h-278v-278q0 -13 -8.5 -22t-22.5 -9h-191q-14 0 -23.5 9t-9.5 22v278h-278q-13 0 -22 9t-9 22v193q0 13 9 22t22 9h278v278q0 13 8.5 21t22.5 8h193q13 0 22 -8t9 -21v-278h278zM927 234q13 0 22 -7.5t9 -19.5
v-177q0 -12 -9 -21t-22 -9h-809q-13 0 -22 8t-9 20v177q0 13 8.5 21t22.5 8h809z" />
    <glyph glyph-name="uni00B2" unicode="&#xb2;" horiz-adv-x="1060" 
d="M958 255q31 0 31 -31v-193q0 -13 -9 -22t-22 -9h-828q-12 0 -22.5 9.5t-10.5 21.5v61l458 569q70 85 100.5 142.5t30.5 114.5q0 71 -49 124t-127 53q-42 0 -79 -15t-68.5 -44t-50 -50.5t-43.5 -56.5q-20 -23 -45 0l-144 128q-9 7 -9.5 20t7.5 22q93 132 201 199.5
t250 67.5q189 0 314.5 -112.5t124.5 -297.5q0 -163 -121 -314l-316 -387h427z" />
    <glyph glyph-name="uni00B3" unicode="&#xb3;" horiz-adv-x="1089" 
d="M646 814q93 -7 165.5 -41t115.5 -87.5t65 -118t22 -138.5q0 -99 -39 -183.5t-105 -141.5t-154 -89t-185 -32q-130 0 -245 57t-197 173q-10 14 -10.5 22.5t11.5 21.5l151 142q26 26 44 -3q94 -144 241 -144q94 0 146.5 53t52.5 131q0 75 -46 125t-129 50q-32 0 -100 -17
q-20 0 -30 13l-99 138q-17 26 2 45l304 310h-440q-13 0 -22 8.5t-9 21.5v193q0 13 9 22t22 9h714q31 0 31 -31v-186q0 -34 -23 -56z" />
    <glyph glyph-name="acute" unicode="&#xb4;" horiz-adv-x="650" 
d="M564 1178q13 4 16.5 17t-6.5 30l-102 183q-7 11 -21 11t-26 -8l-343 -233q-8 -4 -11 -14t4 -22l74 -125q13 -23 44 -9z" />
    <glyph glyph-name="paragraph" unicode="&#xb6;" horiz-adv-x="1523" 
d="M1399 1354q47 0 47 -45v-200q0 -45 -47 -45h-92v-1031q0 -13 -9 -23t-21 -10h-230q-14 0 -23 9.5t-9 23.5v1031h-95v-1031q0 -13 -9 -23t-22 -10h-231q-14 0 -22.5 9.5t-8.5 23.5v432h-110q-129 0 -230.5 64t-155 166t-53.5 221q0 81 31.5 159t87.5 140.5t140 100.5
t180 38h882zM627 752v312h-89q-72 0 -112.5 -46.5t-40.5 -108.5q0 -63 40.5 -110t112.5 -47h89z" />
    <glyph glyph-name="periodcentered" unicode="&#xb7;" horiz-adv-x="494" 
d="M257 302q-67 0 -114.5 48t-47.5 115t47.5 114.5t114.5 47.5t115 -47.5t48 -114.5t-48 -115t-115 -48z" />
    <glyph glyph-name="cedilla" unicode="&#xb8;" horiz-adv-x="562" 
d="M302 -115q81 -14 135 -76.5t54 -145.5q0 -92 -69 -159.5t-165 -67.5q-105 0 -175 82q-11 14 1 26l70 65q14 14 29 4q37 -31 71 -31q39 0 62 23t23 58q0 34 -22.5 57t-60.5 23q-35 0 -71 -33q-9 -13 -23 -3l-79 66q-12 7 -4 20q0 1 1 2t1 2l106 203h173z" />
    <glyph glyph-name="uni00B9" unicode="&#xb9;" horiz-adv-x="652" 
d="M533 1354q13 0 22 -9t9 -21v-1293q0 -13 -8 -22t-21 -9h-228q-14 0 -23.5 9t-9.5 22v932q-84 -25 -170 -33q-32 0 -35 25l-15 159q-2 14 4 22t24 15q73 26 121.5 70.5t89.5 118.5q6 14 28 14h212z" />
    <glyph glyph-name="ordmasculine" unicode="&#xba;" horiz-adv-x="1044" 
d="M522 -14q-200 0 -334 127t-134 328t134 328.5t334 127.5t334.5 -127.5t134.5 -328.5t-134.5 -328t-334.5 -127zM522 226q92 0 151 60.5t59 154.5t-59 155.5t-151 61.5t-151 -61.5t-59 -155.5t59 -154.5t151 -60.5z" />
    <glyph glyph-name="guillemotright" unicode="&#xbb;" horiz-adv-x="1162" 
d="M576 373q17 27 0 50l-243 332q-18 23 -36 23h-177q-23 0 -30.5 -16.5t2.5 -42.5l161 -318v-5l-154 -321q-11 -23 -4.5 -39.5t30.5 -16.5h187q18 0 30 17zM1069 373q17 27 0 50l-241 332q-18 23 -38 23h-177q-23 0 -30.5 -16.5t4.5 -42.5l161 -318v-5l-156 -321
q-11 -23 -4 -39.5t30 -16.5h187q20 0 32 17z" />
    <glyph glyph-name="onequarter" unicode="&#xbc;" horiz-adv-x="1240" 
d="M222 800v384l-111 -21q-22 0 -22 15l-2 66q0 18 15 23q69 26 120 99q18 22 33 22h73q9 0 15 -5.5t6 -13.5v-569q0 -9 -6 -15t-15 -6h-85q-21 0 -21 21zM1010 1388q19 0 25.5 -10t-1.5 -26l-701 -1329q-10 -23 -34 -23h-73q-18 0 -25 10t2 26l700 1330q12 22 36 22h71z
M1139 259q15 0 15 -16v-87q0 -14 -15 -14h-44v-128q0 -14 -14 -14h-87q-15 0 -15 14v128h-226q-15 0 -15 14v103q89 67 142.5 159.5t53.5 188.5q0 16 15 16h92q13 0 13 -16q-1 -111 -43.5 -193.5t-127.5 -154.5h96v22q0 16 12 16l89 7q15 0 15 -16v-29h44z" />
    <glyph glyph-name="onehalf" unicode="&#xbd;" horiz-adv-x="1294" 
d="M222 800v384l-111 -21q-22 0 -22 15l-2 66q0 18 15 23q69 26 120 99q18 22 33 22h73q9 0 15 -5.5t6 -13.5v-569q0 -9 -6 -15t-15 -6h-85q-21 0 -21 21zM1010 1388q19 0 25.5 -10t-1.5 -26l-701 -1329q-10 -23 -34 -23h-73q-18 0 -25 10t2 26l700 1330q12 22 36 22h71z
M1194 125q12 0 12 -14v-94q0 -17 -12 -17h-380q-7 0 -11.5 5t-4.5 12v23l70 85h2l144 175q2 2 10.5 13t11.5 14.5t10.5 13.5t10.5 15t8 14.5t7 16t4 15t2 16.5q0 39 -28 65t-69 26q-59 0 -120 -68q-12 -16 -21 0l-59 61q-11 8 -2 20q38 53 92 80.5t113 27.5q92 0 152 -56.5
t60 -146.5q0 -76 -44 -132l-137 -170h179z" />
    <glyph glyph-name="threequarters" unicode="&#xbe;" horiz-adv-x="1230" 
d="M495 949q0 -85 -63.5 -138t-152.5 -53q-121 0 -204 106q-9 12 0 21l55 57q9 11 21 -1q66 -75 128 -75q42 0 70.5 24.5t28.5 65.5q0 47 -37 71t-101 -1l-59 67q-6 11 0 21l140 158h-210q-16 0 -16 12v87q0 17 16 17h347q16 0 16 -15v-82q0 -8 -16 -26l-125 -137
q71 -2 116.5 -55.5t45.5 -123.5zM1022 1388q18 0 25 -10t-2 -26l-700 -1329q-13 -23 -36 -23h-71q-19 0 -26 10t1 26l702 1330q10 22 34 22h73zM1145 259q16 0 16 -16v-87q0 -14 -16 -14h-43v-128q0 -14 -14 -14h-87q-15 0 -15 14v128h-226q-14 0 -14 14v103
q88 67 141.5 160t53.5 188q0 16 15 16h92q12 0 12 -16q-1 -111 -43 -194t-127 -154h96v22q0 16 14 16l86 7q16 0 16 -16v-29h43z" />
    <glyph glyph-name="questiondown" unicode="&#xbf;" horiz-adv-x="817" 
d="M422 897q67 0 114 -48.5t47 -116.5q0 -67 -47 -113t-114 -46t-116 46.5t-49 112.5q0 67 49 116t116 49zM776 -276q17 -19 2 -38q-149 -181 -374 -181q-164 0 -266.5 93.5t-102.5 240.5q0 81 34 140.5t110 133.5q76 72 102 109.5t26 84.5v96q0 13 9 23t21 10h192
q13 0 22.5 -9.5t9.5 -23.5v-132q0 -118 -118 -217q-43 -39 -62 -57.5t-39.5 -53t-20.5 -66.5q0 -50 36.5 -81.5t93.5 -31.5q27 0 50 7t46 25t35.5 30t38.5 39q22 19 39 0z" />
    <glyph glyph-name="Agrave" unicode="&#xc0;" horiz-adv-x="1444" 
d="M488 1682q-13 4 -16.5 17t4.5 30l104 182q15 23 47 3l343 -232q8 -4 10.5 -14t-3.5 -23l-74 -125q-12 -22 -44 -8zM1402 43q9 -23 1.5 -33t-25.5 -10h-243q-22 0 -40 40l-55 127h-636l-55 -127q-18 -40 -40 -40h-245q-16 0 -23.5 10t1.5 33l581 1285q15 26 37 26h124
q24 0 35 -26zM509 401h426l-213 479z" />
    <glyph glyph-name="Aacute" unicode="&#xc1;" horiz-adv-x="1444" 
d="M542 1520l-75 125q-7 12 -4 22.5t11 14.5l343 232q12 8 26 8t21 -11l103 -182q10 -18 6 -30.5t-17 -16.5l-371 -170q-31 -13 -43 8zM1402 43q9 -23 1.5 -33t-25.5 -10h-243q-22 0 -40 40l-55 127h-636l-55 -127q-18 -40 -40 -40h-245q-16 0 -23.5 10t1.5 33l581 1285
q15 26 37 26h124q24 0 35 -26zM509 401h426l-213 479z" />
    <glyph glyph-name="Acircumflex" unicode="&#xc2;" horiz-adv-x="1444" 
d="M420 1548q-22 -10 -37 -2t-15 32v132q0 21 23 31l307 186q22 14 48 0l308 -186q22 -9 22 -31v-132q0 -24 -15.5 -32t-36.5 2l-302 144zM1402 43q9 -23 1.5 -33t-25.5 -10h-243q-22 0 -40 40l-55 127h-636l-55 -127q-18 -40 -40 -40h-245q-16 0 -23.5 10t1.5 33l581 1285
q15 26 37 26h124q24 0 35 -26zM509 401h426l-213 479z" />
    <glyph glyph-name="Atilde" unicode="&#xc3;" horiz-adv-x="1444" 
d="M399 1585l-80 93q-15 18 2 44q1 2 20 25.5t34.5 38t42.5 35t61.5 31t74.5 10.5q48 0 91 -15t69.5 -32.5t61.5 -32.5t69 -15q77 0 141 64q20 20 38 -2l80 -93q16 -20 -2 -44q-2 -2 -16.5 -21t-24.5 -30.5t-32 -30.5t-42.5 -30.5t-51.5 -20.5t-64 -9q-43 0 -83 15t-67 33.5
t-64.5 33.5t-76.5 15q-33 0 -63 -12t-44 -23t-34 -29q-21 -21 -40 2zM1402 43q9 -23 1.5 -33t-25.5 -10h-243q-22 0 -40 40l-55 127h-636l-55 -127q-18 -40 -40 -40h-245q-16 0 -23.5 10t1.5 33l581 1285q15 26 37 26h124q24 0 35 -26zM509 401h426l-213 479z" />
    <glyph glyph-name="Adieresis" unicode="&#xc4;" horiz-adv-x="1444" 
d="M498 1614q-54 0 -92 39t-38 93q0 53 37.5 90t92.5 37q54 0 92 -37t38 -90t-38.5 -92.5t-91.5 -39.5zM946 1614q-53 0 -91 39t-38 93t37.5 90.5t91.5 36.5t93 -37t39 -90t-39.5 -92.5t-92.5 -39.5zM1402 43q9 -23 1.5 -33t-25.5 -10h-243q-22 0 -40 40l-55 127h-636
l-55 -127q-18 -40 -40 -40h-245q-16 0 -23.5 10t1.5 33l581 1285q15 26 37 26h124q24 0 35 -26zM509 401h426l-213 479z" />
    <glyph glyph-name="Aring" unicode="&#xc5;" horiz-adv-x="1444" 
d="M722 1487q-82 0 -141.5 59.5t-59.5 142.5t59.5 142t141.5 59t141 -59t59 -142t-59 -142.5t-141 -59.5zM722 1762q-31 0 -52 -20.5t-21 -52.5q0 -31 21 -51t52 -20q29 0 51 20t22 51t-22 52t-51 21zM1402 43q9 -23 1.5 -33t-25.5 -10h-243q-22 0 -40 40l-55 127h-636
l-55 -127q-18 -40 -40 -40h-245q-16 0 -23.5 10t1.5 33l581 1285q15 26 37 26h124q24 0 35 -26zM509 401h426l-213 479z" />
    <glyph glyph-name="AE" unicode="&#xc6;" horiz-adv-x="1921" 
d="M1845 262q13 0 22 -9t9 -22v-200q0 -13 -8.5 -22t-22.5 -9h-852q-12 0 -21 9.5t-9 21.5v141h-496l-94 -151q-15 -21 -35 -21h-276q-16 0 -23 10.5t3 24.5l822 1291q16 28 33 28h929q13 0 22 -9t9 -22v-198q0 -14 -8.5 -23.5t-22.5 -9.5h-573v-276h427q14 0 23.5 -9
t9.5 -23v-197q0 -14 -9.5 -23t-23.5 -9h-427v-293h592zM614 413h349v564z" />
    <glyph glyph-name="Ccedilla" unicode="&#xc7;" horiz-adv-x="1369" 
d="M1286 243q24 -21 0 -45q-185 -184 -443 -207l-52 -106q81 -15 135.5 -77t54.5 -145q0 -92 -69.5 -159.5t-165.5 -67.5q-105 0 -175 82q-10 13 2 26l69 65q15 15 30 4q37 -31 71 -31q39 0 62 23t23 58q0 34 -22.5 57t-60.5 23q-36 0 -72 -33q-9 -12 -22 -3l-80 66
q-11 6 -3 20q0 1 0.5 2t0.5 2l103 198q-174 21 -310.5 113.5t-213.5 241t-77 327.5q0 196 91 353.5t252 246.5t360 89q299 0 512 -210q24 -24 0 -45l-170 -151q-20 -20 -43 0q-123 123 -295 123q-178 0 -294 -118.5t-116 -287.5t116 -287.5t294 -118.5q172 0 295 123
q23 20 43 0z" />
    <glyph glyph-name="Egrave" unicode="&#xc8;" 
d="M380 1647q-13 4 -16.5 17t4.5 30l104 182q15 24 47 4l344 -233q8 -4 10.5 -13.5t-3.5 -22.5l-75 -125q-13 -22 -43 -9zM1005 262q13 0 22 -9t9 -22v-200q0 -13 -8.5 -22t-22.5 -9h-851q-13 0 -22 9.5t-9 21.5v1292q0 13 8.5 22t22.5 9h832q13 0 23 -9t10 -22v-198
q0 -14 -9.5 -23.5t-23.5 -9.5h-573v-276h429q13 0 22 -9t9 -23v-197q0 -14 -8.5 -23t-22.5 -9h-429v-293h592z" />
    <glyph glyph-name="Eacute" unicode="&#xc9;" 
d="M434 1486l-75 125q-7 12 -4 22t11 14l344 233q10 8 25 7.5t22 -11.5l102 -182q10 -17 6.5 -30t-16.5 -17l-372 -170q-30 -13 -43 9zM1005 262q13 0 22 -9t9 -22v-200q0 -13 -8.5 -22t-22.5 -9h-851q-13 0 -22 9.5t-9 21.5v1292q0 13 8.5 22t22.5 9h832q13 0 23 -9t10 -22
v-198q0 -14 -9.5 -23.5t-23.5 -9.5h-573v-276h429q13 0 22 -9t9 -23v-197q0 -14 -8.5 -23t-22.5 -9h-429v-293h592z" />
    <glyph glyph-name="Ecircumflex" unicode="&#xca;" 
d="M312 1513q-22 -10 -37 -2t-15 32v132q0 21 23 31l307 186q23 15 49 0l307 -186q22 -9 22 -31v-132q0 -24 -15.5 -32t-36.5 2l-302 144zM1005 262q13 0 22 -9t9 -22v-200q0 -13 -8.5 -22t-22.5 -9h-851q-13 0 -22 9.5t-9 21.5v1292q0 13 8.5 22t22.5 9h832q13 0 23 -9
t10 -22v-198q0 -14 -9.5 -23.5t-23.5 -9.5h-573v-276h429q13 0 22 -9t9 -23v-197q0 -14 -8.5 -23t-22.5 -9h-429v-293h592z" />
    <glyph glyph-name="Edieresis" unicode="&#xcb;" 
d="M391 1579q-54 0 -92.5 39t-38.5 93q0 53 38 90t93 37q54 0 92 -37t38 -90t-38.5 -92.5t-91.5 -39.5zM838 1579q-53 0 -90.5 39t-37.5 93t37 90.5t91 36.5t93 -37t39 -90t-39.5 -92.5t-92.5 -39.5zM1005 262q13 0 22 -9t9 -22v-200q0 -13 -8.5 -22t-22.5 -9h-851
q-13 0 -22 9.5t-9 21.5v1292q0 13 8.5 22t22.5 9h832q13 0 23 -9t10 -22v-198q0 -14 -9.5 -23.5t-23.5 -9.5h-573v-276h429q13 0 22 -9t9 -23v-197q0 -14 -8.5 -23t-22.5 -9h-429v-293h592z" />
    <glyph glyph-name="Igrave" unicode="&#xcc;" horiz-adv-x="536" 
d="M33 1647l371 -170q31 -14 44 9l74 125q6 13 3.5 22.5t-10.5 13.5l-343 233q-32 20 -47 -4l-104 -182q-8 -17 -4.5 -30t16.5 -17zM154 0q-14 0 -22.5 9t-8.5 22v1292q0 13 8.5 22t22.5 9h228q13 0 22 -9t9 -22v-1292q0 -12 -8.5 -21.5t-20.5 -9.5h-230z" />
    <glyph glyph-name="Iacute" unicode="&#xcd;" horiz-adv-x="536" 
d="M498 1656q12 6 15.5 18t-4.5 30l-105 181q-14 23 -46 3l-344 -231q-19 -15 -7 -36l75 -125q13 -22 43 -10zM154 0q-14 0 -22.5 9t-8.5 22v1292q0 13 8.5 22t22.5 9h228q13 0 22 -9t9 -22v-1292q0 -12 -8.5 -21.5t-20.5 -9.5h-230z" />
    <glyph glyph-name="Icircumflex" unicode="&#xce;" horiz-adv-x="536" 
d="M281 1902q-23 13 -48 0l-308 -185q-22 -13 -22 -32v-133q0 -23 14.5 -30.5t37.5 2.5l302 144l302 -144q21 -10 36.5 -2.5t15.5 30.5v133q0 19 -23 32zM154 0q-14 0 -22.5 9t-8.5 22v1292q0 13 8.5 22t22.5 9h228q13 0 22 -9t9 -22v-1292q0 -12 -8.5 -21.5t-20.5 -9.5
h-230z" />
    <glyph glyph-name="Idieresis" unicode="&#xcf;" horiz-adv-x="536" 
d="M31 1590q-53 0 -90.5 39t-37.5 91q0 53 37.5 90.5t90.5 37.5q55 0 93.5 -37.5t38.5 -90.5q0 -52 -39 -91t-93 -39zM481 1590q-53 0 -91.5 39t-38.5 91q0 54 38 91t92 37q52 0 91 -37.5t39 -90.5q0 -52 -39 -91t-91 -39zM154 0q-14 0 -22.5 9t-8.5 22v1292q0 13 8.5 22
t22.5 9h228q13 0 22 -9t9 -22v-1292q0 -12 -8.5 -21.5t-20.5 -9.5h-230z" />
    <glyph glyph-name="Eth" unicode="&#xd0;" horiz-adv-x="1416" 
d="M614 1354q169 0 306 -53.5t225 -146.5t135.5 -215t47.5 -262q0 -138 -47.5 -260t-135.5 -215.5t-224.5 -147.5t-302.5 -54h-498q-14 0 -22.5 9t-8.5 22v509h-75q-13 0 -22 8.5t-9 22.5v198q0 14 9 23.5t22 9.5h75v521q0 13 8.5 22t22.5 9h494zM620 262q197 0 304 113
t107 302q-2 190 -107.5 302.5t-303.5 112.5h-242v-290h205q13 0 22 -8.5t9 -21.5v-199q0 -14 -8.5 -23.5t-22.5 -9.5h-205v-278h242z" />
    <glyph glyph-name="Ntilde" unicode="&#xd1;" horiz-adv-x="1454" 
d="M876 1515q-43 0 -83 15t-67 33.5t-64.5 33.5t-76.5 15q-33 0 -63 -12t-44 -23t-34 -29q-21 -21 -40 2l-79 94q-15 18 1 43q2 2 20.5 25.5t34 38.5t42.5 35.5t61.5 31t74.5 10.5q48 0 91 -15t69.5 -33t61.5 -33t69 -15q77 0 141 64q20 20 38 -1l80 -94q16 -20 -2 -44
q-2 -2 -16.5 -21t-24.5 -30.5t-32 -30.5t-42.5 -30.5t-51.5 -20.5t-64 -9zM1300 1354q14 0 22.5 -9t8.5 -22v-1293q0 -12 -8.5 -21t-20.5 -9h-228q-33 0 -53 30l-608 860v-859q0 -12 -8.5 -21.5t-20.5 -9.5h-230q-14 0 -22.5 9t-8.5 22v1293q0 12 8.5 21t21.5 9h227
q34 0 54 -30l607 -833v832q0 12 9 21.5t21 9.5h229z" />
    <glyph glyph-name="Ograve" unicode="&#xd2;" horiz-adv-x="1539" 
d="M535 1647l371 -170q30 -13 43 9l75 125q6 13 3.5 22.5t-10.5 13.5l-344 233q-31 20 -46 -4l-105 -182q-8 -17 -4 -30t17 -17zM771 -12q-199 0 -360 92.5t-250.5 250t-89.5 346.5t89.5 346.5t250.5 250t360 92.5t359.5 -92.5t249 -249.5t88.5 -347t-88.5 -347t-249 -249.5
t-359.5 -92.5zM771 271q175 0 288 117t113 289q0 173 -113 290t-288 116q-117 -1 -209.5 -55t-143 -146t-50.5 -205q0 -173 113.5 -289.5t289.5 -116.5z" />
    <glyph glyph-name="Oacute" unicode="&#xd3;" horiz-adv-x="1539" 
d="M1005 1647q13 4 16.5 17t-6.5 30l-102 182q-7 11 -22 11.5t-25 -7.5l-344 -233q-8 -4 -11 -14t4 -22l75 -125q13 -22 43 -9zM771 -12q-199 0 -360 92.5t-250.5 250t-89.5 346.5t89.5 346.5t250.5 250t360 92.5t359.5 -92.5t249 -249.5t88.5 -347t-88.5 -347t-249 -249.5
t-359.5 -92.5zM771 271q175 0 288 117t113 289q0 173 -113 290t-288 116q-117 -1 -209.5 -55t-143 -146t-50.5 -205q0 -173 113.5 -289.5t289.5 -116.5z" />
    <glyph glyph-name="Ocircumflex" unicode="&#xd4;" horiz-adv-x="1539" 
d="M793 1892q-26 14 -48 0l-308 -186q-22 -9 -22 -31v-132q0 -24 14.5 -32t37.5 2l302 144l302 -144q21 -10 36.5 -2t15.5 32v132q0 21 -23 31zM771 -12q-199 0 -360 92.5t-250.5 250t-89.5 346.5t89.5 346.5t250.5 250t360 92.5t359.5 -92.5t249 -249.5t88.5 -347
t-88.5 -347t-249 -249.5t-359.5 -92.5zM771 271q175 0 288 117t113 289q0 173 -113 290t-288 116q-117 -1 -209.5 -55t-143 -146t-50.5 -205q0 -173 113.5 -289.5t289.5 -116.5z" />
    <glyph glyph-name="Otilde" unicode="&#xd5;" horiz-adv-x="1539" 
d="M918 1515q-43 0 -83 15t-67 33.5t-64.5 33.5t-76.5 15q-33 0 -63 -12t-44 -23t-34 -29q-21 -21 -40 2l-80 94q-14 17 2 43q2 2 20.5 25.5t34 38.5t42.5 35.5t61.5 31t74.5 10.5q48 0 91 -15t69.5 -33t61.5 -33t69 -15q77 0 141 64q20 20 38 -1l80 -94q16 -20 -2 -44
q-2 -2 -16.5 -21t-24.5 -30.5t-32 -30.5t-42.5 -30.5t-51.5 -20.5t-64 -9zM771 -12q-199 0 -360 92.5t-250.5 250t-89.5 346.5t89.5 346.5t250.5 250t360 92.5t359.5 -92.5t249 -249.5t88.5 -347t-88.5 -347t-249 -249.5t-359.5 -92.5zM771 271q175 0 288 117t113 289
q0 173 -113 290t-288 116q-117 -1 -209.5 -55t-143 -146t-50.5 -205q0 -173 113.5 -289.5t289.5 -116.5z" />
    <glyph glyph-name="Odieresis" unicode="&#xd6;" horiz-adv-x="1539" 
d="M545 1579q-54 0 -92 39t-38 93q0 53 37.5 90t92.5 37q54 0 92 -37t38 -90t-38.5 -92.5t-91.5 -39.5zM993 1579q-53 0 -91 39t-38 93t37.5 90.5t91.5 36.5t93 -37t39 -90t-39.5 -92.5t-92.5 -39.5zM771 -12q-199 0 -360 92.5t-250.5 250t-89.5 346.5t89.5 346.5t250.5 250
t360 92.5t359.5 -92.5t249 -249.5t88.5 -347t-88.5 -347t-249 -249.5t-359.5 -92.5zM771 271q175 0 288 117t113 289q0 173 -113 290t-288 116q-117 -1 -209.5 -55t-143 -146t-50.5 -205q0 -173 113.5 -289.5t289.5 -116.5z" />
    <glyph glyph-name="multiply" unicode="&#xd7;" horiz-adv-x="989" 
d="M892 456q25 -25 0 -50l-125 -127q-11 -10 -25 -9.5t-25 11.5l-222 222l-223 -222q-11 -11 -25 -11.5t-25 9.5l-125 127q-25 25 0 50l222 223l-224 224q-9 9 -8.5 23.5t10.5 24.5l127 125q12 12 25.5 11.5t22.5 -11.5l223 -222l222 222q24 24 48 0l127 -125
q10 -10 10.5 -24.5t-8.5 -23.5l-224 -224z" />
    <glyph glyph-name="Oslash" unicode="&#xd8;" horiz-adv-x="1548" 
d="M1467 1253l-139 -151q142 -186 142 -425q0 -189 -89 -346.5t-250 -250t-360 -92.5q-201 0 -370 99l-120 -132q-23 -23 -45 0l-147 142q-11 9 -11 21t11 23l114 125q-132 183 -132 411q0 189 89.5 346.5t250.5 250t360 92.5q195 0 354 -90l149 163q22 21 43 0l150 -143
q9 -9 9 -21.5t-9 -21.5zM368 677q0 -102 42 -186l513 564q-66 28 -152 28q-117 -1 -209.5 -55t-143 -146t-50.5 -205zM1172 677q0 109 -49 199l-522 -571q74 -34 170 -34q175 0 288 117t113 289z" />
    <glyph glyph-name="Ugrave" unicode="&#xd9;" horiz-adv-x="1341" 
d="M436 1647l371 -170q30 -13 43 9l75 125q6 13 3.5 22.5t-10.5 13.5l-344 233q-31 20 -46 -4l-105 -182q-8 -17 -4 -30t17 -17zM1196 1354q14 0 22.5 -9t8.5 -22v-821q0 -106 -36.5 -198.5t-105 -163t-176 -111.5t-239.5 -41t-239 41t-175 111.5t-104.5 163t-36.5 198.5
v821q0 13 8.5 22t22.5 9h229q13 0 21 -9t8 -22v-769q0 -132 68.5 -211t197.5 -79t197 79t68 211v769q0 13 9.5 22t22.5 9h229z" />
    <glyph glyph-name="Uacute" unicode="&#xda;" horiz-adv-x="1341" 
d="M906 1647q13 4 16.5 17t-6.5 30l-102 182q-7 11 -22 11.5t-25 -7.5l-344 -233q-8 -4 -10.5 -14t4.5 -22l74 -125q13 -23 44 -9zM1196 1354q14 0 22.5 -9t8.5 -22v-821q0 -106 -36.5 -198.5t-105 -163t-176 -111.5t-239.5 -41t-239 41t-175 111.5t-104.5 163t-36.5 198.5
v821q0 13 8.5 22t22.5 9h229q13 0 21 -9t8 -22v-769q0 -132 68.5 -211t197.5 -79t197 79t68 211v769q0 13 9.5 22t22.5 9h229z" />
    <glyph glyph-name="Ucircumflex" unicode="&#xdb;" horiz-adv-x="1341" 
d="M694 1892q-26 14 -48 0l-308 -186q-22 -9 -22 -31v-132q0 -24 15 -32t37 2l302 144l302 -144q21 -10 36.5 -2t15.5 32v132q0 21 -23 31zM1196 1354q14 0 22.5 -9t8.5 -22v-821q0 -106 -36.5 -198.5t-105 -163t-176 -111.5t-239.5 -41t-239 41t-175 111.5t-104.5 163
t-36.5 198.5v821q0 13 8.5 22t22.5 9h229q13 0 21 -9t8 -22v-769q0 -132 68.5 -211t197.5 -79t197 79t68 211v769q0 13 9.5 22t22.5 9h229z" />
    <glyph glyph-name="Udieresis" unicode="&#xdc;" horiz-adv-x="1341" 
d="M446 1579q-54 0 -92 39t-38 93q0 53 37.5 90t92.5 37q54 0 92 -37t38 -90t-38.5 -92.5t-91.5 -39.5zM894 1579q-53 0 -91 39t-38 93t37.5 90.5t91.5 36.5t93 -37t39 -90t-39.5 -92.5t-92.5 -39.5zM1196 1354q14 0 22.5 -9t8.5 -22v-821q0 -106 -36.5 -198.5t-105 -163
t-176 -111.5t-239.5 -41t-239 41t-175 111.5t-104.5 163t-36.5 198.5v821q0 13 8.5 22t22.5 9h229q13 0 21 -9t8 -22v-769q0 -132 68.5 -211t197.5 -79t197 79t68 211v769q0 13 9.5 22t22.5 9h229z" />
    <glyph glyph-name="Yacute" unicode="&#xdd;" horiz-adv-x="1306" 
d="M474 1486l-75 125q-7 12 -4 22t11 14l344 233q10 8 25 7.5t22 -11.5l102 -182q10 -17 6.5 -30t-16.5 -17l-372 -170q-30 -13 -43 9zM1239 1354q25 0 30.5 -14t-7.5 -31l-464 -769v-510q0 -30 -29 -30h-231q-29 0 -29 30v510l-464 769q-13 17 -7 31t30 14h234q38 0 54 -31
l298 -500l297 500q16 31 54 31h234z" />
    <glyph glyph-name="Thorn" unicode="&#xde;" horiz-adv-x="1185" 
d="M660 1161q146 0 254.5 -65.5t163 -174.5t54.5 -244t-54.5 -243.5t-163 -174t-254.5 -65.5h-243v-161q0 -13 -9.5 -23t-22.5 -10h-229q-15 0 -24 9t-9 24v1290q0 13 8.5 22t22.5 9h230q13 0 23 -9t10 -22v-162h243zM654 476q95 0 145.5 56.5t50.5 144.5t-50.5 145.5
t-145.5 57.5h-237v-404h237z" />
    <glyph glyph-name="germandbls" unicode="&#xdf;" horiz-adv-x="1157" 
d="M856 705q105 -38 163.5 -120.5t58.5 -207.5q0 -177 -109.5 -277t-284.5 -100h-92q-35 0 -35 30v177q0 31 35 31h22q90 0 137 42.5t47 125.5q0 168 -182 168h-29q-32 0 -32 30v160q0 31 32 31h29q75 0 111.5 43.5t36.5 102.5q0 84 -50.5 128t-139.5 44q-93 0 -148 -50
t-55 -143l-1 -889q0 -13 -9 -22t-21 -9h-222q-13 0 -22 9t-9 22l2 887q0 219 126.5 333.5t350.5 114.5q208 0 331.5 -94t123.5 -265q0 -33 -2 -58t-11.5 -62t-26 -65t-48.5 -59t-77 -53v-5z" />
    <glyph glyph-name="agrave" unicode="&#xe0;" horiz-adv-x="951" 
d="M248 1161l372 -170q30 -13 43 9l75 125q6 13 3.5 22.5t-10.5 13.5l-344 233q-32 20 -47 -4l-104 -182q-8 -17 -4.5 -30t16.5 -17zM331 -14q-134 0 -205.5 67t-71.5 187q0 144 117 219.5t402 99.5q0 63 -34.5 86t-102.5 23q-116 0 -221 -62q-31 -15 -47 15l-48 134
q-14 31 21 49q165 93 350 93q77 0 142.5 -17.5t116.5 -52t79.5 -91t26.5 -129.5q-4 -119 -2.5 -285.5t16.5 -283.5q2 -16 -6.5 -27t-25.5 -11h-163q-18 0 -40 30.5t-36 75.5q-110 -120 -268 -120zM401 191q95 0 170 78v113q-137 -7 -196 -33t-59 -82q0 -37 23 -56.5
t62 -19.5z" />
    <glyph glyph-name="aacute" unicode="&#xe1;" horiz-adv-x="951" 
d="M719 1161q13 4 16.5 17t-6.5 30l-102 182q-7 11 -22 11.5t-25 -7.5l-344 -233q-8 -4 -11 -14t4 -22l75 -125q13 -22 43 -9zM331 -14q-134 0 -205.5 67t-71.5 187q0 144 117 219.5t402 99.5q0 63 -34.5 86t-102.5 23q-116 0 -221 -62q-31 -15 -47 15l-48 134q-14 31 21 49
q165 93 350 93q77 0 142.5 -17.5t116.5 -52t79.5 -91t26.5 -129.5q-4 -119 -2.5 -285.5t16.5 -283.5q2 -16 -6.5 -27t-25.5 -11h-163q-18 0 -40 30.5t-36 75.5q-110 -120 -268 -120zM401 191q95 0 170 78v113q-137 -7 -196 -33t-59 -82q0 -37 23 -56.5t62 -19.5z" />
    <glyph glyph-name="acircumflex" unicode="&#xe2;" horiz-adv-x="951" 
d="M507 1406q-26 15 -49 0l-307 -186q-23 -10 -23 -31v-132q0 -24 15 -32t38 2l301 145l302 -145q21 -10 37 -2t16 32v132q0 21 -23 31zM331 -14q-134 0 -205.5 67t-71.5 187q0 144 117 219.5t402 99.5q0 63 -34.5 86t-102.5 23q-116 0 -221 -62q-31 -15 -47 15l-48 134
q-14 31 21 49q165 93 350 93q77 0 142.5 -17.5t116.5 -52t79.5 -91t26.5 -129.5q-4 -119 -2.5 -285.5t16.5 -283.5q2 -16 -6.5 -27t-25.5 -11h-163q-18 0 -40 30.5t-36 75.5q-110 -120 -268 -120zM401 191q95 0 170 78v113q-137 -7 -196 -33t-59 -82q0 -37 23 -56.5
t62 -19.5z" />
    <glyph glyph-name="atilde" unicode="&#xe3;" horiz-adv-x="951" 
d="M632 1029q-43 0 -83.5 15t-67 33.5t-64.5 33.5t-77 15q-33 0 -62.5 -12t-43.5 -22.5t-34 -29.5q-21 -21 -40 2l-80 94q-14 17 2 43q2 2 20.5 25.5t34 38.5t42 35.5t61 31t74.5 10.5q48 0 91.5 -15t69.5 -33t61.5 -33t69.5 -15t63 11.5t43.5 22.5t33.5 30q20 20 38 -1
l80 -94q16 -20 -1 -43q-2 -2 -16.5 -20.5t-24.5 -30.5t-32 -31.5t-42.5 -31t-51.5 -20.5t-64 -9zM331 -14q-134 0 -205.5 67t-71.5 187q0 144 117 219.5t402 99.5q0 63 -34.5 86t-102.5 23q-116 0 -221 -62q-31 -15 -47 15l-48 134q-14 31 21 49q165 93 350 93
q77 0 142.5 -17.5t116.5 -52t79.5 -91t26.5 -129.5q-4 -119 -2.5 -285.5t16.5 -283.5q2 -16 -6.5 -27t-25.5 -11h-163q-18 0 -40 30.5t-36 75.5q-110 -120 -268 -120zM401 191q95 0 170 78v113q-137 -7 -196 -33t-59 -82q0 -37 23 -56.5t62 -19.5z" />
    <glyph glyph-name="adieresis" unicode="&#xe4;" horiz-adv-x="951" 
d="M259 1093q-54 0 -92.5 39t-38.5 93q0 53 38 90t93 37q54 0 92 -37t38 -90t-38.5 -92.5t-91.5 -39.5zM706 1093q-53 0 -90.5 39t-37.5 93t37 90.5t91 36.5t93 -37t39 -90t-39.5 -92.5t-92.5 -39.5zM331 -14q-134 0 -205.5 67t-71.5 187q0 144 117 219.5t402 99.5
q0 63 -34.5 86t-102.5 23q-116 0 -221 -62q-31 -15 -47 15l-48 134q-14 31 21 49q165 93 350 93q77 0 142.5 -17.5t116.5 -52t79.5 -91t26.5 -129.5q-4 -119 -2.5 -285.5t16.5 -283.5q2 -16 -6.5 -27t-25.5 -11h-163q-18 0 -40 30.5t-36 75.5q-110 -120 -268 -120zM401 191
q95 0 170 78v113q-137 -7 -196 -33t-59 -82q0 -37 23 -56.5t62 -19.5z" />
    <glyph glyph-name="aring" unicode="&#xe5;" horiz-adv-x="951" 
d="M484 967q-82 0 -141.5 59t-59.5 142t59.5 142t141.5 59t141 -59t59 -142t-59 -142t-141 -59zM484 1097q29 0 51 20t22 51t-22 52t-51 21q-31 0 -52 -20.5t-21 -52.5q0 -31 21 -51t52 -20zM331 -14q-134 0 -205.5 67t-71.5 187q0 144 117 219.5t402 99.5q0 63 -34.5 86
t-102.5 23q-116 0 -221 -62q-31 -15 -47 15l-48 134q-14 31 21 49q165 93 350 93q77 0 142.5 -17.5t116.5 -52t79.5 -91t26.5 -129.5q-4 -119 -2.5 -285.5t16.5 -283.5q2 -16 -6.5 -27t-25.5 -11h-163q-18 0 -40 30.5t-36 75.5q-110 -120 -268 -120zM401 191q95 0 170 78
v113q-137 -7 -196 -33t-59 -82q0 -37 23 -56.5t62 -19.5z" />
    <glyph glyph-name="ae" unicode="&#xe6;" horiz-adv-x="1527" 
d="M1474 488q0 -150 -186 -150h-413q53 -128 244 -128q100 0 176 49q15 9 27.5 7t24.5 -18l47 -66q18 -25 -6 -55q-107 -141 -324 -141q-114 0 -208.5 38.5t-157.5 110.5q-63 -75 -168.5 -112t-196.5 -37q-135 0 -207 67t-72 187q0 144 117 219.5t402 99.5q0 63 -34.5 86
t-102.5 23q-116 0 -221 -62q-31 -15 -47 15l-48 134q-14 31 21 49q165 93 350 93q181 0 250 -100q123 100 297 100q103 0 187 -34.5t137.5 -92t82.5 -130.5t29 -152zM1038 666q-132 0 -172 -138h337q-30 138 -165 138zM411 191q51 0 105.5 27.5t94.5 73.5q-15 41 -19 90
q-154 -7 -215 -33.5t-61 -81.5q0 -37 25.5 -56.5t69.5 -19.5z" />
    <glyph glyph-name="ccedilla" unicode="&#xe7;" horiz-adv-x="899" 
d="M835 115q-123 -114 -273 -127l-52 -103q81 -14 135 -76.5t54 -145.5q0 -92 -69 -159.5t-165 -67.5q-105 0 -175 82q-10 13 2 26l69 65q15 15 30 4q37 -31 71 -31q39 0 62 23t23 58q0 33 -23 56.5t-61 23.5q-35 0 -71 -33q-9 -12 -22 -3l-80 66q-12 7 -4 20q0 1 1 2t1 2
l106 203h10q-151 37 -250.5 157t-99.5 286q0 131 65.5 236.5t171.5 161.5t228 56q179 0 314 -128q22 -19 4 -45l-96 -123q-22 -26 -57 -2q-70 59 -151 59q-97 0 -159 -61.5t-62 -153.5t62.5 -154.5t158.5 -62.5q79 0 153 59q35 24 57 -2l94 -123q20 -23 -2 -45z" />
    <glyph glyph-name="egrave" unicode="&#xe8;" horiz-adv-x="992" 
d="M262 1178q-13 4 -16.5 17t4.5 30l104 183q15 23 47 3l344 -233q8 -4 10.5 -13.5t-3.5 -22.5l-75 -125q-13 -23 -44 -9zM939 488q0 -150 -186 -150h-413q56 -128 247 -128q97 0 175 49q15 9 27 7t25 -18l45 -66q20 -24 -5 -55q-107 -141 -325 -141q-209 0 -342 125
t-133 330q0 198 124 327t327 129q103 0 187 -34.5t137 -92t81.5 -130.5t28.5 -152zM505 666q-68 0 -111.5 -37.5t-60.5 -100.5h337q-34 138 -165 138z" />
    <glyph glyph-name="eacute" unicode="&#xe9;" horiz-adv-x="992" 
d="M318 1017l-75 125q-7 12 -4 22t11 14l344 233q12 8 25.5 8t20.5 -11l103 -183q10 -18 6 -30.5t-17 -16.5l-371 -170q-30 -13 -43 9zM939 488q0 -150 -186 -150h-413q56 -128 247 -128q97 0 175 49q15 9 27 7t25 -18l45 -66q20 -24 -5 -55q-107 -141 -325 -141
q-209 0 -342 125t-133 330q0 198 124 327t327 129q103 0 187 -34.5t137 -92t81.5 -130.5t28.5 -152zM505 666q-68 0 -111.5 -37.5t-60.5 -100.5h337q-34 138 -165 138z" />
    <glyph glyph-name="ecircumflex" unicode="&#xea;" horiz-adv-x="992" 
d="M194 1045q-22 -10 -37 -2.5t-15 31.5v132q0 21 23 31l307 186q23 15 49 0l307 -186q22 -9 22 -31v-132q0 -24 -15.5 -31.5t-36.5 2.5l-302 144zM939 488q0 -150 -186 -150h-413q56 -128 247 -128q97 0 175 49q15 9 27 7t25 -18l45 -66q20 -24 -5 -55q-107 -141 -325 -141
q-209 0 -342 125t-133 330q0 198 124 327t327 129q103 0 187 -34.5t137 -92t81.5 -130.5t28.5 -152zM505 666q-68 0 -111.5 -37.5t-60.5 -100.5h337q-34 138 -165 138z" />
    <glyph glyph-name="edieresis" unicode="&#xeb;" horiz-adv-x="992" 
d="M272 1111q-54 0 -92 39t-38 93q0 53 37.5 89.5t92.5 36.5q54 0 92.5 -36.5t38.5 -89.5t-39 -92.5t-92 -39.5zM720 1111q-53 0 -90.5 39t-37.5 93t37 90t91 36t93 -36.5t39 -89.5t-39.5 -92.5t-92.5 -39.5zM939 488q0 -150 -186 -150h-413q56 -128 247 -128q97 0 175 49
q15 9 27 7t25 -18l45 -66q20 -24 -5 -55q-107 -141 -325 -141q-209 0 -342 125t-133 330q0 198 124 327t327 129q103 0 187 -34.5t137 -92t81.5 -130.5t28.5 -152zM505 666q-68 0 -111.5 -37.5t-60.5 -100.5h337q-34 138 -165 138z" />
    <glyph glyph-name="igrave" unicode="&#xec;" horiz-adv-x="508" 
d="M21 1178l371 -170q31 -14 44 9l74 125q6 13 3.5 22.5t-10.5 13.5l-343 233q-32 20 -47 -3l-104 -183q-8 -17 -4.5 -30t16.5 -17zM144 0q-14 0 -22.5 9t-8.5 22v823q0 13 8.5 22t22.5 9h220q13 0 22.5 -9t9.5 -22v-823q0 -13 -9.5 -22t-22.5 -9h-220z" />
    <glyph glyph-name="iacute" unicode="&#xed;" horiz-adv-x="508" 
d="M489 1178q13 4 17 16.5t-6 30.5l-103 183q-7 11 -20.5 11t-25.5 -8l-344 -233q-8 -4 -11 -14t4 -22l75 -125q13 -22 43 -9zM144 0q-14 0 -22.5 9t-8.5 22v823q0 13 8.5 22t22.5 9h220q13 0 22.5 -9t9.5 -22v-823q0 -13 -9.5 -22t-22.5 -9h-220z" />
    <glyph glyph-name="icircumflex" unicode="&#xee;" horiz-adv-x="508" 
d="M279 1423q-26 14 -48 0l-307 -186q-23 -10 -23 -31v-132q0 -24 14.5 -31.5t37.5 2.5l302 144l302 -144q21 -10 36.5 -2.5t15.5 31.5v132q0 22 -22 31zM144 0q-14 0 -22.5 9t-8.5 22v823q0 13 8.5 22t22.5 9h220q13 0 22.5 -9t9.5 -22v-823q0 -13 -9.5 -22t-22.5 -9h-220z
" />
    <glyph glyph-name="idieresis" unicode="&#xef;" horiz-adv-x="508" 
d="M31 1111q-54 0 -92 39t-38 93q0 53 37.5 89.5t92.5 36.5q54 0 92 -36.5t38 -89.5t-38.5 -92.5t-91.5 -39.5zM479 1111q-53 0 -90.5 39t-37.5 93t37 90t91 36t93 -36.5t39 -89.5t-39.5 -92.5t-92.5 -39.5zM144 0q-14 0 -22.5 9t-8.5 22v823q0 13 8.5 22t22.5 9h220
q13 0 22.5 -9t9.5 -22v-823q0 -13 -9.5 -22t-22.5 -9h-220z" />
    <glyph glyph-name="eth" unicode="&#xf0;" horiz-adv-x="1114" 
d="M1130 1132q5 -14 -2 -24.5t-21 -14.5l-106 -26v-45v-977q0 -45 -45 -45h-191q-46 0 -46 45v63q-107 -122 -269 -122q-165 0 -280.5 127.5t-115.5 327.5q0 201 117 328.5t289 127.5q157 0 259 -116v217l-113 -28q-29 -8 -38 23l-20 66q-10 30 25 36l140 35q-7 55 -20 98
t-25 63t-22 35.5t-11 22.5q-4 16 3.5 27.5t22.5 11.5h188q108 0 139 -187l85 21q30 5 36 -23zM522 226q75 0 127.5 40.5t69.5 111.5v125q-17 71 -69.5 113t-127.5 42q-94 0 -150 -60.5t-56 -156.5t56 -155.5t150 -59.5z" />
    <glyph glyph-name="ntilde" unicode="&#xf1;" 
d="M217 1081l-80 94q-14 17 2 43q2 2 20.5 25.5t34 38.5t42 35.5t61 31t74.5 10.5q48 0 91.5 -15t69.5 -32.5t61.5 -32.5t69.5 -15q77 0 141 64q20 20 38 -2l80 -94q16 -19 -2 -43q-2 -2 -16.5 -21t-24.5 -30.5t-32 -30.5t-42.5 -30.5t-51.5 -20.5t-64 -9q-43 0 -83.5 15
t-67 33.5t-64.5 33.5t-77 15q-33 0 -62.5 -12t-43.5 -22.5t-34 -29.5q-21 -21 -40 1zM993 40q2 -17 -3.5 -28.5t-17.5 -11.5h-200q-36 0 -55 21.5t-19 56.5v422q0 68 -38.5 108.5t-105.5 40.5q-53 0 -96.5 -27.5t-68.5 -74.5v-514q0 -13 -9 -23t-21 -10h-224q-13 0 -21 9.5
t-8 23.5v823q0 12 8 20.5t20 8.5h225q30 0 30 -29v-96q111 137 276 137q137 0 226.5 -87.5t89.5 -245.5v-403q0 -64 12 -121z" />
    <glyph glyph-name="ograve" unicode="&#xf2;" horiz-adv-x="1044" 
d="M288 1152l372 -170q30 -13 43 9l75 125q6 13 3.5 22.5t-10.5 13.5l-344 233q-32 20 -47 -3l-104 -183q-8 -17 -4.5 -30t16.5 -17zM522 -14q-200 0 -334 127t-134 328t134 328.5t334 127.5t334.5 -127.5t134.5 -328.5t-134.5 -328t-334.5 -127zM522 226q92 0 151 60.5
t59 154.5t-59 155.5t-151 61.5t-151 -61.5t-59 -155.5t59 -154.5t151 -60.5z" />
    <glyph glyph-name="oacute" unicode="&#xf3;" horiz-adv-x="1044" 
d="M757 1152q13 4 16.5 17t-6.5 30l-102 183q-7 11 -21 11t-26 -8l-344 -233q-8 -4 -11 -14t4 -22l75 -125q13 -22 43 -9zM522 -14q-200 0 -334 127t-134 328t134 328.5t334 127.5t334.5 -127.5t134.5 -328.5t-134.5 -328t-334.5 -127zM522 226q92 0 151 60.5t59 154.5
t-59 155.5t-151 61.5t-151 -61.5t-59 -155.5t59 -154.5t151 -60.5z" />
    <glyph glyph-name="ocircumflex" unicode="&#xf4;" horiz-adv-x="1044" 
d="M547 1397q-26 15 -49 0l-307 -186q-23 -10 -23 -31v-132q0 -24 15 -31.5t37 2.5l302 144l302 -144q21 -10 36.5 -2.5t15.5 31.5v132q0 22 -22 31zM522 -14q-200 0 -334 127t-134 328t134 328.5t334 127.5t334.5 -127.5t134.5 -328.5t-134.5 -328t-334.5 -127zM522 226
q92 0 151 60.5t59 154.5t-59 155.5t-151 61.5t-151 -61.5t-59 -155.5t59 -154.5t151 -60.5z" />
    <glyph glyph-name="otilde" unicode="&#xf5;" horiz-adv-x="1044" 
d="M672 1021q-43 0 -83.5 15t-67 33.5t-64.5 33.5t-77 15q-33 0 -62.5 -12t-43.5 -22.5t-34 -29.5q-21 -21 -40 1l-80 94q-15 18 1 43q2 2 20.5 25.5t34 38.5t42.5 35.5t61.5 31t74.5 10.5q48 0 91.5 -15t69.5 -33t61.5 -33t69.5 -15t63.5 11.5t43.5 23t33 30.5q20 20 38 -2
l80 -94q16 -20 -1 -43q-2 -2 -16.5 -21t-24.5 -30.5t-32 -30.5t-42.5 -30.5t-51.5 -20.5t-64 -9zM522 -14q-200 0 -334 127t-134 328t134 328.5t334 127.5t334.5 -127.5t134.5 -328.5t-134.5 -328t-334.5 -127zM522 226q92 0 151 60.5t59 154.5t-59 155.5t-151 61.5
t-151 -61.5t-59 -155.5t59 -154.5t151 -60.5z" />
    <glyph glyph-name="odieresis" unicode="&#xf6;" horiz-adv-x="1044" 
d="M299 1085q-54 0 -92.5 39t-38.5 93q0 53 38 89.5t93 36.5q54 0 92 -36.5t38 -89.5t-38.5 -92.5t-91.5 -39.5zM746 1085q-53 0 -90.5 39t-37.5 93t37 90t91 36t93 -36.5t39 -89.5t-39.5 -92.5t-92.5 -39.5zM522 -14q-200 0 -334 127t-134 328t134 328.5t334 127.5
t334.5 -127.5t134.5 -328.5t-134.5 -328t-334.5 -127zM522 226q92 0 151 60.5t59 154.5t-59 155.5t-151 61.5t-151 -61.5t-59 -155.5t59 -154.5t151 -60.5z" />
    <glyph glyph-name="divide" unicode="&#xf7;" horiz-adv-x="1063" 
d="M533 920q-56 0 -98.5 41.5t-42.5 97.5q0 57 42 98.5t99 41.5q56 0 97.5 -41.5t41.5 -98.5q0 -56 -41.5 -97.5t-97.5 -41.5zM118 526q-13 0 -22 8t-9 21v193q0 14 9 22.5t22 8.5h828q13 0 22 -7.5t9 -21.5v-193q0 -13 -9 -22t-22 -9h-828zM533 106q-56 0 -98.5 41.5
t-42.5 97.5q0 57 42 98.5t99 41.5q56 0 97.5 -41.5t41.5 -98.5q0 -56 -41.5 -97.5t-97.5 -41.5z" />
    <glyph glyph-name="oslash" unicode="&#xf8;" horiz-adv-x="1044" 
d="M984 797l-78 -82q85 -118 85 -274q0 -201 -134.5 -328t-334.5 -127q-139 0 -251 66l-104 -109q-14 -14 -28 0l-78 80q-14 13 0 27l93 99q-100 123 -100 292q0 201 134 328.5t334 127.5q154 0 273 -78l81 85q16 16 30 0l78 -78q14 -14 0 -29zM312 441q0 -54 23 -103
l285 297q-46 23 -98 23q-92 0 -151 -61.5t-59 -155.5zM732 441q0 39 -12 80l-270 -283q31 -12 72 -12q92 0 151 60.5t59 154.5z" />
    <glyph glyph-name="ugrave" unicode="&#xf9;" horiz-adv-x="1083" 
d="M307 1178q-13 4 -16.5 17t4.5 30l104 183q15 23 47 3l344 -233q8 -4 10.5 -13.5t-3.5 -22.5l-75 -125q-13 -22 -43 -9zM946 885q29 0 29 -33v-822q0 -13 -7.5 -21.5t-19.5 -8.5h-224q-31 0 -31 30v93q-112 -135 -275 -135q-139 0 -228 87t-89 246v403q0 48 -11 121
q-4 16 1.5 28t17.5 12h202q34 0 53.5 -21.5t19.5 -56.5v-422q0 -68 38.5 -108.5t105.5 -40.5q53 0 96.5 27.5t68.5 74.5v514q0 13 9 23t22 10h222z" />
    <glyph glyph-name="uacute" unicode="&#xfa;" horiz-adv-x="1083" 
d="M361 1017l-75 125q-7 12 -4 22t11 14l344 233q12 8 26 8t21 -11l102 -183q10 -17 6.5 -30t-16.5 -17l-372 -170q-30 -13 -43 9zM946 885q29 0 29 -33v-822q0 -13 -7.5 -21.5t-19.5 -8.5h-224q-31 0 -31 30v93q-112 -135 -275 -135q-139 0 -228 87t-89 246v403
q0 48 -11 121q-4 16 1.5 28t17.5 12h202q34 0 53.5 -21.5t19.5 -56.5v-422q0 -68 38.5 -108.5t105.5 -40.5q53 0 96.5 27.5t68.5 74.5v514q0 13 9 23t22 10h222z" />
    <glyph glyph-name="ucircumflex" unicode="&#xfb;" horiz-adv-x="1083" 
d="M238 1045q-22 -10 -37 -2.5t-15 31.5v132q0 22 22 31l307 186q23 15 49 0l307 -186q23 -10 23 -31v-132q0 -24 -15.5 -31.5t-36.5 2.5l-302 144zM946 885q29 0 29 -33v-822q0 -13 -7.5 -21.5t-19.5 -8.5h-224q-31 0 -31 30v93q-112 -135 -275 -135q-139 0 -228 87
t-89 246v403q0 48 -11 121q-4 16 1.5 28t17.5 12h202q34 0 53.5 -21.5t19.5 -56.5v-422q0 -68 38.5 -108.5t105.5 -40.5q53 0 96.5 27.5t68.5 74.5v514q0 13 9 23t22 10h222z" />
    <glyph glyph-name="udieresis" unicode="&#xfc;" horiz-adv-x="1083" 
d="M316 1111q-54 0 -92 39t-38 93q0 53 37.5 89.5t92.5 36.5q54 0 92 -36.5t38 -89.5t-38.5 -92.5t-91.5 -39.5zM764 1111q-53 0 -91 39t-38 93t37.5 90t91.5 36t93 -36.5t39 -89.5t-39.5 -92.5t-92.5 -39.5zM946 885q29 0 29 -33v-822q0 -13 -7.5 -21.5t-19.5 -8.5h-224
q-31 0 -31 30v93q-112 -135 -275 -135q-139 0 -228 87t-89 246v403q0 48 -11 121q-4 16 1.5 28t17.5 12h202q34 0 53.5 -21.5t19.5 -56.5v-422q0 -68 38.5 -108.5t105.5 -40.5q53 0 96.5 27.5t68.5 74.5v514q0 13 9 23t22 10h222z" />
    <glyph glyph-name="yacute" unicode="&#xfd;" horiz-adv-x="1003" 
d="M736 1178q13 4 16.5 17t-6.5 30l-102 183q-7 11 -21 11t-26 -8l-344 -233q-8 -4 -11 -14t4 -22l75 -125q13 -22 43 -9zM944 885q15 0 20.5 -9t0.5 -22l-463 -1170q-14 -31 -32 -31h-224q-14 0 -19 9t-1 22l137 346l-325 824q-5 13 0.5 22t20.5 9h224q17 0 31 -31
l182 -498h11l182 498q4 10 7.5 15.5t9.5 10.5t14 5h224z" />
    <glyph glyph-name="thorn" unicode="&#xfe;" horiz-adv-x="1128" 
d="M668 897q172 0 289 -127.5t117 -328.5q0 -200 -115.5 -327.5t-281.5 -127.5q-169 0 -276 130v-418q0 -45 -45 -45h-191q-47 0 -47 45v1484q0 26 -3 50t-8 49.5t-6 32.5q-4 16 3.5 28t22.5 12h185q89 0 89 -87v-495q105 125 267 125zM606 226q94 0 150 59.5t56 155.5
t-56 156.5t-150 60.5q-91 0 -148 -60.5t-57 -156.5t57 -155.5t148 -59.5z" />
    <glyph glyph-name="ydieresis" unicode="&#xff;" horiz-adv-x="1003" 
d="M278 1111q-54 0 -92 39t-38 93q0 53 37.5 89.5t92.5 36.5q54 0 92 -36.5t38 -89.5t-38.5 -92.5t-91.5 -39.5zM725 1111q-53 0 -90.5 39t-37.5 93t37 90t91 36t93 -36.5t39 -89.5t-39.5 -92.5t-92.5 -39.5zM944 885q15 0 20.5 -9t0.5 -22l-463 -1170q-14 -31 -32 -31h-224
q-14 0 -19 9t-1 22l137 346l-325 824q-5 13 0.5 22t20.5 9h224q17 0 31 -31l182 -498h11l182 498q4 10 7.5 15.5t9.5 10.5t14 5h224z" />
    <glyph glyph-name="Amacron" unicode="&#x100;" horiz-adv-x="1444" 
d="M439 1611q-13 0 -22 8t-9 21v172q0 13 9 22t22 9h568q13 0 22 -8.5t9 -22.5v-170q0 -13 -9 -22t-22 -9h-568zM1402 43q9 -23 1.5 -33t-25.5 -10h-243q-22 0 -40 40l-55 127h-636l-55 -127q-18 -40 -40 -40h-245q-16 0 -23.5 10t1.5 33l581 1285q15 26 37 26h124
q24 0 35 -26zM509 401h426l-213 479z" />
    <glyph glyph-name="amacron" unicode="&#x101;" horiz-adv-x="951" 
d="M168 1291q0 13 9.5 22.5t22.5 9.5h567q13 0 22 -9t9 -23v-170q0 -13 -9 -22t-22 -9h-567q-13 0 -22.5 8.5t-9.5 20.5v172zM331 -14q-134 0 -205.5 67t-71.5 187q0 144 117 219.5t402 99.5q0 63 -34.5 86t-102.5 23q-116 0 -221 -62q-31 -15 -47 15l-48 134q-14 31 21 49
q165 93 350 93q77 0 142.5 -17.5t116.5 -52t79.5 -91t26.5 -129.5q-4 -119 -2.5 -285.5t16.5 -283.5q2 -16 -6.5 -27t-25.5 -11h-163q-18 0 -40 30.5t-36 75.5q-110 -120 -268 -120zM401 191q95 0 170 78v113q-137 -7 -196 -33t-59 -82q0 -37 23 -56.5t62 -19.5z" />
    <glyph glyph-name="Abreve" unicode="&#x102;" horiz-adv-x="1444" 
d="M722 1526q-135 0 -229.5 80.5t-101.5 207.5q-3 43 27 43h127q18 0 31 -32q1 -1 1.5 -2t0.5 -2q8 -48 46 -79t98 -31t98 31t46 79q12 36 33 36h127q29 0 29 -43q-7 -127 -102.5 -207.5t-230.5 -80.5zM1402 43q9 -23 1.5 -33t-25.5 -10h-243q-22 0 -40 40l-55 127h-636
l-55 -127q-18 -40 -40 -40h-245q-16 0 -23.5 10t1.5 33l581 1285q15 26 37 26h124q24 0 35 -26zM509 401h426l-213 479z" />
    <glyph glyph-name="abreve" unicode="&#x103;" horiz-adv-x="951" 
d="M484 1005q-135 0 -229.5 80.5t-101.5 207.5q-3 43 28 43h126q18 0 31 -32q1 -1 1.5 -2t0.5 -2q8 -48 46 -78.5t98 -30.5t98 30.5t46 78.5q12 36 33 36h127q29 0 29 -43q-7 -127 -102.5 -207.5t-230.5 -80.5zM331 -14q-134 0 -205.5 67t-71.5 187q0 144 117 219.5
t402 99.5q0 63 -34.5 86t-102.5 23q-116 0 -221 -62q-31 -15 -47 15l-48 134q-14 31 21 49q165 93 350 93q77 0 142.5 -17.5t116.5 -52t79.5 -91t26.5 -129.5q-4 -119 -2.5 -285.5t16.5 -283.5q2 -16 -6.5 -27t-25.5 -11h-163q-18 0 -40 30.5t-36 75.5q-110 -120 -268 -120z
M401 191q95 0 170 78v113q-137 -7 -196 -33t-59 -82q0 -37 23 -56.5t62 -19.5z" />
    <glyph glyph-name="Aogonek" unicode="&#x104;" horiz-adv-x="1444" 
d="M1402 43q9 -23 1.5 -33t-25.5 -10h-113q-115 -5 -175.5 -54t-60.5 -116q0 -45 28.5 -71t79.5 -26q40 0 99 24q18 8 31.5 1t13.5 -24v-102q0 -14 -5 -21t-18 -15q-81 -58 -191 -58q-102 0 -168 54t-66 141q0 95 76.5 173t197.5 111q-10 16 -12 23l-55 127h-636l-55 -127
q-18 -40 -40 -40h-245q-16 0 -23.5 10t1.5 33l581 1285q15 26 37 26h124q24 0 35 -26zM509 401h426l-213 479z" />
    <glyph glyph-name="aogonek" unicode="&#x105;" horiz-adv-x="951" 
d="M828 0q-115 -5 -175.5 -54t-60.5 -116q0 -45 28.5 -71t78.5 -26q40 0 99 24q18 8 31.5 1t13.5 -24v-102q0 -23 -22 -36q-81 -58 -191 -58q-102 0 -168 54t-66 141q0 90 71 166.5t184 112.5q-29 26 -52 94q-110 -120 -268 -120q-134 0 -205.5 67t-71.5 187
q0 144 117 219.5t402 99.5q0 63 -34.5 86t-102.5 23q-116 0 -221 -62q-31 -15 -47 15l-48 134q-14 31 21 49q165 93 350 93q77 0 142.5 -17.5t116.5 -52t79.5 -91t26.5 -129.5q-4 -119 -2.5 -285.5t16.5 -283.5q2 -16 -6.5 -27t-25.5 -11h-10zM571 269v113q-137 -7 -196 -33
t-59 -82q0 -37 23 -56.5t62 -19.5q95 0 170 78z" />
    <glyph glyph-name="Cacute" unicode="&#x106;" horiz-adv-x="1369" 
d="M989 1647q13 4 17 16.5t-6 30.5l-103 182q-7 11 -22 11.5t-25 -7.5l-343 -233q-8 -4 -11 -14t4 -22l74 -125q13 -23 44 -9zM774 -12q-199 0 -360 89t-252 246.5t-91 353.5t91 353.5t252 246.5t360 89q299 0 512 -210q24 -24 0 -45l-170 -151q-20 -20 -43 0
q-123 123 -295 123q-178 0 -294 -118.5t-116 -287.5t116 -287.5t294 -118.5q172 0 295 123q23 20 43 0l170 -151q24 -21 0 -45q-213 -210 -512 -210z" />
    <glyph glyph-name="cacute" unicode="&#x107;" horiz-adv-x="899" 
d="M739 1178q13 4 17 16.5t-6 30.5l-103 183q-7 11 -20.5 11t-25.5 -8l-344 -233q-8 -4 -11 -14t4 -22l75 -125q13 -22 43 -9zM519 -14q-91 0 -175 33.5t-148.5 92.5t-103 145.5t-38.5 185.5q0 131 65.5 236.5t171.5 161.5t228 56q179 0 314 -128q22 -19 4 -45l-96 -123
q-22 -26 -57 -2q-70 59 -151 59q-97 0 -159 -61.5t-62 -153.5t62.5 -154.5t158.5 -62.5q79 0 153 59q35 24 57 -2l94 -123q20 -23 -2 -45q-137 -129 -316 -129z" />
    <glyph glyph-name="Cdotaccent" unicode="&#x10a;" horiz-adv-x="1369" 
d="M753 1550q-60 0 -103 43t-43 103q0 58 43 100t103 42q59 0 101 -42t42 -100q0 -60 -42 -103t-101 -43zM774 -12q-199 0 -360 89t-252 246.5t-91 353.5t91 353.5t252 246.5t360 89q299 0 512 -210q24 -24 0 -45l-170 -151q-20 -20 -43 0q-123 123 -295 123
q-178 0 -294 -118.5t-116 -287.5t116 -287.5t294 -118.5q172 0 295 123q23 20 43 0l170 -151q24 -21 0 -45q-213 -210 -512 -210z" />
    <glyph glyph-name="cdotaccent" unicode="&#x10b;" horiz-adv-x="899" 
d="M503 1081q-60 0 -102.5 43t-42.5 103q0 59 42.5 100.5t102.5 41.5q59 0 101 -42t42 -100q0 -60 -42 -103t-101 -43zM519 -14q-91 0 -175 33.5t-148.5 92.5t-103 145.5t-38.5 185.5q0 131 65.5 236.5t171.5 161.5t228 56q179 0 314 -128q22 -19 4 -45l-96 -123
q-22 -26 -57 -2q-70 59 -151 59q-97 0 -159 -61.5t-62 -153.5t62.5 -154.5t158.5 -62.5q79 0 153 59q35 24 57 -2l94 -123q20 -23 -2 -45q-137 -129 -316 -129z" />
    <glyph glyph-name="Ccaron" unicode="&#x10c;" horiz-adv-x="1369" 
d="M778 1515l307 186q22 9 22 31v132q0 24 -15.5 32t-36.5 -2l-302 -145l-302 145q-23 10 -37.5 2t-14.5 -32v-132q0 -21 23 -31l307 -186q23 -15 49 0zM774 -12q-199 0 -360 89t-252 246.5t-91 353.5t91 353.5t252 246.5t360 89q299 0 512 -210q24 -24 0 -45l-170 -151
q-20 -20 -43 0q-123 123 -295 123q-178 0 -294 -118.5t-116 -287.5t116 -287.5t294 -118.5q172 0 295 123q23 20 43 0l170 -151q24 -21 0 -45q-213 -210 -512 -210z" />
    <glyph glyph-name="ccaron" unicode="&#x10d;" horiz-adv-x="899" 
d="M528 1047l307 185q22 9 22 32v131q0 24 -15.5 32t-36.5 -2l-302 -144l-302 144q-23 10 -37.5 2t-14.5 -32v-131q0 -22 23 -32l307 -185q23 -15 49 0zM519 -14q-91 0 -175 33.5t-148.5 92.5t-103 145.5t-38.5 185.5q0 131 65.5 236.5t171.5 161.5t228 56q179 0 314 -128
q22 -19 4 -45l-96 -123q-22 -26 -57 -2q-70 59 -151 59q-97 0 -159 -61.5t-62 -153.5t62.5 -154.5t158.5 -62.5q79 0 153 59q35 24 57 -2l94 -123q20 -23 -2 -45q-137 -129 -316 -129z" />
    <glyph glyph-name="Dcaron" unicode="&#x10e;" horiz-adv-x="1450" 
d="M713 1480l308 186q22 9 22 31v132q0 24 -15.5 32t-36.5 -2l-302 -144l-302 144q-23 10 -37.5 2t-14.5 -32v-132q0 -21 23 -31l307 -186q22 -14 48 0zM649 1354q169 0 305.5 -53.5t225 -146.5t135.5 -215t47 -262q0 -138 -47.5 -260t-135.5 -215.5t-224 -147.5t-302 -54
h-499q-14 0 -22.5 9t-8.5 22v1292q0 13 8.5 22t22.5 9h495zM654 262q197 0 304.5 113t107.5 302q-2 189 -108 302t-304 113h-241v-830h241z" />
    <glyph glyph-name="dcaron" unicode="&#x10f;" horiz-adv-x="1293" 
d="M1413 1201q2 -98 -53.5 -202.5t-156.5 -163.5q-27 -17 -40 3l-26 35q-10 14 5 26q59 46 88.5 82.5t41.5 92.5q-14 -3 -29 -3q-67 0 -114.5 48.5t-47.5 116.5q0 67 47.5 114t115.5 47q69 0 118.5 -53t50.5 -143zM922 1354q86 0 86 -87v-1236q0 -31 -31 -31h-219
q-33 0 -33 31v85q-107 -130 -275 -130q-165 0 -280.5 127.5t-115.5 327.5q0 201 117 328.5t289 127.5q161 0 265 -123v378q0 58 -9.5 109t-9.5 60q0 15 8 24t22 9h186zM522 226q91 0 147 59.5t56 155.5t-56 156.5t-147 60.5q-94 0 -150 -60.5t-56 -156.5t56 -155.5
t150 -59.5z" />
    <glyph glyph-name="Dcroat" unicode="&#x110;" horiz-adv-x="1416" 
d="M614 1354q169 0 306 -53.5t225 -146.5t135.5 -215t47.5 -262q0 -138 -47.5 -260t-135.5 -215.5t-224.5 -147.5t-302.5 -54h-498q-14 0 -22.5 9t-8.5 22v509h-75q-13 0 -22 8.5t-9 22.5v198q0 14 9 23.5t22 9.5h75v521q0 13 8.5 22t22.5 9h494zM620 262q197 0 304 113
t107 302q-2 190 -107.5 302.5t-303.5 112.5h-242v-290h205q13 0 22 -8.5t9 -21.5v-199q0 -14 -8.5 -23.5t-22.5 -9.5h-205v-278h242z" />
    <glyph glyph-name="dcroat" unicode="&#x111;" horiz-adv-x="1100" 
d="M1062 1198q13 0 22 -9t9 -23v-128q0 -13 -9 -22t-22 -9h-54v-976q0 -31 -31 -31h-219q-33 0 -33 31v85q-107 -130 -275 -130q-165 0 -280.5 127.5t-115.5 327.5q0 201 117 328.5t289 127.5q161 0 265 -123v233h-230q-13 0 -23 9t-10 22v128q0 13 9.5 22.5t23.5 9.5h229
q-2 37 -10 74t-8 49q0 15 8 24t22 9h186q86 0 86 -87v-69h54zM522 226q91 0 147 59.5t56 155.5t-56 156.5t-147 60.5q-94 0 -150 -60.5t-56 -156.5t56 -155.5t150 -59.5z" />
    <glyph glyph-name="Emacron" unicode="&#x112;" 
d="M331 1576q-13 0 -22 8t-9 21v172q0 13 9 22t22 9h568q13 0 22 -8.5t9 -22.5v-170q0 -13 -9 -22t-22 -9h-568zM1005 262q13 0 22 -9t9 -22v-200q0 -13 -8.5 -22t-22.5 -9h-851q-13 0 -22 9.5t-9 21.5v1292q0 13 8.5 22t22.5 9h832q13 0 23 -9t10 -22v-198
q0 -14 -9.5 -23.5t-23.5 -9.5h-573v-276h429q13 0 22 -9t9 -23v-197q0 -14 -8.5 -23t-22.5 -9h-429v-293h592z" />
    <glyph glyph-name="emacron" unicode="&#x113;" horiz-adv-x="992" 
d="M213 1107q-13 0 -22 8.5t-9 21.5v172q0 13 9 22t22 9h568q13 0 22 -8.5t9 -22.5v-170q0 -13 -9 -22.5t-22 -9.5h-568zM939 488q0 -150 -186 -150h-413q56 -128 247 -128q97 0 175 49q15 9 27 7t25 -18l45 -66q20 -24 -5 -55q-107 -141 -325 -141q-209 0 -342 125
t-133 330q0 198 124 327t327 129q103 0 187 -34.5t137 -92t81.5 -130.5t28.5 -152zM505 666q-68 0 -111.5 -37.5t-60.5 -100.5h337q-34 138 -165 138z" />
    <glyph glyph-name="Edotaccent" unicode="&#x116;" 
d="M614 1550q-60 0 -102.5 43t-42.5 103q0 59 42.5 100.5t102.5 41.5q59 0 101 -42t42 -100q0 -60 -42 -103t-101 -43zM1005 262q13 0 22 -9t9 -22v-200q0 -13 -8.5 -22t-22.5 -9h-851q-13 0 -22 9.5t-9 21.5v1292q0 13 8.5 22t22.5 9h832q13 0 23 -9t10 -22v-198
q0 -14 -9.5 -23.5t-23.5 -9.5h-573v-276h429q13 0 22 -9t9 -23v-197q0 -14 -8.5 -23t-22.5 -9h-429v-293h592z" />
    <glyph glyph-name="edotaccent" unicode="&#x117;" horiz-adv-x="992" 
d="M496 1081q-60 0 -102.5 43t-42.5 103q0 59 42.5 100.5t102.5 41.5q59 0 101 -42t42 -100q0 -60 -42 -103t-101 -43zM939 488q0 -150 -186 -150h-413q56 -128 247 -128q97 0 175 49q15 9 27 7t25 -18l45 -66q20 -24 -5 -55q-107 -141 -325 -141q-209 0 -342 125t-133 330
q0 198 124 327t327 129q103 0 187 -34.5t137 -92t81.5 -130.5t28.5 -152zM505 666q-68 0 -111.5 -37.5t-60.5 -100.5h337q-34 138 -165 138z" />
    <glyph glyph-name="Eogonek" unicode="&#x118;" 
d="M1005 262q13 0 22 -9t9 -22v-200q0 -13 -8.5 -22t-22.5 -9h-4q-115 -5 -175.5 -54t-60.5 -116q0 -45 28.5 -71t79.5 -26q40 0 99 24q18 8 31.5 1t13.5 -24v-102q0 -14 -5 -21t-18 -15q-81 -58 -190 -58q-102 0 -168.5 54t-66.5 141q0 84 61 155.5t161 111.5h-637
q-13 0 -22 9.5t-9 21.5v1292q0 13 8.5 22t22.5 9h832q13 0 23 -9t10 -22v-198q0 -14 -9.5 -23.5t-23.5 -9.5h-573v-276h429q13 0 22 -9t9 -23v-197q0 -14 -8.5 -23t-22.5 -9h-429v-293h592z" />
    <glyph glyph-name="eogonek" unicode="&#x119;" horiz-adv-x="992" 
d="M939 488q0 -150 -186 -150h-413q56 -128 247 -128q97 0 175 49q15 9 27 7t25 -18l45 -66q20 -24 -5 -55q-55 -71 -139 -106q-96 -49 -144.5 -92.5t-48.5 -98.5q0 -45 28.5 -71t79.5 -26q40 0 99 24q18 8 31.5 1t13.5 -24v-102q0 -23 -22 -36q-81 -58 -190 -58
q-103 0 -169.5 54t-66.5 141q0 72 48 137.5t131 115.5q-200 8 -325.5 132.5t-125.5 322.5t124 327t327 129q103 0 187 -34.5t137 -92t81.5 -130.5t28.5 -152zM505 666q-68 0 -111.5 -37.5t-60.5 -100.5h337q-34 138 -165 138z" />
    <glyph glyph-name="Ecaron" unicode="&#x11a;" 
d="M283 1701q-23 10 -23 31v132q0 24 15 32t37 -2l302 -145l302 145q21 10 36.5 2t15.5 -32v-132q0 -22 -22 -31l-307 -186q-26 -15 -49 0zM1005 262q13 0 22 -9t9 -22v-200q0 -13 -8.5 -22t-22.5 -9h-851q-13 0 -22 9.5t-9 21.5v1292q0 13 8.5 22t22.5 9h832q13 0 23 -9
t10 -22v-198q0 -14 -9.5 -23.5t-23.5 -9.5h-573v-276h429q13 0 22 -9t9 -23v-197q0 -14 -8.5 -23t-22.5 -9h-429v-293h592z" />
    <glyph glyph-name="ecaron" unicode="&#x11b;" horiz-adv-x="992" 
d="M165 1232q-23 10 -23 32v131q0 24 15 32t37 -2l302 -144l302 144q21 10 36.5 2t15.5 -32v-131q0 -23 -22 -32l-307 -185q-26 -15 -49 0zM939 488q0 -150 -186 -150h-413q56 -128 247 -128q97 0 175 49q15 9 27 7t25 -18l45 -66q20 -24 -5 -55q-107 -141 -325 -141
q-209 0 -342 125t-133 330q0 198 124 327t327 129q103 0 187 -34.5t137 -92t81.5 -130.5t28.5 -152zM505 666q-68 0 -111.5 -37.5t-60.5 -100.5h337q-34 138 -165 138z" />
    <glyph glyph-name="Gbreve" unicode="&#x11e;" horiz-adv-x="1400" 
d="M745 1468q-135 0 -230 80.5t-102 207.5q-3 44 28 44h127q3 0 5.5 -0.5t4.5 -1t4 -2.5t3.5 -3t3 -3.5t2.5 -4t2.5 -5.5t2.5 -5t2.5 -5.5t2.5 -6.5q8 -48 46 -78.5t98 -30.5t98 30.5t46 78.5q12 37 33 37h126q30 0 30 -44q-7 -127 -102.5 -207.5t-230.5 -80.5zM1272 779
q31 0 31 -29v-530q-103 -114 -239 -173t-283 -59q-201 0 -363.5 89t-254.5 246.5t-92 353.5t91.5 353.5t252.5 246.5t359 89q299 0 512 -210q24 -24 0 -45l-170 -151q-20 -20 -43 0q-123 123 -295 123q-180 0 -295 -118.5t-115 -287.5q0 -170 117 -288t305 -118
q149 0 264 83v174h-257q-32 0 -32 27v195q0 29 32 29h475z" />
    <glyph glyph-name="gbreve" unicode="&#x11f;" horiz-adv-x="999" 
d="M512 1005q-135 0 -229.5 80.5t-101.5 207.5q-3 43 27 43h127q18 0 31 -32q1 -1 1.5 -2t0.5 -2q8 -48 46 -78.5t98 -30.5t98 30.5t46 78.5q12 36 33 36h127q29 0 29 -43q-7 -127 -102.5 -207.5t-230.5 -80.5zM640 31q172 -26 251 -83.5t79 -173.5q0 -85 -39.5 -149.5
t-108.5 -101t-153 -54t-183 -16.5q-125 1 -224 30t-159.5 89t-60.5 142q0 45 18 81.5t48.5 59t63 36t69.5 20.5q-201 43 -201 174q0 75 55 120t125 38q-119 105 -121 262q-4 168 111 280t304 112q29 0 150.5 -14t241.5 -3q13 0 22.5 -8.5t8.5 -22.5l-8 -118
q-13 -22 -113 -28q102 -86 102 -234q0 -160 -115 -260t-286 -100q-16 0 -30 1t-28.5 3.5t-24 4t-24 5.5t-20 6t-21 7t-18.5 6q-47 9 -63.5 1t-16.5 -27q0 -21 27 -30t91 -18zM507 660q-64 0 -109.5 -42.5t-45.5 -110.5t44.5 -111t112.5 -45q67 0 109 43t42 111q0 69 -44 112
t-109 43zM514 -312q65 0 111.5 22.5t46.5 65.5q0 52 -71 64l-160 30q-53 11 -95 -12t-42 -68q0 -102 210 -102z" />
    <glyph glyph-name="Gdotaccent" unicode="&#x120;" horiz-adv-x="1400" 
d="M743 1527q-60 0 -103 43t-43 103q0 58 43 100t103 42q59 0 100.5 -41.5t41.5 -100.5q0 -60 -42 -103t-100 -43zM1272 779q31 0 31 -29v-530q-103 -114 -239 -173t-283 -59q-201 0 -363.5 89t-254.5 246.5t-92 353.5t91.5 353.5t252.5 246.5t359 89q299 0 512 -210
q24 -24 0 -45l-170 -151q-20 -20 -43 0q-123 123 -295 123q-180 0 -295 -118.5t-115 -287.5q0 -170 117 -288t305 -118q149 0 264 83v174h-257q-32 0 -32 27v195q0 29 32 29h475z" />
    <glyph glyph-name="gdotaccent" unicode="&#x121;" horiz-adv-x="999" 
d="M512 1064q-60 0 -103 43t-43 103q0 58 43 100t103 42q58 0 100 -42t42 -100q0 -60 -42 -103t-100 -43zM640 31q172 -26 251 -83.5t79 -173.5q0 -85 -39.5 -149.5t-108.5 -101t-153 -54t-183 -16.5q-125 1 -224 30t-159.5 89t-60.5 142q0 45 18 81.5t48.5 59t63 36
t69.5 20.5q-201 43 -201 174q0 75 55 120t125 38q-119 105 -121 262q-4 168 111 280t304 112q29 0 150.5 -14t241.5 -3q13 0 22.5 -8.5t8.5 -22.5l-8 -118q-13 -22 -113 -28q102 -86 102 -234q0 -160 -115 -260t-286 -100q-16 0 -30 1t-28.5 3.5t-24 4t-24 5.5t-20 6t-21 7
t-18.5 6q-47 9 -63.5 1t-16.5 -27q0 -21 27 -30t91 -18zM507 660q-64 0 -109.5 -42.5t-45.5 -110.5t44.5 -111t112.5 -45q67 0 109 43t42 111q0 69 -44 112t-109 43zM514 -312q65 0 111.5 22.5t46.5 65.5q0 52 -71 64l-160 30q-53 11 -95 -12t-42 -68q0 -102 210 -102z" />
    <glyph glyph-name="uni0122" unicode="&#x122;" horiz-adv-x="1400" 
d="M1272 779q31 0 31 -29v-530q-103 -114 -239 -173t-283 -59q-201 0 -363.5 89t-254.5 246.5t-92 353.5t91.5 353.5t252.5 246.5t359 89q299 0 512 -210q24 -24 0 -45l-170 -151q-20 -20 -43 0q-123 123 -295 123q-180 0 -295 -118.5t-115 -287.5q0 -170 117 -288t305 -118
q149 0 264 83v174h-257q-32 0 -32 27v195q0 29 32 29h475zM778 -153q68 0 117.5 -52.5t50.5 -141.5q2 -99 -53.5 -204t-156.5 -164q-27 -15 -40 3l-26 37q-9 12 5 26q60 47 89 82t41 91q-13 -3 -29 -3q-66 0 -114 49t-48 116t48 114t116 47z" />
    <glyph glyph-name="uni0123" unicode="&#x123;" horiz-adv-x="1001" 
d="M351 1192q-2 98 53.5 203t156.5 165q27 15 40 -5l26 -35q10 -13 -6 -26q-60 -47 -89 -82t-41 -91q15 3 30 3q66 0 113.5 -49t47.5 -116t-48 -115t-115 -48q-69 0 -118 53t-50 143zM640 31q172 -26 251 -83.5t79 -173.5q0 -85 -39.5 -149.5t-108.5 -101t-153 -54
t-183 -16.5q-125 1 -224 30t-159.5 89t-60.5 142q0 45 18 81.5t48.5 59t63 36t69.5 20.5q-201 43 -201 174q0 75 55 120t125 38q-119 105 -121 262q-4 168 111 280t304 112q29 0 150.5 -14t241.5 -3q13 0 22.5 -8.5t8.5 -22.5l-8 -118q-13 -22 -113 -28q102 -86 102 -234
q0 -160 -115 -260t-286 -100q-16 0 -30 1t-28.5 3.5t-24 4t-24 5.5t-20 6t-21 7t-18.5 6q-47 9 -63.5 1t-16.5 -27q0 -21 27 -30t91 -18zM507 660q-64 0 -109.5 -42.5t-45.5 -110.5t44.5 -111t112.5 -45q67 0 109 43t42 111q0 69 -44 112t-109 43zM514 -312q65 0 111.5 22.5
t46.5 65.5q0 52 -71 64l-160 30q-53 11 -95 -12t-42 -68q0 -102 210 -102z" />
    <glyph glyph-name="Hbar" unicode="&#x126;" horiz-adv-x="1428" 
d="M1274 1354q13 0 22 -9t9 -22v-1292q0 -12 -8.5 -21.5t-20.5 -9.5h-229q-14 0 -23 9t-9 22v524h-602v-524q0 -12 -8.5 -21.5t-20.5 -9.5h-230q-14 0 -22.5 9t-8.5 22v1292q0 13 8.5 22t22.5 9h228q13 0 22 -9t9 -22v-165h602v165q0 13 8.5 22t21.5 9h229zM413 816h602v107
h-602v-107z" />
    <glyph glyph-name="hbar" unicode="&#x127;" horiz-adv-x="1079" 
d="M991 40q2 -17 -3.5 -28.5t-17.5 -11.5h-199q-36 0 -55.5 21.5t-19.5 56.5v422q0 68 -38.5 108.5t-105.5 40.5q-53 0 -96.5 -27.5t-68.5 -74.5v-516q0 -28 -26 -31h-3h-224h-6q-24 4 -24 31v965h-71q-13 0 -23 9t-10 21v142q0 14 9.5 23.5t23.5 9.5h69q-3 33 -10 70t-7 50
q0 33 30 33h184q88 0 88 -87v-66h135q13 0 21.5 -8.5t8.5 -22.5v-143q0 -13 -8.5 -22t-21.5 -9h-135v-236q111 137 276 137q138 0 227 -87t89 -246v-403q0 -64 12 -121z" />
    <glyph glyph-name="Imacron" unicode="&#x12a;" horiz-adv-x="536" 
d="M-47 1777q0 13 9 22t22 9h568q13 0 22 -8.5t9 -22.5v-170q0 -13 -9 -22t-22 -9h-568q-13 0 -22 8t-9 21v172zM154 0q-14 0 -22.5 9t-8.5 22v1292q0 13 8.5 22t22.5 9h228q13 0 22 -9t9 -22v-1292q0 -12 -8.5 -21.5t-20.5 -9.5h-230z" />
    <glyph glyph-name="imacron" unicode="&#x12b;" horiz-adv-x="508" 
d="M-59 1309q0 13 9 22t22 9h568q13 0 22 -8.5t9 -22.5v-170q0 -13 -9 -22.5t-22 -9.5h-568q-13 0 -22 8.5t-9 21.5v172zM144 0q-14 0 -22.5 9t-8.5 22v823q0 13 8.5 22t22.5 9h220q13 0 22.5 -9t9.5 -22v-823q0 -13 -9.5 -22t-22.5 -9h-220z" />
    <glyph glyph-name="Iogonek" unicode="&#x12e;" horiz-adv-x="536" 
d="M382 1354q13 0 22 -9t9 -22v-1292q0 -12 -8.5 -21.5t-20.5 -9.5h-14q-115 -5 -175.5 -54t-60.5 -116q0 -45 28.5 -71t78.5 -26q40 0 99 24q18 8 31.5 1t13.5 -24v-102q0 -23 -22 -36q-81 -58 -191 -58q-102 0 -168 54t-66 141q0 84 61 155.5t161 111.5h-6q-14 0 -22.5 9
t-8.5 22v1292q0 13 8.5 22t22.5 9h228z" />
    <glyph glyph-name="iogonek" unicode="&#x12f;" horiz-adv-x="508" 
d="M255 1081q-60 0 -103 43t-43 103q0 58 43 100t103 42q59 0 100.5 -41.5t41.5 -100.5q0 -60 -42 -103t-100 -43zM364 885q13 0 22.5 -9t9.5 -22v-823q0 -13 -9 -22t-21 -9q-115 -5 -175.5 -54t-60.5 -116q0 -45 28.5 -71t79.5 -26q40 0 99 24q18 8 31.5 1t13.5 -24v-102
q0 -14 -5 -21t-18 -15q-81 -58 -191 -58q-102 0 -168 54t-66 141q0 84 61 155.5t161 111.5h-12q-14 0 -22.5 9t-8.5 22v823q0 13 8.5 22t22.5 9h220z" />
    <glyph glyph-name="Idotaccent" unicode="&#x130;" horiz-adv-x="536" 
d="M241 1560q-60 0 -103 42t-43 102q0 59 43 101.5t103 42.5q59 0 101.5 -43t42.5 -101q0 -60 -42.5 -102t-101.5 -42zM154 0q-14 0 -22.5 9t-8.5 22v1292q0 13 8.5 22t22.5 9h228q13 0 22 -9t9 -22v-1292q0 -12 -8.5 -21.5t-20.5 -9.5h-230z" />
    <glyph glyph-name="dotlessi" unicode="&#x131;" horiz-adv-x="508" 
d="M144 0q-14 0 -22.5 9t-8.5 22v823q0 13 8.5 22t22.5 9h220q13 0 22.5 -9t9.5 -22v-823q0 -13 -9.5 -22t-22.5 -9h-220z" />
    <glyph glyph-name="IJ" unicode="&#x132;" horiz-adv-x="1115" 
d="M154 0q-14 0 -22.5 9t-8.5 22v1292q0 13 8.5 22t22.5 9h228q13 0 22 -9t9 -22v-1292q0 -12 -8.5 -21.5t-20.5 -9.5h-230zM746 1354h228q13 0 23 -9t10 -22v-1326q0 -163 -81.5 -267t-217.5 -152q-30 -11 -43 12l-113 210q-7 13 -2.5 24t18.5 15q65 21 106 65t41 106v1313
q0 13 8.5 22t22.5 9z" />
    <glyph glyph-name="ij" unicode="&#x133;" horiz-adv-x="1003" 
d="M250 1100q-62 0 -103 41t-41 103q0 60 41.5 101.5t102.5 41.5q60 0 101 -41.5t41 -101.5q0 -61 -41 -102.5t-101 -41.5zM755 1100q-61 0 -102.5 41t-41.5 103q0 60 41.5 101.5t102.5 41.5q59 0 100.5 -41.5t41.5 -101.5q0 -61 -41.5 -102.5t-100.5 -41.5zM139 0
q-14 0 -22.5 9t-8.5 22v823q0 13 8.5 22t22.5 9h220q13 0 22.5 -9t9.5 -22v-823q0 -13 -9.5 -22t-22.5 -9h-220zM646 -397q-27 -11 -42 12l-111 203q-15 30 14 47q106 61 106 145v844q0 13 7.5 22t21.5 9h221q13 0 23 -9t10 -22v-875q0 -148 -63 -234.5t-187 -141.5z" />
    <glyph glyph-name="uni0136" unicode="&#x136;" horiz-adv-x="1299" 
d="M1250 73q21 -23 11 -48t-41 -25h-232q-26 0 -39 16l-536 569v-554q0 -12 -8.5 -21.5t-20.5 -9.5h-230q-14 0 -22.5 9t-8.5 22v1292q0 13 8.5 22t22.5 9h228q13 0 22 -9t9 -22v-539l493 552q15 18 38 18h241q29 0 39 -22t-9 -44l-550 -606zM654 -153q69 0 118.5 -52.5
t50.5 -141.5q2 -99 -53.5 -204t-156.5 -164q-27 -15 -40 3l-26 37q-9 12 5 26q60 47 89 82t41 91q-14 -3 -29 -3q-66 0 -114 49t-48 116t47.5 114t115.5 47z" />
    <glyph glyph-name="uni0137" unicode="&#x137;" horiz-adv-x="1065" 
d="M1017 66q18 -21 8.5 -43.5t-37.5 -22.5h-231q-23 0 -40 21l-316 337v-327q0 -31 -31 -31h-221q-31 0 -31 31v1121q0 58 -9.5 109t-9.5 60q0 33 29 33h184q89 0 89 -87v-696l278 295q16 19 41 19h215q31 0 40.5 -24t-10.5 -47l-332 -349zM502 -153q68 0 117.5 -52.5
t50.5 -141.5q2 -99 -53.5 -204t-156.5 -164q-27 -15 -40 3l-26 37q-9 12 5 26q60 47 89 82t41 91q-13 -3 -29 -3q-66 0 -114 49t-48 116t48 114t116 47z" />
    <glyph glyph-name="Lacute" unicode="&#x139;" horiz-adv-x="1051" 
d="M503 1647q13 4 17 16.5t-6 30.5l-103 182q-7 11 -22 11.5t-25 -7.5l-343 -233q-8 -4 -11 -14t4 -22l75 -125q13 -22 43 -9zM942 262q13 0 21.5 -8.5t8.5 -22.5v-200q0 -13 -8.5 -22t-21.5 -9h-788q-14 0 -22.5 9t-8.5 22v1292q0 13 8.5 22t22.5 9h228q13 0 22 -9t9 -22
v-1061h529z" />
    <glyph glyph-name="lacute" unicode="&#x13a;" horiz-adv-x="513" 
d="M500 1647q13 4 16.5 17t-6.5 30l-102 182q-7 11 -22 11.5t-25 -7.5l-344 -233q-8 -4 -11 -14t4 -22l75 -125q13 -22 43 -9zM149 0q-31 0 -31 31v1121q0 58 -9.5 109t-9.5 60q0 33 29 33h184q89 0 89 -87v-1236q0 -31 -31 -31h-221z" />
    <glyph glyph-name="uni013B" unicode="&#x13b;" horiz-adv-x="1051" 
d="M942 262q13 0 21.5 -8.5t8.5 -22.5v-200q0 -13 -8.5 -22t-21.5 -9h-788q-14 0 -22.5 9t-8.5 22v1292q0 13 8.5 22t22.5 9h228q13 0 22 -9t9 -22v-1061h529zM719 -347q2 -99 -53.5 -204t-156.5 -164q-27 -15 -40 3l-26 37q-9 12 5 26q60 47 89 82t41 91q-13 -3 -30 -3
q-66 0 -113.5 49t-47.5 116t47.5 114t115.5 47q69 0 118.5 -52.5t50.5 -141.5z" />
    <glyph glyph-name="uni013C" unicode="&#x13c;" horiz-adv-x="513" 
d="M149 0q-31 0 -31 31v1121q0 58 -9.5 109t-9.5 60q0 33 29 33h184q89 0 89 -87v-1236q0 -31 -31 -31h-221zM434 -347q2 -99 -53.5 -204t-156.5 -164q-27 -15 -40 3l-26 37q-9 12 5 26q60 47 89 82t41 91q-14 -3 -29 -3q-66 0 -114 49t-48 116t48 114t116 47t117.5 -52.5
t50.5 -141.5z" />
    <glyph glyph-name="Lcaron" unicode="&#x13d;" horiz-adv-x="1051" 
d="M880 1173q2 -98 -53.5 -203t-156.5 -165q-28 -16 -42 6l-24 34q-11 15 5 26q58 46 88 83t41 93q-18 -4 -28 -4q-67 0 -114.5 48.5t-47.5 116.5q0 67 47.5 114t114.5 47q70 0 119 -53t51 -143zM942 262q13 0 21.5 -8.5t8.5 -22.5v-200q0 -13 -8.5 -22t-21.5 -9h-788
q-14 0 -22.5 9t-8.5 22v1292q0 13 8.5 22t22.5 9h228q13 0 22 -9t9 -22v-1061h529z" />
    <glyph glyph-name="lcaron" unicode="&#x13e;" horiz-adv-x="758" 
d="M811 1175q2 -98 -53.5 -202.5t-156.5 -163.5q-27 -17 -40 3l-26 35q-10 14 5 26q59 46 88.5 82.5t41.5 92.5q-13 -3 -28 -3q-67 0 -115 48.5t-48 116.5q0 67 47.5 114t115.5 47q69 0 118.5 -53t50.5 -143zM149 0q-31 0 -31 31v1121q0 58 -9.5 109t-9.5 60q0 33 29 33h184
q89 0 89 -87v-1236q0 -31 -31 -31h-221z" />
    <glyph glyph-name="Ldot" unicode="&#x13f;" horiz-adv-x="1051" 
d="M942 262q13 0 21.5 -8.5t8.5 -22.5v-200q0 -13 -8.5 -22t-21.5 -9h-788q-14 0 -22.5 9t-8.5 22v1292q0 13 8.5 22t22.5 9h228q13 0 22 -9t9 -22v-1061h529zM767 515q-74 0 -126.5 53.5t-52.5 127.5q0 73 52.5 125t126.5 52q73 0 127 -52.5t54 -124.5q0 -74 -54 -127.5
t-127 -53.5z" />
    <glyph glyph-name="ldot" unicode="&#x140;" horiz-adv-x="683" 
d="M149 0q-31 0 -31 31v1121q0 58 -9.5 109t-9.5 60q0 33 29 33h184q89 0 89 -87v-1236q0 -31 -31 -31h-221zM666 517q-73 0 -125 53t-52 126t52 124t125 51t126 -51.5t53 -123.5q0 -73 -53 -126t-126 -53z" />
    <glyph glyph-name="Lslash" unicode="&#x141;" 
d="M972 262q13 0 21 -8.5t8 -22.5v-200q0 -13 -8 -22t-21 -9h-788q-13 0 -22 9t-9 22v406l-37 -20q-28 -12 -43 12l-111 201q-16 27 12 43l179 99v551q0 13 8.5 22t22.5 9h227q13 0 23 -9t10 -22v-389l155 85q12 7 24 4t17 -16l113 -202q15 -28 -12 -43l-297 -165v-335h528z
" />
    <glyph glyph-name="lslash" unicode="&#x142;" horiz-adv-x="562" 
d="M592 837q11 -18 6 -33t-20 -25l-155 -85v-663q0 -31 -31 -31h-220q-31 0 -31 31v509l-87 -47q-37 -21 -59 17l-26 42q-18 38 19 57l153 84v459q0 58 -10.5 109t-10.5 60q0 33 31 33h184q88 0 88 -87v-418l86 47q37 16 57 -16z" />
    <glyph glyph-name="Nacute" unicode="&#x143;" horiz-adv-x="1454" 
d="M962 1647q13 4 16.5 17t-6.5 30l-102 182q-7 11 -22 11.5t-25 -7.5l-344 -233q-8 -4 -11 -14t4 -22l75 -125q13 -22 43 -9zM1300 1354q14 0 22.5 -9t8.5 -22v-1293q0 -12 -8.5 -21t-20.5 -9h-228q-33 0 -53 30l-608 860v-859q0 -12 -8.5 -21.5t-20.5 -9.5h-230
q-14 0 -22.5 9t-8.5 22v1293q0 12 8.5 21t21.5 9h227q34 0 54 -30l607 -833v832q0 12 9 21.5t21 9.5h229z" />
    <glyph glyph-name="nacute" unicode="&#x144;" 
d="M361 1017l-75 125q-7 12 -4 22t11 14l344 233q12 8 26 8t21 -11l102 -183q10 -17 6.5 -30t-16.5 -17l-372 -170q-30 -13 -43 9zM993 40q2 -17 -3.5 -28.5t-17.5 -11.5h-200q-36 0 -55 21.5t-19 56.5v422q0 68 -38.5 108.5t-105.5 40.5q-53 0 -96.5 -27.5t-68.5 -74.5
v-514q0 -13 -9 -23t-21 -10h-224q-13 0 -21 9.5t-8 23.5v823q0 12 8 20.5t20 8.5h225q30 0 30 -29v-96q111 137 276 137q137 0 226.5 -87.5t89.5 -245.5v-403q0 -64 12 -121z" />
    <glyph glyph-name="uni0145" unicode="&#x145;" horiz-adv-x="1454" 
d="M1300 1354q14 0 22.5 -9t8.5 -22v-1293q0 -12 -8.5 -21t-20.5 -9h-228q-33 0 -53 30l-608 860v-859q0 -12 -8.5 -21.5t-20.5 -9.5h-230q-14 0 -22.5 9t-8.5 22v1293q0 12 8.5 21t21.5 9h227q34 0 54 -30l607 -833v832q0 12 9 21.5t21 9.5h229zM890 -347q2 -99 -53.5 -204
t-156.5 -164q-27 -15 -40 3l-26 37q-9 11 6 26q60 47 89 82t41 91q-14 -3 -30 -3q-66 0 -113.5 49t-47.5 116t47.5 114t115.5 47t117.5 -52.5t50.5 -141.5z" />
    <glyph glyph-name="uni0146" unicode="&#x146;" 
d="M993 40q2 -17 -3.5 -28.5t-17.5 -11.5h-200q-36 0 -55 21.5t-19 56.5v422q0 68 -38.5 108.5t-105.5 40.5q-53 0 -96.5 -27.5t-68.5 -74.5v-514q0 -13 -9 -23t-21 -10h-224q-13 0 -21 9.5t-8 23.5v823q0 12 8 20.5t20 8.5h225q30 0 30 -29v-96q111 137 276 137
q137 0 226.5 -87.5t89.5 -245.5v-403q0 -64 12 -121zM543 -153q69 0 118.5 -52.5t50.5 -141.5q2 -99 -53.5 -204t-156.5 -164q-27 -15 -40 3l-26 37q-9 12 5 26q60 47 89 82t41 91q-13 -3 -29 -3q-66 0 -114 49t-48 116t47.5 114t115.5 47z" />
    <glyph glyph-name="Ncaron" unicode="&#x147;" horiz-adv-x="1454" 
d="M752 1515l307 186q22 9 22 31v132q0 24 -15.5 32t-36.5 -2l-302 -145l-302 145q-23 10 -37.5 2t-14.5 -32v-132q0 -21 23 -31l307 -186q23 -15 49 0zM1300 1354q14 0 22.5 -9t8.5 -22v-1293q0 -12 -8.5 -21t-20.5 -9h-228q-33 0 -53 30l-608 860v-859q0 -12 -8.5 -21.5
t-20.5 -9.5h-230q-14 0 -22.5 9t-8.5 22v1293q0 12 8.5 21t21.5 9h227q34 0 54 -30l607 -833v832q0 12 9 21.5t21 9.5h229z" />
    <glyph glyph-name="ncaron" unicode="&#x148;" 
d="M208 1232q-22 9 -22 32v131q0 24 15 32t37 -2l302 -144l302 144q21 10 36.5 2t15.5 -32v-131q0 -22 -23 -32l-307 -185q-26 -15 -49 0zM993 40q2 -17 -3.5 -28.5t-17.5 -11.5h-200q-36 0 -55 21.5t-19 56.5v422q0 68 -38.5 108.5t-105.5 40.5q-53 0 -96.5 -27.5
t-68.5 -74.5v-514q0 -13 -9 -23t-21 -10h-224q-13 0 -21 9.5t-8 23.5v823q0 12 8 20.5t20 8.5h225q30 0 30 -29v-96q111 137 276 137q137 0 226.5 -87.5t89.5 -245.5v-403q0 -64 12 -121z" />
    <glyph glyph-name="Eng" unicode="&#x14a;" horiz-adv-x="1454" 
d="M1300 1354q14 0 22.5 -9t8.5 -22v-1326q0 -163 -80.5 -267.5t-217.5 -151.5q-30 -11 -42 12l-113 210q-8 13 -3.5 24t19.5 15q63 21 104.5 64.5t42.5 105.5q-5 2 -20 21l-608 860v-859q0 -12 -8.5 -21.5t-20.5 -9.5h-230q-14 0 -22.5 9t-8.5 22v1293q0 12 8.5 21t21.5 9
h227q34 0 54 -30l607 -833v832q0 13 8 22t22 9h229z" />
    <glyph glyph-name="eng" unicode="&#x14b;" horiz-adv-x="1086" 
d="M665 897q137 0 226.5 -87.5t89.5 -245.5v-630q0 -161 -63.5 -258.5t-185.5 -152.5q-28 -12 -41 12l-111 201q-16 30 12 47q106 63 106 148v569q0 68 -38.5 108.5t-105.5 40.5q-53 0 -96.5 -27.5t-68.5 -74.5v-514q0 -13 -9 -23t-21 -10h-224q-13 0 -21 9.5t-8 23.5v823
q0 12 8 20.5t20 8.5h225q30 0 30 -29v-96q111 137 276 137z" />
    <glyph glyph-name="Omacron" unicode="&#x14c;" horiz-adv-x="1539" 
d="M455 1777q0 13 9 22t22 9h568q13 0 22 -8.5t9 -22.5v-170q0 -13 -9 -22t-22 -9h-568q-13 0 -22 8t-9 21v172zM771 -12q-199 0 -360 92.5t-250.5 250t-89.5 346.5t89.5 346.5t250.5 250t360 92.5t359.5 -92.5t249 -249.5t88.5 -347t-88.5 -347t-249 -249.5t-359.5 -92.5z
M771 271q175 0 288 117t113 289q0 173 -113 290t-288 116q-117 -1 -209.5 -55t-143 -146t-50.5 -205q0 -173 113.5 -289.5t289.5 -116.5z" />
    <glyph glyph-name="omacron" unicode="&#x14d;" horiz-adv-x="1044" 
d="M208 1283q0 13 9.5 22t22.5 9h567q13 0 22 -8.5t9 -22.5v-170q0 -13 -9 -22.5t-22 -9.5h-567q-13 0 -22.5 8.5t-9.5 21.5v172zM522 -14q-200 0 -334 127t-134 328t134 328.5t334 127.5t334.5 -127.5t134.5 -328.5t-134.5 -328t-334.5 -127zM522 226q92 0 151 60.5
t59 154.5t-59 155.5t-151 61.5t-151 -61.5t-59 -155.5t59 -154.5t151 -60.5z" />
    <glyph glyph-name="Ohungarumlaut" unicode="&#x150;" horiz-adv-x="1539" 
d="M460 1552q-12 0 -21.5 9t-9.5 22l12 337q2 13 10.5 22t20.5 9h205q13 0 22.5 -8.5t8.5 -22.5l-55 -339q-2 -12 -11 -20.5t-21 -8.5h-161zM861 1552q-12 0 -21.5 9t-9.5 22l12 337q2 13 10.5 22t20.5 9h205q13 0 22.5 -8.5t8.5 -22.5l-55 -339q-5 -29 -32 -29h-161z
M771 -12q-199 0 -360 92.5t-250.5 250t-89.5 346.5t89.5 346.5t250.5 250t360 92.5t359.5 -92.5t249 -249.5t88.5 -347t-88.5 -347t-249 -249.5t-359.5 -92.5zM771 271q175 0 288 117t113 289q0 173 -113 290t-288 116q-117 -1 -209.5 -55t-143 -146t-50.5 -205
q0 -173 113.5 -289.5t289.5 -116.5z" />
    <glyph glyph-name="ohungarumlaut" unicode="&#x151;" horiz-adv-x="1044" 
d="M213 1057q-12 0 -21.5 9t-9.5 22l12 337q2 13 11 22t21 9h204q14 0 23.5 -8.5t8.5 -22.5l-56 -339q-5 -29 -31 -29h-162zM614 1057q-12 0 -21.5 9t-9.5 22l12 337q2 13 10.5 22t21.5 9h204q14 0 23.5 -8.5t8.5 -22.5l-56 -339q-5 -29 -31 -29h-162zM522 -14
q-200 0 -334 127t-134 328t134 328.5t334 127.5t334.5 -127.5t134.5 -328.5t-134.5 -328t-334.5 -127zM522 226q92 0 151 60.5t59 154.5t-59 155.5t-151 61.5t-151 -61.5t-59 -155.5t59 -154.5t151 -60.5z" />
    <glyph glyph-name="OE" unicode="&#x152;" horiz-adv-x="2138" 
d="M2060 262q13 0 23 -9t10 -22v-200q0 -13 -9.5 -22t-23.5 -9h-850q-13 0 -22.5 9.5t-9.5 21.5v80q-178 -123 -407 -123q-199 0 -360 92.5t-250.5 250t-89.5 346.5t89.5 346.5t250.5 250t360 92.5q229 0 407 -123v80q0 13 9 22t23 9h831q14 0 23.5 -9t9.5 -22v-198
q0 -14 -9.5 -23.5t-23.5 -9.5h-571v-276h427q13 0 23 -9t10 -23v-197q0 -14 -9.5 -23t-23.5 -9h-427v-293h590zM771 271q175 0 288 117t113 289q0 173 -113 290t-288 116q-117 -1 -209.5 -55t-143 -146t-50.5 -205q0 -173 113.5 -289.5t289.5 -116.5z" />
    <glyph glyph-name="oe" unicode="&#x153;" horiz-adv-x="1671" 
d="M1618 488q0 -150 -186 -150h-413q56 -128 246 -128q98 0 176 49q15 9 27.5 7t24.5 -18l46 -66q18 -25 -5 -55q-110 -141 -326 -141q-217 0 -347 130q-133 -130 -339 -130q-200 0 -334 127t-134 328t134 328.5t334 127.5q202 0 335 -128q125 128 327 128q103 0 187 -34.5
t137 -92t81.5 -130.5t28.5 -152zM1184 666q-68 0 -111.5 -37.5t-60.5 -100.5h337q-34 138 -165 138zM522 226q92 0 151 60.5t59 154.5t-59 155.5t-151 61.5t-151 -61.5t-59 -155.5t59 -154.5t151 -60.5z" />
    <glyph glyph-name="Racute" unicode="&#x154;" horiz-adv-x="1268" 
d="M470 1486l-74 125q-7 12 -4 22t11 14l343 233q10 8 25 7.5t22 -11.5l103 -182q10 -18 6 -30.5t-17 -16.5l-371 -170q-31 -14 -44 9zM1194 54q14 -22 6 -38t-35 -16h-207q-35 0 -55 30l-224 362h-266v-361q0 -12 -8.5 -21.5t-20.5 -9.5h-230q-14 0 -22.5 9t-8.5 22v1292
q0 13 8.5 22t22.5 9h552q117 0 211.5 -40.5t153.5 -108t90 -153t31 -179.5q0 -136 -63 -250.5t-181 -174.5zM413 1092v-438h285q96 0 150.5 61t54.5 158t-54.5 158t-150.5 61h-285z" />
    <glyph glyph-name="racute" unicode="&#x155;" horiz-adv-x="827" 
d="M286 1017l-74 125q-7 12 -4 22t11 14l343 233q12 8 26 8t21 -11l103 -183q10 -18 6 -30.5t-17 -16.5l-371 -170q-31 -14 -44 9zM781 840q28 -23 12 -54l-97 -159q-13 -24 -43 -11q-60 37 -113 37q-52 0 -90.5 -27.5t-60.5 -75.5v-517q0 -13 -9 -23t-21 -10h-224
q-13 0 -21 9.5t-8 23.5v823q0 12 8 20.5t20 8.5h225q30 0 30 -29v-85q96 126 231 126q95 0 161 -57z" />
    <glyph glyph-name="uni0156" unicode="&#x156;" horiz-adv-x="1268" 
d="M1194 54q14 -22 6 -38t-35 -16h-207q-35 0 -55 30l-224 362h-266v-361q0 -12 -8.5 -21.5t-20.5 -9.5h-230q-14 0 -22.5 9t-8.5 22v1292q0 13 8.5 22t22.5 9h552q117 0 211.5 -40.5t153.5 -108t90 -153t31 -179.5q0 -136 -63 -250.5t-181 -174.5zM413 1092v-438h285
q96 0 150.5 61t54.5 158t-54.5 158t-150.5 61h-285zM651 -153q68 0 117.5 -52.5t50.5 -141.5q2 -99 -53.5 -204t-156.5 -164q-27 -15 -40 3l-26 37q-9 12 5 26q41 32 61.5 51t41 51t28.5 71q-13 -3 -30 -3q-66 0 -113.5 49t-47.5 116t47.5 114t115.5 47z" />
    <glyph glyph-name="uni0157" unicode="&#x157;" horiz-adv-x="827" 
d="M781 840q28 -23 12 -54l-97 -159q-13 -24 -43 -11q-60 37 -113 37q-52 0 -90.5 -27.5t-60.5 -75.5v-517q0 -13 -9 -23t-21 -10h-224q-13 0 -21 9.5t-8 23.5v823q0 12 8 20.5t20 8.5h225q30 0 30 -29v-85q96 126 231 126q95 0 161 -57zM248 -153q69 0 118.5 -52.5
t50.5 -141.5q2 -99 -53.5 -204t-156.5 -164q-27 -15 -40 3l-26 37q-9 12 5 26q60 47 89 82t41 91q-13 -3 -30 -3q-66 0 -113.5 49t-47.5 116t47.5 114t115.5 47z" />
    <glyph glyph-name="Rcaron" unicode="&#x158;" horiz-adv-x="1268" 
d="M318 1701q-23 10 -23 31v132q0 24 14.5 32t37.5 -2l302 -145l302 145q21 10 36.5 2t15.5 -32v-132q0 -22 -22 -31l-308 -186q-26 -14 -48 0zM1194 54q14 -22 6 -38t-35 -16h-207q-35 0 -55 30l-224 362h-266v-361q0 -12 -8.5 -21.5t-20.5 -9.5h-230q-14 0 -22.5 9
t-8.5 22v1292q0 13 8.5 22t22.5 9h552q117 0 211.5 -40.5t153.5 -108t90 -153t31 -179.5q0 -136 -63 -250.5t-181 -174.5zM413 1092v-438h285q96 0 150.5 61t54.5 158t-54.5 158t-150.5 61h-285z" />
    <glyph glyph-name="rcaron" unicode="&#x159;" horiz-adv-x="827" 
d="M767 1425q21 10 36.5 2t15.5 -32v-131q0 -23 -22 -32l-308 -185q-26 -14 -48 0l-307 185q-23 10 -23 32v131q0 24 14.5 32t37.5 -2l302 -144zM781 840q28 -23 12 -54l-97 -159q-13 -24 -43 -11q-60 37 -113 37q-52 0 -90.5 -27.5t-60.5 -75.5v-517q0 -13 -9 -23t-21 -10
h-224q-13 0 -21 9.5t-8 23.5v823q0 12 8 20.5t20 8.5h225q30 0 30 -29v-85q96 126 231 126q95 0 161 -57z" />
    <glyph glyph-name="Sacute" unicode="&#x15a;" horiz-adv-x="1084" 
d="M774 1623q13 4 16.5 17t-6.5 30l-102 182q-7 11 -21 11t-26 -8l-343 -232q-8 -4 -11 -14.5t4 -22.5l74 -125q12 -22 44 -8zM82 240l112 152q12 17 31.5 18.5t29.5 -9.5q2 -1 20 -17t25.5 -22t28 -21.5t34.5 -23.5t38 -20t44.5 -18t47 -10.5t52.5 -4.5q82 0 127 36t45 92
q0 22 -9 40.5t-20 31t-36 27.5t-41 22.5t-50 22.5q-88 43 -133 65.5t-110.5 60t-97.5 67t-66.5 69.5t-48 85t-13.5 98q0 159 125.5 272t332.5 113q65 0 128 -14t101 -28t85 -43t56 -36t38 -30q15 -11 18 -26t-8 -30l-114 -152q-34 -44 -70 -19q-149 102 -251 102
q-64 0 -103 -27t-39 -77q0 -48 35 -78t122 -66q192 -91 259 -133q156 -98 194 -222q14 -47 14 -100q0 -173 -132 -286t-341 -113q-253 0 -448 189l-7 7q-30 22 -5 56z" />
    <glyph glyph-name="sacute" unicode="&#x15b;" horiz-adv-x="827" 
d="M646 1178q13 4 16.5 17t-6.5 30l-102 183q-7 11 -21 11t-26 -8l-344 -233q-8 -4 -11 -14t4 -22l75 -125q13 -22 43 -9zM50 130l75 129q17 30 50 13q37 -19 107.5 -40.5t135.5 -21.5q40 0 63.5 13.5t23.5 36.5q0 30 -31.5 45.5t-129.5 43.5q-135 41 -206 107.5t-72 170.5
q0 120 90 195t261 75q95 0 162 -23t136 -65q33 -17 19 -40l-85 -141q-14 -24 -45 -10q-33 18 -88.5 34t-104.5 16q-92 0 -92 -50q0 -14 8 -24t30 -19.5t39 -14.5t55 -15q168 -47 245.5 -112.5t77.5 -172.5q0 -132 -102.5 -203t-260.5 -71q-194 0 -352 104q-22 16 -9 40z" />
    <glyph glyph-name="Scedilla" unicode="&#x15e;" horiz-adv-x="1084" 
d="M1015 387q0 -150 -100.5 -256.5t-267.5 -133.5l-55 -112q81 -14 135 -76.5t54 -145.5q0 -92 -69 -159.5t-165 -67.5q-106 0 -176 82q-11 13 2 26l70 65q14 14 29 4q37 -31 71 -31q39 0 62 23t23 58q0 34 -22.5 57t-60.5 23q-35 0 -71 -33q-9 -13 -23 -3l-80 66
q-11 6 -3 20q0 1 1 2t1 2l100 194q-32 3 -63.5 10.5t-57.5 15t-52.5 20t-46 22t-41.5 24.5t-34.5 24t-30 24t-24 21t-20.5 19l-13 13q-30 22 -5 56l112 152q12 17 31.5 18.5t29.5 -9.5q2 -1 20 -17t25.5 -22t28 -21.5t34.5 -23.5t38 -20t44.5 -18t47 -10.5t52.5 -4.5
q82 0 127 36t45 92q0 22 -9 40.5t-20 31t-36 27.5t-41 22.5t-50 22.5q-88 43 -133 65.5t-110.5 60t-97.5 67t-66.5 69.5t-48 85t-13.5 98q0 159 125.5 272t332.5 113q65 0 128 -14t101 -28t85 -43t56 -36t38 -30q15 -11 18 -26t-8 -30l-114 -152q-34 -44 -70 -19
q-149 102 -251 102q-64 0 -103 -27t-39 -77q0 -48 35 -78t122 -66q192 -91 259 -133q156 -98 194 -222q14 -47 14 -100z" />
    <glyph glyph-name="scedilla" unicode="&#x15f;" horiz-adv-x="827" 
d="M774 260q0 -107 -69 -174t-184 -89l-56 -112q81 -14 135 -76.5t54 -145.5q0 -92 -69 -159.5t-165 -67.5q-105 0 -175 82q-11 14 1 26l70 65q14 14 29 4q37 -31 72 -31q39 0 62 23t23 58q0 33 -23 56.5t-61 23.5q-35 0 -71 -33q-9 -12 -22 -3l-80 66q-12 7 -4 20q0 1 1 2
t1 2l101 193q-94 11 -168.5 40.5t-116.5 59.5q-22 16 -9 40l75 129q17 30 50 13q37 -19 107.5 -40.5t135.5 -21.5q40 0 63.5 13.5t23.5 36.5q0 30 -31.5 45.5t-129.5 43.5q-135 41 -206 107.5t-72 170.5q0 120 90 195t261 75q95 0 162 -23t136 -65q33 -17 19 -40l-85 -141
q-14 -24 -45 -10q-33 18 -88.5 34t-104.5 16q-92 0 -92 -50q0 -14 8 -24t30 -19.5t39 -14.5t55 -15q168 -47 245.5 -112.5t77.5 -172.5z" />
    <glyph glyph-name="Scaron" unicode="&#x160;" horiz-adv-x="1084" 
d="M564 1491l307 186q23 10 23 31v132q0 24 -15.5 31.5t-36.5 -2.5l-302 -144l-302 144q-22 10 -37 2.5t-15 -31.5v-132q0 -22 22 -31l307 -186q23 -15 49 0zM82 240l112 152q12 17 31.5 18.5t29.5 -9.5q2 -1 20 -17t25.5 -22t28 -21.5t34.5 -23.5t38 -20t44.5 -18t47 -10.5
t52.5 -4.5q82 0 127 36t45 92q0 22 -9 40.5t-20 31t-36 27.5t-41 22.5t-50 22.5q-88 43 -133 65.5t-110.5 60t-97.5 67t-66.5 69.5t-48 85t-13.5 98q0 159 125.5 272t332.5 113q65 0 128 -14t101 -28t85 -43t56 -36t38 -30q15 -11 18 -26t-8 -30l-114 -152q-34 -44 -70 -19
q-149 102 -251 102q-64 0 -103 -27t-39 -77q0 -48 35 -78t122 -66q192 -91 259 -133q156 -98 194 -222q14 -47 14 -100q0 -173 -132 -286t-341 -113q-253 0 -448 189l-7 7q-30 22 -5 56z" />
    <glyph glyph-name="scaron" unicode="&#x161;" horiz-adv-x="827" 
d="M436 1047l307 185q22 9 22 32v131q0 24 -15.5 32t-36.5 -2l-302 -144l-302 144q-23 10 -37.5 2t-14.5 -32v-131q0 -22 23 -32l307 -185q23 -15 49 0zM50 130l75 129q17 30 50 13q37 -19 107.5 -40.5t135.5 -21.5q40 0 63.5 13.5t23.5 36.5q0 30 -31.5 45.5t-129.5 43.5
q-135 41 -206 107.5t-72 170.5q0 120 90 195t261 75q95 0 162 -23t136 -65q33 -17 19 -40l-85 -141q-14 -24 -45 -10q-33 18 -88.5 34t-104.5 16q-92 0 -92 -50q0 -14 8 -24t30 -19.5t39 -14.5t55 -15q168 -47 245.5 -112.5t77.5 -172.5q0 -132 -102.5 -203t-260.5 -71
q-194 0 -352 104q-22 16 -9 40z" />
    <glyph glyph-name="uni0162" unicode="&#x162;" 
d="M996 1354q13 0 22 -8.5t9 -22.5v-198q0 -13 -9 -23t-22 -10h-317v-1061q0 -12 -9 -21.5t-21 -9.5h-26l-57 -115q81 -14 135 -76.5t54 -145.5q0 -92 -69 -159.5t-165 -67.5q-106 0 -176 82q-10 13 2 26l70 65q14 14 29 4q37 -31 71 -31q39 0 62 23t23 58q0 34 -22.5 57
t-60.5 23q-35 0 -71 -33q-9 -13 -23 -3l-80 66q-11 6 -3 20q0 1 1 2t1 2l106 203h-30q-14 0 -22.5 9t-8.5 22v1061h-302q-14 0 -23.5 9t-9.5 22v198q0 14 9.5 23.5t23.5 9.5h909z" />
    <glyph glyph-name="uni0163" unicode="&#x163;" horiz-adv-x="744" 
d="M713 94q13 -19 -12 -37q-61 -50 -159 -66l-53 -102q81 -15 135.5 -77t54.5 -145q0 -92 -69.5 -160t-165.5 -68q-105 0 -175 82q-10 13 2 26l69 66q14 14 30 3q37 -31 71 -31q39 0 62 23.5t23 58.5q0 34 -22.5 57t-60.5 23q-36 0 -72 -33q-9 -13 -22 -4l-80 66
q-12 6 -3 21q0 1 0.5 1.5t0.5 1.5l104 200q-97 28 -152.5 108.5t-55.5 205.5v318h-97q-12 0 -21 9t-9 22v52q0 13 0.5 17.5t4 10.5t11.5 14q93 85 153.5 162.5t125.5 201.5q17 31 44 31h45q12 0 21 -9.5t9 -21.5v-236h173q14 0 22.5 -8t8.5 -21v-196q0 -12 -9 -20t-22 -8
h-120q-37 0 -57 5v-293q0 -48 21 -79t64 -31q26 0 68 18q28 15 40 -11z" />
    <glyph glyph-name="Tcaron" unicode="&#x164;" 
d="M208 1701q-22 9 -22 31v132q0 24 15 32t37 -2l302 -145l302 145q21 10 36.5 2t15.5 -32v-132q0 -21 -23 -31l-307 -186q-26 -15 -49 0zM996 1354q13 0 22 -8.5t9 -22.5v-198q0 -13 -9 -23t-22 -10h-317v-1061q0 -12 -9 -21.5t-21 -9.5h-229q-14 0 -22.5 9t-8.5 22v1061
h-302q-14 0 -23.5 9t-9.5 22v198q0 14 9.5 23.5t23.5 9.5h909z" />
    <glyph glyph-name="tcaron" unicode="&#x165;" horiz-adv-x="949" 
d="M958 1175q2 -98 -54 -203t-158 -165q-26 -17 -40 5l-24 35q-11 15 5 26q60 47 89 82.5t40 91.5q-9 -2 -28 -2q-67 0 -114 48.5t-47 116.5q0 67 47 114t114 47q70 0 119 -53t51 -143zM474 -14q-140 0 -225.5 86.5t-85.5 241.5v318h-97q-12 0 -21 9t-9 22v52q0 13 0.5 17.5
t4 10.5t11.5 14q93 85 153.5 162.5t125.5 201.5q17 31 44 31h45q12 0 21 -9.5t9 -21.5v-236h173q14 0 22.5 -8t8.5 -21v-196q0 -12 -9 -20t-22 -8h-120q-37 0 -57 5v-293q0 -48 21 -79t64 -31q26 0 68 18q28 15 40 -11l74 -147q13 -19 -12 -37q-41 -33 -101.5 -52
t-125.5 -19z" />
    <glyph glyph-name="Tbar" unicode="&#x166;" horiz-adv-x="1088" 
d="M1003 885q31 0 31 -31v-198q0 -13 -8.5 -23t-22.5 -10h-324v-592q0 -12 -9 -21.5t-21 -9.5h-229q-14 0 -22.5 9t-8.5 22v592h-295q-13 0 -23 9t-10 22v198q0 14 9.5 23.5t23.5 9.5h295v207h-302q-14 0 -23.5 9t-9.5 22v198q0 14 9.5 23.5t23.5 9.5h909q13 0 22 -8.5
t9 -22.5v-198q0 -13 -9 -23t-22 -10h-317v-207h324z" />
    <glyph glyph-name="tbar" unicode="&#x167;" horiz-adv-x="744" 
d="M713 94q13 -19 -12 -37q-41 -33 -101.5 -52t-125.5 -19q-140 0 -225.5 86.5t-85.5 241.5v97h-94q-26 0 -26 21v83q0 10 7 17.5t19 7.5h94v92h-97q-12 0 -21 9t-9 22v52q0 13 0.5 17.5t4 10.5t11.5 14q93 85 153.5 162.5t125.5 201.5q17 31 44 31h45q12 0 21 -9.5t9 -21.5
v-236h173q14 0 22.5 -8t8.5 -21v-196q0 -12 -9 -20t-22 -8h-120q-37 0 -57 5v-97h187q13 0 20.5 -7t7.5 -18v-81q0 -23 -28 -23h-187v-67q0 -48 21 -79t64 -31q26 0 68 18q28 15 40 -11z" />
    <glyph glyph-name="Utilde" unicode="&#x168;" horiz-adv-x="1341" 
d="M819 1515q-43 0 -83 15t-67 33.5t-64.5 33.5t-76.5 15q-33 0 -63 -12t-44 -23t-34 -29q-21 -21 -40 2l-80 94q-14 17 2 43q2 2 20.5 25.5t34 38.5t42.5 35.5t61.5 31t74.5 10.5q48 0 91 -15t69.5 -33t61.5 -33t69 -15q77 0 141 64q20 20 38 -1l80 -94q16 -20 -2 -44
q-2 -2 -16.5 -21t-24.5 -30.5t-32 -30.5t-42.5 -30.5t-51.5 -20.5t-64 -9zM1196 1354q14 0 22.5 -9t8.5 -22v-821q0 -106 -36.5 -198.5t-105 -163t-176 -111.5t-239.5 -41t-239 41t-175 111.5t-104.5 163t-36.5 198.5v821q0 13 8.5 22t22.5 9h229q13 0 21 -9t8 -22v-769
q0 -132 68.5 -211t197.5 -79t197 79t68 211v769q0 13 9.5 22t22.5 9h229z" />
    <glyph glyph-name="utilde" unicode="&#x169;" horiz-adv-x="1083" 
d="M217 1081l-80 94q-14 17 2 43q2 2 20.5 25.5t34 38.5t42 35.5t61 31t74.5 10.5q48 0 91.5 -15t69.5 -32.5t61.5 -32.5t69.5 -15q77 0 141 64q20 20 38 -2l80 -94q16 -19 -2 -43q-2 -2 -16.5 -21t-24.5 -30.5t-32 -30.5t-42.5 -30.5t-51.5 -20.5t-64 -9q-43 0 -83.5 15
t-67 33.5t-64.5 33.5t-77 15q-33 0 -62.5 -12t-43.5 -22.5t-34 -29.5q-21 -21 -40 1zM946 885q29 0 29 -33v-822q0 -13 -7.5 -21.5t-19.5 -8.5h-224q-31 0 -31 30v93q-112 -135 -275 -135q-139 0 -228 87t-89 246v403q0 48 -11 121q-4 16 1.5 28t17.5 12h202
q34 0 53.5 -21.5t19.5 -56.5v-422q0 -68 38.5 -108.5t105.5 -40.5q53 0 96.5 27.5t68.5 74.5v514q0 13 9 23t22 10h222z" />
    <glyph glyph-name="Umacron" unicode="&#x16a;" horiz-adv-x="1341" 
d="M356 1777q0 13 9 22t22 9h568q13 0 22 -8.5t9 -22.5v-170q0 -13 -9 -22t-22 -9h-568q-13 0 -22 8t-9 21v172zM1196 1354q14 0 22.5 -9t8.5 -22v-821q0 -106 -36.5 -198.5t-105 -163t-176 -111.5t-239.5 -41t-239 41t-175 111.5t-104.5 163t-36.5 198.5v821q0 13 8.5 22
t22.5 9h229q13 0 21 -9t8 -22v-769q0 -132 68.5 -211t197.5 -79t197 79t68 211v769q0 13 9.5 22t22.5 9h229z" />
    <glyph glyph-name="umacron" unicode="&#x16b;" horiz-adv-x="1083" 
d="M257 1107q-13 0 -22 8.5t-9 21.5v172q0 13 9 22t22 9h567q13 0 22.5 -8.5t9.5 -22.5v-170q0 -13 -9.5 -22.5t-22.5 -9.5h-567zM946 885q29 0 29 -33v-822q0 -13 -7.5 -21.5t-19.5 -8.5h-224q-31 0 -31 30v93q-112 -135 -275 -135q-139 0 -228 87t-89 246v403
q0 48 -11 121q-4 16 1.5 28t17.5 12h202q34 0 53.5 -21.5t19.5 -56.5v-422q0 -68 38.5 -108.5t105.5 -40.5q53 0 96.5 27.5t68.5 74.5v514q0 13 9 23t22 10h222z" />
    <glyph glyph-name="Ubreve" unicode="&#x16c;" horiz-adv-x="1341" 
d="M670 1491q-135 0 -230 80.5t-102 207.5q-3 43 28 43h127q18 0 31 -32q1 -1 1.5 -2t0.5 -2q8 -48 46 -78.5t98 -30.5t98 30.5t46 78.5q12 36 33 36h127q29 0 29 -43q-7 -127 -102.5 -207.5t-230.5 -80.5zM1196 1354q14 0 22.5 -9t8.5 -22v-821q0 -106 -36.5 -198.5
t-105 -163t-176 -111.5t-239.5 -41t-239 41t-175 111.5t-104.5 163t-36.5 198.5v821q0 13 8.5 22t22.5 9h229q13 0 21 -9t8 -22v-769q0 -132 68.5 -211t197.5 -79t197 79t68 211v769q0 13 9.5 22t22.5 9h229z" />
    <glyph glyph-name="ubreve" unicode="&#x16d;" horiz-adv-x="1083" 
d="M542 1022q-135 0 -230 80.5t-102 207.5q-3 44 28 44h126q3 0 5.5 -0.5t4.5 -1t4 -2.5t3.5 -3t3 -3.5t2.5 -4t2.5 -5.5t2.5 -5t2.5 -5.5t2.5 -6.5q8 -48 46.5 -78.5t98.5 -30.5t98 30.5t46 78.5q12 37 33 37h126q30 0 30 -44q-7 -127 -102.5 -207.5t-230.5 -80.5zM946 885
q29 0 29 -33v-822q0 -13 -7.5 -21.5t-19.5 -8.5h-224q-31 0 -31 30v93q-112 -135 -275 -135q-139 0 -228 87t-89 246v403q0 48 -11 121q-4 16 1.5 28t17.5 12h202q34 0 53.5 -21.5t19.5 -56.5v-422q0 -68 38.5 -108.5t105.5 -40.5q53 0 96.5 27.5t68.5 74.5v514q0 13 9 23
t22 10h222z" />
    <glyph glyph-name="Uring" unicode="&#x16e;" horiz-adv-x="1341" 
d="M672 1453q-82 0 -142 59t-60 142t60 142t142 59t140.5 -59t58.5 -142t-58.5 -142t-140.5 -59zM672 1583q29 0 51 20t22 51t-22 52t-51 21q-31 0 -52 -20.5t-21 -52.5q0 -31 21 -51t52 -20zM1196 1354q14 0 22.5 -9t8.5 -22v-821q0 -106 -36.5 -198.5t-105 -163
t-176 -111.5t-239.5 -41t-239 41t-175 111.5t-104.5 163t-36.5 198.5v821q0 13 8.5 22t22.5 9h229q13 0 21 -9t8 -22v-769q0 -132 68.5 -211t197.5 -79t197 79t68 211v769q0 13 9.5 22t22.5 9h229z" />
    <glyph glyph-name="uring" unicode="&#x16f;" horiz-adv-x="1083" 
d="M542 984q-82 0 -142 59t-60 142t60 142.5t142 59.5t140.5 -59.5t58.5 -142.5t-58.5 -142t-140.5 -59zM542 1258q-31 0 -52 -20.5t-21 -52.5q0 -31 21 -51t52 -20q29 0 50.5 20t21.5 51t-21.5 52t-50.5 21zM946 885q29 0 29 -33v-822q0 -13 -7.5 -21.5t-19.5 -8.5h-224
q-31 0 -31 30v93q-112 -135 -275 -135q-139 0 -228 87t-89 246v403q0 48 -11 121q-4 16 1.5 28t17.5 12h202q34 0 53.5 -21.5t19.5 -56.5v-422q0 -68 38.5 -108.5t105.5 -40.5q53 0 96.5 27.5t68.5 74.5v514q0 13 9 23t22 10h222z" />
    <glyph glyph-name="Uhungarumlaut" unicode="&#x170;" horiz-adv-x="1341" 
d="M361 1552q-12 0 -21.5 9t-9.5 22l12 337q2 13 10.5 22t20.5 9h205q13 0 22.5 -8.5t8.5 -22.5l-55 -339q-2 -12 -11 -20.5t-21 -8.5h-161zM762 1552q-12 0 -21.5 9t-9.5 22l12 337q2 13 10.5 22t20.5 9h205q13 0 22.5 -8.5t8.5 -22.5l-55 -339q-5 -29 -32 -29h-161z
M1196 1354q14 0 22.5 -9t8.5 -22v-821q0 -106 -36.5 -198.5t-105 -163t-176 -111.5t-239.5 -41t-239 41t-175 111.5t-104.5 163t-36.5 198.5v821q0 13 8.5 22t22.5 9h229q13 0 21 -9t8 -22v-769q0 -132 68.5 -211t197.5 -79t197 79t68 211v769q0 13 9.5 22t22.5 9h229z" />
    <glyph glyph-name="uhungarumlaut" unicode="&#x171;" horiz-adv-x="1083" 
d="M231 1083q-12 0 -21.5 9t-9.5 22l12 337q2 13 10.5 22t20.5 9h205q13 0 22.5 -8.5t8.5 -22.5l-56 -338q-6 -30 -31 -30h-161zM632 1083q-12 0 -21.5 9t-9.5 22l12 337q2 13 10.5 22t20.5 9h205q13 0 22.5 -8.5t8.5 -22.5l-56 -338q-6 -30 -31 -30h-161zM946 885
q29 0 29 -33v-822q0 -13 -7.5 -21.5t-19.5 -8.5h-224q-31 0 -31 30v93q-112 -135 -275 -135q-139 0 -228 87t-89 246v403q0 48 -11 121q-4 16 1.5 28t17.5 12h202q34 0 53.5 -21.5t19.5 -56.5v-422q0 -68 38.5 -108.5t105.5 -40.5q53 0 96.5 27.5t68.5 74.5v514q0 13 9 23
t22 10h222z" />
    <glyph glyph-name="Uogonek" unicode="&#x172;" horiz-adv-x="1341" 
d="M1196 1354q14 0 22.5 -9t8.5 -22v-821q0 -104 -35.5 -195.5t-102.5 -162t-171.5 -112t-233.5 -44.5h2q-115 -5 -175.5 -54t-60.5 -116q0 -45 28.5 -71t78.5 -26q40 0 99 24q18 8 31.5 1t13.5 -24v-102q0 -24 -22 -37q-80 -57 -191 -57q-102 0 -168.5 54t-66.5 141
q0 93 74.5 170.5t191.5 111.5q-194 41 -299 177.5t-105 321.5v821q0 13 8.5 22t22.5 9h229q13 0 21 -9t8 -22v-769q0 -132 68.5 -211t197.5 -79t197 79t68 211v769q0 13 9.5 22t22.5 9h229z" />
    <glyph glyph-name="uogonek" unicode="&#x173;" horiz-adv-x="1083" 
d="M946 885q29 0 29 -33v-822q0 -13 -7.5 -21.5t-19.5 -8.5q-115 -5 -175.5 -54t-60.5 -116q0 -45 28.5 -71t78.5 -26q40 0 99 24q18 8 31.5 1t13.5 -24v-102q0 -23 -22 -36q-81 -58 -191 -58q-102 0 -168.5 54t-66.5 141q0 84 61 155.5t162 111.5h-14q-31 0 -31 30v93
q-112 -135 -275 -135q-139 0 -228 87t-89 246v403q0 48 -11 121q-4 16 1.5 28t17.5 12h202q34 0 53.5 -21.5t19.5 -56.5v-422q0 -68 38.5 -108.5t105.5 -40.5q53 0 96.5 27.5t68.5 74.5v514q0 13 9 23t22 10h222z" />
    <glyph glyph-name="Wcircumflex" unicode="&#x174;" horiz-adv-x="2110" 
d="M1078 1892q-26 15 -49 0l-307 -186q-23 -10 -23 -31v-132q0 -24 15.5 -32t37.5 2l302 144l301 -144q21 -10 37 -2t16 32v132q0 21 -23 31zM489 0q-26 0 -34 26l-415 1284q-7 21 0 32.5t24 11.5h240q27 0 41 -40l243 -837l311 837q15 40 40 40h231q26 0 40 -40l310 -837
l245 837q14 40 40 40h241q17 0 24 -11.5t1 -32.5l-415 -1284q-8 -26 -37 -26h-175q-27 0 -35 26l-354 955l-354 -955q-11 -26 -35 -26h-177z" />
    <glyph glyph-name="wcircumflex" unicode="&#x175;" horiz-adv-x="1515" 
d="M781 1423q-26 15 -49 0l-307 -186q-22 -9 -22 -31v-132q0 -24 14.5 -31.5t37.5 2.5l302 144l302 -144q21 -10 36.5 -2.5t15.5 31.5v132q0 21 -23 31zM345 0q-23 0 -34 30l-273 824q-5 13 0.5 22t20.5 9h219q21 0 31 -31l139 -498h8l176 498q10 31 29 31h193q17 0 31 -31
l174 -498h8l139 498q10 31 31 31h221q14 0 19.5 -9t1.5 -22l-274 -824q-2 -11 -12.5 -20.5t-22.5 -9.5h-189q-22 0 -37 30l-184 503h-5l-184 -503q-11 -30 -35 -30h-191z" />
    <glyph glyph-name="Ycircumflex" unicode="&#x176;" horiz-adv-x="1306" 
d="M351 1513q-23 -10 -37.5 -2t-14.5 32v132q0 22 22 31l307 186q23 15 49 0l307 -186q23 -10 23 -31v-132q0 -24 -15.5 -32t-36.5 2l-302 144zM1239 1354q25 0 30.5 -14t-7.5 -31l-464 -769v-510q0 -30 -29 -30h-231q-29 0 -29 30v510l-464 769q-13 17 -7 31t30 14h234
q38 0 54 -31l298 -500l297 500q16 31 54 31h234z" />
    <glyph glyph-name="ycircumflex" unicode="&#x177;" horiz-adv-x="1003" 
d="M526 1423q-26 15 -49 0l-307 -186q-22 -9 -22 -31v-132q0 -24 15 -31.5t37 2.5l302 144l302 -144q21 -10 36.5 -2.5t15.5 31.5v132q0 21 -23 31zM944 885q15 0 20.5 -9t0.5 -22l-463 -1170q-14 -31 -32 -31h-224q-14 0 -19 9t-1 22l137 346l-325 824q-5 13 0.5 22t20.5 9
h224q17 0 31 -31l182 -498h11l182 498q4 10 7.5 15.5t9.5 10.5t14 5h224z" />
    <glyph glyph-name="Ydieresis" unicode="&#x178;" horiz-adv-x="1306" 
d="M429 1579q-54 0 -92 39t-38 93q0 53 37.5 90t92.5 37q54 0 92 -37t38 -90t-38.5 -92.5t-91.5 -39.5zM876 1579q-53 0 -90.5 39t-37.5 93t37 90.5t91 36.5t93 -37t39 -90t-39.5 -92.5t-92.5 -39.5zM1239 1354q25 0 30.5 -14t-7.5 -31l-464 -769v-510q0 -30 -29 -30h-231
q-29 0 -29 30v510l-464 769q-13 17 -7 31t30 14h234q38 0 54 -31l298 -500l297 500q16 31 54 31h234z" />
    <glyph glyph-name="Zacute" unicode="&#x179;" horiz-adv-x="1105" 
d="M793 1647q13 4 17 16.5t-6 30.5l-103 182q-7 11 -22 11.5t-25 -7.5l-343 -233q-8 -4 -11 -14t4 -22l74 -125q13 -23 44 -9zM71 0q-26 0 -26 26v31q0 17 16 47l590 988h-559q-13 0 -22 8.5t-9 22.5v200q0 13 9 22t22 9h942q26 0 26 -26v-32q0 -22 -15 -46l-590 -988h559
q13 0 22 -8.5t9 -22.5v-200q0 -13 -9 -22t-22 -9h-943z" />
    <glyph glyph-name="zacute" unicode="&#x17a;" horiz-adv-x="853" 
d="M663 1178q13 4 16.5 17t-6.5 30l-102 183q-7 11 -21 11t-26 -8l-343 -233q-8 -4 -11 -14t4 -22l74 -125q13 -23 44 -9zM436 253h319q29 0 29 -29v-193q0 -13 -8 -22t-21 -9h-670q-12 0 -21.5 9.5t-9.5 20.5v45l369 557h-315q-13 0 -21.5 7.5t-8.5 21.5v193q0 13 9 22
t21 9h661q12 0 21.5 -9t9.5 -20v-45z" />
    <glyph glyph-name="Zdotaccent" unicode="&#x17b;" horiz-adv-x="1105" 
d="M557 1550q-60 0 -103 43t-43 103q0 58 43 100t103 42q59 0 100.5 -42t41.5 -100q0 -60 -42 -103t-100 -43zM71 0q-26 0 -26 26v31q0 17 16 47l590 988h-559q-13 0 -22 8.5t-9 22.5v200q0 13 9 22t22 9h942q26 0 26 -26v-32q0 -22 -15 -46l-590 -988h559q13 0 22 -8.5
t9 -22.5v-200q0 -13 -9 -22t-22 -9h-943z" />
    <glyph glyph-name="zdotaccent" unicode="&#x17c;" horiz-adv-x="853" 
d="M427 1081q-60 0 -103 43t-43 103q0 58 43 100t103 42q59 0 100.5 -41.5t41.5 -100.5q0 -60 -42 -103t-100 -43zM436 253h319q29 0 29 -29v-193q0 -13 -8 -22t-21 -9h-670q-12 0 -21.5 9.5t-9.5 20.5v45l369 557h-315q-13 0 -21.5 7.5t-8.5 21.5v193q0 13 9 22t21 9h661
q12 0 21.5 -9t9.5 -20v-45z" />
    <glyph glyph-name="Zcaron" unicode="&#x17d;" horiz-adv-x="1105" 
d="M581 1515l308 186q22 9 22 31v132q0 24 -15.5 32t-36.5 -2l-302 -145l-302 145q-23 10 -37.5 2t-14.5 -32v-132q0 -21 23 -31l307 -186q22 -14 48 0zM71 0q-26 0 -26 26v31q0 17 16 47l590 988h-559q-13 0 -22 8.5t-9 22.5v200q0 13 9 22t22 9h942q26 0 26 -26v-32
q0 -22 -15 -46l-590 -988h559q13 0 22 -8.5t9 -22.5v-200q0 -13 -9 -22t-22 -9h-943z" />
    <glyph glyph-name="zcaron" unicode="&#x17e;" horiz-adv-x="853" 
d="M451 1047l307 185q23 10 23 32v131q0 24 -15.5 32t-36.5 -2l-302 -144l-302 144q-23 10 -37.5 2t-14.5 -32v-131q0 -23 22 -32l308 -185q22 -14 48 0zM436 253h319q29 0 29 -29v-193q0 -13 -8 -22t-21 -9h-670q-12 0 -21.5 9.5t-9.5 20.5v45l369 557h-315
q-13 0 -21.5 7.5t-8.5 21.5v193q0 13 9 22t21 9h661q12 0 21.5 -9t9.5 -20v-45z" />
    <glyph glyph-name="florin" unicode="&#x192;" horiz-adv-x="754" 
d="M793 1319q23 -23 9 -49l-78 -137q-13 -28 -42 -15q-47 27 -92 27q-47 0 -82.5 -30t-35.5 -96v-134h182q23 0 23 -24v-207q0 -10 -7 -16t-16 -6h-182v-635q0 -163 -96 -253.5t-248 -90.5q-76 0 -146.5 20.5t-113.5 57.5q-24 24 -9 49l79 137q13 27 41 15q43 -27 90 -27
q48 0 84 30t36 96v601h-100q-9 0 -16 6t-7 16v207q0 24 23 24h100v169q0 163 96 253t248 90q75 0 145 -21t115 -57z" />
    <glyph glyph-name="uni01CD" unicode="&#x1cd;" horiz-adv-x="1444" 
d="M391 1736q-23 10 -23 31v132q0 24 15 31.5t37 -2.5l302 -144l302 144q21 10 36.5 2.5t15.5 -31.5v-132q0 -22 -22 -31l-308 -186q-26 -14 -48 0zM1402 43q9 -23 1.5 -33t-25.5 -10h-243q-22 0 -40 40l-55 127h-636l-55 -127q-18 -40 -40 -40h-245q-16 0 -23.5 10t1.5 33
l581 1285q15 26 37 26h124q24 0 35 -26zM509 401h426l-213 479z" />
    <glyph glyph-name="uni01CE" unicode="&#x1ce;" horiz-adv-x="951" 
d="M507 1029l307 186q23 10 23 31v132q0 24 -16 32t-37 -2l-302 -144l-301 144q-23 10 -38 2t-15 -32v-132q0 -21 23 -31l307 -186q23 -15 49 0zM331 -14q-134 0 -205.5 67t-71.5 187q0 144 117 219.5t402 99.5q0 63 -34.5 86t-102.5 23q-116 0 -221 -62q-31 -15 -47 15
l-48 134q-14 31 21 49q165 93 350 93q77 0 142.5 -17.5t116.5 -52t79.5 -91t26.5 -129.5q-4 -119 -2.5 -285.5t16.5 -283.5q2 -16 -6.5 -27t-25.5 -11h-163q-18 0 -40 30.5t-36 75.5q-110 -120 -268 -120zM401 191q95 0 170 78v113q-137 -7 -196 -33t-59 -82q0 -37 23 -56.5
t62 -19.5z" />
    <glyph glyph-name="uni01CF" unicode="&#x1cf;" horiz-adv-x="536" 
d="M281 1522l307 186q23 10 23 31v132q0 24 -15.5 31.5t-36.5 -2.5l-302 -144l-302 144q-23 10 -37.5 2.5t-14.5 -31.5v-132q0 -22 22 -31l308 -186q22 -14 48 0zM154 0q-14 0 -22.5 9t-8.5 22v1292q0 13 8.5 22t22.5 9h228q13 0 22 -9t9 -22v-1292q0 -12 -8.5 -21.5
t-20.5 -9.5h-230z" />
    <glyph glyph-name="uni01D0" unicode="&#x1d0;" horiz-adv-x="508" 
d="M279 1047l308 185q22 9 22 32v131q0 24 -15.5 32t-36.5 -2l-302 -144l-302 144q-23 10 -37.5 2t-14.5 -32v-131q0 -22 23 -32l307 -185q22 -14 48 0zM144 0q-14 0 -22.5 9t-8.5 22v823q0 13 8.5 22t22.5 9h220q13 0 22.5 -9t9.5 -22v-823q0 -13 -9.5 -22t-22.5 -9h-220z
" />
    <glyph glyph-name="uni01D1" unicode="&#x1d1;" horiz-adv-x="1539" 
d="M793 1515l307 186q23 10 23 31v132q0 24 -15.5 32t-36.5 -2l-302 -145l-302 145q-23 10 -37.5 2t-14.5 -32v-132q0 -22 22 -31l308 -186q22 -14 48 0zM771 -12q-199 0 -360 92.5t-250.5 250t-89.5 346.5t89.5 346.5t250.5 250t360 92.5t359.5 -92.5t249 -249.5t88.5 -347
t-88.5 -347t-249 -249.5t-359.5 -92.5zM771 271q175 0 288 117t113 289q0 173 -113 290t-288 116q-117 -1 -209.5 -55t-143 -146t-50.5 -205q0 -173 113.5 -289.5t289.5 -116.5z" />
    <glyph glyph-name="uni01D2" unicode="&#x1d2;" horiz-adv-x="1044" 
d="M547 1021l307 185q22 9 22 31v132q0 24 -15.5 32t-36.5 -2l-302 -144l-302 144q-22 10 -37 2t-15 -32v-132q0 -21 23 -31l307 -185q23 -15 49 0zM522 -14q-200 0 -334 127t-134 328t134 328.5t334 127.5t334.5 -127.5t134.5 -328.5t-134.5 -328t-334.5 -127zM522 226
q92 0 151 60.5t59 154.5t-59 155.5t-151 61.5t-151 -61.5t-59 -155.5t59 -154.5t151 -60.5z" />
    <glyph glyph-name="uni01D3" unicode="&#x1d3;" horiz-adv-x="1341" 
d="M694 1515l307 186q23 10 23 31v132q0 24 -15.5 32t-36.5 -2l-302 -145l-302 145q-22 10 -37 2t-15 -32v-132q0 -22 22 -31l308 -186q22 -14 48 0zM1196 1354q14 0 22.5 -9t8.5 -22v-821q0 -106 -36.5 -198.5t-105 -163t-176 -111.5t-239.5 -41t-239 41t-175 111.5
t-104.5 163t-36.5 198.5v821q0 13 8.5 22t22.5 9h229q13 0 21 -9t8 -22v-769q0 -132 68.5 -211t197.5 -79t197 79t68 211v769q0 13 9.5 22t22.5 9h229z" />
    <glyph glyph-name="uni01D4" unicode="&#x1d4;" horiz-adv-x="1083" 
d="M208 1232q-22 9 -22 32v131q0 24 15 32t37 -2l302 -144l302 144q21 10 36.5 2t15.5 -32v-131q0 -22 -23 -32l-307 -185q-26 -15 -49 0zM946 885q29 0 29 -33v-822q0 -13 -7.5 -21.5t-19.5 -8.5h-224q-31 0 -31 30v93q-112 -135 -275 -135q-139 0 -228 87t-89 246v403
q0 48 -11 121q-4 16 1.5 28t17.5 12h202q34 0 53.5 -21.5t19.5 -56.5v-422q0 -68 38.5 -108.5t105.5 -40.5q53 0 96.5 27.5t68.5 74.5v514q0 13 9 23t22 10h222z" />
    <glyph glyph-name="Gcaron" unicode="&#x1e6;" horiz-adv-x="1400" 
d="M411 1678q-22 9 -22 32v131q0 24 14.5 32t37.5 -2l302 -144l302 144q21 10 36.5 2t15.5 -32v-131q0 -22 -23 -32l-307 -185q-26 -14 -48 0zM1272 779q31 0 31 -29v-530q-103 -114 -239 -173t-283 -59q-201 0 -363.5 89t-254.5 246.5t-92 353.5t91.5 353.5t252.5 246.5
t359 89q299 0 512 -210q24 -24 0 -45l-170 -151q-20 -20 -43 0q-123 123 -295 123q-180 0 -295 -118.5t-115 -287.5q0 -170 117 -288t305 -118q149 0 264 83v174h-257q-32 0 -32 27v195q0 29 32 29h475z" />
    <glyph glyph-name="gcaron" unicode="&#x1e7;" horiz-adv-x="999" 
d="M536 1029l307 186q23 10 23 31v132q0 24 -15.5 32t-36.5 -2l-302 -144l-302 144q-22 10 -37 2t-15 -32v-132q0 -21 23 -31l307 -186q22 -14 48 0zM640 31q172 -26 251 -83.5t79 -173.5q0 -85 -39.5 -149.5t-108.5 -101t-153 -54t-183 -16.5q-125 1 -224 30t-159.5 89
t-60.5 142q0 45 18 81.5t48.5 59t63 36t69.5 20.5q-201 43 -201 174q0 75 55 120t125 38q-119 105 -121 262q-4 168 111 280t304 112q29 0 150.5 -14t241.5 -3q13 0 22.5 -8.5t8.5 -22.5l-8 -118q-13 -22 -113 -28q102 -86 102 -234q0 -160 -115 -260t-286 -100q-16 0 -30 1
t-28.5 3.5t-24 4t-24 5.5t-20 6t-21 7t-18.5 6q-47 9 -63.5 1t-16.5 -27q0 -21 27 -30t91 -18zM507 660q-64 0 -109.5 -42.5t-45.5 -110.5t44.5 -111t112.5 -45q67 0 109 43t42 111q0 69 -44 112t-109 43zM514 -312q65 0 111.5 22.5t46.5 65.5q0 52 -71 64l-160 30
q-53 11 -95 -12t-42 -68q0 -102 210 -102z" />
    <glyph glyph-name="uni0218" unicode="&#x218;" horiz-adv-x="1084" 
d="M82 240l112 152q12 17 31.5 18.5t29.5 -9.5q2 -1 20 -17t25.5 -22t28 -21.5t34.5 -23.5t38 -20t44.5 -18t47 -10.5t52.5 -4.5q82 0 127 36t45 92q0 22 -9 40.5t-20 31t-36 27.5t-41 22.5t-50 22.5q-88 43 -133 65.5t-110.5 60t-97.5 67t-66.5 69.5t-48 85t-13.5 98
q0 159 125.5 272t332.5 113q65 0 128 -14t101 -28t85 -43t56 -36t38 -30q15 -11 18 -26t-8 -30l-114 -152q-34 -44 -70 -19q-149 102 -251 102q-64 0 -103 -27t-39 -77q0 -48 35 -78t122 -66q192 -91 259 -133q156 -98 194 -222q14 -47 14 -100q0 -173 -132 -286t-341 -113
q-253 0 -448 189l-7 7q-30 22 -5 56zM710 -347q2 -99 -53.5 -204t-156.5 -164q-27 -15 -40 3l-26 37q-9 12 5 26q60 47 89 82t41 91q-13 -3 -29 -3q-66 0 -114 49t-48 116t48 114t116 47t117.5 -52.5t50.5 -141.5z" />
    <glyph glyph-name="uni0219" unicode="&#x219;" horiz-adv-x="827" 
d="M50 130l75 129q17 30 50 13q37 -19 107.5 -40.5t135.5 -21.5q40 0 63.5 13.5t23.5 36.5q0 30 -31.5 45.5t-129.5 43.5q-135 41 -206 107.5t-72 170.5q0 120 90 195t261 75q95 0 162 -23t136 -65q33 -17 19 -40l-85 -141q-14 -24 -45 -10q-33 18 -88.5 34t-104.5 16
q-92 0 -92 -50q0 -14 8 -24t30 -19.5t39 -14.5t55 -15q168 -47 245.5 -112.5t77.5 -172.5q0 -132 -102.5 -203t-260.5 -71q-194 0 -352 104q-22 16 -9 40zM583 -347q2 -99 -53.5 -204t-156.5 -164q-27 -15 -40 3l-26 37q-9 12 5 26q41 32 61.5 51t41 51t28.5 71
q-13 -3 -30 -3q-66 0 -113.5 49t-47.5 116t47.5 114t115.5 47t117.5 -52.5t50.5 -141.5z" />
    <glyph glyph-name="uni021A" unicode="&#x21a;" 
d="M996 1354q13 0 22 -8.5t9 -22.5v-198q0 -13 -9 -23t-22 -10h-317v-1061q0 -12 -9 -21.5t-21 -9.5h-229q-14 0 -22.5 9t-8.5 22v1061h-302q-14 0 -23.5 9t-9.5 22v198q0 14 9.5 23.5t23.5 9.5h909zM515 -153q69 0 118.5 -52.5t50.5 -141.5q2 -99 -53.5 -204t-156.5 -164
q-27 -15 -40 3l-26 37q-9 12 5 26q60 47 89 82t41 91q-14 -3 -29 -3q-66 0 -114 49t-48 116t47.5 114t115.5 47z" />
    <glyph glyph-name="uni021B" unicode="&#x21b;" horiz-adv-x="744" 
d="M474 -14q-140 0 -225.5 86.5t-85.5 241.5v318h-97q-12 0 -21 9t-9 22v52q0 13 0.5 17.5t4 10.5t11.5 14q93 85 153.5 162.5t125.5 201.5q17 31 44 31h45q12 0 21 -9.5t9 -21.5v-236h173q14 0 22.5 -8t8.5 -21v-196q0 -12 -9 -20t-22 -8h-120q-37 0 -57 5v-293
q0 -48 21 -79t64 -31q26 0 68 18q28 15 40 -11l74 -147q13 -19 -12 -37q-41 -33 -101.5 -52t-125.5 -19zM607 -344q2 -99 -53.5 -204t-156.5 -164q-26 -15 -39 4l-27 36q-9 11 6 26q59 47 88.5 82.5t41.5 91.5q-18 -4 -30 -4q-66 0 -113.5 49t-47.5 116t47.5 114.5
t115.5 47.5t117.5 -53t50.5 -142z" />
    <glyph glyph-name="uni0229" unicode="&#x229;" horiz-adv-x="992" 
d="M939 488q0 -150 -186 -150h-413q56 -128 247 -128q97 0 175 49q15 9 27 7t25 -18l45 -66q20 -24 -5 -55q-91 -121 -273 -139l-52 -103q81 -15 135.5 -77t54.5 -145q0 -92 -69.5 -159.5t-165.5 -67.5q-105 0 -175 82q-10 13 2 26l69 65q15 15 30 4q37 -31 71 -31
q39 0 62 23t23 58q0 33 -23 56.5t-61 23.5q-35 0 -71 -33q-9 -12 -22 -3l-80 66q-12 7 -4 20q0 1 1 2t1 2l104 201q-162 33 -259.5 151.5t-97.5 291.5q0 198 124 327t327 129q103 0 187 -34.5t137 -92t81.5 -130.5t28.5 -152zM505 666q-68 0 -111.5 -37.5t-60.5 -100.5h337
q-34 138 -165 138z" />
    <glyph glyph-name="uni0237" unicode="&#x237;" horiz-adv-x="503" 
d="M148 -397q-27 -11 -42 12l-111 203q-14 27 14 47q104 60 104 145v844q0 13 8.5 22t22.5 9h220q13 0 22.5 -9t9.5 -22l1 -875q0 -147 -63 -234t-186 -142z" />
    <glyph glyph-name="circumflex" unicode="&#x2c6;" horiz-adv-x="846" 
d="M448 1423q-26 15 -49 0l-307 -186q-23 -10 -23 -31v-132q0 -24 14.5 -31.5t37.5 2.5l302 144l302 -144q21 -10 37 -2.5t16 31.5v132q0 21 -23 31z" />
    <glyph glyph-name="caron" unicode="&#x2c7;" horiz-adv-x="846" 
d="M448 1047l307 185q23 10 23 32v131q0 24 -16 32t-37 -2l-302 -144l-302 144q-23 10 -37.5 2t-14.5 -32v-131q0 -22 23 -32l307 -185q23 -15 49 0z" />
    <glyph glyph-name="breve" unicode="&#x2d8;" horiz-adv-x="699" 
d="M349 1022q-135 0 -230 80.5t-102 207.5q-3 44 28 44h127q3 0 5.5 -0.5t4.5 -1t4 -2.5t3.5 -3t3 -3.5t2.5 -4t2.5 -5.5t2.5 -5t2.5 -5.5t2.5 -6.5q8 -48 46 -78.5t98 -30.5t98 30.5t46 78.5q12 37 33 37h127q29 0 29 -44q-7 -127 -102.5 -207.5t-230.5 -80.5z" />
    <glyph glyph-name="dotaccent" unicode="&#x2d9;" horiz-adv-x="322" 
d="M163 1081q-60 0 -103 43t-43 103q0 58 43 100t103 42q59 0 100.5 -41.5t41.5 -100.5q0 -60 -42 -103t-100 -43z" />
    <glyph glyph-name="ring" unicode="&#x2da;" horiz-adv-x="574" 
d="M288 984q-82 0 -141.5 59t-59.5 142t59.5 142.5t141.5 59.5t141 -59.5t59 -142.5t-59 -142t-141 -59zM288 1114q29 0 51 20t22 51t-22 52t-51 21q-31 0 -52 -20.5t-21 -52.5q0 -31 21 -51t52 -20z" />
    <glyph glyph-name="ogonek" unicode="&#x2db;" horiz-adv-x="482" 
d="M252 -462q-102 0 -168.5 54t-66.5 141q0 95 79.5 174.5t202.5 111.5l151 -19q-115 -5 -176 -54t-61 -116q0 -45 28.5 -71t79.5 -26q40 0 99 24q18 8 31.5 1t13.5 -24v-102q0 -23 -22 -36q-81 -58 -191 -58z" />
    <glyph glyph-name="tilde" unicode="&#x2dc;" horiz-adv-x="968" 
d="M644 1047q-43 0 -83.5 15t-67 33.5t-64.5 33.5t-77 15q-33 0 -62.5 -12t-43.5 -22.5t-34 -29.5q-21 -21 -40 1l-80 94q-14 17 2 43q2 2 20.5 25.5t34 38.5t42 35.5t61 31t74.5 10.5q48 0 91.5 -15t69.5 -32.5t61.5 -32.5t69.5 -15t63 11.5t43.5 22.5t33.5 30q20 20 39 -2
l79 -94q16 -20 -1 -43q-2 -2 -16.5 -21t-24.5 -30.5t-32 -30.5t-42.5 -30.5t-51.5 -20.5t-64 -9z" />
    <glyph glyph-name="hungarumlaut" unicode="&#x2dd;" horiz-adv-x="819" 
d="M101 1083q-12 0 -22 9.5t-10 21.5l13 337q2 13 10.5 22t20.5 9h205q13 0 22.5 -8.5t8.5 -22.5l-56 -338q-6 -30 -31 -30h-161zM502 1083q-12 0 -22 9.5t-10 21.5l12 337q2 13 11 22t21 9h205q13 0 22.5 -8.5t8.5 -22.5l-56 -338q-6 -30 -31 -30h-161z" />
    <glyph glyph-name="uni0326" unicode="&#x326;" horiz-adv-x="0" 
d="M-87 -347q2 -99 -53.5 -204t-156.5 -164q-27 -15 -40 3l-26 37q-9 12 5 26q41 32 61.5 51t41 51t28.5 71q-14 -3 -30 -3q-66 0 -113.5 49t-47.5 116t47.5 114t115.5 47t117.5 -52.5t50.5 -141.5z" />
    <glyph glyph-name="uni0394" unicode="&#x394;" horiz-adv-x="1450" 
d="M1411 33q7 -14 1.5 -23.5t-22.5 -9.5h-1329q-16 0 -22 10.5t1 24.5l653 1347q5 15 26 15h15q16 0 24 -15zM437 271h573l-285 618z" />
    <glyph glyph-name="uni03A9" unicode="&#x3a9;" horiz-adv-x="1501" 
d="M42 262v-229q0 -14 9 -23.5t22 -9.5h571q31 0 31 33v175q0 11 -1.5 19t-3 12.5t-7 10t-7.5 7t-11 7t-12 7.5q-139 77 -217 186.5t-78 235.5q0 177 112 295.5t302 118.5q187 0 298 -118.5t111 -295.5q0 -126 -78 -235.5t-217 -186.5q-15 -9 -18.5 -11t-11 -9.5t-9 -17
t-1.5 -25.5v-175q0 -14 7.5 -23.5t20.5 -9.5h576q12 0 21 9.5t9 23.5v229q0 12 -9 21.5t-21 9.5h-198q34 17 72 53.5t76 88.5t62.5 125t24.5 150q0 194 -95.5 355t-259.5 252.5t-360 91.5q-197 0 -361.5 -91.5t-260 -252t-95.5 -355.5q0 -77 23.5 -150t59.5 -125t74 -88.5
t72 -53.5h-191q-13 0 -22 -9.5t-9 -21.5z" />
    <glyph glyph-name="uni03BC" unicode="&#x3bc;" horiz-adv-x="1105" 
d="M970 885q13 0 21.5 -9.5t8.5 -23.5v-472q0 -178 -96 -290.5t-269 -112.5q-115 -3 -227 77v-370q0 -13 -10 -22t-23 -9h-229q-14 0 -22.5 9t-8.5 22v1168q0 15 9 24t24 9h229q13 0 22 -9.5t9 -23.5v-488q55 -73 127 -87t122.5 31t50.5 128v416q0 14 8.5 23.5t22.5 9.5h231
z" />
    <glyph glyph-name="pi" unicode="&#x3c0;" horiz-adv-x="1258" 
d="M1140 887q13 0 22.5 -9t9.5 -22v-212q0 -33 -32 -33h-109v-281q0 -100 90 -149q30 -14 16 -39l-113 -210q-13 -24 -42 -12q-122 57 -182 149t-62 245v297h-219v-578q0 -14 -8.5 -23.5t-22.5 -9.5h-228q-14 0 -23.5 9.5t-9.5 23.5v578h-109q-13 0 -22 8.5t-9 22.5v212
q0 13 9 23t22 10h1022z" />
    <glyph glyph-name="uni0401" unicode="&#x401;" 
d="M391 1579q-54 0 -92.5 39t-38.5 93q0 53 38 90t93 37q54 0 92 -37t38 -90t-38.5 -92.5t-91.5 -39.5zM838 1579q-53 0 -90.5 39t-37.5 93t37 90.5t91 36.5t93 -37t39 -90t-39.5 -92.5t-92.5 -39.5zM1005 262q13 0 22 -9t9 -22v-200q0 -13 -8.5 -22t-22.5 -9h-851
q-13 0 -22 9.5t-9 21.5v1292q0 13 8.5 22t22.5 9h832q13 0 23 -9t10 -22v-198q0 -14 -9.5 -23.5t-23.5 -9.5h-573v-276h429q13 0 22 -9t9 -23v-197q0 -14 -8.5 -23t-22.5 -9h-429v-293h592z" />
    <glyph glyph-name="uni0403" unicode="&#x403;" horiz-adv-x="1135" 
d="M434 1486l-75 125q-7 12 -4 22t11 14l344 233q10 8 25 7.5t22 -11.5l102 -182q10 -17 6.5 -30t-16.5 -17l-372 -170q-30 -13 -43 9zM1026 1354q13 0 22 -9.5t9 -23.5v-221q0 -12 -12 -18t-28 -2q-61 10 -99 12h-505v-1061q0 -12 -8.5 -21.5t-20.5 -9.5h-230
q-14 0 -22.5 9t-8.5 22v1292q0 13 8.5 22t22.5 9h872z" />
    <glyph glyph-name="uni0404" unicode="&#x404;" horiz-adv-x="1369" 
d="M1286 243q24 -21 0 -45q-213 -210 -512 -210q-199 0 -360 89t-252 246.5t-91 353.5t91 353.5t252 246.5t360 89q299 0 512 -210q24 -24 0 -45l-170 -151q-20 -20 -43 0q-123 123 -295 123q-142 0 -246.5 -76.5t-142.5 -199.5h501q14 0 23 -8.5t9 -22.5v-200
q0 -12 -9.5 -20.5t-22.5 -8.5h-501q38 -123 142.5 -199.5t246.5 -76.5q172 0 295 123q23 20 43 0z" />
    <glyph glyph-name="uni0406" unicode="&#x406;" horiz-adv-x="536" 
d="M154 0q-14 0 -22.5 9t-8.5 22v1292q0 13 8.5 22t22.5 9h228q13 0 22 -9t9 -22v-1292q0 -12 -8.5 -21.5t-20.5 -9.5h-230z" />
    <glyph glyph-name="uni0407" unicode="&#x407;" horiz-adv-x="536" 
d="M43 1579q-54 0 -92 39t-38 93q0 53 37.5 90t92.5 37q54 0 92.5 -37t38.5 -90t-39 -92.5t-92 -39.5zM491 1579q-53 0 -90.5 39t-37.5 93t37 90.5t91 36.5t93 -37t39 -90t-39.5 -92.5t-92.5 -39.5zM154 0q-14 0 -22.5 9t-8.5 22v1292q0 13 8.5 22t22.5 9h228q13 0 22 -9
t9 -22v-1292q0 -12 -8.5 -21.5t-20.5 -9.5h-230z" />
    <glyph glyph-name="uni0408" unicode="&#x408;" horiz-adv-x="590" 
d="M207 1354h229q13 0 22 -9t9 -22v-1326q0 -163 -81 -267.5t-218 -151.5q-29 -11 -41 12l-113 210q-8 13 -3.5 24t19.5 15q64 21 105.5 65.5t41.5 105.5v1313q0 13 8 22t22 9z" />
    <glyph glyph-name="uni040C" unicode="&#x40c;" horiz-adv-x="1299" 
d="M474 1486l-75 125q-7 12 -4 22t11 14l344 233q10 8 25 7.5t22 -11.5l102 -182q10 -17 6.5 -30t-16.5 -17l-372 -170q-30 -13 -43 9zM1250 73q21 -23 11 -48t-41 -25h-232q-26 0 -39 16l-536 569v-554q0 -12 -8.5 -21.5t-20.5 -9.5h-230q-14 0 -22.5 9t-8.5 22v1292
q0 13 8.5 22t22.5 9h228q13 0 22 -9t9 -22v-539l493 552q15 18 38 18h241q29 0 39 -22t-9 -44l-550 -606z" />
    <glyph glyph-name="uni040D" unicode="&#x40d;" horiz-adv-x="1454" 
d="M493 1647l371 -170q31 -14 44 9l74 125q6 13 3.5 22.5t-10.5 13.5l-343 233q-32 20 -47 -4l-104 -182q-8 -17 -4.5 -30t16.5 -17zM154 1354h230q12 0 20.5 -9.5t8.5 -21.5v-832l608 833q20 30 53 30h228q12 0 20.5 -9t8.5 -21v-1293q0 -13 -8.5 -22t-22.5 -9h-229
q-12 0 -21 9.5t-9 21.5v859l-607 -860q-20 -30 -54 -30h-227q-13 0 -21.5 9t-8.5 21v1293q0 13 8.5 22t22.5 9z" />
    <glyph glyph-name="uni040E" unicode="&#x40e;" horiz-adv-x="1334" 
d="M668 1491q-135 0 -229.5 80.5t-101.5 207.5q-3 43 27 43h127q18 0 31 -32q1 -1 1.5 -2t0.5 -2q8 -48 46 -78.5t98 -30.5t98 30.5t46 78.5q12 36 33 36h127q29 0 29 -43q-7 -127 -102.5 -207.5t-230.5 -80.5zM1265 1354q25 0 30.5 -14t-5.5 -31l-783 -1295q-8 -14 -25 -14
h-229q-25 0 -35 18t2 39l287 481l-464 771q-12 17 -6.5 31t29.5 14h234q35 0 56 -31l309 -521l312 521q18 31 54 31h234z" />
    <glyph glyph-name="uni0410" unicode="&#x410;" horiz-adv-x="1444" 
d="M1402 43q9 -23 1.5 -33t-25.5 -10h-243q-22 0 -40 40l-55 127h-636l-55 -127q-18 -40 -40 -40h-245q-16 0 -23.5 10t1.5 33l581 1285q15 26 37 26h124q24 0 35 -26zM509 401h426l-213 479z" />
    <glyph glyph-name="uni0411" unicode="&#x411;" horiz-adv-x="1206" 
d="M691 840q189 0 312 -122t123 -296q0 -178 -122.5 -300t-312.5 -122h-537q-14 0 -22.5 9t-8.5 22v1292q0 13 8.5 22t22.5 9h828q13 0 22.5 -9.5t9.5 -23.5v-221q0 -12 -12 -18t-28 -2q-72 12 -99 12h-462v-252h278zM640 264q86 0 131.5 44t45.5 112t-45.5 113t-131.5 45
h-227v-316z" />
    <glyph glyph-name="uni0412" unicode="&#x412;" horiz-adv-x="1223" 
d="M911 727q113 -57 173 -145.5t60 -199.5q0 -166 -124.5 -274t-302.5 -108h-563q-14 0 -22.5 9t-8.5 22v1292q0 13 8.5 22t22.5 9h528q176 0 281.5 -98.5t105.5 -245.5q0 -83 -38.5 -158t-119.5 -125zM783 946q0 63 -43 104.5t-122 41.5h-205v-294h205q78 0 121.5 42.5
t43.5 105.5zM660 262q83 0 129 44t46 107q0 66 -46.5 111t-130.5 45h-245v-307h247z" />
    <glyph glyph-name="uni0413" unicode="&#x413;" horiz-adv-x="1135" 
d="M1026 1354q13 0 22 -9.5t9 -23.5v-221q0 -12 -12 -18t-28 -2q-61 10 -99 12h-505v-1061q0 -12 -8.5 -21.5t-20.5 -9.5h-230q-14 0 -22.5 9t-8.5 22v1292q0 13 8.5 22t22.5 9h872z" />
    <glyph glyph-name="uni0414" unicode="&#x414;" horiz-adv-x="1475" 
d="M1373 290q14 0 23.5 -8.5t9.5 -22.5v-391q0 -14 -9 -22.5t-22 -8.5h-231q-28 0 -28 31v132h-757v-132q0 -31 -28 -31h-230q-13 0 -22.5 8.5t-9.5 22.5v391q0 14 9.5 22.5t22.5 8.5h80q116 356 116 1027v2q0 35 34 35h924q35 0 35 -35v-1029h83zM585 1064
q0 -466 -101 -774h516v774h-415z" />
    <glyph glyph-name="uni0415" unicode="&#x415;" 
d="M1005 262q13 0 22 -9t9 -22v-200q0 -13 -8.5 -22t-22.5 -9h-851q-13 0 -22 9.5t-9 21.5v1292q0 13 8.5 22t22.5 9h832q13 0 23 -9t10 -22v-198q0 -14 -9.5 -23.5t-23.5 -9.5h-573v-276h429q13 0 22 -9t9 -23v-197q0 -14 -8.5 -23t-22.5 -9h-429v-293h592z" />
    <glyph glyph-name="uni0416" unicode="&#x416;" horiz-adv-x="2048" 
d="M1999 73q21 -23 11 -48t-40 -25h-234q-23 0 -39 16l-534 567v-552q0 -12 -9 -21.5t-22 -9.5h-228q-14 0 -23.5 9t-9.5 22v537l-520 -552q-16 -16 -39 -16h-232q-32 0 -42 25t12 48l585 609l-550 606q-19 22 -9 44t39 22h241q23 0 38 -18l477 -534v521q0 13 9 22t23 9h227
q13 0 23 -9t10 -22v-537l493 550q15 18 38 18h241q29 0 39 -22t-9 -44l-550 -606z" />
    <glyph glyph-name="uni0417" unicode="&#x417;" horiz-adv-x="1152" 
d="M849 693q103 -45 167.5 -124t64.5 -196q0 -118 -73.5 -207.5t-190.5 -133.5t-256 -44q-311 0 -481 227q-18 24 2 44l156 145q21 19 43 -3q95 -127 266 -127q101 0 162.5 41t61.5 115q0 70 -62.5 107.5t-208.5 38.5v235q241 2 241 130q0 67 -52.5 102t-131.5 35
q-69 0 -131.5 -32t-106.5 -91q-21 -23 -43 -4l-158 144q-14 14 -13.5 21.5t11.5 22.5q85 112 208 169.5t263 57.5q130 0 236 -46.5t168.5 -133.5t62.5 -197q0 -201 -205 -296z" />
    <glyph glyph-name="uni0418" unicode="&#x418;" horiz-adv-x="1454" 
d="M154 1354h230q12 0 20.5 -9.5t8.5 -21.5v-832l608 833q20 30 53 30h228q12 0 20.5 -9t8.5 -21v-1293q0 -13 -8.5 -22t-22.5 -9h-229q-12 0 -21 9.5t-9 21.5v859l-607 -860q-20 -30 -54 -30h-227q-13 0 -21.5 9t-8.5 21v1293q0 13 8.5 22t22.5 9z" />
    <glyph glyph-name="uni0419" unicode="&#x419;" horiz-adv-x="1454" 
d="M727 1491q-135 0 -229.5 80.5t-101.5 207.5q-3 43 27 43h127q18 0 31 -32q1 -1 1.5 -2t0.5 -2q8 -48 46 -78.5t98 -30.5t98 30.5t46 78.5q12 36 33 36h127q29 0 29 -43q-7 -127 -102.5 -207.5t-230.5 -80.5zM154 1354h230q12 0 20.5 -9.5t8.5 -21.5v-832l608 833
q20 30 53 30h228q12 0 20.5 -9t8.5 -21v-1293q0 -13 -8.5 -22t-22.5 -9h-229q-12 0 -21 9.5t-9 21.5v859l-607 -860q-20 -30 -54 -30h-227q-13 0 -21.5 9t-8.5 21v1293q0 13 8.5 22t22.5 9z" />
    <glyph glyph-name="uni041A" unicode="&#x41a;" horiz-adv-x="1299" 
d="M1250 73q21 -23 11 -48t-41 -25h-232q-26 0 -39 16l-536 569v-554q0 -12 -8.5 -21.5t-20.5 -9.5h-230q-14 0 -22.5 9t-8.5 22v1292q0 13 8.5 22t22.5 9h228q13 0 22 -9t9 -22v-539l493 552q15 18 38 18h241q29 0 39 -22t-9 -44l-550 -606z" />
    <glyph glyph-name="uni041B" unicode="&#x41b;" horiz-adv-x="1393" 
d="M1236 1354q34 0 34 -35v-1289q0 -30 -29 -30h-231q-29 0 -29 30v1062h-518v-719q0 -85 -21.5 -153.5t-55 -110t-77 -69.5t-85 -39t-82.5 -11q-133 0 -133 40v163q0 43 38 43q128 0 128 139v944q0 35 35 35h1026z" />
    <glyph glyph-name="uni041C" unicode="&#x41c;" horiz-adv-x="1813" 
d="M1661 1354q14 0 21.5 -9t7.5 -22v-1290q0 -13 -8.5 -23t-22.5 -10h-227q-14 0 -22.5 9.5t-8.5 23.5v769l-450 -762q-17 -24 -38 -24h-12q-21 0 -38 24l-450 760v-767q0 -13 -8.5 -23t-20.5 -10h-228q-14 0 -23.5 9.5t-9.5 23.5v1290q0 13 8 22t22 9h222q21 0 35 -21
l496 -840l498 840q14 21 35 21h222z" />
    <glyph glyph-name="uni041D" unicode="&#x41d;" horiz-adv-x="1428" 
d="M1274 1354q13 0 22 -9t9 -22v-1292q0 -12 -8.5 -21.5t-20.5 -9.5h-229q-14 0 -23 9t-9 22v524h-602v-524q0 -12 -8.5 -21.5t-20.5 -9.5h-230q-14 0 -22.5 9t-8.5 22v1292q0 13 8.5 22t22.5 9h228q13 0 22 -9t9 -22v-507h602v507q0 13 8.5 22t21.5 9h229z" />
    <glyph glyph-name="uni041E" unicode="&#x41e;" horiz-adv-x="1539" 
d="M771 -12q-199 0 -360 92.5t-250.5 250t-89.5 346.5t89.5 346.5t250.5 250t360 92.5t359.5 -92.5t249 -249.5t88.5 -347t-88.5 -347t-249 -249.5t-359.5 -92.5zM771 271q175 0 288 117t113 289q0 173 -113 290t-288 116q-117 -1 -209.5 -55t-143 -146t-50.5 -205
q0 -173 113.5 -289.5t289.5 -116.5z" />
    <glyph glyph-name="uni041F" unicode="&#x41f;" horiz-adv-x="1417" 
d="M1264 1354q13 0 22 -9t9 -22v-1292q0 -12 -9 -21.5t-21 -9.5h-229q-14 0 -22.5 9t-8.5 22v1033h-592l2 -1033q0 -12 -9 -21.5t-22 -9.5h-230q-14 0 -22.5 9t-8.5 22v1292q0 13 8.5 22t22.5 9h1110z" />
    <glyph glyph-name="uni0420" unicode="&#x420;" horiz-adv-x="1246" 
d="M706 1354q117 0 211.5 -40.5t153.5 -108t90 -153t31 -179.5t-31 -179t-90 -153t-153.5 -108.5t-211.5 -40.5h-293v-361q0 -12 -8.5 -21.5t-20.5 -9.5h-230q-14 0 -22.5 9t-8.5 22v1292q0 13 8.5 22t22.5 9h552zM698 654q96 0 150.5 61t54.5 158t-54.5 158t-150.5 61h-285
v-438h285z" />
    <glyph glyph-name="uni0421" unicode="&#x421;" horiz-adv-x="1369" 
d="M774 -12q-199 0 -360 89t-252 246.5t-91 353.5t91 353.5t252 246.5t360 89q299 0 512 -210q24 -24 0 -45l-170 -151q-20 -20 -43 0q-123 123 -295 123q-178 0 -294 -118.5t-116 -287.5t116 -287.5t294 -118.5q172 0 295 123q23 20 43 0l170 -151q24 -21 0 -45
q-213 -210 -512 -210z" />
    <glyph glyph-name="uni0422" unicode="&#x422;" 
d="M996 1354q13 0 22 -8.5t9 -22.5v-198q0 -13 -9 -23t-22 -10h-317v-1061q0 -12 -9 -21.5t-21 -9.5h-229q-14 0 -22.5 9t-8.5 22v1061h-302q-14 0 -23.5 9t-9.5 22v198q0 14 9.5 23.5t23.5 9.5h909z" />
    <glyph glyph-name="uni0423" unicode="&#x423;" horiz-adv-x="1334" 
d="M1265 1354q25 0 30.5 -14t-5.5 -31l-783 -1295q-8 -14 -25 -14h-229q-25 0 -35 18t2 39l287 481l-464 771q-12 17 -6.5 31t29.5 14h234q35 0 56 -31l309 -521l312 521q18 31 54 31h234z" />
    <glyph glyph-name="uni0424" unicode="&#x424;" horiz-adv-x="1560" 
d="M935 1198q128 0 235.5 -46t175.5 -120.5t105.5 -164.5t37.5 -183q0 -103 -37.5 -197t-106 -167t-174.5 -116.5t-234 -43.5h-19v-129q0 -12 -8.5 -21.5t-20.5 -9.5h-229q-14 0 -23 9t-9 22v129h-5q-128 0 -234 43.5t-174.5 116.5t-106 167t-37.5 197q0 93 37.5 183
t105.5 164.5t175.5 120.5t235.5 46h3v125q0 13 8 22t22 9h229q13 0 22 -9t9 -22v-125h17zM927 391q138 0 219 87.5t81 205.5q0 115 -79 199t-221 84h-9v-576h9zM333 684q0 -116 79.5 -203.5t215.5 -89.5v576q-94 -1 -162.5 -43t-100.5 -104.5t-32 -135.5z" />
    <glyph glyph-name="uni0425" unicode="&#x425;" horiz-adv-x="1293" 
d="M1237 1354q13 0 18 -9t-4 -22l-444 -653l437 -637q7 -11 1.5 -22t-18.5 -11h-274q-7 0 -12.5 3.5t-8 6.5t-7.5 11t-7 10l-272 401l-273 -401q-2 -3 -5.5 -8.5t-5.5 -8.5t-5.5 -7t-7.5 -5.5t-9 -1.5h-272q-13 0 -19 11t1 22l434 637l-442 653q-9 13 -4 22t18 9h274
q5 0 8.5 -1.5t7 -5t5 -6t5 -9t5.5 -9.5l285 -417l284 417q1 2 3.5 6t3.5 6t3 5t3.5 5t3.5 4t4 3t5 1.5t6 0.5h275z" />
    <glyph glyph-name="uni0426" unicode="&#x426;" horiz-adv-x="1424" 
d="M1371 -108q4 -16 -2 -28t-19 -12h-206q-35 0 -55 19.5t-20 53.5v75h-915q-14 0 -22.5 9t-8.5 22v1292q0 13 8.5 22t22.5 9h228q13 0 22 -9t9 -22v-1033h517v1033q0 13 9 22t23 9h227q13 0 23 -9t10 -22v-1033h21q57 0 86.5 -30t29.5 -86v-183q0 -27 12 -99z" />
    <glyph glyph-name="uni0427" unicode="&#x427;" horiz-adv-x="1261" 
d="M1135 1354q13 0 22 -9t9 -22v-1292q0 -12 -8.5 -21.5t-20.5 -9.5h-229q-13 0 -22.5 9t-9.5 22v484q-149 -88 -303 -88q-210 0 -349 104.5t-139 265.5v416q0 29 -12 103q-4 15 2.5 26.5t18.5 11.5h205q36 0 56 -21.5t20 -56.5v-382q0 -88 70.5 -144t196.5 -56
q69 0 131.5 26.5t102.5 79.5v523q0 13 9 22t23 9h227z" />
    <glyph glyph-name="uni0428" unicode="&#x428;" horiz-adv-x="1942" 
d="M1788 1354q13 0 22 -9t9 -22v-1292q0 -12 -9 -21.5t-21 -9.5h-1635q-14 0 -22.5 9t-8.5 22v1292q0 13 8.5 22t22.5 9h228q13 0 22 -9t9 -22v-1033h413v1033q0 13 8 22t22 9h229q13 0 22 -9t9 -22v-1033h413v1033q0 13 8 22t22 9h229z" />
    <glyph glyph-name="uni0429" unicode="&#x429;" horiz-adv-x="2021" 
d="M1968 -108q4 -16 -1.5 -28t-17.5 -12h-208q-34 0 -54.5 19.5t-20.5 53.5v75h-1512q-14 0 -22.5 9t-8.5 22v1292q0 13 8.5 22t22.5 9h228q13 0 22 -9t9 -22v-1033h413v1033q0 13 8 22t22 9h229q13 0 22 -9t9 -22v-1033h413v1033q0 13 8 22t22 9h229q13 0 22 -9t9 -22
v-1033h21q57 0 86.5 -30t29.5 -86v-183q2 -38 12 -99z" />
    <glyph glyph-name="uni042A" unicode="&#x42a;" horiz-adv-x="1325" 
d="M760 962q118 0 212.5 -40.5t153 -108.5t89.5 -153t31 -179t-31 -179.5t-90 -153t-153.5 -108t-211.5 -40.5h-552q-14 0 -22.5 9t-8.5 22v1033h-163q-31 0 -31 31v228q0 31 31 31h423q13 0 22.5 -9.5t9.5 -21.5v-361h291zM753 262q95 0 149 61t54 158q0 96 -54 157
t-149 61h-284v-437h284z" />
    <glyph glyph-name="uni042B" unicode="&#x42b;" horiz-adv-x="1782" 
d="M706 962q117 0 211.5 -40.5t153.5 -108.5t90 -153t31 -179t-31 -179.5t-90 -153t-153.5 -108t-211.5 -40.5h-552q-14 0 -22.5 9t-8.5 22v1292q0 13 8.5 22t22.5 9h230q12 0 20.5 -9.5t8.5 -21.5v-361h293zM1628 1354q13 0 22 -9t9 -22v-1292q0 -12 -8.5 -21.5t-20.5 -9.5
h-229q-14 0 -23 9t-9 22v1292q0 13 9 22t23 9h227zM698 262q96 0 150.5 61t54.5 158t-54.5 157.5t-150.5 60.5h-285v-437h285z" />
    <glyph glyph-name="uni042C" unicode="&#x42c;" horiz-adv-x="1246" 
d="M706 962q117 0 211.5 -40.5t153.5 -108.5t90 -153t31 -179t-31 -179.5t-90 -153t-153.5 -108t-211.5 -40.5h-552q-14 0 -22.5 9t-8.5 22v1292q0 13 8.5 22t22.5 9h230q12 0 20.5 -9.5t8.5 -21.5v-361h293zM698 262q96 0 150.5 61t54.5 158t-54.5 157.5t-150.5 60.5h-285
v-437h285z" />
    <glyph glyph-name="uni042D" unicode="&#x42d;" horiz-adv-x="1369" 
d="M595 1366q199 0 360 -89t252 -246.5t91 -353.5t-91 -353.5t-252 -246.5t-360 -89q-299 0 -512 210q-24 24 0 45l170 151q21 21 44 0q123 -123 295 -123q142 0 246.5 76.5t142.5 199.5h-502q-13 0 -22 8t-9 21v200q0 31 31 31h502q-38 123 -142.5 199.5t-246.5 76.5
q-172 0 -295 -123q-23 -21 -44 0l-170 151q-24 21 0 45q213 210 512 210z" />
    <glyph glyph-name="uni042E" unicode="&#x42e;" horiz-adv-x="2063" 
d="M1295 1366q199 0 359.5 -92.5t249 -249.5t88.5 -347t-88.5 -347t-249 -249.5t-359.5 -92.5q-269 0 -460 163t-231 413h-191v-533q0 -12 -8.5 -21.5t-20.5 -9.5h-230q-14 0 -22.5 9t-8.5 22v1292q0 13 8.5 22t22.5 9h228q13 0 22 -9t9 -22v-499h198q49 237 236.5 389.5
t447.5 152.5zM1295 271q175 0 288 117t113 289q0 173 -113 290t-288 116q-117 -1 -209.5 -55t-143 -146t-50.5 -205q0 -173 113.5 -289.5t289.5 -116.5z" />
    <glyph glyph-name="uni042F" unicode="&#x42f;" horiz-adv-x="1268" 
d="M1116 1354q13 0 21 -9t8 -22v-1292q0 -13 -8.5 -22t-22.5 -9h-229q-12 0 -20.5 9.5t-8.5 21.5v361h-266l-224 -362q-17 -30 -55 -30h-207q-26 0 -34 16t5 38l246 394q-119 60 -182 175t-63 250q0 94 31 179.5t90 153t153.5 108t211.5 40.5h554zM571 654h285v438h-285
q-96 0 -150.5 -61t-54.5 -158t54.5 -158t150.5 -61z" />
    <glyph glyph-name="uni0430" unicode="&#x430;" horiz-adv-x="951" 
d="M331 -14q-134 0 -205.5 67t-71.5 187q0 144 117 219.5t402 99.5q0 63 -34.5 86t-102.5 23q-116 0 -221 -62q-31 -15 -47 15l-48 134q-14 31 21 49q165 93 350 93q77 0 142.5 -17.5t116.5 -52t79.5 -91t26.5 -129.5q-4 -119 -2.5 -285.5t16.5 -283.5q2 -16 -6.5 -27
t-25.5 -11h-163q-18 0 -40 30.5t-36 75.5q-110 -120 -268 -120zM401 191q95 0 170 78v113q-137 -7 -196 -33t-59 -82q0 -37 23 -56.5t62 -19.5z" />
    <glyph glyph-name="uni0431" unicode="&#x431;" horiz-adv-x="1088" 
d="M566 897q200 0 334 -127.5t134 -328.5t-134 -328t-334 -127q-179 0 -307.5 101t-156.5 269q-31 102 -31 269q0 112 18.5 213t64.5 197t115 165.5t178 111.5t246 42h67q48 0 101 12q14 4 26 -1t12 -20v-203q0 -14 -10.5 -25t-24.5 -11h-170q-280 0 -361 -263
q105 54 233 54zM566 226q92 0 151 60.5t59 154.5t-59 155.5t-151 61.5q-93 0 -152.5 -61.5t-59.5 -155.5t59.5 -154.5t152.5 -60.5z" />
    <glyph glyph-name="uni0432" unicode="&#x432;" horiz-adv-x="1015" 
d="M757 470q104 -30 154.5 -83t50.5 -137q0 -117 -89 -183.5t-250 -66.5h-493q-10 0 -17 7t-7 17v839q0 22 22 22h488q149 0 231 -60.5t82 -161.5q0 -75 -45 -125.5t-127 -67.5zM533 533q59 0 90 25.5t31 66.5q0 83 -123 83h-163v-175h165zM536 177q71 0 107 25.5t36 66.5
q0 45 -37 71t-107 26h-167v-189h168z" />
    <glyph glyph-name="uni0433" unicode="&#x433;" horiz-adv-x="909" 
d="M800 885q13 0 21.5 -9.5t8.5 -23.5v-213q0 -12 -12 -17.5t-27 -3.5q-74 12 -100 12h-283l-2 -599q0 -12 -9 -21.5t-22 -9.5h-221q-14 0 -22.5 9t-8.5 22v823q0 13 8.5 22t22.5 9h646z" />
    <glyph glyph-name="uni0434" unicode="&#x434;" horiz-adv-x="1258" 
d="M1158 255q14 0 22.5 -9.5t8.5 -23.5v-337q0 -31 -31 -31h-224q-28 0 -28 31v115h-554v-115q0 -31 -27 -31h-224q-13 0 -22.5 8.5t-9.5 22.5v337q0 14 9.5 23.5t22.5 9.5h102q78 190 78 594v1q0 35 35 35h725q35 0 35 -35v-595h82zM562 630q0 -209 -74 -375h305v375h-231z
" />
    <glyph glyph-name="uni0435" unicode="&#x435;" horiz-adv-x="992" 
d="M939 488q0 -150 -186 -150h-413q56 -128 247 -128q97 0 175 49q15 9 27 7t25 -18l45 -66q20 -24 -5 -55q-107 -141 -325 -141q-209 0 -342 125t-133 330q0 198 124 327t327 129q103 0 187 -34.5t137 -92t81.5 -130.5t28.5 -152zM505 666q-68 0 -111.5 -37.5t-60.5 -100.5
h337q-34 138 -165 138z" />
    <glyph glyph-name="uni0436" unicode="&#x436;" horiz-adv-x="1636" 
d="M1590 56q17 -16 8.5 -36t-31.5 -20h-239q-16 0 -30 14l-338 338v-319q0 -13 -9 -23t-21 -10h-213q-14 0 -23.5 9.5t-9.5 23.5v319l-339 -338q-14 -14 -29 -14h-240q-23 0 -31 20t9 36l418 388l-383 391q-16 16 -8.5 33t28.5 17h245q22 0 31 -12l299 -328v201
q0 27 -12 101q-2 15 3.5 26.5t17.5 11.5h236q13 0 22 -9t9 -22v-309l298 328q9 12 30 12h246q21 0 28.5 -17t-7.5 -33l-383 -391z" />
    <glyph glyph-name="uni0437" unicode="&#x437;" horiz-adv-x="852" 
d="M633 448q76 -27 117 -78.5t40 -121.5q-1 -117 -107 -189.5t-260 -72.5q-111 0 -203 40.5t-152 112.5q-14 15 0 31l102 113q18 18 35 -2q29 -34 90.5 -56t121.5 -22q56 0 91 22.5t35 57.5q0 78 -158 81v162q84 2 114 22t30 54q0 33 -32 55t-87 22q-54 0 -106.5 -22.5
t-79.5 -55.5q-17 -20 -35 -2l-100 114q-17 17 -4 32q120 152 345 152q150 0 247.5 -71t98.5 -186q3 -140 -143 -192z" />
    <glyph glyph-name="uni0438" unicode="&#x438;" horiz-adv-x="1098" 
d="M970 885q9 0 16 -6.5t7 -15.5v-839q0 -10 -7 -17t-18 -7h-225q-10 0 -18 7.5t-8 16.5v439l-418 -440q-21 -23 -40 -23h-131q-22 0 -22 23v840q0 22 22 22h231q10 0 16.5 -6.5t6.5 -15.5v-464l415 458q25 28 36 28h137z" />
    <glyph glyph-name="uni0439" unicode="&#x439;" horiz-adv-x="1098" 
d="M557 1022q-135 0 -229.5 80.5t-101.5 207.5q-3 44 27 44h127q3 0 5.5 -0.5t4.5 -1t4 -2.5t3.5 -3t3 -3.5t2.5 -4t2.5 -5.5t2.5 -5t2.5 -5.5t2.5 -6.5q8 -48 46 -78.5t98 -30.5t98 30.5t46 78.5q12 37 33 37h127q29 0 29 -44q-7 -127 -102.5 -207.5t-230.5 -80.5zM970 885
q9 0 16 -6.5t7 -15.5v-839q0 -10 -7 -17t-18 -7h-225q-10 0 -18 7.5t-8 16.5v439l-418 -440q-21 -23 -40 -23h-131q-22 0 -22 23v840q0 22 22 22h231q10 0 16.5 -6.5t6.5 -15.5v-464l415 458q25 28 36 28h137z" />
    <glyph glyph-name="uni043A" unicode="&#x43a;" horiz-adv-x="1044" 
d="M998 56q17 -16 8.5 -36t-31.5 -20h-239q-17 0 -31 14l-337 338v-319q0 -13 -9 -23t-21 -10h-213q-14 0 -23.5 9.5t-9.5 23.5v713q0 27 -12 101q-4 15 2.5 26.5t18.5 11.5h236q13 0 22 -9t9 -22v-309l297 328q12 12 31 12h246q21 0 28 -17t-7 -33l-383 -391z" />
    <glyph glyph-name="uni043B" unicode="&#x43b;" horiz-adv-x="1060" 
d="M920 885q35 0 35 -35v-820q0 -30 -32 -30h-222q-29 0 -29 30v602h-254v-269q0 -177 -87 -271t-277 -99q-45 -3 -45 43v160q0 39 40 44q88 7 88 126l-2 484q0 35 35 35h750z" />
    <glyph glyph-name="uni043C" unicode="&#x43c;" horiz-adv-x="1391" 
d="M1264 885q22 0 22 -24v-837q0 -10 -6 -17t-16 -7h-238q-9 0 -16 7t-7 17v441l-269 -439q-16 -21 -29 -21h-23q-15 0 -28 21l-265 437v-439q0 -9 -7.5 -16.5t-17.5 -7.5h-236q-22 0 -22 24v837q0 24 22 24h250q15 0 30 -17l285 -450l291 450q12 17 28 17h252z" />
    <glyph glyph-name="uni043D" unicode="&#x43d;" horiz-adv-x="1110" 
d="M979 885q11 0 18.5 -6t7.5 -15v-840q0 -9 -7 -16.5t-16 -7.5h-236q-10 0 -17 7t-7 17v281h-333v-281q0 -9 -7 -16.5t-16 -7.5h-236q-10 0 -17 7t-7 17v840q0 21 22 21h236q9 0 17 -6t8 -15v-296h333v296q0 21 23 21h234z" />
    <glyph glyph-name="uni043E" unicode="&#x43e;" horiz-adv-x="1044" 
d="M522 -14q-200 0 -334 127t-134 328t134 328.5t334 127.5t334.5 -127.5t134.5 -328.5t-134.5 -328t-334.5 -127zM522 226q92 0 151 60.5t59 154.5t-59 155.5t-151 61.5t-151 -61.5t-59 -155.5t59 -154.5t151 -60.5z" />
    <glyph glyph-name="uni043F" unicode="&#x43f;" horiz-adv-x="1060" 
d="M955 31q0 -12 -9.5 -21.5t-22.5 -9.5h-222q-14 0 -22.5 9t-8.5 22v599h-281l2 -599q0 -12 -9.5 -21.5t-22.5 -9.5h-222q-14 0 -22.5 9t-8.5 22v823q0 13 8.5 22t22.5 9h785q13 0 22 -9t9 -22z" />
    <glyph glyph-name="uni0440" unicode="&#x440;" horiz-adv-x="1117" 
d="M649 897q172 0 289 -127.5t117 -328.5q0 -200 -115.5 -327.5t-281.5 -127.5q-169 0 -276 130v-418q0 -45 -45 -45h-191q-47 0 -47 45v1015q0 26 -3 50t-8 49.5t-6 32.5q-4 17 3 28.5t24 11.5h184q89 0 89 -87v-26q105 125 267 125zM587 226q94 0 150 59.5t56 155.5
t-56 156.5t-150 60.5q-91 0 -148 -60.5t-57 -156.5t57 -155.5t148 -59.5z" />
    <glyph glyph-name="uni0441" unicode="&#x441;" horiz-adv-x="899" 
d="M519 -14q-91 0 -175 33.5t-148.5 92.5t-103 145.5t-38.5 185.5q0 131 65.5 236.5t171.5 161.5t228 56q179 0 314 -128q22 -19 4 -45l-96 -123q-22 -26 -57 -2q-70 59 -151 59q-97 0 -159 -61.5t-62 -153.5t62.5 -154.5t158.5 -62.5q79 0 153 59q35 24 57 -2l94 -123
q20 -23 -2 -45q-137 -129 -316 -129z" />
    <glyph glyph-name="uni0442" unicode="&#x442;" horiz-adv-x="919" 
d="M842 885q24 0 24 -22v-210q0 -8 -6.5 -15.5t-17.5 -7.5h-241v-606q0 -9 -7 -16.5t-16 -7.5h-234q-26 0 -26 24v606h-240q-10 0 -17 7t-7 16v208q0 11 7 17.5t17 6.5h764z" />
    <glyph glyph-name="uni0443" unicode="&#x443;" horiz-adv-x="1003" 
d="M944 885q15 0 20.5 -9t0.5 -22l-463 -1170q-14 -31 -32 -31h-224q-14 0 -19 9t-1 22l137 346l-325 824q-5 13 0.5 22t20.5 9h224q17 0 31 -31l182 -498h11l182 498q4 10 7.5 15.5t9.5 10.5t14 5h224z" />
    <glyph glyph-name="uni0444" unicode="&#x444;" horiz-adv-x="1732" 
d="M1276 897q172 0 287 -127.5t115 -328.5q0 -200 -114 -327.5t-280 -127.5q-170 0 -276 132v-446q0 -45 -45 -45h-191q-47 0 -47 45v444q-107 -130 -275 -130q-165 0 -280.5 127.5t-115.5 327.5q0 201 117 328.5t289 127.5q161 0 265 -123v378q0 58 -9.5 109t-9.5 60
q0 15 8 24t22 9h186q86 0 86 -87v-495q105 125 268 125zM522 226q91 0 147 59.5t56 155.5t-56 156.5t-147 60.5q-94 0 -150 -60.5t-56 -156.5t56 -155.5t150 -59.5zM1213 226q94 0 150.5 59.5t56.5 155.5t-56.5 156.5t-150.5 60.5q-91 0 -148 -60.5t-57 -156.5t57 -155.5
t148 -59.5z" />
    <glyph glyph-name="uni0445" unicode="&#x445;" horiz-adv-x="970" 
d="M911 50q10 -17 2.5 -33.5t-24.5 -16.5h-235q-22 0 -34 23l-134 215l-135 -215q-14 -23 -37 -23h-234q-16 0 -23.5 17t2.5 33l276 396l-273 391q-11 16 -3 32t24 16h235q24 0 36 -22l132 -212l130 212q14 22 37 22h236q16 0 22.5 -16t-3.5 -32l-273 -391z" />
    <glyph glyph-name="uni0446" unicode="&#x446;" horiz-adv-x="1154" 
d="M1100 -108q2 -17 -3 -28.5t-17 -11.5h-200q-34 0 -53.5 19.5t-19.5 53.5v75h-668q-13 0 -21.5 9t-8.5 22v823q0 12 9 21.5t21 9.5h222q13 0 22 -9t9 -22v-599h283v599q0 12 9 21.5t22 9.5h221q14 0 22.5 -9t8.5 -22v-599h14q56 0 86 -30t30 -86v-148q0 -27 12 -99z" />
    <glyph glyph-name="uni0447" unicode="&#x447;" horiz-adv-x="1091" 
d="M953 885q29 0 29 -33v-822q0 -13 -7.5 -21.5t-19.5 -8.5h-224q-30 0 -30 30v281q-111 -137 -276 -137q-139 0 -228 87t-89 246v217q0 48 -11 121q-4 16 1.5 28t17.5 12h202q34 0 53.5 -21.5t19.5 -56.5v-236q0 -68 38.5 -109.5t105.5 -41.5q54 0 98 30t68 78v324
q0 13 9 23t21 10h222z" />
    <glyph glyph-name="uni0448" unicode="&#x448;" horiz-adv-x="1633" 
d="M1479 885q14 0 22.5 -9t8.5 -22v-823q0 -13 -8 -22t-22 -9h-1326q-14 0 -22.5 9t-8.5 22v823q0 12 9 21.5t21 9.5h222q13 0 22 -9t9 -22v-599h269v599q0 12 9 21.5t22 9.5h221q14 0 22.5 -9t8.5 -22v-599h269v599q0 13 8.5 22t22.5 9h221z" />
    <glyph glyph-name="uni0449" unicode="&#x449;" horiz-adv-x="1660" 
d="M1607 -108q4 -16 -1.5 -28t-17.5 -12h-208q-34 0 -54.5 19.5t-20.5 53.5v75h-1163q-13 0 -21 9t-8 22v823q0 12 8.5 21.5t20.5 9.5h221q14 0 23.5 -9t9.5 -22v-599h269v599q0 12 8.5 21.5t20.5 9.5h222q13 0 22.5 -9t9.5 -22v-599h269v599q0 12 8.5 21.5t20.5 9.5h222
q13 0 22.5 -9t9.5 -22v-601q95 -11 95 -114v-148q2 -38 12 -99z" />
    <glyph glyph-name="uni044A" unicode="&#x44a;" horiz-adv-x="1107" 
d="M633 722q191 0 292.5 -100t101.5 -261q0 -162 -101 -261.5t-293 -99.5h-452q-14 0 -23 9t-9 22v599h-119q-12 0 -21 9t-9 22v195q0 12 9 20.5t21 8.5h369q13 0 23 -9t10 -22v-132h201zM607 248q70 0 106.5 32t36.5 83q0 48 -36.5 79.5t-106.5 31.5h-175v-226h175z" />
    <glyph glyph-name="uni044B" unicode="&#x44b;" horiz-adv-x="1504" 
d="M607 722q191 0 292.5 -100t101.5 -261q0 -162 -101 -261.5t-293 -99.5h-453q-14 0 -22.5 9t-8.5 22v823q0 13 8.5 22t22.5 9h219q14 0 23.5 -9t9.5 -22v-132h201zM1350 885q13 0 22.5 -9t9.5 -22v-823q0 -12 -9 -21.5t-21 -9.5h-220q-14 0 -23.5 9t-9.5 22v823
q0 13 8.5 22t22.5 9h220zM581 248q71 0 107 32t36 83q0 49 -36 80t-107 31h-175v-226h175z" />
    <glyph glyph-name="uni044C" unicode="&#x44c;" horiz-adv-x="1055" 
d="M607 722q191 0 292.5 -100t101.5 -261q0 -162 -101 -261.5t-293 -99.5h-453q-14 0 -22.5 9t-8.5 22v823q0 13 8.5 22t22.5 9h219q14 0 23.5 -9t9.5 -22v-132h201zM581 248q71 0 107 32t36 83q0 49 -36 80t-107 31h-175v-226h175z" />
    <glyph glyph-name="uni044D" unicode="&#x44d;" horiz-adv-x="933" 
d="M397 897q122 0 228 -56t172 -161.5t66 -236.5q0 -132 -66 -238t-172 -162.5t-228 -56.5q-178 0 -315 129q-22 22 -2 45l94 123q22 26 57 2q74 -59 153 -59q74 0 128.5 37t77.5 100h-267q-13 0 -22 8.5t-9 22.5v97q0 31 31 31h267q-24 61 -78.5 98.5t-127.5 37.5
q-81 0 -151 -59q-36 -25 -58 2l-95 123q-19 26 3 45q135 128 314 128z" />
    <glyph glyph-name="uni044E" unicode="&#x44e;" horiz-adv-x="1546" 
d="M1007 897q200 0 334 -127.5t134 -328.5t-134 -328t-334 -127q-161 0 -283 85t-165 229h-153v-270q0 -13 -9 -22.5t-22 -9.5h-221q-14 0 -22.5 9.5t-8.5 22.5v822q0 13 8.5 22t22.5 9h221q13 0 22 -9t9 -22v-297h144q37 155 162.5 248.5t294.5 93.5zM1007 226
q92 0 151 60.5t59 154.5t-59 155.5t-151 61.5t-151 -61.5t-59 -155.5t59 -154.5t151 -60.5z" />
    <glyph glyph-name="uni044F" unicode="&#x44f;" horiz-adv-x="1051" 
d="M915 885q14 0 23.5 -9t9.5 -22v-823q0 -13 -9 -22t-23 -9h-220q-13 0 -22 9t-9 22v132h-162l-109 -146q-15 -17 -28 -17h-253q-13 0 -18.5 8t2.5 20l143 184q-85 46 -128.5 127.5t-43.5 184.5q0 162 101 261.5t293 99.5h453zM488 411h177v226h-177q-70 0 -105.5 -32
t-35.5 -83q0 -49 36 -80t105 -31z" />
    <glyph glyph-name="uni0451" unicode="&#x451;" horiz-adv-x="982" 
d="M220 1111q-53 0 -90.5 39t-37.5 91q0 54 37 91t91 37q55 0 93.5 -37t38.5 -91q0 -52 -39 -91t-93 -39zM670 1111q-53 0 -91.5 39t-38.5 91q0 54 38 91t92 37q53 0 91.5 -37t38.5 -91q0 -52 -39 -91t-91 -39zM939 488q0 -150 -186 -150h-413q56 -128 247 -128q97 0 175 49
q15 9 27 7t25 -18l45 -66q20 -24 -5 -55q-107 -141 -325 -141q-209 0 -342 125t-133 330q0 198 124 327t327 129q103 0 187 -34.5t137 -92t81.5 -130.5t28.5 -152zM505 666q-68 0 -111.5 -37.5t-60.5 -100.5h337q-34 138 -165 138z" />
    <glyph glyph-name="uni0453" unicode="&#x453;" horiz-adv-x="909" 
d="M293 1017l-74 125q-7 12 -4 22t11 14l343 233q12 8 26 8t21 -11l103 -183q10 -18 6 -30.5t-17 -16.5l-371 -170q-31 -14 -44 9zM800 885q13 0 21.5 -9.5t8.5 -23.5v-213q0 -12 -12 -17.5t-27 -3.5q-74 12 -100 12h-283l-2 -599q0 -12 -9 -21.5t-22 -9.5h-221
q-14 0 -22.5 9t-8.5 22v823q0 13 8.5 22t22.5 9h646z" />
    <glyph glyph-name="uni0454" unicode="&#x454;" horiz-adv-x="933" 
d="M854 160q20 -23 -2 -45q-137 -129 -316 -129q-91 0 -175 33.5t-148.5 92.5t-103 145.5t-38.5 185.5q0 131 65.5 236.5t171.5 161.5t228 56q179 0 314 -128q22 -19 4 -45l-96 -123q-22 -26 -57 -2q-70 59 -151 59q-73 0 -127.5 -37.5t-78.5 -98.5h267q31 0 31 -31v-97
q0 -14 -9 -22.5t-22 -8.5h-267q23 -63 77.5 -100t128.5 -37q79 0 153 59q35 24 57 -2z" />
    <glyph glyph-name="uni0456" unicode="&#x456;" horiz-adv-x="498" 
d="M250 1100q-62 0 -103 41t-41 103q0 60 41.5 101.5t102.5 41.5q60 0 101 -41.5t41 -101.5q0 -61 -41 -102.5t-101 -41.5zM139 0q-14 0 -22.5 9t-8.5 22v823q0 13 8.5 22t22.5 9h220q13 0 22.5 -9t9.5 -22v-823q0 -13 -9.5 -22t-22.5 -9h-220z" />
    <glyph glyph-name="uni0457" unicode="&#x457;" horiz-adv-x="746" 
d="M92 1111q-53 0 -90.5 39t-37.5 93q0 53 37.5 89.5t90.5 36.5q54 0 93 -36.5t39 -89.5t-39.5 -92.5t-92.5 -39.5zM542 1111q-54 0 -92.5 39t-38.5 93t38 90t93 36q52 0 91 -36.5t39 -89.5t-39 -92.5t-91 -39.5zM245 0q-13 0 -21.5 9t-8.5 22v823q0 13 8.5 22t21.5 9h222
q13 0 22 -9t9 -22v-823q0 -13 -9 -22t-22 -9h-222z" />
    <glyph glyph-name="uni0458" unicode="&#x458;" horiz-adv-x="505" 
d="M257 1100q-61 0 -102.5 41t-41.5 103q0 60 41.5 101.5t102.5 41.5q59 0 100.5 -41.5t41.5 -101.5q0 -61 -41.5 -102.5t-100.5 -41.5zM148 -397q-27 -11 -42 12l-111 203q-15 30 14 47q106 61 106 145v844q0 13 7.5 22t21.5 9h220q13 0 23 -9t10 -22v-875
q0 -101 -31.5 -175t-84 -119.5t-133.5 -81.5z" />
    <glyph glyph-name="uni045C" unicode="&#x45c;" horiz-adv-x="1044" 
d="M331 991l-74 125q-7 12 -4 22t11 14l343 233q12 8 26 8t21 -11l103 -183q10 -18 6 -30.5t-17 -16.5l-371 -170q-31 -14 -44 9zM998 56q17 -16 8.5 -36t-31.5 -20h-239q-17 0 -31 14l-337 338v-319q0 -13 -9 -23t-21 -10h-213q-14 0 -23.5 9.5t-9.5 23.5v713q0 27 -12 101
q-4 15 2.5 26.5t18.5 11.5h236q13 0 22 -9t9 -22v-309l297 328q12 12 31 12h246q21 0 28 -17t-7 -33l-383 -391z" />
    <glyph glyph-name="uni045D" unicode="&#x45d;" horiz-adv-x="1098" 
d="M323 1178l371 -170q31 -14 44 9l74 125q6 13 3.5 22.5t-10.5 13.5l-343 233q-32 20 -47 -3l-104 -183q-8 -17 -4.5 -30t16.5 -17zM970 885q9 0 16 -6.5t7 -15.5v-839q0 -10 -7 -17t-18 -7h-225q-10 0 -18 7.5t-8 16.5v439l-418 -440q-21 -23 -40 -23h-131q-22 0 -22 23
v840q0 22 22 22h231q10 0 16.5 -6.5t6.5 -15.5v-464l415 458q25 28 36 28h137z" />
    <glyph glyph-name="uni045E" unicode="&#x45e;" horiz-adv-x="1003" 
d="M512 1022q-135 0 -229.5 80.5t-101.5 207.5q-3 44 27 44h127q3 0 5.5 -0.5t4.5 -1t4 -2.5t3.5 -3t3 -3.5t2.5 -4t2.5 -5.5t2.5 -5t2.5 -5.5t2.5 -6.5q8 -48 46 -78.5t98 -30.5t98 30.5t46 78.5q12 37 33 37h127q29 0 29 -44q-7 -127 -102.5 -207.5t-230.5 -80.5zM944 885
q15 0 20.5 -9t0.5 -22l-463 -1170q-14 -31 -32 -31h-224q-14 0 -19 9t-1 22l137 346l-325 824q-5 13 0.5 22t20.5 9h224q17 0 31 -31l182 -498h11l182 498q4 10 7.5 15.5t9.5 10.5t14 5h224z" />
    <glyph glyph-name="uni0490" unicode="&#x490;" horiz-adv-x="1150" 
d="M1048 1501q12 0 17.5 -11.5t3.5 -28.5q-14 -60 -14 -99l2 -182q0 -37 -31.5 -62.5t-86.5 -25.5h-526v-1061q0 -12 -8.5 -21.5t-20.5 -9.5h-230q-14 0 -22.5 9t-8.5 22v1292q0 13 8.5 22t22.5 9h611v74q0 34 20.5 53.5t54.5 19.5h208z" />
    <glyph glyph-name="uni0491" unicode="&#x491;" horiz-adv-x="954" 
d="M852 1033q13 0 19 -12t2 -28q-10 -61 -12 -99v-148q0 -56 -30 -86t-86 -30h-339v-599q0 -12 -9 -21.5t-22 -9.5h-221q-14 0 -22.5 9t-8.5 22v823q0 13 8.5 22t22.5 9h419v75q0 34 19.5 53.5t54.5 19.5h205z" />
    <glyph glyph-name="uni04C0" unicode="&#x4c0;" horiz-adv-x="536" 
d="M154 0q-14 0 -22.5 9t-8.5 22v1292q0 13 8.5 22t22.5 9h228q13 0 22 -9t9 -22v-1292q0 -12 -8.5 -21.5t-20.5 -9.5h-230z" />
    <glyph glyph-name="uni04E2" unicode="&#x4e2;" horiz-adv-x="1454" 
d="M413 1777q0 13 9 22t22 9h568q13 0 22 -8.5t9 -22.5v-170q0 -13 -9 -22t-22 -9h-568q-13 0 -22 8t-9 21v172zM154 1354h230q12 0 20.5 -9.5t8.5 -21.5v-832l608 833q20 30 53 30h228q12 0 20.5 -9t8.5 -21v-1293q0 -13 -8.5 -22t-22.5 -9h-229q-12 0 -21 9.5t-9 21.5v859
l-607 -860q-20 -30 -54 -30h-227q-13 0 -21.5 9t-8.5 21v1293q0 13 8.5 22t22.5 9z" />
    <glyph glyph-name="uni04E3" unicode="&#x4e3;" horiz-adv-x="1098" 
d="M243 1309q0 13 9 22t22 9h568q13 0 22 -8.5t9 -22.5v-170q0 -13 -9 -22.5t-22 -9.5h-568q-13 0 -22 8.5t-9 21.5v172zM970 885q9 0 16 -6.5t7 -15.5v-839q0 -10 -7 -17t-18 -7h-225q-10 0 -18 7.5t-8 16.5v439l-418 -440q-21 -23 -40 -23h-131q-22 0 -22 23v840
q0 22 22 22h231q10 0 16.5 -6.5t6.5 -15.5v-464l415 458q25 28 36 28h137z" />
    <glyph glyph-name="uni04EC" unicode="&#x4ec;" horiz-adv-x="1369" 
d="M359 1579q-53 0 -91.5 39.5t-38.5 92.5t38 90t92 37t92 -37t38 -90t-38.5 -92.5t-91.5 -39.5zM809 1579q-54 0 -92 39t-38 93t37.5 90.5t92.5 36.5q52 0 91 -37t39 -90t-39 -92.5t-91 -39.5zM595 1366q199 0 360 -89t252 -246.5t91 -353.5t-91 -353.5t-252 -246.5
t-360 -89q-299 0 -512 210q-24 24 0 45l170 151q21 21 44 0q123 -123 295 -123q142 0 246.5 76.5t142.5 199.5h-502q-13 0 -22 8t-9 21v200q0 31 31 31h502q-38 123 -142.5 199.5t-246.5 76.5q-172 0 -295 -123q-23 -21 -44 0l-170 151q-24 21 0 45q213 210 512 210z" />
    <glyph glyph-name="uni04ED" unicode="&#x4ed;" horiz-adv-x="970" 
d="M220 1184q-53 0 -91.5 39.5t-38.5 92.5t38 89.5t92 36.5t92.5 -36.5t38.5 -89.5t-39 -92.5t-92 -39.5zM670 1184q-54 0 -92 39t-38 93t37.5 90t92.5 36q52 0 91 -36.5t39 -89.5t-39 -92.5t-91 -39.5zM434 897q122 0 228 -56t171.5 -161.5t65.5 -236.5q0 -99 -38.5 -185.5
t-103 -145.5t-148.5 -92.5t-175 -33.5q-179 0 -316 129q-23 20 -2 45l94 123q22 26 57 2q74 -59 153 -59q74 0 129 37t78 100h-268q-13 0 -22 8.5t-9 22.5v97q0 31 31 31h268q-24 61 -79 98.5t-128 37.5q-81 0 -151 -59q-35 -24 -57 2l-96 123q-18 26 4 45q135 128 314 128z
" />
    <glyph glyph-name="uni04EE" unicode="&#x4ee;" horiz-adv-x="1334" 
d="M384 1576q-13 0 -22.5 8.5t-9.5 20.5v172q0 13 9.5 22t22.5 9h567q13 0 22 -8.5t9 -22.5v-170q0 -13 -9 -22t-22 -9h-567zM1265 1354q25 0 30.5 -14t-5.5 -31l-783 -1295q-8 -14 -25 -14h-229q-25 0 -35 18t2 39l287 481l-464 771q-12 17 -6.5 31t29.5 14h234
q35 0 56 -31l309 -521l312 521q18 31 54 31h234z" />
    <glyph glyph-name="uni04EF" unicode="&#x4ef;" horiz-adv-x="1003" 
d="M196 1309q0 13 9 22t22 9h568q13 0 22 -8.5t9 -22.5v-170q0 -13 -9 -22.5t-22 -9.5h-568q-13 0 -22 8.5t-9 21.5v172zM944 885q15 0 20.5 -9t0.5 -22l-463 -1170q-14 -31 -32 -31h-224q-14 0 -19 9t-1 22l137 346l-325 824q-5 13 0.5 22t20.5 9h224q17 0 31 -31l182 -498
h11l182 498q4 10 7.5 15.5t9.5 10.5t14 5h224z" />
    <glyph glyph-name="uni1E3E" unicode="&#x1e3e;" horiz-adv-x="1813" 
d="M1135 1647q13 4 16.5 17t-6.5 30l-102 182q-7 11 -22 11.5t-25 -7.5l-343 -233q-8 -4 -11 -14t4 -22l74 -125q13 -23 44 -9zM1661 1354q14 0 21.5 -9t7.5 -22v-1290q0 -13 -8.5 -23t-22.5 -10h-227q-14 0 -22.5 9.5t-8.5 23.5v769l-450 -762q-17 -24 -38 -24h-12
q-21 0 -38 24l-450 760v-767q0 -13 -8.5 -23t-20.5 -10h-228q-14 0 -23.5 9.5t-9.5 23.5v1290q0 13 8 22t22 9h222q21 0 35 -21l496 -840l498 840q14 21 35 21h222z" />
    <glyph glyph-name="uni1E3F" unicode="&#x1e3f;" horiz-adv-x="1657" 
d="M620 1008l-75 125q-6 13 -3.5 23t10.5 14l344 232q32 20 46 -3l105 -182q8 -17 4 -30t-17 -17l-371 -170q-31 -13 -43 8zM1567 40q2 -17 -3.5 -28.5t-17.5 -11.5h-199q-36 0 -55.5 21.5t-19.5 56.5v415q0 68 -37 109.5t-102 41.5q-50 0 -93.5 -28.5t-67.5 -75.5v-379
q0 -55 10 -121q4 -16 -1.5 -28t-17.5 -12h-201q-34 0 -53.5 21.5t-19.5 56.5v415q0 68 -37.5 109.5t-101.5 41.5q-51 0 -94 -28t-67 -74v-509q0 -13 -9 -23t-21 -10h-224q-13 0 -21 9.5t-8 23.5v823q0 12 8 20.5t20 8.5h225q30 0 30 -29v-94q105 135 274 135q96 0 169.5 -45
t109.5 -130q115 175 302 175q137 0 224 -87t87 -246v-403q0 -42 12 -121z" />
    <glyph glyph-name="Wgrave" unicode="&#x1e80;" horiz-adv-x="2110" 
d="M821 1647l371 -170q31 -14 44 9l74 125q6 13 3.5 22.5t-10.5 13.5l-343 233q-32 20 -47 -4l-104 -182q-8 -17 -4.5 -30t16.5 -17zM489 0q-26 0 -34 26l-415 1284q-7 21 0 32.5t24 11.5h240q27 0 41 -40l243 -837l311 837q15 40 40 40h231q26 0 40 -40l310 -837l245 837
q14 40 40 40h241q17 0 24 -11.5t1 -32.5l-415 -1284q-8 -26 -37 -26h-175q-27 0 -35 26l-354 955l-354 -955q-11 -26 -35 -26h-177z" />
    <glyph glyph-name="wgrave" unicode="&#x1e81;" horiz-adv-x="1515" 
d="M524 1178l372 -170q30 -13 43 9l75 125q6 13 3.5 22.5t-10.5 13.5l-344 233q-32 20 -47 -3l-104 -183q-8 -17 -4.5 -30t16.5 -17zM345 0q-23 0 -34 30l-273 824q-5 13 0.5 22t20.5 9h219q21 0 31 -31l139 -498h8l176 498q10 31 29 31h193q17 0 31 -31l174 -498h8l139 498
q10 31 31 31h221q14 0 19.5 -9t1.5 -22l-274 -824q-2 -11 -12.5 -20.5t-22.5 -9.5h-189q-22 0 -37 30l-184 503h-5l-184 -503q-11 -30 -35 -30h-191z" />
    <glyph glyph-name="Wacute" unicode="&#x1e82;" horiz-adv-x="2110" 
d="M1290 1647q13 4 16.5 17t-6.5 30l-102 182q-7 11 -22 11.5t-25 -7.5l-344 -233q-8 -4 -11 -14t4 -22l75 -125q13 -22 43 -9zM489 0q-26 0 -34 26l-415 1284q-7 21 0 32.5t24 11.5h240q27 0 41 -40l243 -837l311 837q15 40 40 40h231q26 0 40 -40l310 -837l245 837
q14 40 40 40h241q17 0 24 -11.5t1 -32.5l-415 -1284q-8 -26 -37 -26h-175q-27 0 -35 26l-354 955l-354 -955q-11 -26 -35 -26h-177z" />
    <glyph glyph-name="wacute" unicode="&#x1e83;" horiz-adv-x="1515" 
d="M993 1178q13 4 16.5 17t-6.5 30l-102 183q-7 11 -21 11t-26 -8l-344 -233q-8 -4 -11 -14t4 -22l75 -125q13 -22 43 -9zM345 0q-23 0 -34 30l-273 824q-5 13 0.5 22t20.5 9h219q21 0 31 -31l139 -498h8l176 498q10 31 29 31h193q17 0 31 -31l174 -498h8l139 498
q10 31 31 31h221q14 0 19.5 -9t1.5 -22l-274 -824q-2 -11 -12.5 -20.5t-22.5 -9.5h-189q-22 0 -37 30l-184 503h-5l-184 -503q-11 -30 -35 -30h-191z" />
    <glyph glyph-name="Wdieresis" unicode="&#x1e84;" horiz-adv-x="2110" 
d="M831 1579q-54 0 -92 39t-38 93q0 53 37.5 90t92.5 37q54 0 92.5 -37t38.5 -90t-39 -92.5t-92 -39.5zM1279 1579q-53 0 -90.5 39t-37.5 93t37 90.5t91 36.5t93 -37t39 -90t-39.5 -92.5t-92.5 -39.5zM489 0q-26 0 -34 26l-415 1284q-7 21 0 32.5t24 11.5h240q27 0 41 -40
l243 -837l311 837q15 40 40 40h231q26 0 40 -40l310 -837l245 837q14 40 40 40h241q17 0 24 -11.5t1 -32.5l-415 -1284q-8 -26 -37 -26h-175q-27 0 -35 26l-354 955l-354 -955q-11 -26 -35 -26h-177z" />
    <glyph glyph-name="wdieresis" unicode="&#x1e85;" horiz-adv-x="1515" 
d="M533 1111q-54 0 -92 39t-38 93q0 53 37.5 89.5t92.5 36.5q54 0 92 -36.5t38 -89.5t-38.5 -92.5t-91.5 -39.5zM981 1111q-53 0 -91 39t-38 93t37.5 90t91.5 36t93 -36.5t39 -89.5t-39.5 -92.5t-92.5 -39.5zM345 0q-23 0 -34 30l-273 824q-5 13 0.5 22t20.5 9h219
q21 0 31 -31l139 -498h8l176 498q10 31 29 31h193q17 0 31 -31l174 -498h8l139 498q10 31 31 31h221q14 0 19.5 -9t1.5 -22l-274 -824q-2 -11 -12.5 -20.5t-22.5 -9.5h-189q-22 0 -37 30l-184 503h-5l-184 -503q-11 -30 -35 -30h-191z" />
    <glyph glyph-name="Ygrave" unicode="&#x1ef2;" horiz-adv-x="1306" 
d="M418 1647q-13 4 -16.5 17t4.5 30l104 182q15 24 47 4l344 -233q8 -4 10.5 -13.5t-3.5 -22.5l-75 -125q-13 -22 -43 -9zM1239 1354q25 0 30.5 -14t-7.5 -31l-464 -769v-510q0 -30 -29 -30h-231q-29 0 -29 30v510l-464 769q-13 17 -7 31t30 14h234q38 0 54 -31l298 -500
l297 500q16 31 54 31h234z" />
    <glyph glyph-name="ygrave" unicode="&#x1ef3;" horiz-adv-x="1003" 
d="M267 1178l372 -170q30 -13 43 9l75 125q6 13 3.5 22.5t-10.5 13.5l-344 233q-32 20 -47 -3l-104 -183q-8 -17 -4.5 -30t16.5 -17zM944 885q15 0 20.5 -9t0.5 -22l-463 -1170q-14 -31 -32 -31h-224q-14 0 -19 9t-1 22l137 346l-325 824q-5 13 0.5 22t20.5 9h224
q17 0 31 -31l182 -498h11l182 498q4 10 7.5 15.5t9.5 10.5t14 5h224z" />
    <glyph glyph-name="endash" unicode="&#x2013;" horiz-adv-x="1110" 
d="M1024 347q0 -13 -9 -23t-22 -10h-875q-13 0 -22 9t-9 22v170q0 14 9 23.5t22 9.5h875q13 0 22 -8.5t9 -22.5v-170z" />
    <glyph glyph-name="emdash" unicode="&#x2014;" horiz-adv-x="1562" 
d="M1475 347q0 -13 -9 -23t-22 -10h-1326q-13 0 -22 9t-9 22v170q0 14 9 23.5t22 9.5h1326q13 0 22 -8.5t9 -22.5v-170z" />
    <glyph glyph-name="quoteleft" unicode="&#x2018;" horiz-adv-x="505" 
d="M87 991q-2 100 54 204.5t158 163.5q25 16 39 -4l25 -36q11 -11 -5 -26q-60 -47 -89 -82.5t-40 -91.5q18 4 28 4q66 0 113.5 -49t47.5 -116q0 -68 -47 -115.5t-114 -47.5q-69 0 -118.5 53.5t-51.5 142.5z" />
    <glyph glyph-name="quoteright" unicode="&#x2019;" horiz-adv-x="505" 
d="M418 1170q2 -98 -53.5 -202.5t-156.5 -163.5q-26 -16 -41 3l-25 35q-10 15 6 26q58 46 87.5 82.5t40.5 92.5q-13 -3 -28 -3q-67 0 -114 48.5t-47 116.5q0 67 47 114t114 47q70 0 119.5 -53t50.5 -143z" />
    <glyph glyph-name="quotesinglbase" unicode="&#x201a;" horiz-adv-x="505" 
d="M418 116q2 -98 -53.5 -203.5t-156.5 -164.5q-25 -14 -41 4l-25 36q-9 12 6 26q59 46 88 82t40 92q-18 -4 -28 -4q-66 0 -113.5 49t-47.5 116q0 68 47 115.5t114 47.5q70 0 119.5 -53.5t50.5 -142.5z" />
    <glyph glyph-name="quotedblleft" unicode="&#x201c;" horiz-adv-x="932" 
d="M87 991q-2 98 54 203t158 165q26 16 39 -5l25 -35q13 -13 -5 -26q-60 -47 -89 -82.5t-40 -91.5q18 4 28 4q66 0 113.5 -49t47.5 -116q0 -68 -47 -115.5t-114 -47.5q-70 0 -119 53t-51 143zM514 991q-2 98 54 203t157 165q26 17 40 -5l25 -35q13 -13 -4 -26
q-60 -46 -89.5 -82t-40.5 -92q18 4 28 4q66 0 113.5 -49t47.5 -116q0 -68 -47 -115.5t-114 -47.5q-70 0 -119 53t-51 143z" />
    <glyph glyph-name="quotedblright" unicode="&#x201d;" horiz-adv-x="932" 
d="M418 1170q2 -98 -53.5 -202.5t-156.5 -163.5q-26 -16 -41 3l-25 35q-10 15 6 26q58 46 87.5 82.5t40.5 92.5q-13 -3 -28 -3q-67 0 -114 48.5t-47 116.5q0 67 47 114t114 47q70 0 119.5 -53t50.5 -143zM845 1170q2 -98 -53.5 -202.5t-156.5 -163.5q-27 -17 -40 3l-26 35
q-10 14 5 26q60 47 89.5 83t41.5 92q-14 -3 -28 -3q-67 0 -115 48.5t-48 116.5q0 67 47.5 114t115.5 47q69 0 118 -53t50 -143z" />
    <glyph glyph-name="quotedblbase" unicode="&#x201e;" horiz-adv-x="932" 
d="M418 116q2 -98 -53.5 -203.5t-156.5 -164.5q-25 -14 -41 4l-25 36q-9 12 6 26q59 46 88 82t40 92q-18 -4 -28 -4q-66 0 -113.5 49t-47.5 116q0 68 47 115.5t114 47.5q70 0 119.5 -53.5t50.5 -142.5zM845 116q2 -98 -53.5 -203.5t-156.5 -164.5q-26 -15 -40 4l-26 36
q-9 12 5 26q60 47 89.5 82.5t41.5 91.5q-18 -4 -28 -4q-67 0 -115 49t-48 116t48 115t115 48q68 0 117.5 -53.5t50.5 -142.5z" />
    <glyph glyph-name="dagger" unicode="&#x2020;" horiz-adv-x="834" 
d="M717 885q31 0 31 -31v-221q0 -29 -31 -29h-170l-25 -922q0 -29 -29 -29h-167q-29 0 -29 29l-16 922h-163q-31 0 -31 29v221q0 31 31 31h160l-9 474q0 29 30 29h237q30 0 30 -29l-12 -474h163z" />
    <glyph glyph-name="daggerdbl" unicode="&#x2021;" horiz-adv-x="874" 
d="M758 632h-190l-6 -172h196q30 0 30 -31v-191q0 -31 -30 -31h-201l-14 -525q0 -29 -29 -29h-167q-29 0 -29 29l-9 525h-191q-31 0 -31 31v191q0 31 31 31h187l-3 172h-184q-31 0 -31 31v191q0 31 31 31h181l-9 474q0 29 29 29h236q30 0 30 -29l-12 -474h185q30 0 30 -31
v-191q0 -31 -30 -31z" />
    <glyph glyph-name="bullet" unicode="&#x2022;" horiz-adv-x="652" 
d="M330 215q-99 0 -171 71t-72 169q0 97 72 168t171 71q96 0 166 -71t70 -168q0 -98 -70 -169t-166 -71z" />
    <glyph glyph-name="ellipsis" unicode="&#x2026;" horiz-adv-x="1367" 
d="M248 -14q-67 0 -114 48.5t-47 116.5q0 67 47 113.5t114 46.5t115 -47t48 -113q0 -68 -48 -116.5t-115 -48.5zM682 -14q-67 0 -114 48.5t-47 116.5q0 67 47 113.5t114 46.5t116 -47t49 -113q0 -67 -49 -116t-116 -49zM1116 -14q-66 0 -113 48.5t-47 116.5q0 67 46.5 113.5
t113.5 46.5q68 0 116.5 -47t48.5 -113q0 -67 -48.5 -116t-116.5 -49z" />
    <glyph glyph-name="perthousand" unicode="&#x2030;" horiz-adv-x="1898" 
d="M312 876q-108 0 -184 76.5t-76 184.5t76 184t184 76q109 0 185 -76t76 -184t-76 -184.5t-185 -76.5zM125 0q-14 0 -20 9t1 22l838 1337q7 13 14 16.5t21 3.5h189q14 0 21.5 -10.5t-0.5 -23.5l-835 -1333q-13 -21 -35 -21h-194zM312 1052q36 0 60.5 24.5t24.5 60.5
t-24.5 60.5t-60.5 24.5q-35 0 -60 -25t-25 -60t25 -60t60 -25zM981 -9q-108 0 -184.5 76.5t-76.5 184.5t76.5 184t184.5 76q109 0 184.5 -76t75.5 -184t-75.5 -184.5t-184.5 -76.5zM1585 -9q-107 0 -184 76.5t-77 184.5t77 184t184 76q109 0 185.5 -76t76.5 -184
t-76.5 -184.5t-185.5 -76.5zM981 167q35 0 60 25t25 60t-25 60t-60 25t-60 -25t-25 -60t25 -60t60 -25zM1585 167q36 0 60.5 24.5t24.5 60.5t-24.5 60.5t-60.5 24.5q-35 0 -59.5 -25t-24.5 -60t24.5 -60t59.5 -25z" />
    <glyph glyph-name="guilsinglleft" unicode="&#x2039;" horiz-adv-x="669" 
d="M94 373l234 -337q8 -17 30 -17h187q24 0 30.5 16.5t-4.5 39.5l-154 321v5l159 318q12 26 4.5 42.5t-30.5 16.5h-177q-23 0 -36 -23l-243 -332q-17 -23 0 -50z" />
    <glyph glyph-name="guilsinglright" unicode="&#x203a;" horiz-adv-x="669" 
d="M576 373q17 27 0 50l-243 332q-18 23 -36 23h-177q-23 0 -30.5 -16.5t2.5 -42.5l161 -318v-5l-154 -321q-11 -23 -4.5 -39.5t30.5 -16.5h187q18 0 30 17z" />
    <glyph glyph-name="fraction" unicode="&#x2044;" horiz-adv-x="380" 
d="M474 1366q12 22 36 22h71q19 0 26 -10t-1 -26l-701 -1329q-10 -23 -35 -23h-73q-18 0 -25 10t2 26z" />
    <glyph glyph-name="Euro" unicode="&#x20ac;" horiz-adv-x="1386" 
d="M1303 243q24 -21 0 -45q-213 -210 -512 -210q-237 0 -416.5 125t-249.5 333h-78q-12 0 -21 8.5t-9 21.5v105q0 13 9 22.5t21 9.5h45q-3 31 -3 64q0 51 1 61h-43q-12 0 -21 8.5t-9 20.5v106q0 13 9 22t21 9h76q70 209 250 335.5t418 126.5q299 0 512 -210q24 -24 0 -45
l-170 -151q-20 -20 -43 0q-123 123 -295 123q-111 0 -200 -48t-144 -131h313q13 0 22 -8.5t9 -20.5v-106q0 -13 -9 -22t-22 -9h-375q-4 -38 -4 -61q0 -22 6 -64h373q13 0 22 -8.5t9 -21.5v-106q0 -13 -9 -22t-22 -9h-309q55 -82 143 -128.5t197 -46.5q172 0 295 123
q23 20 43 0z" />
    <glyph glyph-name="trademark" unicode="&#x2122;" horiz-adv-x="1199" 
d="M451 1354q23 0 23 -23v-83q0 -24 -23 -24h-106v-334q0 -10 -6.5 -17t-15.5 -7h-83q-12 0 -19.5 6.5t-7.5 17.5v334h-104q-22 0 -22 24v83q0 23 22 23h342zM1092 1354q21 0 21 -23v-441q0 -10 -6 -17t-15 -7h-85q-23 0 -23 24v224l-120 -229q-5 -15 -22 -15h-33
q-17 0 -25 15l-112 229v-224q0 -10 -7 -17t-18 -7h-83q-10 0 -17 7t-7 17v441q0 23 24 23h94q16 0 24 -14l142 -262l143 262q5 14 26 14h99z" />
    <glyph glyph-name="oneeighth" unicode="&#x215b;" horiz-adv-x="1301" 
d="M328 1388q9 0 15 -5.5t6 -13.5v-569q0 -9 -6 -15t-15 -6h-85q-21 0 -21 21v384l-111 -21q-22 0 -22 15l-2 66q0 18 15 23q69 26 120 99q18 22 33 22h73zM906 1366q12 22 36 22h73q18 0 25 -10t-2 -26l-700 -1329q-13 -23 -36 -23h-71q-19 0 -25.5 10t1.5 26zM909 314
q-37 -9 -74 -50t-37 -104q0 -75 55.5 -123.5t151.5 -48.5q98 0 154 48.5t56 123.5q0 64 -36 105t-75 49l2 4q95 50 95 142q0 77 -55 122.5t-141 45.5q-83 0 -137 -45.5t-54 -122.5q0 -97 94 -142zM1088 456q0 -30 -23.5 -53t-57.5 -23q-33 0 -57.5 23t-24.5 53
q0 31 23.5 51.5t58.5 20.5t58 -20.5t23 -51.5zM1007 83q-38 0 -65 23t-27 59q0 35 24.5 61.5t67.5 26.5t68 -26.5t25 -61.5q0 -36 -26.5 -59t-66.5 -23z" />
    <glyph glyph-name="threeeighths" unicode="&#x215c;" horiz-adv-x="1289" 
d="M495 949q0 -85 -63.5 -138t-152.5 -53q-121 0 -204 106q-9 12 0 21l55 57q9 11 21 -1q66 -75 128 -75q42 0 70.5 24.5t28.5 65.5q0 47 -37 71t-101 -1l-59 67q-6 11 0 21l140 158h-210q-16 0 -16 12v87q0 17 16 17h347q16 0 16 -15v-82q0 -8 -16 -26l-125 -137
q71 -2 116.5 -55.5t45.5 -123.5zM1022 1388q18 0 25 -10t-2 -26l-700 -1329q-13 -23 -36 -23h-71q-19 0 -26 10t1 26l702 1330q10 22 34 22h73zM1109 314q38 -9 74.5 -50t36.5 -104q0 -75 -56.5 -123.5t-155.5 -48.5q-96 0 -151 48.5t-55 123.5q0 63 37 104t74 50l-2 4
q-94 45 -94 142q0 77 54 122.5t137 45.5q88 0 142.5 -45.5t54.5 -122.5q0 -39 -17 -70t-34.5 -44.5t-42.5 -27.5zM1010 528q-34 0 -57.5 -20.5t-23.5 -51.5q0 -30 24 -53t57 -23q35 0 58.5 23t23.5 53q0 31 -23.5 51.5t-58.5 20.5zM1012 83q40 0 66 23t26 59
q0 35 -24.5 61.5t-67.5 26.5t-68.5 -26.5t-25.5 -61.5q0 -36 27.5 -59t66.5 -23z" />
    <glyph glyph-name="fiveeighths" unicode="&#x215d;" horiz-adv-x="1296" 
d="M482 956q0 -88 -64.5 -143.5t-150.5 -55.5q-119 0 -198 100l80 75q18 -32 49.5 -50.5t68.5 -18.5q42 0 68 27t26 65q0 37 -25.5 63.5t-63.5 26.5q-35 0 -62 -23l-99 11q-17 3 -17 17v323q0 15 15 15h318q17 0 17 -13v-89q0 -4 -5 -8t-12 -4h-217v-144q39 21 82 21
q86 0 138 -57.5t52 -137.5zM1027 1388q19 0 26 -10t-1 -26l-701 -1329q-10 -23 -35 -23h-73q-18 0 -25 10t2 26l700 1330q12 22 36 22h71zM1116 314q38 -9 74.5 -50t36.5 -104q0 -75 -56 -123.5t-154 -48.5q-96 0 -151 48.5t-55 123.5q0 63 36 104t73 50l-2 4
q-94 47 -94 142q0 77 54 122.5t139 45.5q86 0 140 -45.5t54 -122.5q0 -93 -93 -142zM1017 528q-34 0 -57 -20.5t-23 -51.5q0 -30 24 -53t56 -23q35 0 58.5 23t23.5 53q0 32 -22.5 52t-59.5 20zM1019 83q40 0 66 23t26 59q0 35 -24.5 61.5t-67.5 26.5t-68.5 -26.5
t-25.5 -61.5q0 -36 28 -59t66 -23z" />
    <glyph glyph-name="seveneighths" unicode="&#x215e;" horiz-adv-x="1225" 
d="M203 793q-7 -14 -22 -14h-94q-15 0 -9 18l233 473h-226q-7 0 -11.5 4.5t-4.5 9.5v89q0 15 14 15h380q13 0 13 -15v-24q0 -3 -6 -18l-20 -40zM956 1388q18 0 25 -10t-2 -26l-700 -1329q-13 -23 -36 -23h-71q-19 0 -25.5 10t1.5 26l699 1330q12 22 36 22h73zM1043 314
q39 -8 76 -49.5t37 -104.5q0 -75 -56.5 -123.5t-155.5 -48.5q-96 0 -151 48.5t-55 123.5q0 63 37 104t74 50l-2 4q-94 45 -94 142q0 77 54 122.5t137 45.5q86 0 141 -45.5t55 -122.5q0 -92 -95 -142zM946 528q-34 0 -58 -20.5t-24 -51.5q0 -30 24.5 -53t57.5 -23
q34 0 57.5 23t23.5 53q0 31 -23 51.5t-58 20.5zM948 83q40 0 66 23t26 59q0 35 -25 61.5t-67 26.5q-44 0 -69 -26.5t-25 -61.5q0 -36 27.5 -59t66.5 -23z" />
    <glyph glyph-name="partialdiff" unicode="&#x2202;" horiz-adv-x="1070" 
d="M514 843q56 0 101.5 -19.5t71.5 -49.5q-2 55 -25.5 110.5t-67.5 105t-117 80t-163 30.5q-15 0 -25.5 9.5t-10.5 23.5l1 188q0 14 9.5 23.5t25.5 9.5q173 1 307.5 -60t218 -169t126 -249t42.5 -307q0 -281 -132.5 -433.5t-349.5 -152.5q-194 0 -320 119t-126 309
q0 193 119.5 312.5t314.5 119.5zM535 243q74 0 124.5 50.5t50.5 123.5q0 69 -52.5 118.5t-126.5 49.5t-123.5 -49.5t-49.5 -122.5q0 -71 52 -120.5t125 -49.5z" />
    <glyph glyph-name="emptyset" unicode="&#x2205;" horiz-adv-x="1589" 
d="M1538 1281q9 -9 8.5 -22t-10.5 -22l-168 -168q119 -174 119 -392q0 -189 -89 -346.5t-250 -250t-360 -92.5q-220 0 -389 111l-153 -153q-22 -22 -45 0l-149 149q-9 9 -9 22t9 22l151 151q-114 173 -114 387q0 189 89 346.5t250 250t360 92.5q212 0 384 -108l171 172
q24 21 45 0zM385 677q0 -91 35 -170l542 541q-79 35 -174 35q-175 -1 -289 -117.5t-114 -288.5zM1189 677q0 94 -37 177l-543 -545q82 -38 179 -38q175 0 288 117t113 289z" />
    <glyph glyph-name="product" unicode="&#x220f;" horiz-adv-x="1345" 
d="M121 0q-31 0 -31 33v1291q0 12 8.5 21t21.5 9h1105q13 0 22.5 -9t9.5 -21v-1291q0 -33 -30 -33h-231q-31 0 -31 33v1059h-585v-1059q0 -33 -29 -33h-230z" />
    <glyph glyph-name="summation" unicode="&#x2211;" horiz-adv-x="1206" 
d="M1119 1125q0 -14 -8.5 -23.5t-22.5 -9.5h-616l373 -335l4.5 -4.5l4 -4l3.5 -3.5t3 -3.5t2.5 -3.5t2 -3l1.5 -3t1 -4t0.5 -4t0.5 -5v-94q0 -12 -4.5 -19t-18.5 -18l-371 -324h614q13 0 22 -9t9 -22v-200q0 -14 -8.5 -23.5t-22.5 -9.5h-970q-13 0 -22 8.5t-9 21.5v203
q0 17 21 34l461 405l-461 420q-21 21 -21 31v200q0 13 9 22t22 9h970q13 0 22 -9t9 -22v-198z" />
    <glyph glyph-name="minus" unicode="&#x2212;" horiz-adv-x="1063" 
d="M118 526q-13 0 -22 8t-9 21v193q0 14 9 22.5t22 8.5h828q13 0 22 -7.5t9 -21.5v-193q0 -13 -9 -22t-22 -9h-828z" />
    <glyph glyph-name="radical" unicode="&#x221a;" horiz-adv-x="1227" 
d="M439 0q-5 0 -8.5 1.5t-6 3t-5.5 5.5l-4.5 6t-4.5 7.5t-4 7.5l-359 825q-6 12 -0.5 20.5t19.5 8.5h233q20 0 32 -29l184 -438l381 941q9 29 34 29h235q14 0 18 -8.5t-3 -20.5l-559 -1328q-10 -31 -36 -31h-146z" />
    <glyph glyph-name="infinity" unicode="&#x221e;" horiz-adv-x="1503" 
d="M752 300q10 -29 33.5 -61t61 -65.5t96.5 -55t126 -21.5q168 0 275 106.5t107 296.5q0 194 -106.5 298.5t-275.5 104.5q-122 0 -203.5 -59.5t-113.5 -138.5l-7 5q-102 193 -332 193q-158 0 -259.5 -112t-101.5 -291q0 -176 102 -289.5t259 -113.5q68 0 126 18.5t97.5 50
t65.5 63t44 66.5zM432 658q62 0 106.5 -44.5t44.5 -113.5t-44 -114.5t-107 -45.5q-64 0 -106.5 44.5t-42.5 111.5q0 71 42.5 116.5t106.5 45.5zM1220 500q0 -69 -40 -114.5t-104 -45.5q-59 0 -105 42t-46 118q0 74 46 116t105 42q64 0 104 -45.5t40 -112.5z" />
    <glyph glyph-name="integral" unicode="&#x222b;" horiz-adv-x="754" 
d="M793 1319q23 -23 9 -49l-78 -137q-13 -28 -42 -15q-47 27 -92 27q-47 0 -82.5 -30t-35.5 -96v-993q0 -163 -96 -253.5t-248 -90.5q-76 0 -146.5 20.5t-113.5 57.5q-24 24 -9 49l79 137q13 28 41 16q44 -28 90 -28q48 0 84 30.5t36 96.5v993q0 163 96 253t248 90
q75 0 145 -21t115 -57z" />
    <glyph glyph-name="approxequal" unicode="&#x2248;" horiz-adv-x="1010" 
d="M673 592q-57 0 -102 18t-69.5 39t-62.5 39t-83 18q-42 0 -77.5 -14.5t-49.5 -26.5t-33 -33q-25 -21 -38 0l-66 104q-11 22 2 40q113 147 243 147q58 0 103 -18t69.5 -40t62 -40t82.5 -18q17 0 32.5 2.5t27.5 5.5t24.5 9t20 10t18.5 13t14.5 12t13.5 12.5t11 10.5
q22 22 36 1l66 -105q13 -19 0 -40q-104 -146 -245 -146zM673 175q-47 0 -84.5 12t-62.5 28.5t-48.5 33.5t-54 29t-67.5 12q-32 0 -59 -7t-47 -21t-29.5 -22.5t-24.5 -24.5q-25 -21 -38 0l-66 104q-11 22 2 40q113 148 243 148q58 0 103 -18t69.5 -40t62 -40t82.5 -18
q17 0 32.5 2.5t27 5t25 9.5t20 10t18.5 12.5t14.5 11.5t13.5 12l11 11q23 23 36 2l66 -106q13 -19 0 -40q-104 -146 -245 -146z" />
    <glyph glyph-name="notequal" unicode="&#x2260;" horiz-adv-x="1063" 
d="M946 729h-266l-55 -153h321q13 0 22 -7.5t9 -21.5v-193q0 -13 -9 -22t-22 -9h-410l-107 -302q-9 -21 -33 -21h-188q-12 0 -17.5 9t-1.5 21l104 293h-175q-13 0 -22 8t-9 21v193q0 14 9 22.5t22 8.5h266l53 153h-319q-13 0 -22 8t-9 21v193q0 14 9 22.5t22 8.5h410
l109 306q11 24 35 24h182q13 0 19.5 -10t1.5 -23l-106 -297h177q13 0 22 -7.5t9 -21.5v-193q0 -13 -9 -22t-22 -9z" />
    <glyph glyph-name="lessequal" unicode="&#x2264;" horiz-adv-x="997" 
d="M89 838q0 -19 17 -24l770 -325q35 -15 35 18v194q0 25 -17 30l-469 178l469 176q17 4 17 33v194q0 34 -35 17l-770 -326q-17 -5 -17 -24v-141zM880 0h-762q-12 0 -20.5 9t-8.5 21v177q0 12 8.5 19.5t20.5 7.5h762q13 0 21 -8t8 -21v-177q0 -12 -8 -20t-21 -8z" />
    <glyph glyph-name="greaterequal" unicode="&#x2265;" horiz-adv-x="997" 
d="M909 838v141q0 19 -17 24l-771 326q-34 16 -34 -17v-194q0 -28 19 -33l467 -176l-467 -178q-19 -5 -19 -30v-194q0 -34 34 -18l771 325q17 5 17 24zM118 0q-12 0 -20.5 8t-8.5 20v177q0 13 8 21t21 8h762q29 0 29 -27v-177q0 -12 -8.5 -21t-20.5 -9h-762z" />
    <glyph glyph-name="lozenge" unicode="&#x25ca;" horiz-adv-x="1562" 
d="M750 1361q32 32 64 0l646 -649q32 -32 0 -63l-646 -649q-32 -32 -64 0l-648 649q-32 31 0 63zM781 1040l-358 -360l358 -359l359 359z" />
    <glyph glyph-name="W.ss01" horiz-adv-x="1985" 
d="M1914 1354q16 0 23.5 -11t-0.5 -33l-644 -1289q-19 -33 -36 -33h-20q-17 0 -36 33l-203 402l-198 -404q-17 -31 -36 -31h-19q-20 0 -37 31l-658 1291q-10 22 -2 33t25 11h243q12 0 20 -9.5t20 -32.5l397 -786l94 198l-295 586q-10 22 -2 33t26 11h243q22 0 40 -40
l137 -280l132 278q18 42 40 42h243q16 0 23.5 -11t-0.5 -33l-287 -583l99 -201l384 788q12 22 20 31t20 9h244z" />
    <glyph glyph-name="i.loclTRK" horiz-adv-x="508" 
d="M255 1081q-60 0 -103 43t-43 103q0 58 43 100t103 42q59 0 100.5 -41.5t41.5 -100.5q0 -60 -42 -103t-100 -43zM144 0q-14 0 -22.5 9t-8.5 22v823q0 13 8.5 22t22.5 9h220q13 0 22.5 -9t9.5 -22v-823q0 -13 -9.5 -22t-22.5 -9h-220z" />
    <glyph glyph-name="zero.osf" horiz-adv-x="1022" 
d="M512 -23q-124 0 -229.5 61t-167 166.5t-61.5 229.5q0 189 134 322.5t324 133.5q189 0 322.5 -133.5t133.5 -322.5t-133.5 -323t-322.5 -134zM512 257q75 0 127 52t52 127q0 73 -52 125t-127 52q-76 0 -128.5 -52t-52.5 -125q0 -75 52.5 -127t128.5 -52z" />
    <glyph glyph-name="one.osf" horiz-adv-x="640" 
d="M521 882q12 0 21.5 -9.5t9.5 -22.5v-819q0 -13 -9 -22t-22 -9h-229q-14 0 -23 9t-9 22v457l-170 -18q-34 0 -34 25l-2 145q0 17 4.5 24.5t19.5 12.5q63 21 108.5 66t91.5 123q9 16 27 16h216z" />
    <glyph glyph-name="two.osf" horiz-adv-x="1034" 
d="M934 226q29 0 29 -30v-165q0 -12 -8.5 -21.5t-20.5 -9.5h-809q-12 0 -21.5 9t-9.5 21v147q0 24 29 36l377 157q86 36 123.5 69t37.5 80q0 50 -38.5 85t-105.5 35q-65 0 -106.5 -35t-54.5 -92q-9 -30 -35 -30h-220q-33 0 -30 35q7 70 37.5 134t84 116.5t139.5 84t192 31.5
q100 0 180.5 -27t130 -71.5t76 -99.5t26.5 -114q0 -169 -205 -262l-177 -83h379z" />
    <glyph glyph-name="three.osf" horiz-adv-x="1089" 
d="M646 345q93 -7 165.5 -41t115.5 -87.5t65 -118t22 -138.5q0 -99 -39 -183.5t-105 -141.5t-154 -89t-185 -32q-130 0 -245 57.5t-197 173.5q-10 14 -10.5 22t11.5 21l151 143q25 25 44 -4q94 -144 241 -144q94 0 146.5 53t52.5 131q0 75 -46 125t-129 50q-32 0 -100 -17
q-20 0 -30 14l-99 137q-17 26 2 45l304 311h-440q-13 0 -22 8t-9 21v193q0 13 9 22t22 9h714q31 0 31 -31v-186q0 -33 -23 -55z" />
    <glyph glyph-name="four.osf" horiz-adv-x="1159" 
d="M1052 12q29 0 29 -31v-191q0 -13 -8.5 -23t-20.5 -10h-84v-194q0 -32 -31 -32h-189q-13 0 -23 9.5t-10 22.5v194h-613q-12 0 -21.5 9t-9.5 22l-2 193q0 15 18 28q180 143 290 379t112 468q0 13 8.5 21t21.5 8h224q14 0 22.5 -9t8.5 -22q-5 -230 -108 -463t-265 -379h314
v103q0 24 30 33l192 45q12 2 21.5 -9t9.5 -24v-148h84z" />
    <glyph glyph-name="five.osf" horiz-adv-x="1074" 
d="M413 373q70 49 174 49q124 0 220 -61t146 -162.5t50 -224.5q0 -205 -135 -332.5t-337 -127.5q-133 0 -249 59t-200 168q-20 24 1 46l153 157q23 23 45 0q109 -144 245 -144q82 0 130.5 50t48.5 122q0 73 -49.5 121.5t-120.5 48.5q-78 0 -129 -57l-239 63q-15 4 -26 15
t-11 23v663q0 36 35 36h722q35 0 35 -33v-189q0 -14 -9.5 -23.5t-25.5 -9.5h-474v-257z" />
    <glyph glyph-name="six.osf" horiz-adv-x="1070" 
d="M576 843q194 0 313 -119.5t119 -312.5q0 -190 -126 -309t-320 -119q-217 0 -349.5 152.5t-132.5 433.5q0 166 43 307t126.5 249t218 169t306.5 60q16 0 25.5 -9.5t9.5 -23.5l2 -188q0 -14 -11 -23.5t-24 -9.5q-90 0 -163.5 -30.5t-117 -80t-67.5 -104.5t-27 -111
q60 69 175 69zM554 243q73 0 125 49.5t52 120.5q0 73 -50 122.5t-124 49.5t-126.5 -49.5t-52.5 -118.5q0 -73 51 -123.5t125 -50.5z" />
    <glyph glyph-name="seven.osf" horiz-adv-x="1013" 
d="M960 798q0 -8 -7 -24l-516 -1213q-4 -11 -16.5 -20.5t-24.5 -9.5h-217q-14 0 -19 19t0 28l460 1052h-533q-13 0 -23 10t-10 23v189q0 13 9.5 23t23.5 10h842q31 0 31 -29v-58z" />
    <glyph glyph-name="eight.osf" horiz-adv-x="1036" 
d="M305 698q-23 -8 -51 -23.5t-63 -45t-63 -66.5t-47 -91.5t-19 -115.5q0 -162 122 -267.5t331 -105.5q213 0 336.5 105.5t123.5 267.5q0 244 -246 342l5 5q35 19 66 44t62 62.5t49 89t18 111.5q0 156 -117 256t-297 100q-176 0 -291 -100t-115 -256q0 -59 18 -111t48 -90
t61.5 -64t65.5 -44zM666 988q0 -56 -42 -96t-105 -40t-105.5 40t-42.5 96q0 57 42 97t106 40t105.5 -40t41.5 -97zM519 229q-72 0 -120 41.5t-48 107.5q0 65 46.5 108t121.5 43t121 -43t46 -108q0 -66 -47.5 -107.5t-119.5 -41.5z" />
    <glyph glyph-name="nine.osf" horiz-adv-x="1070" 
d="M496 24q-195 0 -314.5 119.5t-119.5 312.5q0 190 126.5 309.5t320.5 119.5q217 0 349.5 -152.5t132.5 -433.5q0 -166 -42.5 -307t-126 -249t-218 -169t-307.5 -60q-16 0 -25.5 9.5t-9.5 23.5l-2 187q0 14 11 23.5t26 9.5q90 0 163 31t117 80t67.5 105t25.5 111
q-26 -30 -72 -50t-102 -20zM517 625q-73 0 -125 -49.5t-52 -120.5q0 -73 50 -122.5t124 -49.5t126.5 49.5t52.5 118.5q0 73 -51 123.5t-125 50.5z" />
    <glyph glyph-name="zero.tf" horiz-adv-x="1388" 
d="M694 -21q-129 0 -233 54t-170.5 148.5t-102 220t-35.5 270.5q0 144 35.5 269t102 220t170.5 150t233 55t233 -55t170.5 -150t101.5 -220t35 -269q0 -195 -60 -350t-184 -249t-296 -94zM696 241q84 0 141 58.5t82 153t25 219.5q0 194 -62 313t-186 119q-85 0 -143 -58.5
t-84 -153.5t-26 -220q0 -192 64 -311.5t189 -119.5z" />
    <glyph glyph-name="one.tf" horiz-adv-x="1388" 
d="M840 1354q13 0 22 -9t9 -21v-1293q0 -13 -9 -22t-22 -9h-227q-14 0 -23 9t-9 22v932q-85 -25 -170 -33q-31 0 -34 25l-18 159q-2 14 4 22t24 15q73 27 122 71t90 118q8 14 28 14h213z" />
    <glyph glyph-name="two.tf" horiz-adv-x="1388" 
d="M1109 255q31 0 31 -31v-193q0 -13 -9 -22t-22 -9h-828q-12 0 -22.5 9.5t-10.5 21.5v61l458 569q70 85 100.5 142.5t30.5 114.5q0 71 -49 124t-127 53q-42 0 -79 -15t-68.5 -44t-50 -50.5t-43.5 -56.5q-20 -23 -45 0l-144 128q-9 7 -9.5 20t7.5 22q93 132 201 199.5
t250 67.5q189 0 314.5 -112.5t124.5 -297.5q0 -163 -121 -314l-316 -387h427z" />
    <glyph glyph-name="three.tf" horiz-adv-x="1388" 
d="M795 814q93 -7 165 -41t115 -87.5t64.5 -118t21.5 -138.5q0 -132 -66 -235t-175.5 -157t-239.5 -54q-131 0 -245.5 57t-196.5 173q-18 25 2 44l151 142q24 24 41 -3q98 -144 243 -144q93 0 146.5 53t53.5 131q0 75 -46.5 125t-130.5 50q-36 0 -99 -17q-20 0 -30 13
l-99 138q-18 24 0 45l306 310h-439q-13 0 -22.5 8.5t-9.5 21.5v193q0 13 9 22t23 9h713q31 0 31 -31v-186q0 -34 -22 -56z" />
    <glyph glyph-name="four.tf" horiz-adv-x="1388" 
d="M1170 481q31 0 31 -31v-191q0 -13 -9 -23t-22 -10h-84v-195q0 -31 -31 -31h-189q-13 0 -23 9t-10 22v195h-611q-13 0 -23 9t-10 22l-2 193q0 18 18 27q180 143 290 378.5t114 468.5q0 13 8 21.5t22 8.5h224q13 0 21 -9t8 -22q-5 -230 -107 -463t-264 -379h312v102
q0 24 30 33l192 45q13 2 22 -8.5t9 -24.5v-147h84z" />
    </font>
</defs>
</svg>
